<?xml version="1.0" encoding="utf-8"?>
<!-- Generator: Adobe Illustrator 16.0.0, SVG Export Plug-In . SVG Version: 6.00 Build 0)  -->
<!DOCTYPE svg PUBLIC "-//W3C//DTD SVG 1.1//EN" "http://www.w3.org/Graphics/SVG/1.1/DTD/svg11.dtd">
<svg version="1.1" id="Capa_1" xmlns="http://www.w3.org/2000/svg" xmlns:xlink="http://www.w3.org/1999/xlink" x="0px" y="0px"
	 width="23.955px" height="37.75px" viewBox="0 0 23.955 37.75" enable-background="new 0 0 23.955 37.75" xml:space="preserve">
<path class="arrow-1" fill-rule="evenodd" clip-rule="evenodd" fill="#FFFFFF" d="M23.26,16.619c-0.386-0.101-0.678,0.059-0.943,0.327
	c-3.091,3.128-6.185,6.253-9.277,9.379c-0.063,0.063-0.128,0.122-0.232,0.221v-0.347c0-8.356,0-16.713-0.002-25.069
	c0-0.146-0.005-0.294-0.031-0.437c-0.07-0.387-0.374-0.668-0.728-0.691c-0.401-0.025-0.723,0.196-0.836,0.606
	c-0.046,0.167-0.051,0.35-0.051,0.526c-0.002,8.349-0.002,16.697-0.002,25.045v0.289c-0.03,0.019-0.061,0.037-0.091,0.056
	c-0.05-0.078-0.088-0.167-0.151-0.231c-3.069-3.106-6.142-6.211-9.213-9.315c-0.059-0.06-0.117-0.122-0.18-0.178
	c-0.511-0.459-1.296-0.23-1.485,0.434c-0.115,0.406,0.051,0.713,0.328,0.994c3.823,3.861,7.645,7.725,11.466,11.587
	c0.054,0.054,0.109,0.105,0.181,0.174c0.066-0.063,0.117-0.11,0.165-0.159c3.812-3.862,7.622-7.725,11.433-11.588
	c0.043-0.044,0.087-0.087,0.126-0.134C24.175,17.576,23.924,16.792,23.26,16.619z"/>
<path class="arrow-2" fill-rule="evenodd" clip-rule="evenodd" fill="#FFFFFF" d="M23.26,16.619c-0.386-0.101-0.678,0.059-0.943,0.327
	c-3.091,3.128-6.185,6.253-9.277,9.379c-0.063,0.063-0.128,0.122-0.232,0.221v-0.347c0-8.356,0-16.713-0.002-25.069
	c0-0.146-0.005-0.294-0.031-0.437c-0.07-0.387-0.374-0.668-0.728-0.691c-0.401-0.025-0.723,0.196-0.836,0.606
	c-0.046,0.167-0.051,0.35-0.051,0.526c-0.002,8.349-0.002,16.697-0.002,25.045v0.289c-0.03,0.019-0.061,0.037-0.091,0.056
	c-0.05-0.078-0.088-0.167-0.151-0.231c-3.069-3.106-6.142-6.211-9.213-9.315c-0.059-0.06-0.117-0.122-0.18-0.178
	c-0.511-0.459-1.296-0.23-1.485,0.434c-0.115,0.406,0.051,0.713,0.328,0.994c3.823,3.861,7.645,7.725,11.466,11.587
	c0.054,0.054,0.109,0.105,0.181,0.174c0.066-0.063,0.117-0.11,0.165-0.159c3.812-3.862,7.622-7.725,11.433-11.588
	c0.043-0.044,0.087-0.087,0.126-0.134C24.175,17.576,23.924,16.792,23.26,16.619z"/>
</svg>
