<?xml version="1.0" encoding="utf-8"?>
<!-- Generator: Adobe Illustrator 16.0.0, SVG Export Plug-In . SVG Version: 6.00 Build 0)  -->
<!DOCTYPE svg PUBLIC "-//W3C//DTD SVG 1.1//EN" "http://www.w3.org/Graphics/SVG/1.1/DTD/svg11.dtd">
<svg version="1.1" id="Capa_1" xmlns="http://www.w3.org/2000/svg" xmlns:xlink="http://www.w3.org/1999/xlink" x="0px" y="0px"
	 width="249px" height="144px" viewBox="0 0 249 144" enable-background="new 0 0 249 144" xml:space="preserve">
<title>Group 25</title>
<desc>Created with Sketch.</desc>
<g data-bottom="opacity:0;" data--25-bottom="opacity:1;" id="Group-29" transform="translate(7.000000, 47.000000)">
	<text transform="matrix(1 0 0 1 0 12)" fill="#902F01" font-family="'Arial-ItalicMT'" font-size="12">during crisis</text>
</g>
<text data-bottom="opacity:0;" data--25-bottom="opacity:1;" transform="matrix(1 0 0 1 7 140)" fill="#902F01" font-family="'Arial-ItalicMT'" font-size="12">before crisis</text>
<g id="Clip-4">
</g>
<g  data-bottom="opacity:0;" data--25-bottom="opacity:1;" >
	<path id="Fill-1" fill="#8E430D" d="M17.021,102.973c0,0.235,0.017,0.471,0.051,0.701c0.319,2.156,2.109,3.803,4.228,3.948v-9.298
		C18.914,98.486,17.021,100.506,17.021,102.973"/>
	<defs>
		<filter id="Adobe_OpacityMaskFilter" filterUnits="userSpaceOnUse" x="0" y="81.877" width="21.3" height="38.828">
			<feColorMatrix  type="matrix" values="1 0 0 0 0  0 1 0 0 0  0 0 1 0 0  0 0 0 1 0"/>
		</filter>
	</defs>
	<mask maskUnits="userSpaceOnUse" x="0" y="81.877" width="21.3" height="38.828" id="mask-2">
		<g filter="url(#Adobe_OpacityMaskFilter)">
			<path id="path-1" fill="#FFFFFF" d="M0,120.705V81.877h21.3v38.828H0z"/>
		</g>
	</mask>
	<path id="Fill-3" mask="url(#mask-2)" fill="#8E430D" d="M10.951,91.734v-1.842H6.933v5.796h0.051l-0.667,0.665l-0.234,0.234
		c-1.913,1.925-3.811,3.863-5.712,5.799c-0.105,0.107-0.203,0.223-0.371,0.408h6.397v17.91H21.3v-6.586h-0.477v-2.047H19.22v-1.592
		h1.604v-1.305c-2.677-0.354-4.889-2.499-5.299-5.266c-0.046-0.308-0.069-0.623-0.069-0.938c0-3.344,2.596-6.076,5.845-6.24V81.877
		c-2.815,2.654-5.616,5.295-8.495,8.009L10.951,91.734z"/>
</g>
<g  data--25-bottom="opacity:0;" data--50-bottom="opacity:0.5;" id="Group-8" transform="translate(21.532008, 81.283728)" opacity="0.5">
	<g id="Clip-7">
	</g>
	<defs>
		<filter id="Adobe_OpacityMaskFilter_1_" filterUnits="userSpaceOnUse" x="0.38" y="0.54" width="21.3" height="38.882">
			<feColorMatrix  type="matrix" values="1 0 0 0 0  0 1 0 0 0  0 0 1 0 0  0 0 0 1 0"/>
		</filter>
	</defs>
	<mask maskUnits="userSpaceOnUse" x="0.38" y="0.54" width="21.3" height="38.882" id="mask-4">
		<g filter="url(#Adobe_OpacityMaskFilter_1_)">
			<path id="path-3" fill="#FFFFFF" d="M0.38,39.421h21.3V0.54H0.38V39.421L0.38,39.421z"/>
		</g>
	</mask>
	<path id="Fill-6" mask="url(#mask-4)" fill="#8E430D" d="M0.38,0.54v14.909v1.592v9.297v6.497v6.587h14.989V21.507h6.259
		c0.018-0.035,0.035-0.069,0.052-0.104C14.587,14.456,7.493,7.507,0.38,0.54"/>
</g>
<g  data--50-bottom="opacity:0;" data--75-bottom="opacity:0.5;" id="Group-11" transform="translate(51.138518, 81.283728)" opacity="0.5">
	<g id="Clip-10">
	</g>
	<defs>
		<filter id="Adobe_OpacityMaskFilter_2_" filterUnits="userSpaceOnUse" x="0.143" y="0.177" width="43.211" height="39.148">
			<feColorMatrix  type="matrix" values="1 0 0 0 0  0 1 0 0 0  0 0 1 0 0  0 0 0 1 0"/>
		</filter>
	</defs>
	<mask maskUnits="userSpaceOnUse" x="0.143" y="0.177" width="43.211" height="39.148" id="mask-6">
		<g filter="url(#Adobe_OpacityMaskFilter_2_)">
			<path id="path-5" fill="#FFFFFF" d="M43.354,0.177H0.143v39.148h43.211V0.177L43.354,0.177z"/>
		</g>
	</mask>
	<path id="Fill-9" mask="url(#mask-6)" fill="#8E430D" d="M21.782,0.177c-2.93,2.762-5.84,5.506-8.835,8.328L11.791,9.66V8.023
		H7.774v5.643l-1.548,1.543c-1.912,1.924-3.81,3.863-5.712,5.799c-0.105,0.107-0.202,0.223-0.371,0.408h6.396v17.91h30.504V21.412
		h6.259c0.018-0.035,0.035-0.069,0.052-0.104C36.171,14.271,28.986,7.234,21.782,0.177"/>
</g>
<g  data--75-bottom="opacity:0;" data--100-bottom="opacity:0.5;" id="Group-14" transform="translate(102.277037, 81.283728)" opacity="0.5">
	<g id="Clip-13">
	</g>
	<defs>
		<filter id="Adobe_OpacityMaskFilter_3_" filterUnits="userSpaceOnUse" x="0.02" y="0.177" width="43.159" height="39.148">
			<feColorMatrix  type="matrix" values="1 0 0 0 0  0 1 0 0 0  0 0 1 0 0  0 0 0 1 0"/>
		</filter>
	</defs>
	<mask maskUnits="userSpaceOnUse" x="0.02" y="0.177" width="43.159" height="39.148" id="mask-8">
		<g filter="url(#Adobe_OpacityMaskFilter_3_)">
			<path id="path-7" fill="#FFFFFF" d="M43.231,0.177H0.02v39.148h43.211V0.177L43.231,0.177z"/>
		</g>
	</mask>
	<path id="Fill-12" mask="url(#mask-8)" fill="#8E430D" d="M12.825,8.505L11.668,9.66V8.023H7.651v5.643l-1.548,1.543
		c-1.912,1.924-3.81,3.863-5.712,5.799c-0.105,0.107-0.203,0.223-0.371,0.408h6.396v17.91H36.92V21.412h6.259
		c-7.132-7.141-14.315-14.178-21.52-21.234C18.73,2.939,15.82,5.683,12.825,8.505z"/>
</g>
<g  data--100-bottom="opacity:0;" data--125-bottom="opacity:0.5;" id="Group-17" transform="translate(152.877255, 81.283728)" opacity="0.5">
	<g id="Clip-16">
	</g>
	<defs>
		<filter id="Adobe_OpacityMaskFilter_4_" filterUnits="userSpaceOnUse" x="0.435" y="0.177" width="43.212" height="39.148">
			<feColorMatrix  type="matrix" values="1 0 0 0 0  0 1 0 0 0  0 0 1 0 0  0 0 0 1 0"/>
		</filter>
	</defs>
	<mask maskUnits="userSpaceOnUse" x="0.435" y="0.177" width="43.212" height="39.148" id="mask-10">
		<g filter="url(#Adobe_OpacityMaskFilter_4_)">
			<path id="path-9" fill="#FFFFFF" d="M43.647,0.177H0.435v39.148h43.212V0.177L43.647,0.177z"/>
		</g>
	</mask>
	<path id="Fill-15" mask="url(#mask-10)" fill="#8E430D" d="M22.076,0.177c-2.93,2.762-5.84,5.506-8.835,8.328L12.084,9.66V8.023
		H8.066v5.643l-1.548,1.543c-1.912,1.924-3.81,3.863-5.712,5.799c-0.105,0.107-0.202,0.223-0.371,0.408h6.396v17.91h30.504V21.412
		h6.26c0.018-0.035,0.035-0.069,0.052-0.104C36.464,14.271,29.279,7.234,22.076,0.177"/>
</g>
<g  data--125-bottom="opacity:0;" data--150-bottom="opacity:0.5;" id="Group-20" transform="translate(204.015774, 81.283728)" opacity="0.5">
	<g id="Clip-19">
	</g>
	<defs>
		<filter id="Adobe_OpacityMaskFilter_5_" filterUnits="userSpaceOnUse" x="0.312" y="0.177" width="43.213" height="39.148">
			<feColorMatrix  type="matrix" values="1 0 0 0 0  0 1 0 0 0  0 0 1 0 0  0 0 0 1 0"/>
		</filter>
	</defs>
	<mask maskUnits="userSpaceOnUse" x="0.312" y="0.177" width="43.213" height="39.148" id="mask-12">
		<g filter="url(#Adobe_OpacityMaskFilter_5_)">
			<path id="path-11" fill="#FFFFFF" d="M43.525,0.177H0.312v39.148h43.213V0.177L43.525,0.177z"/>
		</g>
	</mask>
	<path id="Fill-18" mask="url(#mask-12)" fill="#8E430D" d="M21.953,0.177c-2.93,2.762-5.84,5.506-8.835,8.328L11.961,9.66V8.023
		H7.944v5.643l-1.548,1.543c-1.912,1.924-3.811,3.863-5.713,5.799c-0.104,0.107-0.202,0.223-0.371,0.408H6.71v17.91h30.504V21.412
		h6.259c0.018-0.035,0.035-0.069,0.053-0.104C36.341,14.271,29.156,7.234,21.953,0.177"/>
</g>



<g id="Clip-2">
</g>




<g data-bottom="opacity:0;" data--25-bottom="opacity:1;">
	<defs>
		<filter id="Adobe_OpacityMaskFilter_6_" filterUnits="userSpaceOnUse" x="0.971" y="0.547" width="43.212" height="39.148">
			<feColorMatrix  type="matrix" values="1 0 0 0 0  0 1 0 0 0  0 0 1 0 0  0 0 0 1 0"/>
		</filter>
	</defs>
	<mask maskUnits="userSpaceOnUse" x="0.971" y="0.547" width="43.212" height="39.148" id="mask-14">
		<g filter="url(#Adobe_OpacityMaskFilter_6_)">
			<path id="path-13" fill="#FFFFFF" d="M0.971,0.547v39.148h43.212V0.547H0.971L0.971,0.547z"/>
		</g>
	</mask>
	<path id="Fill-1_1_" mask="url(#mask-14)" fill="#8E430D" d="M25.15,27.647c-0.571,0.268-1.171,0.441-1.791,0.52v1.303h1.604v1.592
		h-1.604v2.047h-1.565v-2.047h-1.604V29.47h1.604v-1.304c-2.677-0.354-4.889-2.5-5.299-5.265c-0.046-0.308-0.069-0.624-0.069-0.938
		c0-3.45,2.759-6.256,6.15-6.256s6.15,2.806,6.15,6.256C28.727,24.397,27.323,26.627,25.15,27.647 M22.611,0.547
		c-2.93,2.762-5.839,5.505-8.834,8.329l-1.855,1.85V8.984H7.904v5.747l-0.85,0.848c-1.913,1.924-3.81,3.863-5.712,5.798
		c-0.105,0.107-0.203,0.223-0.372,0.408h6.397v17.91h30.504V21.781h6.259c0.018-0.034,0.035-0.069,0.052-0.104
		C36.999,14.641,29.815,7.604,22.611,0.547"/>
	<path id="Fill-4" fill="#8E430D" d="M22.577,17.299c-2.529,0-4.585,2.092-4.585,4.664c0,0.236,0.017,0.472,0.051,0.702
		c0.334,2.259,2.283,3.963,4.534,3.963c0.669,0,1.315-0.144,1.917-0.426c1.621-0.76,2.668-2.424,2.668-4.239
		C27.162,19.392,25.105,17.299,22.577,17.299"/>
</g>
<g data--25-bottom="opacity:0;" data--50-bottom="opacity:1;">
	<path id="Fill-8" fill="#8E430D" d="M68.967,21.846c0,0.235,0.017,0.471,0.051,0.701c0.319,2.156,2.11,3.802,4.229,3.948v-9.298
		C70.86,17.359,68.967,19.379,68.967,21.846"/>
	<path id="Fill-10" fill="#8E430D" d="M63.733,9.774V8.437h-4.017v5.342l-1.453,1.448l-0.233,0.235
		c-1.912,1.924-3.811,3.863-5.712,5.799c-0.105,0.106-0.203,0.222-0.372,0.408h6.397v17.91h14.903v-6.587H72.77v-2.047h-1.604
		v-1.592h1.604v-1.304c-2.677-0.355-4.89-2.499-5.299-5.265c-0.045-0.308-0.069-0.624-0.069-0.938c0-3.344,2.596-6.076,5.845-6.239
		V0.75c-2.815,2.654-5.615,5.294-8.495,8.008L63.733,9.774z"/>
</g>
<path data--50-bottom="opacity:0;" data--75-bottom="opacity:0.5;" id="Fill-12_1_" opacity="0.5" fill="#8E430D" d="M73.858,0.697v14.91v1.591v9.296v6.498v6.587h14.989V21.664h6.259
	c0.018-0.035,0.035-0.069,0.052-0.104C88.064,14.612,80.971,7.664,73.858,0.697"/>
<g data--75-bottom="opacity:0;" data--100-bottom="opacity:1;">
	<path id="Fill-6_1_" opacity="0.5" fill="#8E430D" d="M124.908,0.59c-2.93,2.762-5.839,5.505-8.834,8.329l-1.157,1.153V8.437
		h-4.018v5.642l-1.548,1.544c-1.912,1.924-3.81,3.863-5.712,5.798c-0.104,0.107-0.202,0.223-0.371,0.409h6.396v17.91h30.503V21.825
		h6.26c0.018-0.035,0.035-0.069,0.052-0.104C139.296,14.684,132.111,7.647,124.908,0.59"/>
</g>
<g data--100-bottom="opacity:0;" data--125-bottom="opacity:1;">
	<path id="Fill-14" opacity="0.5" fill="#8E430D" d="M175.924,0.547c-2.93,2.762-5.84,5.505-8.835,8.329l-1.157,1.153V8.394h-4.017
		v5.642l-1.548,1.544c-1.912,1.924-3.811,3.863-5.713,5.798c-0.104,0.107-0.201,0.223-0.37,0.409h6.396v17.91h30.504V21.782h6.259
		c0.018-0.035,0.035-0.069,0.053-0.104C190.313,14.641,183.128,7.604,175.924,0.547"/>
</g>
<g data--125-bottom="opacity:0;" data--150-bottom="opacity:1;">
	<path id="Fill-16" opacity="0.5" fill="#8E430D" d="M226.939,0.547c-2.93,2.762-5.84,5.505-8.834,8.329l-1.157,1.153V8.394h-4.018
		v5.642l-1.548,1.544c-1.912,1.924-3.811,3.863-5.712,5.798c-0.104,0.107-0.202,0.223-0.371,0.409h6.396v17.91H242.2V21.782h6.259
		c0.018-0.035,0.035-0.069,0.053-0.104C241.328,14.641,234.144,7.604,226.939,0.547"/>
</g>
</svg>
