<?xml version="1.0" encoding="utf-8"?>
<!-- Generator: Adobe Illustrator 16.0.0, SVG Export Plug-In . SVG Version: 6.00 Build 0)  -->
<!DOCTYPE svg PUBLIC "-//W3C//DTD SVG 1.1//EN" "http://www.w3.org/Graphics/SVG/1.1/DTD/svg11.dtd">
<svg version="1.1" id="Capa_1" xmlns="http://www.w3.org/2000/svg" xmlns:xlink="http://www.w3.org/1999/xlink" x="0px" y="0px"
	 width="238.636px" height="155.683px" viewBox="0 0 238.636 155.683" enable-background="new 0 0 238.636 155.683"
	 xml:space="preserve">
<path data-anchor-target="#section5"
	data--300-top="stroke-dasharray[sqrt]: 560; stroke-dashoffset: 560;"
	data--900-top="stroke-dasharray[sqrt]: 954; stroke-dashoffset: 560;"
	data--1500-top="stroke-dasharray[swing]: 954; stroke-dashoffset: 560;"
	data--2500-top="stroke-dasharray[swing]: 560; stroke-dashoffset: 560;"
	opacity="0.1" fill="none" stroke="#3E0508" stroke-width="9" stroke-miterlimit="10" enable-background="new    " d="
	M72.229,18.637c34.241,0,62,27.758,62,62s-27.759,62-62,62c-34.242,0-62-27.758-62-62S37.986,18.637,72.229,18.637z"/>
<path data-anchor-target="#section5"
	data--500-top="stroke-dasharray[sqrt]: 333; stroke-dashoffset: 333;"
	data--900-top="stroke-dasharray[sqrt]: 440; stroke-dashoffset: 333;"
	data--1500-top="stroke-dasharray[swing]: 440; stroke-dashoffset: 333;"
	data--3000-top="stroke-dasharray[swing]: 333; stroke-dashoffset: 333;" opacity="0.2" fill="none" stroke="#3E0508" stroke-width="58" stroke-miterlimit="10" enable-background="new    " d="
	M72.347,51.639c16.014-0.22,29.175,12.584,29.396,28.6c0.22,16.015-12.585,29.175-28.599,29.396
	c-16.016,0.22-29.176-12.584-29.396-28.6C43.527,65.021,56.331,51.86,72.347,51.639z"/>
<path data-anchor-target="#section5"
	data--600-top="stroke-dasharray[sqrt]: 560; stroke-dashoffset: 560;"
	data--900-top="stroke-dasharray[sqrt]: 788; stroke-dashoffset: 560;"
	data--1500-top="stroke-dasharray[swing]: 788; stroke-dashoffset: 560;"
	data--2000-top="stroke-dasharray[swing]: 560; stroke-dashoffset: 560;"
	 opacity="0.6" fill="none" stroke="#3E0508" stroke-width="9" stroke-miterlimit="10" enable-background="new    " d="
	M72.745,18.578c34.241,0,62,27.759,62,62c0,34.242-27.759,62-62,62s-62-27.758-62-62C10.745,46.337,38.504,18.578,72.745,18.578z"/>
<g>
	<g opacity="0.5038">
		<path fill="#450D06" d="M148.688,142.778c-0.187,0-0.398,0.095-0.636,0.285c-0.237,0.191-0.479,0.443-0.724,0.759
			c-0.244,0.314-0.479,0.674-0.705,1.078s-0.416,0.816-0.571,1.236l-0.863,2.333h-1.026l0.863-2.671
			c0.14-0.428,0.256-0.793,0.35-1.097c0.094-0.303,0.169-0.558,0.228-0.764s0.099-0.373,0.122-0.501
			c0.023-0.129,0.035-0.231,0.035-0.31c0-0.21-0.066-0.314-0.198-0.314c-0.086,0-0.187,0.054-0.303,0.163
			c-0.117,0.108-0.235,0.251-0.356,0.426c-0.12,0.175-0.235,0.375-0.344,0.601c-0.109,0.226-0.202,0.455-0.28,0.688l-0.35-0.175
			c0.272-0.801,0.577-1.392,0.916-1.772c0.338-0.381,0.725-0.571,1.16-0.571c0.249,0,0.426,0.069,0.53,0.21
			c0.105,0.14,0.158,0.377,0.158,0.711c0,0.396-0.066,0.751-0.198,1.062l0.034,0.035c0.396-0.7,0.799-1.211,1.207-1.534
			c0.408-0.322,0.854-0.483,1.336-0.483c0.342,0,0.603,0.081,0.781,0.244c0.179,0.164,0.269,0.397,0.269,0.7
			c0,0.102-0.01,0.214-0.029,0.338c-0.02,0.125-0.053,0.274-0.1,0.449c-0.046,0.175-0.11,0.384-0.192,0.624
			c-0.081,0.241-0.181,0.537-0.297,0.887c-0.179,0.528-0.327,0.972-0.443,1.329c-0.116,0.358-0.175,0.611-0.175,0.759
			c0,0.116,0.039,0.175,0.116,0.175c0.109,0,0.269-0.09,0.479-0.269s0.494-0.467,0.852-0.863l0.303,0.164
			c-0.124,0.232-0.285,0.46-0.483,0.682s-0.404,0.422-0.618,0.601c-0.214,0.18-0.426,0.323-0.636,0.432
			c-0.21,0.109-0.393,0.163-0.549,0.163c-0.194,0-0.348-0.085-0.46-0.256c-0.113-0.171-0.169-0.396-0.169-0.677
			c0-0.108,0.009-0.22,0.028-0.332c0.02-0.113,0.061-0.274,0.123-0.484c0.062-0.21,0.153-0.492,0.273-0.846
			c0.121-0.354,0.286-0.822,0.496-1.405c0.07-0.202,0.128-0.373,0.175-0.514c0.047-0.14,0.084-0.262,0.111-0.367
			c0.026-0.104,0.046-0.196,0.058-0.273c0.012-0.078,0.018-0.152,0.018-0.222C149.002,142.922,148.897,142.778,148.688,142.778z"/>
		<path fill="#450D06" d="M156.116,142.288h0.969l-0.665,1.784c-0.109,0.296-0.216,0.611-0.321,0.945
			c-0.104,0.334-0.198,0.657-0.279,0.968c-0.082,0.312-0.146,0.595-0.192,0.852c-0.047,0.257-0.07,0.447-0.07,0.571
			c0,0.226,0.074,0.339,0.222,0.339c0.108,0,0.267-0.113,0.473-0.339c0.205-0.226,0.437-0.517,0.693-0.875l0.304,0.245
			c-0.327,0.576-0.679,1.021-1.056,1.336c-0.377,0.314-0.74,0.472-1.091,0.472c-0.179,0-0.316-0.067-0.414-0.204
			c-0.097-0.136-0.146-0.359-0.146-0.67c0-0.07,0.002-0.152,0.006-0.245c0.004-0.094,0.014-0.218,0.029-0.373l-0.047-0.012
			c-0.116,0.218-0.255,0.418-0.414,0.601s-0.332,0.342-0.519,0.479c-0.188,0.136-0.382,0.24-0.584,0.314s-0.4,0.11-0.595,0.11
			c-0.396,0-0.705-0.149-0.927-0.448c-0.222-0.3-0.333-0.714-0.333-1.242c0-0.537,0.113-1.085,0.339-1.645
			c0.226-0.561,0.517-1.067,0.875-1.522c0.357-0.455,0.754-0.828,1.189-1.119c0.436-0.292,0.863-0.438,1.282-0.438
			c0.257,0,0.467,0.06,0.63,0.181c0.164,0.12,0.296,0.316,0.396,0.589L156.116,142.288z M154.915,142.778
			c-0.296,0-0.601,0.136-0.915,0.408c-0.315,0.272-0.601,0.612-0.857,1.021s-0.467,0.848-0.63,1.317
			c-0.163,0.471-0.245,0.908-0.245,1.313c0,0.28,0.059,0.504,0.175,0.671c0.117,0.167,0.276,0.25,0.479,0.25
			c0.179,0,0.365-0.071,0.56-0.215c0.194-0.145,0.383-0.335,0.565-0.572c0.183-0.236,0.356-0.507,0.52-0.811
			c0.163-0.303,0.307-0.616,0.432-0.938c0.124-0.322,0.222-0.64,0.291-0.951c0.07-0.311,0.105-0.591,0.105-0.839
			c0-0.202-0.043-0.362-0.129-0.479C155.18,142.836,155.063,142.778,154.915,142.778z"/>
		<path fill="#450D06" d="M160.433,143.256l-0.969,3.208c-0.132,0.42-0.202,0.738-0.21,0.956c0,0.07,0.018,0.133,0.053,0.187
			c0.035,0.055,0.096,0.082,0.181,0.082c0.141,0,0.288-0.053,0.443-0.157c0.155-0.105,0.305-0.229,0.449-0.374
			c0.144-0.144,0.272-0.291,0.385-0.442c0.112-0.152,0.196-0.271,0.251-0.356l0.338,0.198c-0.132,0.265-0.299,0.52-0.501,0.765
			c-0.203,0.244-0.416,0.46-0.642,0.646c-0.226,0.188-0.453,0.337-0.683,0.449c-0.229,0.113-0.438,0.169-0.624,0.169
			c-0.272,0-0.469-0.058-0.589-0.175c-0.121-0.116-0.181-0.311-0.181-0.583c0-0.155,0.027-0.365,0.081-0.63
			c0.055-0.264,0.148-0.626,0.28-1.085l0.863-2.857h-1.003l0.151-0.536h1.015l0.606-2.006h1.073l-0.606,2.006h1.271l-0.164,0.536
			H160.433z"/>
		<path fill="#450D06" d="M163.919,147.747c0.125,0,0.288-0.088,0.49-0.263s0.416-0.408,0.642-0.7
			c0.226-0.291,0.445-0.624,0.659-0.997s0.395-0.762,0.542-1.166l0.863-2.333h1.085l-0.863,2.671
			c-0.125,0.389-0.229,0.722-0.315,0.997c-0.085,0.276-0.155,0.51-0.21,0.7c-0.054,0.19-0.093,0.346-0.116,0.467
			c-0.023,0.12-0.035,0.216-0.035,0.285c0,0.202,0.07,0.304,0.21,0.304c0.078,0,0.171-0.037,0.28-0.111
			c0.108-0.073,0.22-0.175,0.332-0.303c0.112-0.129,0.222-0.272,0.326-0.432c0.105-0.159,0.196-0.328,0.274-0.508l0.35,0.175
			c-0.101,0.257-0.232,0.508-0.396,0.753c-0.163,0.245-0.34,0.465-0.53,0.659s-0.391,0.35-0.601,0.466
			c-0.21,0.117-0.416,0.175-0.618,0.175c-0.241,0-0.404-0.085-0.49-0.256c-0.085-0.171-0.128-0.416-0.128-0.735
			c0-0.132,0.006-0.273,0.018-0.426c0.012-0.151,0.033-0.301,0.063-0.448l-0.034-0.035c-0.21,0.373-0.414,0.681-0.612,0.921
			c-0.198,0.241-0.391,0.436-0.578,0.583c-0.187,0.148-0.369,0.251-0.548,0.31s-0.354,0.087-0.524,0.087
			c-0.366,0-0.62-0.101-0.765-0.303c-0.144-0.202-0.216-0.451-0.216-0.746c0-0.327,0.063-0.687,0.188-1.079
			c0.124-0.393,0.256-0.764,0.396-1.114c0.14-0.35,0.258-0.646,0.355-0.886c0.097-0.241,0.175-0.443,0.233-0.606
			c0.058-0.164,0.101-0.296,0.128-0.397c0.027-0.101,0.041-0.183,0.041-0.244c0-0.031-0.006-0.061-0.018-0.088
			s-0.041-0.041-0.088-0.041c-0.101,0-0.246,0.09-0.437,0.269c-0.191,0.179-0.449,0.467-0.776,0.863l-0.303-0.163
			c0.116-0.226,0.264-0.451,0.443-0.677c0.179-0.226,0.369-0.428,0.571-0.606s0.412-0.323,0.63-0.432
			c0.218-0.109,0.42-0.163,0.606-0.163c0.389,0,0.583,0.226,0.583,0.676c0,0.272-0.076,0.624-0.228,1.056s-0.348,0.947-0.589,1.546
			c-0.155,0.381-0.284,0.723-0.385,1.026c-0.102,0.303-0.151,0.579-0.151,0.828c0,0.163,0.022,0.277,0.069,0.344
			S163.85,147.747,163.919,147.747z"/>
		<path fill="#450D06" d="M169.109,143.909c0.085-0.194,0.216-0.395,0.391-0.601s0.365-0.393,0.571-0.56s0.414-0.306,0.624-0.414
			c0.21-0.109,0.393-0.163,0.548-0.163c0.187,0,0.323,0.069,0.408,0.21c0.086,0.14,0.129,0.365,0.129,0.676
			c0,0.125-0.006,0.245-0.018,0.362c-0.012,0.116-0.033,0.252-0.064,0.408l0.035,0.034c0.094-0.225,0.226-0.446,0.396-0.664
			s0.355-0.41,0.554-0.577c0.198-0.168,0.4-0.304,0.606-0.409c0.206-0.104,0.398-0.157,0.578-0.157c0.225,0,0.414,0.072,0.565,0.216
			c0.151,0.145,0.228,0.321,0.228,0.531c0,0.202-0.064,0.369-0.192,0.501c-0.129,0.133-0.294,0.198-0.496,0.198
			c-0.124,0-0.224-0.023-0.297-0.069c-0.074-0.047-0.139-0.096-0.193-0.146c-0.054-0.05-0.104-0.099-0.151-0.146
			s-0.104-0.07-0.175-0.07c-0.147,0-0.318,0.1-0.513,0.298c-0.195,0.198-0.396,0.469-0.606,0.811s-0.419,0.742-0.624,1.201
			c-0.206,0.459-0.396,0.952-0.566,1.481l-0.524,1.609h-1.085l0.758-2.414c0.148-0.467,0.271-0.854,0.368-1.161
			c0.097-0.307,0.173-0.563,0.228-0.77c0.054-0.206,0.091-0.367,0.11-0.483c0.02-0.117,0.029-0.218,0.029-0.304
			c0-0.171-0.059-0.257-0.175-0.257c-0.078,0-0.174,0.031-0.286,0.094s-0.224,0.14-0.332,0.233c-0.109,0.093-0.212,0.198-0.31,0.314
			c-0.097,0.117-0.169,0.229-0.216,0.338L169.109,143.909z"/>
		<path fill="#450D06" d="M179.151,142.288h0.969l-0.665,1.784c-0.109,0.296-0.216,0.611-0.321,0.945
			c-0.104,0.334-0.198,0.657-0.279,0.968c-0.082,0.312-0.146,0.595-0.192,0.852c-0.047,0.257-0.07,0.447-0.07,0.571
			c0,0.226,0.074,0.339,0.222,0.339c0.108,0,0.267-0.113,0.473-0.339c0.205-0.226,0.437-0.517,0.693-0.875l0.304,0.245
			c-0.327,0.576-0.679,1.021-1.056,1.336c-0.377,0.314-0.74,0.472-1.091,0.472c-0.179,0-0.316-0.067-0.414-0.204
			c-0.097-0.136-0.146-0.359-0.146-0.67c0-0.07,0.002-0.152,0.006-0.245c0.004-0.094,0.014-0.218,0.029-0.373l-0.047-0.012
			c-0.116,0.218-0.255,0.418-0.414,0.601s-0.332,0.342-0.519,0.479c-0.188,0.136-0.382,0.24-0.584,0.314s-0.4,0.11-0.595,0.11
			c-0.396,0-0.705-0.149-0.927-0.448c-0.222-0.3-0.333-0.714-0.333-1.242c0-0.537,0.113-1.085,0.339-1.645
			c0.226-0.561,0.517-1.067,0.875-1.522c0.357-0.455,0.754-0.828,1.189-1.119c0.436-0.292,0.863-0.438,1.282-0.438
			c0.257,0,0.467,0.06,0.63,0.181c0.164,0.12,0.296,0.316,0.396,0.589L179.151,142.288z M177.95,142.778
			c-0.296,0-0.601,0.136-0.915,0.408c-0.315,0.272-0.601,0.612-0.857,1.021s-0.467,0.848-0.63,1.317
			c-0.163,0.471-0.245,0.908-0.245,1.313c0,0.28,0.059,0.504,0.175,0.671c0.117,0.167,0.276,0.25,0.479,0.25
			c0.179,0,0.365-0.071,0.56-0.215c0.194-0.145,0.383-0.335,0.565-0.572c0.183-0.236,0.356-0.507,0.52-0.811
			c0.163-0.303,0.307-0.616,0.432-0.938c0.124-0.322,0.222-0.64,0.291-0.951c0.07-0.311,0.105-0.591,0.105-0.839
			c0-0.202-0.043-0.362-0.129-0.479C178.215,142.836,178.098,142.778,177.95,142.778z"/>
		<path fill="#450D06" d="M182.86,140.41c0.038-0.14,0.077-0.281,0.116-0.426c0.039-0.144,0.059-0.25,0.059-0.32
			c0-0.272-0.296-0.408-0.887-0.408l0.094-0.35l2.134-0.105l-2.088,7.663c-0.062,0.21-0.108,0.395-0.14,0.554
			s-0.047,0.294-0.047,0.402c0,0.07,0.02,0.133,0.059,0.187c0.039,0.055,0.101,0.082,0.187,0.082c0.124,0,0.257-0.053,0.396-0.157
			c0.14-0.105,0.274-0.229,0.402-0.374c0.129-0.144,0.243-0.291,0.345-0.442c0.101-0.152,0.175-0.271,0.221-0.356l0.351,0.198
			c-0.117,0.265-0.269,0.52-0.455,0.765c-0.187,0.244-0.385,0.46-0.595,0.646c-0.21,0.188-0.422,0.337-0.636,0.449
			c-0.214,0.113-0.41,0.169-0.589,0.169c-0.272,0-0.473-0.058-0.601-0.175c-0.129-0.116-0.192-0.311-0.192-0.583
			c0-0.155,0.023-0.365,0.069-0.63c0.047-0.264,0.129-0.626,0.245-1.085L182.86,140.41z"/>
		<path fill="#450D06" d="M192.645,140.398c0.063-0.21,0.109-0.385,0.141-0.524c0.03-0.14,0.046-0.241,0.046-0.304
			c0-0.116-0.077-0.198-0.232-0.244c-0.156-0.047-0.436-0.07-0.84-0.07l0.128-0.467h2.251l-1.295,4.724
			c-0.163,0.606-0.299,1.124-0.408,1.552c-0.108,0.428-0.196,0.787-0.262,1.078c-0.066,0.292-0.111,0.531-0.135,0.718
			s-0.034,0.342-0.034,0.467c0,0.179,0.026,0.303,0.081,0.373c0.055,0.069,0.124,0.104,0.21,0.104c0.171,0,0.355-0.144,0.554-0.432
			c0.198-0.287,0.375-0.664,0.531-1.131l0.443,0.104c-0.265,0.771-0.555,1.336-0.869,1.697c-0.315,0.361-0.671,0.542-1.067,0.542
			c-0.28,0-0.495-0.089-0.647-0.268c-0.151-0.179-0.228-0.436-0.228-0.771c0-0.085,0.008-0.175,0.023-0.268
			c0.016-0.094,0.035-0.183,0.059-0.269L191,146.988c-0.295,0.514-0.652,0.908-1.072,1.184c-0.42,0.276-0.82,0.414-1.202,0.414
			c-0.202,0-0.389-0.044-0.56-0.134c-0.171-0.089-0.318-0.214-0.443-0.373c-0.124-0.159-0.224-0.35-0.297-0.571
			c-0.074-0.222-0.111-0.469-0.111-0.741c0-0.334,0.053-0.682,0.158-1.044c0.104-0.361,0.248-0.711,0.432-1.05
			c0.182-0.338,0.395-0.658,0.635-0.962c0.241-0.303,0.496-0.569,0.765-0.799c0.268-0.229,0.544-0.41,0.828-0.542
			c0.283-0.133,0.562-0.198,0.834-0.198c0.264,0,0.464,0.051,0.601,0.151c0.136,0.102,0.27,0.261,0.402,0.479L192.645,140.398z
			 M191.047,142.79c-0.202,0-0.406,0.063-0.612,0.192c-0.206,0.128-0.406,0.299-0.601,0.513s-0.375,0.461-0.542,0.741
			c-0.168,0.279-0.313,0.571-0.438,0.874c-0.125,0.304-0.224,0.611-0.298,0.922c-0.073,0.311-0.11,0.603-0.11,0.875
			c0,0.279,0.07,0.503,0.21,0.67c0.14,0.168,0.326,0.251,0.56,0.251c0.179,0,0.361-0.071,0.548-0.216
			c0.188-0.144,0.37-0.332,0.549-0.565s0.348-0.5,0.507-0.799c0.159-0.3,0.3-0.606,0.42-0.922c0.121-0.314,0.216-0.626,0.286-0.933
			c0.07-0.308,0.104-0.585,0.104-0.834c0-0.241-0.046-0.43-0.14-0.565C191.396,142.857,191.249,142.79,191.047,142.79z"/>
		<path fill="#450D06" d="M195.689,144.621c0.108-0.304,0.187-0.549,0.232-0.735c0.047-0.187,0.07-0.334,0.07-0.443
			c0-0.108-0.018-0.181-0.053-0.215c-0.034-0.035-0.071-0.053-0.11-0.053c-0.086,0-0.179,0.041-0.28,0.122
			c-0.101,0.082-0.202,0.177-0.303,0.286c-0.102,0.108-0.19,0.218-0.269,0.326c-0.078,0.109-0.132,0.194-0.163,0.257l-0.339-0.21
			c0.094-0.171,0.224-0.361,0.392-0.571c0.167-0.21,0.355-0.404,0.565-0.583s0.428-0.329,0.653-0.449
			c0.225-0.121,0.438-0.181,0.641-0.181c0.194,0,0.341,0.057,0.438,0.169c0.098,0.112,0.146,0.316,0.146,0.612
			c0,0.226-0.068,0.528-0.204,0.909c-0.137,0.382-0.313,0.871-0.531,1.47l-0.432,1.179c-0.016,0.038-0.037,0.099-0.063,0.181
			c-0.027,0.081-0.055,0.167-0.082,0.256c-0.027,0.09-0.051,0.178-0.07,0.263c-0.02,0.086-0.028,0.156-0.028,0.21
			c0,0.07,0.019,0.133,0.058,0.187c0.039,0.055,0.102,0.082,0.187,0.082c0.117,0,0.237-0.049,0.362-0.146
			c0.124-0.098,0.244-0.212,0.361-0.345c0.116-0.132,0.222-0.266,0.314-0.402c0.094-0.136,0.163-0.243,0.21-0.32l0.351,0.198
			c-0.094,0.187-0.221,0.393-0.38,0.618s-0.34,0.434-0.542,0.624s-0.424,0.35-0.665,0.478c-0.241,0.129-0.489,0.192-0.746,0.192
			c-0.226,0-0.395-0.058-0.508-0.175c-0.112-0.116-0.169-0.311-0.169-0.583c0-0.226,0.037-0.468,0.111-0.729
			c0.073-0.261,0.181-0.589,0.32-0.986L195.689,144.621z M197.403,140.259c-0.194,0-0.363-0.066-0.507-0.198
			c-0.145-0.132-0.216-0.304-0.216-0.514c0-0.209,0.069-0.389,0.21-0.536c0.14-0.147,0.311-0.222,0.513-0.222
			c0.218,0,0.396,0.074,0.537,0.222c0.14,0.147,0.21,0.323,0.21,0.525s-0.074,0.373-0.222,0.513
			C197.78,140.188,197.605,140.259,197.403,140.259z"/>
		<path fill="#450D06" d="M199.072,143.956c0-0.257,0.048-0.494,0.146-0.712c0.097-0.217,0.231-0.405,0.402-0.565
			c0.171-0.159,0.375-0.283,0.612-0.373c0.237-0.089,0.496-0.134,0.775-0.134c0.373,0,0.685,0.093,0.934,0.279
			c0.248,0.187,0.373,0.428,0.373,0.724c0,0.163-0.045,0.291-0.135,0.385c-0.089,0.093-0.212,0.14-0.367,0.14
			c-0.179,0-0.307-0.052-0.385-0.157c-0.078-0.104-0.144-0.222-0.198-0.35c-0.055-0.129-0.112-0.247-0.175-0.356
			c-0.063-0.108-0.167-0.163-0.315-0.163c-0.171,0-0.314,0.074-0.431,0.222c-0.117,0.148-0.176,0.331-0.176,0.548
			c0,0.257,0.076,0.496,0.228,0.718c0.152,0.222,0.321,0.453,0.508,0.694s0.355,0.505,0.507,0.793
			c0.152,0.287,0.228,0.626,0.228,1.015c0,0.265-0.057,0.513-0.169,0.746s-0.265,0.438-0.455,0.612s-0.41,0.313-0.658,0.414
			c-0.249,0.102-0.506,0.151-0.771,0.151c-0.466,0-0.838-0.101-1.113-0.303c-0.276-0.202-0.414-0.467-0.414-0.793
			c0-0.226,0.052-0.402,0.157-0.531c0.104-0.128,0.247-0.192,0.426-0.192c0.334,0,0.524,0.229,0.571,0.688
			c0.023,0.249,0.064,0.414,0.123,0.496c0.058,0.081,0.177,0.122,0.355,0.122c0.279,0,0.501-0.084,0.665-0.251
			c0.163-0.167,0.244-0.398,0.244-0.693c0-0.312-0.077-0.588-0.233-0.828c-0.155-0.241-0.326-0.477-0.513-0.706
			s-0.357-0.473-0.514-0.729C199.149,144.609,199.072,144.306,199.072,143.956z"/>
		<path fill="#450D06" d="M207.69,142.288h0.969l-0.665,1.784c-0.109,0.296-0.216,0.611-0.321,0.945
			c-0.104,0.334-0.198,0.657-0.279,0.968c-0.082,0.312-0.146,0.595-0.192,0.852c-0.047,0.257-0.07,0.447-0.07,0.571
			c0,0.226,0.074,0.339,0.222,0.339c0.108,0,0.267-0.113,0.473-0.339c0.205-0.226,0.437-0.517,0.693-0.875l0.304,0.245
			c-0.327,0.576-0.679,1.021-1.056,1.336c-0.377,0.314-0.74,0.472-1.091,0.472c-0.179,0-0.316-0.067-0.414-0.204
			c-0.097-0.136-0.146-0.359-0.146-0.67c0-0.07,0.002-0.152,0.006-0.245c0.004-0.094,0.014-0.218,0.029-0.373l-0.047-0.012
			c-0.116,0.218-0.255,0.418-0.414,0.601s-0.332,0.342-0.519,0.479c-0.188,0.136-0.382,0.24-0.584,0.314s-0.4,0.11-0.595,0.11
			c-0.396,0-0.705-0.149-0.927-0.448c-0.222-0.3-0.333-0.714-0.333-1.242c0-0.537,0.113-1.085,0.339-1.645
			c0.226-0.561,0.517-1.067,0.875-1.522c0.357-0.455,0.754-0.828,1.189-1.119c0.436-0.292,0.863-0.438,1.282-0.438
			c0.257,0,0.467,0.06,0.63,0.181c0.164,0.12,0.296,0.316,0.396,0.589L207.69,142.288z M206.489,142.778
			c-0.296,0-0.601,0.136-0.915,0.408c-0.315,0.272-0.601,0.612-0.857,1.021s-0.467,0.848-0.63,1.317
			c-0.163,0.471-0.245,0.908-0.245,1.313c0,0.28,0.059,0.504,0.175,0.671c0.117,0.167,0.276,0.25,0.479,0.25
			c0.179,0,0.365-0.071,0.56-0.215c0.194-0.145,0.383-0.335,0.565-0.572c0.183-0.236,0.356-0.507,0.52-0.811
			c0.163-0.303,0.307-0.616,0.432-0.938c0.124-0.322,0.222-0.64,0.291-0.951c0.07-0.311,0.105-0.591,0.105-0.839
			c0-0.202-0.043-0.362-0.129-0.479C206.754,142.836,206.637,142.778,206.489,142.778z"/>
		<path fill="#450D06" d="M210.164,143.956c0-0.257,0.048-0.494,0.146-0.712c0.097-0.217,0.231-0.405,0.402-0.565
			c0.171-0.159,0.375-0.283,0.612-0.373c0.237-0.089,0.496-0.134,0.775-0.134c0.373,0,0.685,0.093,0.934,0.279
			c0.248,0.187,0.373,0.428,0.373,0.724c0,0.163-0.045,0.291-0.135,0.385c-0.089,0.093-0.212,0.14-0.367,0.14
			c-0.179,0-0.307-0.052-0.385-0.157c-0.078-0.104-0.144-0.222-0.198-0.35c-0.055-0.129-0.112-0.247-0.175-0.356
			c-0.063-0.108-0.167-0.163-0.315-0.163c-0.171,0-0.314,0.074-0.431,0.222c-0.117,0.148-0.176,0.331-0.176,0.548
			c0,0.257,0.076,0.496,0.228,0.718c0.152,0.222,0.321,0.453,0.508,0.694s0.355,0.505,0.507,0.793
			c0.152,0.287,0.228,0.626,0.228,1.015c0,0.265-0.057,0.513-0.169,0.746s-0.265,0.438-0.455,0.612s-0.41,0.313-0.658,0.414
			c-0.249,0.102-0.506,0.151-0.771,0.151c-0.466,0-0.838-0.101-1.113-0.303c-0.276-0.202-0.414-0.467-0.414-0.793
			c0-0.226,0.052-0.402,0.157-0.531c0.104-0.128,0.247-0.192,0.426-0.192c0.334,0,0.524,0.229,0.571,0.688
			c0.023,0.249,0.064,0.414,0.123,0.496c0.058,0.081,0.177,0.122,0.355,0.122c0.279,0,0.501-0.084,0.665-0.251
			c0.163-0.167,0.244-0.398,0.244-0.693c0-0.312-0.077-0.588-0.233-0.828c-0.155-0.241-0.326-0.477-0.513-0.706
			s-0.357-0.473-0.514-0.729C210.241,144.609,210.164,144.306,210.164,143.956z"/>
		<path fill="#450D06" d="M216.45,143.256l-0.969,3.208c-0.132,0.42-0.202,0.738-0.21,0.956c0,0.07,0.018,0.133,0.053,0.187
			c0.035,0.055,0.096,0.082,0.181,0.082c0.141,0,0.288-0.053,0.443-0.157c0.155-0.105,0.305-0.229,0.449-0.374
			c0.144-0.144,0.272-0.291,0.385-0.442c0.112-0.152,0.196-0.271,0.251-0.356l0.338,0.198c-0.132,0.265-0.299,0.52-0.501,0.765
			c-0.203,0.244-0.416,0.46-0.642,0.646c-0.226,0.188-0.453,0.337-0.683,0.449c-0.229,0.113-0.438,0.169-0.624,0.169
			c-0.272,0-0.469-0.058-0.589-0.175c-0.121-0.116-0.181-0.311-0.181-0.583c0-0.155,0.027-0.365,0.081-0.63
			c0.055-0.264,0.148-0.626,0.28-1.085l0.863-2.857h-1.003l0.151-0.536h1.015l0.606-2.006h1.073l-0.606,2.006h1.271l-0.164,0.536
			H216.45z"/>
		<path fill="#450D06" d="M222.293,146.919c-0.677,1.111-1.509,1.667-2.496,1.667c-0.536,0-0.948-0.165-1.236-0.495
			s-0.432-0.799-0.432-1.405c0-0.537,0.111-1.073,0.333-1.609c0.222-0.537,0.511-1.021,0.868-1.452s0.759-0.782,1.201-1.05
			c0.443-0.269,0.887-0.402,1.33-0.402c0.373,0,0.679,0.095,0.916,0.285c0.236,0.19,0.355,0.434,0.355,0.729
			c0,0.272-0.102,0.552-0.304,0.84c-0.202,0.287-0.477,0.56-0.822,0.816c-0.346,0.256-0.75,0.489-1.213,0.699
			s-0.954,0.373-1.476,0.49c-0.016,0.108-0.027,0.216-0.034,0.32c-0.008,0.105-0.012,0.212-0.012,0.321
			c0,0.848,0.299,1.271,0.897,1.271c0.288,0,0.585-0.113,0.893-0.339c0.307-0.226,0.593-0.536,0.857-0.933L222.293,146.919z
			 M221.628,142.72c-0.202,0-0.412,0.078-0.63,0.233s-0.426,0.363-0.624,0.624s-0.379,0.558-0.542,0.892
			c-0.163,0.335-0.296,0.681-0.396,1.038c0.373-0.101,0.719-0.232,1.038-0.396c0.318-0.163,0.593-0.348,0.822-0.554
			s0.41-0.424,0.542-0.653s0.198-0.461,0.198-0.693C222.036,142.883,221.9,142.72,221.628,142.72z"/>
		<path fill="#450D06" d="M223.529,143.909c0.085-0.194,0.216-0.395,0.391-0.601s0.365-0.393,0.571-0.56s0.414-0.306,0.624-0.414
			c0.21-0.109,0.393-0.163,0.548-0.163c0.187,0,0.323,0.069,0.408,0.21c0.086,0.14,0.129,0.365,0.129,0.676
			c0,0.125-0.006,0.245-0.018,0.362c-0.012,0.116-0.033,0.252-0.064,0.408l0.035,0.034c0.094-0.225,0.226-0.446,0.396-0.664
			s0.355-0.41,0.554-0.577c0.198-0.168,0.4-0.304,0.606-0.409c0.206-0.104,0.398-0.157,0.578-0.157c0.225,0,0.414,0.072,0.565,0.216
			c0.151,0.145,0.228,0.321,0.228,0.531c0,0.202-0.064,0.369-0.192,0.501c-0.129,0.133-0.294,0.198-0.496,0.198
			c-0.124,0-0.224-0.023-0.297-0.069c-0.074-0.047-0.139-0.096-0.193-0.146c-0.054-0.05-0.104-0.099-0.151-0.146
			s-0.104-0.07-0.175-0.07c-0.147,0-0.318,0.1-0.513,0.298c-0.195,0.198-0.396,0.469-0.606,0.811s-0.419,0.742-0.624,1.201
			c-0.206,0.459-0.396,0.952-0.566,1.481l-0.524,1.609h-1.085l0.758-2.414c0.148-0.467,0.271-0.854,0.368-1.161
			c0.097-0.307,0.173-0.563,0.228-0.77c0.054-0.206,0.091-0.367,0.11-0.483c0.02-0.117,0.029-0.218,0.029-0.304
			c0-0.171-0.059-0.257-0.175-0.257c-0.078,0-0.174,0.031-0.286,0.094s-0.224,0.14-0.332,0.233c-0.109,0.093-0.212,0.198-0.31,0.314
			c-0.097,0.117-0.169,0.229-0.216,0.338L223.529,143.909z"/>
		<path fill="#450D06" d="M229.583,143.956c0-0.257,0.048-0.494,0.146-0.712c0.097-0.217,0.231-0.405,0.402-0.565
			c0.171-0.159,0.375-0.283,0.612-0.373c0.237-0.089,0.496-0.134,0.775-0.134c0.373,0,0.685,0.093,0.934,0.279
			c0.248,0.187,0.373,0.428,0.373,0.724c0,0.163-0.045,0.291-0.135,0.385c-0.089,0.093-0.212,0.14-0.367,0.14
			c-0.179,0-0.307-0.052-0.385-0.157c-0.078-0.104-0.144-0.222-0.198-0.35c-0.055-0.129-0.112-0.247-0.175-0.356
			c-0.063-0.108-0.167-0.163-0.315-0.163c-0.171,0-0.314,0.074-0.431,0.222c-0.117,0.148-0.176,0.331-0.176,0.548
			c0,0.257,0.076,0.496,0.228,0.718c0.152,0.222,0.321,0.453,0.508,0.694s0.355,0.505,0.507,0.793
			c0.152,0.287,0.228,0.626,0.228,1.015c0,0.265-0.057,0.513-0.169,0.746s-0.265,0.438-0.455,0.612s-0.41,0.313-0.658,0.414
			c-0.249,0.102-0.506,0.151-0.771,0.151c-0.466,0-0.838-0.101-1.113-0.303c-0.276-0.202-0.414-0.467-0.414-0.793
			c0-0.226,0.052-0.402,0.157-0.531c0.104-0.128,0.247-0.192,0.426-0.192c0.334,0,0.524,0.229,0.571,0.688
			c0.023,0.249,0.064,0.414,0.123,0.496c0.058,0.081,0.177,0.122,0.355,0.122c0.279,0,0.501-0.084,0.665-0.251
			c0.163-0.167,0.244-0.398,0.244-0.693c0-0.312-0.077-0.588-0.233-0.828c-0.155-0.241-0.326-0.477-0.513-0.706
			s-0.357-0.473-0.514-0.729C229.66,144.609,229.583,144.306,229.583,143.956z"/>
	</g>
</g>
<g>
	<g opacity="0.5038">
		<path fill="#450D06" d="M158.979,90.831c0.063-0.21,0.109-0.385,0.141-0.524c0.03-0.14,0.046-0.241,0.046-0.304
			c0-0.116-0.077-0.198-0.232-0.244c-0.156-0.047-0.436-0.07-0.84-0.07l0.128-0.467h2.251l-1.295,4.724
			c-0.163,0.606-0.299,1.124-0.408,1.552c-0.108,0.428-0.196,0.787-0.262,1.078c-0.066,0.292-0.111,0.531-0.135,0.718
			s-0.034,0.342-0.034,0.467c0,0.179,0.026,0.303,0.081,0.373c0.055,0.069,0.124,0.104,0.21,0.104c0.171,0,0.355-0.144,0.554-0.432
			c0.198-0.287,0.375-0.664,0.531-1.131l0.443,0.104c-0.265,0.771-0.555,1.336-0.869,1.697c-0.315,0.361-0.671,0.542-1.067,0.542
			c-0.28,0-0.495-0.089-0.647-0.268c-0.151-0.179-0.228-0.436-0.228-0.771c0-0.085,0.008-0.175,0.023-0.268
			c0.016-0.094,0.035-0.183,0.059-0.269l-0.094-0.023c-0.295,0.514-0.652,0.908-1.072,1.184c-0.42,0.276-0.82,0.414-1.202,0.414
			c-0.202,0-0.389-0.044-0.56-0.134c-0.171-0.089-0.318-0.214-0.443-0.373c-0.124-0.159-0.224-0.35-0.297-0.571
			c-0.074-0.222-0.111-0.469-0.111-0.741c0-0.334,0.053-0.682,0.158-1.044c0.104-0.361,0.248-0.711,0.432-1.05
			c0.182-0.338,0.395-0.658,0.635-0.962c0.241-0.303,0.496-0.569,0.765-0.799c0.268-0.229,0.544-0.41,0.828-0.542
			c0.283-0.133,0.562-0.198,0.834-0.198c0.264,0,0.464,0.051,0.601,0.151c0.136,0.102,0.27,0.261,0.402,0.479L158.979,90.831z
			 M157.382,93.223c-0.202,0-0.406,0.063-0.612,0.192c-0.206,0.128-0.406,0.299-0.601,0.513s-0.375,0.461-0.542,0.741
			c-0.168,0.279-0.313,0.571-0.438,0.874c-0.125,0.304-0.224,0.611-0.298,0.922c-0.073,0.311-0.11,0.603-0.11,0.875
			c0,0.279,0.07,0.503,0.21,0.67c0.14,0.168,0.326,0.251,0.56,0.251c0.179,0,0.361-0.071,0.548-0.216
			c0.188-0.144,0.37-0.332,0.549-0.565s0.348-0.5,0.507-0.799c0.159-0.3,0.3-0.606,0.42-0.922c0.121-0.314,0.216-0.626,0.286-0.933
			c0.07-0.308,0.104-0.585,0.104-0.834c0-0.241-0.046-0.43-0.14-0.565C157.731,93.29,157.584,93.223,157.382,93.223z"/>
		<path fill="#450D06" d="M162.024,95.054c0.108-0.304,0.187-0.549,0.232-0.735c0.047-0.187,0.07-0.334,0.07-0.443
			c0-0.108-0.018-0.181-0.053-0.215c-0.034-0.035-0.071-0.053-0.11-0.053c-0.086,0-0.179,0.041-0.28,0.122
			c-0.101,0.082-0.202,0.177-0.303,0.286c-0.102,0.108-0.19,0.218-0.269,0.326c-0.078,0.109-0.132,0.194-0.163,0.257l-0.339-0.21
			c0.094-0.171,0.224-0.361,0.392-0.571c0.167-0.21,0.355-0.404,0.565-0.583s0.428-0.329,0.653-0.449
			c0.225-0.121,0.438-0.181,0.641-0.181c0.194,0,0.341,0.057,0.438,0.169c0.098,0.112,0.146,0.316,0.146,0.612
			c0,0.226-0.068,0.528-0.204,0.909c-0.137,0.382-0.313,0.871-0.531,1.47l-0.432,1.179c-0.016,0.038-0.037,0.099-0.063,0.181
			c-0.027,0.081-0.055,0.167-0.082,0.256c-0.027,0.09-0.051,0.178-0.07,0.263c-0.02,0.086-0.028,0.156-0.028,0.21
			c0,0.07,0.019,0.133,0.058,0.187c0.039,0.055,0.102,0.082,0.187,0.082c0.117,0,0.237-0.049,0.362-0.146
			c0.124-0.098,0.244-0.212,0.361-0.345c0.116-0.132,0.222-0.266,0.314-0.402c0.094-0.136,0.163-0.243,0.21-0.32l0.351,0.198
			c-0.094,0.187-0.221,0.393-0.38,0.618s-0.34,0.434-0.542,0.624s-0.424,0.35-0.665,0.478c-0.241,0.129-0.489,0.192-0.746,0.192
			c-0.226,0-0.395-0.058-0.508-0.175c-0.112-0.116-0.169-0.311-0.169-0.583c0-0.226,0.037-0.468,0.111-0.729
			c0.073-0.261,0.181-0.589,0.32-0.986L162.024,95.054z M163.738,90.691c-0.194,0-0.363-0.066-0.507-0.198
			c-0.145-0.132-0.216-0.304-0.216-0.514c0-0.209,0.069-0.389,0.21-0.536c0.14-0.147,0.311-0.222,0.513-0.222
			c0.218,0,0.396,0.074,0.537,0.222c0.14,0.147,0.21,0.323,0.21,0.525s-0.074,0.373-0.222,0.513
			C164.115,90.621,163.94,90.691,163.738,90.691z"/>
		<path fill="#450D06" d="M165.406,94.389c0-0.257,0.048-0.494,0.146-0.712c0.097-0.217,0.231-0.405,0.402-0.565
			c0.171-0.159,0.375-0.283,0.612-0.373c0.237-0.089,0.496-0.134,0.775-0.134c0.373,0,0.685,0.093,0.934,0.279
			c0.248,0.187,0.373,0.428,0.373,0.724c0,0.163-0.045,0.291-0.135,0.385c-0.089,0.093-0.212,0.14-0.367,0.14
			c-0.179,0-0.307-0.052-0.385-0.157c-0.078-0.104-0.144-0.222-0.198-0.35c-0.055-0.129-0.112-0.247-0.175-0.356
			c-0.063-0.108-0.167-0.163-0.315-0.163c-0.171,0-0.314,0.074-0.431,0.222c-0.117,0.148-0.176,0.331-0.176,0.548
			c0,0.257,0.076,0.496,0.228,0.718c0.152,0.222,0.321,0.453,0.508,0.694s0.355,0.505,0.507,0.793
			c0.152,0.287,0.228,0.626,0.228,1.015c0,0.265-0.057,0.513-0.169,0.746s-0.265,0.438-0.455,0.612s-0.41,0.313-0.658,0.414
			c-0.249,0.102-0.506,0.151-0.771,0.151c-0.466,0-0.838-0.101-1.113-0.303c-0.276-0.202-0.414-0.467-0.414-0.793
			c0-0.226,0.052-0.402,0.157-0.531c0.104-0.128,0.247-0.192,0.426-0.192c0.334,0,0.524,0.229,0.571,0.688
			c0.023,0.249,0.064,0.414,0.123,0.496c0.058,0.081,0.177,0.122,0.355,0.122c0.279,0,0.501-0.084,0.665-0.251
			c0.163-0.167,0.244-0.398,0.244-0.693c0-0.312-0.077-0.588-0.233-0.828c-0.155-0.241-0.326-0.477-0.513-0.706
			s-0.357-0.473-0.514-0.729C165.483,95.042,165.406,94.738,165.406,94.389z"/>
		<path fill="#450D06" d="M169.127,94.528c0.288-0.326,0.61-0.62,0.968-0.88c0.358-0.261,0.735-0.473,1.132-0.636l0.548-1.866h0.887
			l-0.408,1.551c0.124-0.023,0.247-0.042,0.367-0.058s0.243-0.023,0.367-0.023c0.661,0,1.174,0.179,1.54,0.536
			c0.365,0.357,0.548,0.859,0.548,1.505c0,0.513-0.122,0.997-0.367,1.452c-0.245,0.454-0.571,0.861-0.979,1.219
			s-0.879,0.655-1.411,0.892c-0.533,0.237-1.087,0.396-1.662,0.473l-0.432,1.621c-0.039,0.117-0.064,0.214-0.076,0.292
			c-0.012,0.077-0.018,0.147-0.018,0.21c0,0.194,0.08,0.33,0.239,0.408c0.159,0.077,0.441,0.12,0.846,0.128l-0.07,0.467h-3.301
			l0.07-0.467c0.326,0,0.563-0.039,0.712-0.116c0.147-0.078,0.252-0.218,0.314-0.42l2.111-7.208
			c-0.296,0.155-0.579,0.34-0.852,0.554s-0.525,0.445-0.758,0.694L169.127,94.528z M172.685,93.188c-0.102,0-0.2,0.006-0.298,0.018
			c-0.097,0.012-0.192,0.025-0.285,0.041l-1.318,4.944c0.389-0.077,0.768-0.221,1.138-0.431c0.369-0.21,0.697-0.471,0.985-0.782
			c0.287-0.311,0.519-0.658,0.693-1.044c0.175-0.385,0.263-0.787,0.263-1.207c0-0.466-0.106-0.84-0.32-1.119
			C173.328,93.327,173.042,93.188,172.685,93.188z"/>
		<path fill="#450D06" d="M177.652,90.843c0.038-0.14,0.077-0.281,0.116-0.426c0.039-0.144,0.059-0.25,0.059-0.32
			c0-0.272-0.296-0.408-0.887-0.408l0.094-0.35l2.134-0.105l-2.088,7.663c-0.062,0.21-0.108,0.395-0.14,0.554
			s-0.047,0.294-0.047,0.402c0,0.07,0.02,0.133,0.059,0.187c0.039,0.055,0.101,0.082,0.187,0.082c0.124,0,0.257-0.053,0.396-0.157
			c0.14-0.105,0.274-0.229,0.402-0.374c0.129-0.144,0.243-0.291,0.345-0.442c0.101-0.152,0.175-0.271,0.221-0.356l0.351,0.198
			c-0.117,0.265-0.269,0.52-0.455,0.765c-0.187,0.244-0.385,0.46-0.595,0.646c-0.21,0.188-0.422,0.337-0.636,0.449
			c-0.214,0.113-0.41,0.169-0.589,0.169c-0.272,0-0.473-0.058-0.601-0.175c-0.129-0.116-0.192-0.311-0.192-0.583
			c0-0.155,0.023-0.365,0.069-0.63c0.047-0.264,0.129-0.626,0.245-1.085L177.652,90.843z"/>
		<path fill="#450D06" d="M184.241,92.721h0.969l-0.665,1.784c-0.109,0.296-0.216,0.611-0.321,0.945
			c-0.104,0.334-0.198,0.657-0.279,0.968c-0.082,0.312-0.146,0.595-0.192,0.852c-0.047,0.257-0.07,0.447-0.07,0.571
			c0,0.226,0.074,0.339,0.222,0.339c0.108,0,0.267-0.113,0.473-0.339c0.205-0.226,0.437-0.517,0.693-0.875l0.304,0.245
			c-0.327,0.576-0.679,1.021-1.056,1.336c-0.377,0.314-0.74,0.472-1.091,0.472c-0.179,0-0.316-0.067-0.414-0.204
			c-0.097-0.136-0.146-0.359-0.146-0.67c0-0.07,0.002-0.152,0.006-0.245c0.004-0.094,0.014-0.218,0.029-0.373l-0.047-0.012
			c-0.116,0.218-0.255,0.418-0.414,0.601s-0.332,0.342-0.519,0.479c-0.188,0.136-0.382,0.24-0.584,0.314s-0.4,0.11-0.595,0.11
			c-0.396,0-0.705-0.149-0.927-0.448c-0.222-0.3-0.333-0.714-0.333-1.242c0-0.537,0.113-1.085,0.339-1.645
			c0.226-0.561,0.517-1.067,0.875-1.522c0.357-0.455,0.754-0.828,1.189-1.119c0.436-0.292,0.863-0.438,1.282-0.438
			c0.257,0,0.467,0.06,0.63,0.181c0.164,0.12,0.296,0.316,0.396,0.589L184.241,92.721z M183.04,93.211
			c-0.296,0-0.601,0.136-0.915,0.408c-0.315,0.272-0.601,0.612-0.857,1.021s-0.467,0.848-0.63,1.317
			c-0.163,0.471-0.245,0.908-0.245,1.313c0,0.28,0.059,0.504,0.175,0.671c0.117,0.167,0.276,0.25,0.479,0.25
			c0.179,0,0.365-0.071,0.56-0.215c0.194-0.145,0.383-0.335,0.565-0.572c0.183-0.236,0.356-0.507,0.52-0.811
			c0.163-0.303,0.307-0.616,0.432-0.938c0.124-0.322,0.222-0.64,0.291-0.951c0.07-0.311,0.105-0.591,0.105-0.839
			c0-0.202-0.043-0.362-0.129-0.479C183.305,93.269,183.188,93.211,183.04,93.211z"/>
		<path fill="#450D06" d="M190.167,97.024c-0.327,0.646-0.706,1.14-1.138,1.481s-0.892,0.513-1.382,0.513
			c-0.506,0-0.909-0.173-1.213-0.519s-0.455-0.807-0.455-1.382c0-0.343,0.051-0.692,0.151-1.05c0.102-0.357,0.237-0.704,0.408-1.038
			c0.172-0.334,0.374-0.649,0.607-0.945c0.232-0.295,0.481-0.552,0.746-0.77c0.264-0.218,0.538-0.391,0.822-0.519
			c0.283-0.129,0.562-0.192,0.834-0.192c0.373,0,0.68,0.101,0.921,0.303s0.362,0.455,0.362,0.759c0,0.194-0.057,0.352-0.17,0.472
			c-0.112,0.121-0.258,0.181-0.437,0.181c-0.18,0-0.325-0.056-0.438-0.169c-0.113-0.112-0.17-0.251-0.17-0.414
			c0-0.101,0.016-0.183,0.047-0.245c0.031-0.062,0.047-0.12,0.047-0.175c0-0.108-0.094-0.163-0.28-0.163
			c-0.256,0-0.517,0.121-0.781,0.361c-0.265,0.241-0.503,0.553-0.717,0.934s-0.39,0.807-0.525,1.276
			c-0.136,0.471-0.204,0.939-0.204,1.406c0,0.373,0.072,0.666,0.216,0.88s0.345,0.321,0.601,0.321c0.141,0,0.286-0.039,0.438-0.117
			c0.151-0.077,0.306-0.185,0.461-0.32s0.305-0.298,0.449-0.484c0.144-0.187,0.273-0.393,0.391-0.618L190.167,97.024z"/>
		<path fill="#450D06" d="M195.287,97.352c-0.677,1.111-1.509,1.667-2.496,1.667c-0.536,0-0.948-0.165-1.236-0.495
			s-0.432-0.799-0.432-1.405c0-0.537,0.111-1.073,0.333-1.609c0.222-0.537,0.511-1.021,0.868-1.452s0.759-0.782,1.201-1.05
			c0.443-0.269,0.887-0.402,1.33-0.402c0.373,0,0.679,0.095,0.916,0.285c0.236,0.19,0.355,0.434,0.355,0.729
			c0,0.272-0.102,0.552-0.304,0.84c-0.202,0.287-0.477,0.56-0.822,0.816c-0.346,0.256-0.75,0.489-1.213,0.699
			s-0.954,0.373-1.476,0.49c-0.016,0.108-0.027,0.216-0.034,0.32c-0.008,0.105-0.012,0.212-0.012,0.321
			c0,0.848,0.299,1.271,0.897,1.271c0.288,0,0.585-0.113,0.893-0.339c0.307-0.226,0.593-0.536,0.857-0.933L195.287,97.352z
			 M194.622,93.152c-0.202,0-0.412,0.078-0.63,0.233s-0.426,0.363-0.624,0.624s-0.379,0.558-0.542,0.892
			c-0.163,0.335-0.296,0.681-0.396,1.038c0.373-0.101,0.719-0.232,1.038-0.396c0.318-0.163,0.593-0.348,0.822-0.554
			s0.41-0.424,0.542-0.653s0.198-0.461,0.198-0.693C195.03,93.315,194.895,93.152,194.622,93.152z"/>
		<path fill="#450D06" d="M204.011,95.019c0.102-0.288,0.181-0.517,0.239-0.688c0.059-0.171,0.104-0.305,0.134-0.402
			c0.031-0.097,0.051-0.173,0.059-0.228c0.008-0.054,0.012-0.104,0.012-0.151c0-0.226-0.078-0.338-0.233-0.338
			c-0.21,0-0.459,0.142-0.746,0.426c-0.288,0.283-0.599,0.693-0.934,1.23c-0.116,0.187-0.226,0.375-0.326,0.565
			s-0.21,0.428-0.326,0.711c-0.117,0.284-0.253,0.644-0.408,1.079c-0.156,0.436-0.354,0.995-0.595,1.68h-1.097l0.77-2.345
			c0.163-0.497,0.3-0.915,0.408-1.253c0.109-0.339,0.194-0.62,0.257-0.846s0.106-0.404,0.134-0.537
			c0.027-0.132,0.041-0.24,0.041-0.326c0-0.257-0.098-0.385-0.292-0.385c-0.155,0-0.342,0.089-0.56,0.268
			c-0.218,0.18-0.439,0.413-0.665,0.7c-0.226,0.288-0.441,0.612-0.646,0.974c-0.206,0.362-0.38,0.729-0.52,1.103l-0.979,2.647
			h-1.026l0.863-2.671c0.147-0.451,0.268-0.83,0.361-1.137c0.093-0.308,0.167-0.561,0.222-0.759
			c0.054-0.198,0.093-0.355,0.116-0.472c0.023-0.117,0.035-0.214,0.035-0.292c0-0.218-0.066-0.326-0.198-0.326
			c-0.086,0-0.185,0.05-0.297,0.151c-0.113,0.101-0.228,0.239-0.345,0.414c-0.116,0.175-0.231,0.375-0.344,0.601
			c-0.113,0.226-0.212,0.463-0.298,0.711l-0.35-0.175c0.272-0.801,0.577-1.392,0.916-1.772c0.338-0.381,0.725-0.571,1.16-0.571
			c0.249,0,0.426,0.069,0.53,0.21c0.105,0.14,0.158,0.373,0.158,0.699c0,0.373-0.066,0.731-0.198,1.073l0.034,0.035
			c0.724-1.346,1.489-2.018,2.298-2.018c0.304,0,0.54,0.091,0.712,0.273c0.171,0.184,0.256,0.438,0.256,0.765
			c0,0.108-0.014,0.232-0.04,0.373c-0.027,0.14-0.08,0.346-0.158,0.618l0.023,0.035c0.218-0.374,0.426-0.69,0.624-0.951
			c0.198-0.26,0.391-0.472,0.577-0.636c0.188-0.163,0.375-0.283,0.566-0.361c0.19-0.077,0.387-0.116,0.589-0.116
			c0.303,0,0.53,0.081,0.682,0.244c0.152,0.164,0.228,0.42,0.228,0.771c0,0.108-0.012,0.228-0.034,0.355
			c-0.023,0.128-0.059,0.28-0.105,0.455s-0.106,0.377-0.181,0.606s-0.161,0.5-0.263,0.811c-0.132,0.396-0.237,0.713-0.314,0.95
			c-0.078,0.237-0.137,0.426-0.175,0.566c-0.039,0.14-0.064,0.244-0.076,0.314s-0.018,0.14-0.018,0.21
			c0,0.147,0.039,0.222,0.116,0.222c0.117,0,0.292-0.111,0.525-0.333c0.233-0.221,0.536-0.565,0.91-1.031l0.303,0.163
			c-0.132,0.256-0.302,0.511-0.507,0.764c-0.207,0.253-0.423,0.479-0.647,0.677c-0.226,0.198-0.449,0.359-0.671,0.483
			c-0.222,0.125-0.414,0.187-0.577,0.187c-0.194,0-0.349-0.083-0.461-0.25c-0.113-0.167-0.169-0.391-0.169-0.671
			c0-0.094,0.01-0.198,0.029-0.315c0.019-0.116,0.062-0.283,0.128-0.501s0.159-0.506,0.28-0.863
			C203.647,96.061,203.809,95.594,204.011,95.019z"/>
		<path fill="#450D06" d="M210.752,97.352c-0.677,1.111-1.509,1.667-2.496,1.667c-0.536,0-0.948-0.165-1.236-0.495
			s-0.432-0.799-0.432-1.405c0-0.537,0.111-1.073,0.333-1.609c0.222-0.537,0.511-1.021,0.868-1.452s0.759-0.782,1.201-1.05
			c0.443-0.269,0.887-0.402,1.33-0.402c0.373,0,0.679,0.095,0.916,0.285c0.236,0.19,0.355,0.434,0.355,0.729
			c0,0.272-0.102,0.552-0.304,0.84c-0.202,0.287-0.477,0.56-0.822,0.816c-0.346,0.256-0.75,0.489-1.213,0.699
			s-0.954,0.373-1.476,0.49c-0.016,0.108-0.027,0.216-0.034,0.32c-0.008,0.105-0.012,0.212-0.012,0.321
			c0,0.848,0.299,1.271,0.897,1.271c0.288,0,0.585-0.113,0.893-0.339c0.307-0.226,0.593-0.536,0.857-0.933L210.752,97.352z
			 M210.087,93.152c-0.202,0-0.412,0.078-0.63,0.233s-0.426,0.363-0.624,0.624s-0.379,0.558-0.542,0.892
			c-0.163,0.335-0.296,0.681-0.396,1.038c0.373-0.101,0.719-0.232,1.038-0.396c0.318-0.163,0.593-0.348,0.822-0.554
			s0.41-0.424,0.542-0.653s0.198-0.461,0.198-0.693C210.495,93.315,210.359,93.152,210.087,93.152z"/>
		<path fill="#450D06" d="M216.7,93.211c-0.187,0-0.398,0.095-0.636,0.285c-0.237,0.191-0.479,0.443-0.724,0.759
			c-0.244,0.314-0.479,0.674-0.705,1.078s-0.416,0.816-0.571,1.236l-0.863,2.333h-1.026l0.863-2.671
			c0.14-0.428,0.256-0.793,0.35-1.097c0.094-0.303,0.169-0.558,0.228-0.764s0.099-0.373,0.122-0.501
			c0.023-0.129,0.035-0.231,0.035-0.31c0-0.21-0.066-0.314-0.198-0.314c-0.086,0-0.187,0.054-0.303,0.163
			c-0.117,0.108-0.235,0.251-0.356,0.426c-0.12,0.175-0.235,0.375-0.344,0.601c-0.109,0.226-0.202,0.455-0.28,0.688l-0.35-0.175
			c0.272-0.801,0.577-1.392,0.916-1.772c0.338-0.381,0.725-0.571,1.16-0.571c0.249,0,0.426,0.069,0.53,0.21
			c0.105,0.14,0.158,0.377,0.158,0.711c0,0.396-0.066,0.751-0.198,1.062l0.034,0.035c0.396-0.7,0.799-1.211,1.207-1.534
			c0.408-0.322,0.854-0.483,1.336-0.483c0.342,0,0.603,0.081,0.781,0.244c0.179,0.164,0.269,0.397,0.269,0.7
			c0,0.102-0.01,0.214-0.029,0.338c-0.02,0.125-0.053,0.274-0.1,0.449c-0.046,0.175-0.11,0.384-0.192,0.624
			c-0.081,0.241-0.181,0.537-0.297,0.887c-0.179,0.528-0.327,0.972-0.443,1.329c-0.116,0.358-0.175,0.611-0.175,0.759
			c0,0.116,0.039,0.175,0.116,0.175c0.109,0,0.269-0.09,0.479-0.269s0.494-0.467,0.852-0.863l0.303,0.164
			c-0.124,0.232-0.285,0.46-0.483,0.682s-0.404,0.422-0.618,0.601c-0.214,0.18-0.426,0.323-0.636,0.432
			c-0.21,0.109-0.393,0.163-0.549,0.163c-0.194,0-0.348-0.085-0.46-0.256c-0.113-0.171-0.169-0.396-0.169-0.677
			c0-0.108,0.009-0.22,0.028-0.332c0.02-0.113,0.061-0.274,0.123-0.484c0.062-0.21,0.153-0.492,0.273-0.846
			c0.121-0.354,0.286-0.822,0.496-1.405c0.07-0.202,0.128-0.373,0.175-0.514c0.047-0.14,0.084-0.262,0.111-0.367
			c0.026-0.104,0.046-0.196,0.058-0.273c0.012-0.078,0.018-0.152,0.018-0.222C217.015,93.354,216.91,93.211,216.7,93.211z"/>
		<path fill="#450D06" d="M221.798,93.688l-0.969,3.208c-0.132,0.42-0.202,0.738-0.21,0.956c0,0.07,0.018,0.133,0.053,0.187
			c0.035,0.055,0.096,0.082,0.181,0.082c0.141,0,0.288-0.053,0.443-0.157c0.155-0.105,0.305-0.229,0.449-0.374
			c0.144-0.144,0.272-0.291,0.385-0.442c0.112-0.152,0.196-0.271,0.251-0.356l0.338,0.198c-0.132,0.265-0.299,0.52-0.501,0.765
			c-0.203,0.244-0.416,0.46-0.642,0.646c-0.226,0.188-0.453,0.337-0.683,0.449c-0.229,0.113-0.438,0.169-0.624,0.169
			c-0.272,0-0.469-0.058-0.589-0.175c-0.121-0.116-0.181-0.311-0.181-0.583c0-0.155,0.027-0.365,0.081-0.63
			c0.055-0.264,0.148-0.626,0.28-1.085l0.863-2.857h-1.003l0.151-0.536h1.015l0.606-2.006h1.073l-0.606,2.006h1.271l-0.164,0.536
			H221.798z"/>
	</g>
</g>
<g>
	<g>
		<g opacity="0.5038">
			<path fill="#450D06" d="M151.444,47.455c-0.327,0.646-0.706,1.14-1.138,1.482c-0.432,0.342-0.892,0.513-1.382,0.513
				c-0.506,0-0.909-0.173-1.213-0.519s-0.455-0.807-0.455-1.383c0-0.342,0.051-0.691,0.151-1.049
				c0.102-0.358,0.237-0.704,0.408-1.039c0.172-0.334,0.374-0.648,0.607-0.944c0.232-0.296,0.481-0.552,0.746-0.771
				c0.264-0.217,0.538-0.391,0.822-0.518c0.283-0.129,0.562-0.193,0.834-0.193c0.373,0,0.68,0.102,0.921,0.303
				c0.241,0.203,0.362,0.455,0.362,0.759c0,0.194-0.057,0.353-0.17,0.472c-0.112,0.121-0.258,0.182-0.437,0.182
				c-0.18,0-0.325-0.057-0.438-0.17c-0.113-0.111-0.17-0.25-0.17-0.414c0-0.1,0.016-0.182,0.047-0.244s0.047-0.121,0.047-0.176
				c0-0.107-0.094-0.162-0.28-0.162c-0.256,0-0.517,0.12-0.781,0.361c-0.265,0.24-0.503,0.552-0.717,0.933
				c-0.214,0.382-0.39,0.808-0.525,1.277c-0.136,0.471-0.204,0.938-0.204,1.405c0,0.373,0.072,0.667,0.216,0.881
				s0.345,0.32,0.601,0.32c0.141,0,0.286-0.039,0.438-0.116s0.306-0.185,0.461-0.321c0.155-0.136,0.305-0.297,0.449-0.483
				c0.144-0.187,0.273-0.393,0.391-0.618L151.444,47.455z"/>
			<path fill="#450D06" d="M154.418,49.45c-0.264,0-0.511-0.053-0.74-0.157c-0.229-0.105-0.43-0.259-0.601-0.461
				s-0.308-0.449-0.408-0.74c-0.102-0.292-0.151-0.621-0.151-0.986c0-0.505,0.095-1.003,0.285-1.492
				c0.19-0.49,0.441-0.926,0.753-1.307c0.311-0.381,0.666-0.688,1.066-0.922c0.4-0.232,0.814-0.35,1.242-0.35
				c0.28,0,0.539,0.053,0.776,0.158c0.236,0.104,0.438,0.256,0.606,0.454c0.167,0.198,0.299,0.436,0.396,0.712
				c0.097,0.275,0.146,0.581,0.146,0.916c0,0.489-0.098,0.982-0.292,1.48s-0.448,0.945-0.764,1.342
				c-0.314,0.396-0.675,0.721-1.079,0.974S154.838,49.45,154.418,49.45z M154.488,48.867c0.265,0,0.526-0.137,0.787-0.408
				c0.261-0.272,0.494-0.616,0.7-1.032s0.373-0.869,0.501-1.358c0.129-0.49,0.192-0.957,0.192-1.4c0-0.412-0.071-0.695-0.216-0.852
				c-0.144-0.155-0.34-0.232-0.589-0.232c-0.171,0-0.344,0.061-0.519,0.18c-0.175,0.121-0.341,0.286-0.496,0.496
				s-0.301,0.451-0.438,0.723c-0.136,0.273-0.254,0.561-0.355,0.863c-0.101,0.304-0.179,0.613-0.233,0.928s-0.081,0.616-0.081,0.904
				c0,0.436,0.069,0.742,0.21,0.921C154.092,48.777,154.271,48.867,154.488,48.867z"/>
			<path fill="#450D06" d="M163.294,43.642c-0.187,0-0.398,0.096-0.636,0.286s-0.479,0.443-0.724,0.758
				c-0.244,0.314-0.479,0.675-0.705,1.079s-0.416,0.816-0.571,1.236l-0.863,2.333h-1.026l0.863-2.672
				c0.14-0.428,0.256-0.793,0.35-1.096s0.169-0.559,0.228-0.764c0.059-0.207,0.099-0.373,0.122-0.502s0.035-0.231,0.035-0.309
				c0-0.211-0.066-0.315-0.198-0.315c-0.086,0-0.187,0.055-0.303,0.163c-0.117,0.109-0.235,0.251-0.356,0.426
				c-0.12,0.176-0.235,0.375-0.344,0.602c-0.109,0.225-0.202,0.454-0.28,0.688l-0.35-0.175c0.272-0.801,0.577-1.392,0.916-1.772
				c0.338-0.381,0.725-0.572,1.16-0.572c0.249,0,0.426,0.07,0.53,0.21c0.105,0.14,0.158,0.378,0.158,0.712
				c0,0.396-0.066,0.75-0.198,1.061l0.034,0.035c0.396-0.699,0.799-1.211,1.207-1.533s0.854-0.484,1.336-0.484
				c0.342,0,0.603,0.082,0.781,0.245s0.269,0.396,0.269,0.7c0,0.101-0.01,0.213-0.029,0.338s-0.053,0.273-0.1,0.449
				c-0.046,0.175-0.11,0.383-0.192,0.623c-0.081,0.242-0.181,0.537-0.297,0.887c-0.179,0.529-0.327,0.973-0.443,1.33
				s-0.175,0.61-0.175,0.758c0,0.117,0.039,0.176,0.116,0.176c0.109,0,0.269-0.09,0.479-0.27c0.21-0.178,0.494-0.466,0.852-0.862
				l0.303,0.163c-0.124,0.233-0.285,0.461-0.483,0.683s-0.404,0.422-0.618,0.601s-0.426,0.322-0.636,0.432
				c-0.21,0.108-0.393,0.163-0.549,0.163c-0.194,0-0.348-0.086-0.46-0.257c-0.113-0.171-0.169-0.396-0.169-0.676
				c0-0.109,0.009-0.221,0.028-0.333s0.061-0.274,0.123-0.483c0.062-0.211,0.153-0.492,0.273-0.846
				c0.121-0.354,0.286-0.822,0.496-1.406c0.07-0.201,0.128-0.373,0.175-0.513s0.084-0.263,0.111-0.368
				c0.026-0.104,0.046-0.195,0.058-0.273s0.018-0.151,0.018-0.222C163.608,43.785,163.504,43.642,163.294,43.642z"/>
		</g>
	</g>
	<g>
		<path opacity="0.5038" fill="#450D06" d="M171.296,41.414c0.039-0.155,0.058-0.283,0.058-0.385c0-0.226-0.058-0.404-0.174-0.536
			c-0.118-0.132-0.276-0.198-0.479-0.198c-0.403,0-0.78,0.277-1.132,0.834c-0.351,0.556-0.656,1.362-0.92,2.42h1.26l-0.164,0.537
			h-1.224l-1.098,4.396c-0.18,0.699-0.361,1.297-0.548,1.79s-0.394,0.894-0.618,1.201c-0.226,0.308-0.472,0.533-0.741,0.677
			c-0.269,0.145-0.565,0.215-0.892,0.215c-0.381,0-0.683-0.082-0.904-0.244c-0.222-0.163-0.333-0.381-0.333-0.653
			c0-0.187,0.052-0.337,0.152-0.448c0.101-0.113,0.241-0.169,0.42-0.169c0.164,0,0.276,0.042,0.338,0.128
			c0.063,0.085,0.115,0.178,0.158,0.279s0.092,0.194,0.145,0.28c0.056,0.085,0.152,0.128,0.292,0.128
			c0.187,0,0.354-0.087,0.501-0.262c0.148-0.176,0.265-0.426,0.352-0.752l1.69-6.566h-1.119l0.15-0.537h1.109
			c0.178-0.66,0.372-1.23,0.582-1.709c0.211-0.479,0.442-0.871,0.694-1.178s0.53-0.532,0.834-0.677
			c0.304-0.144,0.638-0.216,1.004-0.216c0.38,0,0.695,0.063,0.943,0.186l1.213-0.29l-2.087,7.662
			c-0.124,0.443-0.187,0.751-0.187,0.922c0,0.202,0.082,0.304,0.245,0.304c0.085,0,0.186-0.037,0.303-0.112
			c0.116-0.073,0.238-0.173,0.367-0.296c0.129-0.125,0.252-0.266,0.374-0.426c0.12-0.16,0.227-0.324,0.319-0.496l0.352,0.198
			c-0.141,0.295-0.304,0.565-0.49,0.812c-0.188,0.244-0.386,0.458-0.595,0.641c-0.211,0.184-0.425,0.324-0.642,0.426
			c-0.219,0.102-0.428,0.151-0.631,0.151c-0.474,0-0.711-0.255-0.711-0.77c0-0.155,0.023-0.374,0.07-0.653
			c0.047-0.28,0.128-0.631,0.245-1.05L171.296,41.414z"/>
	</g>
	<g>
		<g opacity="0.5038">
			<path fill="#450D06" d="M174.376,45.484c0.108-0.303,0.187-0.548,0.232-0.734c0.047-0.188,0.07-0.334,0.07-0.443
				s-0.018-0.181-0.053-0.216c-0.034-0.035-0.071-0.052-0.11-0.052c-0.086,0-0.179,0.04-0.28,0.121
				c-0.101,0.082-0.202,0.178-0.303,0.287c-0.102,0.108-0.19,0.217-0.269,0.326s-0.132,0.194-0.163,0.256l-0.339-0.209
				c0.094-0.172,0.224-0.361,0.392-0.572c0.167-0.209,0.355-0.404,0.565-0.583s0.428-0.328,0.653-0.448
				c0.225-0.121,0.438-0.182,0.641-0.182c0.194,0,0.341,0.057,0.438,0.17c0.098,0.112,0.146,0.316,0.146,0.611
				c0,0.227-0.068,0.529-0.204,0.91c-0.137,0.381-0.313,0.871-0.531,1.47l-0.432,1.178c-0.016,0.039-0.037,0.099-0.063,0.181
				c-0.027,0.082-0.055,0.168-0.082,0.257s-0.051,0.177-0.07,0.263s-0.028,0.155-0.028,0.209c0,0.07,0.019,0.133,0.058,0.188
				s0.102,0.082,0.187,0.082c0.117,0,0.237-0.049,0.362-0.146c0.124-0.098,0.244-0.212,0.361-0.344
				c0.116-0.133,0.222-0.267,0.314-0.402c0.094-0.137,0.163-0.243,0.21-0.321l0.351,0.198c-0.094,0.188-0.221,0.393-0.38,0.618
				s-0.34,0.434-0.542,0.624c-0.202,0.191-0.424,0.35-0.665,0.479c-0.241,0.128-0.489,0.192-0.746,0.192
				c-0.226,0-0.395-0.059-0.508-0.175c-0.112-0.117-0.169-0.311-0.169-0.584c0-0.225,0.037-0.468,0.111-0.729
				c0.073-0.26,0.181-0.589,0.32-0.985L174.376,45.484z M176.09,41.123c-0.194,0-0.363-0.066-0.507-0.199
				c-0.145-0.132-0.216-0.303-0.216-0.513s0.069-0.389,0.21-0.536c0.14-0.148,0.311-0.223,0.513-0.223
				c0.218,0,0.396,0.074,0.537,0.223c0.14,0.147,0.21,0.322,0.21,0.524s-0.074,0.373-0.222,0.513
				C176.467,41.053,176.292,41.123,176.09,41.123z"/>
			<path fill="#450D06" d="M181.21,47.455c-0.327,0.646-0.706,1.14-1.138,1.482c-0.432,0.342-0.892,0.513-1.382,0.513
				c-0.506,0-0.909-0.173-1.213-0.519s-0.455-0.807-0.455-1.383c0-0.342,0.051-0.691,0.151-1.049
				c0.102-0.358,0.237-0.704,0.408-1.039c0.172-0.334,0.374-0.648,0.607-0.944c0.232-0.296,0.481-0.552,0.746-0.771
				c0.264-0.217,0.538-0.391,0.822-0.518c0.283-0.129,0.562-0.193,0.834-0.193c0.373,0,0.68,0.102,0.921,0.303
				c0.241,0.203,0.362,0.455,0.362,0.759c0,0.194-0.057,0.353-0.17,0.472c-0.112,0.121-0.258,0.182-0.437,0.182
				c-0.18,0-0.325-0.057-0.438-0.17c-0.113-0.111-0.17-0.25-0.17-0.414c0-0.1,0.016-0.182,0.047-0.244s0.047-0.121,0.047-0.176
				c0-0.107-0.094-0.162-0.28-0.162c-0.256,0-0.517,0.12-0.781,0.361c-0.265,0.24-0.503,0.552-0.717,0.933
				c-0.214,0.382-0.39,0.808-0.525,1.277c-0.136,0.471-0.204,0.938-0.204,1.405c0,0.373,0.072,0.667,0.216,0.881
				s0.345,0.32,0.601,0.32c0.141,0,0.286-0.039,0.438-0.116s0.306-0.185,0.461-0.321c0.155-0.136,0.305-0.297,0.449-0.483
				c0.144-0.187,0.273-0.393,0.391-0.618L181.21,47.455z"/>
			<path fill="#450D06" d="M184.744,44.12l-0.969,3.208c-0.132,0.419-0.202,0.738-0.21,0.955c0,0.07,0.018,0.133,0.053,0.188
				s0.096,0.082,0.181,0.082c0.141,0,0.288-0.053,0.443-0.158s0.305-0.229,0.449-0.373c0.144-0.145,0.272-0.291,0.385-0.443
				c0.112-0.151,0.196-0.27,0.251-0.355l0.338,0.198c-0.132,0.265-0.299,0.519-0.501,0.764c-0.203,0.245-0.416,0.461-0.642,0.647
				s-0.453,0.336-0.683,0.449c-0.229,0.112-0.438,0.169-0.624,0.169c-0.272,0-0.469-0.059-0.589-0.175
				c-0.121-0.117-0.181-0.311-0.181-0.584c0-0.154,0.027-0.365,0.081-0.629c0.055-0.265,0.148-0.626,0.28-1.085l0.863-2.857h-1.003
				l0.151-0.536h1.015l0.606-2.006h1.073l-0.606,2.006h1.271l-0.164,0.536H184.744z"/>
			<path fill="#450D06" d="M190.191,44.82c0-0.258,0.048-0.494,0.146-0.712c0.097-0.218,0.231-0.406,0.402-0.565
				c0.171-0.16,0.375-0.284,0.612-0.373c0.237-0.09,0.496-0.135,0.775-0.135c0.373,0,0.685,0.094,0.934,0.28
				c0.248,0.187,0.373,0.428,0.373,0.724c0,0.162-0.045,0.291-0.135,0.385c-0.089,0.093-0.212,0.139-0.367,0.139
				c-0.179,0-0.307-0.052-0.385-0.156c-0.078-0.105-0.144-0.223-0.198-0.351s-0.112-0.247-0.175-0.355s-0.167-0.163-0.315-0.163
				c-0.171,0-0.314,0.074-0.431,0.221c-0.117,0.148-0.176,0.331-0.176,0.549c0,0.256,0.076,0.496,0.228,0.717
				c0.152,0.223,0.321,0.453,0.508,0.694s0.355,0.506,0.507,0.794c0.152,0.287,0.228,0.625,0.228,1.014
				c0,0.265-0.057,0.514-0.169,0.746c-0.112,0.234-0.265,0.438-0.455,0.613c-0.19,0.175-0.41,0.313-0.658,0.414
				c-0.249,0.101-0.506,0.151-0.771,0.151c-0.466,0-0.838-0.101-1.113-0.304c-0.276-0.201-0.414-0.467-0.414-0.793
				c0-0.225,0.052-0.402,0.157-0.53c0.104-0.128,0.247-0.192,0.426-0.192c0.334,0,0.524,0.229,0.571,0.688
				c0.023,0.25,0.064,0.414,0.123,0.496c0.058,0.082,0.177,0.123,0.355,0.123c0.279,0,0.501-0.084,0.665-0.252
				c0.163-0.166,0.244-0.398,0.244-0.693c0-0.311-0.077-0.587-0.233-0.828c-0.155-0.24-0.326-0.477-0.513-0.705
				c-0.187-0.229-0.357-0.473-0.514-0.729C190.269,45.473,190.191,45.17,190.191,44.82z"/>
			<path fill="#450D06" d="M198.063,47.782c-0.677,1.112-1.509,1.668-2.496,1.668c-0.536,0-0.948-0.165-1.236-0.495
				c-0.288-0.331-0.432-0.8-0.432-1.406c0-0.536,0.111-1.072,0.333-1.609s0.511-1.021,0.868-1.452s0.759-0.781,1.201-1.05
				c0.443-0.268,0.887-0.402,1.33-0.402c0.373,0,0.679,0.096,0.916,0.286c0.236,0.19,0.355,0.433,0.355,0.729
				c0,0.272-0.102,0.552-0.304,0.84s-0.477,0.56-0.822,0.816s-0.75,0.49-1.213,0.7c-0.463,0.209-0.954,0.373-1.476,0.49
				c-0.016,0.108-0.027,0.215-0.034,0.32c-0.008,0.105-0.012,0.212-0.012,0.32c0,0.848,0.299,1.271,0.897,1.271
				c0.288,0,0.585-0.113,0.893-0.338c0.307-0.226,0.593-0.537,0.857-0.934L198.063,47.782z M197.398,43.584
				c-0.202,0-0.412,0.077-0.63,0.232c-0.218,0.156-0.426,0.363-0.624,0.625c-0.198,0.26-0.379,0.557-0.542,0.892
				s-0.296,0.681-0.396,1.038c0.373-0.102,0.719-0.233,1.038-0.396c0.318-0.164,0.593-0.348,0.822-0.555
				c0.229-0.205,0.41-0.424,0.542-0.652c0.132-0.229,0.198-0.461,0.198-0.694C197.807,43.746,197.671,43.584,197.398,43.584z"/>
			<path fill="#450D06" d="M201.796,44.12l-0.969,3.208c-0.132,0.419-0.202,0.738-0.21,0.955c0,0.07,0.018,0.133,0.053,0.188
				s0.096,0.082,0.181,0.082c0.141,0,0.288-0.053,0.443-0.158s0.305-0.229,0.449-0.373c0.144-0.145,0.272-0.291,0.385-0.443
				c0.112-0.151,0.196-0.27,0.251-0.355l0.338,0.198c-0.132,0.265-0.299,0.519-0.501,0.764c-0.203,0.245-0.416,0.461-0.642,0.647
				s-0.453,0.336-0.683,0.449c-0.229,0.112-0.438,0.169-0.624,0.169c-0.272,0-0.469-0.059-0.589-0.175
				c-0.121-0.117-0.181-0.311-0.181-0.584c0-0.154,0.027-0.365,0.081-0.629c0.055-0.265,0.148-0.626,0.28-1.085l0.863-2.857h-1.003
				l0.151-0.536h1.015l0.606-2.006h1.073l-0.606,2.006h1.271l-0.164,0.536H201.796z"/>
			<path fill="#450D06" d="M206.053,44.12l-0.969,3.208c-0.132,0.419-0.202,0.738-0.21,0.955c0,0.07,0.018,0.133,0.053,0.188
				s0.096,0.082,0.181,0.082c0.141,0,0.288-0.053,0.443-0.158s0.305-0.229,0.449-0.373c0.144-0.145,0.272-0.291,0.385-0.443
				c0.112-0.151,0.196-0.27,0.251-0.355l0.338,0.198c-0.132,0.265-0.299,0.519-0.501,0.764c-0.203,0.245-0.416,0.461-0.642,0.647
				s-0.453,0.336-0.683,0.449c-0.229,0.112-0.438,0.169-0.624,0.169c-0.272,0-0.469-0.059-0.589-0.175
				c-0.121-0.117-0.181-0.311-0.181-0.584c0-0.154,0.027-0.365,0.081-0.629c0.055-0.265,0.148-0.626,0.28-1.085l0.863-2.857h-1.003
				l0.151-0.536h1.015l0.606-2.006h1.073l-0.606,2.006h1.271l-0.164,0.536H206.053z"/>
			<path fill="#450D06" d="M209.097,45.484c0.108-0.303,0.187-0.548,0.232-0.734c0.047-0.188,0.07-0.334,0.07-0.443
				s-0.018-0.181-0.053-0.216c-0.034-0.035-0.071-0.052-0.11-0.052c-0.086,0-0.179,0.04-0.28,0.121
				c-0.101,0.082-0.202,0.178-0.303,0.287c-0.102,0.108-0.19,0.217-0.269,0.326s-0.132,0.194-0.163,0.256l-0.339-0.209
				c0.094-0.172,0.224-0.361,0.392-0.572c0.167-0.209,0.355-0.404,0.565-0.583s0.428-0.328,0.653-0.448
				c0.225-0.121,0.438-0.182,0.641-0.182c0.194,0,0.341,0.057,0.438,0.17c0.098,0.112,0.146,0.316,0.146,0.611
				c0,0.227-0.068,0.529-0.204,0.91c-0.137,0.381-0.313,0.871-0.531,1.47l-0.432,1.178c-0.016,0.039-0.037,0.099-0.063,0.181
				c-0.027,0.082-0.055,0.168-0.082,0.257s-0.051,0.177-0.07,0.263s-0.028,0.155-0.028,0.209c0,0.07,0.019,0.133,0.058,0.188
				s0.102,0.082,0.187,0.082c0.117,0,0.237-0.049,0.362-0.146c0.124-0.098,0.244-0.212,0.361-0.344
				c0.116-0.133,0.222-0.267,0.314-0.402c0.094-0.137,0.163-0.243,0.21-0.321l0.351,0.198c-0.094,0.188-0.221,0.393-0.38,0.618
				s-0.34,0.434-0.542,0.624c-0.202,0.191-0.424,0.35-0.665,0.479c-0.241,0.128-0.489,0.192-0.746,0.192
				c-0.226,0-0.395-0.059-0.508-0.175c-0.112-0.117-0.169-0.311-0.169-0.584c0-0.225,0.037-0.468,0.111-0.729
				c0.073-0.26,0.181-0.589,0.32-0.985L209.097,45.484z M210.811,41.123c-0.194,0-0.363-0.066-0.507-0.199
				c-0.145-0.132-0.216-0.303-0.216-0.513s0.069-0.389,0.21-0.536c0.14-0.148,0.311-0.223,0.513-0.223
				c0.218,0,0.396,0.074,0.537,0.223c0.14,0.147,0.21,0.322,0.21,0.524s-0.074,0.373-0.222,0.513
				C211.188,41.053,211.013,41.123,210.811,41.123z"/>
			<path fill="#450D06" d="M216.537,43.642c-0.187,0-0.398,0.096-0.636,0.286s-0.479,0.443-0.724,0.758
				c-0.244,0.314-0.479,0.675-0.705,1.079s-0.416,0.816-0.571,1.236l-0.863,2.333h-1.026l0.863-2.672
				c0.14-0.428,0.256-0.793,0.35-1.096s0.169-0.559,0.228-0.764c0.059-0.207,0.099-0.373,0.122-0.502s0.035-0.231,0.035-0.309
				c0-0.211-0.066-0.315-0.198-0.315c-0.086,0-0.187,0.055-0.303,0.163c-0.117,0.109-0.235,0.251-0.356,0.426
				c-0.12,0.176-0.235,0.375-0.344,0.602c-0.109,0.225-0.202,0.454-0.28,0.688l-0.35-0.175c0.272-0.801,0.577-1.392,0.916-1.772
				c0.338-0.381,0.725-0.572,1.16-0.572c0.249,0,0.426,0.07,0.53,0.21c0.105,0.14,0.158,0.378,0.158,0.712
				c0,0.396-0.066,0.75-0.198,1.061l0.034,0.035c0.396-0.699,0.799-1.211,1.207-1.533s0.854-0.484,1.336-0.484
				c0.342,0,0.603,0.082,0.781,0.245s0.269,0.396,0.269,0.7c0,0.101-0.01,0.213-0.029,0.338s-0.053,0.273-0.1,0.449
				c-0.046,0.175-0.11,0.383-0.192,0.623c-0.081,0.242-0.181,0.537-0.297,0.887c-0.179,0.529-0.327,0.973-0.443,1.33
				s-0.175,0.61-0.175,0.758c0,0.117,0.039,0.176,0.116,0.176c0.109,0,0.269-0.09,0.479-0.27c0.21-0.178,0.494-0.466,0.852-0.862
				l0.303,0.163c-0.124,0.233-0.285,0.461-0.483,0.683s-0.404,0.422-0.618,0.601s-0.426,0.322-0.636,0.432
				c-0.21,0.108-0.393,0.163-0.549,0.163c-0.194,0-0.348-0.086-0.46-0.257c-0.113-0.171-0.169-0.396-0.169-0.676
				c0-0.109,0.009-0.221,0.028-0.333s0.061-0.274,0.123-0.483c0.062-0.211,0.153-0.492,0.273-0.846
				c0.121-0.354,0.286-0.822,0.496-1.406c0.07-0.201,0.128-0.373,0.175-0.513s0.084-0.263,0.111-0.368
				c0.026-0.104,0.046-0.195,0.058-0.273s0.018-0.151,0.018-0.222C216.852,43.785,216.747,43.642,216.537,43.642z"/>
			<path fill="#450D06" d="M223.967,50.186c0,0.334-0.071,0.635-0.216,0.903c-0.144,0.269-0.35,0.497-0.618,0.688
				c-0.268,0.189-0.593,0.336-0.974,0.438c-0.381,0.101-0.809,0.15-1.283,0.15c-0.428,0-0.816-0.038-1.166-0.115
				c-0.35-0.078-0.651-0.191-0.904-0.339c-0.252-0.147-0.446-0.321-0.583-0.519c-0.136-0.199-0.204-0.422-0.204-0.672
				c0-0.318,0.104-0.582,0.31-0.793c0.206-0.209,0.469-0.314,0.787-0.314c0.093,0,0.183,0.012,0.269,0.035
				c0.085,0.023,0.194,0.066,0.326,0.129c-0.436,0.178-0.653,0.517-0.653,1.014c0,0.327,0.165,0.584,0.496,0.77
				c0.33,0.188,0.783,0.281,1.358,0.281c0.312,0,0.599-0.035,0.863-0.105s0.491-0.16,0.683-0.269
				c0.19-0.108,0.338-0.231,0.442-0.367c0.105-0.136,0.158-0.271,0.158-0.402c0-0.218-0.131-0.414-0.391-0.589
				c-0.261-0.176-0.628-0.306-1.103-0.391c-0.848-0.148-1.47-0.319-1.866-0.514s-0.595-0.467-0.595-0.816
				c0-0.225,0.099-0.416,0.298-0.571c0.198-0.155,0.554-0.312,1.066-0.467l0.023-0.046c-0.591-0.42-0.886-0.961-0.886-1.621
				c0-0.358,0.073-0.698,0.221-1.021c0.148-0.322,0.349-0.606,0.602-0.852c0.252-0.244,0.548-0.438,0.886-0.577
				c0.339-0.14,0.694-0.21,1.067-0.21c0.575,0,1.058,0.21,1.446,0.63c0.365-0.412,0.719-0.618,1.062-0.618
				c0.249,0,0.467,0.076,0.653,0.228s0.279,0.329,0.279,0.53c0,0.156-0.053,0.286-0.157,0.391c-0.104,0.105-0.235,0.158-0.391,0.158
				c-0.117,0-0.208-0.025-0.274-0.076c-0.065-0.051-0.122-0.106-0.169-0.169c-0.047-0.062-0.099-0.118-0.157-0.169
				s-0.139-0.076-0.239-0.076c-0.055,0-0.104,0.01-0.151,0.029s-0.133,0.072-0.257,0.158c0.039,0.108,0.066,0.211,0.082,0.309
				c0.015,0.098,0.022,0.22,0.022,0.367c0,0.855-0.236,1.537-0.711,2.047s-1.128,0.795-1.96,0.857
				c-0.373,0.031-0.64,0.078-0.799,0.14c-0.159,0.063-0.238,0.155-0.238,0.28c0,0.163,0.087,0.285,0.262,0.367
				s0.395,0.15,0.659,0.204c0.265,0.055,0.548,0.108,0.852,0.163c0.303,0.055,0.587,0.135,0.852,0.239
				c0.264,0.104,0.483,0.249,0.659,0.432C223.88,49.627,223.967,49.874,223.967,50.186z M221.518,47.105
				c0.187,0,0.369-0.073,0.549-0.221c0.179-0.148,0.34-0.345,0.483-0.59c0.144-0.244,0.259-0.522,0.345-0.834
				c0.085-0.311,0.128-0.629,0.128-0.956c0-0.312-0.07-0.558-0.21-0.741c-0.14-0.182-0.323-0.273-0.548-0.273
				c-0.18,0-0.362,0.08-0.549,0.239s-0.355,0.363-0.507,0.612c-0.152,0.248-0.274,0.53-0.367,0.846
				c-0.094,0.314-0.141,0.623-0.141,0.927c0,0.296,0.074,0.534,0.222,0.718C221.07,47.015,221.269,47.105,221.518,47.105z"/>
			<path fill="#450D06" d="M226.206,44.82c0-0.258,0.048-0.494,0.146-0.712c0.097-0.218,0.231-0.406,0.402-0.565
				c0.171-0.16,0.375-0.284,0.612-0.373c0.237-0.09,0.496-0.135,0.775-0.135c0.373,0,0.685,0.094,0.934,0.28
				c0.248,0.187,0.373,0.428,0.373,0.724c0,0.162-0.045,0.291-0.135,0.385c-0.089,0.093-0.212,0.139-0.367,0.139
				c-0.179,0-0.307-0.052-0.385-0.156c-0.078-0.105-0.144-0.223-0.198-0.351s-0.112-0.247-0.175-0.355s-0.167-0.163-0.315-0.163
				c-0.171,0-0.314,0.074-0.431,0.221c-0.117,0.148-0.176,0.331-0.176,0.549c0,0.256,0.076,0.496,0.228,0.717
				c0.152,0.223,0.321,0.453,0.508,0.694s0.355,0.506,0.507,0.794c0.152,0.287,0.228,0.625,0.228,1.014
				c0,0.265-0.057,0.514-0.169,0.746c-0.112,0.234-0.265,0.438-0.455,0.613c-0.19,0.175-0.41,0.313-0.658,0.414
				c-0.249,0.101-0.506,0.151-0.771,0.151c-0.466,0-0.838-0.101-1.113-0.304c-0.276-0.201-0.414-0.467-0.414-0.793
				c0-0.225,0.052-0.402,0.157-0.53c0.104-0.128,0.247-0.192,0.426-0.192c0.334,0,0.524,0.229,0.571,0.688
				c0.023,0.25,0.064,0.414,0.123,0.496c0.058,0.082,0.177,0.123,0.355,0.123c0.279,0,0.501-0.084,0.665-0.252
				c0.163-0.166,0.244-0.398,0.244-0.693c0-0.311-0.077-0.587-0.233-0.828c-0.155-0.24-0.326-0.477-0.513-0.705
				c-0.187-0.229-0.357-0.473-0.514-0.729C226.283,45.473,226.206,45.17,226.206,44.82z"/>
		</g>
	</g>
</g>
<path class="boom" fill-rule="evenodd" clip-rule="evenodd" fill="rgba(64,0,0,0.6)" d="M194.894,30.967c-1.563-1.336-3.125-2.672-4.7-4.018
	c-1.13,2.229-2.252,4.441-3.396,6.695c-0.653-2.715-1.295-5.383-1.943-8.08c-2.469,0.918-4.923,1.833-7.377,2.746
	c-0.009-0.009-0.016-0.018-0.024-0.027c1.406-1.714,2.811-3.427,4.242-5.17c-1.965-0.271-3.896-0.537-5.829-0.805
	c-0.002-0.012-0.003-0.023-0.005-0.035c1.987-0.669,3.975-1.338,5.998-2.02l-5.457-6.313c0.005-0.012,0.011-0.024,0.017-0.036
	c2.967,0.7,5.935,1.4,8.92,2.104c0.323-2.58,0.642-5.135,0.962-7.691l0.036-0.004c1.067,2.175,2.133,4.352,3.212,6.553
	c1.72-1.761,3.421-3.505,5.125-5.25l0.032,0.02c-0.665,2.307-1.329,4.613-2.001,6.947c2.666-0.109,5.299-0.215,7.933-0.322
	c0.005,0.014,0.012,0.027,0.018,0.041c-2.214,1.587-4.427,3.174-6.657,4.77c2.419,1.871,4.822,3.729,7.226,5.588
	c-0.006,0.01-0.011,0.021-0.016,0.031c-2.797-0.509-5.594-1.018-8.422-1.533c0.726,1.95,1.438,3.866,2.15,5.783
	C194.921,30.948,194.908,30.957,194.894,30.967"/>
<path class="wave" fill-rule="evenodd" clip-rule="evenodd" fill="rgba(64,0,0,0.6)" d="M193.956,135.06h-23.749
	c-0.022-0.026-0.045-0.055-0.068-0.079c0.083-0.051,0.181-0.085,0.248-0.148c3.982-3.785,7.966-7.57,11.939-11.364
	c2.186-2.085,4.795-3.347,7.865-3.707c3.569-0.418,6.852,0.319,9.784,2.335c0.461,0.318,0.879,0.691,1.315,1.042
	c0.059,0.047,0.106,0.107,0.177,0.185c-3.121,0.124-5.565,1.372-7.179,3.889C192.672,129.731,192.655,132.374,193.956,135.06"/>
<path class="house" fill-rule="evenodd" clip-rule="evenodd" fill="rgba(64,0,0,0.6)" d="M201.151,135.052h-2.47v-0.376
	c0-1.03-0.002-2.063,0.003-3.096c0-0.091,0.026-0.209,0.09-0.27c1.014-0.976,2.036-1.946,3.097-2.955
	c0.264,0.26,0.509,0.509,0.759,0.749c0.748,0.717,1.5,1.426,2.245,2.144c0.07,0.065,0.146,0.164,0.147,0.247
	c0.008,1.181,0.006,2.358,0.006,3.557h-2.46"/>
<circle opacity="0.6" fill="#37060E" cx="71.266" cy="50.02" r="7.121"/>
<path opacity="0.6" fill-rule="evenodd" clip-rule="evenodd" fill="#37060E" d="M85.484,95.64h-6.953
	c-0.152,1.669-0.3,3.288-0.447,4.906c-0.338,3.718-0.676,7.438-1.014,11.157c-0.162,1.791-0.327,3.584-0.477,5.378
	c-0.127,1.515-0.941,2.505-2.318,2.78c-1.76,0.354-3.486-1.096-3.331-2.828c0.46-5.155,0.938-10.311,1.406-15.469
	c0.178-1.958,0.345-3.913,0.522-5.916h-10.9c2.998-5.704,5.956-11.332,8.945-17.021c-0.381,0.107-0.689,0.229-1.008,0.278
	c-0.654,0.1-1.257-0.067-1.795-0.437c-2.789-1.925-5.588-3.839-8.361-5.786c-1.254-0.88-1.389-2.582-0.305-3.615
	c2.4-2.293,4.791-4.598,7.255-6.83c1.942-1.76,4.27-2.44,6.912-1.833c1.337,0.308,2.396,1.052,3.155,2.155
	c3.279,4.765,6.568,9.523,9.809,14.311c2.14,3.163,1.727,7.3-0.943,10.072c-0.329,0.34-0.43,0.669-0.406,1.132
	c0.125,2.389,0.205,4.781,0.297,7.172C85.531,95.361,85.503,95.476,85.484,95.64 M65.245,70.592
	c1.998,1.385,4.128,2.862,6.317,4.381c-0.68-2.913-1.347-5.778-2.055-8.82C68.029,67.691,66.647,69.131,65.245,70.592"/>
<g class="arrows">
	<line opacity="0.6" fill="none" stroke="#37060E" stroke-miterlimit="10" x1="177.59" y1="73.872" x2="192.162" y2="73.872"/>
	<line opacity="0.6" fill="none" stroke="#37060E" stroke-miterlimit="10" x1="177.59" y1="82.875" x2="192.162" y2="82.875"/>
	<polygon opacity="0.6" fill-rule="evenodd" clip-rule="evenodd" fill="#37060E" points="192.162,79.349 192.162,86.401 
		198.587,82.875 "/>
	<polygon opacity="0.6" fill-rule="evenodd" clip-rule="evenodd" fill="#37060E" points="192.162,70.346 192.162,77.398 
		198.587,73.872 "/>	
</g>

</svg>
