<?xml version="1.0" encoding="utf-8"?>
<!-- Generator: Adobe Illustrator 16.0.0, SVG Export Plug-In . SVG Version: 6.00 Build 0)  -->
<!DOCTYPE svg PUBLIC "-//W3C//DTD SVG 1.1//EN" "http://www.w3.org/Graphics/SVG/1.1/DTD/svg11.dtd">
<svg version="1.1" id="Capa_1" xmlns="http://www.w3.org/2000/svg" xmlns:xlink="http://www.w3.org/1999/xlink" x="0px" y="0px"
	 width="355.128px" height="180.769px" viewBox="0 0 355.128 180.769" enable-background="new 0 0 355.128 180.769"
	 xml:space="preserve">
<g opacity="0.2" data-anchor-target="#section5"
	data--2000-top="opacity:0;"
	data--2100-top="opacity:0.2;"
	data--3400-top="opacity:0.2;"
	data--3450-top="opacity:0;">
	<path fill="#3E0106" d="M37.395,12.395c-16.366,0-29.681,13.345-29.681,29.747c0,1.494,0.112,2.996,0.333,4.462
		C10.022,59.756,20.7,69.953,33.619,71.64v6.201h-7.74v7.567h7.74v9.735h7.552v-9.735h7.739v-7.567H41.17v-6.198
		c2.987-0.378,5.882-1.198,8.639-2.474c10.488-4.846,17.266-15.455,17.266-27.027C67.075,25.74,53.759,12.395,37.395,12.395z
		 M46.648,62.296c-2.908,1.344-6.021,2.025-9.253,2.025c-10.86,0-20.267-8.102-21.881-18.846c-0.164-1.094-0.248-2.215-0.248-3.334
		c0-12.229,9.927-22.179,22.129-22.179c12.201,0,22.128,9.95,22.128,22.179C59.523,50.771,54.468,58.683,46.648,62.296z"/>
</g>
<g opacity="0.2" data-anchor-target="#section5"
	data--2100-top="opacity:0;"
	data--2200-top="opacity:0.2;"
	data--3350-top="opacity:0.2;"
	data--3400-top="opacity:0;">
	<path fill="#3E0106" d="M107.395,12.395c-16.366,0-29.681,13.345-29.681,29.747c0,1.494,0.112,2.996,0.333,4.462
		C80.023,59.756,90.7,69.953,103.619,71.64v6.201h-7.74v7.567h7.74v9.735h7.551v-9.735h7.74v-7.567h-7.74v-6.198
		c2.988-0.378,5.883-1.198,8.639-2.474c10.488-4.846,17.266-15.455,17.266-27.027C137.075,25.74,123.76,12.395,107.395,12.395z
		 M116.649,62.296c-2.908,1.344-6.021,2.025-9.254,2.025c-10.86,0-20.267-8.102-21.881-18.846c-0.164-1.094-0.248-2.215-0.248-3.334
		c0-12.229,9.927-22.179,22.129-22.179c12.201,0,22.129,9.95,22.129,22.179C129.524,50.771,124.469,58.683,116.649,62.296z"/>
</g>
<g opacity="0.2" data-anchor-target="#section5"
	data--2200-top="opacity:0;"
	data--2300-top="opacity:0.2;"
	data--3300-top="opacity:0.2;"
	data--3350-top="opacity:0;">
	<path fill="#3E0106" d="M177.715,12.395c-16.366,0-29.681,13.345-29.681,29.747c0,1.494,0.112,2.996,0.333,4.462
		c1.976,13.152,12.653,23.349,25.572,25.036v6.201h-7.74v7.567h7.74v9.735h7.552v-9.735h7.739v-7.567h-7.739v-6.198
		c2.987-0.378,5.882-1.198,8.639-2.474c10.488-4.846,17.266-15.455,17.266-27.027C207.395,25.74,194.08,12.395,177.715,12.395z
		 M186.968,62.296c-2.908,1.344-6.021,2.025-9.253,2.025c-10.86,0-20.267-8.102-21.881-18.846c-0.164-1.094-0.248-2.215-0.248-3.334
		c0-12.229,9.927-22.179,22.129-22.179c12.201,0,22.128,9.95,22.128,22.179C199.843,50.771,194.789,58.683,186.968,62.296z"/>
</g>
<g opacity="0.2" data-anchor-target="#section5"
	data--2300-top="opacity:0;"
	data--2400-top="opacity:0.2;"
	data--3250-top="opacity:0.2;"
	data--3300-top="opacity:0;">
	<path fill="#3E0106" d="M247.715,12.395c-16.365,0-29.68,13.345-29.68,29.747c0,1.494,0.111,2.996,0.332,4.462
		c1.977,13.152,12.653,23.349,25.572,25.036v6.201h-7.74v7.567h7.74v9.735h7.551v-9.735h7.74v-7.567h-7.74v-6.198
		c2.988-0.378,5.883-1.198,8.639-2.474c10.488-4.846,17.266-15.455,17.266-27.027C277.395,25.74,264.08,12.395,247.715,12.395z
		 M256.969,62.296c-2.908,1.344-6.021,2.025-9.254,2.025c-10.859,0-20.266-8.102-21.881-18.846
		c-0.164-1.094-0.248-2.215-0.248-3.334c0-12.229,9.928-22.179,22.129-22.179s22.129,9.95,22.129,22.179
		C269.844,50.771,264.789,58.683,256.969,62.296z"/>
</g>
<g opacity="0.6" data-anchor-target="#section5"
	data--2400-top="opacity:0;"
	data--2500-top="opacity:0.6;"
	data--3200-top="opacity:0.6;"
	data--3250-top="opacity:0;">
	<path fill="#3E0106" d="M317.715,11.77c-16.365,0-29.68,13.345-29.68,29.747c0,1.494,0.111,2.996,0.332,4.462
		c1.977,13.152,12.653,23.349,25.572,25.036v6.201h-7.74v7.567h7.74v9.735h7.551v-9.735h7.74v-7.567h-7.74v-6.198
		c2.988-0.378,5.883-1.198,8.639-2.474c10.488-4.846,17.266-15.455,17.266-27.027C347.395,25.115,334.08,11.77,317.715,11.77z
		 M326.969,61.671c-2.908,1.344-6.021,2.025-9.254,2.025c-10.859,0-20.266-8.102-21.881-18.846
		c-0.164-1.094-0.248-2.215-0.248-3.334c0-12.229,9.928-22.179,22.129-22.179s22.129,9.95,22.129,22.179
		C339.844,50.146,334.789,58.058,326.969,61.671z"/>
</g>
<line data-anchor-target="#section5"
	data--2450-top="stroke-dasharray[sqrt]: 40; stroke-dashoffset: 120;"
	data--2550-top="stroke-dasharray[sqrt]: 40; stroke-dashoffset: 80;"
	data--3100-top="stroke-dasharray[sqrt]: 40; stroke-dashoffset: 80;"
	data--3200-top="stroke-dasharray[sqrt]: 40; stroke-dashoffset: 120;" opacity="0.6" fill="none" stroke="#3E0106" stroke-miterlimit="10" x1="317.715" y1="104.128" x2="317.715" y2="136.179"/>
<g data-anchor-target="#section5"
	data--2500-top="opacity:0;"
	data--2600-top="opacity:0.6;"
	data--3000-top="opacity:0.6;"
	data--3100-top="opacity:0;">
	<path fill="#3E0106" d="M289.029,141.251h0.913l-0.627,1.683c-0.104,0.279-0.204,0.576-0.303,0.892s-0.188,0.62-0.264,0.913
		c-0.077,0.293-0.138,0.561-0.182,0.803s-0.066,0.422-0.066,0.539c0,0.213,0.069,0.318,0.209,0.318c0.103,0,0.251-0.105,0.445-0.318
		s0.413-0.488,0.655-0.825l0.285,0.231c-0.308,0.543-0.64,0.963-0.995,1.26s-0.698,0.445-1.028,0.445
		c-0.169,0-0.299-0.064-0.391-0.193c-0.092-0.128-0.138-0.338-0.138-0.632c0-0.065,0.002-0.144,0.006-0.231s0.013-0.205,0.027-0.352
		l-0.044-0.012c-0.11,0.206-0.24,0.395-0.391,0.566c-0.15,0.173-0.313,0.323-0.489,0.451c-0.176,0.129-0.359,0.229-0.55,0.297
		c-0.191,0.07-0.378,0.105-0.562,0.105c-0.374,0-0.665-0.142-0.874-0.424s-0.313-0.673-0.313-1.172c0-0.506,0.105-1.022,0.318-1.551
		c0.213-0.527,0.488-1.006,0.825-1.436c0.337-0.429,0.711-0.781,1.122-1.056c0.41-0.275,0.814-0.413,1.21-0.413
		c0.242,0,0.44,0.057,0.594,0.171c0.154,0.114,0.279,0.299,0.374,0.556L289.029,141.251z M287.896,141.713
		c-0.279,0-0.566,0.129-0.864,0.385c-0.297,0.258-0.566,0.578-0.808,0.963c-0.242,0.385-0.44,0.799-0.595,1.243
		c-0.153,0.444-0.23,0.856-0.23,1.237c0,0.264,0.055,0.475,0.165,0.633c0.109,0.158,0.26,0.236,0.451,0.236
		c0.168,0,0.344-0.068,0.527-0.203c0.184-0.137,0.361-0.316,0.533-0.539c0.173-0.225,0.336-0.479,0.49-0.766
		c0.153-0.285,0.289-0.58,0.406-0.885c0.118-0.305,0.21-0.604,0.275-0.896c0.066-0.293,0.099-0.557,0.099-0.792
		c0-0.19-0.04-0.341-0.12-0.451C288.145,141.767,288.035,141.713,287.896,141.713z"/>
	<path fill="#3E0106" d="M297.279,145.618c-0.638,1.049-1.423,1.573-2.354,1.573c-0.506,0-0.895-0.156-1.166-0.468
		c-0.271-0.312-0.406-0.753-0.406-1.325c0-0.506,0.104-1.012,0.313-1.519c0.209-0.506,0.481-0.962,0.819-1.369
		c0.337-0.407,0.715-0.737,1.133-0.99s0.836-0.38,1.254-0.38c0.353,0,0.64,0.09,0.863,0.27s0.336,0.409,0.336,0.688
		c0,0.258-0.096,0.521-0.286,0.793s-0.449,0.527-0.775,0.77s-0.708,0.462-1.144,0.66c-0.437,0.197-0.9,0.352-1.392,0.462
		c-0.016,0.103-0.026,0.203-0.033,0.302c-0.008,0.1-0.011,0.201-0.011,0.303c0,0.8,0.282,1.199,0.847,1.199
		c0.271,0,0.552-0.105,0.842-0.318c0.289-0.213,0.559-0.506,0.808-0.881L297.279,145.618z M296.652,141.658
		c-0.19,0-0.389,0.073-0.594,0.22c-0.206,0.147-0.401,0.343-0.589,0.589c-0.187,0.246-0.357,0.525-0.512,0.842
		c-0.153,0.314-0.278,0.641-0.374,0.979c0.353-0.096,0.679-0.221,0.979-0.374s0.559-0.328,0.775-0.522
		c0.216-0.194,0.387-0.4,0.512-0.616c0.124-0.216,0.187-0.435,0.187-0.654C297.037,141.812,296.909,141.658,296.652,141.658z
		 M296.167,139.92l1.431-1.309c0.264-0.242,0.509-0.363,0.736-0.363c0.125,0,0.226,0.033,0.303,0.1
		c0.077,0.065,0.115,0.16,0.115,0.285c0,0.117-0.049,0.223-0.148,0.314c-0.099,0.092-0.236,0.178-0.412,0.258l-1.507,0.715H296.167z
		"/>
	<path fill="#3E0106" d="M300.798,142.164l-0.913,3.025c-0.125,0.396-0.19,0.696-0.198,0.901c0,0.066,0.017,0.125,0.05,0.177
		c0.033,0.051,0.09,0.076,0.171,0.076c0.132,0,0.271-0.049,0.418-0.148c0.146-0.099,0.287-0.216,0.423-0.352
		s0.257-0.275,0.363-0.418s0.186-0.255,0.236-0.336l0.319,0.188c-0.125,0.249-0.282,0.489-0.473,0.721
		c-0.191,0.23-0.393,0.434-0.605,0.609c-0.213,0.177-0.428,0.318-0.644,0.424c-0.217,0.106-0.412,0.16-0.589,0.16
		c-0.256,0-0.441-0.055-0.555-0.166c-0.114-0.109-0.171-0.293-0.171-0.549c0-0.146,0.025-0.346,0.077-0.595
		c0.051-0.249,0.139-0.59,0.264-1.022l0.814-2.695h-0.946l0.143-0.506h0.957l0.572-1.893h1.012l-0.571,1.893h1.199l-0.154,0.506
		H300.798z"/>
	<path fill="#3E0106" d="M306.309,145.618c-0.638,1.049-1.423,1.573-2.354,1.573c-0.506,0-0.895-0.156-1.166-0.468
		c-0.271-0.312-0.406-0.753-0.406-1.325c0-0.506,0.104-1.012,0.313-1.519c0.209-0.506,0.481-0.962,0.819-1.369
		c0.337-0.407,0.715-0.737,1.133-0.99s0.836-0.38,1.254-0.38c0.353,0,0.64,0.09,0.863,0.27s0.336,0.409,0.336,0.688
		c0,0.258-0.096,0.521-0.286,0.793s-0.449,0.527-0.775,0.77s-0.708,0.462-1.144,0.66c-0.437,0.197-0.9,0.352-1.392,0.462
		c-0.016,0.103-0.026,0.203-0.033,0.302c-0.008,0.1-0.011,0.201-0.011,0.303c0,0.8,0.282,1.199,0.847,1.199
		c0.271,0,0.552-0.105,0.842-0.318c0.289-0.213,0.559-0.506,0.808-0.881L306.309,145.618z M305.682,141.658
		c-0.19,0-0.389,0.073-0.594,0.22c-0.206,0.147-0.401,0.343-0.589,0.589c-0.187,0.246-0.357,0.525-0.512,0.842
		c-0.153,0.314-0.278,0.641-0.374,0.979c0.353-0.096,0.679-0.221,0.979-0.374s0.559-0.328,0.775-0.522
		c0.216-0.194,0.387-0.4,0.512-0.616c0.124-0.216,0.187-0.435,0.187-0.654C306.067,141.812,305.939,141.658,305.682,141.658z
		 M305.198,139.92l1.431-1.309c0.264-0.242,0.509-0.363,0.736-0.363c0.125,0,0.226,0.033,0.303,0.1
		c0.077,0.065,0.115,0.16,0.115,0.285c0,0.117-0.049,0.223-0.148,0.314c-0.099,0.092-0.236,0.178-0.412,0.258l-1.507,0.715H305.198z
		"/>
	<path fill="#3E0106" d="M315.087,143.154c0-0.146-0.013-0.281-0.039-0.402c-0.025-0.121-0.055-0.236-0.088-0.346
		c-0.033-0.11-0.063-0.217-0.088-0.319s-0.038-0.209-0.038-0.319c0-0.418,0.19-0.627,0.571-0.627c0.228,0,0.391,0.081,0.49,0.242
		c0.099,0.162,0.148,0.43,0.148,0.803c0,0.389-0.048,0.783-0.144,1.184c-0.095,0.399-0.228,0.784-0.396,1.154
		c-0.169,0.371-0.367,0.717-0.595,1.039c-0.227,0.323-0.469,0.605-0.726,0.848s-0.522,0.433-0.798,0.572
		c-0.274,0.139-0.548,0.209-0.819,0.209c-0.198,0-0.383-0.039-0.556-0.115c-0.172-0.078-0.32-0.186-0.445-0.325
		s-0.222-0.304-0.291-0.495c-0.07-0.19-0.104-0.396-0.104-0.615c0-0.418,0.113-0.91,0.341-1.475s0.55-1.147,0.968-1.749
		l-0.021-0.032c-0.198,0-0.363-0.029-0.495-0.089c-0.132-0.059-0.244-0.124-0.336-0.198c-0.092-0.072-0.172-0.139-0.242-0.197
		c-0.069-0.059-0.141-0.088-0.214-0.088c-0.125,0-0.188,0.063-0.188,0.187c0,0.065,0.021,0.125,0.061,0.177
		c0.04,0.051,0.084,0.102,0.132,0.153s0.092,0.108,0.133,0.171c0.04,0.063,0.06,0.137,0.06,0.225c0,0.133-0.051,0.24-0.153,0.324
		c-0.103,0.085-0.235,0.127-0.396,0.127c-0.19,0-0.337-0.059-0.439-0.176c-0.104-0.117-0.154-0.282-0.154-0.495
		c0-0.183,0.037-0.357,0.11-0.522s0.172-0.31,0.297-0.435c0.124-0.124,0.27-0.224,0.435-0.297s0.339-0.11,0.522-0.11
		c0.146,0,0.271,0.024,0.374,0.072c0.103,0.047,0.197,0.103,0.286,0.164c0.088,0.063,0.174,0.118,0.258,0.166
		c0.085,0.047,0.186,0.071,0.303,0.071c0.14,0,0.264-0.056,0.374-0.165c0.154-0.139,0.259-0.226,0.313-0.259
		c0.055-0.032,0.127-0.05,0.215-0.05c0.146,0,0.22,0.063,0.22,0.188c0,0.029-0.004,0.055-0.011,0.077
		c-0.008,0.022-0.024,0.055-0.05,0.099s-0.069,0.104-0.132,0.176c-0.063,0.074-0.148,0.176-0.259,0.309
		c-0.169,0.205-0.322,0.436-0.462,0.693c-0.14,0.256-0.261,0.523-0.363,0.803c-0.103,0.278-0.183,0.559-0.241,0.842
		c-0.06,0.281-0.089,0.548-0.089,0.797c0,0.396,0.068,0.713,0.204,0.951s0.31,0.357,0.522,0.357c0.205,0,0.425-0.109,0.66-0.33
		c0.234-0.22,0.454-0.492,0.66-0.818c0.205-0.326,0.375-0.681,0.511-1.063C315.019,143.84,315.087,143.484,315.087,143.154z"/>
	<path fill="#3E0106" d="M317.816,143.451c0.103-0.286,0.176-0.518,0.22-0.693s0.065-0.314,0.065-0.418
		c0-0.103-0.016-0.17-0.049-0.203s-0.068-0.05-0.104-0.05c-0.081,0-0.169,0.038-0.265,0.116c-0.095,0.076-0.19,0.166-0.285,0.27
		c-0.096,0.102-0.181,0.205-0.254,0.308s-0.124,0.183-0.153,0.241l-0.319-0.197c0.088-0.162,0.211-0.342,0.368-0.539
		c0.158-0.198,0.336-0.381,0.534-0.551c0.198-0.168,0.403-0.309,0.616-0.423c0.212-0.114,0.414-0.171,0.604-0.171
		c0.184,0,0.32,0.054,0.412,0.16c0.092,0.105,0.138,0.299,0.138,0.577c0,0.213-0.064,0.499-0.192,0.858s-0.295,0.821-0.5,1.386
		l-0.407,1.11c-0.015,0.037-0.035,0.094-0.061,0.171s-0.052,0.158-0.077,0.242c-0.025,0.085-0.048,0.167-0.066,0.247
		c-0.018,0.081-0.027,0.147-0.027,0.198c0,0.066,0.019,0.125,0.056,0.177c0.036,0.051,0.095,0.076,0.176,0.076
		c0.11,0,0.224-0.045,0.341-0.137s0.231-0.2,0.341-0.325c0.11-0.124,0.209-0.251,0.297-0.38c0.088-0.127,0.154-0.229,0.198-0.302
		l0.33,0.187c-0.088,0.176-0.207,0.371-0.357,0.584c-0.15,0.212-0.321,0.408-0.512,0.588s-0.399,0.33-0.627,0.451
		s-0.462,0.182-0.704,0.182c-0.213,0-0.372-0.055-0.479-0.166c-0.106-0.109-0.159-0.293-0.159-0.549
		c0-0.213,0.034-0.442,0.104-0.688c0.069-0.246,0.171-0.557,0.303-0.93L317.816,143.451z M319.432,139.337
		c-0.183,0-0.343-0.062-0.479-0.187s-0.203-0.286-0.203-0.484c0-0.197,0.066-0.367,0.198-0.506s0.293-0.209,0.483-0.209
		c0.206,0,0.374,0.07,0.507,0.209c0.132,0.139,0.197,0.305,0.197,0.495s-0.069,0.352-0.209,0.483
		C319.789,139.271,319.624,139.337,319.432,139.337z"/>
	<path fill="#3E0106" d="M324.26,145.31c-0.308,0.608-0.665,1.074-1.072,1.396s-0.841,0.484-1.304,0.484
		c-0.477,0-0.857-0.164-1.144-0.49s-0.429-0.76-0.429-1.303c0-0.322,0.047-0.652,0.143-0.99s0.224-0.664,0.385-0.979
		c0.161-0.316,0.353-0.613,0.572-0.892s0.455-0.521,0.704-0.726s0.508-0.369,0.775-0.49s0.53-0.182,0.786-0.182
		c0.353,0,0.642,0.096,0.869,0.287c0.228,0.189,0.342,0.428,0.342,0.715c0,0.184-0.054,0.332-0.16,0.445s-0.244,0.17-0.412,0.17
		c-0.169,0-0.307-0.053-0.413-0.159s-0.159-0.237-0.159-0.391c0-0.095,0.015-0.173,0.044-0.231s0.044-0.113,0.044-0.164
		c0-0.104-0.088-0.154-0.264-0.154c-0.242,0-0.488,0.113-0.737,0.341s-0.475,0.521-0.677,0.88c-0.201,0.359-0.366,0.762-0.494,1.205
		c-0.129,0.443-0.193,0.885-0.193,1.325c0,0.353,0.068,0.629,0.204,0.831c0.136,0.201,0.324,0.302,0.566,0.302
		c0.132,0,0.27-0.036,0.412-0.11c0.144-0.072,0.288-0.174,0.435-0.303c0.146-0.127,0.288-0.279,0.424-0.456
		c0.136-0.176,0.259-0.37,0.368-0.583L324.26,145.31z"/>
	<path fill="#3E0106" d="M327.594,142.164l-0.913,3.025c-0.125,0.396-0.19,0.696-0.198,0.901c0,0.066,0.017,0.125,0.05,0.177
		c0.033,0.051,0.09,0.076,0.171,0.076c0.132,0,0.271-0.049,0.418-0.148c0.146-0.099,0.287-0.216,0.423-0.352
		s0.257-0.275,0.363-0.418s0.186-0.255,0.236-0.336l0.319,0.188c-0.125,0.249-0.282,0.489-0.473,0.721
		c-0.191,0.23-0.393,0.434-0.605,0.609c-0.213,0.177-0.428,0.318-0.644,0.424c-0.217,0.106-0.412,0.16-0.589,0.16
		c-0.256,0-0.441-0.055-0.555-0.166c-0.114-0.109-0.171-0.293-0.171-0.549c0-0.146,0.025-0.346,0.077-0.595
		c0.051-0.249,0.139-0.59,0.264-1.022l0.814-2.695h-0.946l0.143-0.506h0.957l0.572-1.893h1.012l-0.571,1.893h1.199l-0.154,0.506
		H327.594z"/>
	<path fill="#3E0106" d="M330.465,143.451c0.103-0.286,0.176-0.518,0.22-0.693s0.065-0.314,0.065-0.418
		c0-0.103-0.016-0.17-0.049-0.203s-0.068-0.05-0.104-0.05c-0.081,0-0.169,0.038-0.265,0.116c-0.095,0.076-0.19,0.166-0.285,0.27
		c-0.096,0.102-0.181,0.205-0.254,0.308s-0.124,0.183-0.153,0.241l-0.319-0.197c0.088-0.162,0.211-0.342,0.368-0.539
		c0.158-0.198,0.336-0.381,0.534-0.551c0.198-0.168,0.403-0.309,0.616-0.423c0.212-0.114,0.414-0.171,0.604-0.171
		c0.184,0,0.32,0.054,0.412,0.16c0.092,0.105,0.138,0.299,0.138,0.577c0,0.213-0.064,0.499-0.192,0.858s-0.295,0.821-0.5,1.386
		l-0.407,1.11c-0.015,0.037-0.035,0.094-0.061,0.171s-0.052,0.158-0.077,0.242c-0.025,0.085-0.048,0.167-0.066,0.247
		c-0.018,0.081-0.027,0.147-0.027,0.198c0,0.066,0.019,0.125,0.056,0.177c0.036,0.051,0.095,0.076,0.176,0.076
		c0.11,0,0.224-0.045,0.341-0.137s0.231-0.2,0.341-0.325c0.11-0.124,0.209-0.251,0.297-0.38c0.088-0.127,0.154-0.229,0.198-0.302
		l0.33,0.187c-0.088,0.176-0.207,0.371-0.357,0.584c-0.15,0.212-0.321,0.408-0.512,0.588s-0.399,0.33-0.627,0.451
		s-0.462,0.182-0.704,0.182c-0.213,0-0.372-0.055-0.479-0.166c-0.106-0.109-0.159-0.293-0.159-0.549
		c0-0.213,0.034-0.442,0.104-0.688c0.069-0.246,0.171-0.557,0.303-0.93L330.465,143.451z M332.082,139.337
		c-0.183,0-0.343-0.062-0.479-0.187s-0.203-0.286-0.203-0.484c0-0.197,0.066-0.367,0.198-0.506s0.293-0.209,0.483-0.209
		c0.206,0,0.374,0.07,0.507,0.209c0.132,0.139,0.197,0.305,0.197,0.495s-0.069,0.352-0.209,0.483
		C332.438,139.271,332.273,139.337,332.082,139.337z"/>
	<path fill="#3E0106" d="M340.101,143.418c0.096-0.271,0.171-0.487,0.226-0.648c0.055-0.162,0.097-0.288,0.126-0.38
		s0.048-0.163,0.056-0.214c0.007-0.052,0.011-0.1,0.011-0.144c0-0.213-0.073-0.319-0.22-0.319c-0.198,0-0.433,0.135-0.704,0.402
		s-0.564,0.654-0.88,1.16c-0.11,0.176-0.213,0.354-0.309,0.533c-0.095,0.18-0.197,0.403-0.308,0.671
		c-0.11,0.269-0.238,0.606-0.385,1.018c-0.147,0.411-0.334,0.938-0.562,1.584h-1.034l0.727-2.211
		c0.154-0.47,0.282-0.864,0.385-1.183s0.184-0.584,0.242-0.797s0.101-0.382,0.126-0.506c0.026-0.125,0.039-0.229,0.039-0.309
		c0-0.242-0.092-0.363-0.275-0.363c-0.146,0-0.322,0.084-0.527,0.253c-0.206,0.169-0.415,0.39-0.627,0.66
		c-0.213,0.271-0.417,0.577-0.611,0.919c-0.194,0.341-0.357,0.688-0.489,1.039l-0.924,2.497h-0.968l0.813-2.519
		c0.14-0.426,0.253-0.783,0.341-1.072c0.089-0.291,0.158-0.529,0.21-0.716c0.051-0.187,0.088-0.335,0.109-0.445
		c0.022-0.11,0.033-0.202,0.033-0.274c0-0.206-0.063-0.309-0.188-0.309c-0.08,0-0.174,0.048-0.28,0.143
		c-0.106,0.096-0.214,0.227-0.324,0.391c-0.11,0.165-0.219,0.354-0.324,0.566c-0.106,0.213-0.2,0.437-0.281,0.672l-0.33-0.166
		c0.257-0.755,0.545-1.313,0.864-1.672c0.318-0.359,0.684-0.539,1.094-0.539c0.235,0,0.402,0.066,0.501,0.198
		s0.148,0.353,0.148,0.66c0,0.353-0.063,0.689-0.187,1.013l0.032,0.032c0.683-1.269,1.404-1.903,2.167-1.903
		c0.286,0,0.51,0.087,0.671,0.259c0.162,0.173,0.242,0.413,0.242,0.721c0,0.103-0.013,0.22-0.038,0.353
		c-0.026,0.131-0.075,0.326-0.148,0.582l0.021,0.033c0.205-0.352,0.401-0.65,0.589-0.896c0.187-0.246,0.368-0.445,0.545-0.6
		c0.176-0.154,0.354-0.268,0.533-0.341s0.364-0.11,0.556-0.11c0.286,0,0.5,0.078,0.644,0.231c0.143,0.153,0.214,0.396,0.214,0.726
		c0,0.104-0.011,0.215-0.033,0.336c-0.021,0.121-0.055,0.264-0.099,0.43c-0.044,0.164-0.101,0.355-0.171,0.571
		c-0.069,0.216-0.151,0.472-0.247,0.765c-0.125,0.374-0.224,0.673-0.297,0.896s-0.129,0.401-0.165,0.533
		c-0.037,0.133-0.061,0.23-0.071,0.297c-0.012,0.066-0.017,0.133-0.017,0.198c0,0.14,0.036,0.209,0.109,0.209
		c0.11,0,0.275-0.104,0.495-0.313c0.221-0.209,0.507-0.533,0.858-0.974l0.286,0.154c-0.125,0.241-0.284,0.481-0.479,0.72
		c-0.194,0.239-0.398,0.451-0.61,0.639c-0.213,0.188-0.424,0.34-0.633,0.457s-0.391,0.176-0.545,0.176
		c-0.183,0-0.328-0.079-0.434-0.236c-0.106-0.158-0.16-0.369-0.16-0.633c0-0.088,0.01-0.188,0.027-0.297
		c0.019-0.11,0.059-0.268,0.121-0.473c0.063-0.206,0.15-0.477,0.265-0.814C339.758,144.4,339.911,143.961,340.101,143.418z"/>
	<path fill="#3E0106" d="M346.458,145.618c-0.638,1.049-1.423,1.573-2.354,1.573c-0.506,0-0.895-0.156-1.166-0.468
		c-0.271-0.312-0.406-0.753-0.406-1.325c0-0.506,0.104-1.012,0.313-1.519c0.209-0.506,0.481-0.962,0.819-1.369
		c0.337-0.407,0.715-0.737,1.133-0.99s0.836-0.38,1.254-0.38c0.353,0,0.64,0.09,0.863,0.27s0.336,0.409,0.336,0.688
		c0,0.258-0.096,0.521-0.286,0.793s-0.449,0.527-0.775,0.77s-0.708,0.462-1.144,0.66c-0.437,0.197-0.9,0.352-1.392,0.462
		c-0.016,0.103-0.026,0.203-0.033,0.302c-0.008,0.1-0.011,0.201-0.011,0.303c0,0.8,0.282,1.199,0.847,1.199
		c0.271,0,0.552-0.105,0.842-0.318c0.289-0.213,0.559-0.506,0.808-0.881L346.458,145.618z M345.832,141.658
		c-0.19,0-0.389,0.073-0.594,0.22c-0.206,0.147-0.401,0.343-0.589,0.589c-0.187,0.246-0.357,0.525-0.512,0.842
		c-0.153,0.314-0.278,0.641-0.374,0.979c0.353-0.096,0.679-0.221,0.979-0.374s0.559-0.328,0.775-0.522
		c0.216-0.194,0.387-0.4,0.512-0.616c0.124-0.216,0.187-0.435,0.187-0.654C346.216,141.812,346.088,141.658,345.832,141.658z"/>
	<path fill="#3E0106" d="M289.844,153.469c0.059-0.197,0.103-0.363,0.132-0.494c0.029-0.133,0.044-0.228,0.044-0.287
		c0-0.109-0.073-0.187-0.221-0.23c-0.146-0.044-0.41-0.066-0.792-0.066l0.121-0.439h2.123l-1.221,4.455
		c-0.154,0.572-0.282,1.06-0.385,1.463s-0.186,0.742-0.248,1.018s-0.104,0.5-0.126,0.676c-0.022,0.177-0.033,0.323-0.033,0.44
		c0,0.169,0.025,0.286,0.077,0.353c0.051,0.065,0.117,0.099,0.198,0.099c0.161,0,0.335-0.136,0.522-0.407
		c0.187-0.271,0.354-0.627,0.5-1.066l0.418,0.099c-0.249,0.726-0.522,1.259-0.819,1.601c-0.297,0.341-0.633,0.512-1.007,0.512
		c-0.264,0-0.467-0.085-0.61-0.254c-0.143-0.168-0.214-0.41-0.214-0.726c0-0.081,0.007-0.165,0.021-0.253s0.033-0.172,0.055-0.253
		l-0.088-0.022c-0.278,0.484-0.615,0.857-1.012,1.117c-0.396,0.26-0.773,0.391-1.133,0.391c-0.191,0-0.367-0.043-0.528-0.127
		s-0.301-0.201-0.418-0.352s-0.211-0.33-0.28-0.539c-0.07-0.209-0.104-0.441-0.104-0.699c0-0.314,0.05-0.643,0.148-0.984
		c0.099-0.341,0.234-0.671,0.407-0.99c0.172-0.318,0.372-0.621,0.6-0.906c0.227-0.287,0.467-0.537,0.72-0.754
		s0.514-0.387,0.781-0.512s0.53-0.188,0.787-0.188c0.249,0,0.438,0.049,0.566,0.144c0.128,0.095,0.254,0.245,0.379,0.45
		L289.844,153.469z M288.336,155.724c-0.19,0-0.383,0.061-0.577,0.182c-0.194,0.12-0.383,0.281-0.566,0.483
		s-0.354,0.435-0.512,0.698c-0.157,0.264-0.295,0.539-0.412,0.825s-0.211,0.575-0.28,0.869c-0.07,0.294-0.104,0.568-0.104,0.825
		c0,0.264,0.065,0.475,0.197,0.633c0.132,0.157,0.309,0.236,0.528,0.236c0.169,0,0.341-0.068,0.517-0.204
		c0.177-0.136,0.349-0.313,0.518-0.533c0.168-0.22,0.328-0.472,0.479-0.754s0.282-0.571,0.396-0.868
		c0.114-0.298,0.204-0.591,0.27-0.881c0.066-0.289,0.1-0.551,0.1-0.786c0-0.228-0.044-0.405-0.133-0.534
		C288.667,155.789,288.528,155.724,288.336,155.724z"/>
	<path fill="#3E0106" d="M295.354,159.618c-0.638,1.049-1.423,1.573-2.354,1.573c-0.506,0-0.895-0.156-1.166-0.468
		c-0.271-0.312-0.406-0.753-0.406-1.325c0-0.506,0.104-1.012,0.313-1.519c0.209-0.506,0.481-0.962,0.819-1.369
		c0.337-0.407,0.715-0.737,1.133-0.99s0.836-0.38,1.254-0.38c0.353,0,0.64,0.09,0.863,0.27s0.336,0.409,0.336,0.688
		c0,0.258-0.096,0.521-0.286,0.793s-0.449,0.527-0.775,0.77s-0.708,0.462-1.144,0.66c-0.437,0.197-0.9,0.352-1.392,0.462
		c-0.016,0.103-0.026,0.203-0.033,0.302c-0.008,0.1-0.011,0.201-0.011,0.303c0,0.8,0.282,1.199,0.847,1.199
		c0.271,0,0.552-0.105,0.842-0.318c0.289-0.213,0.559-0.506,0.808-0.881L295.354,159.618z M294.727,155.658
		c-0.19,0-0.389,0.073-0.594,0.22c-0.206,0.147-0.401,0.343-0.589,0.589c-0.187,0.246-0.357,0.525-0.512,0.842
		c-0.153,0.314-0.278,0.641-0.374,0.979c0.353-0.096,0.679-0.221,0.979-0.374s0.559-0.328,0.775-0.522
		c0.216-0.194,0.387-0.4,0.512-0.616c0.124-0.216,0.187-0.435,0.187-0.654C295.112,155.812,294.984,155.658,294.727,155.658z"/>
	<path fill="#3E0106" d="M304.132,157.154c0-0.146-0.013-0.281-0.039-0.402c-0.025-0.121-0.055-0.236-0.088-0.346
		c-0.033-0.11-0.063-0.217-0.088-0.319s-0.038-0.209-0.038-0.319c0-0.418,0.19-0.627,0.571-0.627c0.228,0,0.391,0.081,0.49,0.242
		c0.099,0.162,0.148,0.43,0.148,0.803c0,0.389-0.048,0.783-0.144,1.184c-0.095,0.399-0.228,0.784-0.396,1.154
		c-0.169,0.371-0.367,0.717-0.595,1.039c-0.227,0.323-0.469,0.605-0.726,0.848s-0.522,0.433-0.798,0.572
		c-0.274,0.139-0.548,0.209-0.819,0.209c-0.198,0-0.383-0.039-0.556-0.115c-0.172-0.078-0.32-0.186-0.445-0.325
		s-0.222-0.304-0.291-0.495c-0.07-0.19-0.104-0.396-0.104-0.615c0-0.418,0.113-0.91,0.341-1.475s0.55-1.147,0.968-1.749
		l-0.021-0.032c-0.198,0-0.363-0.029-0.495-0.089c-0.132-0.059-0.244-0.124-0.336-0.198c-0.092-0.072-0.172-0.139-0.242-0.197
		c-0.069-0.059-0.141-0.088-0.214-0.088c-0.125,0-0.188,0.063-0.188,0.187c0,0.065,0.021,0.125,0.061,0.177
		c0.04,0.051,0.084,0.102,0.132,0.153s0.092,0.108,0.133,0.171c0.04,0.063,0.06,0.137,0.06,0.225c0,0.133-0.051,0.24-0.153,0.324
		c-0.103,0.085-0.235,0.127-0.396,0.127c-0.19,0-0.337-0.059-0.439-0.176c-0.104-0.117-0.154-0.282-0.154-0.495
		c0-0.183,0.037-0.357,0.11-0.522s0.172-0.31,0.297-0.435c0.124-0.124,0.27-0.224,0.435-0.297s0.339-0.11,0.522-0.11
		c0.146,0,0.271,0.024,0.374,0.072c0.103,0.047,0.197,0.103,0.286,0.164c0.088,0.063,0.174,0.118,0.258,0.166
		c0.085,0.047,0.186,0.071,0.303,0.071c0.14,0,0.264-0.056,0.374-0.165c0.154-0.139,0.259-0.226,0.313-0.259
		c0.055-0.032,0.127-0.05,0.215-0.05c0.146,0,0.22,0.063,0.22,0.188c0,0.029-0.004,0.055-0.011,0.077
		c-0.008,0.022-0.024,0.055-0.05,0.099s-0.069,0.104-0.132,0.176c-0.063,0.074-0.148,0.176-0.259,0.309
		c-0.169,0.205-0.322,0.436-0.462,0.693c-0.14,0.256-0.261,0.523-0.363,0.803c-0.103,0.278-0.183,0.559-0.241,0.842
		c-0.06,0.281-0.089,0.548-0.089,0.797c0,0.396,0.068,0.713,0.204,0.951s0.31,0.357,0.522,0.357c0.205,0,0.425-0.109,0.66-0.33
		c0.234-0.22,0.454-0.492,0.66-0.818c0.205-0.326,0.375-0.681,0.511-1.063C304.064,157.84,304.132,157.484,304.132,157.154z"/>
	<path fill="#3E0106" d="M306.861,157.451c0.103-0.286,0.176-0.518,0.22-0.693s0.065-0.314,0.065-0.418
		c0-0.103-0.016-0.17-0.049-0.203s-0.068-0.05-0.104-0.05c-0.081,0-0.169,0.038-0.265,0.116c-0.095,0.076-0.19,0.166-0.285,0.27
		c-0.096,0.102-0.181,0.205-0.254,0.308s-0.124,0.183-0.153,0.241l-0.319-0.197c0.088-0.162,0.211-0.342,0.368-0.539
		c0.158-0.198,0.336-0.381,0.534-0.551c0.198-0.168,0.403-0.309,0.616-0.423c0.212-0.114,0.414-0.171,0.604-0.171
		c0.184,0,0.32,0.054,0.412,0.16c0.092,0.105,0.138,0.299,0.138,0.577c0,0.213-0.064,0.499-0.192,0.858s-0.295,0.821-0.5,1.386
		l-0.407,1.11c-0.015,0.037-0.035,0.094-0.061,0.171s-0.052,0.158-0.077,0.242c-0.025,0.085-0.048,0.167-0.066,0.247
		c-0.018,0.081-0.027,0.147-0.027,0.198c0,0.066,0.019,0.125,0.056,0.177c0.036,0.051,0.095,0.076,0.176,0.076
		c0.11,0,0.224-0.045,0.341-0.137s0.231-0.2,0.341-0.325c0.11-0.124,0.209-0.251,0.297-0.38c0.088-0.127,0.154-0.229,0.198-0.302
		l0.33,0.187c-0.088,0.176-0.207,0.371-0.357,0.584c-0.15,0.212-0.321,0.408-0.512,0.588s-0.399,0.33-0.627,0.451
		s-0.462,0.182-0.704,0.182c-0.213,0-0.372-0.055-0.479-0.166c-0.106-0.109-0.159-0.293-0.159-0.549
		c0-0.213,0.034-0.442,0.104-0.688c0.069-0.246,0.171-0.557,0.303-0.93L306.861,157.451z M308.477,153.337
		c-0.183,0-0.343-0.062-0.479-0.187s-0.203-0.286-0.203-0.484c0-0.197,0.066-0.367,0.198-0.506s0.293-0.209,0.483-0.209
		c0.206,0,0.374,0.07,0.507,0.209c0.132,0.139,0.197,0.305,0.197,0.495s-0.069,0.352-0.209,0.483
		C308.833,153.271,308.668,153.337,308.477,153.337z"/>
	<path fill="#3E0106" d="M311.259,161.191c-0.249,0-0.481-0.05-0.698-0.148c-0.216-0.1-0.405-0.244-0.566-0.436
		c-0.161-0.189-0.29-0.423-0.385-0.697c-0.096-0.275-0.144-0.586-0.144-0.93c0-0.477,0.09-0.946,0.27-1.408
		c0.18-0.463,0.416-0.873,0.71-1.232c0.293-0.359,0.629-0.648,1.006-0.869c0.378-0.22,0.769-0.33,1.172-0.33
		c0.264,0,0.508,0.05,0.731,0.148c0.224,0.1,0.414,0.242,0.572,0.43c0.157,0.188,0.282,0.41,0.374,0.671s0.138,0.548,0.138,0.863
		c0,0.462-0.092,0.928-0.275,1.397c-0.184,0.469-0.424,0.891-0.721,1.265s-0.636,0.681-1.018,0.919
		C312.044,161.072,311.656,161.191,311.259,161.191z M311.326,160.64c0.249,0,0.497-0.128,0.742-0.385
		c0.246-0.256,0.466-0.581,0.66-0.973c0.194-0.393,0.353-0.82,0.473-1.282c0.121-0.462,0.182-0.901,0.182-1.319
		c0-0.389-0.067-0.656-0.203-0.804c-0.136-0.146-0.321-0.22-0.556-0.22c-0.161,0-0.324,0.057-0.489,0.17
		c-0.165,0.114-0.321,0.27-0.468,0.468s-0.284,0.426-0.412,0.683c-0.129,0.256-0.24,0.527-0.336,0.813
		c-0.095,0.286-0.169,0.577-0.22,0.874c-0.052,0.297-0.077,0.582-0.077,0.854c0,0.41,0.066,0.699,0.198,0.869
		C310.952,160.556,311.121,160.64,311.326,160.64z"/>
	<path fill="#3E0106" d="M316.968,153.48c0.037-0.133,0.073-0.266,0.11-0.402c0.036-0.135,0.055-0.236,0.055-0.303
		c0-0.256-0.278-0.385-0.836-0.385l0.088-0.33l2.014-0.099l-1.97,7.228c-0.059,0.197-0.103,0.372-0.132,0.521
		c-0.029,0.15-0.044,0.277-0.044,0.38c0,0.066,0.019,0.125,0.055,0.177c0.037,0.051,0.096,0.076,0.177,0.076
		c0.117,0,0.242-0.049,0.374-0.148c0.132-0.099,0.258-0.216,0.379-0.352s0.229-0.275,0.325-0.418
		c0.095-0.143,0.165-0.255,0.209-0.336l0.33,0.188c-0.11,0.249-0.254,0.489-0.43,0.721c-0.176,0.23-0.363,0.434-0.561,0.609
		c-0.198,0.177-0.398,0.318-0.6,0.424c-0.202,0.106-0.387,0.16-0.556,0.16c-0.257,0-0.445-0.055-0.566-0.166
		c-0.121-0.109-0.182-0.293-0.182-0.549c0-0.146,0.022-0.346,0.066-0.595s0.121-0.59,0.23-1.022L316.968,153.48z"/>
	<path fill="#3E0106" d="M322.48,159.618c-0.638,1.049-1.423,1.573-2.354,1.573c-0.506,0-0.895-0.156-1.166-0.468
		c-0.271-0.312-0.406-0.753-0.406-1.325c0-0.506,0.104-1.012,0.313-1.519c0.209-0.506,0.481-0.962,0.819-1.369
		c0.337-0.407,0.715-0.737,1.133-0.99s0.836-0.38,1.254-0.38c0.353,0,0.64,0.09,0.863,0.27s0.336,0.409,0.336,0.688
		c0,0.258-0.096,0.521-0.286,0.793s-0.449,0.527-0.775,0.77s-0.708,0.462-1.144,0.66c-0.437,0.197-0.9,0.352-1.392,0.462
		c-0.016,0.103-0.026,0.203-0.033,0.302c-0.008,0.1-0.011,0.201-0.011,0.303c0,0.8,0.282,1.199,0.847,1.199
		c0.271,0,0.552-0.105,0.842-0.318c0.289-0.213,0.559-0.506,0.808-0.881L322.48,159.618z M321.853,155.658
		c-0.19,0-0.389,0.073-0.594,0.22c-0.206,0.147-0.401,0.343-0.589,0.589c-0.187,0.246-0.357,0.525-0.512,0.842
		c-0.153,0.314-0.278,0.641-0.374,0.979c0.353-0.096,0.679-0.221,0.979-0.374s0.559-0.328,0.775-0.522
		c0.216-0.194,0.387-0.4,0.512-0.616c0.124-0.216,0.187-0.435,0.187-0.654C322.238,155.812,322.11,155.658,321.853,155.658z"/>
	<path fill="#3E0106" d="M328.089,155.713c-0.176,0-0.376,0.09-0.6,0.27s-0.451,0.418-0.682,0.715
		c-0.231,0.297-0.453,0.637-0.666,1.018c-0.212,0.382-0.392,0.77-0.538,1.166l-0.814,2.2h-0.968l0.813-2.519
		c0.132-0.404,0.242-0.748,0.33-1.035c0.088-0.285,0.16-0.525,0.215-0.72s0.094-0.353,0.115-0.474
		c0.022-0.121,0.033-0.218,0.033-0.291c0-0.197-0.063-0.297-0.188-0.297c-0.08,0-0.176,0.051-0.285,0.154
		c-0.11,0.103-0.223,0.236-0.336,0.401s-0.222,0.354-0.324,0.566c-0.104,0.213-0.191,0.429-0.265,0.649l-0.33-0.166
		c0.257-0.755,0.545-1.313,0.864-1.672c0.318-0.359,0.684-0.539,1.094-0.539c0.235,0,0.402,0.066,0.501,0.198
		s0.148,0.356,0.148,0.671c0,0.375-0.063,0.708-0.187,1.002l0.032,0.032c0.374-0.659,0.754-1.142,1.139-1.446
		s0.805-0.457,1.26-0.457c0.322,0,0.568,0.078,0.737,0.231c0.168,0.153,0.253,0.374,0.253,0.66c0,0.095-0.01,0.202-0.027,0.319
		c-0.019,0.117-0.05,0.258-0.094,0.423s-0.104,0.361-0.182,0.589c-0.077,0.227-0.171,0.506-0.28,0.836
		c-0.169,0.498-0.309,0.916-0.418,1.254c-0.11,0.338-0.165,0.576-0.165,0.715c0,0.109,0.036,0.165,0.109,0.165
		c0.103,0,0.253-0.084,0.451-0.253c0.198-0.168,0.466-0.439,0.803-0.814l0.286,0.154c-0.117,0.221-0.27,0.435-0.456,0.644
		c-0.188,0.209-0.382,0.397-0.583,0.566c-0.202,0.169-0.401,0.305-0.6,0.407s-0.37,0.154-0.517,0.154
		c-0.184,0-0.329-0.081-0.435-0.242c-0.106-0.162-0.16-0.374-0.16-0.639c0-0.102,0.01-0.207,0.027-0.313
		c0.019-0.107,0.058-0.259,0.116-0.457c0.059-0.197,0.145-0.464,0.258-0.797c0.114-0.334,0.27-0.775,0.468-1.326
		c0.066-0.19,0.121-0.352,0.165-0.484c0.044-0.131,0.079-0.247,0.104-0.346c0.025-0.1,0.044-0.186,0.055-0.259
		c0.012-0.073,0.017-0.144,0.017-0.209C328.386,155.848,328.288,155.713,328.089,155.713z"/>
	<path fill="#3E0106" d="M334.415,159.31c-0.308,0.608-0.665,1.074-1.072,1.396s-0.841,0.484-1.304,0.484
		c-0.477,0-0.857-0.164-1.144-0.49s-0.429-0.76-0.429-1.303c0-0.322,0.047-0.652,0.143-0.99s0.224-0.664,0.385-0.979
		c0.161-0.316,0.353-0.613,0.572-0.892s0.455-0.521,0.704-0.726s0.508-0.369,0.775-0.49s0.53-0.182,0.786-0.182
		c0.353,0,0.642,0.096,0.869,0.287c0.228,0.189,0.342,0.428,0.342,0.715c0,0.184-0.054,0.332-0.16,0.445s-0.244,0.17-0.412,0.17
		c-0.169,0-0.307-0.053-0.413-0.159s-0.159-0.237-0.159-0.391c0-0.095,0.015-0.173,0.044-0.231s0.044-0.113,0.044-0.164
		c0-0.104-0.088-0.154-0.264-0.154c-0.242,0-0.488,0.113-0.737,0.341s-0.475,0.521-0.677,0.88c-0.201,0.359-0.366,0.762-0.494,1.205
		c-0.129,0.443-0.193,0.885-0.193,1.325c0,0.353,0.068,0.629,0.204,0.831c0.136,0.201,0.324,0.302,0.566,0.302
		c0.132,0,0.27-0.036,0.412-0.11c0.144-0.072,0.288-0.174,0.435-0.303c0.146-0.127,0.288-0.279,0.424-0.456
		c0.136-0.176,0.259-0.37,0.368-0.583L334.415,159.31z"/>
	<path fill="#3E0106" d="M339.244,159.618c-0.638,1.049-1.423,1.573-2.354,1.573c-0.506,0-0.895-0.156-1.166-0.468
		c-0.271-0.312-0.406-0.753-0.406-1.325c0-0.506,0.104-1.012,0.313-1.519c0.209-0.506,0.481-0.962,0.819-1.369
		c0.337-0.407,0.715-0.737,1.133-0.99s0.836-0.38,1.254-0.38c0.353,0,0.64,0.09,0.863,0.27s0.336,0.409,0.336,0.688
		c0,0.258-0.096,0.521-0.286,0.793s-0.449,0.527-0.775,0.77s-0.708,0.462-1.144,0.66c-0.437,0.197-0.9,0.352-1.392,0.462
		c-0.016,0.103-0.026,0.203-0.033,0.302c-0.008,0.1-0.011,0.201-0.011,0.303c0,0.8,0.282,1.199,0.847,1.199
		c0.271,0,0.552-0.105,0.842-0.318c0.289-0.213,0.559-0.506,0.808-0.881L339.244,159.618z M338.617,155.658
		c-0.19,0-0.389,0.073-0.594,0.22c-0.206,0.147-0.401,0.343-0.589,0.589c-0.187,0.246-0.357,0.525-0.512,0.842
		c-0.153,0.314-0.278,0.641-0.374,0.979c0.353-0.096,0.679-0.221,0.979-0.374s0.559-0.328,0.775-0.522
		c0.216-0.194,0.387-0.4,0.512-0.616c0.124-0.216,0.187-0.435,0.187-0.654C339.001,155.812,338.874,155.658,338.617,155.658z"/>
	<path fill="#3E0106" d="M341.025,156.824c0-0.242,0.046-0.466,0.138-0.672c0.092-0.205,0.218-0.383,0.38-0.533
		c0.161-0.15,0.354-0.268,0.577-0.352s0.468-0.127,0.731-0.127c0.353,0,0.646,0.088,0.88,0.265c0.235,0.176,0.353,0.403,0.353,0.682
		c0,0.154-0.043,0.274-0.127,0.363c-0.084,0.088-0.2,0.132-0.347,0.132c-0.168,0-0.289-0.049-0.362-0.148s-0.136-0.209-0.188-0.33
		c-0.051-0.121-0.106-0.232-0.165-0.336c-0.059-0.102-0.157-0.153-0.297-0.153c-0.161,0-0.297,0.069-0.407,0.209
		c-0.109,0.14-0.165,0.312-0.165,0.517c0,0.242,0.072,0.468,0.215,0.677s0.303,0.427,0.479,0.654s0.336,0.478,0.479,0.748
		c0.143,0.271,0.215,0.591,0.215,0.957c0,0.249-0.054,0.483-0.16,0.704s-0.249,0.412-0.429,0.578
		c-0.18,0.164-0.387,0.295-0.621,0.39c-0.235,0.095-0.478,0.144-0.727,0.144c-0.439,0-0.79-0.096-1.051-0.286
		c-0.26-0.19-0.39-0.44-0.39-0.748c0-0.213,0.049-0.38,0.148-0.501c0.099-0.121,0.232-0.182,0.401-0.182
		c0.315,0,0.495,0.217,0.539,0.649c0.021,0.235,0.061,0.391,0.115,0.468c0.055,0.076,0.167,0.115,0.336,0.115
		c0.264,0,0.473-0.078,0.627-0.236c0.153-0.158,0.23-0.376,0.23-0.654c0-0.293-0.073-0.555-0.22-0.781
		c-0.146-0.228-0.309-0.449-0.484-0.666c-0.176-0.216-0.337-0.445-0.483-0.688C341.098,157.439,341.025,157.154,341.025,156.824z"/>
	<path fill="#3E0106" d="M258.108,170.197l0.033,0.021c0.212-0.337,0.479-0.6,0.797-0.786c0.319-0.187,0.658-0.28,1.018-0.28
		c0.447,0,0.792,0.139,1.034,0.418c0.242,0.278,0.363,0.66,0.363,1.144c0,0.345-0.052,0.696-0.154,1.056s-0.244,0.705-0.424,1.035
		s-0.39,0.639-0.632,0.929s-0.501,0.543-0.775,0.759c-0.275,0.217-0.565,0.387-0.869,0.512c-0.305,0.125-0.604,0.188-0.896,0.188
		c-0.418,0-0.761-0.127-1.028-0.38c-0.269-0.253-0.402-0.581-0.402-0.984c0-0.19,0.041-0.46,0.121-0.809
		c0.081-0.349,0.198-0.765,0.353-1.249l1.331-4.289c0.036-0.133,0.073-0.266,0.109-0.402c0.037-0.135,0.056-0.236,0.056-0.303
		c0-0.256-0.283-0.385-0.848-0.385l0.1-0.33l2.111-0.099L258.108,170.197z M257.778,174.63c0.169,0,0.349-0.061,0.539-0.181
		c0.19-0.121,0.378-0.285,0.561-0.49c0.184-0.205,0.359-0.443,0.528-0.715s0.315-0.556,0.44-0.853
		c0.124-0.297,0.225-0.598,0.302-0.901c0.077-0.305,0.116-0.593,0.116-0.864c0-0.257-0.06-0.47-0.177-0.638
		c-0.117-0.169-0.26-0.254-0.429-0.254c-0.161,0-0.335,0.061-0.522,0.182c-0.187,0.121-0.37,0.287-0.55,0.496
		s-0.353,0.447-0.518,0.715s-0.312,0.55-0.439,0.847c-0.129,0.297-0.229,0.596-0.303,0.896s-0.11,0.587-0.11,0.858
		C257.216,174.33,257.404,174.63,257.778,174.63z"/>
	<path fill="#3E0106" d="M266.523,169.251h0.913l-0.627,1.683c-0.104,0.279-0.204,0.576-0.303,0.892s-0.188,0.62-0.264,0.913
		c-0.077,0.293-0.138,0.561-0.182,0.803s-0.066,0.422-0.066,0.539c0,0.213,0.069,0.318,0.209,0.318c0.103,0,0.251-0.105,0.445-0.318
		s0.413-0.488,0.655-0.825l0.285,0.231c-0.308,0.543-0.64,0.963-0.995,1.26s-0.698,0.445-1.028,0.445
		c-0.169,0-0.299-0.064-0.391-0.193c-0.092-0.128-0.138-0.338-0.138-0.632c0-0.065,0.002-0.144,0.006-0.231s0.013-0.205,0.027-0.352
		l-0.044-0.012c-0.11,0.206-0.24,0.395-0.391,0.566c-0.15,0.173-0.313,0.323-0.489,0.451c-0.176,0.129-0.359,0.229-0.55,0.297
		c-0.191,0.07-0.378,0.105-0.562,0.105c-0.374,0-0.665-0.142-0.874-0.424s-0.313-0.673-0.313-1.172c0-0.506,0.105-1.022,0.318-1.551
		c0.213-0.527,0.488-1.006,0.825-1.436c0.337-0.429,0.711-0.781,1.122-1.056c0.41-0.275,0.814-0.413,1.21-0.413
		c0.242,0,0.44,0.057,0.594,0.171c0.154,0.114,0.279,0.299,0.374,0.556L266.523,169.251z M265.39,169.713
		c-0.279,0-0.566,0.129-0.864,0.385c-0.297,0.258-0.566,0.578-0.808,0.963c-0.242,0.385-0.44,0.799-0.595,1.243
		c-0.153,0.444-0.23,0.856-0.23,1.237c0,0.264,0.055,0.475,0.165,0.633c0.109,0.158,0.26,0.236,0.451,0.236
		c0.168,0,0.344-0.068,0.527-0.203c0.184-0.137,0.361-0.316,0.533-0.539c0.173-0.225,0.336-0.479,0.49-0.766
		c0.153-0.285,0.289-0.58,0.406-0.885c0.118-0.305,0.21-0.604,0.275-0.896c0.066-0.293,0.099-0.557,0.099-0.792
		c0-0.19-0.04-0.341-0.12-0.451C265.639,169.767,265.529,169.713,265.39,169.713z"/>
	<path fill="#3E0106" d="M268.854,170.824c0-0.242,0.046-0.466,0.138-0.672c0.092-0.205,0.218-0.383,0.38-0.533
		c0.161-0.15,0.354-0.268,0.577-0.352s0.468-0.127,0.731-0.127c0.353,0,0.646,0.088,0.88,0.265c0.235,0.176,0.353,0.403,0.353,0.682
		c0,0.154-0.043,0.274-0.127,0.363c-0.084,0.088-0.2,0.132-0.347,0.132c-0.168,0-0.289-0.049-0.362-0.148s-0.136-0.209-0.188-0.33
		c-0.051-0.121-0.106-0.232-0.165-0.336c-0.059-0.102-0.157-0.153-0.297-0.153c-0.161,0-0.297,0.069-0.407,0.209
		c-0.109,0.14-0.165,0.312-0.165,0.517c0,0.242,0.072,0.468,0.215,0.677s0.303,0.427,0.479,0.654s0.336,0.478,0.479,0.748
		c0.143,0.271,0.215,0.591,0.215,0.957c0,0.249-0.054,0.483-0.16,0.704s-0.249,0.412-0.429,0.578
		c-0.18,0.164-0.387,0.295-0.621,0.39c-0.235,0.095-0.478,0.144-0.727,0.144c-0.439,0-0.79-0.096-1.051-0.286
		c-0.26-0.19-0.39-0.44-0.39-0.748c0-0.213,0.049-0.38,0.148-0.501c0.099-0.121,0.232-0.182,0.401-0.182
		c0.315,0,0.495,0.217,0.539,0.649c0.021,0.235,0.061,0.391,0.115,0.468c0.055,0.076,0.167,0.115,0.336,0.115
		c0.264,0,0.473-0.078,0.627-0.236c0.153-0.158,0.23-0.376,0.23-0.654c0-0.293-0.073-0.555-0.22-0.781
		c-0.146-0.228-0.309-0.449-0.484-0.666c-0.176-0.216-0.337-0.445-0.483-0.688C268.927,171.439,268.854,171.154,268.854,170.824z"/>
	<path fill="#3E0106" d="M276.28,173.618c-0.638,1.049-1.423,1.573-2.354,1.573c-0.506,0-0.895-0.156-1.166-0.468
		c-0.271-0.312-0.406-0.753-0.406-1.325c0-0.506,0.104-1.012,0.313-1.519c0.209-0.506,0.481-0.962,0.819-1.369
		c0.337-0.407,0.715-0.737,1.133-0.99s0.836-0.38,1.254-0.38c0.353,0,0.64,0.09,0.863,0.27s0.336,0.409,0.336,0.688
		c0,0.258-0.096,0.521-0.286,0.793s-0.449,0.527-0.775,0.77s-0.708,0.462-1.144,0.66c-0.437,0.197-0.9,0.352-1.392,0.462
		c-0.016,0.103-0.026,0.203-0.033,0.302c-0.008,0.1-0.011,0.201-0.011,0.303c0,0.8,0.282,1.199,0.847,1.199
		c0.271,0,0.552-0.105,0.842-0.318c0.289-0.213,0.559-0.506,0.808-0.881L276.28,173.618z M275.653,169.658
		c-0.19,0-0.389,0.073-0.594,0.22c-0.206,0.147-0.401,0.343-0.589,0.589c-0.187,0.246-0.357,0.525-0.512,0.842
		c-0.153,0.314-0.278,0.641-0.374,0.979c0.353-0.096,0.679-0.221,0.979-0.374s0.559-0.328,0.775-0.522
		c0.216-0.194,0.387-0.4,0.512-0.616c0.124-0.216,0.187-0.435,0.187-0.654C276.038,169.812,275.91,169.658,275.653,169.658z
		 M275.168,167.92l1.431-1.309c0.264-0.242,0.509-0.363,0.736-0.363c0.125,0,0.226,0.033,0.303,0.1
		c0.077,0.065,0.115,0.16,0.115,0.285c0,0.117-0.049,0.223-0.148,0.314c-0.099,0.092-0.236,0.178-0.412,0.258l-1.507,0.715H275.168z
		"/>
	<path fill="#3E0106" d="M281.295,173.618c-0.638,1.049-1.423,1.573-2.354,1.573c-0.506,0-0.895-0.156-1.166-0.468
		c-0.271-0.312-0.406-0.753-0.406-1.325c0-0.506,0.104-1.012,0.313-1.519c0.209-0.506,0.481-0.962,0.819-1.369
		c0.337-0.407,0.715-0.737,1.133-0.99s0.836-0.38,1.254-0.38c0.353,0,0.64,0.09,0.863,0.27s0.336,0.409,0.336,0.688
		c0,0.258-0.096,0.521-0.286,0.793s-0.449,0.527-0.775,0.77s-0.708,0.462-1.144,0.66c-0.437,0.197-0.9,0.352-1.392,0.462
		c-0.016,0.103-0.026,0.203-0.033,0.302c-0.008,0.1-0.011,0.201-0.011,0.303c0,0.8,0.282,1.199,0.847,1.199
		c0.271,0,0.552-0.105,0.842-0.318c0.289-0.213,0.559-0.506,0.808-0.881L281.295,173.618z M280.668,169.658
		c-0.19,0-0.389,0.073-0.594,0.22c-0.206,0.147-0.401,0.343-0.589,0.589c-0.187,0.246-0.357,0.525-0.512,0.842
		c-0.153,0.314-0.278,0.641-0.374,0.979c0.353-0.096,0.679-0.221,0.979-0.374s0.559-0.328,0.775-0.522
		c0.216-0.194,0.387-0.4,0.512-0.616c0.124-0.216,0.187-0.435,0.187-0.654C281.053,169.812,280.925,169.658,280.668,169.658z"/>
	<path fill="#3E0106" d="M283.077,170.824c0-0.242,0.046-0.466,0.138-0.672c0.092-0.205,0.218-0.383,0.38-0.533
		c0.161-0.15,0.354-0.268,0.577-0.352s0.468-0.127,0.731-0.127c0.353,0,0.646,0.088,0.88,0.265c0.235,0.176,0.353,0.403,0.353,0.682
		c0,0.154-0.043,0.274-0.127,0.363c-0.084,0.088-0.2,0.132-0.347,0.132c-0.168,0-0.289-0.049-0.362-0.148s-0.136-0.209-0.188-0.33
		c-0.051-0.121-0.106-0.232-0.165-0.336c-0.059-0.102-0.157-0.153-0.297-0.153c-0.161,0-0.297,0.069-0.407,0.209
		c-0.109,0.14-0.165,0.312-0.165,0.517c0,0.242,0.072,0.468,0.215,0.677s0.303,0.427,0.479,0.654s0.336,0.478,0.479,0.748
		c0.143,0.271,0.215,0.591,0.215,0.957c0,0.249-0.054,0.483-0.16,0.704s-0.249,0.412-0.429,0.578
		c-0.18,0.164-0.387,0.295-0.621,0.39c-0.235,0.095-0.478,0.144-0.727,0.144c-0.439,0-0.79-0.096-1.051-0.286
		c-0.26-0.19-0.39-0.44-0.39-0.748c0-0.213,0.049-0.38,0.148-0.501c0.099-0.121,0.232-0.182,0.401-0.182
		c0.315,0,0.495,0.217,0.539,0.649c0.021,0.235,0.061,0.391,0.115,0.468c0.055,0.076,0.167,0.115,0.336,0.115
		c0.264,0,0.473-0.078,0.627-0.236c0.153-0.158,0.23-0.376,0.23-0.654c0-0.293-0.073-0.555-0.22-0.781
		c-0.146-0.228-0.309-0.449-0.484-0.666c-0.176-0.216-0.337-0.445-0.483-0.688C283.15,171.439,283.077,171.154,283.077,170.824z"/>
	<path fill="#3E0106" d="M290.293,170.824c0-0.242,0.046-0.466,0.138-0.672c0.092-0.205,0.218-0.383,0.38-0.533
		c0.161-0.15,0.354-0.268,0.577-0.352s0.468-0.127,0.731-0.127c0.353,0,0.646,0.088,0.88,0.265c0.235,0.176,0.353,0.403,0.353,0.682
		c0,0.154-0.043,0.274-0.127,0.363c-0.084,0.088-0.2,0.132-0.347,0.132c-0.168,0-0.289-0.049-0.362-0.148s-0.136-0.209-0.188-0.33
		c-0.051-0.121-0.106-0.232-0.165-0.336c-0.059-0.102-0.157-0.153-0.297-0.153c-0.161,0-0.297,0.069-0.407,0.209
		c-0.109,0.14-0.165,0.312-0.165,0.517c0,0.242,0.072,0.468,0.215,0.677s0.303,0.427,0.479,0.654s0.336,0.478,0.479,0.748
		c0.143,0.271,0.215,0.591,0.215,0.957c0,0.249-0.054,0.483-0.16,0.704s-0.249,0.412-0.429,0.578
		c-0.18,0.164-0.387,0.295-0.621,0.39c-0.235,0.095-0.478,0.144-0.727,0.144c-0.439,0-0.79-0.096-1.051-0.286
		c-0.26-0.19-0.39-0.44-0.39-0.748c0-0.213,0.049-0.38,0.148-0.501c0.099-0.121,0.232-0.182,0.401-0.182
		c0.315,0,0.495,0.217,0.539,0.649c0.021,0.235,0.061,0.391,0.115,0.468c0.055,0.076,0.167,0.115,0.336,0.115
		c0.264,0,0.473-0.078,0.627-0.236c0.153-0.158,0.23-0.376,0.23-0.654c0-0.293-0.073-0.555-0.22-0.781
		c-0.146-0.228-0.309-0.449-0.484-0.666c-0.176-0.216-0.337-0.445-0.483-0.688C290.367,171.439,290.293,171.154,290.293,170.824z"/>
	<path fill="#3E0106" d="M295.497,174.398c0.117,0,0.271-0.082,0.462-0.247c0.19-0.165,0.392-0.385,0.604-0.659
		c0.213-0.275,0.42-0.59,0.622-0.941c0.201-0.352,0.372-0.719,0.511-1.1l0.814-2.2h1.023l-0.814,2.519
		c-0.117,0.367-0.217,0.681-0.297,0.941c-0.081,0.26-0.146,0.48-0.198,0.66s-0.088,0.326-0.11,0.439
		c-0.021,0.113-0.032,0.203-0.032,0.27c0,0.191,0.065,0.286,0.197,0.286c0.073,0,0.161-0.034,0.265-0.104
		c0.103-0.07,0.207-0.165,0.313-0.286s0.209-0.257,0.308-0.407c0.1-0.15,0.186-0.31,0.259-0.479l0.33,0.165
		c-0.096,0.242-0.22,0.479-0.374,0.71c-0.154,0.23-0.321,0.438-0.501,0.621s-0.368,0.33-0.566,0.439
		c-0.198,0.111-0.393,0.166-0.583,0.166c-0.228,0-0.381-0.081-0.462-0.242c-0.081-0.162-0.121-0.393-0.121-0.693
		c0-0.125,0.006-0.258,0.017-0.401s0.031-0.284,0.061-0.423l-0.033-0.033c-0.197,0.352-0.391,0.642-0.577,0.869
		c-0.188,0.227-0.368,0.41-0.545,0.549c-0.176,0.141-0.348,0.237-0.517,0.292c-0.169,0.056-0.334,0.083-0.495,0.083
		c-0.345,0-0.585-0.096-0.721-0.286s-0.203-0.425-0.203-0.704c0-0.309,0.059-0.647,0.176-1.018s0.242-0.721,0.374-1.051
		s0.244-0.608,0.336-0.836c0.091-0.227,0.165-0.418,0.22-0.572c0.055-0.153,0.095-0.278,0.121-0.373
		c0.025-0.096,0.038-0.173,0.038-0.231c0-0.029-0.005-0.057-0.017-0.083c-0.011-0.025-0.038-0.038-0.082-0.038
		c-0.096,0-0.233,0.085-0.413,0.253c-0.18,0.169-0.423,0.439-0.731,0.814l-0.285-0.154c0.109-0.213,0.249-0.426,0.418-0.639
		c0.168-0.212,0.348-0.402,0.539-0.571c0.19-0.169,0.388-0.304,0.594-0.407c0.205-0.103,0.396-0.154,0.571-0.154
		c0.367,0,0.551,0.213,0.551,0.639c0,0.256-0.072,0.588-0.215,0.995s-0.328,0.894-0.556,1.458c-0.146,0.359-0.268,0.682-0.362,0.968
		c-0.096,0.286-0.144,0.546-0.144,0.78c0,0.154,0.022,0.263,0.066,0.325S295.43,174.398,295.497,174.398z"/>
	<path fill="#3E0106" d="M300.392,170.78c0.08-0.184,0.203-0.372,0.368-0.567c0.165-0.193,0.345-0.369,0.539-0.527
		s0.391-0.287,0.588-0.391c0.198-0.103,0.371-0.154,0.518-0.154c0.176,0,0.304,0.066,0.385,0.198s0.121,0.345,0.121,0.638
		c0,0.117-0.006,0.231-0.017,0.342c-0.011,0.109-0.031,0.238-0.061,0.385l0.033,0.033c0.088-0.213,0.213-0.422,0.374-0.627
		s0.335-0.387,0.522-0.545c0.187-0.158,0.378-0.286,0.572-0.385c0.194-0.1,0.375-0.148,0.544-0.148c0.213,0,0.391,0.068,0.534,0.203
		c0.143,0.136,0.214,0.303,0.214,0.5c0,0.191-0.061,0.35-0.182,0.474c-0.121,0.125-0.276,0.187-0.467,0.187
		c-0.118,0-0.211-0.021-0.281-0.065c-0.069-0.044-0.13-0.09-0.181-0.138c-0.052-0.047-0.1-0.094-0.144-0.137
		c-0.044-0.045-0.099-0.066-0.165-0.066c-0.14,0-0.301,0.094-0.483,0.28c-0.184,0.187-0.374,0.442-0.572,0.765
		s-0.395,0.7-0.589,1.133s-0.372,0.898-0.533,1.396l-0.495,1.519h-1.023l0.716-2.276c0.139-0.44,0.254-0.805,0.346-1.096
		c0.092-0.289,0.163-0.531,0.215-0.726s0.086-0.347,0.104-0.456c0.019-0.11,0.027-0.205,0.027-0.286
		c0-0.161-0.055-0.242-0.165-0.242c-0.073,0-0.163,0.029-0.27,0.088c-0.106,0.06-0.211,0.132-0.313,0.22s-0.199,0.188-0.291,0.297
		c-0.092,0.11-0.16,0.217-0.204,0.319L300.392,170.78z"/>
	<path fill="#3E0106" d="M310.016,167.48c0.037-0.133,0.073-0.266,0.11-0.402c0.036-0.135,0.055-0.236,0.055-0.303
		c0-0.256-0.278-0.385-0.836-0.385l0.088-0.33l2.014-0.099l-1.97,7.228c-0.059,0.197-0.103,0.372-0.132,0.521
		c-0.029,0.15-0.044,0.277-0.044,0.38c0,0.066,0.019,0.125,0.055,0.177c0.037,0.051,0.096,0.076,0.177,0.076
		c0.117,0,0.242-0.049,0.374-0.148c0.132-0.099,0.258-0.216,0.379-0.352s0.229-0.275,0.325-0.418
		c0.095-0.143,0.165-0.255,0.209-0.336l0.33,0.188c-0.11,0.249-0.254,0.489-0.43,0.721c-0.176,0.23-0.363,0.434-0.561,0.609
		c-0.198,0.177-0.398,0.318-0.6,0.424c-0.202,0.106-0.387,0.16-0.556,0.16c-0.257,0-0.445-0.055-0.566-0.166
		c-0.121-0.109-0.182-0.293-0.182-0.549c0-0.146,0.022-0.346,0.066-0.595s0.121-0.59,0.23-1.022L310.016,167.48z"/>
	<path fill="#3E0106" d="M315.527,173.618c-0.638,1.049-1.423,1.573-2.354,1.573c-0.506,0-0.895-0.156-1.166-0.468
		c-0.271-0.312-0.406-0.753-0.406-1.325c0-0.506,0.104-1.012,0.313-1.519c0.209-0.506,0.481-0.962,0.819-1.369
		c0.337-0.407,0.715-0.737,1.133-0.99s0.836-0.38,1.254-0.38c0.353,0,0.64,0.09,0.863,0.27s0.336,0.409,0.336,0.688
		c0,0.258-0.096,0.521-0.286,0.793s-0.449,0.527-0.775,0.77s-0.708,0.462-1.144,0.66c-0.437,0.197-0.9,0.352-1.392,0.462
		c-0.016,0.103-0.026,0.203-0.033,0.302c-0.008,0.1-0.011,0.201-0.011,0.303c0,0.8,0.282,1.199,0.847,1.199
		c0.271,0,0.552-0.105,0.842-0.318c0.289-0.213,0.559-0.506,0.808-0.881L315.527,173.618z M314.9,169.658
		c-0.19,0-0.389,0.073-0.594,0.22c-0.206,0.147-0.401,0.343-0.589,0.589c-0.187,0.246-0.357,0.525-0.512,0.842
		c-0.153,0.314-0.278,0.641-0.374,0.979c0.353-0.096,0.679-0.221,0.979-0.374s0.559-0.328,0.775-0.522
		c0.216-0.194,0.387-0.4,0.512-0.616c0.124-0.216,0.187-0.435,0.187-0.654C315.285,169.812,315.157,169.658,314.9,169.658z"/>
	<path fill="#3E0106" d="M324.272,175.885c0,0.314-0.068,0.599-0.204,0.852c-0.136,0.254-0.329,0.469-0.583,0.649
		c-0.253,0.179-0.559,0.317-0.918,0.412s-0.763,0.144-1.21,0.144c-0.403,0-0.771-0.037-1.101-0.11
		c-0.329-0.073-0.614-0.18-0.852-0.319c-0.238-0.139-0.422-0.303-0.551-0.489c-0.128-0.187-0.192-0.397-0.192-0.632
		c0-0.301,0.098-0.551,0.292-0.748c0.194-0.199,0.441-0.297,0.742-0.297c0.088,0,0.172,0.01,0.253,0.032s0.184,0.063,0.308,0.121
		c-0.41,0.169-0.615,0.487-0.615,0.957c0,0.308,0.155,0.55,0.467,0.726c0.313,0.176,0.739,0.265,1.282,0.265
		c0.293,0,0.564-0.033,0.813-0.099c0.249-0.066,0.464-0.15,0.644-0.254c0.18-0.103,0.319-0.218,0.418-0.346
		c0.1-0.129,0.148-0.256,0.148-0.38c0-0.206-0.123-0.391-0.368-0.556c-0.246-0.165-0.593-0.287-1.04-0.369
		c-0.799-0.139-1.386-0.301-1.76-0.483s-0.561-0.44-0.561-0.771c0-0.212,0.093-0.392,0.28-0.539
		c0.187-0.146,0.522-0.293,1.007-0.439l0.021-0.044c-0.558-0.396-0.836-0.905-0.836-1.528c0-0.338,0.069-0.658,0.209-0.963
		s0.328-0.572,0.566-0.803c0.238-0.231,0.518-0.413,0.836-0.545c0.319-0.132,0.654-0.198,1.007-0.198
		c0.543,0,0.997,0.198,1.364,0.595c0.345-0.389,0.678-0.584,1.001-0.584c0.234,0,0.439,0.072,0.615,0.215
		c0.177,0.143,0.265,0.311,0.265,0.5c0,0.147-0.05,0.27-0.148,0.369c-0.1,0.1-0.222,0.148-0.369,0.148
		c-0.109,0-0.196-0.023-0.258-0.071c-0.063-0.048-0.116-0.101-0.16-0.159s-0.093-0.112-0.148-0.16
		c-0.055-0.047-0.13-0.071-0.226-0.071c-0.051,0-0.099,0.009-0.143,0.027s-0.125,0.067-0.242,0.148
		c0.037,0.103,0.063,0.2,0.077,0.292s0.022,0.207,0.022,0.346c0,0.807-0.225,1.451-0.672,1.932
		c-0.447,0.479-1.063,0.749-1.848,0.808c-0.352,0.03-0.604,0.073-0.754,0.132s-0.225,0.146-0.225,0.264
		c0,0.154,0.082,0.27,0.247,0.348c0.165,0.076,0.372,0.141,0.621,0.191c0.25,0.053,0.518,0.104,0.804,0.154
		c0.286,0.052,0.554,0.127,0.803,0.226s0.456,0.235,0.621,0.407S324.272,175.591,324.272,175.885z M321.961,172.98
		c0.177,0,0.349-0.07,0.518-0.209c0.168-0.14,0.32-0.324,0.456-0.557c0.136-0.23,0.244-0.492,0.325-0.785
		c0.08-0.294,0.12-0.595,0.12-0.902c0-0.293-0.065-0.526-0.197-0.699c-0.132-0.172-0.305-0.258-0.518-0.258
		c-0.169,0-0.341,0.075-0.517,0.225c-0.176,0.15-0.336,0.344-0.479,0.578c-0.144,0.234-0.259,0.5-0.347,0.797
		c-0.088,0.298-0.132,0.59-0.132,0.875c0,0.279,0.069,0.504,0.209,0.677C321.54,172.894,321.727,172.98,321.961,172.98z"/>
	<path fill="#3E0106" d="M329.618,173.618c-0.638,1.049-1.423,1.573-2.354,1.573c-0.506,0-0.895-0.156-1.166-0.468
		c-0.271-0.312-0.406-0.753-0.406-1.325c0-0.506,0.104-1.012,0.313-1.519c0.209-0.506,0.481-0.962,0.819-1.369
		c0.337-0.407,0.715-0.737,1.133-0.99s0.836-0.38,1.254-0.38c0.353,0,0.64,0.09,0.863,0.27s0.336,0.409,0.336,0.688
		c0,0.258-0.096,0.521-0.286,0.793s-0.449,0.527-0.775,0.77s-0.708,0.462-1.144,0.66c-0.437,0.197-0.9,0.352-1.392,0.462
		c-0.016,0.103-0.026,0.203-0.033,0.302c-0.008,0.1-0.011,0.201-0.011,0.303c0,0.8,0.282,1.199,0.847,1.199
		c0.271,0,0.552-0.105,0.842-0.318c0.289-0.213,0.559-0.506,0.808-0.881L329.618,173.618z M328.991,169.658
		c-0.19,0-0.389,0.073-0.594,0.22c-0.206,0.147-0.401,0.343-0.589,0.589c-0.187,0.246-0.357,0.525-0.512,0.842
		c-0.153,0.314-0.278,0.641-0.374,0.979c0.353-0.096,0.679-0.221,0.979-0.374s0.559-0.328,0.775-0.522
		c0.216-0.194,0.387-0.4,0.512-0.616c0.124-0.216,0.187-0.435,0.187-0.654C329.375,169.812,329.248,169.658,328.991,169.658z"/>
	<path fill="#3E0106" d="M335.227,169.713c-0.176,0-0.376,0.09-0.6,0.27s-0.451,0.418-0.682,0.715
		c-0.231,0.297-0.453,0.637-0.666,1.018c-0.212,0.382-0.392,0.77-0.538,1.166l-0.814,2.2h-0.968l0.813-2.519
		c0.132-0.404,0.242-0.748,0.33-1.035c0.088-0.285,0.16-0.525,0.215-0.72s0.094-0.353,0.115-0.474
		c0.022-0.121,0.033-0.218,0.033-0.291c0-0.197-0.063-0.297-0.188-0.297c-0.08,0-0.176,0.051-0.285,0.154
		c-0.11,0.103-0.223,0.236-0.336,0.401s-0.222,0.354-0.324,0.566c-0.104,0.213-0.191,0.429-0.265,0.649l-0.33-0.166
		c0.257-0.755,0.545-1.313,0.864-1.672c0.318-0.359,0.684-0.539,1.094-0.539c0.235,0,0.402,0.066,0.501,0.198
		s0.148,0.356,0.148,0.671c0,0.375-0.063,0.708-0.187,1.002l0.032,0.032c0.374-0.659,0.754-1.142,1.139-1.446
		s0.805-0.457,1.26-0.457c0.322,0,0.568,0.078,0.737,0.231c0.168,0.153,0.253,0.374,0.253,0.66c0,0.095-0.01,0.202-0.027,0.319
		c-0.019,0.117-0.05,0.258-0.094,0.423s-0.104,0.361-0.182,0.589c-0.077,0.227-0.171,0.506-0.28,0.836
		c-0.169,0.498-0.309,0.916-0.418,1.254c-0.11,0.338-0.165,0.576-0.165,0.715c0,0.109,0.036,0.165,0.109,0.165
		c0.103,0,0.253-0.084,0.451-0.253c0.198-0.168,0.466-0.439,0.803-0.814l0.286,0.154c-0.117,0.221-0.27,0.435-0.456,0.644
		c-0.188,0.209-0.382,0.397-0.583,0.566c-0.202,0.169-0.401,0.305-0.6,0.407s-0.37,0.154-0.517,0.154
		c-0.184,0-0.329-0.081-0.435-0.242c-0.106-0.162-0.16-0.374-0.16-0.639c0-0.102,0.01-0.207,0.027-0.313
		c0.019-0.107,0.058-0.259,0.116-0.457c0.059-0.197,0.145-0.464,0.258-0.797c0.114-0.334,0.27-0.775,0.468-1.326
		c0.066-0.19,0.121-0.352,0.165-0.484c0.044-0.131,0.079-0.247,0.104-0.346c0.025-0.1,0.044-0.186,0.055-0.259
		c0.012-0.073,0.017-0.144,0.017-0.209C335.524,169.848,335.425,169.713,335.227,169.713z"/>
	<path fill="#3E0106" d="M337.681,170.78c0.08-0.184,0.203-0.372,0.368-0.567c0.165-0.193,0.345-0.369,0.539-0.527
		s0.391-0.287,0.588-0.391c0.198-0.103,0.371-0.154,0.518-0.154c0.176,0,0.304,0.066,0.385,0.198s0.121,0.345,0.121,0.638
		c0,0.117-0.006,0.231-0.017,0.342c-0.011,0.109-0.031,0.238-0.061,0.385l0.033,0.033c0.088-0.213,0.213-0.422,0.374-0.627
		s0.335-0.387,0.522-0.545c0.187-0.158,0.378-0.286,0.572-0.385c0.194-0.1,0.375-0.148,0.544-0.148c0.213,0,0.391,0.068,0.534,0.203
		c0.143,0.136,0.214,0.303,0.214,0.5c0,0.191-0.061,0.35-0.182,0.474c-0.121,0.125-0.276,0.187-0.467,0.187
		c-0.118,0-0.211-0.021-0.281-0.065c-0.069-0.044-0.13-0.09-0.181-0.138c-0.052-0.047-0.1-0.094-0.144-0.137
		c-0.044-0.045-0.099-0.066-0.165-0.066c-0.14,0-0.301,0.094-0.483,0.28c-0.184,0.187-0.374,0.442-0.572,0.765
		s-0.395,0.7-0.589,1.133s-0.372,0.898-0.533,1.396l-0.495,1.519h-1.023l0.716-2.276c0.139-0.44,0.254-0.805,0.346-1.096
		c0.092-0.289,0.163-0.531,0.215-0.726s0.086-0.347,0.104-0.456c0.019-0.11,0.027-0.205,0.027-0.286
		c0-0.161-0.055-0.242-0.165-0.242c-0.073,0-0.163,0.029-0.27,0.088c-0.106,0.06-0.211,0.132-0.313,0.22s-0.199,0.188-0.291,0.297
		c-0.092,0.11-0.16,0.217-0.204,0.319L337.681,170.78z"/>
	<path fill="#3E0106" d="M346.458,173.618c-0.638,1.049-1.423,1.573-2.354,1.573c-0.506,0-0.895-0.156-1.166-0.468
		c-0.271-0.312-0.406-0.753-0.406-1.325c0-0.506,0.104-1.012,0.313-1.519c0.209-0.506,0.481-0.962,0.819-1.369
		c0.337-0.407,0.715-0.737,1.133-0.99s0.836-0.38,1.254-0.38c0.353,0,0.64,0.09,0.863,0.27s0.336,0.409,0.336,0.688
		c0,0.258-0.096,0.521-0.286,0.793s-0.449,0.527-0.775,0.77s-0.708,0.462-1.144,0.66c-0.437,0.197-0.9,0.352-1.392,0.462
		c-0.016,0.103-0.026,0.203-0.033,0.302c-0.008,0.1-0.011,0.201-0.011,0.303c0,0.8,0.282,1.199,0.847,1.199
		c0.271,0,0.552-0.105,0.842-0.318c0.289-0.213,0.559-0.506,0.808-0.881L346.458,173.618z M345.832,169.658
		c-0.19,0-0.389,0.073-0.594,0.22c-0.206,0.147-0.401,0.343-0.589,0.589c-0.187,0.246-0.357,0.525-0.512,0.842
		c-0.153,0.314-0.278,0.641-0.374,0.979c0.353-0.096,0.679-0.221,0.979-0.374s0.559-0.328,0.775-0.522
		c0.216-0.194,0.387-0.4,0.512-0.616c0.124-0.216,0.187-0.435,0.187-0.654C346.216,169.812,346.088,169.658,345.832,169.658z"/>
	</g>
</svg>
