<?xml version="1.0" encoding="utf-8"?>
<!-- Generator: Adobe Illustrator 16.0.0, SVG Export Plug-In . SVG Version: 6.00 Build 0)  -->
<!DOCTYPE svg PUBLIC "-//W3C//DTD SVG 1.1//EN" "http://www.w3.org/Graphics/SVG/1.1/DTD/svg11.dtd">
<svg version="1.1" id="Capa_1" xmlns="http://www.w3.org/2000/svg" xmlns:xlink="http://www.w3.org/1999/xlink" x="0px" y="0px"
	 width="238.636px" height="155.683px" viewBox="0 0 238.636 155.683" enable-background="new 0 0 238.636 155.683"
	 xml:space="preserve">
<path data-anchor-target="#section5"
	data--300-top="stroke-dasharray[sqrt]: 560; stroke-dashoffset: 560;"
	data--900-top="stroke-dasharray[sqrt]: 954; stroke-dashoffset: 560;"
	data--1500-top="stroke-dasharray[swing]: 954; stroke-dashoffset: 560;"
	data--2500-top="stroke-dasharray[swing]: 560; stroke-dashoffset: 560;"
	opacity="0.1" fill="none" stroke="#3E0508" stroke-width="9" stroke-miterlimit="10" enable-background="new    " d="
	M72.229,18.637c34.241,0,62,27.758,62,62s-27.759,62-62,62c-34.242,0-62-27.758-62-62S37.986,18.637,72.229,18.637z"/>
<path data-anchor-target="#section5"
	data--500-top="stroke-dasharray[sqrt]: 333; stroke-dashoffset: 333;"
	data--900-top="stroke-dasharray[sqrt]: 440; stroke-dashoffset: 333;"
	data--1500-top="stroke-dasharray[swing]: 440; stroke-dashoffset: 333;"
	data--3000-top="stroke-dasharray[swing]: 333; stroke-dashoffset: 333;" opacity="0.2" fill="none" stroke="#3E0508" stroke-width="58" stroke-miterlimit="10" enable-background="new    " d="
	M72.347,51.639c16.014-0.22,29.175,12.584,29.396,28.6c0.22,16.015-12.585,29.175-28.599,29.396
	c-16.016,0.22-29.176-12.584-29.396-28.6C43.527,65.021,56.331,51.86,72.347,51.639z"/>
<path data-anchor-target="#section5"
	data--600-top="stroke-dasharray[sqrt]: 560; stroke-dashoffset: 560;"
	data--900-top="stroke-dasharray[sqrt]: 788; stroke-dashoffset: 560;"
	data--1500-top="stroke-dasharray[swing]: 788; stroke-dashoffset: 560;"
	data--2000-top="stroke-dasharray[swing]: 560; stroke-dashoffset: 560;"
	 opacity="0.6" fill="none" stroke="#3E0508" stroke-width="9" stroke-miterlimit="10" enable-background="new    " d="
	M72.745,18.578c34.241,0,62,27.759,62,62c0,34.242-27.759,62-62,62s-62-27.758-62-62C10.745,46.337,38.504,18.578,72.745,18.578z"/>



	<g opacity="0.5038" enable-background="new    ">
		<path fill="#450D06" d="M139.774,43.763c0-0.242,0.046-0.466,0.138-0.671c0.092-0.205,0.218-0.383,0.38-0.533
			c0.161-0.15,0.354-0.268,0.577-0.352s0.468-0.126,0.731-0.126c0.353,0,0.646,0.088,0.88,0.264c0.235,0.176,0.353,0.403,0.353,0.682
			c0,0.154-0.043,0.275-0.127,0.363c-0.084,0.088-0.2,0.132-0.347,0.132c-0.168,0-0.289-0.049-0.362-0.148s-0.136-0.209-0.188-0.33
			c-0.051-0.121-0.106-0.233-0.165-0.335s-0.157-0.154-0.297-0.154c-0.161,0-0.297,0.069-0.407,0.209
			c-0.109,0.139-0.165,0.312-0.165,0.517c0,0.242,0.072,0.468,0.215,0.677s0.303,0.427,0.479,0.654
			c0.176,0.228,0.336,0.477,0.479,0.748c0.143,0.271,0.215,0.59,0.215,0.957c0,0.25-0.054,0.484-0.16,0.704s-0.249,0.413-0.429,0.578
			s-0.387,0.295-0.621,0.39c-0.235,0.095-0.478,0.143-0.727,0.143c-0.439,0-0.79-0.095-1.051-0.286c-0.26-0.191-0.39-0.44-0.39-0.748
			c0-0.213,0.049-0.38,0.148-0.5c0.099-0.121,0.232-0.182,0.401-0.182c0.315,0,0.495,0.216,0.539,0.649
			c0.021,0.235,0.061,0.391,0.115,0.468c0.055,0.077,0.167,0.115,0.336,0.115c0.264,0,0.473-0.079,0.627-0.236
			c0.153-0.158,0.23-0.376,0.23-0.655c0-0.293-0.073-0.554-0.22-0.781c-0.146-0.228-0.309-0.449-0.484-0.666
			s-0.337-0.446-0.483-0.688C139.847,44.379,139.774,44.094,139.774,43.763z"/>
		<path fill="#450D06" d="M144.56,44.39c0.103-0.286,0.176-0.517,0.22-0.693c0.044-0.176,0.065-0.315,0.065-0.418
			c0-0.103-0.016-0.17-0.049-0.203c-0.033-0.033-0.068-0.05-0.104-0.05c-0.081,0-0.169,0.039-0.265,0.116
			c-0.095,0.077-0.19,0.167-0.285,0.27c-0.096,0.103-0.181,0.205-0.254,0.308c-0.073,0.103-0.124,0.183-0.153,0.242l-0.319-0.198
			c0.088-0.162,0.211-0.341,0.368-0.539c0.158-0.198,0.336-0.381,0.534-0.55c0.198-0.168,0.403-0.31,0.616-0.423
			c0.212-0.114,0.414-0.17,0.604-0.17c0.184,0,0.32,0.053,0.412,0.16c0.092,0.106,0.138,0.299,0.138,0.577
			c0,0.213-0.064,0.499-0.192,0.858c-0.128,0.359-0.295,0.822-0.5,1.386l-0.407,1.111c-0.015,0.037-0.035,0.094-0.061,0.17
			c-0.025,0.077-0.052,0.158-0.077,0.242c-0.025,0.084-0.048,0.167-0.066,0.248c-0.018,0.081-0.027,0.147-0.027,0.198
			c0,0.066,0.019,0.125,0.056,0.176c0.036,0.051,0.095,0.077,0.176,0.077c0.11,0,0.224-0.046,0.341-0.138s0.231-0.2,0.341-0.325
			c0.11-0.125,0.209-0.251,0.297-0.379c0.088-0.128,0.154-0.229,0.198-0.302l0.33,0.187c-0.088,0.176-0.207,0.37-0.357,0.583
			c-0.15,0.212-0.321,0.409-0.512,0.588s-0.399,0.33-0.627,0.451c-0.228,0.121-0.462,0.181-0.704,0.181
			c-0.213,0-0.372-0.055-0.479-0.165c-0.106-0.11-0.159-0.293-0.159-0.55c0-0.212,0.034-0.442,0.104-0.688
			c0.069-0.246,0.171-0.556,0.303-0.93L144.56,44.39z M146.176,40.276c-0.183,0-0.343-0.062-0.479-0.187
			c-0.136-0.125-0.203-0.286-0.203-0.484c0-0.198,0.066-0.367,0.198-0.506s0.293-0.209,0.483-0.209c0.206,0,0.374,0.07,0.507,0.209
			c0.132,0.139,0.197,0.304,0.197,0.495c0,0.19-0.069,0.352-0.209,0.484C146.533,40.21,146.368,40.276,146.176,40.276z"/>
		<path fill="#450D06" d="M149.487,43.103l-0.913,3.025c-0.125,0.396-0.19,0.697-0.198,0.902c0,0.066,0.017,0.125,0.05,0.176
			s0.09,0.077,0.171,0.077c0.132,0,0.271-0.05,0.418-0.149c0.146-0.099,0.287-0.216,0.423-0.352s0.257-0.275,0.363-0.418
			c0.106-0.143,0.186-0.255,0.236-0.336l0.319,0.187c-0.125,0.25-0.282,0.49-0.473,0.721c-0.191,0.231-0.393,0.435-0.605,0.61
			c-0.213,0.176-0.428,0.317-0.644,0.424c-0.217,0.106-0.412,0.159-0.589,0.159c-0.256,0-0.441-0.055-0.555-0.165
			c-0.114-0.11-0.171-0.293-0.171-0.55c0-0.146,0.025-0.345,0.077-0.594c0.051-0.249,0.139-0.59,0.264-1.023l0.814-2.695h-0.946
			l0.143-0.506h0.957l0.572-1.892h1.012l-0.571,1.892h1.199l-0.154,0.506H149.487z"/>
		<path fill="#450D06" d="M152.777,47.338c0.117,0,0.271-0.083,0.462-0.248c0.19-0.165,0.392-0.385,0.604-0.66s0.42-0.589,0.622-0.94
			c0.201-0.352,0.372-0.719,0.511-1.1l0.814-2.2h1.023L156,44.709c-0.117,0.367-0.217,0.68-0.297,0.94
			c-0.081,0.26-0.146,0.48-0.198,0.66s-0.088,0.326-0.11,0.44c-0.021,0.114-0.032,0.204-0.032,0.27c0,0.191,0.065,0.286,0.197,0.286
			c0.073,0,0.161-0.035,0.265-0.104c0.103-0.07,0.207-0.165,0.313-0.286s0.209-0.257,0.308-0.407c0.1-0.15,0.186-0.31,0.259-0.479
			l0.33,0.165c-0.096,0.242-0.22,0.479-0.374,0.709s-0.321,0.438-0.501,0.622c-0.18,0.184-0.368,0.33-0.566,0.44
			c-0.198,0.11-0.393,0.165-0.583,0.165c-0.228,0-0.381-0.081-0.462-0.242c-0.081-0.162-0.121-0.393-0.121-0.693
			c0-0.125,0.006-0.258,0.017-0.401s0.031-0.284,0.061-0.423l-0.033-0.033c-0.197,0.352-0.391,0.642-0.577,0.869
			c-0.188,0.228-0.368,0.411-0.545,0.55c-0.176,0.14-0.348,0.237-0.517,0.292c-0.169,0.055-0.334,0.083-0.495,0.083
			c-0.345,0-0.585-0.095-0.721-0.286c-0.136-0.191-0.203-0.425-0.203-0.704c0-0.308,0.059-0.647,0.176-1.018s0.242-0.721,0.374-1.051
			c0.132-0.33,0.244-0.608,0.336-0.836c0.091-0.227,0.165-0.418,0.22-0.572s0.095-0.279,0.121-0.374
			c0.025-0.095,0.038-0.172,0.038-0.231c0-0.029-0.005-0.057-0.017-0.083c-0.011-0.026-0.038-0.039-0.082-0.039
			c-0.096,0-0.233,0.084-0.413,0.253c-0.18,0.169-0.423,0.44-0.731,0.814l-0.285-0.154c0.109-0.213,0.249-0.425,0.418-0.638
			c0.168-0.212,0.348-0.403,0.539-0.572c0.19-0.169,0.388-0.304,0.594-0.407c0.205-0.103,0.396-0.154,0.571-0.154
			c0.367,0,0.551,0.213,0.551,0.638c0,0.256-0.072,0.588-0.215,0.995c-0.143,0.407-0.328,0.893-0.556,1.458
			c-0.146,0.359-0.268,0.682-0.362,0.968c-0.096,0.286-0.144,0.546-0.144,0.781c0,0.154,0.022,0.262,0.066,0.325
			S152.71,47.338,152.777,47.338z"/>
		<path fill="#450D06" d="M162.225,42.19h0.913l-0.627,1.683c-0.104,0.279-0.204,0.576-0.303,0.891s-0.188,0.62-0.264,0.913
			c-0.077,0.293-0.138,0.561-0.182,0.803s-0.066,0.422-0.066,0.539c0,0.213,0.069,0.319,0.209,0.319c0.103,0,0.251-0.106,0.445-0.319
			c0.194-0.212,0.413-0.488,0.655-0.825l0.285,0.231c-0.308,0.543-0.64,0.963-0.995,1.26s-0.698,0.445-1.028,0.445
			c-0.169,0-0.299-0.064-0.391-0.192s-0.138-0.339-0.138-0.632c0-0.066,0.002-0.143,0.006-0.231c0.004-0.088,0.013-0.206,0.027-0.352
			l-0.044-0.011c-0.11,0.206-0.24,0.395-0.391,0.566c-0.15,0.172-0.313,0.323-0.489,0.451s-0.359,0.228-0.55,0.297
			c-0.191,0.07-0.378,0.104-0.562,0.104c-0.374,0-0.665-0.141-0.874-0.423s-0.313-0.673-0.313-1.171c0-0.506,0.105-1.023,0.318-1.551
			c0.213-0.528,0.488-1.006,0.825-1.436c0.337-0.429,0.711-0.781,1.122-1.056c0.41-0.275,0.814-0.413,1.21-0.413
			c0.242,0,0.44,0.057,0.594,0.17c0.154,0.114,0.279,0.299,0.374,0.556L162.225,42.19z M161.092,42.652
			c-0.279,0-0.566,0.128-0.864,0.385c-0.297,0.257-0.566,0.578-0.808,0.962c-0.242,0.385-0.44,0.799-0.595,1.243
			c-0.153,0.444-0.23,0.856-0.23,1.237c0,0.264,0.055,0.475,0.165,0.632c0.109,0.158,0.26,0.237,0.451,0.237
			c0.168,0,0.344-0.068,0.527-0.204s0.361-0.315,0.533-0.539c0.173-0.224,0.336-0.479,0.49-0.765
			c0.153-0.286,0.289-0.581,0.406-0.885c0.118-0.304,0.21-0.603,0.275-0.896c0.066-0.293,0.099-0.557,0.099-0.792
			c0-0.19-0.04-0.341-0.12-0.451C161.341,42.707,161.231,42.652,161.092,42.652z"/>
		<path fill="#450D06" d="M166.294,43.103l-0.913,3.025c-0.125,0.396-0.19,0.697-0.198,0.902c0,0.066,0.017,0.125,0.05,0.176
			s0.09,0.077,0.171,0.077c0.132,0,0.271-0.05,0.418-0.149c0.146-0.099,0.287-0.216,0.423-0.352s0.257-0.275,0.363-0.418
			c0.106-0.143,0.186-0.255,0.236-0.336l0.319,0.187c-0.125,0.25-0.282,0.49-0.473,0.721c-0.191,0.231-0.393,0.435-0.605,0.61
			c-0.213,0.176-0.428,0.317-0.644,0.424c-0.217,0.106-0.412,0.159-0.589,0.159c-0.256,0-0.441-0.055-0.555-0.165
			c-0.114-0.11-0.171-0.293-0.171-0.55c0-0.146,0.025-0.345,0.077-0.594c0.051-0.249,0.139-0.59,0.264-1.023l0.814-2.695h-0.946
			l0.143-0.506h0.957l0.572-1.892h1.012l-0.571,1.892h1.199l-0.154,0.506H166.294z"/>
		<path fill="#450D06" d="M169.167,44.39c0.103-0.286,0.176-0.517,0.22-0.693c0.044-0.176,0.065-0.315,0.065-0.418
			c0-0.103-0.016-0.17-0.049-0.203c-0.033-0.033-0.068-0.05-0.104-0.05c-0.081,0-0.169,0.039-0.265,0.116
			c-0.095,0.077-0.19,0.167-0.285,0.27c-0.096,0.103-0.181,0.205-0.254,0.308c-0.073,0.103-0.124,0.183-0.153,0.242l-0.319-0.198
			c0.088-0.162,0.211-0.341,0.368-0.539c0.158-0.198,0.336-0.381,0.534-0.55c0.198-0.168,0.403-0.31,0.616-0.423
			c0.212-0.114,0.414-0.17,0.604-0.17c0.184,0,0.32,0.053,0.412,0.16c0.092,0.106,0.138,0.299,0.138,0.577
			c0,0.213-0.064,0.499-0.192,0.858c-0.128,0.359-0.295,0.822-0.5,1.386l-0.407,1.111c-0.015,0.037-0.035,0.094-0.061,0.17
			c-0.025,0.077-0.052,0.158-0.077,0.242c-0.025,0.084-0.048,0.167-0.066,0.248c-0.018,0.081-0.027,0.147-0.027,0.198
			c0,0.066,0.019,0.125,0.056,0.176c0.036,0.051,0.095,0.077,0.176,0.077c0.11,0,0.224-0.046,0.341-0.138s0.231-0.2,0.341-0.325
			c0.11-0.125,0.209-0.251,0.297-0.379c0.088-0.128,0.154-0.229,0.198-0.302l0.33,0.187c-0.088,0.176-0.207,0.37-0.357,0.583
			c-0.15,0.212-0.321,0.409-0.512,0.588s-0.399,0.33-0.627,0.451c-0.228,0.121-0.462,0.181-0.704,0.181
			c-0.213,0-0.372-0.055-0.479-0.165c-0.106-0.11-0.159-0.293-0.159-0.55c0-0.212,0.034-0.442,0.104-0.688
			c0.069-0.246,0.171-0.556,0.303-0.93L169.167,44.39z M170.783,40.276c-0.183,0-0.343-0.062-0.479-0.187
			c-0.136-0.125-0.203-0.286-0.203-0.484c0-0.198,0.066-0.367,0.198-0.506s0.293-0.209,0.483-0.209c0.206,0,0.374,0.07,0.507,0.209
			c0.132,0.139,0.197,0.304,0.197,0.495c0,0.19-0.069,0.352-0.209,0.484C171.139,40.21,170.974,40.276,170.783,40.276z"/>
		<path fill="#450D06" d="M173.565,48.13c-0.249,0-0.481-0.049-0.698-0.148c-0.216-0.099-0.405-0.244-0.566-0.435
			c-0.161-0.19-0.29-0.423-0.385-0.698c-0.096-0.275-0.144-0.585-0.144-0.93c0-0.477,0.09-0.946,0.27-1.408
			c0.18-0.462,0.416-0.873,0.71-1.232c0.293-0.359,0.629-0.649,1.006-0.869c0.378-0.22,0.769-0.33,1.172-0.33
			c0.264,0,0.508,0.049,0.731,0.148s0.414,0.242,0.572,0.429c0.157,0.187,0.282,0.411,0.374,0.671s0.138,0.548,0.138,0.863
			c0,0.462-0.092,0.928-0.275,1.397c-0.184,0.47-0.424,0.891-0.721,1.265s-0.636,0.68-1.018,0.918
			C174.35,48.011,173.961,48.13,173.565,48.13z M173.631,47.58c0.249,0,0.497-0.128,0.742-0.385c0.246-0.256,0.466-0.581,0.66-0.973
			c0.194-0.393,0.353-0.82,0.473-1.282c0.121-0.462,0.182-0.902,0.182-1.32c0-0.389-0.067-0.656-0.203-0.803
			c-0.136-0.146-0.321-0.22-0.556-0.22c-0.161,0-0.324,0.057-0.489,0.17s-0.321,0.27-0.468,0.467
			c-0.146,0.198-0.284,0.426-0.412,0.682c-0.129,0.257-0.24,0.528-0.336,0.814c-0.095,0.286-0.169,0.578-0.22,0.875
			c-0.052,0.297-0.077,0.582-0.077,0.853c0,0.411,0.066,0.7,0.198,0.869C173.257,47.496,173.426,47.58,173.631,47.58z"/>
		<path fill="#450D06" d="M181.936,42.652c-0.176,0-0.376,0.09-0.6,0.27s-0.451,0.418-0.682,0.715
			c-0.231,0.297-0.453,0.636-0.666,1.017c-0.212,0.382-0.392,0.77-0.538,1.166l-0.814,2.2h-0.968l0.813-2.519
			c0.132-0.403,0.242-0.748,0.33-1.034c0.088-0.286,0.16-0.526,0.215-0.72s0.094-0.352,0.115-0.473
			c0.022-0.121,0.033-0.218,0.033-0.292c0-0.198-0.063-0.297-0.188-0.297c-0.08,0-0.176,0.051-0.285,0.154
			c-0.11,0.103-0.223,0.237-0.336,0.402s-0.222,0.354-0.324,0.566c-0.104,0.213-0.191,0.429-0.265,0.649l-0.33-0.165
			c0.257-0.755,0.545-1.313,0.864-1.672c0.318-0.359,0.684-0.539,1.094-0.539c0.235,0,0.402,0.066,0.501,0.198
			c0.099,0.132,0.148,0.356,0.148,0.671c0,0.374-0.063,0.708-0.187,1.001l0.032,0.033c0.374-0.66,0.754-1.142,1.139-1.446
			s0.805-0.457,1.26-0.457c0.322,0,0.568,0.077,0.737,0.231c0.168,0.154,0.253,0.374,0.253,0.66c0,0.095-0.01,0.202-0.027,0.319
			c-0.019,0.117-0.05,0.258-0.094,0.423s-0.104,0.361-0.182,0.589c-0.077,0.227-0.171,0.506-0.28,0.836
			c-0.169,0.499-0.309,0.917-0.418,1.254c-0.11,0.337-0.165,0.576-0.165,0.715c0,0.11,0.036,0.165,0.109,0.165
			c0.103,0,0.253-0.084,0.451-0.253c0.198-0.168,0.466-0.44,0.803-0.814l0.286,0.154c-0.117,0.22-0.27,0.435-0.456,0.644
			c-0.188,0.209-0.382,0.398-0.583,0.566c-0.202,0.169-0.401,0.305-0.6,0.407s-0.37,0.154-0.517,0.154
			c-0.184,0-0.329-0.081-0.435-0.242c-0.106-0.162-0.16-0.374-0.16-0.638c0-0.103,0.01-0.207,0.027-0.313
			c0.019-0.106,0.058-0.258,0.116-0.457c0.059-0.198,0.145-0.464,0.258-0.797c0.114-0.333,0.27-0.775,0.468-1.326
			c0.066-0.19,0.121-0.352,0.165-0.484s0.079-0.248,0.104-0.347c0.025-0.099,0.044-0.185,0.055-0.258
			c0.012-0.073,0.017-0.143,0.017-0.209C182.233,42.788,182.134,42.652,181.936,42.652z"/>
		<path fill="#450D06" d="M185.005,43.763c0-0.242,0.046-0.466,0.138-0.671c0.092-0.205,0.218-0.383,0.38-0.533
			c0.161-0.15,0.354-0.268,0.577-0.352s0.468-0.126,0.731-0.126c0.353,0,0.646,0.088,0.88,0.264c0.235,0.176,0.353,0.403,0.353,0.682
			c0,0.154-0.043,0.275-0.127,0.363c-0.084,0.088-0.2,0.132-0.347,0.132c-0.168,0-0.289-0.049-0.362-0.148s-0.136-0.209-0.188-0.33
			c-0.051-0.121-0.106-0.233-0.165-0.335s-0.157-0.154-0.297-0.154c-0.161,0-0.297,0.069-0.407,0.209
			c-0.109,0.139-0.165,0.312-0.165,0.517c0,0.242,0.072,0.468,0.215,0.677s0.303,0.427,0.479,0.654
			c0.176,0.228,0.336,0.477,0.479,0.748c0.143,0.271,0.215,0.59,0.215,0.957c0,0.25-0.054,0.484-0.16,0.704s-0.249,0.413-0.429,0.578
			s-0.387,0.295-0.621,0.39c-0.235,0.095-0.478,0.143-0.727,0.143c-0.439,0-0.79-0.095-1.051-0.286c-0.26-0.191-0.39-0.44-0.39-0.748
			c0-0.213,0.049-0.38,0.148-0.5c0.099-0.121,0.232-0.182,0.401-0.182c0.315,0,0.495,0.216,0.539,0.649
			c0.021,0.235,0.061,0.391,0.115,0.468c0.055,0.077,0.167,0.115,0.336,0.115c0.264,0,0.473-0.079,0.627-0.236
			c0.153-0.158,0.23-0.376,0.23-0.655c0-0.293-0.073-0.554-0.22-0.781c-0.146-0.228-0.309-0.449-0.484-0.666
			s-0.337-0.446-0.483-0.688C185.079,44.379,185.005,44.094,185.005,43.763z"/>
		<path fill="#450D06" d="M196.523,40.408c0.059-0.198,0.103-0.363,0.132-0.495s0.044-0.227,0.044-0.286
			c0-0.11-0.073-0.187-0.221-0.231c-0.146-0.044-0.41-0.066-0.792-0.066l0.121-0.44h2.123l-1.221,4.455
			c-0.154,0.572-0.282,1.06-0.385,1.463s-0.186,0.742-0.248,1.018c-0.063,0.275-0.104,0.5-0.126,0.676
			c-0.022,0.176-0.033,0.323-0.033,0.44c0,0.169,0.025,0.286,0.077,0.352c0.051,0.066,0.117,0.099,0.198,0.099
			c0.161,0,0.335-0.136,0.522-0.407c0.187-0.271,0.354-0.627,0.5-1.067l0.418,0.099c-0.249,0.726-0.522,1.259-0.819,1.601
			c-0.297,0.341-0.633,0.511-1.007,0.511c-0.264,0-0.467-0.084-0.61-0.253c-0.143-0.168-0.214-0.411-0.214-0.726
			c0-0.081,0.007-0.165,0.021-0.253s0.033-0.172,0.055-0.253l-0.088-0.022c-0.278,0.484-0.615,0.856-1.012,1.117
			c-0.396,0.26-0.773,0.39-1.133,0.39c-0.191,0-0.367-0.042-0.528-0.126c-0.161-0.084-0.301-0.202-0.418-0.352
			c-0.117-0.15-0.211-0.33-0.28-0.539c-0.07-0.209-0.104-0.441-0.104-0.698c0-0.315,0.05-0.644,0.148-0.984
			c0.099-0.341,0.234-0.671,0.407-0.99c0.172-0.319,0.372-0.622,0.6-0.907c0.227-0.286,0.467-0.537,0.72-0.754
			c0.253-0.216,0.514-0.387,0.781-0.511s0.53-0.187,0.787-0.187c0.249,0,0.438,0.048,0.566,0.143
			c0.128,0.095,0.254,0.246,0.379,0.451L196.523,40.408z M195.015,42.663c-0.19,0-0.383,0.061-0.577,0.182
			c-0.194,0.121-0.383,0.282-0.566,0.484s-0.354,0.435-0.512,0.698c-0.157,0.264-0.295,0.539-0.412,0.825s-0.211,0.576-0.28,0.869
			c-0.07,0.293-0.104,0.568-0.104,0.825c0,0.264,0.065,0.475,0.197,0.633s0.309,0.236,0.528,0.236c0.169,0,0.341-0.068,0.517-0.204
			c0.177-0.136,0.349-0.313,0.518-0.533c0.168-0.22,0.328-0.471,0.479-0.754c0.15-0.282,0.282-0.572,0.396-0.869
			c0.114-0.297,0.204-0.59,0.27-0.88c0.066-0.29,0.1-0.551,0.1-0.786c0-0.228-0.044-0.405-0.133-0.534
			C195.345,42.728,195.207,42.663,195.015,42.663z"/>
		<path fill="#450D06" d="M202.034,46.557c-0.638,1.049-1.423,1.573-2.354,1.573c-0.506,0-0.895-0.156-1.166-0.467
			c-0.271-0.312-0.406-0.753-0.406-1.326c0-0.506,0.104-1.012,0.313-1.518c0.209-0.506,0.481-0.962,0.819-1.369
			c0.337-0.407,0.715-0.737,1.133-0.99s0.836-0.379,1.254-0.379c0.353,0,0.64,0.09,0.863,0.27s0.336,0.409,0.336,0.688
			c0,0.257-0.096,0.521-0.286,0.792s-0.449,0.528-0.775,0.77c-0.326,0.242-0.708,0.462-1.144,0.66
			c-0.437,0.198-0.9,0.352-1.392,0.462c-0.016,0.103-0.026,0.203-0.033,0.302c-0.008,0.099-0.011,0.2-0.011,0.303
			c0,0.799,0.282,1.199,0.847,1.199c0.271,0,0.552-0.106,0.842-0.319c0.289-0.212,0.559-0.506,0.808-0.88L202.034,46.557z
			 M201.407,42.597c-0.19,0-0.389,0.073-0.594,0.22c-0.206,0.147-0.401,0.343-0.589,0.589c-0.187,0.246-0.357,0.526-0.512,0.841
			c-0.153,0.315-0.278,0.642-0.374,0.979c0.353-0.095,0.679-0.22,0.979-0.374s0.559-0.328,0.775-0.522
			c0.216-0.194,0.387-0.4,0.512-0.616c0.124-0.216,0.187-0.435,0.187-0.654C201.792,42.751,201.664,42.597,201.407,42.597z"/>
		<path fill="#450D06" d="M210.096,46.249c-0.308,0.609-0.665,1.074-1.072,1.397s-0.841,0.484-1.304,0.484
			c-0.477,0-0.857-0.163-1.144-0.489s-0.429-0.761-0.429-1.304c0-0.322,0.047-0.652,0.143-0.99s0.224-0.664,0.385-0.979
			s0.353-0.612,0.572-0.891s0.455-0.521,0.704-0.726c0.249-0.205,0.508-0.369,0.775-0.489c0.268-0.121,0.53-0.182,0.786-0.182
			c0.353,0,0.642,0.095,0.869,0.286c0.228,0.19,0.342,0.429,0.342,0.715c0,0.184-0.054,0.332-0.16,0.445
			c-0.106,0.114-0.244,0.17-0.412,0.17c-0.169,0-0.307-0.053-0.413-0.159s-0.159-0.237-0.159-0.391c0-0.095,0.015-0.172,0.044-0.231
			s0.044-0.114,0.044-0.165c0-0.103-0.088-0.154-0.264-0.154c-0.242,0-0.488,0.114-0.737,0.341c-0.249,0.228-0.475,0.521-0.677,0.88
			c-0.201,0.359-0.366,0.761-0.494,1.205c-0.129,0.444-0.193,0.886-0.193,1.326c0,0.352,0.068,0.629,0.204,0.831
			s0.324,0.302,0.566,0.302c0.132,0,0.27-0.037,0.412-0.11c0.144-0.073,0.288-0.174,0.435-0.303c0.146-0.128,0.288-0.28,0.424-0.457
			c0.136-0.176,0.259-0.37,0.368-0.583L210.096,46.249z"/>
		<path fill="#450D06" d="M212.901,48.13c-0.249,0-0.481-0.049-0.698-0.148c-0.216-0.099-0.405-0.244-0.566-0.435
			c-0.161-0.19-0.29-0.423-0.385-0.698c-0.096-0.275-0.144-0.585-0.144-0.93c0-0.477,0.09-0.946,0.27-1.408
			c0.18-0.462,0.416-0.873,0.71-1.232c0.293-0.359,0.629-0.649,1.006-0.869c0.378-0.22,0.769-0.33,1.172-0.33
			c0.264,0,0.508,0.049,0.731,0.148s0.414,0.242,0.572,0.429c0.157,0.187,0.282,0.411,0.374,0.671s0.138,0.548,0.138,0.863
			c0,0.462-0.092,0.928-0.275,1.397c-0.184,0.47-0.424,0.891-0.721,1.265s-0.636,0.68-1.018,0.918
			C213.686,48.011,213.297,48.13,212.901,48.13z M212.967,47.58c0.249,0,0.497-0.128,0.742-0.385c0.246-0.256,0.466-0.581,0.66-0.973
			c0.194-0.393,0.353-0.82,0.473-1.282c0.121-0.462,0.182-0.902,0.182-1.32c0-0.389-0.067-0.656-0.203-0.803
			c-0.136-0.146-0.321-0.22-0.556-0.22c-0.161,0-0.324,0.057-0.489,0.17s-0.321,0.27-0.468,0.467
			c-0.146,0.198-0.284,0.426-0.412,0.682c-0.129,0.257-0.24,0.528-0.336,0.814c-0.095,0.286-0.169,0.578-0.22,0.875
			c-0.052,0.297-0.077,0.582-0.077,0.853c0,0.411,0.066,0.7,0.198,0.869C212.593,47.496,212.762,47.58,212.967,47.58z"/>
		<path fill="#450D06" d="M221.272,42.652c-0.176,0-0.376,0.09-0.6,0.27s-0.451,0.418-0.682,0.715
			c-0.231,0.297-0.453,0.636-0.666,1.017c-0.212,0.382-0.392,0.77-0.538,1.166l-0.814,2.2h-0.968l0.813-2.519
			c0.132-0.403,0.242-0.748,0.33-1.034c0.088-0.286,0.16-0.526,0.215-0.72s0.094-0.352,0.115-0.473
			c0.022-0.121,0.033-0.218,0.033-0.292c0-0.198-0.063-0.297-0.188-0.297c-0.08,0-0.176,0.051-0.285,0.154
			c-0.11,0.103-0.223,0.237-0.336,0.402s-0.222,0.354-0.324,0.566c-0.104,0.213-0.191,0.429-0.265,0.649l-0.33-0.165
			c0.257-0.755,0.545-1.313,0.864-1.672c0.318-0.359,0.684-0.539,1.094-0.539c0.235,0,0.402,0.066,0.501,0.198
			c0.099,0.132,0.148,0.356,0.148,0.671c0,0.374-0.063,0.708-0.187,1.001l0.032,0.033c0.374-0.66,0.754-1.142,1.139-1.446
			s0.805-0.457,1.26-0.457c0.322,0,0.568,0.077,0.737,0.231c0.168,0.154,0.253,0.374,0.253,0.66c0,0.095-0.01,0.202-0.027,0.319
			c-0.019,0.117-0.05,0.258-0.094,0.423s-0.104,0.361-0.182,0.589c-0.077,0.227-0.171,0.506-0.28,0.836
			c-0.169,0.499-0.309,0.917-0.418,1.254c-0.11,0.337-0.165,0.576-0.165,0.715c0,0.11,0.036,0.165,0.109,0.165
			c0.103,0,0.253-0.084,0.451-0.253c0.198-0.168,0.466-0.44,0.803-0.814l0.286,0.154c-0.117,0.22-0.27,0.435-0.456,0.644
			c-0.188,0.209-0.382,0.398-0.583,0.566c-0.202,0.169-0.401,0.305-0.6,0.407s-0.37,0.154-0.517,0.154
			c-0.184,0-0.329-0.081-0.435-0.242c-0.106-0.162-0.16-0.374-0.16-0.638c0-0.103,0.01-0.207,0.027-0.313
			c0.019-0.106,0.058-0.258,0.116-0.457c0.059-0.198,0.145-0.464,0.258-0.797c0.114-0.333,0.27-0.775,0.468-1.326
			c0.066-0.19,0.121-0.352,0.165-0.484s0.079-0.248,0.104-0.347c0.025-0.099,0.044-0.185,0.055-0.258
			c0.012-0.073,0.017-0.143,0.017-0.209C221.569,42.788,221.47,42.652,221.272,42.652z"/>
		<path fill="#450D06" d="M228.818,40.551c0.036-0.146,0.055-0.268,0.055-0.363c0-0.212-0.055-0.381-0.165-0.506
			s-0.261-0.187-0.451-0.187c-0.381,0-0.736,0.262-1.066,0.787s-0.62,1.285-0.869,2.282h1.188l-0.153,0.506H226.2l-1.034,4.147
			c-0.169,0.66-0.341,1.223-0.517,1.689c-0.177,0.465-0.371,0.843-0.583,1.133c-0.213,0.29-0.445,0.502-0.699,0.638
			c-0.253,0.135-0.533,0.203-0.841,0.203c-0.359,0-0.644-0.077-0.853-0.231c-0.209-0.154-0.313-0.359-0.313-0.616
			c0-0.176,0.048-0.317,0.143-0.424c0.096-0.106,0.228-0.159,0.396-0.159c0.153,0,0.26,0.04,0.318,0.121
			c0.06,0.081,0.108,0.169,0.148,0.264c0.041,0.095,0.087,0.183,0.138,0.264c0.052,0.081,0.144,0.121,0.275,0.121
			c0.176,0,0.334-0.083,0.473-0.248c0.14-0.165,0.249-0.402,0.33-0.709l1.595-6.193h-1.056l0.143-0.506h1.046
			c0.168-0.623,0.352-1.161,0.55-1.611c0.198-0.451,0.416-0.821,0.654-1.111c0.238-0.29,0.5-0.502,0.786-0.638S227.901,39,228.246,39
			c0.359,0,0.656,0.059,0.891,0.176l1.145-0.275l-1.969,7.227c-0.118,0.418-0.177,0.708-0.177,0.869c0,0.191,0.077,0.286,0.231,0.286
			c0.08,0,0.176-0.035,0.286-0.104c0.109-0.07,0.226-0.163,0.347-0.281c0.121-0.117,0.238-0.251,0.352-0.401s0.215-0.306,0.303-0.468
			l0.33,0.187c-0.132,0.279-0.286,0.534-0.462,0.765c-0.177,0.231-0.363,0.433-0.562,0.605s-0.399,0.306-0.604,0.401
			c-0.206,0.095-0.403,0.143-0.595,0.143c-0.447,0-0.671-0.242-0.671-0.726c0-0.146,0.022-0.352,0.066-0.616s0.121-0.594,0.23-0.99
			L228.818,40.551z"/>
		<path fill="#450D06" d="M231.722,44.39c0.103-0.286,0.176-0.517,0.22-0.693c0.044-0.176,0.065-0.315,0.065-0.418
			c0-0.103-0.016-0.17-0.049-0.203c-0.033-0.033-0.068-0.05-0.104-0.05c-0.081,0-0.169,0.039-0.265,0.116
			c-0.095,0.077-0.19,0.167-0.285,0.27c-0.096,0.103-0.181,0.205-0.254,0.308c-0.073,0.103-0.124,0.183-0.153,0.242l-0.319-0.198
			c0.088-0.162,0.211-0.341,0.368-0.539c0.158-0.198,0.336-0.381,0.534-0.55c0.198-0.168,0.403-0.31,0.616-0.423
			c0.212-0.114,0.414-0.17,0.604-0.17c0.184,0,0.32,0.053,0.412,0.16c0.092,0.106,0.138,0.299,0.138,0.577
			c0,0.213-0.064,0.499-0.192,0.858c-0.128,0.359-0.295,0.822-0.5,1.386l-0.407,1.111c-0.015,0.037-0.035,0.094-0.061,0.17
			c-0.025,0.077-0.052,0.158-0.077,0.242c-0.025,0.084-0.048,0.167-0.066,0.248c-0.018,0.081-0.027,0.147-0.027,0.198
			c0,0.066,0.019,0.125,0.056,0.176c0.036,0.051,0.095,0.077,0.176,0.077c0.11,0,0.224-0.046,0.341-0.138s0.231-0.2,0.341-0.325
			c0.11-0.125,0.209-0.251,0.297-0.379c0.088-0.128,0.154-0.229,0.198-0.302l0.33,0.187c-0.088,0.176-0.207,0.37-0.357,0.583
			c-0.15,0.212-0.321,0.409-0.512,0.588s-0.399,0.33-0.627,0.451c-0.228,0.121-0.462,0.181-0.704,0.181
			c-0.213,0-0.372-0.055-0.479-0.165c-0.106-0.11-0.159-0.293-0.159-0.55c0-0.212,0.034-0.442,0.104-0.688
			c0.069-0.246,0.171-0.556,0.303-0.93L231.722,44.39z M233.338,40.276c-0.183,0-0.343-0.062-0.479-0.187
			c-0.136-0.125-0.203-0.286-0.203-0.484c0-0.198,0.066-0.367,0.198-0.506s0.293-0.209,0.483-0.209c0.206,0,0.374,0.07,0.507,0.209
			c0.132,0.139,0.197,0.304,0.197,0.495c0,0.19-0.069,0.352-0.209,0.484C233.695,40.21,233.53,40.276,233.338,40.276z"/>
		<path fill="#450D06" d="M236.65,43.103l-0.913,3.025c-0.125,0.396-0.19,0.697-0.198,0.902c0,0.066,0.017,0.125,0.05,0.176
			s0.09,0.077,0.171,0.077c0.132,0,0.271-0.05,0.418-0.149c0.146-0.099,0.287-0.216,0.423-0.352s0.257-0.275,0.363-0.418
			c0.106-0.143,0.186-0.255,0.236-0.336l0.319,0.187c-0.125,0.25-0.282,0.49-0.473,0.721c-0.191,0.231-0.393,0.435-0.605,0.61
			c-0.213,0.176-0.428,0.317-0.644,0.424c-0.217,0.106-0.412,0.159-0.589,0.159c-0.256,0-0.441-0.055-0.555-0.165
			c-0.114-0.11-0.171-0.293-0.171-0.55c0-0.146,0.025-0.345,0.077-0.594c0.051-0.249,0.139-0.59,0.264-1.023l0.814-2.695h-0.946
			l0.143-0.506h0.957l0.572-1.892h1.012l-0.571,1.892h1.199l-0.154,0.506H236.65z"/>
	</g>
	<g opacity="0.5038" enable-background="new    ">
		<path fill="#450D06" d="M159.578,91.322c0.059-0.197,0.103-0.363,0.132-0.494c0.029-0.133,0.044-0.228,0.044-0.287
			c0-0.109-0.073-0.187-0.221-0.23c-0.146-0.044-0.41-0.066-0.792-0.066l0.121-0.439h2.123l-1.221,4.455
			c-0.154,0.572-0.282,1.06-0.385,1.463s-0.186,0.742-0.248,1.018s-0.104,0.5-0.126,0.676c-0.022,0.177-0.033,0.323-0.033,0.44
			c0,0.169,0.025,0.286,0.077,0.353c0.051,0.065,0.117,0.099,0.198,0.099c0.161,0,0.335-0.136,0.522-0.407
			c0.187-0.271,0.354-0.627,0.5-1.066l0.418,0.099c-0.249,0.726-0.522,1.259-0.819,1.601c-0.297,0.341-0.633,0.512-1.007,0.512
			c-0.264,0-0.467-0.085-0.61-0.254c-0.143-0.168-0.214-0.41-0.214-0.726c0-0.081,0.007-0.165,0.021-0.253s0.033-0.172,0.055-0.253
			l-0.088-0.022c-0.278,0.484-0.615,0.857-1.012,1.117c-0.396,0.26-0.773,0.391-1.133,0.391c-0.191,0-0.367-0.043-0.528-0.127
			s-0.301-0.201-0.418-0.352s-0.211-0.33-0.28-0.539c-0.07-0.209-0.104-0.441-0.104-0.699c0-0.314,0.05-0.643,0.148-0.984
			c0.099-0.341,0.234-0.671,0.407-0.99c0.172-0.318,0.372-0.621,0.6-0.906c0.227-0.287,0.467-0.537,0.72-0.754
			s0.514-0.387,0.781-0.512s0.53-0.188,0.787-0.188c0.249,0,0.438,0.049,0.566,0.144c0.128,0.095,0.254,0.245,0.379,0.45
			L159.578,91.322z M158.07,93.578c-0.19,0-0.383,0.061-0.577,0.182c-0.194,0.12-0.383,0.281-0.566,0.483s-0.354,0.435-0.512,0.698
			c-0.157,0.264-0.295,0.539-0.412,0.825s-0.211,0.575-0.28,0.869c-0.07,0.294-0.104,0.568-0.104,0.825
			c0,0.264,0.065,0.475,0.197,0.633c0.132,0.157,0.309,0.236,0.528,0.236c0.169,0,0.341-0.068,0.517-0.204
			c0.177-0.136,0.349-0.313,0.518-0.533c0.168-0.22,0.328-0.472,0.479-0.754s0.282-0.571,0.396-0.868
			c0.114-0.298,0.204-0.591,0.27-0.881c0.066-0.289,0.1-0.551,0.1-0.786c0-0.228-0.044-0.405-0.133-0.534
			C158.4,93.642,158.261,93.578,158.07,93.578z"/>
		<path fill="#450D06" d="M165.088,97.471c-0.638,1.049-1.423,1.573-2.354,1.573c-0.506,0-0.895-0.156-1.166-0.468
			c-0.271-0.312-0.406-0.753-0.406-1.325c0-0.506,0.104-1.012,0.313-1.519c0.209-0.506,0.481-0.962,0.819-1.369
			c0.337-0.407,0.715-0.737,1.133-0.99s0.836-0.38,1.254-0.38c0.353,0,0.64,0.09,0.863,0.27s0.336,0.409,0.336,0.688
			c0,0.258-0.096,0.521-0.286,0.793s-0.449,0.527-0.775,0.77s-0.708,0.462-1.144,0.66c-0.437,0.197-0.9,0.352-1.392,0.462
			c-0.016,0.103-0.026,0.203-0.033,0.302c-0.008,0.1-0.011,0.201-0.011,0.303c0,0.8,0.282,1.199,0.847,1.199
			c0.271,0,0.552-0.105,0.842-0.318c0.289-0.213,0.559-0.506,0.808-0.881L165.088,97.471z M164.461,93.511
			c-0.19,0-0.389,0.073-0.594,0.22c-0.206,0.147-0.401,0.343-0.589,0.589c-0.187,0.246-0.357,0.525-0.512,0.842
			c-0.153,0.314-0.278,0.641-0.374,0.979c0.353-0.096,0.679-0.221,0.979-0.374s0.559-0.328,0.775-0.522
			c0.216-0.194,0.387-0.4,0.512-0.616c0.124-0.216,0.187-0.435,0.187-0.654C164.846,93.666,164.718,93.511,164.461,93.511z
			 M163.977,91.773l1.431-1.309c0.264-0.242,0.509-0.363,0.736-0.363c0.125,0,0.226,0.033,0.303,0.1
			c0.077,0.065,0.115,0.16,0.115,0.285c0,0.117-0.049,0.223-0.148,0.314c-0.099,0.092-0.236,0.178-0.412,0.258l-1.507,0.715H163.977z
			"/>
		<path fill="#450D06" d="M166.188,94.809c0.271-0.308,0.575-0.585,0.913-0.831c0.337-0.245,0.693-0.445,1.066-0.6l0.518-1.76h0.836
			l-0.385,1.463c0.117-0.021,0.232-0.039,0.347-0.055c0.113-0.014,0.229-0.021,0.346-0.021c0.624,0,1.107,0.168,1.452,0.506
			s0.518,0.811,0.518,1.419c0,0.483-0.116,0.94-0.347,1.37c-0.231,0.428-0.539,0.812-0.924,1.148
			c-0.386,0.338-0.829,0.618-1.331,0.842c-0.503,0.224-1.025,0.373-1.567,0.445l-0.407,1.529c-0.037,0.109-0.061,0.201-0.071,0.275
			c-0.012,0.072-0.017,0.139-0.017,0.197c0,0.184,0.075,0.313,0.226,0.385c0.149,0.074,0.416,0.114,0.797,0.121l-0.065,0.44h-3.113
			l0.066-0.44c0.308,0,0.531-0.036,0.671-0.109c0.139-0.074,0.238-0.205,0.297-0.396l1.991-6.798
			c-0.279,0.147-0.547,0.321-0.804,0.522c-0.257,0.202-0.495,0.42-0.715,0.654L166.188,94.809z M169.542,93.545
			c-0.095,0-0.188,0.006-0.28,0.016c-0.092,0.012-0.182,0.024-0.27,0.039l-1.243,4.664c0.367-0.073,0.725-0.209,1.073-0.407
			c0.348-0.198,0.658-0.443,0.929-0.737c0.271-0.293,0.49-0.621,0.655-0.984s0.247-0.742,0.247-1.139
			c0-0.439-0.101-0.791-0.303-1.056C170.15,93.677,169.88,93.545,169.542,93.545z"/>
		<path fill="#450D06" d="M174.229,91.334c0.037-0.133,0.073-0.266,0.11-0.402c0.036-0.135,0.055-0.236,0.055-0.303
			c0-0.256-0.278-0.385-0.836-0.385l0.088-0.33l2.014-0.099l-1.97,7.228c-0.059,0.197-0.103,0.372-0.132,0.521
			c-0.029,0.15-0.044,0.277-0.044,0.38c0,0.066,0.019,0.125,0.055,0.177c0.037,0.051,0.096,0.076,0.177,0.076
			c0.117,0,0.242-0.049,0.374-0.148c0.132-0.099,0.258-0.216,0.379-0.352s0.229-0.275,0.325-0.418
			c0.095-0.143,0.165-0.255,0.209-0.336l0.33,0.188c-0.11,0.249-0.254,0.489-0.43,0.721c-0.176,0.23-0.363,0.434-0.561,0.609
			c-0.198,0.177-0.398,0.318-0.6,0.424c-0.202,0.106-0.387,0.16-0.556,0.16c-0.257,0-0.445-0.055-0.566-0.166
			c-0.121-0.109-0.182-0.293-0.182-0.549c0-0.146,0.022-0.346,0.066-0.595s0.121-0.59,0.23-1.022L174.229,91.334z"/>
		<path fill="#450D06" d="M180.444,93.104h0.913l-0.627,1.683c-0.104,0.279-0.204,0.576-0.303,0.892s-0.188,0.62-0.264,0.913
			c-0.077,0.293-0.138,0.561-0.182,0.803s-0.066,0.422-0.066,0.539c0,0.213,0.069,0.318,0.209,0.318c0.103,0,0.251-0.105,0.445-0.318
			s0.413-0.488,0.655-0.825l0.285,0.231c-0.308,0.543-0.64,0.963-0.995,1.26s-0.698,0.445-1.028,0.445
			c-0.169,0-0.299-0.064-0.391-0.193c-0.092-0.128-0.138-0.338-0.138-0.632c0-0.065,0.002-0.144,0.006-0.231s0.013-0.205,0.027-0.352
			l-0.044-0.012c-0.11,0.206-0.24,0.395-0.391,0.566c-0.15,0.173-0.313,0.323-0.489,0.451c-0.176,0.129-0.359,0.229-0.55,0.297
			c-0.191,0.07-0.378,0.105-0.562,0.105c-0.374,0-0.665-0.142-0.874-0.424s-0.313-0.673-0.313-1.172c0-0.506,0.105-1.022,0.318-1.551
			c0.213-0.527,0.488-1.006,0.825-1.436c0.337-0.429,0.711-0.781,1.122-1.056c0.41-0.275,0.814-0.413,1.21-0.413
			c0.242,0,0.44,0.057,0.594,0.171c0.154,0.114,0.279,0.299,0.374,0.556L180.444,93.104z M179.311,93.566
			c-0.279,0-0.566,0.129-0.864,0.385c-0.297,0.258-0.566,0.578-0.808,0.963c-0.242,0.385-0.44,0.799-0.595,1.243
			c-0.153,0.444-0.23,0.856-0.23,1.237c0,0.264,0.055,0.475,0.165,0.633c0.109,0.158,0.26,0.236,0.451,0.236
			c0.168,0,0.344-0.068,0.527-0.203c0.184-0.137,0.361-0.316,0.533-0.539c0.173-0.225,0.336-0.479,0.49-0.766
			c0.153-0.285,0.289-0.58,0.406-0.885c0.118-0.305,0.21-0.604,0.275-0.896c0.066-0.293,0.099-0.557,0.099-0.792
			c0-0.19-0.04-0.341-0.12-0.451C179.56,93.621,179.45,93.566,179.311,93.566z"/>
		<path fill="#450D06" d="M186.031,97.164c-0.308,0.608-0.665,1.074-1.072,1.396s-0.841,0.484-1.304,0.484
			c-0.477,0-0.857-0.164-1.144-0.49s-0.429-0.76-0.429-1.303c0-0.322,0.047-0.652,0.143-0.99s0.224-0.664,0.385-0.979
			c0.161-0.316,0.353-0.613,0.572-0.892s0.455-0.521,0.704-0.726s0.508-0.369,0.775-0.49s0.53-0.182,0.786-0.182
			c0.353,0,0.642,0.096,0.869,0.287c0.228,0.189,0.342,0.428,0.342,0.715c0,0.184-0.054,0.332-0.16,0.445s-0.244,0.17-0.412,0.17
			c-0.169,0-0.307-0.053-0.413-0.159s-0.159-0.237-0.159-0.391c0-0.095,0.015-0.173,0.044-0.231s0.044-0.113,0.044-0.164
			c0-0.104-0.088-0.154-0.264-0.154c-0.242,0-0.488,0.113-0.737,0.341s-0.475,0.521-0.677,0.88c-0.201,0.359-0.366,0.762-0.494,1.205
			c-0.129,0.443-0.193,0.885-0.193,1.325c0,0.353,0.068,0.629,0.204,0.831c0.136,0.201,0.324,0.302,0.566,0.302
			c0.132,0,0.27-0.036,0.412-0.11c0.144-0.072,0.288-0.174,0.435-0.303c0.146-0.127,0.288-0.279,0.424-0.456
			c0.136-0.176,0.259-0.37,0.368-0.583L186.031,97.164z"/>
		<path fill="#450D06" d="M190.861,97.471c-0.638,1.049-1.423,1.573-2.354,1.573c-0.506,0-0.895-0.156-1.166-0.468
			c-0.271-0.312-0.406-0.753-0.406-1.325c0-0.506,0.104-1.012,0.313-1.519c0.209-0.506,0.481-0.962,0.819-1.369
			c0.337-0.407,0.715-0.737,1.133-0.99s0.836-0.38,1.254-0.38c0.353,0,0.64,0.09,0.863,0.27s0.336,0.409,0.336,0.688
			c0,0.258-0.096,0.521-0.286,0.793s-0.449,0.527-0.775,0.77s-0.708,0.462-1.144,0.66c-0.437,0.197-0.9,0.352-1.392,0.462
			c-0.016,0.103-0.026,0.203-0.033,0.302c-0.008,0.1-0.011,0.201-0.011,0.303c0,0.8,0.282,1.199,0.847,1.199
			c0.271,0,0.552-0.105,0.842-0.318c0.289-0.213,0.559-0.506,0.808-0.881L190.861,97.471z M190.234,93.511
			c-0.19,0-0.389,0.073-0.594,0.22c-0.206,0.147-0.401,0.343-0.589,0.589c-0.187,0.246-0.357,0.525-0.512,0.842
			c-0.153,0.314-0.278,0.641-0.374,0.979c0.353-0.096,0.679-0.221,0.979-0.374s0.559-0.328,0.775-0.522
			c0.216-0.194,0.387-0.4,0.512-0.616c0.124-0.216,0.187-0.435,0.187-0.654C190.619,93.666,190.491,93.511,190.234,93.511z"/>
		<path fill="#450D06" d="M199.088,95.271c0.096-0.271,0.171-0.487,0.226-0.648c0.055-0.162,0.097-0.288,0.126-0.38
			s0.048-0.163,0.056-0.214c0.007-0.052,0.011-0.1,0.011-0.144c0-0.213-0.073-0.319-0.22-0.319c-0.198,0-0.433,0.135-0.704,0.402
			s-0.564,0.654-0.88,1.16c-0.11,0.176-0.213,0.354-0.309,0.533c-0.095,0.18-0.197,0.403-0.308,0.671
			c-0.11,0.269-0.238,0.606-0.385,1.018c-0.147,0.411-0.334,0.938-0.562,1.584h-1.034l0.727-2.211
			c0.154-0.47,0.282-0.864,0.385-1.183s0.184-0.584,0.242-0.797s0.101-0.382,0.126-0.506c0.026-0.125,0.039-0.229,0.039-0.309
			c0-0.242-0.092-0.363-0.275-0.363c-0.146,0-0.322,0.084-0.527,0.253c-0.206,0.169-0.415,0.39-0.627,0.66
			c-0.213,0.271-0.417,0.577-0.611,0.919c-0.194,0.341-0.357,0.688-0.489,1.039l-0.924,2.497h-0.968l0.813-2.519
			c0.14-0.426,0.253-0.783,0.341-1.072c0.089-0.291,0.158-0.529,0.21-0.716c0.051-0.187,0.088-0.335,0.109-0.445
			c0.022-0.11,0.033-0.202,0.033-0.274c0-0.206-0.063-0.309-0.188-0.309c-0.08,0-0.174,0.048-0.28,0.143
			c-0.106,0.096-0.214,0.227-0.324,0.391c-0.11,0.165-0.219,0.354-0.324,0.566c-0.106,0.213-0.2,0.437-0.281,0.672l-0.33-0.166
			c0.257-0.755,0.545-1.313,0.864-1.672c0.318-0.359,0.684-0.539,1.094-0.539c0.235,0,0.402,0.066,0.501,0.198
			s0.148,0.353,0.148,0.66c0,0.353-0.063,0.689-0.187,1.013l0.032,0.032c0.683-1.269,1.404-1.903,2.167-1.903
			c0.286,0,0.51,0.087,0.671,0.259c0.162,0.173,0.242,0.413,0.242,0.721c0,0.103-0.013,0.22-0.038,0.353
			c-0.026,0.131-0.075,0.326-0.148,0.582l0.021,0.033c0.205-0.352,0.401-0.65,0.589-0.896c0.187-0.246,0.368-0.445,0.545-0.6
			c0.176-0.154,0.354-0.268,0.533-0.341s0.364-0.11,0.556-0.11c0.286,0,0.5,0.078,0.644,0.231c0.143,0.153,0.214,0.396,0.214,0.726
			c0,0.104-0.011,0.215-0.033,0.336c-0.021,0.121-0.055,0.264-0.099,0.43c-0.044,0.164-0.101,0.355-0.171,0.571
			c-0.069,0.216-0.151,0.472-0.247,0.765c-0.125,0.374-0.224,0.673-0.297,0.896s-0.129,0.401-0.165,0.533
			c-0.037,0.133-0.061,0.23-0.071,0.297c-0.012,0.066-0.017,0.133-0.017,0.198c0,0.14,0.036,0.209,0.109,0.209
			c0.11,0,0.275-0.104,0.495-0.313c0.221-0.209,0.507-0.533,0.858-0.974l0.286,0.154c-0.125,0.241-0.284,0.481-0.479,0.72
			c-0.194,0.239-0.398,0.451-0.61,0.639c-0.213,0.188-0.424,0.34-0.633,0.457s-0.391,0.176-0.545,0.176
			c-0.183,0-0.328-0.079-0.434-0.236c-0.106-0.158-0.16-0.369-0.16-0.633c0-0.088,0.01-0.188,0.027-0.297
			c0.019-0.11,0.059-0.268,0.121-0.473c0.063-0.206,0.15-0.477,0.265-0.814C198.746,96.254,198.898,95.814,199.088,95.271z"/>
		<path fill="#450D06" d="M205.447,97.471c-0.638,1.049-1.423,1.573-2.354,1.573c-0.506,0-0.895-0.156-1.166-0.468
			c-0.271-0.312-0.406-0.753-0.406-1.325c0-0.506,0.104-1.012,0.313-1.519c0.209-0.506,0.481-0.962,0.819-1.369
			c0.337-0.407,0.715-0.737,1.133-0.99s0.836-0.38,1.254-0.38c0.353,0,0.64,0.09,0.863,0.27s0.336,0.409,0.336,0.688
			c0,0.258-0.096,0.521-0.286,0.793s-0.449,0.527-0.775,0.77s-0.708,0.462-1.144,0.66c-0.437,0.197-0.9,0.352-1.392,0.462
			c-0.016,0.103-0.026,0.203-0.033,0.302c-0.008,0.1-0.011,0.201-0.011,0.303c0,0.8,0.282,1.199,0.847,1.199
			c0.271,0,0.552-0.105,0.842-0.318c0.289-0.213,0.559-0.506,0.808-0.881L205.447,97.471z M204.82,93.511
			c-0.19,0-0.389,0.073-0.594,0.22c-0.206,0.147-0.401,0.343-0.589,0.589c-0.187,0.246-0.357,0.525-0.512,0.842
			c-0.153,0.314-0.278,0.641-0.374,0.979c0.353-0.096,0.679-0.221,0.979-0.374s0.559-0.328,0.775-0.522
			c0.216-0.194,0.387-0.4,0.512-0.616c0.124-0.216,0.187-0.435,0.187-0.654C205.205,93.666,205.077,93.511,204.82,93.511z"/>
		<path fill="#450D06" d="M211.056,93.566c-0.176,0-0.376,0.09-0.6,0.27s-0.451,0.418-0.682,0.715
			c-0.231,0.297-0.453,0.637-0.666,1.018c-0.212,0.382-0.392,0.77-0.538,1.166l-0.814,2.2h-0.968l0.813-2.519
			c0.132-0.404,0.242-0.748,0.33-1.035c0.088-0.285,0.16-0.525,0.215-0.72s0.094-0.353,0.115-0.474
			c0.022-0.121,0.033-0.218,0.033-0.291c0-0.197-0.063-0.297-0.188-0.297c-0.08,0-0.176,0.051-0.285,0.154
			c-0.11,0.103-0.223,0.236-0.336,0.401s-0.222,0.354-0.324,0.566c-0.104,0.213-0.191,0.429-0.265,0.649l-0.33-0.166
			c0.257-0.755,0.545-1.313,0.864-1.672c0.318-0.359,0.684-0.539,1.094-0.539c0.235,0,0.402,0.066,0.501,0.198
			s0.148,0.356,0.148,0.671c0,0.375-0.063,0.708-0.187,1.002l0.032,0.032c0.374-0.659,0.754-1.142,1.139-1.446
			s0.805-0.457,1.26-0.457c0.322,0,0.568,0.078,0.737,0.231c0.168,0.153,0.253,0.374,0.253,0.66c0,0.095-0.01,0.202-0.027,0.319
			c-0.019,0.117-0.05,0.258-0.094,0.423s-0.104,0.361-0.182,0.589c-0.077,0.227-0.171,0.506-0.28,0.836
			c-0.169,0.498-0.309,0.916-0.418,1.254c-0.11,0.338-0.165,0.576-0.165,0.715c0,0.109,0.036,0.165,0.109,0.165
			c0.103,0,0.253-0.084,0.451-0.253c0.198-0.168,0.466-0.439,0.803-0.814l0.286,0.154c-0.117,0.221-0.27,0.435-0.456,0.644
			c-0.188,0.209-0.382,0.397-0.583,0.566c-0.202,0.169-0.401,0.305-0.6,0.407s-0.37,0.154-0.517,0.154
			c-0.184,0-0.329-0.081-0.435-0.242c-0.106-0.162-0.16-0.374-0.16-0.639c0-0.102,0.01-0.207,0.027-0.313
			c0.019-0.107,0.058-0.259,0.116-0.457c0.059-0.197,0.145-0.464,0.258-0.797c0.114-0.334,0.27-0.775,0.468-1.326
			c0.066-0.19,0.121-0.352,0.165-0.484c0.044-0.131,0.079-0.247,0.104-0.346c0.025-0.1,0.044-0.186,0.055-0.259
			c0.012-0.073,0.017-0.144,0.017-0.209C211.353,93.702,211.254,93.566,211.056,93.566z"/>
		<path fill="#450D06" d="M215.864,94.017l-0.913,3.025c-0.125,0.396-0.19,0.696-0.198,0.901c0,0.066,0.017,0.125,0.05,0.177
			c0.033,0.051,0.09,0.076,0.171,0.076c0.132,0,0.271-0.049,0.418-0.148c0.146-0.099,0.287-0.216,0.423-0.352
			s0.257-0.275,0.363-0.418s0.186-0.255,0.236-0.336l0.319,0.188c-0.125,0.249-0.282,0.489-0.473,0.721
			c-0.191,0.23-0.393,0.434-0.605,0.609c-0.213,0.177-0.428,0.318-0.644,0.424c-0.217,0.106-0.412,0.16-0.589,0.16
			c-0.256,0-0.441-0.055-0.555-0.166c-0.114-0.109-0.171-0.293-0.171-0.549c0-0.146,0.025-0.346,0.077-0.595
			c0.051-0.249,0.139-0.59,0.264-1.022l0.814-2.695h-0.946l0.143-0.506h0.957l0.572-1.893h1.012l-0.571,1.893h1.199l-0.154,0.506
			H215.864z"/>
		<path fill="#450D06" d="M218.14,94.677c0-0.242,0.046-0.466,0.138-0.672c0.092-0.205,0.218-0.383,0.38-0.533
			c0.161-0.15,0.354-0.268,0.577-0.352s0.468-0.127,0.731-0.127c0.353,0,0.646,0.088,0.88,0.265c0.235,0.176,0.353,0.403,0.353,0.682
			c0,0.154-0.043,0.274-0.127,0.363c-0.084,0.088-0.2,0.132-0.347,0.132c-0.168,0-0.289-0.049-0.362-0.148s-0.136-0.209-0.188-0.33
			c-0.051-0.121-0.106-0.232-0.165-0.336c-0.059-0.102-0.157-0.153-0.297-0.153c-0.161,0-0.297,0.069-0.407,0.209
			c-0.109,0.14-0.165,0.312-0.165,0.517c0,0.242,0.072,0.468,0.215,0.677s0.303,0.427,0.479,0.654s0.336,0.478,0.479,0.748
			c0.143,0.271,0.215,0.591,0.215,0.957c0,0.249-0.054,0.483-0.16,0.704s-0.249,0.412-0.429,0.578
			c-0.18,0.164-0.387,0.295-0.621,0.39c-0.235,0.095-0.478,0.144-0.727,0.144c-0.439,0-0.79-0.096-1.051-0.286
			c-0.26-0.19-0.39-0.44-0.39-0.748c0-0.213,0.049-0.38,0.148-0.501c0.099-0.121,0.232-0.182,0.401-0.182
			c0.315,0,0.495,0.217,0.539,0.649c0.021,0.235,0.061,0.391,0.115,0.468c0.055,0.076,0.167,0.115,0.336,0.115
			c0.264,0,0.473-0.078,0.627-0.236c0.153-0.158,0.23-0.376,0.23-0.654c0-0.293-0.073-0.555-0.22-0.781
			c-0.146-0.228-0.309-0.449-0.484-0.666c-0.176-0.216-0.337-0.445-0.483-0.688C218.213,95.293,218.14,95.008,218.14,94.677z"/>
	</g>
	<g opacity="0.5038" enable-background="new    ">
		<path fill="#450D06" d="M137.959,144.228c-0.28,0.553-0.605,0.977-0.976,1.27s-0.765,0.439-1.185,0.439
			c-0.434,0-0.78-0.148-1.04-0.445c-0.261-0.296-0.391-0.691-0.391-1.184c0-0.294,0.044-0.594,0.13-0.9
			c0.087-0.307,0.204-0.604,0.351-0.891c0.146-0.286,0.32-0.557,0.52-0.81c0.2-0.253,0.414-0.474,0.641-0.66s0.461-0.335,0.705-0.444
			c0.243-0.111,0.481-0.166,0.715-0.166c0.319,0,0.583,0.087,0.79,0.26c0.206,0.174,0.31,0.391,0.31,0.65
			c0,0.167-0.048,0.302-0.145,0.405s-0.222,0.155-0.375,0.155s-0.278-0.049-0.375-0.146s-0.146-0.215-0.146-0.354
			c0-0.087,0.014-0.156,0.04-0.211c0.026-0.053,0.04-0.103,0.04-0.149c0-0.093-0.08-0.14-0.24-0.14c-0.22,0-0.443,0.104-0.67,0.31
			c-0.227,0.207-0.432,0.474-0.614,0.8c-0.184,0.327-0.334,0.691-0.45,1.096c-0.117,0.402-0.175,0.805-0.175,1.205
			c0,0.319,0.062,0.571,0.185,0.754c0.123,0.184,0.295,0.275,0.515,0.275c0.12,0,0.245-0.033,0.375-0.1s0.262-0.158,0.396-0.275
			c0.133-0.116,0.262-0.255,0.385-0.414c0.123-0.16,0.235-0.338,0.335-0.531L137.959,144.228z"/>
		<path fill="#450D06" d="M142.989,140.538h0.83l-0.569,1.53c-0.094,0.253-0.186,0.523-0.275,0.81s-0.17,0.563-0.24,0.83
			c-0.069,0.267-0.125,0.51-0.165,0.729c-0.04,0.221-0.06,0.384-0.06,0.49c0,0.193,0.063,0.29,0.189,0.29
			c0.094,0,0.229-0.097,0.405-0.29s0.375-0.443,0.595-0.75l0.261,0.21c-0.28,0.493-0.582,0.875-0.905,1.146
			c-0.323,0.27-0.635,0.404-0.935,0.404c-0.154,0-0.272-0.059-0.355-0.175s-0.125-0.308-0.125-0.575c0-0.06,0.002-0.129,0.005-0.209
			s0.012-0.188,0.025-0.32l-0.04-0.01c-0.101,0.186-0.219,0.357-0.355,0.515s-0.285,0.294-0.444,0.409
			c-0.16,0.117-0.327,0.207-0.5,0.271c-0.174,0.063-0.344,0.095-0.511,0.095c-0.34,0-0.604-0.128-0.795-0.385
			c-0.189-0.256-0.285-0.611-0.285-1.064c0-0.461,0.097-0.93,0.29-1.41s0.443-0.915,0.75-1.305c0.307-0.391,0.646-0.711,1.021-0.961
			c0.373-0.25,0.74-0.375,1.1-0.375c0.221,0,0.4,0.053,0.54,0.155c0.141,0.104,0.254,0.272,0.34,0.505L142.989,140.538z
			 M141.959,140.958c-0.254,0-0.516,0.116-0.785,0.351c-0.271,0.232-0.516,0.524-0.735,0.875c-0.22,0.35-0.399,0.727-0.54,1.129
			c-0.14,0.404-0.21,0.779-0.21,1.125c0,0.24,0.05,0.432,0.15,0.575c0.1,0.144,0.236,0.216,0.41,0.216
			c0.153,0,0.313-0.063,0.479-0.186s0.328-0.287,0.485-0.49c0.156-0.203,0.305-0.436,0.444-0.695c0.141-0.26,0.264-0.527,0.37-0.805
			c0.106-0.276,0.19-0.549,0.25-0.814c0.061-0.268,0.091-0.507,0.091-0.721c0-0.173-0.037-0.31-0.11-0.41
			C142.186,141.008,142.085,140.958,141.959,140.958z"/>
		<path fill="#450D06" d="M146.688,141.367l-0.83,2.75c-0.113,0.361-0.173,0.635-0.18,0.82c0,0.061,0.016,0.113,0.045,0.16
			c0.03,0.047,0.082,0.07,0.155,0.07c0.12,0,0.246-0.045,0.38-0.135s0.262-0.197,0.385-0.32c0.124-0.123,0.233-0.25,0.33-0.38
			s0.169-0.231,0.215-0.306l0.29,0.17c-0.113,0.228-0.257,0.445-0.43,0.656c-0.174,0.209-0.356,0.395-0.55,0.555
			s-0.389,0.288-0.585,0.385c-0.197,0.097-0.375,0.145-0.535,0.145c-0.233,0-0.401-0.05-0.505-0.149
			c-0.104-0.101-0.155-0.267-0.155-0.5c0-0.134,0.023-0.313,0.07-0.54c0.046-0.227,0.126-0.537,0.24-0.93l0.739-2.451h-0.859
			l0.13-0.459h0.87l0.52-1.721h0.92l-0.52,1.721h1.09l-0.14,0.459H146.688z"/>
		<path fill="#450D06" d="M152.338,140.538h0.83l-0.569,1.53c-0.094,0.253-0.186,0.523-0.275,0.81s-0.17,0.563-0.24,0.83
			c-0.069,0.267-0.125,0.51-0.165,0.729c-0.04,0.221-0.06,0.384-0.06,0.49c0,0.193,0.063,0.29,0.189,0.29
			c0.094,0,0.229-0.097,0.405-0.29s0.375-0.443,0.595-0.75l0.261,0.21c-0.28,0.493-0.582,0.875-0.905,1.146
			c-0.323,0.27-0.635,0.404-0.935,0.404c-0.154,0-0.272-0.059-0.355-0.175s-0.125-0.308-0.125-0.575c0-0.06,0.002-0.129,0.005-0.209
			s0.012-0.188,0.025-0.32l-0.04-0.01c-0.101,0.186-0.219,0.357-0.355,0.515s-0.285,0.294-0.444,0.409
			c-0.16,0.117-0.327,0.207-0.5,0.271c-0.174,0.063-0.344,0.095-0.511,0.095c-0.34,0-0.604-0.128-0.795-0.385
			c-0.189-0.256-0.285-0.611-0.285-1.064c0-0.461,0.097-0.93,0.29-1.41s0.443-0.915,0.75-1.305c0.307-0.391,0.646-0.711,1.021-0.961
			c0.373-0.25,0.74-0.375,1.1-0.375c0.221,0,0.4,0.053,0.54,0.155c0.141,0.104,0.254,0.272,0.34,0.505L152.338,140.538z
			 M151.309,140.958c-0.254,0-0.516,0.116-0.785,0.351c-0.271,0.232-0.516,0.524-0.735,0.875c-0.22,0.35-0.399,0.727-0.54,1.129
			c-0.14,0.404-0.21,0.779-0.21,1.125c0,0.24,0.05,0.432,0.15,0.575c0.1,0.144,0.236,0.216,0.41,0.216
			c0.153,0,0.313-0.063,0.479-0.186s0.328-0.287,0.485-0.49c0.156-0.203,0.305-0.436,0.444-0.695c0.141-0.26,0.264-0.527,0.37-0.805
			c0.106-0.276,0.19-0.549,0.25-0.814c0.061-0.268,0.091-0.507,0.091-0.721c0-0.173-0.037-0.31-0.11-0.41
			C151.536,141.008,151.435,140.958,151.309,140.958z"/>
		<path fill="#450D06" d="M154.458,141.968c0-0.22,0.042-0.423,0.125-0.61c0.084-0.186,0.199-0.348,0.346-0.484
			s0.321-0.244,0.524-0.32c0.204-0.076,0.426-0.115,0.665-0.115c0.32,0,0.587,0.08,0.801,0.24c0.213,0.16,0.319,0.367,0.319,0.62
			c0,0.14-0.038,0.25-0.115,0.33c-0.076,0.08-0.182,0.12-0.314,0.12c-0.153,0-0.264-0.045-0.33-0.135s-0.123-0.19-0.17-0.301
			c-0.047-0.109-0.097-0.211-0.15-0.305c-0.053-0.094-0.144-0.141-0.27-0.141c-0.146,0-0.271,0.064-0.37,0.191
			c-0.1,0.126-0.15,0.283-0.15,0.469c0,0.221,0.065,0.426,0.195,0.615c0.13,0.19,0.275,0.389,0.435,0.596
			c0.16,0.207,0.306,0.434,0.436,0.68s0.195,0.537,0.195,0.87c0,0.227-0.049,0.44-0.146,0.64c-0.097,0.2-0.227,0.375-0.39,0.525
			c-0.164,0.15-0.352,0.268-0.565,0.355c-0.213,0.086-0.434,0.129-0.66,0.129c-0.399,0-0.718-0.086-0.955-0.26
			c-0.236-0.174-0.354-0.4-0.354-0.68c0-0.193,0.045-0.346,0.135-0.455s0.212-0.165,0.365-0.165c0.286,0,0.45,0.196,0.49,0.59
			c0.02,0.214,0.055,0.354,0.104,0.425s0.151,0.105,0.305,0.105c0.24,0,0.431-0.072,0.57-0.215c0.141-0.144,0.21-0.342,0.21-0.596
			c0-0.266-0.066-0.503-0.2-0.709c-0.133-0.207-0.279-0.408-0.439-0.605s-0.307-0.405-0.44-0.625
			C154.526,142.527,154.458,142.267,154.458,141.968z"/>
		<path fill="#450D06" d="M159.848,141.367l-0.83,2.75c-0.113,0.361-0.173,0.635-0.18,0.82c0,0.061,0.016,0.113,0.045,0.16
			c0.03,0.047,0.082,0.07,0.155,0.07c0.12,0,0.246-0.045,0.38-0.135s0.262-0.197,0.385-0.32c0.124-0.123,0.233-0.25,0.33-0.38
			s0.169-0.231,0.215-0.306l0.29,0.17c-0.113,0.228-0.257,0.445-0.43,0.656c-0.174,0.209-0.356,0.395-0.55,0.555
			s-0.389,0.288-0.585,0.385c-0.197,0.097-0.375,0.145-0.535,0.145c-0.233,0-0.401-0.05-0.505-0.149
			c-0.104-0.101-0.155-0.267-0.155-0.5c0-0.134,0.023-0.313,0.07-0.54c0.046-0.227,0.126-0.537,0.24-0.93l0.739-2.451h-0.859
			l0.13-0.459h0.87l0.52-1.721h0.92l-0.52,1.721h1.09l-0.14,0.459H159.848z"/>
		<path fill="#450D06" d="M161.359,141.927c0.073-0.166,0.185-0.338,0.335-0.515s0.313-0.337,0.49-0.479
			c0.177-0.145,0.354-0.262,0.535-0.355c0.18-0.094,0.336-0.141,0.47-0.141c0.16,0,0.276,0.061,0.35,0.18
			c0.073,0.121,0.11,0.314,0.11,0.58c0,0.107-0.005,0.211-0.015,0.311c-0.011,0.1-0.028,0.217-0.056,0.35l0.03,0.03
			c0.08-0.192,0.193-0.384,0.34-0.569c0.146-0.188,0.306-0.352,0.476-0.496c0.17-0.143,0.343-0.26,0.52-0.35s0.342-0.135,0.495-0.135
			c0.193,0,0.354,0.062,0.485,0.186c0.13,0.123,0.194,0.274,0.194,0.455c0,0.173-0.055,0.316-0.165,0.43
			c-0.109,0.113-0.251,0.17-0.425,0.17c-0.106,0-0.191-0.02-0.255-0.061c-0.063-0.039-0.118-0.081-0.165-0.125
			c-0.047-0.043-0.09-0.084-0.13-0.125c-0.04-0.039-0.09-0.06-0.15-0.06c-0.126,0-0.273,0.085-0.439,0.255
			c-0.167,0.17-0.34,0.402-0.521,0.695c-0.18,0.293-0.358,0.637-0.535,1.029c-0.177,0.395-0.338,0.816-0.484,1.271l-0.45,1.38h-0.93
			l0.649-2.07c0.127-0.4,0.231-0.731,0.315-0.994c0.083-0.264,0.148-0.484,0.195-0.66c0.046-0.177,0.078-0.315,0.095-0.416
			c0.017-0.1,0.024-0.186,0.024-0.26c0-0.146-0.05-0.22-0.149-0.22c-0.067,0-0.148,0.026-0.245,0.08s-0.191,0.12-0.285,0.2
			s-0.182,0.17-0.265,0.27c-0.084,0.1-0.146,0.197-0.186,0.291L161.359,141.927z"/>
		<path fill="#450D06" d="M167.559,145.937c-0.227,0-0.438-0.045-0.635-0.135c-0.197-0.09-0.369-0.221-0.516-0.395
			s-0.263-0.385-0.35-0.635s-0.13-0.532-0.13-0.846c0-0.434,0.081-0.859,0.245-1.279c0.163-0.42,0.378-0.794,0.645-1.121
			c0.267-0.326,0.571-0.59,0.915-0.789c0.344-0.2,0.698-0.301,1.065-0.301c0.239,0,0.461,0.045,0.665,0.135
			c0.203,0.091,0.376,0.221,0.52,0.391s0.257,0.373,0.34,0.609c0.084,0.237,0.125,0.499,0.125,0.785c0,0.42-0.083,0.844-0.25,1.271
			c-0.166,0.427-0.385,0.81-0.654,1.149c-0.271,0.34-0.579,0.619-0.926,0.836S167.919,145.937,167.559,145.937z M167.619,145.437
			c0.227,0,0.452-0.116,0.676-0.35c0.223-0.233,0.423-0.528,0.6-0.885c0.177-0.357,0.32-0.745,0.43-1.165
			c0.11-0.421,0.165-0.82,0.165-1.2c0-0.354-0.062-0.597-0.185-0.73c-0.124-0.133-0.292-0.199-0.505-0.199
			c-0.147,0-0.295,0.051-0.445,0.154s-0.292,0.246-0.425,0.426c-0.134,0.18-0.259,0.387-0.375,0.619
			c-0.117,0.234-0.219,0.48-0.306,0.74c-0.086,0.26-0.153,0.525-0.199,0.795c-0.047,0.271-0.07,0.529-0.07,0.775
			c0,0.373,0.06,0.637,0.18,0.79S167.432,145.437,167.619,145.437z"/>
		<path fill="#450D06" d="M171.069,142.088c0.246-0.279,0.522-0.531,0.83-0.755c0.306-0.224,0.63-0.405,0.97-0.545l0.47-1.601h0.76
			l-0.35,1.33c0.106-0.02,0.212-0.036,0.314-0.05c0.104-0.013,0.209-0.021,0.315-0.021c0.566,0,1.007,0.154,1.32,0.461
			s0.47,0.736,0.47,1.289c0,0.44-0.105,0.855-0.315,1.246c-0.21,0.39-0.489,0.738-0.84,1.045c-0.35,0.307-0.753,0.562-1.21,0.765
			c-0.456,0.204-0.932,0.339-1.425,0.405l-0.37,1.39c-0.033,0.101-0.055,0.183-0.064,0.25c-0.011,0.066-0.016,0.126-0.016,0.181
			c0,0.166,0.068,0.283,0.205,0.35s0.379,0.104,0.726,0.109l-0.061,0.4h-2.83l0.061-0.4c0.279,0,0.483-0.033,0.609-0.1
			c0.127-0.066,0.217-0.187,0.271-0.359l1.81-6.181c-0.253,0.134-0.496,0.292-0.729,0.476s-0.45,0.381-0.65,0.594L171.069,142.088z
			 M174.119,140.937c-0.087,0-0.172,0.006-0.255,0.016c-0.084,0.01-0.165,0.021-0.245,0.035l-1.13,4.24
			c0.333-0.067,0.658-0.19,0.975-0.371c0.316-0.18,0.599-0.402,0.845-0.67c0.247-0.266,0.445-0.564,0.596-0.895
			c0.149-0.33,0.225-0.676,0.225-1.035c0-0.4-0.092-0.72-0.275-0.96C174.67,141.058,174.425,140.937,174.119,140.937z"/>
		<path fill="#450D06" d="M180.108,142.728c0.113-0.341,0.195-0.611,0.245-0.811c0.051-0.2,0.075-0.377,0.075-0.53
			s-0.024-0.261-0.075-0.325c-0.05-0.063-0.135-0.095-0.255-0.095c-0.206,0-0.41,0.08-0.609,0.24c-0.2,0.159-0.402,0.409-0.605,0.75
			c-0.203,0.34-0.415,0.773-0.635,1.3c-0.22,0.527-0.454,1.156-0.7,1.891l-0.23,0.689h-0.84l1.98-6.779
			c0.047-0.168,0.083-0.314,0.109-0.441c0.027-0.126,0.04-0.227,0.04-0.299c0-0.134-0.063-0.227-0.189-0.28
			c-0.127-0.054-0.36-0.087-0.7-0.101l0.07-0.399h2.04l-1.141,3.86l0.03,0.02c0.213-0.313,0.46-0.555,0.74-0.725
			s0.573-0.256,0.88-0.256c0.32,0,0.563,0.094,0.729,0.28c0.167,0.187,0.25,0.457,0.25,0.81c0,0.221-0.033,0.477-0.1,0.771
			s-0.17,0.63-0.31,1.011c-0.134,0.359-0.237,0.643-0.311,0.85s-0.127,0.365-0.16,0.475s-0.055,0.186-0.064,0.225
			c-0.01,0.041-0.016,0.074-0.016,0.101c0,0.153,0.063,0.229,0.19,0.229c0.133,0,0.298-0.078,0.495-0.234
			c0.196-0.156,0.395-0.375,0.595-0.655l0.28,0.21c-0.106,0.193-0.238,0.377-0.396,0.551c-0.156,0.173-0.326,0.324-0.51,0.454
			s-0.37,0.233-0.56,0.31c-0.19,0.077-0.369,0.115-0.535,0.115c-0.18,0-0.311-0.05-0.39-0.149c-0.08-0.101-0.12-0.261-0.12-0.479
			c0-0.113,0.01-0.234,0.029-0.361c0.021-0.126,0.056-0.284,0.105-0.475c0.05-0.189,0.12-0.423,0.21-0.699
			C179.843,143.496,179.961,143.148,180.108,142.728z"/>
		<path fill="#450D06" d="M185.999,144.508c-0.58,0.953-1.293,1.43-2.14,1.43c-0.46,0-0.813-0.141-1.061-0.425
			c-0.246-0.283-0.37-0.685-0.37-1.204c0-0.461,0.096-0.921,0.285-1.381c0.19-0.46,0.438-0.875,0.745-1.244
			c0.307-0.371,0.65-0.671,1.03-0.9c0.38-0.23,0.76-0.346,1.14-0.346c0.32,0,0.582,0.082,0.785,0.246
			c0.203,0.162,0.305,0.371,0.305,0.625c0,0.232-0.086,0.473-0.26,0.719c-0.174,0.247-0.408,0.48-0.705,0.701
			c-0.297,0.219-0.644,0.42-1.04,0.6s-0.818,0.32-1.265,0.42c-0.014,0.094-0.023,0.186-0.03,0.275s-0.01,0.182-0.01,0.274
			c0,0.727,0.257,1.09,0.77,1.09c0.247,0,0.502-0.097,0.766-0.29c0.263-0.193,0.508-0.46,0.734-0.8L185.999,144.508z
			 M185.428,140.908c-0.173,0-0.354,0.066-0.54,0.199c-0.187,0.134-0.364,0.313-0.534,0.535c-0.171,0.224-0.325,0.479-0.466,0.766
			c-0.14,0.287-0.253,0.583-0.34,0.89c0.32-0.087,0.617-0.2,0.891-0.34c0.272-0.14,0.508-0.298,0.705-0.476
			c0.196-0.176,0.352-0.363,0.465-0.56s0.17-0.396,0.17-0.595C185.779,141.048,185.662,140.908,185.428,140.908z"/>
		<path fill="#450D06" d="M187.618,141.968c0-0.22,0.042-0.423,0.125-0.61c0.084-0.186,0.199-0.348,0.346-0.484
			s0.321-0.244,0.524-0.32c0.204-0.076,0.426-0.115,0.665-0.115c0.32,0,0.587,0.08,0.801,0.24c0.213,0.16,0.319,0.367,0.319,0.62
			c0,0.14-0.038,0.25-0.115,0.33c-0.076,0.08-0.182,0.12-0.314,0.12c-0.153,0-0.264-0.045-0.33-0.135s-0.123-0.19-0.17-0.301
			c-0.047-0.109-0.097-0.211-0.15-0.305c-0.053-0.094-0.144-0.141-0.27-0.141c-0.146,0-0.271,0.064-0.37,0.191
			c-0.1,0.126-0.15,0.283-0.15,0.469c0,0.221,0.065,0.426,0.195,0.615c0.13,0.19,0.275,0.389,0.435,0.596
			c0.16,0.207,0.306,0.434,0.436,0.68s0.195,0.537,0.195,0.87c0,0.227-0.049,0.44-0.146,0.64c-0.097,0.2-0.227,0.375-0.39,0.525
			c-0.164,0.15-0.352,0.268-0.565,0.355c-0.213,0.086-0.434,0.129-0.66,0.129c-0.399,0-0.718-0.086-0.955-0.26
			c-0.236-0.174-0.354-0.4-0.354-0.68c0-0.193,0.045-0.346,0.135-0.455s0.212-0.165,0.365-0.165c0.286,0,0.45,0.196,0.49,0.59
			c0.02,0.214,0.055,0.354,0.104,0.425s0.151,0.105,0.305,0.105c0.24,0,0.431-0.072,0.57-0.215c0.141-0.144,0.21-0.342,0.21-0.596
			c0-0.266-0.066-0.503-0.2-0.709c-0.133-0.207-0.279-0.408-0.439-0.605s-0.307-0.405-0.44-0.625
			C187.685,142.527,187.618,142.267,187.618,141.968z"/>
		<path fill="#450D06" d="M197.409,140.958c-0.16,0-0.342,0.081-0.545,0.245c-0.203,0.163-0.41,0.38-0.62,0.65
			c-0.21,0.27-0.412,0.578-0.604,0.924c-0.194,0.348-0.357,0.701-0.49,1.061l-0.74,2h-0.88l0.74-2.29c0.12-0.366,0.22-0.681,0.3-0.94
			s0.145-0.479,0.195-0.654c0.05-0.177,0.085-0.32,0.104-0.43c0.021-0.11,0.03-0.199,0.03-0.266c0-0.18-0.057-0.27-0.17-0.27
			c-0.074,0-0.16,0.047-0.261,0.14c-0.1,0.093-0.201,0.215-0.305,0.364c-0.104,0.15-0.201,0.322-0.295,0.516s-0.174,0.391-0.24,0.59
			l-0.3-0.15c0.233-0.686,0.495-1.193,0.785-1.52s0.621-0.49,0.995-0.49c0.213,0,0.365,0.061,0.455,0.18
			c0.09,0.121,0.135,0.324,0.135,0.611c0,0.34-0.057,0.643-0.17,0.909l0.03,0.03c0.34-0.6,0.685-1.039,1.034-1.314
			c0.351-0.277,0.732-0.416,1.146-0.416c0.293,0,0.517,0.07,0.67,0.211c0.153,0.14,0.23,0.34,0.23,0.6
			c0,0.086-0.009,0.184-0.025,0.29s-0.045,0.235-0.085,0.385s-0.095,0.329-0.165,0.535s-0.155,0.46-0.255,0.76
			c-0.153,0.454-0.28,0.833-0.38,1.14c-0.101,0.307-0.15,0.523-0.15,0.65c0,0.1,0.033,0.15,0.1,0.15c0.094,0,0.23-0.076,0.41-0.23
			c0.181-0.153,0.424-0.4,0.73-0.74l0.26,0.141c-0.106,0.199-0.245,0.395-0.415,0.585s-0.347,0.361-0.53,0.515
			c-0.183,0.154-0.364,0.277-0.545,0.37c-0.18,0.093-0.336,0.14-0.47,0.14c-0.167,0-0.299-0.073-0.395-0.22
			c-0.097-0.146-0.146-0.34-0.146-0.58c0-0.093,0.009-0.188,0.025-0.284c0.017-0.098,0.051-0.236,0.104-0.416
			s0.132-0.422,0.235-0.725s0.245-0.705,0.425-1.205c0.06-0.174,0.11-0.32,0.15-0.439c0.04-0.121,0.071-0.226,0.095-0.315
			s0.04-0.169,0.05-0.235s0.015-0.13,0.015-0.189C197.678,141.082,197.588,140.958,197.409,140.958z"/>
		<path fill="#450D06" d="M203.778,140.538h0.83l-0.569,1.53c-0.094,0.253-0.186,0.523-0.275,0.81s-0.17,0.563-0.24,0.83
			c-0.069,0.267-0.125,0.51-0.165,0.729c-0.04,0.221-0.06,0.384-0.06,0.49c0,0.193,0.063,0.29,0.189,0.29
			c0.094,0,0.229-0.097,0.405-0.29s0.375-0.443,0.595-0.75l0.261,0.21c-0.28,0.493-0.582,0.875-0.905,1.146
			c-0.323,0.27-0.635,0.404-0.935,0.404c-0.154,0-0.272-0.059-0.355-0.175s-0.125-0.308-0.125-0.575c0-0.06,0.002-0.129,0.005-0.209
			s0.012-0.188,0.025-0.32l-0.04-0.01c-0.101,0.186-0.219,0.357-0.355,0.515s-0.285,0.294-0.444,0.409
			c-0.16,0.117-0.327,0.207-0.5,0.271c-0.174,0.063-0.344,0.095-0.511,0.095c-0.34,0-0.604-0.128-0.795-0.385
			c-0.189-0.256-0.285-0.611-0.285-1.064c0-0.461,0.097-0.93,0.29-1.41s0.443-0.915,0.75-1.305c0.307-0.391,0.646-0.711,1.021-0.961
			c0.373-0.25,0.74-0.375,1.1-0.375c0.221,0,0.4,0.053,0.54,0.155c0.141,0.104,0.254,0.272,0.34,0.505L203.778,140.538z
			 M202.749,140.958c-0.254,0-0.516,0.116-0.785,0.351c-0.271,0.232-0.516,0.524-0.735,0.875c-0.22,0.35-0.399,0.727-0.54,1.129
			c-0.14,0.404-0.21,0.779-0.21,1.125c0,0.24,0.05,0.432,0.15,0.575c0.1,0.144,0.236,0.216,0.41,0.216
			c0.153,0,0.313-0.063,0.479-0.186s0.328-0.287,0.485-0.49c0.156-0.203,0.305-0.436,0.444-0.695c0.141-0.26,0.264-0.527,0.37-0.805
			c0.106-0.276,0.19-0.549,0.25-0.814c0.061-0.268,0.091-0.507,0.091-0.721c0-0.173-0.037-0.31-0.11-0.41
			C202.975,141.008,202.875,140.958,202.749,140.958z"/>
		<path fill="#450D06" d="M207.478,141.367l-0.83,2.75c-0.113,0.361-0.173,0.635-0.18,0.82c0,0.061,0.016,0.113,0.045,0.16
			c0.03,0.047,0.082,0.07,0.155,0.07c0.12,0,0.246-0.045,0.38-0.135s0.262-0.197,0.385-0.32c0.124-0.123,0.233-0.25,0.33-0.38
			s0.169-0.231,0.215-0.306l0.29,0.17c-0.113,0.228-0.257,0.445-0.43,0.656c-0.174,0.209-0.356,0.395-0.55,0.555
			s-0.389,0.288-0.585,0.385c-0.197,0.097-0.375,0.145-0.535,0.145c-0.233,0-0.401-0.05-0.505-0.149
			c-0.104-0.101-0.155-0.267-0.155-0.5c0-0.134,0.023-0.313,0.07-0.54c0.046-0.227,0.126-0.537,0.24-0.93l0.739-2.451h-0.859
			l0.13-0.459h0.87l0.52-1.721h0.92l-0.52,1.721h1.09l-0.14,0.459H207.478z"/>
		<path fill="#450D06" d="M210.468,145.218c0.106,0,0.246-0.075,0.42-0.226c0.173-0.149,0.356-0.35,0.55-0.6s0.382-0.535,0.564-0.854
			c0.184-0.32,0.339-0.653,0.466-1l0.739-2h0.931l-0.74,2.29c-0.106,0.333-0.197,0.618-0.271,0.855
			c-0.073,0.236-0.133,0.436-0.18,0.6c-0.047,0.163-0.08,0.297-0.1,0.4c-0.021,0.103-0.03,0.184-0.03,0.244
			c0,0.174,0.06,0.26,0.18,0.26c0.066,0,0.146-0.031,0.24-0.095s0.188-0.149,0.285-0.26s0.189-0.233,0.28-0.37
			c0.09-0.137,0.168-0.281,0.234-0.436l0.3,0.15c-0.086,0.221-0.199,0.436-0.34,0.645c-0.14,0.211-0.291,0.398-0.455,0.565
			c-0.163,0.167-0.335,0.3-0.515,0.4c-0.18,0.1-0.356,0.149-0.53,0.149c-0.206,0-0.347-0.073-0.42-0.22s-0.109-0.356-0.109-0.63
			c0-0.113,0.005-0.234,0.015-0.365c0.01-0.13,0.028-0.258,0.055-0.385l-0.029-0.029c-0.181,0.319-0.355,0.582-0.525,0.789
			s-0.335,0.373-0.495,0.5s-0.316,0.215-0.47,0.266c-0.153,0.05-0.304,0.074-0.45,0.074c-0.313,0-0.532-0.086-0.655-0.26
			s-0.185-0.387-0.185-0.64c0-0.28,0.053-0.589,0.16-0.925c0.106-0.337,0.22-0.655,0.34-0.955c0.12-0.301,0.222-0.554,0.305-0.76
			c0.083-0.207,0.15-0.381,0.2-0.521s0.087-0.253,0.11-0.34c0.022-0.087,0.034-0.157,0.034-0.21c0-0.027-0.005-0.052-0.015-0.075
			s-0.035-0.035-0.075-0.035c-0.087,0-0.212,0.077-0.375,0.229c-0.163,0.154-0.385,0.4-0.665,0.74l-0.26-0.14
			c0.1-0.193,0.227-0.387,0.38-0.58s0.316-0.366,0.49-0.521c0.173-0.152,0.354-0.275,0.54-0.369s0.36-0.141,0.52-0.141
			c0.334,0,0.5,0.193,0.5,0.58c0,0.234-0.064,0.535-0.194,0.905s-0.299,0.812-0.505,1.325c-0.134,0.326-0.244,0.619-0.33,0.88
			c-0.087,0.26-0.13,0.497-0.13,0.71c0,0.141,0.02,0.238,0.06,0.295S210.408,145.218,210.468,145.218z"/>
		<path fill="#450D06" d="M214.917,141.927c0.073-0.166,0.185-0.338,0.335-0.515s0.313-0.337,0.49-0.479
			c0.177-0.145,0.354-0.262,0.535-0.355c0.18-0.094,0.336-0.141,0.47-0.141c0.16,0,0.276,0.061,0.35,0.18
			c0.073,0.121,0.11,0.314,0.11,0.58c0,0.107-0.005,0.211-0.015,0.311c-0.011,0.1-0.028,0.217-0.056,0.35l0.03,0.03
			c0.08-0.192,0.193-0.384,0.34-0.569c0.146-0.188,0.306-0.352,0.476-0.496c0.17-0.143,0.343-0.26,0.52-0.35s0.342-0.135,0.495-0.135
			c0.193,0,0.354,0.062,0.485,0.186c0.13,0.123,0.194,0.274,0.194,0.455c0,0.173-0.055,0.316-0.165,0.43
			c-0.109,0.113-0.251,0.17-0.425,0.17c-0.106,0-0.191-0.02-0.255-0.061c-0.063-0.039-0.118-0.081-0.165-0.125
			c-0.047-0.043-0.09-0.084-0.13-0.125c-0.04-0.039-0.09-0.06-0.15-0.06c-0.126,0-0.273,0.085-0.439,0.255
			c-0.167,0.17-0.34,0.402-0.521,0.695c-0.18,0.293-0.358,0.637-0.535,1.029c-0.177,0.395-0.338,0.816-0.484,1.271l-0.45,1.38h-0.93
			l0.649-2.07c0.127-0.4,0.231-0.731,0.315-0.994c0.083-0.264,0.148-0.484,0.195-0.66c0.046-0.177,0.078-0.315,0.095-0.416
			c0.017-0.1,0.024-0.186,0.024-0.26c0-0.146-0.05-0.22-0.149-0.22c-0.067,0-0.148,0.026-0.245,0.08s-0.191,0.12-0.285,0.2
			s-0.182,0.17-0.265,0.27c-0.084,0.1-0.146,0.197-0.186,0.291L214.917,141.927z"/>
		<path fill="#450D06" d="M222.898,144.508c-0.58,0.953-1.293,1.43-2.14,1.43c-0.46,0-0.813-0.141-1.061-0.425
			c-0.246-0.283-0.37-0.685-0.37-1.204c0-0.461,0.096-0.921,0.285-1.381c0.19-0.46,0.438-0.875,0.745-1.244
			c0.307-0.371,0.65-0.671,1.03-0.9c0.38-0.23,0.76-0.346,1.14-0.346c0.32,0,0.582,0.082,0.785,0.246
			c0.203,0.162,0.305,0.371,0.305,0.625c0,0.232-0.086,0.473-0.26,0.719c-0.174,0.247-0.408,0.48-0.705,0.701
			c-0.297,0.219-0.644,0.42-1.04,0.6s-0.818,0.32-1.265,0.42c-0.014,0.094-0.023,0.186-0.03,0.275s-0.01,0.182-0.01,0.274
			c0,0.727,0.257,1.09,0.77,1.09c0.247,0,0.502-0.097,0.766-0.29c0.263-0.193,0.508-0.46,0.734-0.8L222.898,144.508z
			 M222.328,140.908c-0.173,0-0.354,0.066-0.54,0.199c-0.187,0.134-0.364,0.313-0.534,0.535c-0.171,0.224-0.325,0.479-0.466,0.766
			c-0.14,0.287-0.253,0.583-0.34,0.89c0.32-0.087,0.617-0.2,0.891-0.34c0.272-0.14,0.508-0.298,0.705-0.476
			c0.196-0.176,0.352-0.363,0.465-0.56s0.17-0.396,0.17-0.595C222.678,141.048,222.561,140.908,222.328,140.908z"/>
		<path fill="#450D06" d="M225.578,138.927c0.033-0.119,0.066-0.241,0.1-0.365c0.033-0.123,0.051-0.215,0.051-0.274
			c0-0.233-0.254-0.351-0.761-0.351l0.08-0.3l1.83-0.09l-1.79,6.569c-0.054,0.181-0.094,0.34-0.12,0.476
			c-0.026,0.137-0.04,0.252-0.04,0.345c0,0.061,0.017,0.113,0.051,0.16c0.033,0.047,0.086,0.07,0.159,0.07
			c0.106,0,0.221-0.045,0.341-0.135c0.119-0.09,0.234-0.197,0.345-0.32c0.109-0.123,0.208-0.25,0.295-0.38s0.149-0.231,0.189-0.306
			l0.301,0.17c-0.101,0.228-0.23,0.445-0.391,0.656c-0.16,0.209-0.33,0.395-0.51,0.555s-0.361,0.288-0.545,0.385
			s-0.352,0.145-0.505,0.145c-0.233,0-0.405-0.05-0.516-0.149c-0.109-0.101-0.164-0.267-0.164-0.5c0-0.134,0.02-0.313,0.06-0.54
			s0.11-0.537,0.21-0.93L225.578,138.927z"/>
		<path fill="#450D06" d="M228.708,138.927c0.033-0.119,0.066-0.241,0.1-0.365c0.033-0.123,0.051-0.215,0.051-0.274
			c0-0.233-0.254-0.351-0.761-0.351l0.08-0.3l1.83-0.09l-1.79,6.569c-0.054,0.181-0.094,0.34-0.12,0.476
			c-0.026,0.137-0.04,0.252-0.04,0.345c0,0.061,0.017,0.113,0.051,0.16c0.033,0.047,0.086,0.07,0.159,0.07
			c0.106,0,0.221-0.045,0.341-0.135c0.119-0.09,0.234-0.197,0.345-0.32c0.109-0.123,0.208-0.25,0.295-0.38s0.149-0.231,0.189-0.306
			l0.301,0.17c-0.101,0.228-0.23,0.445-0.391,0.656c-0.16,0.209-0.33,0.395-0.51,0.555s-0.361,0.288-0.545,0.385
			s-0.352,0.145-0.505,0.145c-0.233,0-0.405-0.05-0.516-0.149c-0.109-0.101-0.164-0.267-0.164-0.5c0-0.134,0.02-0.313,0.06-0.54
			s0.11-0.537,0.21-0.93L228.708,138.927z"/>
		<path fill="#450D06" d="M233.717,144.508c-0.58,0.953-1.293,1.43-2.14,1.43c-0.46,0-0.813-0.141-1.061-0.425
			c-0.246-0.283-0.37-0.685-0.37-1.204c0-0.461,0.096-0.921,0.285-1.381c0.19-0.46,0.438-0.875,0.745-1.244
			c0.307-0.371,0.65-0.671,1.03-0.9c0.38-0.23,0.76-0.346,1.14-0.346c0.32,0,0.582,0.082,0.785,0.246
			c0.203,0.162,0.305,0.371,0.305,0.625c0,0.232-0.086,0.473-0.26,0.719c-0.174,0.247-0.408,0.48-0.705,0.701
			c-0.297,0.219-0.644,0.42-1.04,0.6s-0.818,0.32-1.265,0.42c-0.014,0.094-0.023,0.186-0.03,0.275s-0.01,0.182-0.01,0.274
			c0,0.727,0.257,1.09,0.77,1.09c0.247,0,0.502-0.097,0.766-0.29c0.263-0.193,0.508-0.46,0.734-0.8L233.717,144.508z
			 M233.147,140.908c-0.173,0-0.354,0.066-0.54,0.199c-0.187,0.134-0.364,0.313-0.534,0.535c-0.171,0.224-0.325,0.479-0.466,0.766
			c-0.14,0.287-0.253,0.583-0.34,0.89c0.32-0.087,0.617-0.2,0.891-0.34c0.272-0.14,0.508-0.298,0.705-0.476
			c0.196-0.176,0.352-0.363,0.465-0.56s0.17-0.396,0.17-0.595C233.498,141.048,233.38,140.908,233.147,140.908z"/>
		<path fill="#450D06" d="M235.337,141.968c0-0.22,0.042-0.423,0.125-0.61c0.084-0.186,0.199-0.348,0.346-0.484
			s0.321-0.244,0.524-0.32c0.204-0.076,0.426-0.115,0.665-0.115c0.32,0,0.587,0.08,0.801,0.24c0.213,0.16,0.319,0.367,0.319,0.62
			c0,0.14-0.038,0.25-0.115,0.33c-0.076,0.08-0.182,0.12-0.314,0.12c-0.153,0-0.264-0.045-0.33-0.135s-0.123-0.19-0.17-0.301
			c-0.047-0.109-0.097-0.211-0.15-0.305c-0.053-0.094-0.144-0.141-0.27-0.141c-0.146,0-0.271,0.064-0.37,0.191
			c-0.1,0.126-0.15,0.283-0.15,0.469c0,0.221,0.065,0.426,0.195,0.615c0.13,0.19,0.275,0.389,0.435,0.596
			c0.16,0.207,0.306,0.434,0.436,0.68s0.195,0.537,0.195,0.87c0,0.227-0.049,0.44-0.146,0.64c-0.097,0.2-0.227,0.375-0.39,0.525
			c-0.164,0.15-0.352,0.268-0.565,0.355c-0.213,0.086-0.434,0.129-0.66,0.129c-0.399,0-0.718-0.086-0.955-0.26
			c-0.236-0.174-0.354-0.4-0.354-0.68c0-0.193,0.045-0.346,0.135-0.455s0.212-0.165,0.365-0.165c0.286,0,0.45,0.196,0.49,0.59
			c0.02,0.214,0.055,0.354,0.104,0.425s0.151,0.105,0.305,0.105c0.24,0,0.431-0.072,0.57-0.215c0.141-0.144,0.21-0.342,0.21-0.596
			c0-0.266-0.066-0.503-0.2-0.709c-0.133-0.207-0.279-0.408-0.439-0.605s-0.307-0.405-0.44-0.625
			C235.405,142.527,235.337,142.267,235.337,141.968z"/>
	</g>



<path class="boom" fill-rule="evenodd" clip-rule="evenodd" fill="rgba(64,0,0,0.6)" d="M194.894,30.967c-1.563-1.336-3.125-2.672-4.7-4.018
	c-1.13,2.229-2.252,4.441-3.396,6.695c-0.653-2.715-1.295-5.383-1.943-8.08c-2.469,0.918-4.923,1.833-7.377,2.746
	c-0.009-0.009-0.016-0.018-0.024-0.027c1.406-1.714,2.811-3.427,4.242-5.17c-1.965-0.271-3.896-0.537-5.829-0.805
	c-0.002-0.012-0.003-0.023-0.005-0.035c1.987-0.669,3.975-1.338,5.998-2.02l-5.457-6.313c0.005-0.012,0.011-0.024,0.017-0.036
	c2.967,0.7,5.935,1.4,8.92,2.104c0.323-2.58,0.642-5.135,0.962-7.691l0.036-0.004c1.067,2.175,2.133,4.352,3.212,6.553
	c1.72-1.761,3.421-3.505,5.125-5.25l0.032,0.02c-0.665,2.307-1.329,4.613-2.001,6.947c2.666-0.109,5.299-0.215,7.933-0.322
	c0.005,0.014,0.012,0.027,0.018,0.041c-2.214,1.587-4.427,3.174-6.657,4.77c2.419,1.871,4.822,3.729,7.226,5.588
	c-0.006,0.01-0.011,0.021-0.016,0.031c-2.797-0.509-5.594-1.018-8.422-1.533c0.726,1.95,1.438,3.866,2.15,5.783
	C194.921,30.948,194.908,30.957,194.894,30.967"/>
<path class="wave" fill-rule="evenodd" clip-rule="evenodd" fill="rgba(64,0,0,0.6)" d="M193.956,135.06h-23.749
	c-0.022-0.026-0.045-0.055-0.068-0.079c0.083-0.051,0.181-0.085,0.248-0.148c3.982-3.785,7.966-7.57,11.939-11.364
	c2.186-2.085,4.795-3.347,7.865-3.707c3.569-0.418,6.852,0.319,9.784,2.335c0.461,0.318,0.879,0.691,1.315,1.042
	c0.059,0.047,0.106,0.107,0.177,0.185c-3.121,0.124-5.565,1.372-7.179,3.889C192.672,129.731,192.655,132.374,193.956,135.06"/>
<path class="house" fill-rule="evenodd" clip-rule="evenodd" fill="rgba(64,0,0,0.6)" d="M201.151,135.052h-2.47v-0.376
	c0-1.03-0.002-2.063,0.003-3.096c0-0.091,0.026-0.209,0.09-0.27c1.014-0.976,2.036-1.946,3.097-2.955
	c0.264,0.26,0.509,0.509,0.759,0.749c0.748,0.717,1.5,1.426,2.245,2.144c0.07,0.065,0.146,0.164,0.147,0.247
	c0.008,1.181,0.006,2.358,0.006,3.557h-2.46"/>
<circle opacity="0.6" fill="#37060E" cx="71.266" cy="50.02" r="7.121"/>
<path opacity="0.6" fill-rule="evenodd" clip-rule="evenodd" fill="#37060E" d="M85.484,95.64h-6.953
	c-0.152,1.669-0.3,3.288-0.447,4.906c-0.338,3.718-0.676,7.438-1.014,11.157c-0.162,1.791-0.327,3.584-0.477,5.378
	c-0.127,1.515-0.941,2.505-2.318,2.78c-1.76,0.354-3.486-1.096-3.331-2.828c0.46-5.155,0.938-10.311,1.406-15.469
	c0.178-1.958,0.345-3.913,0.522-5.916h-10.9c2.998-5.704,5.956-11.332,8.945-17.021c-0.381,0.107-0.689,0.229-1.008,0.278
	c-0.654,0.1-1.257-0.067-1.795-0.437c-2.789-1.925-5.588-3.839-8.361-5.786c-1.254-0.88-1.389-2.582-0.305-3.615
	c2.4-2.293,4.791-4.598,7.255-6.83c1.942-1.76,4.27-2.44,6.912-1.833c1.337,0.308,2.396,1.052,3.155,2.155
	c3.279,4.765,6.568,9.523,9.809,14.311c2.14,3.163,1.727,7.3-0.943,10.072c-0.329,0.34-0.43,0.669-0.406,1.132
	c0.125,2.389,0.205,4.781,0.297,7.172C85.531,95.361,85.503,95.476,85.484,95.64 M65.245,70.592
	c1.998,1.385,4.128,2.862,6.317,4.381c-0.68-2.913-1.347-5.778-2.055-8.82C68.029,67.691,66.647,69.131,65.245,70.592"/>
<g class="arrows">
	<line opacity="0.6" fill="none" stroke="#37060E" stroke-miterlimit="10" x1="177.59" y1="73.872" x2="192.162" y2="73.872"/>
	<line opacity="0.6" fill="none" stroke="#37060E" stroke-miterlimit="10" x1="177.59" y1="82.875" x2="192.162" y2="82.875"/>
	<polygon opacity="0.6" fill-rule="evenodd" clip-rule="evenodd" fill="#37060E" points="192.162,79.349 192.162,86.401 
		198.587,82.875 "/>
	<polygon opacity="0.6" fill-rule="evenodd" clip-rule="evenodd" fill="#37060E" points="192.162,70.346 192.162,77.398 
		198.587,73.872 "/>	
</g>

</svg>
