<?xml version="1.0" encoding="utf-8"?>
<!-- Generator: Adobe Illustrator 16.0.0, SVG Export Plug-In . SVG Version: 6.00 Build 0)  -->
<!DOCTYPE svg PUBLIC "-//W3C//DTD SVG 1.1//EN" "http://www.w3.org/Graphics/SVG/1.1/DTD/svg11.dtd">
<svg version="1.1" id="Capa_1" xmlns="http://www.w3.org/2000/svg" xmlns:xlink="http://www.w3.org/1999/xlink" x="0px" y="0px"
	 width="196px" height="162px" viewBox="0 0 196 162" enable-background="new 0 0 196 162" xml:space="preserve">
<title>Group 33</title>
<desc>Created with Sketch.</desc>
<text data--75-bottom="opacity:0;" data--100-bottom="opacity:1;" transform="matrix(1 0 0 1 130.0977 116.7148)" fill="#712704" font-family="'Libre Baskerville'" font-size="12" style="font-style: italic;">ha sufrido </text>
<text data--75-bottom="opacity:0;" data--100-bottom="opacity:1;" transform="matrix(1 0 0 1 130.0977 131.7148)" fill="#712704" font-family="'Libre Baskerville'" font-size="12" style="font-style: italic;">violencia</text>
<text data--75-bottom="opacity:0;" data--100-bottom="opacity:1;" transform="matrix(1 0 0 1 130.0977 146.7148)" fill="#712704" font-family="'Libre Baskerville'" font-size="12" style="font-style: italic;">sexual</text>
<g id="Group-6" data--25-bottom="opacity:0;" data--50-bottom="opacity:1;" transform="translate(0.061303, 0.572127)">
	<g id="Clip-5">
	</g>
	<defs>
		<filter id="Adobe_OpacityMaskFilter" filterUnits="userSpaceOnUse" x="62.153" y="-0.175" width="53.613" height="74.737">
			<feColorMatrix  type="matrix" values="1 0 0 0 0  0 1 0 0 0  0 0 1 0 0  0 0 0 1 0"/>
		</filter>
	</defs>
	<mask maskUnits="userSpaceOnUse" x="62.153" y="-0.175" width="53.613" height="74.737" id="mask-2">
		<g filter="url(#Adobe_OpacityMaskFilter)">
			<path id="path-1" fill="#FFFFFF" d="M115.766-0.174H62.153v74.736h53.613V-0.174L115.766-0.174z"/>
		</g>
	</mask>
	<path id="Fill-4" fill="rgba(64,0,0,0.2)" d="M97.317,44.895c-2.626,1.213-5.438,1.829-8.357,1.829
		c-9.808,0-18.304-7.317-19.762-17.02c-0.148-0.989-0.224-2.001-0.224-3.012c0-11.045,8.966-20.031,19.986-20.031
		c11.021,0,19.985,8.986,19.985,20.031C108.945,34.485,104.38,41.631,97.317,44.895 M88.959-0.175
		c-14.781,0-26.806,12.053-26.806,26.867c0,1.35,0.101,2.705,0.3,4.029c1.785,11.879,11.428,21.089,23.097,22.612v5.601h-6.991
		v6.835h6.991v8.792h6.82V65.77h6.99v-6.835h-6.99v-5.597c2.697-0.342,5.312-1.083,7.802-2.234
		c9.473-4.377,15.594-13.959,15.594-24.411C115.766,11.878,103.739-0.175,88.959-0.175"/>
</g>
<g id="Group-14" data--125-bottom="opacity:0;" data--150-bottom="opacity:1;" transform="translate(61.440613, 0.572127)">
	<g id="Clip-13">
	</g>
	<defs>
		<filter id="Adobe_OpacityMaskFilter_1_" filterUnits="userSpaceOnUse" x="62.696" y="-0.175" width="53.612" height="74.737">
			<feColorMatrix  type="matrix" values="1 0 0 0 0  0 1 0 0 0  0 0 1 0 0  0 0 0 1 0"/>
		</filter>
	</defs>
	<mask maskUnits="userSpaceOnUse" x="62.696" y="-0.175" width="53.612" height="74.737" id="mask-4">
		<g filter="url(#Adobe_OpacityMaskFilter_1_)">
			<path id="path-3" fill="#FFFFFF" d="M116.308-0.174H62.696v74.736h53.612V-0.174L116.308-0.174z"/>
		</g>
	</mask>
	<path id="Fill-12" fill="rgba(64,0,0,0.6)" d="M97.859,44.895
		c-2.626,1.213-5.438,1.829-8.357,1.829c-9.809,0-18.304-7.317-19.763-17.02c-0.147-0.989-0.223-2.001-0.223-3.012
		c0-11.045,8.965-20.031,19.985-20.031s19.985,8.986,19.985,20.031C109.487,34.485,104.923,41.631,97.859,44.895 M89.502-0.175
		c-14.78,0-26.806,12.053-26.806,26.867c0,1.35,0.1,2.705,0.299,4.029c1.785,11.879,11.429,21.089,23.097,22.612v5.601h-6.99v6.835
		h6.99v8.792h6.821V65.77h6.989v-6.835h-6.989v-5.597c2.697-0.342,5.312-1.083,7.802-2.234c9.473-4.377,15.594-13.959,15.594-24.411
		C116.308,11.878,104.282-0.175,89.502-0.175"/>
</g>
<path data--75-bottom="opacity:0;" data--100-bottom="opacity:1;" id="Line" fill="none" stroke="#902F01" stroke-linecap="square" stroke-opacity="0.6986" d="M151.098,82.714v20.5"/>
<g data-bottom="opacity:0;" data--50-bottom="opacity:1;" id="Group-6_1_" transform="translate(0.061303, 0.572127)">
	<g id="Clip-5_1_">
	</g>
	<defs>
		<filter id="Adobe_OpacityMaskFilter_2_" filterUnits="userSpaceOnUse" x="0.036" y="0.428" width="53.612" height="74.737">
			<feColorMatrix  type="matrix" values="1 0 0 0 0  0 1 0 0 0  0 0 1 0 0  0 0 0 1 0"/>
		</filter>
	</defs>
	<mask maskUnits="userSpaceOnUse" x="0.036" y="0.428" width="53.612" height="74.737" id="mask-2_1_">
		<g filter="url(#Adobe_OpacityMaskFilter_2_)">
			<path id="path-1_1_" fill="#FFFFFF" d="M53.649,0.428H0.036v74.737h53.612V0.428L53.649,0.428z"/>
		</g>
	</mask>
	<path id="Fill-4_1_" fill="rgba(64,0,0,0.2)" d="M35.199,45.498
		c-2.626,1.213-5.438,1.829-8.357,1.829c-9.808,0-18.304-7.317-19.763-17.02c-0.147-0.989-0.223-2.001-0.223-3.012
		c0-11.045,8.965-20.031,19.985-20.031s19.985,8.986,19.985,20.031C46.827,35.088,42.263,42.234,35.199,45.498 M26.842,0.428
		c-14.78,0-26.806,12.053-26.806,26.867c0,1.35,0.1,2.705,0.299,4.029C2.12,43.204,11.764,52.413,23.433,53.936v5.601h-6.991v6.835
		h6.991v8.793h6.82v-8.793h6.989v-6.835h-6.989V53.94c2.697-0.342,5.312-1.083,7.802-2.234c9.473-4.377,15.594-13.959,15.594-24.411
		C53.649,12.481,41.622,0.428,26.842,0.428"/>
</g>
<g id="Group-6_2_" data-25-bottom="opacity:0;" data-bottom="opacity:1;" transform="translate(0.061303, 0.572127)">
	<g id="Clip-5_2_">
	</g>
	<defs>
		<filter id="Adobe_OpacityMaskFilter_3_" filterUnits="userSpaceOnUse" x="0.036" y="86.691" width="53.612" height="74.737">
			<feColorMatrix  type="matrix" values="1 0 0 0 0  0 1 0 0 0  0 0 1 0 0  0 0 0 1 0"/>
		</filter>
	</defs>
	<mask maskUnits="userSpaceOnUse" x="0.036" y="86.691" width="53.612" height="74.737" id="mask-2_2_">
		<g filter="url(#Adobe_OpacityMaskFilter_3_)">
			<path id="path-1_2_" fill="#FFFFFF" d="M53.649,86.692H0.036v74.736h53.612V86.692L53.649,86.692z"/>
		</g>
	</mask>
	<path id="Fill-4_3_" fill="rgba(64,0,0,0.2)" d="M35.199,131.76
		c-2.626,1.214-5.438,1.83-8.357,1.83c-9.808,0-18.304-7.318-19.763-17.021c-0.147-0.989-0.223-2.001-0.223-3.012
		c0-11.045,8.965-20.031,19.985-20.031s19.985,8.986,19.985,20.031C46.827,121.351,42.263,128.496,35.199,131.76 M26.842,86.691
		c-14.78,0-26.806,12.053-26.806,26.867c0,1.35,0.1,2.705,0.299,4.029c1.785,11.88,11.429,21.089,23.098,22.612v5.6h-6.991v6.836
		h6.991v8.793h6.82v-8.793h6.989v-6.836h-6.989v-5.597c2.697-0.342,5.312-1.083,7.802-2.233c9.473-4.378,15.594-13.96,15.594-24.411
		C53.649,98.743,41.622,86.691,26.842,86.691"/>
</g>
<g id="Group-6_3_" data-bottom="opacity:0;" data--25-bottom="opacity:1;" transform="translate(0.061303, 0.572127)">
	<g id="Clip-5_3_">
	</g>
	<defs>
		<filter id="Adobe_OpacityMaskFilter_4_" filterUnits="userSpaceOnUse" x="62.154" y="86.691" width="53.612" height="74.737">
			<feColorMatrix  type="matrix" values="1 0 0 0 0  0 1 0 0 0  0 0 1 0 0  0 0 0 1 0"/>
		</filter>
	</defs>
	<mask maskUnits="userSpaceOnUse" x="62.154" y="86.691" width="53.612" height="74.737" id="mask-2_3_">
		<g filter="url(#Adobe_OpacityMaskFilter_4_)">
			<path id="path-1_3_" fill="#FFFFFF" d="M115.766,86.692H62.154v74.736h53.612V86.692L115.766,86.692z"/>
		</g>
	</mask>
	<path id="Fill-4_5_" fill="rgba(64,0,0,0.2)" d="M97.317,131.76
		c-2.626,1.214-5.438,1.83-8.357,1.83c-9.808,0-18.304-7.318-19.763-17.021c-0.147-0.989-0.223-2.001-0.223-3.012
		c0-11.045,8.965-20.031,19.985-20.031s19.985,8.986,19.985,20.031C108.945,121.351,104.38,128.496,97.317,131.76 M88.959,86.691
		c-14.78,0-26.806,12.053-26.806,26.867c0,1.35,0.1,2.705,0.299,4.029c1.785,11.88,11.429,21.089,23.098,22.612v5.6h-6.991v6.836
		h6.991v8.793h6.82v-8.793h6.989v-6.836H92.37v-5.597c2.697-0.342,5.312-1.083,7.802-2.233c9.473-4.378,15.594-13.96,15.594-24.411
		C115.766,98.743,103.739,86.691,88.959,86.691"/>
</g>
</svg>
