<?xml version="1.0" encoding="utf-8"?>
<!-- Generator: Adobe Illustrator 16.0.0, SVG Export Plug-In . SVG Version: 6.00 Build 0)  -->
<!DOCTYPE svg PUBLIC "-//W3C//DTD SVG 1.1//EN" "http://www.w3.org/Graphics/SVG/1.1/DTD/svg11.dtd">
<svg version="1.1" id="Capa_1" xmlns="http://www.w3.org/2000/svg" xmlns:xlink="http://www.w3.org/1999/xlink" x="0px" y="0px"
	 width="355.128px" height="180.769px" viewBox="0 0 355.128 180.769" enable-background="new 0 0 355.128 180.769"
	 xml:space="preserve">
<g opacity="0.2" data-anchor-target="#section5"
	data--2000-top="opacity:0;"
	data--2100-top="opacity:0.2;"
	data--3400-top="opacity:0.2;"
	data--3450-top="opacity:0;">
	<path fill="#3E0106" d="M37.395,12.395c-16.366,0-29.681,13.345-29.681,29.747c0,1.494,0.112,2.996,0.333,4.462
		C10.022,59.756,20.7,69.953,33.619,71.64v6.201h-7.74v7.567h7.74v9.735h7.552v-9.735h7.739v-7.567H41.17v-6.198
		c2.987-0.378,5.882-1.198,8.639-2.474c10.488-4.846,17.266-15.455,17.266-27.027C67.075,25.74,53.759,12.395,37.395,12.395z
		 M46.648,62.296c-2.908,1.344-6.021,2.025-9.253,2.025c-10.86,0-20.267-8.102-21.881-18.846c-0.164-1.094-0.248-2.215-0.248-3.334
		c0-12.229,9.927-22.179,22.129-22.179c12.201,0,22.128,9.95,22.128,22.179C59.523,50.771,54.468,58.683,46.648,62.296z"/>
</g>
<g opacity="0.2" data-anchor-target="#section5"
	data--2100-top="opacity:0;"
	data--2200-top="opacity:0.2;"
	data--3350-top="opacity:0.2;"
	data--3400-top="opacity:0;">
	<path fill="#3E0106" d="M107.395,12.395c-16.366,0-29.681,13.345-29.681,29.747c0,1.494,0.112,2.996,0.333,4.462
		C80.023,59.756,90.7,69.953,103.619,71.64v6.201h-7.74v7.567h7.74v9.735h7.551v-9.735h7.74v-7.567h-7.74v-6.198
		c2.988-0.378,5.883-1.198,8.639-2.474c10.488-4.846,17.266-15.455,17.266-27.027C137.075,25.74,123.76,12.395,107.395,12.395z
		 M116.649,62.296c-2.908,1.344-6.021,2.025-9.254,2.025c-10.86,0-20.267-8.102-21.881-18.846c-0.164-1.094-0.248-2.215-0.248-3.334
		c0-12.229,9.927-22.179,22.129-22.179c12.201,0,22.129,9.95,22.129,22.179C129.524,50.771,124.469,58.683,116.649,62.296z"/>
</g>
<g opacity="0.2" data-anchor-target="#section5"
	data--2200-top="opacity:0;"
	data--2300-top="opacity:0.2;"
	data--3300-top="opacity:0.2;"
	data--3350-top="opacity:0;">
	<path fill="#3E0106" d="M177.715,12.395c-16.366,0-29.681,13.345-29.681,29.747c0,1.494,0.112,2.996,0.333,4.462
		c1.976,13.152,12.653,23.349,25.572,25.036v6.201h-7.74v7.567h7.74v9.735h7.552v-9.735h7.739v-7.567h-7.739v-6.198
		c2.987-0.378,5.882-1.198,8.639-2.474c10.488-4.846,17.266-15.455,17.266-27.027C207.395,25.74,194.08,12.395,177.715,12.395z
		 M186.968,62.296c-2.908,1.344-6.021,2.025-9.253,2.025c-10.86,0-20.267-8.102-21.881-18.846c-0.164-1.094-0.248-2.215-0.248-3.334
		c0-12.229,9.927-22.179,22.129-22.179c12.201,0,22.128,9.95,22.128,22.179C199.843,50.771,194.789,58.683,186.968,62.296z"/>
</g>
<g opacity="0.2" data-anchor-target="#section5"
	data--2300-top="opacity:0;"
	data--2400-top="opacity:0.2;"
	data--3250-top="opacity:0.2;"
	data--3300-top="opacity:0;">
	<path fill="#3E0106" d="M247.715,12.395c-16.365,0-29.68,13.345-29.68,29.747c0,1.494,0.111,2.996,0.332,4.462
		c1.977,13.152,12.653,23.349,25.572,25.036v6.201h-7.74v7.567h7.74v9.735h7.551v-9.735h7.74v-7.567h-7.74v-6.198
		c2.988-0.378,5.883-1.198,8.639-2.474c10.488-4.846,17.266-15.455,17.266-27.027C277.395,25.74,264.08,12.395,247.715,12.395z
		 M256.969,62.296c-2.908,1.344-6.021,2.025-9.254,2.025c-10.859,0-20.266-8.102-21.881-18.846
		c-0.164-1.094-0.248-2.215-0.248-3.334c0-12.229,9.928-22.179,22.129-22.179s22.129,9.95,22.129,22.179
		C269.844,50.771,264.789,58.683,256.969,62.296z"/>
</g>
<g opacity="0.6" data-anchor-target="#section5"
	data--2400-top="opacity:0;"
	data--2500-top="opacity:0.6;"
	data--3200-top="opacity:0.6;"
	data--3250-top="opacity:0;">
	<path fill="#3E0106" d="M317.715,11.77c-16.365,0-29.68,13.345-29.68,29.747c0,1.494,0.111,2.996,0.332,4.462
		c1.977,13.152,12.653,23.349,25.572,25.036v6.201h-7.74v7.567h7.74v9.735h7.551v-9.735h7.74v-7.567h-7.74v-6.198
		c2.988-0.378,5.883-1.198,8.639-2.474c10.488-4.846,17.266-15.455,17.266-27.027C347.395,25.115,334.08,11.77,317.715,11.77z
		 M326.969,61.671c-2.908,1.344-6.021,2.025-9.254,2.025c-10.859,0-20.266-8.102-21.881-18.846
		c-0.164-1.094-0.248-2.215-0.248-3.334c0-12.229,9.928-22.179,22.129-22.179s22.129,9.95,22.129,22.179
		C339.844,50.146,334.789,58.058,326.969,61.671z"/>
</g>
<line data-anchor-target="#section5"
	data--2450-top="stroke-dasharray[sqrt]: 40; stroke-dashoffset: 120;"
	data--2550-top="stroke-dasharray[sqrt]: 40; stroke-dashoffset: 80;"
	data--3100-top="stroke-dasharray[sqrt]: 40; stroke-dashoffset: 80;"
	data--3200-top="stroke-dasharray[sqrt]: 40; stroke-dashoffset: 120;" opacity="0.6" fill="none" stroke="#3E0106" stroke-miterlimit="10" x1="317.715" y1="104.128" x2="317.715" y2="136.179"/>
<g data-anchor-target="#section5"
	data--2500-top="opacity:0;"
	data--2600-top="opacity:0.6;"
	data--3000-top="opacity:0.6;"
	data--3100-top="opacity:0;">
	<path fill="#3E0106" d="M280.726,151.553c-0.754,1.239-1.682,1.858-2.782,1.858c-0.598,0-1.058-0.184-1.378-0.552
		c-0.321-0.368-0.481-0.891-0.481-1.566c0-0.599,0.124-1.196,0.371-1.794c0.247-0.598,0.569-1.138,0.968-1.619
		c0.398-0.48,0.845-0.871,1.339-1.17c0.494-0.299,0.988-0.448,1.482-0.448c0.416,0,0.756,0.106,1.021,0.318
		c0.265,0.212,0.396,0.483,0.396,0.813c0,0.304-0.112,0.616-0.338,0.937s-0.531,0.623-0.917,0.91
		c-0.386,0.285-0.836,0.545-1.352,0.779s-1.064,0.416-1.645,0.547c-0.017,0.121-0.03,0.24-0.039,0.357
		c-0.009,0.116-0.013,0.236-0.013,0.357c0,0.944,0.333,1.416,1.001,1.416c0.32,0,0.652-0.125,0.995-0.377
		c0.342-0.251,0.661-0.598,0.956-1.039L280.726,151.553z M279.985,146.873c-0.226,0-0.459,0.088-0.702,0.261
		s-0.475,0.405-0.695,0.695c-0.221,0.29-0.422,0.622-0.604,0.995c-0.182,0.372-0.33,0.758-0.442,1.156
		c0.416-0.112,0.801-0.26,1.157-0.441s0.661-0.389,0.917-0.617c0.255-0.23,0.457-0.473,0.604-0.729s0.221-0.514,0.221-0.773
		C280.44,147.055,280.288,146.873,279.985,146.873z"/>
	<path fill="#3E0106" d="M285.912,150.253c-0.139,0.59-0.207,1.074-0.207,1.455c0,0.668,0.229,1.002,0.688,1.002
		c0.286,0,0.585-0.121,0.897-0.364c0.312-0.243,0.671-0.628,1.078-1.157l0.391,0.234c-0.156,0.295-0.338,0.563-0.547,0.806
		c-0.207,0.243-0.431,0.453-0.669,0.631s-0.481,0.313-0.728,0.409c-0.248,0.096-0.488,0.143-0.722,0.143
		c-0.399,0-0.726-0.136-0.981-0.408c-0.256-0.273-0.41-0.652-0.462-1.139l-0.038-0.013c-0.131,0.234-0.285,0.446-0.463,0.638
		c-0.178,0.19-0.365,0.353-0.564,0.486c-0.199,0.135-0.41,0.241-0.631,0.319c-0.221,0.077-0.436,0.116-0.644,0.116
		c-0.338,0-0.613-0.095-0.826-0.285c-0.212-0.191-0.318-0.438-0.318-0.741c0-0.243,0.069-0.438,0.208-0.585s0.325-0.221,0.559-0.221
		c0.216,0,0.364,0.057,0.442,0.168c0.078,0.113,0.137,0.236,0.176,0.371s0.082,0.258,0.129,0.371
		c0.048,0.112,0.146,0.168,0.293,0.168c0.139,0,0.281-0.056,0.43-0.168c0.146-0.113,0.292-0.275,0.435-0.488
		c0.144-0.212,0.28-0.465,0.409-0.76c0.131-0.295,0.248-0.625,0.352-0.988l0.363-1.262c0.156-0.527,0.234-0.948,0.234-1.26
		c0-0.469-0.143-0.703-0.429-0.703c-0.122,0-0.267,0.044-0.436,0.131c-0.169,0.086-0.345,0.203-0.526,0.351
		s-0.361,0.316-0.539,0.507c-0.178,0.191-0.336,0.391-0.475,0.598l-0.391-0.233c0.113-0.261,0.277-0.516,0.494-0.767
		c0.217-0.252,0.451-0.477,0.702-0.677c0.251-0.199,0.505-0.361,0.761-0.487c0.256-0.125,0.487-0.188,0.695-0.188
		c0.329,0,0.602,0.128,0.818,0.384s0.326,0.578,0.326,0.969c0.25-0.408,0.554-0.734,0.909-0.982c0.355-0.246,0.698-0.37,1.027-0.37
		c0.304,0,0.559,0.1,0.767,0.299c0.208,0.2,0.313,0.442,0.313,0.728c0,0.209-0.059,0.377-0.176,0.508
		c-0.117,0.13-0.275,0.195-0.475,0.195c-0.182,0-0.311-0.051-0.383-0.15c-0.074-0.1-0.131-0.212-0.17-0.338
		c-0.039-0.125-0.082-0.238-0.13-0.338s-0.136-0.149-0.267-0.149c-0.139,0-0.281,0.062-0.429,0.183s-0.288,0.29-0.423,0.506
		c-0.135,0.217-0.26,0.475-0.377,0.773c-0.117,0.3-0.215,0.627-0.292,0.982L285.912,150.253z"/>
	<path fill="#3E0106" d="M289.539,148.408c0.321-0.364,0.682-0.691,1.08-0.982c0.398-0.29,0.818-0.525,1.261-0.708l0.61-2.08h0.988
		l-0.455,1.729c0.139-0.026,0.275-0.048,0.41-0.065c0.134-0.017,0.271-0.026,0.409-0.026c0.736,0,1.309,0.199,1.716,0.598
		c0.407,0.399,0.611,0.959,0.611,1.678c0,0.572-0.137,1.111-0.41,1.619c-0.272,0.506-0.637,0.959-1.092,1.357
		s-0.979,0.73-1.572,0.994c-0.594,0.266-1.212,0.441-1.854,0.527l-0.48,1.807c-0.043,0.131-0.071,0.238-0.084,0.325
		c-0.014,0.087-0.02,0.165-0.02,0.233c0,0.217,0.088,0.369,0.266,0.455c0.178,0.087,0.492,0.135,0.943,0.144l-0.078,0.521h-3.68
		l0.078-0.521c0.364,0,0.629-0.044,0.793-0.13c0.165-0.087,0.282-0.242,0.352-0.469l2.353-8.033
		c-0.329,0.174-0.646,0.379-0.948,0.617c-0.305,0.238-0.586,0.496-0.846,0.773L289.539,148.408z M293.505,146.912
		c-0.112,0-0.224,0.008-0.331,0.02c-0.109,0.014-0.215,0.029-0.319,0.046l-1.469,5.513c0.433-0.087,0.856-0.248,1.268-0.481
		s0.778-0.524,1.099-0.871s0.578-0.734,0.773-1.163c0.195-0.43,0.293-0.878,0.293-1.346c0-0.52-0.119-0.936-0.357-1.248
		C294.222,147.068,293.903,146.912,293.505,146.912z"/>
	<path fill="#3E0106" d="M301.486,151.553c-0.754,1.239-1.682,1.858-2.781,1.858c-0.599,0-1.059-0.184-1.379-0.552
		s-0.48-0.891-0.48-1.566c0-0.599,0.123-1.196,0.371-1.794c0.246-0.598,0.568-1.138,0.968-1.619c0.398-0.48,0.845-0.871,1.339-1.17
		s0.988-0.448,1.482-0.448c0.416,0,0.756,0.106,1.02,0.318c0.266,0.212,0.396,0.483,0.396,0.813c0,0.304-0.111,0.616-0.338,0.937
		c-0.225,0.32-0.53,0.623-0.916,0.91c-0.386,0.285-0.836,0.545-1.352,0.779s-1.064,0.416-1.645,0.547
		c-0.018,0.121-0.031,0.24-0.039,0.357c-0.009,0.116-0.014,0.236-0.014,0.357c0,0.944,0.334,1.416,1.002,1.416
		c0.32,0,0.651-0.125,0.994-0.377c0.342-0.251,0.66-0.598,0.955-1.039L301.486,151.553z M300.746,146.873
		c-0.227,0-0.46,0.088-0.703,0.261c-0.242,0.173-0.475,0.405-0.695,0.695s-0.422,0.622-0.604,0.995
		c-0.183,0.372-0.33,0.758-0.442,1.156c0.416-0.112,0.802-0.26,1.157-0.441s0.66-0.389,0.916-0.617
		c0.256-0.23,0.457-0.473,0.604-0.729s0.222-0.514,0.222-0.773C301.201,147.055,301.049,146.873,300.746,146.873z"/>
	<path fill="#3E0106" d="M302.864,148.199c0.095-0.216,0.241-0.439,0.436-0.669s0.407-0.438,0.638-0.624
		c0.229-0.187,0.461-0.34,0.695-0.461c0.233-0.122,0.438-0.183,0.61-0.183c0.208,0,0.36,0.078,0.455,0.233
		c0.095,0.156,0.144,0.408,0.144,0.754c0,0.14-0.007,0.273-0.02,0.404c-0.014,0.129-0.037,0.281-0.072,0.455l0.039,0.039
		c0.104-0.252,0.252-0.499,0.442-0.742c0.19-0.242,0.396-0.457,0.617-0.643c0.222-0.187,0.446-0.338,0.677-0.455
		c0.229-0.117,0.443-0.176,0.643-0.176c0.252,0,0.462,0.08,0.631,0.24s0.254,0.357,0.254,0.592c0,0.225-0.072,0.412-0.215,0.559
		c-0.143,0.148-0.327,0.221-0.553,0.221c-0.139,0-0.249-0.025-0.332-0.078c-0.082-0.051-0.153-0.105-0.214-0.162
		s-0.117-0.11-0.169-0.162c-0.053-0.053-0.117-0.078-0.195-0.078c-0.164,0-0.355,0.11-0.572,0.332
		c-0.217,0.221-0.441,0.521-0.676,0.902c-0.234,0.383-0.466,0.828-0.695,1.34s-0.439,1.062-0.631,1.65l-0.584,1.795h-1.209
		l0.845-2.691c0.164-0.52,0.301-0.951,0.409-1.293c0.108-0.343,0.193-0.629,0.254-0.858s0.102-0.409,0.123-0.54
		c0.021-0.13,0.033-0.242,0.033-0.338c0-0.19-0.065-0.285-0.195-0.285c-0.087,0-0.193,0.034-0.318,0.104
		c-0.126,0.069-0.25,0.156-0.371,0.26s-0.236,0.221-0.344,0.352c-0.109,0.129-0.189,0.256-0.241,0.377L302.864,148.199z"/>
	<path fill="#3E0106" d="M310.313,148.992c0.121-0.338,0.208-0.61,0.26-0.818s0.078-0.373,0.078-0.494s-0.02-0.201-0.059-0.24
		s-0.08-0.059-0.124-0.059c-0.095,0-0.199,0.045-0.312,0.137c-0.112,0.091-0.226,0.197-0.338,0.318s-0.212,0.242-0.299,0.363
		c-0.087,0.122-0.147,0.217-0.183,0.287l-0.377-0.234c0.104-0.191,0.25-0.403,0.436-0.637c0.187-0.234,0.396-0.451,0.631-0.65
		s0.477-0.366,0.729-0.5c0.251-0.135,0.489-0.202,0.715-0.202c0.217,0,0.379,0.063,0.487,0.188c0.108,0.126,0.162,0.354,0.162,0.683
		c0,0.251-0.075,0.589-0.228,1.015c-0.151,0.424-0.349,0.971-0.592,1.637l-0.48,1.313c-0.018,0.044-0.041,0.11-0.071,0.202
		c-0.03,0.09-0.062,0.186-0.091,0.285c-0.031,0.1-0.057,0.197-0.078,0.293s-0.033,0.174-0.033,0.234
		c0,0.078,0.021,0.146,0.065,0.207s0.112,0.092,0.208,0.092c0.13,0,0.264-0.055,0.402-0.163s0.273-0.235,0.404-0.384
		c0.129-0.146,0.246-0.297,0.351-0.448s0.182-0.271,0.233-0.357l0.391,0.222c-0.104,0.207-0.245,0.438-0.423,0.688
		s-0.379,0.483-0.604,0.695c-0.225,0.212-0.473,0.39-0.74,0.533c-0.27,0.144-0.547,0.214-0.832,0.214
		c-0.252,0-0.44-0.064-0.566-0.194c-0.125-0.13-0.188-0.347-0.188-0.649c0-0.252,0.041-0.522,0.123-0.813
		c0.082-0.291,0.201-0.657,0.357-1.1L310.313,148.992z M312.225,144.13c-0.217,0-0.405-0.074-0.566-0.221
		c-0.16-0.148-0.24-0.338-0.24-0.572s0.078-0.434,0.234-0.598c0.156-0.165,0.347-0.248,0.572-0.248c0.242,0,0.441,0.083,0.598,0.248
		c0.156,0.164,0.234,0.359,0.234,0.584c0,0.227-0.082,0.416-0.247,0.572S312.449,144.13,312.225,144.13z"/>
	<path fill="#3E0106" d="M317.905,151.553c-0.755,1.239-1.682,1.858-2.782,1.858c-0.598,0-1.058-0.184-1.378-0.552
		c-0.321-0.368-0.481-0.891-0.481-1.566c0-0.599,0.124-1.196,0.371-1.794c0.246-0.598,0.569-1.138,0.969-1.619
		c0.398-0.48,0.845-0.871,1.338-1.17c0.494-0.299,0.988-0.448,1.482-0.448c0.416,0,0.756,0.106,1.021,0.318s0.396,0.483,0.396,0.813
		c0,0.304-0.112,0.616-0.338,0.937s-0.53,0.623-0.917,0.91c-0.385,0.285-0.836,0.545-1.352,0.779s-1.064,0.416-1.645,0.547
		c-0.018,0.121-0.03,0.24-0.039,0.357c-0.008,0.116-0.013,0.236-0.013,0.357c0,0.944,0.333,1.416,1.001,1.416
		c0.32,0,0.652-0.125,0.994-0.377c0.343-0.251,0.661-0.598,0.956-1.039L317.905,151.553z M317.164,146.873
		c-0.226,0-0.459,0.088-0.702,0.261s-0.475,0.405-0.695,0.695c-0.222,0.29-0.423,0.622-0.604,0.995
		c-0.182,0.372-0.33,0.758-0.441,1.156c0.416-0.112,0.801-0.26,1.156-0.441s0.66-0.389,0.916-0.617
		c0.256-0.23,0.457-0.473,0.605-0.729c0.146-0.256,0.221-0.514,0.221-0.773C317.619,147.055,317.467,146.873,317.164,146.873z"/>
	<path fill="#3E0106" d="M324.535,146.938c-0.208,0-0.444,0.106-0.709,0.319c-0.264,0.212-0.532,0.493-0.805,0.844
		c-0.273,0.352-0.536,0.752-0.787,1.203c-0.252,0.451-0.464,0.91-0.637,1.378l-0.963,2.601h-1.144l0.962-2.978
		c0.156-0.477,0.286-0.884,0.391-1.222c0.104-0.338,0.188-0.622,0.253-0.852c0.065-0.23,0.11-0.416,0.137-0.559
		c0.026-0.144,0.039-0.258,0.039-0.346c0-0.233-0.073-0.351-0.222-0.351c-0.096,0-0.207,0.062-0.338,0.183
		c-0.129,0.121-0.262,0.279-0.396,0.475c-0.135,0.194-0.262,0.418-0.383,0.669s-0.226,0.507-0.313,0.767l-0.39-0.195
		c0.304-0.892,0.644-1.551,1.021-1.975c0.377-0.426,0.808-0.638,1.293-0.638c0.277,0,0.475,0.078,0.592,0.233
		c0.117,0.156,0.176,0.421,0.176,0.793c0,0.443-0.074,0.837-0.221,1.184l0.039,0.039c0.441-0.779,0.891-1.35,1.345-1.709
		c0.455-0.359,0.951-0.54,1.489-0.54c0.381,0,0.671,0.091,0.871,0.272c0.199,0.183,0.299,0.442,0.299,0.781
		c0,0.111-0.012,0.238-0.033,0.377s-0.059,0.305-0.11,0.5s-0.124,0.427-0.214,0.695c-0.092,0.269-0.202,0.598-0.332,0.988
		c-0.199,0.59-0.364,1.083-0.494,1.482c-0.13,0.398-0.195,0.68-0.195,0.844c0,0.131,0.043,0.195,0.131,0.195
		c0.121,0,0.299-0.1,0.533-0.299c0.233-0.199,0.55-0.52,0.948-0.962l0.338,0.183c-0.139,0.26-0.318,0.513-0.539,0.76
		c-0.222,0.247-0.451,0.471-0.689,0.67s-0.474,0.359-0.708,0.48s-0.438,0.182-0.611,0.182c-0.217,0-0.388-0.095-0.514-0.285
		c-0.125-0.191-0.188-0.442-0.188-0.754c0-0.121,0.011-0.245,0.032-0.371c0.021-0.125,0.067-0.305,0.137-0.539
		s0.172-0.549,0.306-0.943c0.134-0.394,0.318-0.916,0.553-1.566c0.077-0.225,0.144-0.416,0.194-0.571
		c0.053-0.156,0.094-0.292,0.124-0.409s0.052-0.219,0.065-0.307c0.013-0.086,0.02-0.168,0.02-0.246
		C324.887,147.099,324.77,146.938,324.535,146.938z"/>
	<path fill="#3E0106" d="M332.01,151.189c-0.363,0.72-0.786,1.27-1.268,1.651c-0.48,0.382-0.994,0.571-1.54,0.571
		c-0.563,0-1.015-0.192-1.353-0.578c-0.338-0.385-0.506-0.898-0.506-1.54c0-0.382,0.056-0.771,0.168-1.171
		c0.113-0.398,0.265-0.783,0.455-1.156c0.191-0.373,0.416-0.724,0.676-1.053c0.261-0.33,0.537-0.615,0.832-0.858
		s0.601-0.436,0.917-0.579c0.316-0.143,0.626-0.214,0.93-0.214c0.416,0,0.759,0.112,1.026,0.338c0.27,0.226,0.403,0.507,0.403,0.845
		c0,0.217-0.063,0.393-0.188,0.527c-0.125,0.134-0.288,0.201-0.487,0.201c-0.2,0-0.362-0.063-0.487-0.188
		c-0.126-0.126-0.189-0.28-0.189-0.462c0-0.112,0.018-0.203,0.053-0.273c0.035-0.068,0.052-0.134,0.052-0.194
		c0-0.121-0.104-0.183-0.312-0.183c-0.286,0-0.576,0.135-0.871,0.404c-0.295,0.268-0.562,0.615-0.8,1.039
		c-0.238,0.425-0.433,0.899-0.585,1.424s-0.228,1.047-0.228,1.566c0,0.416,0.08,0.743,0.241,0.981
		c0.16,0.239,0.383,0.357,0.669,0.357c0.155,0,0.318-0.043,0.487-0.13c0.169-0.086,0.34-0.205,0.514-0.357
		c0.174-0.151,0.34-0.332,0.5-0.539c0.16-0.209,0.307-0.438,0.436-0.689L332.01,151.189z"/>
	<path fill="#3E0106" d="M337.717,151.553c-0.754,1.239-1.682,1.858-2.781,1.858c-0.599,0-1.059-0.184-1.379-0.552
		s-0.48-0.891-0.48-1.566c0-0.599,0.123-1.196,0.371-1.794c0.246-0.598,0.568-1.138,0.968-1.619c0.398-0.48,0.845-0.871,1.339-1.17
		s0.988-0.448,1.482-0.448c0.416,0,0.756,0.106,1.02,0.318c0.266,0.212,0.396,0.483,0.396,0.813c0,0.304-0.111,0.616-0.338,0.937
		c-0.225,0.32-0.53,0.623-0.916,0.91c-0.386,0.285-0.836,0.545-1.352,0.779s-1.064,0.416-1.645,0.547
		c-0.018,0.121-0.031,0.24-0.039,0.357c-0.009,0.116-0.014,0.236-0.014,0.357c0,0.944,0.334,1.416,1.002,1.416
		c0.32,0,0.651-0.125,0.994-0.377c0.342-0.251,0.66-0.598,0.955-1.039L337.717,151.553z M336.977,146.873
		c-0.227,0-0.46,0.088-0.703,0.261c-0.242,0.173-0.475,0.405-0.695,0.695s-0.422,0.622-0.604,0.995
		c-0.183,0.372-0.33,0.758-0.442,1.156c0.416-0.112,0.802-0.26,1.157-0.441s0.66-0.389,0.916-0.617
		c0.256-0.23,0.457-0.473,0.604-0.729s0.222-0.514,0.222-0.773C337.432,147.055,337.279,146.873,336.977,146.873z"/>
	<path fill="#3E0106" d="M344.906,144.287c0.068-0.234,0.121-0.43,0.156-0.586c0.033-0.155,0.051-0.268,0.051-0.338
		c0-0.129-0.086-0.221-0.26-0.272s-0.485-0.078-0.936-0.078l0.143-0.521h2.51l-1.443,5.266c-0.182,0.676-0.334,1.252-0.455,1.729
		s-0.219,0.878-0.293,1.203c-0.073,0.324-0.123,0.592-0.148,0.799c-0.027,0.209-0.039,0.382-0.039,0.521
		c0,0.199,0.029,0.338,0.09,0.416s0.139,0.116,0.234,0.116c0.191,0,0.396-0.16,0.617-0.48c0.222-0.32,0.418-0.74,0.592-1.261
		l0.494,0.116c-0.295,0.859-0.617,1.489-0.969,1.893c-0.351,0.402-0.747,0.604-1.189,0.604c-0.313,0-0.553-0.1-0.721-0.299
		c-0.17-0.199-0.254-0.484-0.254-0.857c0-0.096,0.008-0.195,0.025-0.299c0.018-0.104,0.039-0.203,0.065-0.299l-0.104-0.026
		c-0.329,0.571-0.728,1.012-1.195,1.319c-0.469,0.308-0.914,0.461-1.34,0.461c-0.225,0-0.433-0.049-0.623-0.148
		c-0.191-0.1-0.355-0.238-0.494-0.416s-0.25-0.391-0.332-0.637c-0.082-0.248-0.123-0.523-0.123-0.826
		c0-0.373,0.059-0.761,0.176-1.164c0.117-0.402,0.277-0.793,0.48-1.17s0.439-0.734,0.709-1.072c0.268-0.338,0.553-0.635,0.852-0.891
		s0.605-0.457,0.923-0.604c0.315-0.148,0.626-0.222,0.929-0.222c0.295,0,0.519,0.057,0.67,0.169
		c0.152,0.113,0.301,0.291,0.449,0.533L344.906,144.287z M343.125,146.951c-0.226,0-0.453,0.072-0.683,0.215
		s-0.453,0.334-0.669,0.572c-0.217,0.238-0.419,0.514-0.605,0.825c-0.186,0.312-0.349,0.638-0.487,0.976s-0.249,0.68-0.331,1.027
		c-0.083,0.346-0.124,0.671-0.124,0.975c0,0.312,0.078,0.561,0.234,0.747c0.155,0.187,0.364,0.28,0.624,0.28
		c0.199,0,0.402-0.08,0.611-0.241c0.207-0.16,0.411-0.37,0.61-0.63c0.199-0.261,0.388-0.557,0.565-0.891s0.334-0.676,0.469-1.027
		c0.134-0.352,0.24-0.697,0.318-1.04s0.117-0.651,0.117-0.93c0-0.269-0.053-0.479-0.156-0.63
		C343.515,147.027,343.35,146.951,343.125,146.951z"/>
	<path fill="#3E0106" d="M258.184,166.251c0-0.286,0.054-0.551,0.163-0.793s0.258-0.453,0.448-0.631
		c0.191-0.178,0.418-0.316,0.683-0.416s0.553-0.149,0.865-0.149c0.416,0,0.762,0.104,1.04,0.312
		c0.277,0.209,0.416,0.477,0.416,0.807c0,0.182-0.05,0.324-0.15,0.429s-0.236,0.156-0.409,0.156c-0.2,0-0.343-0.059-0.429-0.176
		c-0.087-0.116-0.161-0.247-0.221-0.39s-0.125-0.275-0.195-0.396s-0.187-0.182-0.351-0.182c-0.19,0-0.351,0.082-0.481,0.246
		c-0.13,0.165-0.195,0.369-0.195,0.611c0,0.286,0.084,0.553,0.253,0.799c0.169,0.248,0.357,0.506,0.565,0.774
		s0.396,0.563,0.565,0.884s0.253,0.697,0.253,1.131c0,0.295-0.063,0.572-0.188,0.832s-0.294,0.488-0.507,0.683
		s-0.457,0.349-0.734,0.462c-0.277,0.112-0.563,0.168-0.858,0.168c-0.52,0-0.934-0.112-1.242-0.338
		c-0.308-0.225-0.461-0.52-0.461-0.883c0-0.252,0.059-0.449,0.175-0.592c0.117-0.144,0.275-0.215,0.475-0.215
		c0.373,0,0.585,0.256,0.637,0.768c0.026,0.277,0.071,0.461,0.136,0.552s0.197,0.137,0.396,0.137c0.312,0,0.559-0.093,0.741-0.28
		c0.182-0.186,0.273-0.443,0.273-0.773c0-0.346-0.087-0.654-0.26-0.922c-0.173-0.27-0.364-0.531-0.572-0.787
		s-0.399-0.526-0.572-0.813C258.271,166.979,258.184,166.641,258.184,166.251z"/>
	<path fill="#3E0106" d="M266.959,169.553c-0.754,1.239-1.682,1.858-2.782,1.858c-0.598,0-1.058-0.184-1.378-0.552
		c-0.321-0.368-0.481-0.891-0.481-1.566c0-0.599,0.124-1.196,0.371-1.794c0.247-0.598,0.569-1.138,0.968-1.619
		c0.398-0.48,0.845-0.871,1.339-1.17c0.494-0.299,0.988-0.448,1.482-0.448c0.416,0,0.756,0.106,1.021,0.318
		c0.265,0.212,0.396,0.483,0.396,0.813c0,0.304-0.112,0.616-0.338,0.937s-0.531,0.623-0.917,0.91
		c-0.386,0.285-0.836,0.545-1.352,0.779s-1.064,0.416-1.645,0.547c-0.017,0.121-0.03,0.24-0.039,0.357
		c-0.009,0.116-0.013,0.236-0.013,0.357c0,0.944,0.333,1.416,1.001,1.416c0.32,0,0.652-0.125,0.995-0.377
		c0.342-0.251,0.661-0.598,0.956-1.039L266.959,169.553z M266.218,164.873c-0.226,0-0.459,0.088-0.702,0.261
		s-0.475,0.405-0.695,0.695c-0.221,0.29-0.422,0.622-0.604,0.995c-0.182,0.372-0.33,0.758-0.442,1.156
		c0.416-0.112,0.801-0.26,1.157-0.441s0.661-0.389,0.917-0.617c0.255-0.23,0.457-0.473,0.604-0.729s0.221-0.514,0.221-0.773
		C266.673,165.055,266.521,164.873,266.218,164.873z"/>
	<path fill="#3E0106" d="M272.146,168.253c-0.139,0.59-0.208,1.074-0.208,1.455c0,0.668,0.229,1.002,0.689,1.002
		c0.286,0,0.585-0.121,0.897-0.364s0.671-0.628,1.079-1.157l0.39,0.234c-0.156,0.295-0.338,0.563-0.546,0.806
		c-0.208,0.243-0.431,0.453-0.669,0.631s-0.481,0.313-0.728,0.409s-0.487,0.143-0.721,0.143c-0.399,0-0.726-0.136-0.981-0.408
		c-0.256-0.273-0.41-0.652-0.462-1.139l-0.039-0.013c-0.13,0.234-0.284,0.446-0.462,0.638c-0.178,0.19-0.366,0.353-0.565,0.486
		c-0.199,0.135-0.409,0.241-0.63,0.319c-0.221,0.077-0.436,0.116-0.644,0.116c-0.338,0-0.613-0.095-0.826-0.285
		c-0.212-0.191-0.318-0.438-0.318-0.741c0-0.243,0.069-0.438,0.208-0.585s0.325-0.221,0.559-0.221c0.216,0,0.364,0.057,0.442,0.168
		c0.078,0.113,0.137,0.236,0.176,0.371s0.082,0.258,0.13,0.371c0.047,0.112,0.145,0.168,0.292,0.168
		c0.139,0,0.281-0.056,0.429-0.168c0.147-0.113,0.292-0.275,0.435-0.488c0.143-0.212,0.28-0.465,0.41-0.76s0.247-0.625,0.351-0.988
		l0.364-1.262c0.156-0.527,0.234-0.948,0.234-1.26c0-0.469-0.143-0.703-0.429-0.703c-0.122,0-0.267,0.044-0.436,0.131
		c-0.169,0.086-0.344,0.203-0.526,0.351s-0.362,0.316-0.54,0.507c-0.178,0.191-0.336,0.391-0.475,0.598l-0.39-0.233
		c0.113-0.261,0.277-0.516,0.494-0.767c0.217-0.252,0.451-0.477,0.702-0.677c0.251-0.199,0.505-0.361,0.76-0.487
		c0.256-0.125,0.488-0.188,0.696-0.188c0.329,0,0.602,0.128,0.819,0.384s0.325,0.578,0.325,0.969
		c0.251-0.408,0.554-0.734,0.91-0.982c0.355-0.246,0.698-0.37,1.027-0.37c0.303,0,0.559,0.1,0.767,0.299
		c0.208,0.2,0.312,0.442,0.312,0.728c0,0.209-0.058,0.377-0.175,0.508c-0.117,0.13-0.275,0.195-0.475,0.195
		c-0.182,0-0.31-0.051-0.383-0.15c-0.074-0.1-0.13-0.212-0.169-0.338c-0.039-0.125-0.083-0.238-0.13-0.338
		c-0.047-0.1-0.136-0.149-0.266-0.149c-0.139,0-0.282,0.062-0.429,0.183s-0.288,0.29-0.422,0.506
		c-0.135,0.217-0.26,0.475-0.377,0.773c-0.117,0.3-0.215,0.627-0.292,0.982L272.146,168.253z"/>
	<path fill="#3E0106" d="M277.774,170.476c0.139,0,0.321-0.098,0.546-0.293c0.225-0.194,0.463-0.455,0.715-0.779
		c0.251-0.325,0.496-0.695,0.734-1.111s0.44-0.85,0.604-1.301l0.962-2.6h1.208l-0.961,2.977c-0.139,0.434-0.255,0.805-0.351,1.112
		c-0.095,0.308-0.173,0.567-0.234,0.78c-0.061,0.212-0.104,0.385-0.13,0.52s-0.039,0.24-0.039,0.318
		c0,0.226,0.078,0.338,0.234,0.338c0.087,0,0.191-0.041,0.312-0.123c0.122-0.082,0.245-0.195,0.371-0.338
		c0.125-0.144,0.247-0.304,0.364-0.481c0.116-0.177,0.219-0.366,0.306-0.565l0.39,0.195c-0.112,0.285-0.261,0.565-0.442,0.838
		c-0.182,0.273-0.379,0.518-0.591,0.734s-0.436,0.391-0.669,0.521s-0.464,0.194-0.689,0.194c-0.269,0-0.451-0.095-0.546-0.285
		c-0.096-0.191-0.143-0.464-0.143-0.819c0-0.147,0.006-0.306,0.02-0.475s0.037-0.335,0.071-0.501l-0.039-0.038
		c-0.234,0.415-0.462,0.759-0.683,1.026c-0.221,0.27-0.436,0.486-0.644,0.65s-0.412,0.279-0.611,0.345
		c-0.2,0.065-0.395,0.097-0.585,0.097c-0.407,0-0.691-0.112-0.851-0.338c-0.161-0.225-0.241-0.502-0.241-0.832
		c0-0.363,0.069-0.764,0.208-1.202c0.139-0.438,0.286-0.852,0.442-1.241c0.156-0.391,0.288-0.719,0.396-0.988
		c0.108-0.269,0.195-0.494,0.26-0.676s0.112-0.329,0.143-0.441c0.03-0.113,0.045-0.204,0.045-0.273c0-0.035-0.006-0.067-0.02-0.098
		s-0.045-0.045-0.098-0.045c-0.113,0-0.275,0.1-0.487,0.299s-0.5,0.52-0.865,0.961l-0.338-0.182c0.13-0.251,0.294-0.502,0.494-0.754
		c0.199-0.251,0.412-0.477,0.637-0.676c0.226-0.199,0.459-0.359,0.702-0.48c0.243-0.122,0.468-0.183,0.676-0.183
		c0.433,0,0.65,0.251,0.65,0.754c0,0.304-0.084,0.696-0.253,1.177c-0.169,0.48-0.388,1.055-0.657,1.723
		c-0.173,0.424-0.316,0.806-0.429,1.144c-0.112,0.339-0.169,0.646-0.169,0.923c0,0.182,0.026,0.311,0.078,0.384
		C277.632,170.439,277.697,170.476,277.774,170.476z"/>
	<path fill="#3E0106" d="M288.941,164.392h1.079l-0.741,1.989c-0.121,0.329-0.24,0.681-0.357,1.053
		c-0.117,0.373-0.221,0.732-0.312,1.079s-0.163,0.663-0.215,0.949c-0.052,0.285-0.078,0.498-0.078,0.637
		c0,0.252,0.083,0.377,0.247,0.377c0.121,0,0.297-0.125,0.527-0.377c0.229-0.251,0.486-0.576,0.773-0.975l0.338,0.273
		c-0.365,0.641-0.757,1.137-1.178,1.488c-0.42,0.351-0.824,0.525-1.215,0.525c-0.199,0-0.354-0.075-0.461-0.227
		c-0.109-0.152-0.163-0.4-0.163-0.748c0-0.078,0.002-0.169,0.007-0.273c0.004-0.104,0.015-0.242,0.032-0.416l-0.052-0.012
		c-0.131,0.242-0.284,0.465-0.462,0.669s-0.37,0.382-0.578,0.532c-0.208,0.152-0.425,0.27-0.65,0.352s-0.446,0.123-0.663,0.123
		c-0.441,0-0.786-0.166-1.033-0.5s-0.371-0.795-0.371-1.385c0-0.598,0.126-1.209,0.377-1.832c0.252-0.625,0.577-1.189,0.976-1.697
		c0.398-0.507,0.841-0.923,1.326-1.248c0.485-0.324,0.962-0.487,1.43-0.487c0.286,0,0.521,0.067,0.702,0.202
		c0.182,0.134,0.329,0.353,0.441,0.656L288.941,164.392z M287.603,164.938c-0.329,0-0.669,0.151-1.021,0.455
		s-0.67,0.683-0.955,1.138c-0.286,0.455-0.521,0.945-0.702,1.469c-0.183,0.525-0.272,1.012-0.272,1.463
		c0,0.313,0.064,0.561,0.194,0.748c0.13,0.186,0.308,0.279,0.532,0.279c0.2,0,0.408-0.08,0.625-0.241
		c0.217-0.16,0.426-0.372,0.631-0.637c0.203-0.265,0.396-0.565,0.578-0.903s0.342-0.688,0.48-1.047s0.247-0.713,0.325-1.06
		s0.117-0.658,0.117-0.937c0-0.225-0.048-0.402-0.144-0.532S287.768,164.938,287.603,164.938z"/>
	<path fill="#3E0106" d="M293.076,162.299c0.043-0.156,0.086-0.313,0.129-0.475c0.044-0.16,0.066-0.279,0.066-0.357
		c0-0.304-0.33-0.455-0.988-0.455l0.104-0.39l2.379-0.117l-2.326,8.541c-0.07,0.234-0.122,0.439-0.156,0.617
		c-0.035,0.178-0.053,0.327-0.053,0.449c0,0.078,0.021,0.146,0.065,0.207c0.043,0.061,0.112,0.092,0.208,0.092
		c0.139,0,0.285-0.059,0.441-0.176s0.307-0.256,0.449-0.416s0.271-0.325,0.383-0.494c0.113-0.169,0.195-0.301,0.248-0.396
		l0.389,0.221c-0.129,0.295-0.299,0.578-0.506,0.852c-0.209,0.273-0.43,0.514-0.664,0.722c-0.233,0.208-0.47,0.375-0.708,0.501
		c-0.238,0.125-0.457,0.188-0.656,0.188c-0.304,0-0.526-0.064-0.669-0.194c-0.144-0.13-0.215-0.347-0.215-0.649
		c0-0.174,0.025-0.408,0.078-0.703c0.052-0.294,0.143-0.697,0.272-1.209L293.076,162.299z"/>
	<path fill="#3E0106" d="M303.58,166.641c0-0.173-0.016-0.331-0.047-0.475c-0.029-0.143-0.064-0.279-0.104-0.409
		s-0.074-0.256-0.104-0.377c-0.031-0.121-0.046-0.247-0.046-0.377c0-0.494,0.226-0.741,0.677-0.741c0.268,0,0.461,0.096,0.578,0.286
		s0.176,0.507,0.176,0.949c0,0.459-0.057,0.925-0.17,1.396c-0.112,0.473-0.269,0.928-0.468,1.365s-0.433,0.848-0.702,1.229
		c-0.269,0.382-0.555,0.715-0.857,1.002c-0.304,0.285-0.617,0.511-0.943,0.676c-0.324,0.164-0.647,0.246-0.968,0.246
		c-0.233,0-0.453-0.045-0.657-0.136c-0.203-0.091-0.379-0.219-0.525-0.384c-0.148-0.164-0.263-0.359-0.346-0.585
		c-0.082-0.226-0.123-0.468-0.123-0.728c0-0.494,0.135-1.074,0.403-1.742s0.649-1.356,1.144-2.067l-0.025-0.038
		c-0.234,0-0.43-0.035-0.586-0.104c-0.155-0.069-0.287-0.147-0.396-0.234c-0.107-0.087-0.203-0.165-0.285-0.233
		c-0.082-0.07-0.167-0.104-0.254-0.104c-0.146,0-0.221,0.073-0.221,0.222c0,0.077,0.023,0.146,0.071,0.207s0.1,0.121,0.156,0.182
		c0.056,0.062,0.108,0.129,0.155,0.202c0.049,0.073,0.072,0.163,0.072,0.267c0,0.156-0.061,0.283-0.182,0.383
		c-0.122,0.101-0.277,0.15-0.469,0.15c-0.225,0-0.398-0.069-0.52-0.209c-0.121-0.138-0.182-0.333-0.182-0.584
		c0-0.217,0.043-0.423,0.129-0.617c0.087-0.195,0.204-0.367,0.352-0.514c0.147-0.147,0.318-0.265,0.514-0.352
		c0.195-0.086,0.4-0.13,0.617-0.13c0.174,0,0.32,0.028,0.441,0.085c0.122,0.057,0.234,0.121,0.339,0.194s0.206,0.14,0.306,0.195
		s0.219,0.085,0.357,0.085c0.164,0,0.312-0.065,0.441-0.195c0.182-0.164,0.306-0.267,0.371-0.306
		c0.064-0.039,0.149-0.059,0.254-0.059c0.173,0,0.26,0.073,0.26,0.222c0,0.034-0.005,0.064-0.014,0.09
		c-0.008,0.026-0.027,0.065-0.059,0.117c-0.03,0.053-0.082,0.121-0.156,0.209c-0.073,0.086-0.175,0.207-0.305,0.363
		c-0.199,0.242-0.382,0.516-0.547,0.818c-0.164,0.305-0.307,0.621-0.428,0.949c-0.122,0.33-0.217,0.662-0.287,0.995
		c-0.068,0.333-0.104,0.647-0.104,0.942c0,0.468,0.08,0.843,0.24,1.125c0.16,0.281,0.366,0.422,0.617,0.422
		c0.243,0,0.503-0.13,0.781-0.391c0.277-0.26,0.537-0.582,0.779-0.968s0.443-0.804,0.604-1.255
		C303.499,167.452,303.58,167.031,303.58,166.641z"/>
	<path fill="#3E0106" d="M306.804,166.992c0.121-0.338,0.208-0.61,0.26-0.818s0.078-0.373,0.078-0.494s-0.02-0.201-0.059-0.24
		s-0.08-0.059-0.124-0.059c-0.095,0-0.199,0.045-0.312,0.137c-0.112,0.091-0.226,0.197-0.338,0.318s-0.212,0.242-0.299,0.363
		c-0.087,0.122-0.147,0.217-0.183,0.287l-0.377-0.234c0.104-0.191,0.25-0.403,0.436-0.637c0.187-0.234,0.396-0.451,0.631-0.65
		s0.477-0.366,0.729-0.5c0.251-0.135,0.489-0.202,0.715-0.202c0.217,0,0.379,0.063,0.487,0.188c0.108,0.126,0.162,0.354,0.162,0.683
		c0,0.251-0.075,0.589-0.228,1.015c-0.151,0.424-0.349,0.971-0.592,1.637l-0.48,1.313c-0.018,0.044-0.041,0.11-0.071,0.202
		c-0.03,0.09-0.062,0.186-0.091,0.285c-0.031,0.1-0.057,0.197-0.078,0.293s-0.033,0.174-0.033,0.234
		c0,0.078,0.021,0.146,0.065,0.207s0.112,0.092,0.208,0.092c0.13,0,0.264-0.055,0.402-0.163s0.273-0.235,0.404-0.384
		c0.129-0.146,0.246-0.297,0.351-0.448s0.182-0.271,0.233-0.357l0.391,0.222c-0.104,0.207-0.245,0.438-0.423,0.688
		s-0.379,0.483-0.604,0.695c-0.225,0.212-0.473,0.39-0.74,0.533c-0.27,0.144-0.547,0.214-0.832,0.214
		c-0.252,0-0.44-0.064-0.566-0.194c-0.125-0.13-0.188-0.347-0.188-0.649c0-0.252,0.041-0.522,0.123-0.813
		c0.082-0.291,0.201-0.657,0.357-1.1L306.804,166.992z M308.715,162.13c-0.217,0-0.405-0.074-0.566-0.221
		c-0.16-0.148-0.24-0.338-0.24-0.572s0.078-0.434,0.234-0.598c0.156-0.165,0.347-0.248,0.572-0.248c0.242,0,0.441,0.083,0.598,0.248
		c0.156,0.164,0.234,0.359,0.234,0.584c0,0.227-0.082,0.416-0.247,0.572S308.939,162.13,308.715,162.13z"/>
	<path fill="#3E0106" d="M312.004,171.412c-0.295,0-0.57-0.059-0.826-0.175c-0.256-0.117-0.479-0.288-0.67-0.514
		c-0.19-0.226-0.342-0.501-0.455-0.825c-0.112-0.325-0.168-0.691-0.168-1.099c0-0.563,0.105-1.118,0.318-1.664
		c0.212-0.546,0.491-1.031,0.838-1.456c0.347-0.424,0.743-0.768,1.189-1.027c0.447-0.26,0.908-0.39,1.385-0.39
		c0.313,0,0.6,0.059,0.865,0.175c0.264,0.117,0.488,0.287,0.676,0.508c0.186,0.221,0.333,0.485,0.441,0.793s0.162,0.648,0.162,1.021
		c0,0.546-0.107,1.097-0.324,1.651s-0.501,1.053-0.852,1.494c-0.352,0.442-0.752,0.805-1.203,1.086
		C312.931,171.271,312.471,171.412,312.004,171.412z M312.081,170.762c0.295,0,0.587-0.151,0.878-0.455
		c0.29-0.304,0.55-0.687,0.779-1.15c0.23-0.464,0.416-0.969,0.56-1.515s0.214-1.066,0.214-1.561c0-0.459-0.08-0.775-0.24-0.948
		s-0.379-0.261-0.656-0.261c-0.191,0-0.383,0.068-0.578,0.202s-0.379,0.318-0.553,0.553c-0.174,0.233-0.336,0.503-0.488,0.806
		c-0.15,0.304-0.283,0.624-0.396,0.962c-0.112,0.339-0.199,0.683-0.26,1.034c-0.061,0.351-0.091,0.687-0.091,1.007
		c0,0.485,0.078,0.828,0.234,1.027C311.639,170.663,311.838,170.762,312.081,170.762z"/>
	<path fill="#3E0106" d="M318.75,162.299c0.043-0.156,0.086-0.313,0.13-0.475c0.044-0.16,0.065-0.279,0.065-0.357
		c0-0.304-0.33-0.455-0.988-0.455l0.104-0.39l2.379-0.117l-2.326,8.541c-0.07,0.234-0.121,0.439-0.156,0.617
		s-0.052,0.327-0.052,0.449c0,0.078,0.021,0.146,0.065,0.207c0.043,0.061,0.111,0.092,0.207,0.092c0.139,0,0.286-0.059,0.442-0.176
		c0.155-0.117,0.306-0.256,0.448-0.416s0.271-0.325,0.384-0.494s0.194-0.301,0.247-0.396l0.39,0.221
		c-0.13,0.295-0.299,0.578-0.507,0.852s-0.429,0.514-0.663,0.722c-0.233,0.208-0.47,0.375-0.708,0.501
		c-0.238,0.125-0.457,0.188-0.656,0.188c-0.305,0-0.527-0.064-0.67-0.194s-0.215-0.347-0.215-0.649c0-0.174,0.026-0.408,0.078-0.703
		c0.053-0.294,0.143-0.697,0.273-1.209L318.75,162.299z"/>
	<path fill="#3E0106" d="M325.264,169.553c-0.755,1.239-1.682,1.858-2.783,1.858c-0.598,0-1.057-0.184-1.377-0.552
		c-0.321-0.368-0.481-0.891-0.481-1.566c0-0.599,0.124-1.196,0.37-1.794c0.247-0.598,0.57-1.138,0.969-1.619
		c0.398-0.48,0.846-0.871,1.339-1.17c0.494-0.299,0.988-0.448,1.481-0.448c0.416,0,0.757,0.106,1.021,0.318
		c0.264,0.212,0.396,0.483,0.396,0.813c0,0.304-0.113,0.616-0.338,0.937c-0.227,0.32-0.531,0.623-0.917,0.91
		c-0.386,0.285-0.837,0.545-1.353,0.779s-1.063,0.416-1.645,0.547c-0.017,0.121-0.029,0.24-0.038,0.357
		c-0.009,0.116-0.013,0.236-0.013,0.357c0,0.944,0.333,1.416,1,1.416c0.32,0,0.652-0.125,0.995-0.377
		c0.343-0.251,0.661-0.598,0.956-1.039L325.264,169.553z M324.521,164.873c-0.225,0-0.459,0.088-0.701,0.261
		c-0.243,0.173-0.475,0.405-0.695,0.695c-0.222,0.29-0.423,0.622-0.605,0.995c-0.182,0.372-0.329,0.758-0.441,1.156
		c0.416-0.112,0.801-0.26,1.156-0.441s0.661-0.389,0.917-0.617c0.255-0.23,0.457-0.473,0.604-0.729s0.221-0.514,0.221-0.773
		C324.977,165.055,324.825,164.873,324.521,164.873z"/>
	<path fill="#3E0106" d="M331.893,164.938c-0.207,0-0.443,0.106-0.708,0.319c-0.265,0.212-0.532,0.493-0.806,0.844
		c-0.273,0.352-0.535,0.752-0.787,1.203c-0.251,0.451-0.463,0.91-0.637,1.378l-0.962,2.601h-1.144l0.961-2.978
		c0.156-0.477,0.287-0.884,0.391-1.222s0.188-0.622,0.254-0.852c0.064-0.23,0.109-0.416,0.137-0.559
		c0.025-0.144,0.039-0.258,0.039-0.346c0-0.233-0.074-0.351-0.222-0.351c-0.096,0-0.208,0.062-0.338,0.183s-0.263,0.279-0.396,0.475
		c-0.135,0.194-0.263,0.418-0.384,0.669s-0.225,0.507-0.313,0.767l-0.389-0.195c0.303-0.892,0.643-1.551,1.02-1.975
		c0.377-0.426,0.809-0.638,1.294-0.638c0.277,0,0.474,0.078,0.591,0.233c0.117,0.156,0.176,0.421,0.176,0.793
		c0,0.443-0.074,0.837-0.221,1.184l0.039,0.039c0.441-0.779,0.891-1.35,1.346-1.709s0.951-0.54,1.488-0.54
		c0.381,0,0.672,0.091,0.871,0.272c0.199,0.183,0.299,0.442,0.299,0.781c0,0.111-0.012,0.238-0.033,0.377s-0.058,0.305-0.109,0.5
		c-0.053,0.195-0.124,0.427-0.215,0.695c-0.092,0.269-0.201,0.598-0.332,0.988c-0.199,0.59-0.363,1.083-0.494,1.482
		c-0.129,0.398-0.194,0.68-0.194,0.844c0,0.131,0.043,0.195,0.13,0.195c0.121,0,0.299-0.1,0.533-0.299s0.551-0.52,0.949-0.962
		l0.338,0.183c-0.139,0.26-0.318,0.513-0.539,0.76c-0.222,0.247-0.451,0.471-0.689,0.67s-0.475,0.359-0.709,0.48
		s-0.438,0.182-0.611,0.182c-0.217,0-0.387-0.095-0.514-0.285c-0.125-0.191-0.188-0.442-0.188-0.754c0-0.121,0.01-0.245,0.032-0.371
		c0.021-0.125,0.067-0.305,0.137-0.539s0.171-0.549,0.306-0.943c0.134-0.394,0.318-0.916,0.553-1.566
		c0.077-0.225,0.143-0.416,0.194-0.571c0.052-0.156,0.093-0.292,0.124-0.409c0.029-0.117,0.051-0.219,0.064-0.307
		c0.014-0.086,0.02-0.168,0.02-0.246C332.244,165.099,332.127,164.938,331.893,164.938z"/>
	<path fill="#3E0106" d="M339.368,169.189c-0.364,0.72-0.786,1.27-1.268,1.651s-0.995,0.571-1.54,0.571
		c-0.564,0-1.015-0.192-1.353-0.578c-0.338-0.385-0.507-0.898-0.507-1.54c0-0.382,0.057-0.771,0.169-1.171
		c0.112-0.398,0.265-0.783,0.455-1.156s0.416-0.724,0.676-1.053c0.261-0.33,0.537-0.615,0.832-0.858
		c0.294-0.243,0.601-0.436,0.917-0.579c0.316-0.143,0.625-0.214,0.93-0.214c0.416,0,0.758,0.112,1.026,0.338
		s0.403,0.507,0.403,0.845c0,0.217-0.063,0.393-0.189,0.527c-0.125,0.134-0.287,0.201-0.486,0.201c-0.2,0-0.362-0.063-0.488-0.188
		c-0.125-0.126-0.188-0.28-0.188-0.462c0-0.112,0.018-0.203,0.052-0.273c0.035-0.068,0.053-0.134,0.053-0.194
		c0-0.121-0.104-0.183-0.313-0.183c-0.285,0-0.576,0.135-0.871,0.404c-0.295,0.268-0.561,0.615-0.799,1.039
		c-0.238,0.425-0.434,0.899-0.586,1.424c-0.151,0.524-0.227,1.047-0.227,1.566c0,0.416,0.08,0.743,0.24,0.981
		c0.16,0.239,0.383,0.357,0.67,0.357c0.155,0,0.318-0.043,0.486-0.13c0.17-0.086,0.341-0.205,0.514-0.357
		c0.174-0.151,0.34-0.332,0.501-0.539c0.16-0.209,0.306-0.438,0.436-0.689L339.368,169.189z"/>
	<path fill="#3E0106" d="M345.075,169.553c-0.755,1.239-1.682,1.858-2.782,1.858c-0.598,0-1.058-0.184-1.378-0.552
		c-0.321-0.368-0.481-0.891-0.481-1.566c0-0.599,0.124-1.196,0.371-1.794c0.246-0.598,0.569-1.138,0.969-1.619
		c0.398-0.48,0.845-0.871,1.338-1.17c0.494-0.299,0.988-0.448,1.482-0.448c0.416,0,0.756,0.106,1.021,0.318s0.396,0.483,0.396,0.813
		c0,0.304-0.112,0.616-0.338,0.937s-0.53,0.623-0.917,0.91c-0.385,0.285-0.836,0.545-1.352,0.779s-1.064,0.416-1.645,0.547
		c-0.018,0.121-0.03,0.24-0.039,0.357c-0.008,0.116-0.013,0.236-0.013,0.357c0,0.944,0.333,1.416,1.001,1.416
		c0.32,0,0.652-0.125,0.994-0.377c0.343-0.251,0.661-0.598,0.956-1.039L345.075,169.553z M344.334,164.873
		c-0.226,0-0.459,0.088-0.702,0.261s-0.475,0.405-0.695,0.695c-0.222,0.29-0.423,0.622-0.604,0.995
		c-0.182,0.372-0.33,0.758-0.441,1.156c0.416-0.112,0.801-0.26,1.156-0.441s0.66-0.389,0.916-0.617
		c0.256-0.23,0.457-0.473,0.605-0.729c0.146-0.256,0.221-0.514,0.221-0.773C344.789,165.055,344.637,164.873,344.334,164.873z"/>
</g>
</svg>
