<?xml version="1.0" encoding="utf-8"?>
<!-- Generator: Adobe Illustrator 16.0.0, SVG Export Plug-In . SVG Version: 6.00 Build 0)  -->
<!DOCTYPE svg PUBLIC "-//W3C//DTD SVG 1.1//EN" "http://www.w3.org/Graphics/SVG/1.1/DTD/svg11.dtd">
<svg version="1.1" id="Capa_1" xmlns="http://www.w3.org/2000/svg" xmlns:xlink="http://www.w3.org/1999/xlink" x="0px" y="0px"
	 width="313.667px" height="153.667px" viewBox="0 0 313.667 153.667" enable-background="new 0 0 313.667 153.667"
	 xml:space="preserve">
<g data-anchor-target="#section5"
	data--3700-top="opacity:0;"
	data--3750-top="opacity:0.5;"
	data--5350-top="opacity:0.5;"
	data--5400-top="opacity:0;">
	<path  fill="#3E0106" d="M28.595,3.208c-3.67,3.314-7.316,6.606-11.068,9.995l-2.324,2.22v-2.09h-5.033v6.897
		l-1.065,1.018c-2.396,2.309-4.774,4.636-7.156,6.958c-0.132,0.128-0.254,0.267-0.465,0.49c2.752,0,5.353,0,8.015,0
		c0,7.19,0,14.343,0,21.494c12.767,0,25.471,0,38.218,0c0-7.181,0-14.321,0-21.499c2.641,0,5.241,0,7.841,0
		c0.021-0.042,0.044-0.083,0.066-0.125C46.622,20.122,37.621,11.677,28.595,3.208z M31.776,35.73
		c-0.716,0.321-1.467,0.528-2.243,0.624v1.564h2.009v1.91h-2.009v2.457h-1.961v-2.457h-2.009v-1.91h2.009v-1.565
		c-3.354-0.425-6.126-2.999-6.639-6.318c-0.057-0.37-0.086-0.749-0.086-1.125c0-4.14,3.457-7.507,7.706-7.507
		s7.706,3.368,7.706,7.507C36.258,31.829,34.499,34.506,31.776,35.73z"/>
	<path fill="#3E0106" d="M28.553,23.312c-3.168,0-5.745,2.511-5.745,5.597c0,0.282,0.021,0.565,0.064,0.841
		c0.419,2.711,2.861,4.756,5.681,4.756c0.839,0,1.647-0.172,2.402-0.511c2.03-0.912,3.343-2.908,3.343-5.086
		C34.298,25.823,31.721,23.312,28.553,23.312z"/>
</g>
<g data-anchor-target="#section5"
	data--3750-top="opacity:0;"
	data--3800-top="opacity:0.5;"
	data--5300-top="opacity:0.5;"
	data--5350-top="opacity:0;">
	<path  fill="#3E0106" d="M86.673,28.769c0,0.282,0.022,0.565,0.064,0.841c0.4,2.587,2.643,4.563,5.297,4.739V23.19
		C89.046,23.384,86.673,25.808,86.673,28.769z"/>
	<path  fill="#3E0106" d="M80.116,14.281v-1.605h-5.033v6.41l-1.82,1.738l-0.292,0.282
		c-2.396,2.309-4.773,4.636-7.157,6.958c-0.131,0.128-0.253,0.267-0.465,0.49c2.752,0,5.353,0,8.015,0c0,7.189,0,14.343,0,21.494
		c6.234,0,12.455,0,18.672,0v-7.905h-0.597v-2.457h-2.01v-1.91h2.01v-1.565c-3.354-0.425-6.126-2.999-6.639-6.318
		c-0.057-0.371-0.086-0.749-0.086-1.126c0-4.014,3.252-7.292,7.322-7.488V3.452C88.508,6.637,85,9.805,81.392,13.063L80.116,14.281z
		"/>
</g>
<path  data-anchor-target="#section5"
	data--3800-top="opacity:0;"
	data--3850-top="opacity:0.25;"
	data--5250-top="opacity:0.25;"
	data--5300-top="opacity:0;" opacity="0.25" fill="#3E0106" d="M92.801,3.387V21.28v1.91v11.155v7.798v7.905c6.258,0,12.513,0,18.779,0
	c0-7.181,0-14.321,0-21.499c2.641,0,5.241,0,7.841,0c0.022-0.042,0.043-0.083,0.065-0.125
	C110.601,20.087,101.713,11.749,92.801,3.387z"/>
<path  data-anchor-target="#section5"
	data--3850-top="opacity:0;"
	data--3900-top="opacity:0.25;"
	data--5200-top="opacity:0.25;"
	data--5250-top="opacity:0;" opacity="0.25" fill="#3E0106" d="M156.76,3.26c-3.67,3.314-7.316,6.607-11.069,9.995l-1.449,1.384v-1.963h-5.034v6.77
	l-1.94,1.853c-2.396,2.309-4.773,4.636-7.156,6.959c-0.132,0.128-0.254,0.267-0.465,0.49c2.751,0,5.353,0,8.014,0
	c0,7.189,0,14.343,0,21.494c12.767,0,25.472,0,38.217,0c0-7.181,0-14.322,0-21.499c2.643,0,5.242,0,7.843,0
	c0.021-0.042,0.044-0.083,0.065-0.125C174.787,20.173,165.786,11.729,156.76,3.26z"/>
<path  data-anchor-target="#section5"
	data--3900-top="opacity:0;"
	data--3950-top="opacity:0.25;"
	data--5150-top="opacity:0.25;"
	data--5200-top="opacity:0;" opacity="0.25" fill="#3E0106" d="M220.676,3.208c-3.67,3.314-7.316,6.606-11.068,9.995l-1.449,1.384v-1.963h-5.033v6.77
	l-1.939,1.853c-2.396,2.309-4.773,4.636-7.156,6.958c-0.133,0.128-0.254,0.267-0.465,0.49c2.752,0,5.353,0,8.014,0
	c0,7.189,0,14.343,0,21.493c12.768,0,25.472,0,38.218,0c0-7.181,0-14.321,0-21.499c2.642,0,5.242,0,7.842,0
	c0.022-0.042,0.044-0.083,0.065-0.125C238.704,20.122,229.703,11.677,220.676,3.208z"/>
<path data-anchor-target="#section5"
	data--3950-top="opacity:0;"
	data--4000-top="opacity:0.25;"
	data--5100-top="opacity:0.25;"
	data--5150-top="opacity:0;" opacity="0.25" fill="#3E0106" d="M284.593,3.208c-3.67,3.314-7.316,6.606-11.068,9.995l-1.449,1.384v-1.963h-5.033v6.77
	l-1.94,1.853c-2.396,2.309-4.773,4.636-7.155,6.958c-0.133,0.128-0.254,0.267-0.466,0.49c2.752,0,5.354,0,8.015,0
	c0,7.189,0,14.343,0,21.493c12.767,0,25.472,0,38.218,0c0-7.181,0-14.321,0-21.499c2.642,0,5.241,0,7.842,0
	c0.021-0.042,0.044-0.083,0.065-0.125C302.62,20.122,293.62,11.677,284.593,3.208z"/>
<g data-anchor-target="#section5"
	data--4000-top="opacity:0;"
	data--4050-top="opacity:0.5;"
	data--5050-top="opacity:0.5;"
	data--5100-top="opacity:0;" opacity="0.5" enable-background="new    ">
		<path fill="#450D06" d="M14.947,59.388c0.059-0.198,0.103-0.363,0.132-0.495s0.044-0.227,0.044-0.286
		c0-0.11-0.073-0.187-0.221-0.231c-0.146-0.044-0.41-0.066-0.792-0.066l0.121-0.44h2.123l-1.221,4.455
		c-0.154,0.572-0.282,1.06-0.385,1.463s-0.186,0.742-0.248,1.018c-0.063,0.275-0.104,0.5-0.126,0.676
		c-0.022,0.176-0.033,0.323-0.033,0.44c0,0.169,0.025,0.286,0.077,0.352c0.051,0.066,0.117,0.099,0.198,0.099
		c0.161,0,0.335-0.136,0.522-0.407c0.187-0.271,0.354-0.627,0.5-1.067l0.418,0.099c-0.249,0.726-0.522,1.259-0.819,1.601
		c-0.297,0.341-0.633,0.511-1.007,0.511c-0.264,0-0.467-0.084-0.61-0.253c-0.143-0.168-0.214-0.411-0.214-0.726
		c0-0.081,0.007-0.165,0.021-0.253s0.033-0.172,0.055-0.253l-0.088-0.022c-0.278,0.484-0.615,0.856-1.012,1.117
		c-0.396,0.26-0.773,0.39-1.133,0.39c-0.191,0-0.367-0.042-0.528-0.126c-0.161-0.084-0.301-0.202-0.418-0.352
		c-0.117-0.15-0.211-0.33-0.28-0.539c-0.07-0.209-0.104-0.441-0.104-0.698c0-0.315,0.05-0.644,0.148-0.984
		c0.099-0.341,0.234-0.671,0.407-0.99c0.172-0.319,0.372-0.622,0.6-0.907c0.227-0.286,0.467-0.537,0.72-0.754
		c0.253-0.216,0.514-0.387,0.781-0.511s0.53-0.187,0.787-0.187c0.249,0,0.438,0.048,0.566,0.143
		c0.128,0.095,0.254,0.246,0.379,0.451L14.947,59.388z M13.439,61.643c-0.19,0-0.383,0.061-0.577,0.182
		c-0.194,0.121-0.383,0.282-0.566,0.484s-0.354,0.435-0.512,0.698c-0.157,0.264-0.295,0.539-0.412,0.825s-0.211,0.576-0.28,0.869
		c-0.07,0.293-0.104,0.568-0.104,0.825c0,0.264,0.065,0.475,0.197,0.633s0.309,0.236,0.528,0.236c0.169,0,0.341-0.068,0.517-0.204
		c0.177-0.136,0.349-0.313,0.518-0.533c0.168-0.22,0.328-0.471,0.479-0.754c0.15-0.282,0.282-0.572,0.396-0.869
		c0.114-0.297,0.204-0.59,0.27-0.88c0.066-0.29,0.1-0.551,0.1-0.786c0-0.228-0.044-0.405-0.133-0.534
		C13.77,61.708,13.631,61.643,13.439,61.643z"/>
	<path fill="#450D06" d="M18.236,66.318c0.117,0,0.271-0.083,0.462-0.248c0.19-0.165,0.392-0.385,0.604-0.66s0.42-0.589,0.622-0.94
		c0.201-0.352,0.372-0.719,0.511-1.1l0.814-2.2h1.023l-0.814,2.519c-0.117,0.367-0.217,0.68-0.297,0.94
		c-0.081,0.26-0.146,0.48-0.198,0.66s-0.088,0.326-0.11,0.44c-0.021,0.114-0.032,0.204-0.032,0.27c0,0.191,0.065,0.286,0.197,0.286
		c0.073,0,0.161-0.035,0.265-0.104c0.103-0.07,0.207-0.165,0.313-0.286s0.209-0.257,0.308-0.407c0.1-0.15,0.186-0.31,0.259-0.479
		l0.33,0.165c-0.096,0.242-0.22,0.479-0.374,0.709s-0.321,0.438-0.501,0.622c-0.18,0.184-0.368,0.33-0.566,0.44
		c-0.198,0.11-0.393,0.165-0.583,0.165c-0.228,0-0.381-0.081-0.462-0.242c-0.081-0.162-0.121-0.393-0.121-0.693
		c0-0.125,0.006-0.258,0.017-0.401s0.031-0.284,0.061-0.423l-0.033-0.033c-0.197,0.352-0.391,0.642-0.577,0.869
		c-0.188,0.228-0.368,0.411-0.545,0.55c-0.176,0.14-0.348,0.237-0.517,0.292c-0.169,0.055-0.334,0.083-0.495,0.083
		c-0.345,0-0.585-0.095-0.721-0.286c-0.136-0.191-0.203-0.425-0.203-0.704c0-0.308,0.059-0.647,0.176-1.018s0.242-0.721,0.374-1.051
		c0.132-0.33,0.244-0.608,0.336-0.836c0.091-0.227,0.165-0.418,0.22-0.572s0.095-0.279,0.121-0.374
		c0.025-0.095,0.038-0.172,0.038-0.231c0-0.029-0.005-0.057-0.017-0.083c-0.011-0.026-0.038-0.039-0.082-0.039
		c-0.096,0-0.233,0.084-0.413,0.253c-0.18,0.169-0.423,0.44-0.731,0.814l-0.285-0.154c0.109-0.213,0.249-0.425,0.418-0.638
		c0.168-0.212,0.348-0.403,0.539-0.572c0.19-0.169,0.388-0.304,0.594-0.407c0.205-0.103,0.396-0.154,0.571-0.154
		c0.367,0,0.551,0.213,0.551,0.638c0,0.256-0.072,0.588-0.215,0.995c-0.143,0.407-0.328,0.893-0.556,1.458
		c-0.146,0.359-0.268,0.682-0.362,0.968c-0.096,0.286-0.144,0.546-0.144,0.781c0,0.154,0.022,0.262,0.066,0.325
		S18.17,66.318,18.236,66.318z"/>
	<path fill="#450D06" d="M23.131,62.699c0.08-0.184,0.203-0.373,0.368-0.567c0.165-0.194,0.345-0.37,0.539-0.528
		s0.391-0.288,0.588-0.391c0.198-0.103,0.371-0.154,0.518-0.154c0.176,0,0.304,0.066,0.385,0.198
		c0.081,0.132,0.121,0.345,0.121,0.638c0,0.117-0.006,0.231-0.017,0.341c-0.011,0.11-0.031,0.239-0.061,0.385l0.033,0.033
		c0.088-0.212,0.213-0.421,0.374-0.627c0.161-0.205,0.335-0.387,0.522-0.544c0.187-0.158,0.378-0.286,0.572-0.385
		c0.194-0.099,0.375-0.148,0.544-0.148c0.213,0,0.391,0.068,0.534,0.203c0.143,0.136,0.214,0.303,0.214,0.5
		c0,0.191-0.061,0.349-0.182,0.473c-0.121,0.125-0.276,0.187-0.467,0.187c-0.118,0-0.211-0.022-0.281-0.066
		c-0.069-0.044-0.13-0.09-0.181-0.138c-0.052-0.047-0.1-0.093-0.144-0.137s-0.099-0.066-0.165-0.066c-0.14,0-0.301,0.093-0.483,0.28
		c-0.184,0.187-0.374,0.442-0.572,0.765s-0.395,0.7-0.589,1.133s-0.372,0.898-0.533,1.397L24.274,67h-1.023l0.716-2.277
		c0.139-0.44,0.254-0.805,0.346-1.095c0.092-0.29,0.163-0.532,0.215-0.726c0.052-0.194,0.086-0.346,0.104-0.457
		c0.019-0.11,0.027-0.205,0.027-0.286c0-0.161-0.055-0.242-0.165-0.242c-0.073,0-0.163,0.029-0.27,0.088
		c-0.106,0.059-0.211,0.132-0.313,0.22s-0.199,0.187-0.291,0.297s-0.16,0.216-0.204,0.319L23.131,62.699z"/>
	<path fill="#450D06" d="M32.591,61.17h0.913l-0.627,1.683c-0.104,0.279-0.204,0.576-0.303,0.891s-0.188,0.62-0.264,0.913
		c-0.077,0.293-0.138,0.561-0.182,0.803s-0.066,0.422-0.066,0.539c0,0.213,0.069,0.319,0.209,0.319c0.103,0,0.251-0.106,0.445-0.319
		c0.194-0.212,0.413-0.488,0.655-0.825l0.285,0.231c-0.308,0.543-0.64,0.963-0.995,1.26s-0.698,0.445-1.028,0.445
		c-0.169,0-0.299-0.064-0.391-0.192s-0.138-0.339-0.138-0.632c0-0.066,0.002-0.143,0.006-0.231c0.004-0.088,0.013-0.206,0.027-0.352
		l-0.044-0.011c-0.11,0.206-0.24,0.395-0.391,0.566c-0.15,0.172-0.313,0.323-0.489,0.451s-0.359,0.228-0.55,0.297
		c-0.191,0.07-0.378,0.104-0.562,0.104c-0.374,0-0.665-0.141-0.874-0.423s-0.313-0.673-0.313-1.171c0-0.506,0.105-1.023,0.318-1.551
		c0.213-0.528,0.488-1.006,0.825-1.436c0.337-0.429,0.711-0.781,1.122-1.056c0.41-0.275,0.814-0.413,1.21-0.413
		c0.242,0,0.44,0.057,0.594,0.17c0.154,0.114,0.279,0.299,0.374,0.556L32.591,61.17z M31.458,61.632
		c-0.279,0-0.566,0.128-0.864,0.385c-0.297,0.257-0.566,0.578-0.808,0.962c-0.242,0.385-0.44,0.799-0.595,1.243
		c-0.153,0.444-0.23,0.856-0.23,1.237c0,0.264,0.055,0.475,0.165,0.632c0.109,0.158,0.26,0.237,0.451,0.237
		c0.168,0,0.344-0.068,0.527-0.204s0.361-0.315,0.533-0.539c0.173-0.224,0.336-0.479,0.49-0.765
		c0.153-0.286,0.289-0.581,0.406-0.885c0.118-0.304,0.21-0.603,0.275-0.896c0.066-0.293,0.099-0.557,0.099-0.792
		c0-0.19-0.04-0.341-0.12-0.451C31.707,61.687,31.597,61.632,31.458,61.632z"/>
	<path fill="#450D06" d="M38.75,61.632c-0.176,0-0.376,0.09-0.6,0.27s-0.451,0.418-0.682,0.715
		c-0.231,0.297-0.453,0.636-0.666,1.017c-0.212,0.382-0.392,0.77-0.538,1.166L35.45,67h-0.968l0.813-2.519
		c0.132-0.403,0.242-0.748,0.33-1.034c0.088-0.286,0.16-0.526,0.215-0.72s0.094-0.352,0.115-0.473
		c0.022-0.121,0.033-0.218,0.033-0.292c0-0.198-0.063-0.297-0.188-0.297c-0.08,0-0.176,0.051-0.285,0.154
		c-0.11,0.103-0.223,0.237-0.336,0.402s-0.222,0.354-0.324,0.566c-0.104,0.213-0.191,0.429-0.265,0.649l-0.33-0.165
		c0.257-0.755,0.545-1.313,0.864-1.672c0.318-0.359,0.684-0.539,1.094-0.539c0.235,0,0.402,0.066,0.501,0.198
		c0.099,0.132,0.148,0.356,0.148,0.671c0,0.374-0.063,0.708-0.187,1.001l0.032,0.033c0.374-0.66,0.754-1.142,1.139-1.446
		s0.805-0.457,1.26-0.457c0.322,0,0.568,0.077,0.737,0.231c0.168,0.154,0.253,0.374,0.253,0.66c0,0.095-0.01,0.202-0.027,0.319
		c-0.019,0.117-0.05,0.258-0.094,0.423s-0.104,0.361-0.182,0.589c-0.077,0.227-0.171,0.506-0.28,0.836
		c-0.169,0.499-0.309,0.917-0.418,1.254c-0.11,0.337-0.165,0.576-0.165,0.715c0,0.11,0.036,0.165,0.109,0.165
		c0.103,0,0.253-0.084,0.451-0.253c0.198-0.168,0.466-0.44,0.803-0.814l0.286,0.154c-0.117,0.22-0.27,0.435-0.456,0.644
		c-0.188,0.209-0.382,0.398-0.583,0.566c-0.202,0.169-0.401,0.305-0.6,0.407s-0.37,0.154-0.517,0.154
		c-0.184,0-0.329-0.081-0.435-0.242c-0.106-0.162-0.16-0.374-0.16-0.638c0-0.103,0.01-0.207,0.027-0.313
		c0.019-0.106,0.058-0.258,0.116-0.457c0.059-0.198,0.145-0.464,0.258-0.797c0.114-0.333,0.27-0.775,0.468-1.326
		c0.066-0.19,0.121-0.352,0.165-0.484s0.079-0.248,0.104-0.347c0.025-0.099,0.044-0.185,0.055-0.258
		c0.012-0.073,0.017-0.143,0.017-0.209C39.047,61.768,38.948,61.632,38.75,61.632z"/>
	<path fill="#450D06" d="M43.558,62.083l-0.913,3.025c-0.125,0.396-0.19,0.697-0.198,0.902c0,0.066,0.017,0.125,0.05,0.176
		s0.09,0.077,0.171,0.077c0.132,0,0.271-0.05,0.418-0.149c0.146-0.099,0.287-0.216,0.423-0.352s0.257-0.275,0.363-0.418
		c0.106-0.143,0.186-0.255,0.236-0.336l0.319,0.187c-0.125,0.25-0.282,0.49-0.473,0.721c-0.191,0.231-0.393,0.435-0.605,0.61
		c-0.213,0.176-0.428,0.317-0.644,0.424c-0.217,0.106-0.412,0.159-0.589,0.159c-0.256,0-0.441-0.055-0.555-0.165
		c-0.114-0.11-0.171-0.293-0.171-0.55c0-0.146,0.025-0.345,0.077-0.594c0.051-0.249,0.139-0.59,0.264-1.023l0.814-2.695H41.6
		l0.143-0.506h0.957l0.572-1.892h1.012l-0.571,1.892h1.199l-0.154,0.506H43.558z"/>
	<path fill="#450D06" d="M49.068,65.537c-0.638,1.049-1.423,1.573-2.354,1.573c-0.506,0-0.895-0.156-1.166-0.467
		c-0.271-0.312-0.406-0.753-0.406-1.326c0-0.506,0.104-1.012,0.313-1.518c0.209-0.506,0.481-0.962,0.819-1.369
		c0.337-0.407,0.715-0.737,1.133-0.99s0.836-0.379,1.254-0.379c0.353,0,0.64,0.09,0.863,0.27s0.336,0.409,0.336,0.688
		c0,0.257-0.096,0.521-0.286,0.792s-0.449,0.528-0.775,0.77c-0.326,0.242-0.708,0.462-1.144,0.66
		c-0.437,0.198-0.9,0.352-1.392,0.462c-0.016,0.103-0.026,0.203-0.033,0.302c-0.008,0.099-0.011,0.2-0.011,0.303
		c0,0.799,0.282,1.199,0.847,1.199c0.271,0,0.552-0.106,0.842-0.319c0.289-0.212,0.559-0.506,0.808-0.88L49.068,65.537z
		 M48.441,61.577c-0.19,0-0.389,0.073-0.594,0.22c-0.206,0.147-0.401,0.343-0.589,0.589c-0.187,0.246-0.357,0.526-0.512,0.841
		c-0.153,0.315-0.278,0.642-0.374,0.979c0.353-0.095,0.679-0.22,0.979-0.374s0.559-0.328,0.775-0.522
		c0.216-0.194,0.387-0.4,0.512-0.616c0.124-0.216,0.187-0.435,0.187-0.654C48.826,61.731,48.698,61.577,48.441,61.577z"/>
	<path fill="#450D06" d="M55.041,59.399c0.037-0.132,0.073-0.266,0.11-0.401c0.036-0.136,0.055-0.236,0.055-0.303
		c0-0.256-0.278-0.385-0.836-0.385l0.088-0.33l2.014-0.099l-1.97,7.227c-0.059,0.198-0.103,0.373-0.132,0.522
		c-0.029,0.15-0.044,0.277-0.044,0.379c0,0.066,0.019,0.125,0.055,0.176c0.037,0.051,0.096,0.077,0.177,0.077
		c0.117,0,0.242-0.05,0.374-0.149c0.132-0.099,0.258-0.216,0.379-0.352s0.229-0.275,0.325-0.418
		c0.095-0.143,0.165-0.255,0.209-0.336l0.33,0.187c-0.11,0.25-0.254,0.49-0.43,0.721s-0.363,0.435-0.561,0.61
		c-0.198,0.176-0.398,0.317-0.6,0.424c-0.202,0.106-0.387,0.159-0.556,0.159c-0.257,0-0.445-0.055-0.566-0.165
		c-0.121-0.11-0.182-0.293-0.182-0.55c0-0.146,0.022-0.345,0.066-0.594c0.044-0.249,0.121-0.59,0.23-1.023L55.041,59.399z"/>
	<path fill="#450D06" d="M61.256,61.17h0.913l-0.627,1.683c-0.104,0.279-0.204,0.576-0.303,0.891s-0.188,0.62-0.264,0.913
		c-0.077,0.293-0.138,0.561-0.182,0.803s-0.066,0.422-0.066,0.539c0,0.213,0.069,0.319,0.209,0.319c0.103,0,0.251-0.106,0.445-0.319
		c0.194-0.212,0.413-0.488,0.655-0.825l0.285,0.231c-0.308,0.543-0.64,0.963-0.995,1.26s-0.698,0.445-1.028,0.445
		c-0.169,0-0.299-0.064-0.391-0.192s-0.138-0.339-0.138-0.632c0-0.066,0.002-0.143,0.006-0.231c0.004-0.088,0.013-0.206,0.027-0.352
		l-0.044-0.011c-0.11,0.206-0.24,0.395-0.391,0.566c-0.15,0.172-0.313,0.323-0.489,0.451s-0.359,0.228-0.55,0.297
		c-0.191,0.07-0.378,0.104-0.562,0.104c-0.374,0-0.665-0.141-0.874-0.423s-0.313-0.673-0.313-1.171c0-0.506,0.105-1.023,0.318-1.551
		c0.213-0.528,0.488-1.006,0.825-1.436c0.337-0.429,0.711-0.781,1.122-1.056c0.41-0.275,0.814-0.413,1.21-0.413
		c0.242,0,0.44,0.057,0.594,0.17c0.154,0.114,0.279,0.299,0.374,0.556L61.256,61.17z M60.123,61.632
		c-0.279,0-0.566,0.128-0.864,0.385c-0.297,0.257-0.566,0.578-0.808,0.962c-0.242,0.385-0.44,0.799-0.595,1.243
		c-0.153,0.444-0.23,0.856-0.23,1.237c0,0.264,0.055,0.475,0.165,0.632c0.109,0.158,0.26,0.237,0.451,0.237
		c0.168,0,0.344-0.068,0.527-0.204s0.361-0.315,0.533-0.539c0.173-0.224,0.336-0.479,0.49-0.765
		c0.153-0.286,0.289-0.581,0.406-0.885c0.118-0.304,0.21-0.603,0.275-0.896c0.066-0.293,0.099-0.557,0.099-0.792
		c0-0.19-0.04-0.341-0.12-0.451C60.372,61.687,60.262,61.632,60.123,61.632z"/>
	<path fill="#450D06" d="M63.588,62.743c0-0.242,0.046-0.466,0.138-0.671c0.092-0.205,0.218-0.383,0.38-0.533
		c0.161-0.15,0.354-0.268,0.577-0.352s0.468-0.126,0.731-0.126c0.353,0,0.646,0.088,0.88,0.264c0.235,0.176,0.353,0.403,0.353,0.682
		c0,0.154-0.043,0.275-0.127,0.363c-0.084,0.088-0.2,0.132-0.347,0.132c-0.168,0-0.289-0.049-0.362-0.148s-0.136-0.209-0.188-0.33
		c-0.051-0.121-0.106-0.233-0.165-0.335s-0.157-0.154-0.297-0.154c-0.161,0-0.297,0.069-0.407,0.209
		c-0.109,0.139-0.165,0.312-0.165,0.517c0,0.242,0.072,0.468,0.215,0.677s0.303,0.427,0.479,0.654
		c0.176,0.228,0.336,0.477,0.479,0.748c0.143,0.271,0.215,0.59,0.215,0.957c0,0.25-0.054,0.484-0.16,0.704s-0.249,0.413-0.429,0.578
		s-0.387,0.295-0.621,0.39c-0.235,0.095-0.478,0.143-0.727,0.143c-0.439,0-0.79-0.095-1.051-0.286c-0.26-0.191-0.39-0.44-0.39-0.748
		c0-0.213,0.049-0.38,0.148-0.5c0.099-0.121,0.232-0.182,0.401-0.182c0.315,0,0.495,0.216,0.539,0.649
		c0.021,0.235,0.061,0.391,0.115,0.468c0.055,0.077,0.167,0.115,0.336,0.115c0.264,0,0.473-0.079,0.627-0.236
		c0.153-0.158,0.23-0.376,0.23-0.655c0-0.293-0.073-0.554-0.22-0.781c-0.146-0.228-0.309-0.449-0.484-0.666
		s-0.337-0.446-0.483-0.688C63.661,63.359,63.588,63.073,63.588,62.743z"/>
	<path fill="#450D06" d="M74.06,65.229c-0.308,0.609-0.665,1.074-1.072,1.397s-0.841,0.484-1.304,0.484
		c-0.477,0-0.857-0.163-1.144-0.489s-0.429-0.761-0.429-1.304c0-0.322,0.047-0.652,0.143-0.99s0.224-0.664,0.385-0.979
		s0.353-0.612,0.572-0.891s0.455-0.521,0.704-0.726c0.249-0.205,0.508-0.369,0.775-0.489c0.268-0.121,0.53-0.182,0.786-0.182
		c0.353,0,0.642,0.095,0.869,0.286c0.228,0.19,0.342,0.429,0.342,0.715c0,0.184-0.054,0.332-0.16,0.445
		c-0.106,0.114-0.244,0.17-0.412,0.17c-0.169,0-0.307-0.053-0.413-0.159s-0.159-0.237-0.159-0.391c0-0.095,0.015-0.172,0.044-0.231
		s0.044-0.114,0.044-0.165c0-0.103-0.088-0.154-0.264-0.154c-0.242,0-0.488,0.114-0.737,0.341c-0.249,0.228-0.475,0.521-0.677,0.88
		c-0.201,0.359-0.366,0.761-0.494,1.205c-0.129,0.444-0.193,0.886-0.193,1.326c0,0.352,0.068,0.629,0.204,0.831
		s0.324,0.302,0.566,0.302c0.132,0,0.27-0.037,0.412-0.11c0.144-0.073,0.288-0.174,0.435-0.303c0.146-0.128,0.288-0.28,0.424-0.457
		c0.136-0.176,0.259-0.37,0.368-0.583L74.06,65.229z"/>
	<path fill="#450D06" d="M75.039,62.699c0.08-0.184,0.203-0.373,0.368-0.567c0.165-0.194,0.345-0.37,0.539-0.528
		s0.391-0.288,0.588-0.391c0.198-0.103,0.371-0.154,0.518-0.154c0.176,0,0.304,0.066,0.385,0.198
		c0.081,0.132,0.121,0.345,0.121,0.638c0,0.117-0.006,0.231-0.017,0.341c-0.011,0.11-0.031,0.239-0.061,0.385l0.033,0.033
		c0.088-0.212,0.213-0.421,0.374-0.627c0.161-0.205,0.335-0.387,0.522-0.544c0.187-0.158,0.378-0.286,0.572-0.385
		c0.194-0.099,0.375-0.148,0.544-0.148c0.213,0,0.391,0.068,0.534,0.203c0.143,0.136,0.214,0.303,0.214,0.5
		c0,0.191-0.061,0.349-0.182,0.473c-0.121,0.125-0.276,0.187-0.467,0.187c-0.118,0-0.211-0.022-0.281-0.066
		c-0.069-0.044-0.13-0.09-0.181-0.138c-0.052-0.047-0.1-0.093-0.144-0.137s-0.099-0.066-0.165-0.066c-0.14,0-0.301,0.093-0.483,0.28
		c-0.184,0.187-0.374,0.442-0.572,0.765s-0.395,0.7-0.589,1.133s-0.372,0.898-0.533,1.397L76.183,67h-1.023l0.716-2.277
		c0.139-0.44,0.254-0.805,0.346-1.095c0.092-0.29,0.163-0.532,0.215-0.726c0.052-0.194,0.086-0.346,0.104-0.457
		c0.019-0.11,0.027-0.205,0.027-0.286c0-0.161-0.055-0.242-0.165-0.242c-0.073,0-0.163,0.029-0.27,0.088
		c-0.106,0.059-0.211,0.132-0.313,0.22s-0.199,0.187-0.291,0.297s-0.16,0.216-0.204,0.319L75.039,62.699z"/>
	<path fill="#450D06" d="M81.342,63.37c0.103-0.286,0.176-0.517,0.22-0.693c0.044-0.176,0.065-0.315,0.065-0.418
		c0-0.103-0.016-0.17-0.049-0.203c-0.033-0.033-0.068-0.05-0.104-0.05c-0.081,0-0.169,0.039-0.265,0.116
		c-0.095,0.077-0.19,0.167-0.285,0.27c-0.096,0.103-0.181,0.205-0.254,0.308c-0.073,0.103-0.124,0.183-0.153,0.242l-0.319-0.198
		c0.088-0.162,0.211-0.341,0.368-0.539c0.158-0.198,0.336-0.381,0.534-0.55c0.198-0.168,0.403-0.31,0.616-0.423
		c0.212-0.114,0.414-0.17,0.604-0.17c0.184,0,0.32,0.053,0.412,0.16c0.092,0.106,0.138,0.299,0.138,0.577
		c0,0.213-0.064,0.499-0.192,0.858c-0.128,0.359-0.295,0.822-0.5,1.386l-0.407,1.111c-0.015,0.037-0.035,0.094-0.061,0.17
		c-0.025,0.077-0.052,0.158-0.077,0.242c-0.025,0.084-0.048,0.167-0.066,0.248c-0.018,0.081-0.027,0.147-0.027,0.198
		c0,0.066,0.019,0.125,0.056,0.176c0.036,0.051,0.095,0.077,0.176,0.077c0.11,0,0.224-0.046,0.341-0.138s0.231-0.2,0.341-0.325
		c0.11-0.125,0.209-0.251,0.297-0.379c0.088-0.128,0.154-0.229,0.198-0.302l0.33,0.187c-0.088,0.176-0.207,0.37-0.357,0.583
		c-0.15,0.212-0.321,0.409-0.512,0.588s-0.399,0.33-0.627,0.451c-0.228,0.121-0.462,0.181-0.704,0.181
		c-0.213,0-0.372-0.055-0.479-0.165c-0.106-0.11-0.159-0.293-0.159-0.55c0-0.212,0.034-0.442,0.104-0.688
		c0.069-0.246,0.171-0.556,0.303-0.93L81.342,63.37z M82.958,59.256c-0.183,0-0.343-0.062-0.479-0.187
		c-0.136-0.125-0.203-0.286-0.203-0.484c0-0.198,0.066-0.367,0.198-0.506s0.293-0.209,0.483-0.209c0.206,0,0.374,0.07,0.507,0.209
		c0.132,0.139,0.197,0.304,0.197,0.495c0,0.19-0.069,0.352-0.209,0.484C83.314,59.19,83.149,59.256,82.958,59.256z"/>
	<path fill="#450D06" d="M84.531,62.743c0-0.242,0.046-0.466,0.138-0.671c0.092-0.205,0.218-0.383,0.38-0.533
		c0.161-0.15,0.354-0.268,0.577-0.352s0.468-0.126,0.731-0.126c0.353,0,0.646,0.088,0.88,0.264c0.235,0.176,0.353,0.403,0.353,0.682
		c0,0.154-0.043,0.275-0.127,0.363c-0.084,0.088-0.2,0.132-0.347,0.132c-0.168,0-0.289-0.049-0.362-0.148s-0.136-0.209-0.188-0.33
		c-0.051-0.121-0.106-0.233-0.165-0.335s-0.157-0.154-0.297-0.154c-0.161,0-0.297,0.069-0.407,0.209
		c-0.109,0.139-0.165,0.312-0.165,0.517c0,0.242,0.072,0.468,0.215,0.677s0.303,0.427,0.479,0.654
		c0.176,0.228,0.336,0.477,0.479,0.748c0.143,0.271,0.215,0.59,0.215,0.957c0,0.25-0.054,0.484-0.16,0.704s-0.249,0.413-0.429,0.578
		s-0.387,0.295-0.621,0.39c-0.235,0.095-0.478,0.143-0.727,0.143c-0.439,0-0.79-0.095-1.051-0.286c-0.26-0.191-0.39-0.44-0.39-0.748
		c0-0.213,0.049-0.38,0.148-0.5c0.099-0.121,0.232-0.182,0.401-0.182c0.315,0,0.495,0.216,0.539,0.649
		c0.021,0.235,0.061,0.391,0.115,0.468c0.055,0.077,0.167,0.115,0.336,0.115c0.264,0,0.473-0.079,0.627-0.236
		c0.153-0.158,0.23-0.376,0.23-0.655c0-0.293-0.073-0.554-0.22-0.781c-0.146-0.228-0.309-0.449-0.484-0.666
		s-0.337-0.446-0.483-0.688C84.604,63.359,84.531,63.073,84.531,62.743z"/>
	<path fill="#450D06" d="M89.317,63.37c0.103-0.286,0.176-0.517,0.22-0.693c0.044-0.176,0.065-0.315,0.065-0.418
		c0-0.103-0.016-0.17-0.049-0.203c-0.033-0.033-0.068-0.05-0.104-0.05c-0.081,0-0.169,0.039-0.265,0.116
		c-0.095,0.077-0.19,0.167-0.285,0.27c-0.096,0.103-0.181,0.205-0.254,0.308c-0.073,0.103-0.124,0.183-0.153,0.242l-0.319-0.198
		c0.088-0.162,0.211-0.341,0.368-0.539c0.158-0.198,0.336-0.381,0.534-0.55c0.198-0.168,0.403-0.31,0.616-0.423
		c0.212-0.114,0.414-0.17,0.604-0.17c0.184,0,0.32,0.053,0.412,0.16c0.092,0.106,0.138,0.299,0.138,0.577
		c0,0.213-0.064,0.499-0.192,0.858c-0.128,0.359-0.295,0.822-0.5,1.386l-0.407,1.111c-0.015,0.037-0.035,0.094-0.061,0.17
		c-0.025,0.077-0.052,0.158-0.077,0.242c-0.025,0.084-0.048,0.167-0.066,0.248c-0.018,0.081-0.027,0.147-0.027,0.198
		c0,0.066,0.019,0.125,0.056,0.176c0.036,0.051,0.095,0.077,0.176,0.077c0.11,0,0.224-0.046,0.341-0.138s0.231-0.2,0.341-0.325
		c0.11-0.125,0.209-0.251,0.297-0.379c0.088-0.128,0.154-0.229,0.198-0.302l0.33,0.187c-0.088,0.176-0.207,0.37-0.357,0.583
		c-0.15,0.212-0.321,0.409-0.512,0.588s-0.399,0.33-0.627,0.451c-0.228,0.121-0.462,0.181-0.704,0.181
		c-0.213,0-0.372-0.055-0.479-0.165c-0.106-0.11-0.159-0.293-0.159-0.55c0-0.212,0.034-0.442,0.104-0.688
		c0.069-0.246,0.171-0.556,0.303-0.93L89.317,63.37z M90.934,59.256c-0.183,0-0.343-0.062-0.479-0.187
		c-0.136-0.125-0.203-0.286-0.203-0.484c0-0.198,0.066-0.367,0.198-0.506s0.293-0.209,0.483-0.209c0.206,0,0.374,0.07,0.507,0.209
		c0.132,0.139,0.197,0.304,0.197,0.495c0,0.19-0.069,0.352-0.209,0.484C91.29,59.19,91.125,59.256,90.934,59.256z"/>
	<path fill="#450D06" d="M92.507,62.743c0-0.242,0.046-0.466,0.138-0.671c0.092-0.205,0.218-0.383,0.38-0.533
		c0.161-0.15,0.354-0.268,0.577-0.352s0.468-0.126,0.731-0.126c0.353,0,0.646,0.088,0.88,0.264c0.235,0.176,0.353,0.403,0.353,0.682
		c0,0.154-0.043,0.275-0.127,0.363c-0.084,0.088-0.2,0.132-0.347,0.132c-0.168,0-0.289-0.049-0.362-0.148s-0.136-0.209-0.188-0.33
		c-0.051-0.121-0.106-0.233-0.165-0.335s-0.157-0.154-0.297-0.154c-0.161,0-0.297,0.069-0.407,0.209
		c-0.109,0.139-0.165,0.312-0.165,0.517c0,0.242,0.072,0.468,0.215,0.677s0.303,0.427,0.479,0.654
		c0.176,0.228,0.336,0.477,0.479,0.748c0.143,0.271,0.215,0.59,0.215,0.957c0,0.25-0.054,0.484-0.16,0.704s-0.249,0.413-0.429,0.578
		s-0.387,0.295-0.621,0.39c-0.235,0.095-0.478,0.143-0.727,0.143c-0.439,0-0.79-0.095-1.051-0.286c-0.26-0.191-0.39-0.44-0.39-0.748
		c0-0.213,0.049-0.38,0.148-0.5c0.099-0.121,0.232-0.182,0.401-0.182c0.315,0,0.495,0.216,0.539,0.649
		c0.021,0.235,0.061,0.391,0.115,0.468c0.055,0.077,0.167,0.115,0.336,0.115c0.264,0,0.473-0.079,0.627-0.236
		c0.153-0.158,0.23-0.376,0.23-0.655c0-0.293-0.073-0.554-0.22-0.781c-0.146-0.228-0.309-0.449-0.484-0.666
		s-0.337-0.446-0.483-0.688C92.58,63.359,92.507,63.073,92.507,62.743z"/>



	
</g>
<g  data-anchor-target="#section5"
	data--4050-top="opacity:0;"
	data--4100-top="opacity:0.5;"
	data--5000-top="opacity:0.5;"
	data--5050-top="opacity:0;">
	<path  fill="#3E0106" d="M22.808,107.841c0,0.283,0.021,0.566,0.064,0.842c0.4,2.588,2.644,4.563,5.298,4.738v-11.158
		C25.181,102.456,22.808,104.88,22.808,107.841z"/>
	<path  fill="#3E0106" d="M15.203,94.354v-2.211h-5.033v6.955h0.063l-0.835,0.799l-0.292,0.281
		c-2.396,2.311-4.774,4.637-7.156,6.959c-0.132,0.129-0.254,0.268-0.465,0.49c2.752,0,5.353,0,8.015,0c0,7.189,0,14.344,0,21.494
		c6.235,0,12.455,0,18.672,0v-7.904h-0.597v-2.457h-2.009v-1.91h2.009v-1.566c-3.354-0.424-6.126-2.998-6.639-6.316
		c-0.057-0.371-0.086-0.75-0.086-1.127c0-4.014,3.252-7.291,7.322-7.488V82.524c-3.527,3.185-7.036,6.354-10.643,9.611
		L15.203,94.354z"/>
</g>
<path   data-anchor-target="#section5"
	data--4100-top="opacity:0;"
	data--4150-top="opacity:0.25;"
	data--4950-top="opacity:0.25;"
	data--5000-top="opacity:0;" opacity="0.25" fill="#3E0106" d="M28.936,82.46v17.893v1.91v11.156v7.799v7.904c6.258,0,12.513,0,18.779,0
	c0-7.182,0-14.322,0-21.5c2.641,0,5.241,0,7.841,0c0.021-0.041,0.044-0.082,0.066-0.123C46.735,99.159,37.848,90.821,28.936,82.46z"
	/>
<path   data-anchor-target="#section5"
	data--4150-top="opacity:0;"
	data--4200-top="opacity:0.25;"
	data--4900-top="opacity:0.25;"
	data--4950-top="opacity:0;" opacity="0.25" fill="#3E0106" d="M92.843,82.024c-3.67,3.315-7.315,6.607-11.068,9.996l-1.449,1.384V91.44h-5.033v6.771
	l-1.939,1.852c-2.396,2.311-4.774,4.637-7.156,6.959c-0.132,0.129-0.254,0.268-0.465,0.49c2.752,0,5.353,0,8.015,0
	c0,7.189,0,14.342,0,21.494c12.766,0,25.471,0,38.218,0c0-7.182,0-14.322,0-21.498c2.641,0,5.241,0,7.841,0
	c0.022-0.043,0.043-0.084,0.065-0.125C110.87,98.938,101.87,90.493,92.843,82.024z"/>
<path   data-anchor-target="#section5"
	data--4200-top="opacity:0;"
	data--4250-top="opacity:0.25;"
	data--4850-top="opacity:0.25;"
	data--4900-top="opacity:0;" opacity="0.25" fill="#3E0106" d="M156.76,82.024c-3.67,3.315-7.316,6.607-11.069,9.996l-1.449,1.384V91.44h-5.034v6.771
	l-1.94,1.852c-2.396,2.311-4.773,4.637-7.156,6.959c-0.132,0.129-0.254,0.268-0.465,0.49c2.751,0,5.353,0,8.014,0
	c0,7.189,0,14.342,0,21.494c12.767,0,25.472,0,38.217,0c0-7.182,0-14.322,0-21.498c2.643,0,5.242,0,7.843,0
	c0.021-0.043,0.044-0.084,0.065-0.125C174.787,98.938,165.786,90.493,156.76,82.024z"/>
<path   data-anchor-target="#section5"
	data--4250-top="opacity:0;"
	data--4300-top="opacity:0.25;"
	data--4800-top="opacity:0.25;"
	data--4850-top="opacity:0;" opacity="0.25" fill="#3E0106" d="M220.676,82.024c-3.67,3.315-7.316,6.607-11.068,9.996l-1.449,1.384V91.44h-5.033v6.771
	l-1.939,1.852c-2.396,2.311-4.773,4.637-7.156,6.959c-0.133,0.129-0.254,0.268-0.465,0.49c2.752,0,5.353,0,8.014,0
	c0,7.189,0,14.342,0,21.494c12.768,0,25.472,0,38.218,0c0-7.182,0-14.322,0-21.498c2.642,0,5.242,0,7.842,0
	c0.022-0.043,0.044-0.084,0.065-0.125C238.704,98.938,229.703,90.493,220.676,82.024z"/>
<path data-anchor-target="#section5"
	data--4300-top="opacity:0;"
	data--4350-top="opacity:0.25;"
	data--4750-top="opacity:0.25;"
	data--4780-top="opacity:0;" opacity="0.25" fill="#3E0106" d="M284.593,82.024c-3.67,3.315-7.316,6.607-11.068,9.996l-1.449,1.384V91.44h-5.033v6.771
	l-1.94,1.852c-2.396,2.311-4.773,4.637-7.155,6.959c-0.133,0.129-0.254,0.268-0.466,0.49c2.752,0,5.354,0,8.015,0
	c0,7.189,0,14.342,0,21.494c12.767,0,25.472,0,38.218,0c0-7.182,0-14.322,0-21.498c2.642,0,5.241,0,7.842,0
	c0.021-0.043,0.044-0.084,0.065-0.125C302.62,98.938,293.62,90.493,284.593,82.024z"/>
<g data-anchor-target="#section5"
	data--4350-top="opacity:0;"
	data--4400-top="opacity:0.5;"
	data--4700-top="opacity:0.5;"
	data--4750-top="opacity:0;" opacity="0.5" enable-background="new    ">
<path fill="#450D06" d="M15.011,144.251h0.913l-0.627,1.684c-0.104,0.279-0.204,0.576-0.303,0.891
		c-0.099,0.316-0.188,0.62-0.264,0.914c-0.077,0.293-0.138,0.561-0.182,0.803s-0.066,0.422-0.066,0.539
		c0,0.213,0.069,0.318,0.209,0.318c0.103,0,0.251-0.105,0.445-0.318s0.413-0.488,0.655-0.826l0.285,0.231
		c-0.308,0.543-0.64,0.963-0.995,1.26s-0.698,0.445-1.028,0.445c-0.169,0-0.299-0.063-0.391-0.192s-0.138-0.339-0.138-0.633
		c0-0.065,0.002-0.143,0.006-0.23s0.013-0.205,0.027-0.352l-0.044-0.012c-0.11,0.205-0.24,0.395-0.391,0.566
		s-0.313,0.322-0.489,0.451s-0.359,0.228-0.55,0.297c-0.191,0.07-0.378,0.104-0.562,0.104c-0.374,0-0.665-0.142-0.874-0.423
		c-0.209-0.283-0.313-0.674-0.313-1.172c0-0.506,0.105-1.023,0.318-1.551c0.213-0.528,0.488-1.007,0.825-1.436
		c0.337-0.43,0.711-0.781,1.122-1.057c0.41-0.275,0.814-0.412,1.21-0.412c0.242,0,0.44,0.057,0.594,0.17
		c0.154,0.114,0.279,0.299,0.374,0.557L15.011,144.251z M13.878,144.714c-0.279,0-0.566,0.128-0.864,0.385
		c-0.297,0.257-0.566,0.578-0.808,0.963c-0.242,0.385-0.44,0.799-0.595,1.242c-0.153,0.444-0.23,0.856-0.23,1.238
		c0,0.264,0.055,0.475,0.165,0.632c0.109,0.158,0.26,0.237,0.451,0.237c0.168,0,0.344-0.068,0.527-0.204s0.361-0.315,0.533-0.539
		c0.173-0.224,0.336-0.479,0.49-0.765c0.153-0.285,0.289-0.581,0.406-0.885c0.118-0.305,0.21-0.604,0.275-0.896
		c0.066-0.294,0.099-0.558,0.099-0.793c0-0.189-0.04-0.34-0.12-0.451C14.127,144.769,14.017,144.714,13.878,144.714z"/>
	<path fill="#450D06" d="M21.17,144.714c-0.176,0-0.376,0.09-0.6,0.27s-0.451,0.418-0.682,0.715
		c-0.231,0.297-0.453,0.637-0.666,1.018c-0.212,0.381-0.392,0.77-0.538,1.166l-0.814,2.199h-0.968l0.813-2.519
		c0.132-0.403,0.242-0.748,0.33-1.034c0.088-0.285,0.16-0.525,0.215-0.721c0.055-0.193,0.094-0.352,0.115-0.473
		c0.022-0.121,0.033-0.219,0.033-0.291c0-0.198-0.063-0.297-0.188-0.297c-0.08,0-0.176,0.051-0.285,0.153
		c-0.11,0.103-0.223,0.237-0.336,0.401c-0.113,0.166-0.222,0.354-0.324,0.566c-0.104,0.213-0.191,0.43-0.265,0.649l-0.33-0.165
		c0.257-0.756,0.545-1.313,0.864-1.672c0.318-0.359,0.684-0.539,1.094-0.539c0.235,0,0.402,0.066,0.501,0.197
		c0.099,0.133,0.148,0.356,0.148,0.672c0,0.374-0.063,0.707-0.187,1.001l0.032,0.032c0.374-0.659,0.754-1.142,1.139-1.445
		c0.385-0.305,0.805-0.457,1.26-0.457c0.322,0,0.568,0.077,0.737,0.23c0.168,0.154,0.253,0.375,0.253,0.66
		c0,0.096-0.01,0.202-0.027,0.319c-0.019,0.117-0.05,0.259-0.094,0.423c-0.044,0.166-0.104,0.361-0.182,0.59
		c-0.077,0.227-0.171,0.506-0.28,0.836c-0.169,0.498-0.309,0.916-0.418,1.254c-0.11,0.337-0.165,0.575-0.165,0.715
		c0,0.109,0.036,0.164,0.109,0.164c0.103,0,0.253-0.084,0.451-0.252c0.198-0.169,0.466-0.44,0.803-0.814l0.286,0.154
		c-0.117,0.22-0.27,0.434-0.456,0.643c-0.188,0.209-0.382,0.398-0.583,0.566c-0.202,0.17-0.401,0.305-0.6,0.408
		c-0.198,0.102-0.37,0.153-0.517,0.153c-0.184,0-0.329-0.081-0.435-0.241c-0.106-0.162-0.16-0.375-0.16-0.639
		c0-0.103,0.01-0.207,0.027-0.313c0.019-0.106,0.058-0.259,0.116-0.456c0.059-0.198,0.145-0.465,0.258-0.798
		c0.114-0.333,0.27-0.775,0.468-1.325c0.066-0.191,0.121-0.353,0.165-0.484s0.079-0.248,0.104-0.347s0.044-0.185,0.055-0.259
		c0.012-0.072,0.017-0.143,0.017-0.209C21.467,144.849,21.368,144.714,21.17,144.714z"/>
	<path fill="#450D06" d="M25.978,145.166l-0.913,3.024c-0.125,0.396-0.19,0.696-0.198,0.901c0,0.066,0.017,0.125,0.05,0.177
		s0.09,0.077,0.171,0.077c0.132,0,0.271-0.05,0.418-0.148c0.146-0.1,0.287-0.217,0.423-0.352c0.136-0.137,0.257-0.275,0.363-0.418
		c0.106-0.144,0.186-0.256,0.236-0.336l0.319,0.187c-0.125,0.249-0.282,0.489-0.473,0.721c-0.191,0.231-0.393,0.435-0.605,0.61
		s-0.428,0.317-0.644,0.424c-0.217,0.105-0.412,0.159-0.589,0.159c-0.256,0-0.441-0.055-0.555-0.165
		c-0.114-0.109-0.171-0.293-0.171-0.55c0-0.146,0.025-0.345,0.077-0.595c0.051-0.248,0.139-0.59,0.264-1.022l0.814-2.694H24.02
		l0.143-0.506h0.957l0.572-1.893h1.012l-0.571,1.893h1.199l-0.154,0.506H25.978z"/>
	<path fill="#450D06" d="M31.488,148.619c-0.638,1.049-1.423,1.573-2.354,1.573c-0.506,0-0.895-0.155-1.166-0.468
		c-0.271-0.311-0.406-0.753-0.406-1.325c0-0.506,0.104-1.012,0.313-1.519c0.209-0.506,0.481-0.962,0.819-1.369
		c0.337-0.406,0.715-0.736,1.133-0.99c0.418-0.252,0.836-0.379,1.254-0.379c0.353,0,0.64,0.09,0.863,0.27s0.336,0.408,0.336,0.688
		c0,0.257-0.096,0.521-0.286,0.792s-0.449,0.528-0.775,0.771c-0.326,0.241-0.708,0.461-1.144,0.659
		c-0.437,0.198-0.9,0.353-1.392,0.462c-0.016,0.104-0.026,0.203-0.033,0.303c-0.008,0.1-0.011,0.2-0.011,0.303
		c0,0.799,0.282,1.199,0.847,1.199c0.271,0,0.552-0.106,0.842-0.319c0.289-0.212,0.559-0.506,0.808-0.88L31.488,148.619z
		 M30.861,144.66c-0.19,0-0.389,0.072-0.594,0.219c-0.206,0.147-0.401,0.344-0.589,0.59c-0.187,0.245-0.357,0.525-0.512,0.841
		c-0.153,0.315-0.278,0.642-0.374,0.979c0.353-0.096,0.679-0.221,0.979-0.375c0.301-0.153,0.559-0.328,0.775-0.521
		c0.216-0.195,0.387-0.4,0.512-0.617c0.124-0.216,0.187-0.434,0.187-0.654C31.246,144.813,31.118,144.66,30.861,144.66z"/>
	<path fill="#450D06" d="M33.27,145.826c0-0.242,0.046-0.467,0.138-0.672s0.218-0.383,0.38-0.533
		c0.161-0.15,0.354-0.268,0.577-0.352c0.224-0.085,0.468-0.127,0.731-0.127c0.353,0,0.646,0.088,0.88,0.264
		c0.235,0.176,0.353,0.404,0.353,0.682c0,0.154-0.043,0.275-0.127,0.363s-0.2,0.133-0.347,0.133c-0.168,0-0.289-0.05-0.362-0.148
		c-0.073-0.1-0.136-0.209-0.188-0.33c-0.051-0.121-0.106-0.233-0.165-0.336s-0.157-0.154-0.297-0.154
		c-0.161,0-0.297,0.07-0.407,0.209c-0.109,0.14-0.165,0.313-0.165,0.518c0,0.242,0.072,0.467,0.215,0.676s0.303,0.428,0.479,0.654
		c0.176,0.229,0.336,0.478,0.479,0.748c0.143,0.271,0.215,0.591,0.215,0.957c0,0.25-0.054,0.484-0.16,0.705
		c-0.106,0.22-0.249,0.412-0.429,0.577s-0.387,0.295-0.621,0.39c-0.235,0.096-0.478,0.144-0.727,0.144
		c-0.439,0-0.79-0.095-1.051-0.286c-0.26-0.19-0.39-0.439-0.39-0.748c0-0.213,0.049-0.379,0.148-0.5
		c0.099-0.121,0.232-0.182,0.401-0.182c0.315,0,0.495,0.217,0.539,0.648c0.021,0.235,0.061,0.391,0.115,0.469
		c0.055,0.076,0.167,0.115,0.336,0.115c0.264,0,0.473-0.079,0.627-0.236c0.153-0.158,0.23-0.377,0.23-0.655
		c0-0.293-0.073-0.554-0.22-0.78c-0.146-0.229-0.309-0.449-0.484-0.666s-0.337-0.445-0.483-0.688
		C33.343,146.441,33.27,146.156,33.27,145.826z"/>
	<path fill="#450D06" d="M44.788,142.47c0.059-0.198,0.103-0.363,0.132-0.495s0.044-0.228,0.044-0.286
		c0-0.109-0.073-0.188-0.221-0.23c-0.146-0.045-0.41-0.066-0.792-0.066l0.121-0.439h2.123l-1.221,4.455
		c-0.154,0.571-0.282,1.059-0.385,1.463c-0.103,0.402-0.186,0.742-0.248,1.018c-0.063,0.274-0.104,0.5-0.126,0.676
		c-0.022,0.176-0.033,0.322-0.033,0.439c0,0.17,0.025,0.287,0.077,0.353c0.051,0.065,0.117,0.099,0.198,0.099
		c0.161,0,0.335-0.135,0.522-0.406c0.187-0.271,0.354-0.627,0.5-1.067l0.418,0.099c-0.249,0.727-0.522,1.26-0.819,1.602
		c-0.297,0.34-0.633,0.511-1.007,0.511c-0.264,0-0.467-0.085-0.61-0.253c-0.143-0.168-0.214-0.41-0.214-0.727
		c0-0.08,0.007-0.164,0.021-0.252s0.033-0.173,0.055-0.254l-0.088-0.021c-0.278,0.484-0.615,0.856-1.012,1.117
		c-0.396,0.26-0.773,0.39-1.133,0.39c-0.191,0-0.367-0.042-0.528-0.126s-0.301-0.202-0.418-0.353
		c-0.117-0.149-0.211-0.33-0.28-0.539c-0.07-0.209-0.104-0.441-0.104-0.698c0-0.315,0.05-0.644,0.148-0.984
		c0.099-0.342,0.234-0.672,0.407-0.99c0.172-0.318,0.372-0.621,0.6-0.907c0.227-0.286,0.467-0.537,0.72-0.754
		c0.253-0.216,0.514-0.387,0.781-0.511c0.268-0.125,0.53-0.188,0.787-0.188c0.249,0,0.438,0.048,0.566,0.143
		c0.128,0.096,0.254,0.246,0.379,0.451L44.788,142.47z M43.28,144.725c-0.19,0-0.383,0.061-0.577,0.182
		c-0.194,0.12-0.383,0.282-0.566,0.483c-0.184,0.202-0.354,0.436-0.512,0.699c-0.157,0.264-0.295,0.539-0.412,0.824
		c-0.117,0.287-0.211,0.576-0.28,0.869c-0.07,0.294-0.104,0.568-0.104,0.825c0,0.265,0.065,0.476,0.197,0.633
		s0.309,0.236,0.528,0.236c0.169,0,0.341-0.067,0.517-0.204c0.177-0.135,0.349-0.313,0.518-0.533
		c0.168-0.22,0.328-0.471,0.479-0.754c0.15-0.281,0.282-0.571,0.396-0.868c0.114-0.298,0.204-0.591,0.27-0.88
		c0.066-0.29,0.1-0.552,0.1-0.787c0-0.227-0.044-0.404-0.133-0.533C43.61,144.79,43.472,144.725,43.28,144.725z"/>
	<path fill="#450D06" d="M50.298,148.619c-0.638,1.049-1.423,1.573-2.354,1.573c-0.506,0-0.895-0.155-1.166-0.468
		c-0.271-0.311-0.406-0.753-0.406-1.325c0-0.506,0.104-1.012,0.313-1.519c0.209-0.506,0.481-0.962,0.819-1.369
		c0.337-0.406,0.715-0.736,1.133-0.99c0.418-0.252,0.836-0.379,1.254-0.379c0.353,0,0.64,0.09,0.863,0.27s0.336,0.408,0.336,0.688
		c0,0.257-0.096,0.521-0.286,0.792s-0.449,0.528-0.775,0.771c-0.326,0.241-0.708,0.461-1.144,0.659
		c-0.437,0.198-0.9,0.353-1.392,0.462c-0.016,0.104-0.026,0.203-0.033,0.303c-0.008,0.1-0.011,0.2-0.011,0.303
		c0,0.799,0.282,1.199,0.847,1.199c0.271,0,0.552-0.106,0.842-0.319c0.289-0.212,0.559-0.506,0.808-0.88L50.298,148.619z
		 M49.671,144.66c-0.19,0-0.389,0.072-0.594,0.219c-0.206,0.147-0.401,0.344-0.589,0.59c-0.187,0.245-0.357,0.525-0.512,0.841
		c-0.153,0.315-0.278,0.642-0.374,0.979c0.353-0.096,0.679-0.221,0.979-0.375c0.301-0.153,0.559-0.328,0.775-0.521
		c0.216-0.195,0.387-0.4,0.512-0.617c0.124-0.216,0.187-0.434,0.187-0.654C50.056,144.813,49.928,144.66,49.671,144.66z"/>
	<path fill="#450D06" d="M56.271,142.481c0.037-0.132,0.073-0.266,0.11-0.401c0.036-0.136,0.055-0.236,0.055-0.303
		c0-0.256-0.278-0.385-0.836-0.385l0.088-0.33l2.014-0.1l-1.97,7.228c-0.059,0.198-0.103,0.372-0.132,0.522
		s-0.044,0.277-0.044,0.379c0,0.066,0.019,0.125,0.055,0.177c0.037,0.052,0.096,0.077,0.177,0.077c0.117,0,0.242-0.05,0.374-0.148
		c0.132-0.1,0.258-0.217,0.379-0.352c0.121-0.137,0.229-0.275,0.325-0.418c0.095-0.144,0.165-0.256,0.209-0.336l0.33,0.187
		c-0.11,0.249-0.254,0.489-0.43,0.721s-0.363,0.435-0.561,0.61c-0.198,0.176-0.398,0.317-0.6,0.424
		c-0.202,0.105-0.387,0.159-0.556,0.159c-0.257,0-0.445-0.055-0.566-0.165c-0.121-0.109-0.182-0.293-0.182-0.55
		c0-0.146,0.022-0.345,0.066-0.595c0.044-0.248,0.121-0.59,0.23-1.022L56.271,142.481z"/>
	<path fill="#450D06" d="M62.486,144.251h0.913l-0.627,1.684c-0.104,0.279-0.204,0.576-0.303,0.891
		c-0.099,0.316-0.188,0.62-0.264,0.914c-0.077,0.293-0.138,0.561-0.182,0.803s-0.066,0.422-0.066,0.539
		c0,0.213,0.069,0.318,0.209,0.318c0.103,0,0.251-0.105,0.445-0.318s0.413-0.488,0.655-0.826l0.285,0.231
		c-0.308,0.543-0.64,0.963-0.995,1.26s-0.698,0.445-1.028,0.445c-0.169,0-0.299-0.063-0.391-0.192s-0.138-0.339-0.138-0.633
		c0-0.065,0.002-0.143,0.006-0.23s0.013-0.205,0.027-0.352l-0.044-0.012c-0.11,0.205-0.24,0.395-0.391,0.566
		s-0.313,0.322-0.489,0.451s-0.359,0.228-0.55,0.297c-0.191,0.07-0.378,0.104-0.562,0.104c-0.374,0-0.665-0.142-0.874-0.423
		c-0.209-0.283-0.313-0.674-0.313-1.172c0-0.506,0.105-1.023,0.318-1.551c0.213-0.528,0.488-1.007,0.825-1.436
		c0.337-0.43,0.711-0.781,1.122-1.057c0.41-0.275,0.814-0.412,1.21-0.412c0.242,0,0.44,0.057,0.594,0.17
		c0.154,0.114,0.279,0.299,0.374,0.557L62.486,144.251z M61.354,144.714c-0.279,0-0.566,0.128-0.864,0.385
		c-0.297,0.257-0.566,0.578-0.808,0.963c-0.242,0.385-0.44,0.799-0.595,1.242c-0.153,0.444-0.23,0.856-0.23,1.238
		c0,0.264,0.055,0.475,0.165,0.632c0.109,0.158,0.26,0.237,0.451,0.237c0.168,0,0.344-0.068,0.527-0.204s0.361-0.315,0.533-0.539
		c0.173-0.224,0.336-0.479,0.49-0.765c0.153-0.285,0.289-0.581,0.406-0.885c0.118-0.305,0.21-0.604,0.275-0.896
		c0.066-0.294,0.099-0.558,0.099-0.793c0-0.189-0.04-0.34-0.12-0.451C61.603,144.769,61.492,144.714,61.354,144.714z"/>
	<path fill="#450D06" d="M64.817,145.826c0-0.242,0.046-0.467,0.138-0.672s0.218-0.383,0.38-0.533
		c0.161-0.15,0.354-0.268,0.577-0.352c0.224-0.085,0.468-0.127,0.731-0.127c0.353,0,0.646,0.088,0.88,0.264
		c0.235,0.176,0.353,0.404,0.353,0.682c0,0.154-0.043,0.275-0.127,0.363s-0.2,0.133-0.347,0.133c-0.168,0-0.289-0.05-0.362-0.148
		c-0.073-0.1-0.136-0.209-0.188-0.33c-0.051-0.121-0.106-0.233-0.165-0.336s-0.157-0.154-0.297-0.154
		c-0.161,0-0.297,0.07-0.407,0.209c-0.109,0.14-0.165,0.313-0.165,0.518c0,0.242,0.072,0.467,0.215,0.676s0.303,0.428,0.479,0.654
		c0.176,0.229,0.336,0.478,0.479,0.748c0.143,0.271,0.215,0.591,0.215,0.957c0,0.25-0.054,0.484-0.16,0.705
		c-0.106,0.22-0.249,0.412-0.429,0.577s-0.387,0.295-0.621,0.39c-0.235,0.096-0.478,0.144-0.727,0.144
		c-0.439,0-0.79-0.095-1.051-0.286c-0.26-0.19-0.39-0.439-0.39-0.748c0-0.213,0.049-0.379,0.148-0.5
		c0.099-0.121,0.232-0.182,0.401-0.182c0.315,0,0.495,0.217,0.539,0.648c0.021,0.235,0.061,0.391,0.115,0.469
		c0.055,0.076,0.167,0.115,0.336,0.115c0.264,0,0.473-0.079,0.627-0.236c0.153-0.158,0.23-0.377,0.23-0.655
		c0-0.293-0.073-0.554-0.22-0.78c-0.146-0.229-0.309-0.449-0.484-0.666s-0.337-0.445-0.483-0.688
		C64.891,146.441,64.817,146.156,64.817,145.826z"/>
	<path fill="#450D06" d="M75.289,148.311c-0.308,0.608-0.665,1.074-1.072,1.397c-0.407,0.322-0.841,0.483-1.304,0.483
		c-0.477,0-0.857-0.163-1.144-0.489s-0.429-0.761-0.429-1.304c0-0.322,0.047-0.652,0.143-0.989c0.096-0.338,0.224-0.664,0.385-0.979
		s0.353-0.612,0.572-0.892c0.22-0.278,0.455-0.52,0.704-0.726c0.249-0.205,0.508-0.368,0.775-0.489s0.53-0.182,0.786-0.182
		c0.353,0,0.642,0.096,0.869,0.286s0.342,0.429,0.342,0.715c0,0.184-0.054,0.332-0.16,0.445c-0.106,0.114-0.244,0.171-0.412,0.171
		c-0.169,0-0.307-0.053-0.413-0.16c-0.106-0.105-0.159-0.236-0.159-0.391c0-0.095,0.015-0.172,0.044-0.23s0.044-0.113,0.044-0.165
		c0-0.103-0.088-0.153-0.264-0.153c-0.242,0-0.488,0.113-0.737,0.34c-0.249,0.229-0.475,0.521-0.677,0.881
		c-0.201,0.359-0.366,0.761-0.494,1.204c-0.129,0.444-0.193,0.886-0.193,1.325c0,0.353,0.068,0.629,0.204,0.831
		s0.324,0.302,0.566,0.302c0.132,0,0.27-0.036,0.412-0.109c0.144-0.073,0.288-0.174,0.435-0.303c0.146-0.128,0.288-0.28,0.424-0.457
		c0.136-0.176,0.259-0.369,0.368-0.582L75.289,148.311z"/>
	<path fill="#450D06" d="M76.27,145.781c0.08-0.184,0.203-0.372,0.368-0.566c0.165-0.193,0.345-0.37,0.539-0.527
		c0.194-0.158,0.391-0.288,0.588-0.391c0.198-0.104,0.371-0.154,0.518-0.154c0.176,0,0.304,0.066,0.385,0.197
		c0.081,0.133,0.121,0.346,0.121,0.639c0,0.117-0.006,0.23-0.017,0.341s-0.031,0.239-0.061,0.386l0.033,0.032
		c0.088-0.212,0.213-0.421,0.374-0.627c0.161-0.205,0.335-0.387,0.522-0.544c0.187-0.158,0.378-0.287,0.572-0.385
		c0.194-0.1,0.375-0.148,0.544-0.148c0.213,0,0.391,0.067,0.534,0.203c0.143,0.135,0.214,0.303,0.214,0.5
		c0,0.191-0.061,0.349-0.182,0.473c-0.121,0.125-0.276,0.188-0.467,0.188c-0.118,0-0.211-0.021-0.281-0.066
		c-0.069-0.043-0.13-0.09-0.181-0.137c-0.052-0.048-0.1-0.094-0.144-0.138s-0.099-0.065-0.165-0.065
		c-0.14,0-0.301,0.093-0.483,0.279c-0.184,0.188-0.374,0.442-0.572,0.766c-0.198,0.322-0.395,0.699-0.589,1.133
		c-0.194,0.432-0.372,0.898-0.533,1.396l-0.495,1.518H76.39l0.716-2.276c0.139-0.44,0.254-0.805,0.346-1.095
		c0.092-0.289,0.163-0.531,0.215-0.727c0.052-0.193,0.086-0.346,0.104-0.456s0.027-0.205,0.027-0.286
		c0-0.16-0.055-0.242-0.165-0.242c-0.073,0-0.163,0.029-0.27,0.088c-0.106,0.06-0.211,0.133-0.313,0.221s-0.199,0.188-0.291,0.297
		s-0.16,0.217-0.204,0.318L76.27,145.781z"/>
	<path fill="#450D06" d="M82.572,146.453c0.103-0.287,0.176-0.518,0.22-0.693s0.065-0.315,0.065-0.418
		c0-0.104-0.016-0.171-0.049-0.203c-0.033-0.033-0.068-0.051-0.104-0.051c-0.081,0-0.169,0.039-0.265,0.116
		c-0.095,0.077-0.19,0.167-0.285,0.27c-0.096,0.103-0.181,0.205-0.254,0.308c-0.073,0.104-0.124,0.184-0.153,0.242l-0.319-0.197
		c0.088-0.162,0.211-0.342,0.368-0.539c0.158-0.199,0.336-0.382,0.534-0.551c0.198-0.168,0.403-0.31,0.616-0.424
		c0.212-0.113,0.414-0.17,0.604-0.17c0.184,0,0.32,0.053,0.412,0.16c0.092,0.105,0.138,0.299,0.138,0.576
		c0,0.213-0.064,0.5-0.192,0.858c-0.128,0.359-0.295,0.821-0.5,1.386l-0.407,1.111c-0.015,0.037-0.035,0.094-0.061,0.17
		c-0.025,0.078-0.052,0.158-0.077,0.242c-0.025,0.085-0.048,0.168-0.066,0.248c-0.018,0.08-0.027,0.146-0.027,0.197
		c0,0.066,0.019,0.125,0.056,0.177c0.036,0.052,0.095,0.077,0.176,0.077c0.11,0,0.224-0.046,0.341-0.138s0.231-0.2,0.341-0.325
		c0.11-0.124,0.209-0.25,0.297-0.379c0.088-0.128,0.154-0.229,0.198-0.303l0.33,0.188c-0.088,0.176-0.207,0.37-0.357,0.583
		c-0.15,0.212-0.321,0.409-0.512,0.589s-0.399,0.33-0.627,0.451c-0.228,0.12-0.462,0.181-0.704,0.181
		c-0.213,0-0.372-0.055-0.479-0.165c-0.106-0.109-0.159-0.293-0.159-0.55c0-0.212,0.034-0.442,0.104-0.688
		c0.069-0.245,0.171-0.556,0.303-0.93L82.572,146.453z M84.188,142.337c-0.183,0-0.343-0.062-0.479-0.187
		c-0.136-0.124-0.203-0.286-0.203-0.483c0-0.198,0.066-0.367,0.198-0.506c0.132-0.14,0.293-0.209,0.483-0.209
		c0.206,0,0.374,0.069,0.507,0.209c0.132,0.139,0.197,0.304,0.197,0.494c0,0.191-0.069,0.352-0.209,0.484
		C84.545,142.272,84.38,142.337,84.188,142.337z"/>
	<path fill="#450D06" d="M85.761,145.826c0-0.242,0.046-0.467,0.138-0.672s0.218-0.383,0.38-0.533
		c0.161-0.15,0.354-0.268,0.577-0.352c0.224-0.085,0.468-0.127,0.731-0.127c0.353,0,0.646,0.088,0.88,0.264
		c0.235,0.176,0.353,0.404,0.353,0.682c0,0.154-0.043,0.275-0.127,0.363s-0.2,0.133-0.347,0.133c-0.168,0-0.289-0.05-0.362-0.148
		c-0.073-0.1-0.136-0.209-0.188-0.33c-0.051-0.121-0.106-0.233-0.165-0.336s-0.157-0.154-0.297-0.154
		c-0.161,0-0.297,0.07-0.407,0.209c-0.109,0.14-0.165,0.313-0.165,0.518c0,0.242,0.072,0.467,0.215,0.676s0.303,0.428,0.479,0.654
		c0.176,0.229,0.336,0.478,0.479,0.748c0.143,0.271,0.215,0.591,0.215,0.957c0,0.25-0.054,0.484-0.16,0.705
		c-0.106,0.22-0.249,0.412-0.429,0.577s-0.387,0.295-0.621,0.39c-0.235,0.096-0.478,0.144-0.727,0.144
		c-0.439,0-0.79-0.095-1.051-0.286c-0.26-0.19-0.39-0.439-0.39-0.748c0-0.213,0.049-0.379,0.148-0.5
		c0.099-0.121,0.232-0.182,0.401-0.182c0.315,0,0.495,0.217,0.539,0.648c0.021,0.235,0.061,0.391,0.115,0.469
		c0.055,0.076,0.167,0.115,0.336,0.115c0.264,0,0.473-0.079,0.627-0.236c0.153-0.158,0.23-0.377,0.23-0.655
		c0-0.293-0.073-0.554-0.22-0.78c-0.146-0.229-0.309-0.449-0.484-0.666s-0.337-0.445-0.483-0.688
		C85.834,146.441,85.761,146.156,85.761,145.826z"/>
	<path fill="#450D06" d="M90.547,146.453c0.103-0.287,0.176-0.518,0.22-0.693s0.065-0.315,0.065-0.418
		c0-0.104-0.016-0.171-0.049-0.203c-0.033-0.033-0.068-0.051-0.104-0.051c-0.081,0-0.169,0.039-0.265,0.116
		c-0.095,0.077-0.19,0.167-0.285,0.27c-0.096,0.103-0.181,0.205-0.254,0.308c-0.073,0.104-0.124,0.184-0.153,0.242l-0.319-0.197
		c0.088-0.162,0.211-0.342,0.368-0.539c0.158-0.199,0.336-0.382,0.534-0.551c0.198-0.168,0.403-0.31,0.616-0.424
		c0.212-0.113,0.414-0.17,0.604-0.17c0.184,0,0.32,0.053,0.412,0.16c0.092,0.105,0.138,0.299,0.138,0.576
		c0,0.213-0.064,0.5-0.192,0.858c-0.128,0.359-0.295,0.821-0.5,1.386l-0.407,1.111c-0.015,0.037-0.035,0.094-0.061,0.17
		c-0.025,0.078-0.052,0.158-0.077,0.242c-0.025,0.085-0.048,0.168-0.066,0.248c-0.018,0.08-0.027,0.146-0.027,0.197
		c0,0.066,0.019,0.125,0.056,0.177c0.036,0.052,0.095,0.077,0.176,0.077c0.11,0,0.224-0.046,0.341-0.138s0.231-0.2,0.341-0.325
		c0.11-0.124,0.209-0.25,0.297-0.379c0.088-0.128,0.154-0.229,0.198-0.303l0.33,0.188c-0.088,0.176-0.207,0.37-0.357,0.583
		c-0.15,0.212-0.321,0.409-0.512,0.589s-0.399,0.33-0.627,0.451c-0.228,0.12-0.462,0.181-0.704,0.181
		c-0.213,0-0.372-0.055-0.479-0.165c-0.106-0.109-0.159-0.293-0.159-0.55c0-0.212,0.034-0.442,0.104-0.688
		c0.069-0.245,0.171-0.556,0.303-0.93L90.547,146.453z M92.163,142.337c-0.183,0-0.343-0.062-0.479-0.187
		c-0.136-0.124-0.203-0.286-0.203-0.483c0-0.198,0.066-0.367,0.198-0.506c0.132-0.14,0.293-0.209,0.483-0.209
		c0.206,0,0.374,0.069,0.507,0.209c0.132,0.139,0.197,0.304,0.197,0.494c0,0.191-0.069,0.352-0.209,0.484
		C92.52,142.272,92.354,142.337,92.163,142.337z"/>
	<path fill="#450D06" d="M93.736,145.826c0-0.242,0.046-0.467,0.138-0.672s0.218-0.383,0.38-0.533
		c0.161-0.15,0.354-0.268,0.577-0.352c0.224-0.085,0.468-0.127,0.731-0.127c0.353,0,0.646,0.088,0.88,0.264
		c0.235,0.176,0.353,0.404,0.353,0.682c0,0.154-0.043,0.275-0.127,0.363s-0.2,0.133-0.347,0.133c-0.168,0-0.289-0.05-0.362-0.148
		c-0.073-0.1-0.136-0.209-0.188-0.33c-0.051-0.121-0.106-0.233-0.165-0.336s-0.157-0.154-0.297-0.154
		c-0.161,0-0.297,0.07-0.407,0.209c-0.109,0.14-0.165,0.313-0.165,0.518c0,0.242,0.072,0.467,0.215,0.676s0.303,0.428,0.479,0.654
		c0.176,0.229,0.336,0.478,0.479,0.748c0.143,0.271,0.215,0.591,0.215,0.957c0,0.25-0.054,0.484-0.16,0.705
		c-0.106,0.22-0.249,0.412-0.429,0.577s-0.387,0.295-0.621,0.39c-0.235,0.096-0.478,0.144-0.727,0.144
		c-0.439,0-0.79-0.095-1.051-0.286c-0.26-0.19-0.39-0.439-0.39-0.748c0-0.213,0.049-0.379,0.148-0.5
		c0.099-0.121,0.232-0.182,0.401-0.182c0.315,0,0.495,0.217,0.539,0.648c0.021,0.235,0.061,0.391,0.115,0.469
		c0.055,0.076,0.167,0.115,0.336,0.115c0.264,0,0.473-0.079,0.627-0.236c0.153-0.158,0.23-0.377,0.23-0.655
		c0-0.293-0.073-0.554-0.22-0.78c-0.146-0.229-0.309-0.449-0.484-0.666s-0.337-0.445-0.483-0.688
		C93.81,146.441,93.736,146.156,93.736,145.826z"/>
</g>
</svg>
