<?xml version="1.0" encoding="utf-8"?>
<!-- Generator: Adobe Illustrator 16.0.0, SVG Export Plug-In . SVG Version: 6.00 Build 0)  -->
<!DOCTYPE svg PUBLIC "-//W3C//DTD SVG 1.1//EN" "http://www.w3.org/Graphics/SVG/1.1/DTD/svg11.dtd">
<svg version="1.1" id="Capa_1" xmlns="http://www.w3.org/2000/svg" xmlns:xlink="http://www.w3.org/1999/xlink" x="0px" y="0px"
	 width="355.128px" height="180.769px" viewBox="0 0 355.128 180.769" enable-background="new 0 0 355.128 180.769"
	 xml:space="preserve">
<g opacity="0.2" data-anchor-target="#section5"
	data--2000-top="opacity:0;"
	data--2100-top="opacity:0.2;"
	data--3400-top="opacity:0.2;"
	data--3450-top="opacity:0;">
	<path fill="#3E0106" d="M37.395,12.395c-16.366,0-29.681,13.345-29.681,29.747c0,1.494,0.112,2.996,0.333,4.462
		C10.022,59.756,20.7,69.953,33.619,71.64v6.201h-7.74v7.567h7.74v9.735h7.552v-9.735h7.739v-7.567H41.17v-6.198
		c2.987-0.378,5.882-1.198,8.639-2.474c10.488-4.846,17.266-15.455,17.266-27.027C67.075,25.74,53.759,12.395,37.395,12.395z
		 M46.648,62.296c-2.908,1.344-6.021,2.025-9.253,2.025c-10.86,0-20.267-8.102-21.881-18.846c-0.164-1.094-0.248-2.215-0.248-3.334
		c0-12.229,9.927-22.179,22.129-22.179c12.201,0,22.128,9.95,22.128,22.179C59.523,50.771,54.468,58.683,46.648,62.296z"/>
</g>
<g opacity="0.2" data-anchor-target="#section5"
	data--2100-top="opacity:0;"
	data--2200-top="opacity:0.2;"
	data--3350-top="opacity:0.2;"
	data--3400-top="opacity:0;">
	<path fill="#3E0106" d="M107.395,12.395c-16.366,0-29.681,13.345-29.681,29.747c0,1.494,0.112,2.996,0.333,4.462
		C80.023,59.756,90.7,69.953,103.619,71.64v6.201h-7.74v7.567h7.74v9.735h7.551v-9.735h7.74v-7.567h-7.74v-6.198
		c2.988-0.378,5.883-1.198,8.639-2.474c10.488-4.846,17.266-15.455,17.266-27.027C137.075,25.74,123.76,12.395,107.395,12.395z
		 M116.649,62.296c-2.908,1.344-6.021,2.025-9.254,2.025c-10.86,0-20.267-8.102-21.881-18.846c-0.164-1.094-0.248-2.215-0.248-3.334
		c0-12.229,9.927-22.179,22.129-22.179c12.201,0,22.129,9.95,22.129,22.179C129.524,50.771,124.469,58.683,116.649,62.296z"/>
</g>
<g opacity="0.2" data-anchor-target="#section5"
	data--2200-top="opacity:0;"
	data--2300-top="opacity:0.2;"
	data--3300-top="opacity:0.2;"
	data--3350-top="opacity:0;">
	<path fill="#3E0106" d="M177.715,12.395c-16.366,0-29.681,13.345-29.681,29.747c0,1.494,0.112,2.996,0.333,4.462
		c1.976,13.152,12.653,23.349,25.572,25.036v6.201h-7.74v7.567h7.74v9.735h7.552v-9.735h7.739v-7.567h-7.739v-6.198
		c2.987-0.378,5.882-1.198,8.639-2.474c10.488-4.846,17.266-15.455,17.266-27.027C207.395,25.74,194.08,12.395,177.715,12.395z
		 M186.968,62.296c-2.908,1.344-6.021,2.025-9.253,2.025c-10.86,0-20.267-8.102-21.881-18.846c-0.164-1.094-0.248-2.215-0.248-3.334
		c0-12.229,9.927-22.179,22.129-22.179c12.201,0,22.128,9.95,22.128,22.179C199.843,50.771,194.789,58.683,186.968,62.296z"/>
</g>
<g opacity="0.2" data-anchor-target="#section5"
	data--2300-top="opacity:0;"
	data--2400-top="opacity:0.2;"
	data--3250-top="opacity:0.2;"
	data--3300-top="opacity:0;">
	<path fill="#3E0106" d="M247.715,12.395c-16.365,0-29.68,13.345-29.68,29.747c0,1.494,0.111,2.996,0.332,4.462
		c1.977,13.152,12.653,23.349,25.572,25.036v6.201h-7.74v7.567h7.74v9.735h7.551v-9.735h7.74v-7.567h-7.74v-6.198
		c2.988-0.378,5.883-1.198,8.639-2.474c10.488-4.846,17.266-15.455,17.266-27.027C277.395,25.74,264.08,12.395,247.715,12.395z
		 M256.969,62.296c-2.908,1.344-6.021,2.025-9.254,2.025c-10.859,0-20.266-8.102-21.881-18.846
		c-0.164-1.094-0.248-2.215-0.248-3.334c0-12.229,9.928-22.179,22.129-22.179s22.129,9.95,22.129,22.179
		C269.844,50.771,264.789,58.683,256.969,62.296z"/>
</g>
<g opacity="0.6" data-anchor-target="#section5"
	data--2400-top="opacity:0;"
	data--2500-top="opacity:0.6;"
	data--3200-top="opacity:0.6;"
	data--3250-top="opacity:0;">
	<path fill="#3E0106" d="M317.715,11.77c-16.365,0-29.68,13.345-29.68,29.747c0,1.494,0.111,2.996,0.332,4.462
		c1.977,13.152,12.653,23.349,25.572,25.036v6.201h-7.74v7.567h7.74v9.735h7.551v-9.735h7.74v-7.567h-7.74v-6.198
		c2.988-0.378,5.883-1.198,8.639-2.474c10.488-4.846,17.266-15.455,17.266-27.027C347.395,25.115,334.08,11.77,317.715,11.77z
		 M326.969,61.671c-2.908,1.344-6.021,2.025-9.254,2.025c-10.859,0-20.266-8.102-21.881-18.846
		c-0.164-1.094-0.248-2.215-0.248-3.334c0-12.229,9.928-22.179,22.129-22.179s22.129,9.95,22.129,22.179
		C339.844,50.146,334.789,58.058,326.969,61.671z"/>
</g>
<line data-anchor-target="#section5"
	data--2450-top="stroke-dasharray[sqrt]: 40; stroke-dashoffset: 120;"
	data--2550-top="stroke-dasharray[sqrt]: 40; stroke-dashoffset: 80;"
	data--3100-top="stroke-dasharray[sqrt]: 40; stroke-dashoffset: 80;"
	data--3200-top="stroke-dasharray[sqrt]: 40; stroke-dashoffset: 120;" opacity="0.6" fill="none" stroke="#3E0106" stroke-miterlimit="10" x1="317.715" y1="104.128" x2="317.715" y2="136.179"/>
<g data-anchor-target="#section5"
	data--2500-top="opacity:0;"
	data--2600-top="opacity:0.6;"
	data--3000-top="opacity:0.6;"
	data--3100-top="opacity:0;">
		<path fill="#3E0106" d="M294.699,148.681c0.136-0.408,0.233-0.731,0.294-0.972c0.06-0.239,0.09-0.452,0.09-0.636
		s-0.03-0.314-0.09-0.391c-0.061-0.076-0.162-0.113-0.307-0.113c-0.248,0-0.492,0.096-0.731,0.287
		c-0.24,0.193-0.482,0.492-0.727,0.9s-0.498,0.928-0.762,1.561c-0.264,0.632-0.544,1.388-0.84,2.268l-0.276,0.828h-1.008
		l2.376-8.137c0.056-0.199,0.1-0.375,0.132-0.527s0.048-0.271,0.048-0.359c0-0.16-0.076-0.272-0.228-0.336
		c-0.152-0.064-0.433-0.104-0.84-0.121l0.084-0.479h2.447l-1.367,4.632l0.035,0.023c0.257-0.375,0.553-0.666,0.889-0.869
		c0.336-0.204,0.688-0.307,1.056-0.307c0.384,0,0.676,0.113,0.876,0.336c0.2,0.225,0.3,0.549,0.3,0.973
		c0,0.264-0.04,0.572-0.12,0.924c-0.079,0.352-0.203,0.756-0.371,1.212c-0.16,0.433-0.284,0.772-0.372,1.021
		c-0.089,0.248-0.152,0.438-0.192,0.57c-0.04,0.131-0.066,0.221-0.078,0.27c-0.012,0.048-0.018,0.088-0.018,0.119
		c0,0.185,0.075,0.277,0.228,0.277c0.16,0,0.358-0.095,0.594-0.283c0.236-0.188,0.475-0.449,0.715-0.785l0.336,0.252
		c-0.128,0.232-0.286,0.451-0.475,0.66c-0.188,0.207-0.392,0.39-0.611,0.545c-0.221,0.156-0.444,0.281-0.673,0.373
		c-0.228,0.092-0.441,0.138-0.642,0.138c-0.216,0-0.372-0.06-0.468-0.181c-0.096-0.119-0.145-0.312-0.145-0.576
		c0-0.135,0.013-0.279,0.036-0.432c0.024-0.151,0.066-0.342,0.126-0.57c0.061-0.228,0.145-0.508,0.252-0.84
		C294.38,149.603,294.522,149.185,294.699,148.681z"/>
	<path fill="#3E0106" d="M302.534,146.054h0.996l-0.684,1.836c-0.112,0.304-0.223,0.627-0.33,0.972
		c-0.108,0.344-0.204,0.676-0.288,0.995c-0.084,0.32-0.15,0.613-0.198,0.877s-0.072,0.46-0.072,0.588
		c0,0.232,0.076,0.348,0.229,0.348c0.112,0,0.273-0.115,0.486-0.348c0.212-0.232,0.449-0.532,0.714-0.9l0.312,0.252
		c-0.336,0.592-0.698,1.051-1.086,1.374c-0.388,0.324-0.762,0.486-1.122,0.486c-0.184,0-0.326-0.07-0.426-0.21
		c-0.101-0.141-0.15-0.37-0.15-0.689c0-0.072,0.002-0.156,0.007-0.253c0.004-0.096,0.014-0.224,0.029-0.384l-0.048-0.012
		c-0.12,0.224-0.262,0.43-0.426,0.617c-0.164,0.188-0.342,0.353-0.534,0.492c-0.192,0.141-0.392,0.248-0.6,0.324
		s-0.412,0.114-0.612,0.114c-0.408,0-0.726-0.154-0.954-0.462c-0.228-0.309-0.342-0.734-0.342-1.278
		c0-0.552,0.116-1.116,0.348-1.692c0.232-0.576,0.532-1.098,0.9-1.565s0.775-0.853,1.224-1.151c0.448-0.301,0.889-0.451,1.32-0.451
		c0.264,0,0.479,0.063,0.647,0.187s0.305,0.326,0.408,0.606L302.534,146.054z M301.298,146.558c-0.305,0-0.618,0.14-0.942,0.42
		c-0.324,0.279-0.618,0.629-0.882,1.049c-0.264,0.421-0.48,0.873-0.648,1.357c-0.168,0.483-0.252,0.934-0.252,1.35
		c0,0.287,0.061,0.518,0.181,0.689c0.119,0.172,0.283,0.258,0.491,0.258c0.185,0,0.376-0.073,0.576-0.222
		c0.2-0.147,0.395-0.344,0.582-0.588c0.188-0.244,0.366-0.522,0.534-0.834s0.315-0.634,0.444-0.966
		c0.128-0.332,0.228-0.658,0.3-0.979c0.072-0.319,0.107-0.607,0.107-0.863c0-0.209-0.044-0.373-0.132-0.492
		C301.57,146.618,301.45,146.558,301.298,146.558z"/>
	<path fill="#3E0106" d="M308.006,147.769c0-0.264,0.05-0.508,0.15-0.731c0.1-0.224,0.237-0.418,0.414-0.582
		c0.176-0.164,0.386-0.292,0.63-0.384s0.51-0.139,0.798-0.139c0.384,0,0.704,0.097,0.96,0.289c0.256,0.191,0.384,0.439,0.384,0.743
		c0,0.169-0.046,0.3-0.138,0.396c-0.092,0.096-0.218,0.144-0.378,0.144c-0.185,0-0.316-0.054-0.396-0.162
		c-0.08-0.107-0.147-0.228-0.204-0.359c-0.056-0.133-0.115-0.254-0.18-0.366s-0.172-0.168-0.324-0.168
		c-0.176,0-0.323,0.076-0.443,0.228c-0.12,0.152-0.181,0.34-0.181,0.564c0,0.264,0.078,0.51,0.234,0.738
		c0.156,0.228,0.33,0.466,0.522,0.713c0.191,0.248,0.365,0.521,0.521,0.816c0.156,0.297,0.234,0.645,0.234,1.045
		c0,0.271-0.059,0.527-0.175,0.768c-0.115,0.24-0.271,0.449-0.468,0.63c-0.196,0.18-0.422,0.322-0.678,0.426
		c-0.256,0.104-0.521,0.156-0.792,0.156c-0.48,0-0.862-0.104-1.146-0.312c-0.283-0.209-0.426-0.48-0.426-0.816
		c0-0.232,0.055-0.414,0.162-0.547c0.108-0.131,0.254-0.197,0.438-0.197c0.344,0,0.54,0.236,0.588,0.708
		c0.023,0.256,0.065,0.426,0.126,0.51c0.06,0.084,0.182,0.126,0.366,0.126c0.287,0,0.516-0.086,0.684-0.258s0.252-0.41,0.252-0.714
		c0-0.319-0.08-0.604-0.24-0.853s-0.336-0.49-0.527-0.726c-0.192-0.235-0.368-0.485-0.528-0.75S308.006,148.13,308.006,147.769z"/>
	<path fill="#3E0106" d="M313.682,151.67c0.128,0,0.296-0.09,0.504-0.27s0.428-0.42,0.66-0.721c0.231-0.3,0.457-0.642,0.678-1.025
		c0.22-0.385,0.406-0.784,0.558-1.2l0.889-2.399h1.115l-0.888,2.748c-0.128,0.399-0.236,0.741-0.324,1.025s-0.16,0.523-0.216,0.72
		s-0.096,0.356-0.12,0.479c-0.023,0.125-0.036,0.223-0.036,0.295c0,0.208,0.072,0.313,0.217,0.313c0.079,0,0.176-0.039,0.287-0.115
		c0.112-0.075,0.227-0.18,0.343-0.312c0.115-0.132,0.228-0.28,0.336-0.444c0.107-0.164,0.202-0.338,0.281-0.521l0.36,0.18
		c-0.104,0.264-0.24,0.521-0.408,0.774c-0.168,0.252-0.35,0.478-0.546,0.678s-0.401,0.36-0.618,0.479
		c-0.216,0.121-0.428,0.181-0.636,0.181c-0.248,0-0.416-0.089-0.504-0.265s-0.132-0.428-0.132-0.756
		c0-0.136,0.006-0.281,0.018-0.438c0.013-0.156,0.034-0.311,0.066-0.462l-0.036-0.036c-0.216,0.384-0.426,0.7-0.63,0.947
		c-0.204,0.248-0.402,0.449-0.594,0.601c-0.192,0.152-0.381,0.259-0.564,0.317c-0.184,0.061-0.364,0.091-0.54,0.091
		c-0.376,0-0.638-0.104-0.786-0.312c-0.147-0.209-0.222-0.465-0.222-0.769c0-0.336,0.063-0.706,0.192-1.11
		c0.128-0.403,0.264-0.785,0.407-1.146c0.145-0.36,0.267-0.664,0.366-0.912s0.18-0.456,0.24-0.624
		c0.06-0.168,0.104-0.305,0.132-0.408s0.042-0.188,0.042-0.252c0-0.031-0.006-0.062-0.018-0.09
		c-0.013-0.027-0.042-0.042-0.091-0.042c-0.104,0-0.254,0.092-0.449,0.276c-0.196,0.184-0.462,0.479-0.798,0.888l-0.313-0.168
		c0.12-0.231,0.271-0.464,0.456-0.696c0.184-0.232,0.38-0.439,0.588-0.624c0.208-0.184,0.424-0.331,0.648-0.444
		c0.224-0.111,0.432-0.168,0.624-0.168c0.399,0,0.6,0.232,0.6,0.696c0,0.28-0.078,0.642-0.234,1.086
		c-0.155,0.444-0.357,0.974-0.605,1.591c-0.16,0.392-0.292,0.744-0.396,1.056c-0.104,0.312-0.155,0.596-0.155,0.852
		c0,0.168,0.023,0.286,0.071,0.354C313.55,151.636,313.61,151.67,313.682,151.67z"/>
	<path fill="#3E0106" d="M320.594,151.538c-0.208,0.815-0.416,1.481-0.624,1.998s-0.433,0.922-0.672,1.218
		c-0.24,0.296-0.498,0.5-0.774,0.612s-0.586,0.168-0.93,0.168c-0.336,0-0.612-0.089-0.828-0.265s-0.324-0.392-0.324-0.647
		c0-0.2,0.053-0.358,0.156-0.474c0.104-0.116,0.248-0.174,0.432-0.174c0.168,0,0.284,0.043,0.349,0.131
		c0.063,0.088,0.118,0.185,0.161,0.289c0.045,0.104,0.095,0.199,0.15,0.287s0.164,0.133,0.324,0.133
		c0.184,0,0.352-0.096,0.504-0.289c0.152-0.191,0.268-0.443,0.348-0.756l1.74-6.756h-1.152l0.156-0.552h1.141
		c0.176-0.72,0.367-1.332,0.575-1.836s0.433-0.918,0.672-1.241c0.24-0.324,0.496-0.561,0.769-0.709
		c0.271-0.147,0.563-0.222,0.876-0.222c0.472,0,0.859,0.099,1.164,0.294c0.304,0.196,0.456,0.442,0.456,0.738
		c0,0.184-0.05,0.34-0.15,0.468c-0.1,0.128-0.242,0.192-0.426,0.192c-0.152,0-0.27-0.028-0.354-0.084
		c-0.084-0.057-0.147-0.129-0.191-0.217s-0.076-0.18-0.096-0.275c-0.021-0.096-0.047-0.188-0.078-0.276
		c-0.032-0.088-0.08-0.159-0.145-0.216c-0.063-0.057-0.16-0.084-0.288-0.084c-0.16,0-0.317,0.086-0.474,0.258
		s-0.306,0.412-0.45,0.721c-0.144,0.308-0.28,0.674-0.408,1.098s-0.244,0.888-0.348,1.392h1.212l-0.168,0.552h-1.176
		L320.594,151.538z"/>
	<path fill="#3E0106" d="M323.03,147.722c0.088-0.201,0.222-0.406,0.402-0.619c0.18-0.211,0.376-0.403,0.588-0.576
		c0.212-0.172,0.426-0.313,0.642-0.426c0.216-0.111,0.404-0.168,0.564-0.168c0.191,0,0.332,0.072,0.42,0.217
		c0.088,0.144,0.132,0.376,0.132,0.695c0,0.129-0.006,0.252-0.018,0.373c-0.013,0.119-0.034,0.26-0.066,0.42l0.036,0.035
		c0.096-0.232,0.231-0.459,0.408-0.684c0.176-0.225,0.365-0.422,0.569-0.594s0.412-0.313,0.624-0.42
		c0.212-0.108,0.41-0.162,0.595-0.162c0.231,0,0.426,0.074,0.582,0.222c0.155,0.147,0.233,0.33,0.233,0.546
		c0,0.208-0.065,0.38-0.198,0.516c-0.132,0.137-0.302,0.205-0.51,0.205c-0.128,0-0.229-0.025-0.306-0.072
		c-0.076-0.049-0.143-0.098-0.198-0.15c-0.056-0.052-0.108-0.102-0.156-0.15c-0.048-0.048-0.107-0.072-0.18-0.072
		c-0.152,0-0.328,0.103-0.528,0.307s-0.407,0.482-0.624,0.834c-0.216,0.352-0.43,0.764-0.642,1.236
		c-0.212,0.472-0.406,0.98-0.582,1.523l-0.54,1.656h-1.116l0.78-2.484c0.151-0.479,0.277-0.877,0.378-1.193
		c0.1-0.316,0.178-0.58,0.234-0.793c0.056-0.211,0.094-0.377,0.113-0.497c0.021-0.12,0.03-0.224,0.03-0.312
		c0-0.177-0.06-0.265-0.18-0.265c-0.08,0-0.179,0.032-0.294,0.096c-0.116,0.064-0.23,0.144-0.343,0.24
		c-0.111,0.097-0.218,0.204-0.317,0.324c-0.101,0.12-0.174,0.235-0.222,0.348L323.03,147.722z"/>
	<path fill="#3E0106" d="M329.906,148.454c0.111-0.312,0.191-0.563,0.239-0.756c0.049-0.192,0.072-0.345,0.072-0.456
		c0-0.112-0.018-0.186-0.054-0.223c-0.036-0.035-0.074-0.054-0.114-0.054c-0.088,0-0.184,0.042-0.288,0.126
		c-0.104,0.084-0.208,0.182-0.312,0.295c-0.104,0.111-0.196,0.224-0.276,0.336c-0.08,0.111-0.136,0.199-0.168,0.264l-0.348-0.217
		c0.096-0.176,0.229-0.371,0.401-0.588c0.172-0.216,0.366-0.416,0.582-0.6c0.217-0.184,0.44-0.338,0.673-0.462
		c0.231-0.124,0.451-0.187,0.659-0.187c0.2,0,0.351,0.059,0.45,0.174c0.1,0.117,0.15,0.326,0.15,0.631
		c0,0.232-0.07,0.544-0.21,0.936c-0.141,0.393-0.322,0.896-0.546,1.512l-0.444,1.213c-0.017,0.039-0.038,0.102-0.066,0.186
		c-0.027,0.084-0.056,0.172-0.084,0.264c-0.027,0.092-0.052,0.183-0.071,0.271c-0.021,0.088-0.03,0.16-0.03,0.216
		c0,0.072,0.02,0.137,0.06,0.191c0.04,0.057,0.104,0.084,0.192,0.084c0.12,0,0.244-0.049,0.372-0.149
		c0.128-0.1,0.252-0.218,0.372-0.354c0.12-0.135,0.228-0.273,0.324-0.414c0.096-0.139,0.168-0.25,0.216-0.329l0.359,0.204
		c-0.096,0.191-0.226,0.404-0.39,0.636s-0.35,0.446-0.558,0.642c-0.208,0.196-0.437,0.36-0.685,0.492
		c-0.248,0.133-0.504,0.198-0.768,0.198c-0.232,0-0.406-0.06-0.522-0.181c-0.116-0.119-0.174-0.319-0.174-0.6
		c0-0.232,0.038-0.482,0.114-0.75s0.186-0.605,0.33-1.014L329.906,148.454z M331.669,143.966c-0.2,0-0.374-0.067-0.521-0.204
		c-0.148-0.136-0.223-0.312-0.223-0.527c0-0.217,0.072-0.4,0.216-0.553c0.145-0.151,0.32-0.228,0.528-0.228
		c0.224,0,0.408,0.076,0.552,0.228c0.145,0.152,0.216,0.332,0.216,0.541c0,0.207-0.075,0.383-0.228,0.527
		S331.877,143.966,331.669,143.966z"/>
	<path fill="#3E0106" d="M338.078,144.109c0.063-0.215,0.111-0.396,0.144-0.539c0.032-0.145,0.048-0.248,0.048-0.313
		c0-0.119-0.08-0.203-0.239-0.252c-0.16-0.048-0.448-0.072-0.864-0.072l0.132-0.479h2.316l-1.332,4.86
		c-0.168,0.623-0.309,1.156-0.42,1.596c-0.112,0.439-0.202,0.811-0.271,1.109c-0.068,0.301-0.114,0.547-0.138,0.738
		c-0.024,0.192-0.036,0.353-0.036,0.48c0,0.184,0.028,0.313,0.084,0.384s0.128,0.108,0.216,0.108c0.176,0,0.366-0.148,0.57-0.444
		s0.386-0.685,0.546-1.164l0.456,0.108c-0.272,0.791-0.57,1.373-0.895,1.746c-0.323,0.371-0.689,0.558-1.098,0.558
		c-0.288,0-0.51-0.093-0.666-0.276s-0.234-0.447-0.234-0.792c0-0.088,0.009-0.18,0.024-0.276c0.016-0.096,0.036-0.188,0.06-0.275
		l-0.096-0.023c-0.304,0.527-0.672,0.934-1.104,1.217c-0.433,0.285-0.845,0.427-1.236,0.427c-0.208,0-0.4-0.046-0.576-0.138
		s-0.328-0.221-0.456-0.385s-0.229-0.359-0.306-0.588c-0.076-0.228-0.114-0.481-0.114-0.762c0-0.344,0.054-0.702,0.162-1.074
		s0.256-0.732,0.444-1.08c0.188-0.348,0.405-0.678,0.653-0.99c0.248-0.312,0.511-0.586,0.786-0.821
		c0.276-0.236,0.561-0.422,0.853-0.558c0.292-0.137,0.577-0.205,0.857-0.205c0.272,0,0.479,0.053,0.618,0.156
		c0.14,0.104,0.278,0.269,0.414,0.492L338.078,144.109z M336.433,146.57c-0.208,0-0.418,0.066-0.63,0.197
		c-0.212,0.133-0.418,0.309-0.618,0.528c-0.199,0.22-0.386,0.474-0.558,0.763c-0.172,0.287-0.322,0.588-0.45,0.899
		s-0.229,0.628-0.306,0.948s-0.114,0.62-0.114,0.9c0,0.287,0.072,0.518,0.216,0.689c0.145,0.172,0.336,0.258,0.576,0.258
		c0.184,0,0.372-0.074,0.564-0.222c0.191-0.147,0.38-0.343,0.563-0.582c0.185-0.24,0.358-0.515,0.522-0.822s0.308-0.624,0.432-0.948
		s0.222-0.644,0.294-0.959c0.072-0.316,0.108-0.603,0.108-0.858c0-0.248-0.048-0.442-0.145-0.582
		C336.793,146.64,336.641,146.57,336.433,146.57z"/>
	<path fill="#3E0106" d="M341.881,152.534c-0.272,0-0.526-0.054-0.762-0.162c-0.236-0.108-0.442-0.267-0.618-0.474
		c-0.177-0.209-0.316-0.463-0.42-0.762c-0.104-0.301-0.156-0.639-0.156-1.015c0-0.521,0.098-1.032,0.294-1.536
		s0.454-0.951,0.774-1.344c0.319-0.393,0.686-0.708,1.098-0.948c0.412-0.239,0.838-0.36,1.278-0.36c0.287,0,0.554,0.055,0.798,0.162
		c0.244,0.108,0.451,0.264,0.624,0.469c0.172,0.203,0.308,0.447,0.407,0.731c0.101,0.284,0.15,0.599,0.15,0.942
		c0,0.504-0.1,1.012-0.3,1.523s-0.462,0.973-0.786,1.381s-0.694,0.742-1.11,1.002S342.313,152.534,341.881,152.534z
		 M341.954,151.933c0.271,0,0.541-0.14,0.81-0.42c0.268-0.279,0.508-0.634,0.72-1.062s0.385-0.894,0.517-1.397
		s0.197-0.984,0.197-1.44c0-0.425-0.073-0.716-0.222-0.876s-0.35-0.24-0.605-0.24c-0.177,0-0.354,0.063-0.534,0.186
		c-0.181,0.125-0.351,0.295-0.51,0.51c-0.16,0.217-0.311,0.465-0.45,0.744c-0.141,0.281-0.263,0.576-0.366,0.889
		c-0.104,0.313-0.185,0.63-0.24,0.954c-0.056,0.323-0.084,0.634-0.084,0.93c0,0.448,0.072,0.765,0.216,0.948
		C341.545,151.842,341.729,151.933,341.954,151.933z"/>
	<path fill="#3E0106" d="M267.195,167.13c0-0.159-0.015-0.306-0.042-0.438c-0.028-0.131-0.061-0.258-0.097-0.377
		c-0.035-0.121-0.067-0.236-0.096-0.349s-0.042-0.228-0.042-0.348c0-0.456,0.208-0.685,0.624-0.685c0.248,0,0.426,0.088,0.534,0.265
		c0.108,0.176,0.162,0.468,0.162,0.876c0,0.424-0.053,0.854-0.156,1.29s-0.248,0.856-0.432,1.26c-0.185,0.404-0.4,0.782-0.648,1.134
		c-0.248,0.353-0.512,0.66-0.792,0.924c-0.28,0.265-0.57,0.473-0.87,0.625c-0.3,0.151-0.598,0.228-0.894,0.228
		c-0.216,0-0.418-0.042-0.606-0.126c-0.188-0.084-0.35-0.202-0.485-0.354c-0.137-0.152-0.242-0.332-0.318-0.541
		c-0.076-0.207-0.114-0.432-0.114-0.672c0-0.455,0.124-0.992,0.372-1.607c0.248-0.616,0.601-1.252,1.057-1.908l-0.024-0.036
		c-0.216,0-0.396-0.032-0.54-0.097c-0.144-0.063-0.266-0.135-0.366-0.215c-0.1-0.08-0.188-0.152-0.264-0.217
		c-0.076-0.063-0.154-0.096-0.234-0.096c-0.136,0-0.204,0.068-0.204,0.204c0,0.071,0.022,0.136,0.066,0.192
		c0.044,0.056,0.092,0.111,0.144,0.168c0.053,0.056,0.101,0.117,0.145,0.186s0.065,0.15,0.065,0.246
		c0,0.145-0.056,0.262-0.168,0.354c-0.111,0.092-0.256,0.139-0.432,0.139c-0.208,0-0.368-0.064-0.479-0.192
		c-0.112-0.128-0.169-0.308-0.169-0.54c0-0.199,0.04-0.39,0.12-0.57c0.08-0.18,0.188-0.338,0.324-0.474s0.294-0.243,0.475-0.323
		c0.18-0.08,0.369-0.121,0.569-0.121c0.16,0,0.296,0.026,0.408,0.078c0.112,0.053,0.216,0.112,0.312,0.18
		c0.097,0.068,0.19,0.129,0.282,0.181s0.202,0.078,0.33,0.078c0.152,0,0.288-0.06,0.408-0.181c0.168-0.151,0.282-0.246,0.342-0.281
		c0.061-0.036,0.138-0.055,0.234-0.055c0.16,0,0.24,0.068,0.24,0.205c0,0.031-0.005,0.06-0.013,0.084
		c-0.008,0.023-0.025,0.06-0.054,0.107s-0.076,0.112-0.145,0.191c-0.067,0.08-0.161,0.192-0.281,0.336
		c-0.185,0.225-0.353,0.477-0.504,0.757c-0.152,0.28-0.284,0.571-0.396,0.876c-0.112,0.304-0.2,0.609-0.264,0.918
		c-0.064,0.309-0.097,0.598-0.097,0.869c0,0.433,0.074,0.779,0.223,1.039c0.147,0.26,0.338,0.39,0.569,0.39
		c0.225,0,0.464-0.12,0.721-0.36c0.256-0.24,0.496-0.537,0.72-0.894s0.41-0.742,0.558-1.158
		C267.121,167.879,267.195,167.49,267.195,167.13z"/>
	<path fill="#3E0106" d="M270.17,167.454c0.111-0.312,0.191-0.563,0.239-0.756c0.049-0.192,0.072-0.345,0.072-0.456
		c0-0.112-0.018-0.186-0.054-0.223c-0.036-0.035-0.074-0.054-0.114-0.054c-0.088,0-0.184,0.042-0.288,0.126
		c-0.104,0.084-0.208,0.182-0.312,0.295c-0.104,0.111-0.196,0.224-0.276,0.336c-0.08,0.111-0.136,0.199-0.168,0.264l-0.348-0.217
		c0.096-0.176,0.229-0.371,0.401-0.588c0.172-0.216,0.366-0.416,0.582-0.6c0.217-0.184,0.44-0.338,0.673-0.462
		c0.231-0.124,0.451-0.187,0.659-0.187c0.2,0,0.351,0.059,0.45,0.174c0.1,0.117,0.15,0.326,0.15,0.631
		c0,0.232-0.07,0.544-0.21,0.936c-0.141,0.393-0.322,0.896-0.546,1.512l-0.444,1.213c-0.017,0.039-0.038,0.102-0.066,0.186
		c-0.027,0.084-0.056,0.172-0.084,0.264c-0.027,0.092-0.052,0.183-0.071,0.271c-0.021,0.088-0.03,0.16-0.03,0.216
		c0,0.072,0.02,0.137,0.06,0.191c0.04,0.057,0.104,0.084,0.192,0.084c0.12,0,0.244-0.049,0.372-0.149
		c0.128-0.1,0.252-0.218,0.372-0.354c0.12-0.135,0.228-0.273,0.324-0.414c0.096-0.139,0.168-0.25,0.216-0.329l0.359,0.204
		c-0.096,0.191-0.226,0.404-0.39,0.636s-0.35,0.446-0.558,0.642c-0.208,0.196-0.437,0.36-0.685,0.492
		c-0.248,0.133-0.504,0.198-0.768,0.198c-0.232,0-0.406-0.06-0.522-0.181c-0.116-0.119-0.174-0.319-0.174-0.6
		c0-0.232,0.038-0.482,0.114-0.75s0.186-0.605,0.33-1.014L270.17,167.454z M271.934,162.966c-0.2,0-0.374-0.067-0.521-0.204
		c-0.148-0.136-0.223-0.312-0.223-0.527c0-0.217,0.072-0.4,0.216-0.553c0.145-0.151,0.32-0.228,0.528-0.228
		c0.224,0,0.408,0.076,0.552,0.228c0.145,0.152,0.216,0.332,0.216,0.541c0,0.207-0.075,0.383-0.228,0.527
		S272.142,162.966,271.934,162.966z"/>
	<path fill="#3E0106" d="M274.97,171.534c-0.272,0-0.526-0.054-0.762-0.162c-0.236-0.108-0.442-0.267-0.618-0.474
		c-0.177-0.209-0.316-0.463-0.42-0.762c-0.104-0.301-0.156-0.639-0.156-1.015c0-0.521,0.098-1.032,0.294-1.536
		s0.454-0.951,0.774-1.344c0.319-0.393,0.686-0.708,1.098-0.948c0.412-0.239,0.838-0.36,1.278-0.36c0.287,0,0.554,0.055,0.798,0.162
		c0.244,0.108,0.451,0.264,0.624,0.469c0.172,0.203,0.308,0.447,0.407,0.731c0.101,0.284,0.15,0.599,0.15,0.942
		c0,0.504-0.1,1.012-0.3,1.523s-0.462,0.973-0.786,1.381s-0.694,0.742-1.11,1.002S275.402,171.534,274.97,171.534z M275.042,170.933
		c0.271,0,0.541-0.14,0.81-0.42c0.268-0.279,0.508-0.634,0.72-1.062s0.385-0.894,0.517-1.397s0.197-0.984,0.197-1.44
		c0-0.425-0.073-0.716-0.222-0.876s-0.35-0.24-0.605-0.24c-0.177,0-0.354,0.063-0.534,0.186c-0.181,0.125-0.351,0.295-0.51,0.51
		c-0.16,0.217-0.311,0.465-0.45,0.744c-0.141,0.281-0.263,0.576-0.366,0.889c-0.104,0.313-0.185,0.63-0.24,0.954
		c-0.056,0.323-0.084,0.634-0.084,0.93c0,0.448,0.072,0.765,0.216,0.948C274.634,170.842,274.818,170.933,275.042,170.933z"/>
	<path fill="#3E0106" d="M281.199,163.122c0.04-0.144,0.079-0.29,0.12-0.438c0.039-0.147,0.06-0.258,0.06-0.33
		c0-0.279-0.304-0.42-0.912-0.42l0.096-0.359l2.196-0.108l-2.147,7.884c-0.064,0.217-0.112,0.406-0.145,0.57
		s-0.048,0.303-0.048,0.414c0,0.072,0.02,0.137,0.06,0.191c0.04,0.057,0.104,0.084,0.192,0.084c0.128,0,0.264-0.053,0.408-0.161
		c0.144-0.108,0.282-0.235,0.414-0.384s0.25-0.301,0.354-0.457c0.104-0.155,0.181-0.277,0.229-0.365l0.359,0.204
		c-0.12,0.272-0.275,0.534-0.468,0.786c-0.191,0.252-0.396,0.474-0.612,0.666c-0.216,0.191-0.434,0.346-0.653,0.461
		c-0.221,0.117-0.422,0.175-0.606,0.175c-0.28,0-0.485-0.06-0.618-0.181c-0.132-0.119-0.197-0.319-0.197-0.6
		c0-0.16,0.023-0.376,0.071-0.648c0.049-0.271,0.133-0.643,0.252-1.115L281.199,163.122z"/>
	<path fill="#3E0106" d="M287.21,169.818c-0.696,1.145-1.553,1.716-2.568,1.716c-0.552,0-0.976-0.17-1.271-0.511
		c-0.296-0.34-0.444-0.821-0.444-1.445c0-0.553,0.114-1.104,0.342-1.656c0.229-0.552,0.526-1.05,0.895-1.494
		c0.367-0.443,0.779-0.804,1.235-1.08c0.456-0.275,0.912-0.414,1.368-0.414c0.384,0,0.698,0.099,0.942,0.295
		c0.244,0.195,0.366,0.445,0.366,0.75c0,0.279-0.104,0.568-0.313,0.863c-0.208,0.297-0.49,0.576-0.846,0.84
		c-0.356,0.265-0.772,0.504-1.248,0.721c-0.477,0.216-0.982,0.384-1.519,0.504c-0.016,0.111-0.027,0.222-0.035,0.33
		c-0.009,0.107-0.013,0.218-0.013,0.33c0,0.871,0.309,1.308,0.924,1.308c0.296,0,0.603-0.116,0.918-0.349
		c0.316-0.231,0.61-0.551,0.883-0.959L287.21,169.818z M286.526,165.498c-0.208,0-0.424,0.08-0.647,0.24
		c-0.225,0.16-0.438,0.374-0.643,0.642c-0.203,0.269-0.39,0.574-0.558,0.918c-0.168,0.345-0.304,0.7-0.408,1.068
		c0.385-0.104,0.74-0.24,1.068-0.408s0.609-0.358,0.846-0.569c0.236-0.213,0.422-0.437,0.559-0.673
		c0.136-0.235,0.204-0.474,0.204-0.714C286.947,165.666,286.806,165.498,286.526,165.498z"/>
	<path fill="#3E0106" d="M293.33,165.558c-0.191,0-0.41,0.098-0.653,0.293c-0.244,0.197-0.492,0.457-0.744,0.78
		c-0.252,0.324-0.494,0.694-0.727,1.11c-0.231,0.416-0.428,0.84-0.588,1.271l-0.888,2.4h-1.056l0.888-2.748
		c0.144-0.439,0.264-0.816,0.36-1.128c0.096-0.312,0.174-0.573,0.233-0.786c0.061-0.212,0.103-0.384,0.126-0.516
		c0.024-0.133,0.036-0.238,0.036-0.318c0-0.216-0.068-0.324-0.204-0.324c-0.088,0-0.191,0.057-0.312,0.168
		c-0.12,0.112-0.242,0.258-0.366,0.438c-0.124,0.18-0.242,0.386-0.354,0.618c-0.111,0.232-0.208,0.468-0.287,0.707l-0.36-0.18
		c0.28-0.824,0.594-1.432,0.942-1.824c0.348-0.391,0.745-0.588,1.193-0.588c0.256,0,0.438,0.072,0.546,0.217
		c0.108,0.144,0.162,0.388,0.162,0.731c0,0.408-0.068,0.772-0.204,1.093l0.036,0.035c0.408-0.72,0.822-1.246,1.242-1.578
		s0.878-0.498,1.374-0.498c0.352,0,0.62,0.084,0.804,0.252c0.185,0.168,0.276,0.408,0.276,0.721c0,0.104-0.011,0.22-0.03,0.348
		c-0.02,0.129-0.054,0.282-0.102,0.462c-0.048,0.181-0.114,0.395-0.198,0.642c-0.084,0.248-0.187,0.553-0.306,0.912
		c-0.185,0.545-0.337,1-0.456,1.369c-0.12,0.367-0.181,0.627-0.181,0.779c0,0.12,0.04,0.18,0.12,0.18
		c0.112,0,0.276-0.092,0.492-0.275s0.508-0.48,0.876-0.889l0.312,0.168c-0.128,0.24-0.294,0.475-0.497,0.703
		c-0.204,0.228-0.417,0.434-0.637,0.617s-0.438,0.332-0.653,0.444c-0.217,0.112-0.404,0.168-0.564,0.168
		c-0.2,0-0.358-0.089-0.474-0.265c-0.116-0.176-0.175-0.407-0.175-0.695c0-0.112,0.011-0.227,0.03-0.342
		c0.021-0.116,0.063-0.282,0.126-0.498c0.064-0.217,0.158-0.506,0.282-0.87s0.294-0.847,0.51-1.446
		c0.072-0.208,0.132-0.384,0.181-0.527c0.048-0.145,0.086-0.271,0.113-0.379c0.028-0.107,0.048-0.201,0.061-0.281
		c0.012-0.08,0.018-0.156,0.018-0.229C293.654,165.706,293.546,165.558,293.33,165.558z"/>
	<path fill="#3E0106" d="M300.23,169.482c-0.336,0.664-0.726,1.172-1.17,1.523c-0.443,0.353-0.918,0.528-1.422,0.528
		c-0.52,0-0.936-0.179-1.248-0.534c-0.312-0.355-0.468-0.83-0.468-1.422c0-0.352,0.052-0.712,0.156-1.08
		c0.104-0.367,0.244-0.725,0.42-1.068s0.384-0.668,0.624-0.972s0.496-0.567,0.768-0.792c0.272-0.224,0.554-0.402,0.847-0.534
		c0.292-0.132,0.577-0.198,0.857-0.198c0.384,0,0.7,0.104,0.948,0.313s0.372,0.468,0.372,0.779c0,0.201-0.059,0.363-0.174,0.486
		c-0.116,0.125-0.267,0.187-0.45,0.187c-0.185,0-0.334-0.058-0.45-0.175c-0.116-0.115-0.174-0.258-0.174-0.426
		c0-0.104,0.016-0.188,0.048-0.252c0.032-0.063,0.048-0.123,0.048-0.18c0-0.111-0.096-0.168-0.288-0.168
		c-0.264,0-0.532,0.124-0.804,0.372c-0.272,0.248-0.519,0.567-0.738,0.96s-0.399,0.83-0.54,1.314c-0.14,0.484-0.21,0.965-0.21,1.445
		c0,0.385,0.074,0.687,0.223,0.906c0.147,0.221,0.354,0.33,0.617,0.33c0.145,0,0.294-0.04,0.45-0.12s0.314-0.19,0.475-0.33
		c0.159-0.14,0.313-0.306,0.462-0.498c0.147-0.192,0.281-0.403,0.401-0.636L300.23,169.482z"/>
	<path fill="#3E0106" d="M302.619,167.454c0.111-0.312,0.191-0.563,0.239-0.756c0.049-0.192,0.072-0.345,0.072-0.456
		c0-0.112-0.018-0.186-0.054-0.223c-0.036-0.035-0.074-0.054-0.114-0.054c-0.088,0-0.184,0.042-0.288,0.126
		c-0.104,0.084-0.208,0.182-0.312,0.295c-0.104,0.111-0.196,0.224-0.276,0.336c-0.08,0.111-0.136,0.199-0.168,0.264l-0.348-0.217
		c0.096-0.176,0.229-0.371,0.401-0.588c0.172-0.216,0.366-0.416,0.582-0.6c0.217-0.184,0.44-0.338,0.673-0.462
		c0.231-0.124,0.451-0.187,0.659-0.187c0.2,0,0.351,0.059,0.45,0.174c0.1,0.117,0.15,0.326,0.15,0.631
		c0,0.232-0.07,0.544-0.21,0.936c-0.141,0.393-0.322,0.896-0.546,1.512l-0.444,1.213c-0.017,0.039-0.038,0.102-0.066,0.186
		c-0.027,0.084-0.056,0.172-0.084,0.264c-0.027,0.092-0.052,0.183-0.071,0.271c-0.021,0.088-0.03,0.16-0.03,0.216
		c0,0.072,0.02,0.137,0.06,0.191c0.04,0.057,0.104,0.084,0.192,0.084c0.12,0,0.244-0.049,0.372-0.149
		c0.128-0.1,0.252-0.218,0.372-0.354c0.12-0.135,0.228-0.273,0.324-0.414c0.096-0.139,0.168-0.25,0.216-0.329l0.359,0.204
		c-0.096,0.191-0.226,0.404-0.39,0.636s-0.35,0.446-0.558,0.642c-0.208,0.196-0.437,0.36-0.685,0.492
		c-0.248,0.133-0.504,0.198-0.768,0.198c-0.232,0-0.406-0.06-0.522-0.181c-0.116-0.119-0.174-0.319-0.174-0.6
		c0-0.232,0.038-0.482,0.114-0.75s0.186-0.605,0.33-1.014L302.619,167.454z M304.382,162.966c-0.2,0-0.374-0.067-0.521-0.204
		c-0.148-0.136-0.223-0.312-0.223-0.527c0-0.217,0.072-0.4,0.216-0.553c0.145-0.151,0.32-0.228,0.528-0.228
		c0.224,0,0.408,0.076,0.552,0.228c0.145,0.152,0.216,0.332,0.216,0.541c0,0.207-0.075,0.383-0.228,0.527
		S304.59,162.966,304.382,162.966z"/>
	<path fill="#3E0106" d="M310.394,165.054h0.996l-0.684,1.836c-0.112,0.304-0.223,0.627-0.33,0.972
		c-0.108,0.344-0.204,0.676-0.288,0.995c-0.084,0.32-0.15,0.613-0.198,0.877s-0.072,0.46-0.072,0.588
		c0,0.232,0.076,0.348,0.229,0.348c0.112,0,0.273-0.115,0.486-0.348c0.212-0.232,0.449-0.532,0.714-0.9l0.312,0.252
		c-0.336,0.592-0.698,1.051-1.086,1.374c-0.388,0.324-0.762,0.486-1.122,0.486c-0.184,0-0.326-0.07-0.426-0.21
		c-0.101-0.141-0.15-0.37-0.15-0.689c0-0.072,0.002-0.156,0.007-0.253c0.004-0.096,0.014-0.224,0.029-0.384l-0.048-0.012
		c-0.12,0.224-0.262,0.43-0.426,0.617c-0.164,0.188-0.342,0.353-0.534,0.492c-0.192,0.141-0.392,0.248-0.6,0.324
		s-0.412,0.114-0.612,0.114c-0.408,0-0.726-0.154-0.954-0.462c-0.228-0.309-0.342-0.734-0.342-1.278
		c0-0.552,0.116-1.116,0.348-1.692c0.232-0.576,0.532-1.098,0.9-1.565s0.775-0.853,1.224-1.151c0.448-0.301,0.889-0.451,1.32-0.451
		c0.264,0,0.479,0.063,0.647,0.187s0.305,0.326,0.408,0.606L310.394,165.054z M309.159,165.558c-0.305,0-0.618,0.14-0.942,0.42
		c-0.324,0.279-0.618,0.629-0.882,1.049c-0.264,0.421-0.48,0.873-0.648,1.357c-0.168,0.483-0.252,0.934-0.252,1.35
		c0,0.287,0.061,0.518,0.181,0.689c0.119,0.172,0.283,0.258,0.491,0.258c0.185,0,0.376-0.073,0.576-0.222
		c0.2-0.147,0.395-0.344,0.582-0.588c0.188-0.244,0.366-0.522,0.534-0.834s0.315-0.634,0.444-0.966
		c0.128-0.332,0.228-0.658,0.3-0.979c0.072-0.319,0.107-0.607,0.107-0.863c0-0.209-0.044-0.373-0.132-0.492
		C309.43,165.618,309.31,165.558,309.159,165.558z"/>
	<path fill="#3E0106" d="M315.866,166.769c0-0.264,0.05-0.508,0.15-0.731c0.1-0.224,0.237-0.418,0.414-0.582
		c0.176-0.164,0.386-0.292,0.63-0.384s0.51-0.139,0.798-0.139c0.384,0,0.704,0.097,0.96,0.289c0.256,0.191,0.384,0.439,0.384,0.743
		c0,0.169-0.046,0.3-0.138,0.396c-0.092,0.096-0.218,0.144-0.378,0.144c-0.185,0-0.316-0.054-0.396-0.162
		c-0.08-0.107-0.147-0.228-0.204-0.359c-0.056-0.133-0.115-0.254-0.18-0.366s-0.172-0.168-0.324-0.168
		c-0.176,0-0.323,0.076-0.443,0.228c-0.12,0.152-0.181,0.34-0.181,0.564c0,0.264,0.078,0.51,0.234,0.738
		c0.156,0.228,0.33,0.466,0.522,0.713c0.191,0.248,0.365,0.521,0.521,0.816c0.156,0.297,0.234,0.645,0.234,1.045
		c0,0.271-0.059,0.527-0.175,0.768c-0.115,0.24-0.271,0.449-0.468,0.63c-0.196,0.18-0.422,0.322-0.678,0.426
		c-0.256,0.104-0.521,0.156-0.792,0.156c-0.48,0-0.862-0.104-1.146-0.312c-0.283-0.209-0.426-0.48-0.426-0.816
		c0-0.232,0.055-0.414,0.162-0.547c0.108-0.131,0.254-0.197,0.438-0.197c0.344,0,0.54,0.236,0.588,0.708
		c0.023,0.256,0.065,0.426,0.126,0.51c0.06,0.084,0.182,0.126,0.366,0.126c0.287,0,0.516-0.086,0.684-0.258s0.252-0.41,0.252-0.714
		c0-0.319-0.08-0.604-0.24-0.853s-0.336-0.49-0.527-0.726c-0.192-0.235-0.368-0.485-0.528-0.75S315.866,167.13,315.866,166.769z"/>
	<path fill="#3E0106" d="M323.966,169.818c-0.696,1.145-1.553,1.716-2.568,1.716c-0.552,0-0.976-0.17-1.271-0.511
		c-0.296-0.34-0.444-0.821-0.444-1.445c0-0.553,0.114-1.104,0.342-1.656c0.229-0.552,0.526-1.05,0.895-1.494
		c0.367-0.443,0.779-0.804,1.235-1.08c0.456-0.275,0.912-0.414,1.368-0.414c0.384,0,0.698,0.099,0.942,0.295
		c0.244,0.195,0.366,0.445,0.366,0.75c0,0.279-0.104,0.568-0.313,0.863c-0.208,0.297-0.49,0.576-0.846,0.84
		c-0.356,0.265-0.772,0.504-1.248,0.721c-0.477,0.216-0.982,0.384-1.519,0.504c-0.016,0.111-0.027,0.222-0.035,0.33
		c-0.009,0.107-0.013,0.218-0.013,0.33c0,0.871,0.309,1.308,0.924,1.308c0.296,0,0.603-0.116,0.918-0.349
		c0.316-0.231,0.61-0.551,0.883-0.959L323.966,169.818z M323.282,165.498c-0.208,0-0.424,0.08-0.647,0.24
		c-0.225,0.16-0.438,0.374-0.643,0.642c-0.203,0.269-0.39,0.574-0.558,0.918c-0.168,0.345-0.304,0.7-0.408,1.068
		c0.385-0.104,0.74-0.24,1.068-0.408s0.609-0.358,0.846-0.569c0.236-0.213,0.422-0.437,0.559-0.673
		c0.136-0.235,0.204-0.474,0.204-0.714C323.703,165.666,323.562,165.498,323.282,165.498z"/>
	<path fill="#3E0106" d="M328.753,168.618c-0.128,0.544-0.191,0.992-0.191,1.344c0,0.616,0.212,0.925,0.636,0.925
		c0.264,0,0.54-0.113,0.828-0.336c0.288-0.225,0.62-0.58,0.996-1.068l0.36,0.216c-0.145,0.272-0.313,0.521-0.505,0.743
		c-0.191,0.225-0.397,0.419-0.617,0.582c-0.221,0.164-0.444,0.291-0.673,0.379c-0.228,0.088-0.449,0.132-0.666,0.132
		c-0.367,0-0.67-0.126-0.905-0.378c-0.236-0.252-0.378-0.602-0.427-1.051l-0.035-0.012c-0.12,0.217-0.263,0.412-0.427,0.588
		s-0.338,0.326-0.521,0.45c-0.185,0.124-0.378,0.222-0.582,0.294s-0.402,0.108-0.594,0.108c-0.313,0-0.566-0.089-0.763-0.265
		c-0.195-0.176-0.294-0.403-0.294-0.684c0-0.224,0.064-0.404,0.192-0.54s0.3-0.204,0.516-0.204c0.2,0,0.336,0.053,0.408,0.156
		s0.126,0.219,0.162,0.342c0.036,0.125,0.076,0.238,0.12,0.342c0.044,0.104,0.134,0.156,0.27,0.156c0.128,0,0.26-0.052,0.396-0.156
		c0.136-0.104,0.27-0.254,0.401-0.449c0.133-0.196,0.259-0.43,0.379-0.702c0.119-0.272,0.228-0.576,0.323-0.912l0.336-1.164
		c0.145-0.487,0.217-0.876,0.217-1.164c0-0.433-0.133-0.647-0.396-0.647c-0.112,0-0.246,0.039-0.402,0.119
		c-0.155,0.08-0.317,0.188-0.485,0.324c-0.168,0.137-0.334,0.293-0.498,0.469s-0.311,0.359-0.438,0.551l-0.359-0.215
		c0.104-0.24,0.256-0.477,0.456-0.709c0.199-0.231,0.415-0.439,0.647-0.623c0.232-0.185,0.466-0.334,0.702-0.451
		c0.236-0.115,0.45-0.174,0.642-0.174c0.305,0,0.557,0.119,0.757,0.354c0.199,0.235,0.3,0.534,0.3,0.894
		c0.231-0.375,0.512-0.678,0.84-0.906c0.328-0.228,0.644-0.342,0.948-0.342c0.279,0,0.516,0.093,0.708,0.276
		c0.191,0.185,0.288,0.408,0.288,0.672c0,0.192-0.055,0.349-0.162,0.468c-0.108,0.121-0.254,0.181-0.438,0.181
		c-0.168,0-0.286-0.046-0.354-0.138c-0.068-0.092-0.12-0.196-0.156-0.313c-0.036-0.115-0.076-0.22-0.12-0.313
		c-0.044-0.092-0.126-0.138-0.246-0.138c-0.128,0-0.26,0.056-0.396,0.168c-0.137,0.112-0.267,0.269-0.391,0.468
		c-0.124,0.201-0.239,0.438-0.348,0.715c-0.108,0.275-0.198,0.578-0.271,0.906L328.753,168.618z"/>
	<path fill="#3E0106" d="M333.95,170.67c0.128,0,0.296-0.09,0.504-0.27s0.428-0.42,0.66-0.721c0.231-0.3,0.457-0.642,0.678-1.025
		c0.22-0.385,0.406-0.784,0.558-1.2l0.889-2.399h1.115l-0.888,2.748c-0.128,0.399-0.236,0.741-0.324,1.025s-0.16,0.523-0.216,0.72
		s-0.096,0.356-0.12,0.479c-0.023,0.125-0.036,0.223-0.036,0.295c0,0.208,0.072,0.313,0.217,0.313c0.079,0,0.176-0.039,0.287-0.115
		c0.112-0.075,0.227-0.18,0.343-0.312c0.115-0.132,0.228-0.28,0.336-0.444c0.107-0.164,0.202-0.338,0.281-0.521l0.36,0.18
		c-0.104,0.264-0.24,0.521-0.408,0.774c-0.168,0.252-0.35,0.478-0.546,0.678s-0.401,0.36-0.618,0.479
		c-0.216,0.121-0.428,0.181-0.636,0.181c-0.248,0-0.416-0.089-0.504-0.265s-0.132-0.428-0.132-0.756
		c0-0.136,0.006-0.281,0.018-0.438c0.013-0.156,0.034-0.311,0.066-0.462l-0.036-0.036c-0.216,0.384-0.426,0.7-0.63,0.947
		c-0.204,0.248-0.402,0.449-0.594,0.601c-0.192,0.152-0.381,0.259-0.564,0.317c-0.184,0.061-0.364,0.091-0.54,0.091
		c-0.376,0-0.638-0.104-0.786-0.312c-0.147-0.209-0.222-0.465-0.222-0.769c0-0.336,0.063-0.706,0.192-1.11
		c0.128-0.403,0.264-0.785,0.407-1.146c0.145-0.36,0.267-0.664,0.366-0.912s0.18-0.456,0.24-0.624
		c0.06-0.168,0.104-0.305,0.132-0.408s0.042-0.188,0.042-0.252c0-0.031-0.006-0.062-0.018-0.09
		c-0.013-0.027-0.042-0.042-0.091-0.042c-0.104,0-0.254,0.092-0.449,0.276c-0.196,0.184-0.462,0.479-0.798,0.888l-0.313-0.168
		c0.12-0.231,0.271-0.464,0.456-0.696c0.184-0.232,0.38-0.439,0.588-0.624c0.208-0.184,0.424-0.331,0.648-0.444
		c0.224-0.111,0.432-0.168,0.624-0.168c0.399,0,0.6,0.232,0.6,0.696c0,0.28-0.078,0.642-0.234,1.086
		c-0.155,0.444-0.357,0.974-0.605,1.591c-0.16,0.392-0.292,0.744-0.396,1.056c-0.104,0.312-0.155,0.596-0.155,0.852
		c0,0.168,0.023,0.286,0.071,0.354C333.818,170.636,333.877,170.67,333.95,170.67z"/>
	<path fill="#3E0106" d="M344.257,165.054h0.996l-0.684,1.836c-0.112,0.304-0.223,0.627-0.33,0.972
		c-0.108,0.344-0.204,0.676-0.288,0.995c-0.084,0.32-0.15,0.613-0.198,0.877s-0.072,0.46-0.072,0.588
		c0,0.232,0.076,0.348,0.229,0.348c0.112,0,0.273-0.115,0.486-0.348c0.212-0.232,0.449-0.532,0.714-0.9l0.312,0.252
		c-0.336,0.592-0.698,1.051-1.086,1.374c-0.388,0.324-0.762,0.486-1.122,0.486c-0.184,0-0.326-0.07-0.426-0.21
		c-0.101-0.141-0.15-0.37-0.15-0.689c0-0.072,0.002-0.156,0.007-0.253c0.004-0.096,0.014-0.224,0.029-0.384l-0.048-0.012
		c-0.12,0.224-0.262,0.43-0.426,0.617c-0.164,0.188-0.342,0.353-0.534,0.492c-0.192,0.141-0.392,0.248-0.6,0.324
		s-0.412,0.114-0.612,0.114c-0.408,0-0.726-0.154-0.954-0.462c-0.228-0.309-0.342-0.734-0.342-1.278
		c0-0.552,0.116-1.116,0.348-1.692c0.232-0.576,0.532-1.098,0.9-1.565s0.775-0.853,1.224-1.151c0.448-0.301,0.889-0.451,1.32-0.451
		c0.264,0,0.479,0.063,0.647,0.187s0.305,0.326,0.408,0.606L344.257,165.054z M343.022,165.558c-0.305,0-0.618,0.14-0.942,0.42
		c-0.324,0.279-0.618,0.629-0.882,1.049c-0.264,0.421-0.48,0.873-0.648,1.357c-0.168,0.483-0.252,0.934-0.252,1.35
		c0,0.287,0.061,0.518,0.181,0.689c0.119,0.172,0.283,0.258,0.491,0.258c0.185,0,0.376-0.073,0.576-0.222
		c0.2-0.147,0.395-0.344,0.582-0.588c0.188-0.244,0.366-0.522,0.534-0.834s0.315-0.634,0.444-0.966
		c0.128-0.332,0.228-0.658,0.3-0.979c0.072-0.319,0.107-0.607,0.107-0.863c0-0.209-0.044-0.373-0.132-0.492
		C343.293,165.618,343.173,165.558,343.022,165.558z"/>
	<path fill="#3E0106" d="M348.074,163.122c0.04-0.144,0.079-0.29,0.12-0.438c0.039-0.147,0.06-0.258,0.06-0.33
		c0-0.279-0.304-0.42-0.912-0.42l0.096-0.359l2.196-0.108l-2.147,7.884c-0.064,0.217-0.112,0.406-0.145,0.57
		s-0.048,0.303-0.048,0.414c0,0.072,0.02,0.137,0.06,0.191c0.04,0.057,0.104,0.084,0.192,0.084c0.128,0,0.264-0.053,0.408-0.161
		c0.144-0.108,0.282-0.235,0.414-0.384s0.25-0.301,0.354-0.457c0.104-0.155,0.181-0.277,0.229-0.365l0.359,0.204
		c-0.12,0.272-0.275,0.534-0.468,0.786c-0.191,0.252-0.396,0.474-0.612,0.666c-0.216,0.191-0.434,0.346-0.653,0.461
		c-0.221,0.117-0.422,0.175-0.606,0.175c-0.28,0-0.485-0.06-0.618-0.181c-0.132-0.119-0.197-0.319-0.197-0.6
		c0-0.16,0.023-0.376,0.071-0.648c0.049-0.271,0.133-0.643,0.252-1.115L348.074,163.122z"/>
</g>
</svg>
