<?xml version="1.0" encoding="utf-8"?>
<!-- Generator: Adobe Illustrator 16.0.0, SVG Export Plug-In . SVG Version: 6.00 Build 0)  -->
<!DOCTYPE svg PUBLIC "-//W3C//DTD SVG 1.1//EN" "http://www.w3.org/Graphics/SVG/1.1/DTD/svg11.dtd">
<svg version="1.1" id="Capa_1" xmlns="http://www.w3.org/2000/svg" xmlns:xlink="http://www.w3.org/1999/xlink" x="0px" y="0px"
	 width="313.667px" height="153.667px" viewBox="0 0 313.667 153.667" enable-background="new 0 0 313.667 153.667"
	 xml:space="preserve">
<g data-anchor-target="#section5"
	data--3700-top="opacity:0;"
	data--3750-top="opacity:0.5;"
	data--5350-top="opacity:0.5;"
	data--5400-top="opacity:0;">
	<path  fill="#3E0106" d="M28.595,3.208c-3.67,3.314-7.316,6.606-11.068,9.995l-2.324,2.22v-2.09h-5.033v6.897
		l-1.065,1.018c-2.396,2.309-4.774,4.636-7.156,6.958c-0.132,0.128-0.254,0.267-0.465,0.49c2.752,0,5.353,0,8.015,0
		c0,7.19,0,14.343,0,21.494c12.767,0,25.471,0,38.218,0c0-7.181,0-14.321,0-21.499c2.641,0,5.241,0,7.841,0
		c0.021-0.042,0.044-0.083,0.066-0.125C46.622,20.122,37.621,11.677,28.595,3.208z M31.776,35.73
		c-0.716,0.321-1.467,0.528-2.243,0.624v1.564h2.009v1.91h-2.009v2.457h-1.961v-2.457h-2.009v-1.91h2.009v-1.565
		c-3.354-0.425-6.126-2.999-6.639-6.318c-0.057-0.37-0.086-0.749-0.086-1.125c0-4.14,3.457-7.507,7.706-7.507
		s7.706,3.368,7.706,7.507C36.258,31.829,34.499,34.506,31.776,35.73z"/>
	<path fill="#3E0106" d="M28.553,23.312c-3.168,0-5.745,2.511-5.745,5.597c0,0.282,0.021,0.565,0.064,0.841
		c0.419,2.711,2.861,4.756,5.681,4.756c0.839,0,1.647-0.172,2.402-0.511c2.03-0.912,3.343-2.908,3.343-5.086
		C34.298,25.823,31.721,23.312,28.553,23.312z"/>
</g>
<g data-anchor-target="#section5"
	data--3750-top="opacity:0;"
	data--3800-top="opacity:0.5;"
	data--5300-top="opacity:0.5;"
	data--5350-top="opacity:0;">
	<path  fill="#3E0106" d="M86.673,28.769c0,0.282,0.022,0.565,0.064,0.841c0.4,2.587,2.643,4.563,5.297,4.739V23.19
		C89.046,23.384,86.673,25.808,86.673,28.769z"/>
	<path  fill="#3E0106" d="M80.116,14.281v-1.605h-5.033v6.41l-1.82,1.738l-0.292,0.282
		c-2.396,2.309-4.773,4.636-7.157,6.958c-0.131,0.128-0.253,0.267-0.465,0.49c2.752,0,5.353,0,8.015,0c0,7.189,0,14.343,0,21.494
		c6.234,0,12.455,0,18.672,0v-7.905h-0.597v-2.457h-2.01v-1.91h2.01v-1.565c-3.354-0.425-6.126-2.999-6.639-6.318
		c-0.057-0.371-0.086-0.749-0.086-1.126c0-4.014,3.252-7.292,7.322-7.488V3.452C88.508,6.637,85,9.805,81.392,13.063L80.116,14.281z
		"/>
</g>
<path  data-anchor-target="#section5"
	data--3800-top="opacity:0;"
	data--3850-top="opacity:0.25;"
	data--5250-top="opacity:0.25;"
	data--5300-top="opacity:0;" opacity="0.25" fill="#3E0106" d="M92.801,3.387V21.28v1.91v11.155v7.798v7.905c6.258,0,12.513,0,18.779,0
	c0-7.181,0-14.321,0-21.499c2.641,0,5.241,0,7.841,0c0.022-0.042,0.043-0.083,0.065-0.125
	C110.601,20.087,101.713,11.749,92.801,3.387z"/>
<path  data-anchor-target="#section5"
	data--3850-top="opacity:0;"
	data--3900-top="opacity:0.25;"
	data--5200-top="opacity:0.25;"
	data--5250-top="opacity:0;" opacity="0.25" fill="#3E0106" d="M156.76,3.26c-3.67,3.314-7.316,6.607-11.069,9.995l-1.449,1.384v-1.963h-5.034v6.77
	l-1.94,1.853c-2.396,2.309-4.773,4.636-7.156,6.959c-0.132,0.128-0.254,0.267-0.465,0.49c2.751,0,5.353,0,8.014,0
	c0,7.189,0,14.343,0,21.494c12.767,0,25.472,0,38.217,0c0-7.181,0-14.322,0-21.499c2.643,0,5.242,0,7.843,0
	c0.021-0.042,0.044-0.083,0.065-0.125C174.787,20.173,165.786,11.729,156.76,3.26z"/>
<path  data-anchor-target="#section5"
	data--3900-top="opacity:0;"
	data--3950-top="opacity:0.25;"
	data--5150-top="opacity:0.25;"
	data--5200-top="opacity:0;" opacity="0.25" fill="#3E0106" d="M220.676,3.208c-3.67,3.314-7.316,6.606-11.068,9.995l-1.449,1.384v-1.963h-5.033v6.77
	l-1.939,1.853c-2.396,2.309-4.773,4.636-7.156,6.958c-0.133,0.128-0.254,0.267-0.465,0.49c2.752,0,5.353,0,8.014,0
	c0,7.189,0,14.343,0,21.493c12.768,0,25.472,0,38.218,0c0-7.181,0-14.321,0-21.499c2.642,0,5.242,0,7.842,0
	c0.022-0.042,0.044-0.083,0.065-0.125C238.704,20.122,229.703,11.677,220.676,3.208z"/>
<path data-anchor-target="#section5"
	data--3950-top="opacity:0;"
	data--4000-top="opacity:0.25;"
	data--5100-top="opacity:0.25;"
	data--5150-top="opacity:0;" opacity="0.25" fill="#3E0106" d="M284.593,3.208c-3.67,3.314-7.316,6.606-11.068,9.995l-1.449,1.384v-1.963h-5.033v6.77
	l-1.94,1.853c-2.396,2.309-4.773,4.636-7.155,6.958c-0.133,0.128-0.254,0.267-0.466,0.49c2.752,0,5.354,0,8.015,0
	c0,7.189,0,14.343,0,21.493c12.767,0,25.472,0,38.218,0c0-7.181,0-14.321,0-21.499c2.642,0,5.241,0,7.842,0
	c0.021-0.042,0.044-0.083,0.065-0.125C302.62,20.122,293.62,11.677,284.593,3.208z"/>
<g data-anchor-target="#section5"
	data--4000-top="opacity:0;"
	data--4050-top="opacity:0.5;"
	data--5050-top="opacity:0.5;"
	data--5100-top="opacity:0;" opacity="0.5" enable-background="new    ">
	<path fill="#450D06" d="M14.896,61.694h0.913l-0.627,1.683c-0.104,0.279-0.204,0.576-0.303,0.891s-0.188,0.62-0.264,0.913
		c-0.077,0.293-0.138,0.561-0.182,0.803s-0.066,0.422-0.066,0.539c0,0.213,0.069,0.319,0.209,0.319c0.103,0,0.251-0.106,0.445-0.319
		c0.194-0.212,0.413-0.488,0.655-0.825l0.285,0.231c-0.308,0.543-0.64,0.963-0.995,1.26s-0.698,0.445-1.028,0.445
		c-0.169,0-0.299-0.064-0.391-0.192s-0.138-0.339-0.138-0.632c0-0.066,0.002-0.143,0.006-0.231c0.004-0.088,0.013-0.206,0.027-0.352
		l-0.044-0.011c-0.11,0.206-0.24,0.395-0.391,0.566c-0.15,0.172-0.313,0.323-0.489,0.451s-0.359,0.228-0.55,0.297
		c-0.191,0.07-0.378,0.104-0.562,0.104c-0.374,0-0.665-0.141-0.874-0.423s-0.313-0.673-0.313-1.171c0-0.506,0.105-1.023,0.318-1.551
		c0.213-0.528,0.488-1.006,0.825-1.436c0.337-0.429,0.711-0.781,1.122-1.056c0.41-0.275,0.814-0.413,1.21-0.413
		c0.242,0,0.44,0.057,0.594,0.17c0.154,0.114,0.279,0.299,0.374,0.556L14.896,61.694z M13.763,62.156
		c-0.279,0-0.566,0.128-0.864,0.385c-0.297,0.257-0.566,0.578-0.808,0.962c-0.242,0.385-0.44,0.799-0.595,1.243
		c-0.153,0.444-0.23,0.856-0.23,1.237c0,0.264,0.055,0.475,0.165,0.632c0.109,0.158,0.26,0.237,0.451,0.237
		c0.168,0,0.344-0.068,0.527-0.204s0.361-0.315,0.533-0.539c0.173-0.224,0.336-0.479,0.49-0.765
		c0.153-0.286,0.289-0.581,0.406-0.885c0.118-0.304,0.21-0.603,0.275-0.896c0.066-0.293,0.099-0.557,0.099-0.792
		c0-0.19-0.04-0.341-0.12-0.451C14.012,62.211,13.901,62.156,13.763,62.156z"/>
	<path fill="#450D06" d="M18.239,66.842c0.117,0,0.271-0.083,0.462-0.248c0.19-0.165,0.392-0.385,0.604-0.66s0.42-0.589,0.622-0.94
		c0.201-0.352,0.372-0.719,0.511-1.1l0.814-2.2h1.023l-0.814,2.519c-0.117,0.367-0.217,0.68-0.297,0.94
		c-0.081,0.26-0.146,0.48-0.198,0.66s-0.088,0.326-0.11,0.44c-0.021,0.114-0.032,0.204-0.032,0.27c0,0.191,0.065,0.286,0.197,0.286
		c0.073,0,0.161-0.035,0.265-0.104c0.103-0.07,0.207-0.165,0.313-0.286s0.209-0.257,0.308-0.407c0.1-0.15,0.186-0.31,0.259-0.479
		l0.33,0.165c-0.096,0.242-0.22,0.479-0.374,0.709s-0.321,0.438-0.501,0.622c-0.18,0.184-0.368,0.33-0.566,0.44
		c-0.198,0.11-0.393,0.165-0.583,0.165c-0.228,0-0.381-0.081-0.462-0.242c-0.081-0.162-0.121-0.393-0.121-0.693
		c0-0.125,0.006-0.258,0.017-0.401s0.031-0.284,0.061-0.423l-0.033-0.033c-0.197,0.352-0.391,0.642-0.577,0.869
		c-0.188,0.228-0.368,0.411-0.545,0.55c-0.176,0.14-0.348,0.237-0.517,0.292c-0.169,0.055-0.334,0.083-0.495,0.083
		c-0.345,0-0.585-0.095-0.721-0.286c-0.136-0.191-0.203-0.425-0.203-0.704c0-0.308,0.059-0.647,0.176-1.018s0.242-0.721,0.374-1.051
		c0.132-0.33,0.244-0.608,0.336-0.836c0.091-0.227,0.165-0.418,0.22-0.572s0.095-0.279,0.121-0.374
		c0.025-0.095,0.038-0.172,0.038-0.231c0-0.029-0.005-0.057-0.017-0.083c-0.011-0.026-0.038-0.039-0.082-0.039
		c-0.096,0-0.233,0.084-0.413,0.253c-0.18,0.169-0.423,0.44-0.731,0.814l-0.285-0.154c0.109-0.213,0.249-0.425,0.418-0.638
		c0.168-0.212,0.348-0.403,0.539-0.572c0.19-0.169,0.388-0.304,0.594-0.407c0.205-0.103,0.396-0.154,0.571-0.154
		c0.367,0,0.551,0.213,0.551,0.638c0,0.256-0.072,0.588-0.215,0.995c-0.143,0.407-0.328,0.893-0.556,1.458
		c-0.146,0.359-0.268,0.682-0.362,0.968c-0.096,0.286-0.144,0.546-0.144,0.781c0,0.154,0.022,0.262,0.066,0.325
		S18.173,66.842,18.239,66.842z"/>
	<path fill="#450D06" d="M29.712,65.753c-0.308,0.609-0.665,1.074-1.072,1.397s-0.841,0.484-1.304,0.484
		c-0.477,0-0.857-0.163-1.144-0.489s-0.429-0.761-0.429-1.304c0-0.322,0.047-0.652,0.143-0.99s0.224-0.664,0.385-0.979
		s0.353-0.612,0.572-0.891s0.455-0.521,0.704-0.726c0.249-0.205,0.508-0.369,0.775-0.489c0.268-0.121,0.53-0.182,0.786-0.182
		c0.353,0,0.642,0.095,0.869,0.286c0.228,0.19,0.342,0.429,0.342,0.715c0,0.184-0.054,0.332-0.16,0.445
		c-0.106,0.114-0.244,0.17-0.412,0.17c-0.169,0-0.307-0.053-0.413-0.159s-0.159-0.237-0.159-0.391c0-0.095,0.015-0.172,0.044-0.231
		s0.044-0.114,0.044-0.165c0-0.103-0.088-0.154-0.264-0.154c-0.242,0-0.488,0.114-0.737,0.341c-0.249,0.228-0.475,0.521-0.677,0.88
		c-0.201,0.359-0.366,0.761-0.494,1.205c-0.129,0.444-0.193,0.886-0.193,1.326c0,0.352,0.068,0.629,0.204,0.831
		s0.324,0.302,0.566,0.302c0.132,0,0.27-0.037,0.412-0.11c0.144-0.073,0.288-0.174,0.435-0.303c0.146-0.128,0.288-0.28,0.424-0.457
		c0.136-0.176,0.259-0.37,0.368-0.583L29.712,65.753z"/>
	<path fill="#450D06" d="M32.517,67.634c-0.249,0-0.481-0.049-0.698-0.148c-0.216-0.099-0.405-0.244-0.566-0.435
		c-0.161-0.19-0.29-0.423-0.385-0.698c-0.096-0.275-0.144-0.585-0.144-0.93c0-0.477,0.09-0.946,0.27-1.408
		c0.18-0.462,0.416-0.873,0.71-1.232c0.293-0.359,0.629-0.649,1.006-0.869c0.378-0.22,0.769-0.33,1.172-0.33
		c0.264,0,0.508,0.049,0.731,0.148s0.414,0.242,0.572,0.429c0.157,0.187,0.282,0.411,0.374,0.671s0.138,0.548,0.138,0.863
		c0,0.462-0.092,0.928-0.275,1.397c-0.184,0.47-0.424,0.891-0.721,1.265s-0.636,0.68-1.018,0.918
		C33.302,67.515,32.913,67.634,32.517,67.634z M32.583,67.084c0.249,0,0.497-0.128,0.742-0.385c0.246-0.256,0.466-0.581,0.66-0.973
		c0.194-0.393,0.353-0.82,0.473-1.282c0.121-0.462,0.182-0.902,0.182-1.32c0-0.389-0.067-0.656-0.203-0.803
		c-0.136-0.146-0.321-0.22-0.556-0.22c-0.161,0-0.324,0.057-0.489,0.17s-0.321,0.27-0.468,0.467
		c-0.146,0.198-0.284,0.426-0.412,0.682c-0.129,0.257-0.24,0.528-0.336,0.814c-0.095,0.286-0.169,0.578-0.22,0.875
		c-0.052,0.297-0.077,0.582-0.077,0.853c0,0.411,0.066,0.7,0.198,0.869C32.209,67,32.378,67.084,32.583,67.084z"/>
	<path fill="#450D06" d="M38.072,66.842c0.117,0,0.271-0.083,0.462-0.248c0.19-0.165,0.392-0.385,0.604-0.66s0.42-0.589,0.622-0.94
		c0.201-0.352,0.372-0.719,0.511-1.1l0.814-2.2h1.023l-0.814,2.519c-0.117,0.367-0.217,0.68-0.297,0.94
		c-0.081,0.26-0.146,0.48-0.198,0.66s-0.088,0.326-0.11,0.44c-0.021,0.114-0.032,0.204-0.032,0.27c0,0.191,0.065,0.286,0.197,0.286
		c0.073,0,0.161-0.035,0.265-0.104c0.103-0.07,0.207-0.165,0.313-0.286s0.209-0.257,0.308-0.407c0.1-0.15,0.186-0.31,0.259-0.479
		l0.33,0.165c-0.096,0.242-0.22,0.479-0.374,0.709s-0.321,0.438-0.501,0.622c-0.18,0.184-0.368,0.33-0.566,0.44
		c-0.198,0.11-0.393,0.165-0.583,0.165c-0.228,0-0.381-0.081-0.462-0.242c-0.081-0.162-0.121-0.393-0.121-0.693
		c0-0.125,0.006-0.258,0.017-0.401s0.031-0.284,0.061-0.423l-0.033-0.033c-0.197,0.352-0.391,0.642-0.577,0.869
		c-0.188,0.228-0.368,0.411-0.545,0.55c-0.176,0.14-0.348,0.237-0.517,0.292c-0.169,0.055-0.334,0.083-0.495,0.083
		c-0.345,0-0.585-0.095-0.721-0.286c-0.136-0.191-0.203-0.425-0.203-0.704c0-0.308,0.059-0.647,0.176-1.018s0.242-0.721,0.374-1.051
		c0.132-0.33,0.244-0.608,0.336-0.836c0.091-0.227,0.165-0.418,0.22-0.572s0.095-0.279,0.121-0.374
		c0.025-0.095,0.038-0.172,0.038-0.231c0-0.029-0.005-0.057-0.017-0.083c-0.011-0.026-0.038-0.039-0.082-0.039
		c-0.096,0-0.233,0.084-0.413,0.253c-0.18,0.169-0.423,0.44-0.731,0.814l-0.285-0.154c0.109-0.213,0.249-0.425,0.418-0.638
		c0.168-0.212,0.348-0.403,0.539-0.572c0.19-0.169,0.388-0.304,0.594-0.407c0.205-0.103,0.396-0.154,0.571-0.154
		c0.367,0,0.551,0.213,0.551,0.638c0,0.256-0.072,0.588-0.215,0.995c-0.143,0.407-0.328,0.893-0.556,1.458
		c-0.146,0.359-0.268,0.682-0.362,0.968c-0.096,0.286-0.144,0.546-0.144,0.781c0,0.154,0.022,0.262,0.066,0.325
		S38.006,66.842,38.072,66.842z"/>
	<path fill="#450D06" d="M42.968,63.224c0.08-0.184,0.203-0.373,0.368-0.567c0.165-0.194,0.345-0.37,0.539-0.528
		s0.391-0.288,0.588-0.391c0.198-0.103,0.371-0.154,0.518-0.154c0.176,0,0.304,0.066,0.385,0.198
		c0.081,0.132,0.121,0.345,0.121,0.638c0,0.117-0.006,0.231-0.017,0.341c-0.011,0.11-0.031,0.239-0.061,0.385l0.033,0.033
		c0.088-0.212,0.213-0.421,0.374-0.627c0.161-0.205,0.335-0.387,0.522-0.544c0.187-0.158,0.378-0.286,0.572-0.385
		c0.194-0.099,0.375-0.148,0.544-0.148c0.213,0,0.391,0.068,0.534,0.203c0.143,0.136,0.214,0.303,0.214,0.5
		c0,0.191-0.061,0.349-0.182,0.473c-0.121,0.125-0.276,0.187-0.467,0.187c-0.118,0-0.211-0.022-0.281-0.066
		c-0.069-0.044-0.13-0.09-0.181-0.138c-0.052-0.047-0.1-0.093-0.144-0.137s-0.099-0.066-0.165-0.066c-0.14,0-0.301,0.093-0.483,0.28
		c-0.184,0.187-0.374,0.442-0.572,0.765s-0.395,0.7-0.589,1.133s-0.372,0.898-0.533,1.397l-0.495,1.518h-1.023l0.716-2.277
		c0.139-0.44,0.254-0.805,0.346-1.095c0.092-0.29,0.163-0.532,0.215-0.726c0.052-0.194,0.086-0.346,0.104-0.457
		c0.019-0.11,0.027-0.205,0.027-0.286c0-0.161-0.055-0.242-0.165-0.242c-0.073,0-0.163,0.029-0.27,0.088
		c-0.106,0.059-0.211,0.132-0.313,0.22s-0.199,0.187-0.291,0.297s-0.16,0.216-0.204,0.319L42.968,63.224z"/>
	<path fill="#450D06" d="M48.676,63.268c0-0.242,0.046-0.466,0.138-0.671c0.092-0.205,0.218-0.383,0.38-0.533
		c0.161-0.15,0.354-0.268,0.577-0.352s0.468-0.126,0.731-0.126c0.353,0,0.646,0.088,0.88,0.264c0.235,0.176,0.353,0.403,0.353,0.682
		c0,0.154-0.043,0.275-0.127,0.363c-0.084,0.088-0.2,0.132-0.347,0.132c-0.168,0-0.289-0.049-0.362-0.148s-0.136-0.209-0.188-0.33
		c-0.051-0.121-0.106-0.233-0.165-0.335s-0.157-0.154-0.297-0.154c-0.161,0-0.297,0.069-0.407,0.209
		c-0.109,0.139-0.165,0.312-0.165,0.517c0,0.242,0.072,0.468,0.215,0.677s0.303,0.427,0.479,0.654
		c0.176,0.228,0.336,0.477,0.479,0.748c0.143,0.271,0.215,0.59,0.215,0.957c0,0.25-0.054,0.484-0.16,0.704s-0.249,0.413-0.429,0.578
		s-0.387,0.295-0.621,0.39c-0.235,0.095-0.478,0.143-0.727,0.143c-0.439,0-0.79-0.095-1.051-0.286c-0.26-0.191-0.39-0.44-0.39-0.748
		c0-0.213,0.049-0.38,0.148-0.5c0.099-0.121,0.232-0.182,0.401-0.182c0.315,0,0.495,0.216,0.539,0.649
		c0.021,0.235,0.061,0.391,0.115,0.468c0.055,0.077,0.167,0.115,0.336,0.115c0.264,0,0.473-0.079,0.627-0.236
		c0.153-0.158,0.23-0.376,0.23-0.655c0-0.293-0.073-0.554-0.22-0.781c-0.146-0.228-0.309-0.449-0.484-0.666
		s-0.337-0.446-0.483-0.688C48.749,63.883,48.676,63.598,48.676,63.268z"/>
	<path fill="#450D06" d="M60.193,59.913c0.059-0.198,0.103-0.363,0.132-0.495s0.044-0.227,0.044-0.286
		c0-0.11-0.073-0.187-0.221-0.231c-0.146-0.044-0.41-0.066-0.792-0.066l0.121-0.44h2.123L60.38,62.85
		c-0.154,0.572-0.282,1.06-0.385,1.463s-0.186,0.742-0.248,1.018c-0.063,0.275-0.104,0.5-0.126,0.676
		c-0.022,0.176-0.033,0.323-0.033,0.44c0,0.169,0.025,0.286,0.077,0.352c0.051,0.066,0.117,0.099,0.198,0.099
		c0.161,0,0.335-0.136,0.522-0.407c0.187-0.271,0.354-0.627,0.5-1.067l0.418,0.099c-0.249,0.726-0.522,1.259-0.819,1.601
		c-0.297,0.341-0.633,0.511-1.007,0.511c-0.264,0-0.467-0.084-0.61-0.253c-0.143-0.168-0.214-0.411-0.214-0.726
		c0-0.081,0.007-0.165,0.021-0.253s0.033-0.172,0.055-0.253l-0.088-0.022c-0.278,0.484-0.615,0.856-1.012,1.117
		c-0.396,0.26-0.773,0.39-1.133,0.39c-0.191,0-0.367-0.042-0.528-0.126c-0.161-0.084-0.301-0.202-0.418-0.352
		c-0.117-0.15-0.211-0.33-0.28-0.539c-0.07-0.209-0.104-0.441-0.104-0.698c0-0.315,0.05-0.644,0.148-0.984
		c0.099-0.341,0.234-0.671,0.407-0.99c0.172-0.319,0.372-0.622,0.6-0.907c0.227-0.286,0.467-0.537,0.72-0.754
		c0.253-0.216,0.514-0.387,0.781-0.511s0.53-0.187,0.787-0.187c0.249,0,0.438,0.048,0.566,0.143
		c0.128,0.095,0.254,0.246,0.379,0.451L60.193,59.913z M58.686,62.167c-0.19,0-0.383,0.061-0.577,0.182
		c-0.194,0.121-0.383,0.282-0.566,0.484s-0.354,0.435-0.512,0.698c-0.157,0.264-0.295,0.539-0.412,0.825s-0.211,0.576-0.28,0.869
		c-0.07,0.293-0.104,0.568-0.104,0.825c0,0.264,0.065,0.475,0.197,0.633s0.309,0.236,0.528,0.236c0.169,0,0.341-0.068,0.517-0.204
		c0.177-0.136,0.349-0.313,0.518-0.533c0.168-0.22,0.328-0.471,0.479-0.754c0.15-0.282,0.282-0.572,0.396-0.869
		c0.114-0.297,0.204-0.59,0.27-0.88c0.066-0.29,0.1-0.551,0.1-0.786c0-0.228-0.044-0.405-0.133-0.534
		C59.016,62.232,58.877,62.167,58.686,62.167z"/>
	<path fill="#450D06" d="M65.704,66.062c-0.638,1.049-1.423,1.573-2.354,1.573c-0.506,0-0.895-0.156-1.166-0.467
		c-0.271-0.312-0.406-0.753-0.406-1.326c0-0.506,0.104-1.012,0.313-1.518c0.209-0.506,0.481-0.962,0.819-1.369
		c0.337-0.407,0.715-0.737,1.133-0.99s0.836-0.379,1.254-0.379c0.353,0,0.64,0.09,0.863,0.27s0.336,0.409,0.336,0.688
		c0,0.257-0.096,0.521-0.286,0.792s-0.449,0.528-0.775,0.77c-0.326,0.242-0.708,0.462-1.144,0.66
		c-0.437,0.198-0.9,0.352-1.392,0.462c-0.016,0.103-0.026,0.203-0.033,0.302c-0.008,0.099-0.011,0.2-0.011,0.303
		c0,0.799,0.282,1.199,0.847,1.199c0.271,0,0.552-0.106,0.842-0.319c0.289-0.212,0.559-0.506,0.808-0.88L65.704,66.062z
		 M65.077,62.102c-0.19,0-0.389,0.073-0.594,0.22c-0.206,0.147-0.401,0.343-0.589,0.589c-0.187,0.246-0.357,0.526-0.512,0.841
		c-0.153,0.315-0.278,0.642-0.374,0.979c0.353-0.095,0.679-0.22,0.979-0.374s0.559-0.328,0.775-0.522
		c0.216-0.194,0.387-0.4,0.512-0.616c0.124-0.216,0.187-0.435,0.187-0.654C65.462,62.255,65.334,62.102,65.077,62.102z"/>
	<path fill="#450D06" d="M71.676,59.923c0.037-0.132,0.073-0.266,0.11-0.401c0.036-0.136,0.055-0.236,0.055-0.303
		c0-0.256-0.278-0.385-0.836-0.385l0.088-0.33l2.014-0.099l-1.97,7.227c-0.059,0.198-0.103,0.373-0.132,0.522
		c-0.029,0.15-0.044,0.277-0.044,0.379c0,0.066,0.019,0.125,0.055,0.176c0.037,0.051,0.096,0.077,0.177,0.077
		c0.117,0,0.242-0.05,0.374-0.149c0.132-0.099,0.258-0.216,0.379-0.352s0.229-0.275,0.325-0.418
		c0.095-0.143,0.165-0.255,0.209-0.336l0.33,0.187c-0.11,0.25-0.254,0.49-0.43,0.721s-0.363,0.435-0.561,0.61
		c-0.198,0.176-0.398,0.317-0.6,0.424c-0.202,0.106-0.387,0.159-0.556,0.159c-0.257,0-0.445-0.055-0.566-0.165
		c-0.121-0.11-0.182-0.293-0.182-0.55c0-0.146,0.022-0.345,0.066-0.594c0.044-0.249,0.121-0.59,0.23-1.023L71.676,59.923z"/>
	<path fill="#450D06" d="M77.892,61.694h0.913l-0.627,1.683c-0.104,0.279-0.204,0.576-0.303,0.891s-0.188,0.62-0.264,0.913
		c-0.077,0.293-0.138,0.561-0.182,0.803s-0.066,0.422-0.066,0.539c0,0.213,0.069,0.319,0.209,0.319c0.103,0,0.251-0.106,0.445-0.319
		c0.194-0.212,0.413-0.488,0.655-0.825l0.285,0.231c-0.308,0.543-0.64,0.963-0.995,1.26s-0.698,0.445-1.028,0.445
		c-0.169,0-0.299-0.064-0.391-0.192s-0.138-0.339-0.138-0.632c0-0.066,0.002-0.143,0.006-0.231c0.004-0.088,0.013-0.206,0.027-0.352
		l-0.044-0.011c-0.11,0.206-0.24,0.395-0.391,0.566c-0.15,0.172-0.313,0.323-0.489,0.451s-0.359,0.228-0.55,0.297
		c-0.191,0.07-0.378,0.104-0.562,0.104c-0.374,0-0.665-0.141-0.874-0.423s-0.313-0.673-0.313-1.171c0-0.506,0.105-1.023,0.318-1.551
		c0.213-0.528,0.488-1.006,0.825-1.436c0.337-0.429,0.711-0.781,1.122-1.056c0.41-0.275,0.814-0.413,1.21-0.413
		c0.242,0,0.44,0.057,0.594,0.17c0.154,0.114,0.279,0.299,0.374,0.556L77.892,61.694z M76.759,62.156
		c-0.279,0-0.566,0.128-0.864,0.385c-0.297,0.257-0.566,0.578-0.808,0.962c-0.242,0.385-0.44,0.799-0.595,1.243
		c-0.153,0.444-0.23,0.856-0.23,1.237c0,0.264,0.055,0.475,0.165,0.632c0.109,0.158,0.26,0.237,0.451,0.237
		c0.168,0,0.344-0.068,0.527-0.204s0.361-0.315,0.533-0.539c0.173-0.224,0.336-0.479,0.49-0.765
		c0.153-0.286,0.289-0.581,0.406-0.885c0.118-0.304,0.21-0.603,0.275-0.896c0.066-0.293,0.099-0.557,0.099-0.792
		c0-0.19-0.04-0.341-0.12-0.451C77.008,62.211,76.897,62.156,76.759,62.156z"/>
	<path fill="#450D06" d="M82.907,63.268c0-0.242,0.046-0.466,0.138-0.671c0.092-0.205,0.218-0.383,0.38-0.533
		c0.161-0.15,0.354-0.268,0.577-0.352s0.468-0.126,0.731-0.126c0.353,0,0.646,0.088,0.88,0.264c0.235,0.176,0.353,0.403,0.353,0.682
		c0,0.154-0.043,0.275-0.127,0.363c-0.084,0.088-0.2,0.132-0.347,0.132c-0.168,0-0.289-0.049-0.362-0.148s-0.136-0.209-0.188-0.33
		c-0.051-0.121-0.106-0.233-0.165-0.335s-0.157-0.154-0.297-0.154c-0.161,0-0.297,0.069-0.407,0.209
		c-0.109,0.139-0.165,0.312-0.165,0.517c0,0.242,0.072,0.468,0.215,0.677s0.303,0.427,0.479,0.654
		c0.176,0.228,0.336,0.477,0.479,0.748c0.143,0.271,0.215,0.59,0.215,0.957c0,0.25-0.054,0.484-0.16,0.704s-0.249,0.413-0.429,0.578
		s-0.387,0.295-0.621,0.39c-0.235,0.095-0.478,0.143-0.727,0.143c-0.439,0-0.79-0.095-1.051-0.286c-0.26-0.191-0.39-0.44-0.39-0.748
		c0-0.213,0.049-0.38,0.148-0.5c0.099-0.121,0.232-0.182,0.401-0.182c0.315,0,0.495,0.216,0.539,0.649
		c0.021,0.235,0.061,0.391,0.115,0.468c0.055,0.077,0.167,0.115,0.336,0.115c0.264,0,0.473-0.079,0.627-0.236
		c0.153-0.158,0.23-0.376,0.23-0.655c0-0.293-0.073-0.554-0.22-0.781c-0.146-0.228-0.309-0.449-0.484-0.666
		s-0.337-0.446-0.483-0.688C82.98,63.883,82.907,63.598,82.907,63.268z"/>
	<path fill="#450D06" d="M87.692,63.895c0.103-0.286,0.176-0.517,0.22-0.693c0.044-0.176,0.065-0.315,0.065-0.418
		c0-0.103-0.016-0.17-0.049-0.203c-0.033-0.033-0.068-0.05-0.104-0.05c-0.081,0-0.169,0.039-0.265,0.116
		c-0.095,0.077-0.19,0.167-0.285,0.27c-0.096,0.103-0.181,0.205-0.254,0.308c-0.073,0.103-0.124,0.183-0.153,0.242l-0.319-0.198
		c0.088-0.162,0.211-0.341,0.368-0.539c0.158-0.198,0.336-0.381,0.534-0.55c0.198-0.168,0.403-0.31,0.616-0.423
		c0.212-0.114,0.414-0.17,0.604-0.17c0.184,0,0.32,0.053,0.412,0.16c0.092,0.106,0.138,0.299,0.138,0.577
		c0,0.213-0.064,0.499-0.192,0.858c-0.128,0.359-0.295,0.822-0.5,1.386l-0.407,1.111c-0.015,0.037-0.035,0.094-0.061,0.17
		c-0.025,0.077-0.052,0.158-0.077,0.242c-0.025,0.084-0.048,0.167-0.066,0.248c-0.018,0.081-0.027,0.147-0.027,0.198
		c0,0.066,0.019,0.125,0.056,0.176c0.036,0.051,0.095,0.077,0.176,0.077c0.11,0,0.224-0.046,0.341-0.138s0.231-0.2,0.341-0.325
		c0.11-0.125,0.209-0.251,0.297-0.379c0.088-0.128,0.154-0.229,0.198-0.302l0.33,0.187c-0.088,0.176-0.207,0.37-0.357,0.583
		c-0.15,0.212-0.321,0.409-0.512,0.588s-0.399,0.33-0.627,0.451c-0.228,0.121-0.462,0.181-0.704,0.181
		c-0.213,0-0.372-0.055-0.479-0.165c-0.106-0.11-0.159-0.293-0.159-0.55c0-0.212,0.034-0.442,0.104-0.688
		c0.069-0.246,0.171-0.556,0.303-0.93L87.692,63.895z M89.309,59.78c-0.183,0-0.343-0.062-0.479-0.187
		c-0.136-0.125-0.203-0.286-0.203-0.484c0-0.198,0.066-0.367,0.198-0.506s0.293-0.209,0.483-0.209c0.206,0,0.374,0.07,0.507,0.209
		c0.132,0.139,0.197,0.304,0.197,0.495c0,0.19-0.069,0.352-0.209,0.484C89.665,59.714,89.5,59.78,89.309,59.78z"/>
	<path fill="#450D06" d="M92.62,62.607l-0.913,3.025c-0.125,0.396-0.19,0.697-0.198,0.902c0,0.066,0.017,0.125,0.05,0.176
		s0.09,0.077,0.171,0.077c0.132,0,0.271-0.05,0.418-0.149c0.146-0.099,0.287-0.216,0.423-0.352s0.257-0.275,0.363-0.418
		c0.106-0.143,0.186-0.255,0.236-0.336l0.319,0.187c-0.125,0.25-0.282,0.49-0.473,0.721c-0.191,0.231-0.393,0.435-0.605,0.61
		c-0.213,0.176-0.428,0.317-0.644,0.424c-0.217,0.106-0.412,0.159-0.589,0.159c-0.256,0-0.441-0.055-0.555-0.165
		c-0.114-0.11-0.171-0.293-0.171-0.55c0-0.146,0.025-0.345,0.077-0.594c0.051-0.249,0.139-0.59,0.264-1.023l0.814-2.695h-0.946
		l0.143-0.506h0.957l0.572-1.892h1.012l-0.571,1.892h1.199l-0.154,0.506H92.62z"/>
	<path fill="#450D06" d="M95.909,66.842c0.117,0,0.271-0.083,0.462-0.248c0.19-0.165,0.392-0.385,0.604-0.66s0.42-0.589,0.622-0.94
		c0.201-0.352,0.372-0.719,0.511-1.1l0.814-2.2h1.023l-0.814,2.519c-0.117,0.367-0.217,0.68-0.297,0.94
		c-0.081,0.26-0.146,0.48-0.198,0.66s-0.088,0.326-0.11,0.44c-0.021,0.114-0.032,0.204-0.032,0.27c0,0.191,0.065,0.286,0.197,0.286
		c0.073,0,0.161-0.035,0.265-0.104c0.103-0.07,0.207-0.165,0.313-0.286s0.209-0.257,0.308-0.407c0.1-0.15,0.186-0.31,0.259-0.479
		l0.33,0.165c-0.096,0.242-0.22,0.479-0.374,0.709s-0.321,0.438-0.501,0.622c-0.18,0.184-0.368,0.33-0.566,0.44
		c-0.198,0.11-0.393,0.165-0.583,0.165c-0.228,0-0.381-0.081-0.462-0.242c-0.081-0.162-0.121-0.393-0.121-0.693
		c0-0.125,0.006-0.258,0.017-0.401s0.031-0.284,0.061-0.423l-0.033-0.033c-0.197,0.352-0.391,0.642-0.577,0.869
		c-0.188,0.228-0.368,0.411-0.545,0.55c-0.176,0.14-0.348,0.237-0.517,0.292c-0.169,0.055-0.334,0.083-0.495,0.083
		c-0.345,0-0.585-0.095-0.721-0.286c-0.136-0.191-0.203-0.425-0.203-0.704c0-0.308,0.059-0.647,0.176-1.018s0.242-0.721,0.374-1.051
		c0.132-0.33,0.244-0.608,0.336-0.836c0.091-0.227,0.165-0.418,0.22-0.572s0.095-0.279,0.121-0.374
		c0.025-0.095,0.038-0.172,0.038-0.231c0-0.029-0.005-0.057-0.017-0.083c-0.011-0.026-0.038-0.039-0.082-0.039
		c-0.096,0-0.233,0.084-0.413,0.253c-0.18,0.169-0.423,0.44-0.731,0.814l-0.285-0.154c0.109-0.213,0.249-0.425,0.418-0.638
		c0.168-0.212,0.348-0.403,0.539-0.572c0.19-0.169,0.388-0.304,0.594-0.407c0.205-0.103,0.396-0.154,0.571-0.154
		c0.367,0,0.551,0.213,0.551,0.638c0,0.256-0.072,0.588-0.215,0.995c-0.143,0.407-0.328,0.893-0.556,1.458
		c-0.146,0.359-0.268,0.682-0.362,0.968c-0.096,0.286-0.144,0.546-0.144,0.781c0,0.154,0.022,0.262,0.066,0.325
		S95.843,66.842,95.909,66.842z"/>
	<path fill="#450D06" d="M105.358,61.694h0.913l-0.627,1.683c-0.104,0.279-0.204,0.576-0.303,0.891s-0.188,0.62-0.264,0.913
		c-0.077,0.293-0.138,0.561-0.182,0.803s-0.066,0.422-0.066,0.539c0,0.213,0.069,0.319,0.209,0.319c0.103,0,0.251-0.106,0.445-0.319
		c0.194-0.212,0.413-0.488,0.655-0.825l0.285,0.231c-0.308,0.543-0.64,0.963-0.995,1.26s-0.698,0.445-1.028,0.445
		c-0.169,0-0.299-0.064-0.391-0.192s-0.138-0.339-0.138-0.632c0-0.066,0.002-0.143,0.006-0.231c0.004-0.088,0.013-0.206,0.027-0.352
		l-0.044-0.011c-0.11,0.206-0.24,0.395-0.391,0.566c-0.15,0.172-0.313,0.323-0.489,0.451s-0.359,0.228-0.55,0.297
		c-0.191,0.07-0.378,0.104-0.562,0.104c-0.374,0-0.665-0.141-0.874-0.423s-0.313-0.673-0.313-1.171c0-0.506,0.105-1.023,0.318-1.551
		c0.213-0.528,0.488-1.006,0.825-1.436c0.337-0.429,0.711-0.781,1.122-1.056c0.41-0.275,0.814-0.413,1.21-0.413
		c0.242,0,0.44,0.057,0.594,0.17c0.154,0.114,0.279,0.299,0.374,0.556L105.358,61.694z M104.226,62.156
		c-0.279,0-0.566,0.128-0.864,0.385c-0.297,0.257-0.566,0.578-0.808,0.962c-0.242,0.385-0.44,0.799-0.595,1.243
		c-0.153,0.444-0.23,0.856-0.23,1.237c0,0.264,0.055,0.475,0.165,0.632c0.109,0.158,0.26,0.237,0.451,0.237
		c0.168,0,0.344-0.068,0.527-0.204s0.361-0.315,0.533-0.539c0.173-0.224,0.336-0.479,0.49-0.765
		c0.153-0.286,0.289-0.581,0.406-0.885c0.118-0.304,0.21-0.603,0.275-0.896c0.066-0.293,0.099-0.557,0.099-0.792
		c0-0.19-0.04-0.341-0.12-0.451C104.475,62.211,104.364,62.156,104.226,62.156z"/>
	<path fill="#450D06" d="M109.428,62.607l-0.913,3.025c-0.125,0.396-0.19,0.697-0.198,0.902c0,0.066,0.017,0.125,0.05,0.176
		s0.09,0.077,0.171,0.077c0.132,0,0.271-0.05,0.418-0.149c0.146-0.099,0.287-0.216,0.423-0.352s0.257-0.275,0.363-0.418
		c0.106-0.143,0.186-0.255,0.236-0.336l0.319,0.187c-0.125,0.25-0.282,0.49-0.473,0.721c-0.191,0.231-0.393,0.435-0.605,0.61
		c-0.213,0.176-0.428,0.317-0.644,0.424c-0.217,0.106-0.412,0.159-0.589,0.159c-0.256,0-0.441-0.055-0.555-0.165
		c-0.114-0.11-0.171-0.293-0.171-0.55c0-0.146,0.025-0.345,0.077-0.594c0.051-0.249,0.139-0.59,0.264-1.023l0.814-2.695h-0.946
		l0.143-0.506h0.957l0.572-1.892h1.012l-0.571,1.892h1.199l-0.154,0.506H109.428z"/>
	<path fill="#450D06" d="M112.299,63.895c0.103-0.286,0.176-0.517,0.22-0.693c0.044-0.176,0.065-0.315,0.065-0.418
		c0-0.103-0.016-0.17-0.049-0.203c-0.033-0.033-0.068-0.05-0.104-0.05c-0.081,0-0.169,0.039-0.265,0.116
		c-0.095,0.077-0.19,0.167-0.285,0.27c-0.096,0.103-0.181,0.205-0.254,0.308c-0.073,0.103-0.124,0.183-0.153,0.242l-0.319-0.198
		c0.088-0.162,0.211-0.341,0.368-0.539c0.158-0.198,0.336-0.381,0.534-0.55c0.198-0.168,0.403-0.31,0.616-0.423
		c0.212-0.114,0.414-0.17,0.604-0.17c0.184,0,0.32,0.053,0.412,0.16c0.092,0.106,0.138,0.299,0.138,0.577
		c0,0.213-0.064,0.499-0.192,0.858c-0.128,0.359-0.295,0.822-0.5,1.386l-0.407,1.111c-0.015,0.037-0.035,0.094-0.061,0.17
		c-0.025,0.077-0.052,0.158-0.077,0.242c-0.025,0.084-0.048,0.167-0.066,0.248c-0.018,0.081-0.027,0.147-0.027,0.198
		c0,0.066,0.019,0.125,0.056,0.176c0.036,0.051,0.095,0.077,0.176,0.077c0.11,0,0.224-0.046,0.341-0.138s0.231-0.2,0.341-0.325
		c0.11-0.125,0.209-0.251,0.297-0.379c0.088-0.128,0.154-0.229,0.198-0.302l0.33,0.187c-0.088,0.176-0.207,0.37-0.357,0.583
		c-0.15,0.212-0.321,0.409-0.512,0.588s-0.399,0.33-0.627,0.451c-0.228,0.121-0.462,0.181-0.704,0.181
		c-0.213,0-0.372-0.055-0.479-0.165c-0.106-0.11-0.159-0.293-0.159-0.55c0-0.212,0.034-0.442,0.104-0.688
		c0.069-0.246,0.171-0.556,0.303-0.93L112.299,63.895z M113.915,59.78c-0.183,0-0.343-0.062-0.479-0.187
		c-0.136-0.125-0.203-0.286-0.203-0.484c0-0.198,0.066-0.367,0.198-0.506s0.293-0.209,0.483-0.209c0.206,0,0.374,0.07,0.507,0.209
		c0.132,0.139,0.197,0.304,0.197,0.495c0,0.19-0.069,0.352-0.209,0.484C114.271,59.714,114.106,59.78,113.915,59.78z"/>
	<path fill="#450D06" d="M116.698,67.634c-0.249,0-0.481-0.049-0.698-0.148c-0.216-0.099-0.405-0.244-0.566-0.435
		c-0.161-0.19-0.29-0.423-0.385-0.698c-0.096-0.275-0.144-0.585-0.144-0.93c0-0.477,0.09-0.946,0.27-1.408
		c0.18-0.462,0.416-0.873,0.71-1.232c0.293-0.359,0.629-0.649,1.006-0.869c0.378-0.22,0.769-0.33,1.172-0.33
		c0.264,0,0.508,0.049,0.731,0.148s0.414,0.242,0.572,0.429c0.157,0.187,0.282,0.411,0.374,0.671s0.138,0.548,0.138,0.863
		c0,0.462-0.092,0.928-0.275,1.397c-0.184,0.47-0.424,0.891-0.721,1.265s-0.636,0.68-1.018,0.918
		C117.483,67.515,117.095,67.634,116.698,67.634z M116.765,67.084c0.249,0,0.497-0.128,0.742-0.385
		c0.246-0.256,0.466-0.581,0.66-0.973c0.194-0.393,0.353-0.82,0.473-1.282c0.121-0.462,0.182-0.902,0.182-1.32
		c0-0.389-0.067-0.656-0.203-0.803c-0.136-0.146-0.321-0.22-0.556-0.22c-0.161,0-0.324,0.057-0.489,0.17s-0.321,0.27-0.468,0.467
		c-0.146,0.198-0.284,0.426-0.412,0.682c-0.129,0.257-0.24,0.528-0.336,0.814c-0.095,0.286-0.169,0.578-0.22,0.875
		c-0.052,0.297-0.077,0.582-0.077,0.853c0,0.411,0.066,0.7,0.198,0.869C116.391,67,116.56,67.084,116.765,67.084z"/>
	<path fill="#450D06" d="M125.069,62.156c-0.176,0-0.376,0.09-0.6,0.27s-0.451,0.418-0.682,0.715
		c-0.231,0.297-0.453,0.636-0.666,1.017c-0.212,0.382-0.392,0.77-0.538,1.166l-0.814,2.2h-0.968l0.813-2.519
		c0.132-0.403,0.242-0.748,0.33-1.034c0.088-0.286,0.16-0.526,0.215-0.72s0.094-0.352,0.115-0.473
		c0.022-0.121,0.033-0.218,0.033-0.292c0-0.198-0.063-0.297-0.188-0.297c-0.08,0-0.176,0.051-0.285,0.154
		c-0.11,0.103-0.223,0.237-0.336,0.402s-0.222,0.354-0.324,0.566c-0.104,0.213-0.191,0.429-0.265,0.649l-0.33-0.165
		c0.257-0.755,0.545-1.313,0.864-1.672c0.318-0.359,0.684-0.539,1.094-0.539c0.235,0,0.402,0.066,0.501,0.198
		c0.099,0.132,0.148,0.356,0.148,0.671c0,0.374-0.063,0.708-0.187,1.001l0.032,0.033c0.374-0.66,0.754-1.142,1.139-1.446
		s0.805-0.457,1.26-0.457c0.322,0,0.568,0.077,0.737,0.231c0.168,0.154,0.253,0.374,0.253,0.66c0,0.095-0.01,0.202-0.027,0.319
		c-0.019,0.117-0.05,0.258-0.094,0.423s-0.104,0.361-0.182,0.589c-0.077,0.227-0.171,0.506-0.28,0.836
		c-0.169,0.499-0.309,0.917-0.418,1.254c-0.11,0.337-0.165,0.576-0.165,0.715c0,0.11,0.036,0.165,0.109,0.165
		c0.103,0,0.253-0.084,0.451-0.253c0.198-0.168,0.466-0.44,0.803-0.814l0.286,0.154c-0.117,0.22-0.27,0.435-0.456,0.644
		c-0.188,0.209-0.382,0.398-0.583,0.566c-0.202,0.169-0.401,0.305-0.6,0.407s-0.37,0.154-0.517,0.154
		c-0.184,0-0.329-0.081-0.435-0.242c-0.106-0.162-0.16-0.374-0.16-0.638c0-0.103,0.01-0.207,0.027-0.313
		c0.019-0.106,0.058-0.258,0.116-0.457c0.059-0.198,0.145-0.464,0.258-0.797c0.114-0.333,0.27-0.775,0.468-1.326
		c0.066-0.19,0.121-0.352,0.165-0.484s0.079-0.248,0.104-0.347c0.025-0.099,0.044-0.185,0.055-0.258
		c0.012-0.073,0.017-0.143,0.017-0.209C125.366,62.292,125.268,62.156,125.069,62.156z"/>
	<path fill="#450D06" d="M135.146,59.913c0.059-0.198,0.103-0.363,0.132-0.495s0.044-0.227,0.044-0.286
		c0-0.11-0.073-0.187-0.221-0.231c-0.146-0.044-0.41-0.066-0.792-0.066l0.121-0.44h2.123l-1.221,4.455
		c-0.154,0.572-0.282,1.06-0.385,1.463s-0.186,0.742-0.248,1.018c-0.063,0.275-0.104,0.5-0.126,0.676
		c-0.022,0.176-0.033,0.323-0.033,0.44c0,0.169,0.025,0.286,0.077,0.352c0.051,0.066,0.117,0.099,0.198,0.099
		c0.161,0,0.335-0.136,0.522-0.407c0.187-0.271,0.354-0.627,0.5-1.067l0.418,0.099c-0.249,0.726-0.522,1.259-0.819,1.601
		c-0.297,0.341-0.633,0.511-1.007,0.511c-0.264,0-0.467-0.084-0.61-0.253c-0.143-0.168-0.214-0.411-0.214-0.726
		c0-0.081,0.007-0.165,0.021-0.253s0.033-0.172,0.055-0.253l-0.088-0.022c-0.278,0.484-0.615,0.856-1.012,1.117
		c-0.396,0.26-0.773,0.39-1.133,0.39c-0.191,0-0.367-0.042-0.528-0.126c-0.161-0.084-0.301-0.202-0.418-0.352
		c-0.117-0.15-0.211-0.33-0.28-0.539c-0.07-0.209-0.104-0.441-0.104-0.698c0-0.315,0.05-0.644,0.148-0.984
		c0.099-0.341,0.234-0.671,0.407-0.99c0.172-0.319,0.372-0.622,0.6-0.907c0.227-0.286,0.467-0.537,0.72-0.754
		c0.253-0.216,0.514-0.387,0.781-0.511s0.53-0.187,0.787-0.187c0.249,0,0.438,0.048,0.566,0.143
		c0.128,0.095,0.254,0.246,0.379,0.451L135.146,59.913z M133.639,62.167c-0.19,0-0.383,0.061-0.577,0.182
		c-0.194,0.121-0.383,0.282-0.566,0.484s-0.354,0.435-0.512,0.698c-0.157,0.264-0.295,0.539-0.412,0.825s-0.211,0.576-0.28,0.869
		c-0.07,0.293-0.104,0.568-0.104,0.825c0,0.264,0.065,0.475,0.197,0.633s0.309,0.236,0.528,0.236c0.169,0,0.341-0.068,0.517-0.204
		c0.177-0.136,0.349-0.313,0.518-0.533c0.168-0.22,0.328-0.471,0.479-0.754c0.15-0.282,0.282-0.572,0.396-0.869
		c0.114-0.297,0.204-0.59,0.27-0.88c0.066-0.29,0.1-0.551,0.1-0.786c0-0.228-0.044-0.405-0.133-0.534
		C133.969,62.232,133.83,62.167,133.639,62.167z"/>
	<path fill="#450D06" d="M137.852,61.079c0.411-0.257,0.717-0.5,0.919-0.732c0.201-0.231,0.343-0.485,0.423-0.764
		c-0.103,0.059-0.22,0.088-0.352,0.088c-0.146,0-0.257-0.039-0.33-0.116c-0.073-0.077-0.11-0.181-0.11-0.313
		c0-0.117,0.027-0.229,0.083-0.335c0.055-0.106,0.126-0.196,0.214-0.27c0.088-0.073,0.189-0.132,0.303-0.176
		s0.232-0.066,0.357-0.066c0.382,0,0.572,0.194,0.572,0.583c0,0.242-0.035,0.464-0.104,0.666c-0.07,0.202-0.182,0.396-0.336,0.583
		c-0.153,0.187-0.352,0.374-0.594,0.561s-0.531,0.383-0.869,0.588L137.852,61.079z"/>
	<path fill="#450D06" d="M140.833,66.842c0.117,0,0.271-0.083,0.462-0.248c0.19-0.165,0.392-0.385,0.604-0.66s0.42-0.589,0.622-0.94
		c0.201-0.352,0.372-0.719,0.511-1.1l0.814-2.2h1.023l-0.814,2.519c-0.117,0.367-0.217,0.68-0.297,0.94
		c-0.081,0.26-0.146,0.48-0.198,0.66s-0.088,0.326-0.11,0.44c-0.021,0.114-0.032,0.204-0.032,0.27c0,0.191,0.065,0.286,0.197,0.286
		c0.073,0,0.161-0.035,0.265-0.104c0.103-0.07,0.207-0.165,0.313-0.286s0.209-0.257,0.308-0.407c0.1-0.15,0.186-0.31,0.259-0.479
		l0.33,0.165c-0.096,0.242-0.22,0.479-0.374,0.709s-0.321,0.438-0.501,0.622c-0.18,0.184-0.368,0.33-0.566,0.44
		c-0.198,0.11-0.393,0.165-0.583,0.165c-0.228,0-0.381-0.081-0.462-0.242c-0.081-0.162-0.121-0.393-0.121-0.693
		c0-0.125,0.006-0.258,0.017-0.401s0.031-0.284,0.061-0.423l-0.033-0.033c-0.197,0.352-0.391,0.642-0.577,0.869
		c-0.188,0.228-0.368,0.411-0.545,0.55c-0.176,0.14-0.348,0.237-0.517,0.292c-0.169,0.055-0.334,0.083-0.495,0.083
		c-0.345,0-0.585-0.095-0.721-0.286c-0.136-0.191-0.203-0.425-0.203-0.704c0-0.308,0.059-0.647,0.176-1.018s0.242-0.721,0.374-1.051
		c0.132-0.33,0.244-0.608,0.336-0.836c0.091-0.227,0.165-0.418,0.22-0.572s0.095-0.279,0.121-0.374
		c0.025-0.095,0.038-0.172,0.038-0.231c0-0.029-0.005-0.057-0.017-0.083c-0.011-0.026-0.038-0.039-0.082-0.039
		c-0.096,0-0.233,0.084-0.413,0.253c-0.18,0.169-0.423,0.44-0.731,0.814l-0.285-0.154c0.109-0.213,0.249-0.425,0.418-0.638
		c0.168-0.212,0.348-0.403,0.539-0.572c0.19-0.169,0.388-0.304,0.594-0.407c0.205-0.103,0.396-0.154,0.571-0.154
		c0.367,0,0.551,0.213,0.551,0.638c0,0.256-0.072,0.588-0.215,0.995c-0.143,0.407-0.328,0.893-0.556,1.458
		c-0.146,0.359-0.268,0.682-0.362,0.968c-0.096,0.286-0.144,0.546-0.144,0.781c0,0.154,0.022,0.262,0.066,0.325
		S140.767,66.842,140.833,66.842z"/>
	<path fill="#450D06" d="M145.729,63.224c0.08-0.184,0.203-0.373,0.368-0.567c0.165-0.194,0.345-0.37,0.539-0.528
		s0.391-0.288,0.588-0.391c0.198-0.103,0.371-0.154,0.518-0.154c0.176,0,0.304,0.066,0.385,0.198
		c0.081,0.132,0.121,0.345,0.121,0.638c0,0.117-0.006,0.231-0.017,0.341c-0.011,0.11-0.031,0.239-0.061,0.385l0.033,0.033
		c0.088-0.212,0.213-0.421,0.374-0.627c0.161-0.205,0.335-0.387,0.522-0.544c0.187-0.158,0.378-0.286,0.572-0.385
		c0.194-0.099,0.375-0.148,0.544-0.148c0.213,0,0.391,0.068,0.534,0.203c0.143,0.136,0.214,0.303,0.214,0.5
		c0,0.191-0.061,0.349-0.182,0.473c-0.121,0.125-0.276,0.187-0.467,0.187c-0.118,0-0.211-0.022-0.281-0.066
		c-0.069-0.044-0.13-0.09-0.181-0.138c-0.052-0.047-0.1-0.093-0.144-0.137s-0.099-0.066-0.165-0.066c-0.14,0-0.301,0.093-0.483,0.28
		c-0.184,0.187-0.374,0.442-0.572,0.765s-0.395,0.7-0.589,1.133s-0.372,0.898-0.533,1.397l-0.495,1.518h-1.023l0.716-2.277
		c0.139-0.44,0.254-0.805,0.346-1.095c0.092-0.29,0.163-0.532,0.215-0.726c0.052-0.194,0.086-0.346,0.104-0.457
		c0.019-0.11,0.027-0.205,0.027-0.286c0-0.161-0.055-0.242-0.165-0.242c-0.073,0-0.163,0.029-0.27,0.088
		c-0.106,0.059-0.211,0.132-0.313,0.22s-0.199,0.187-0.291,0.297s-0.16,0.216-0.204,0.319L145.729,63.224z"/>
	<path fill="#450D06" d="M155.375,68.328c0,0.315-0.068,0.599-0.204,0.852c-0.136,0.253-0.329,0.469-0.583,0.649
		c-0.253,0.179-0.559,0.317-0.918,0.412s-0.763,0.143-1.21,0.143c-0.403,0-0.771-0.037-1.101-0.11
		c-0.329-0.073-0.614-0.18-0.852-0.319c-0.238-0.14-0.422-0.303-0.551-0.49c-0.128-0.187-0.192-0.398-0.192-0.632
		c0-0.301,0.098-0.55,0.292-0.748c0.194-0.198,0.441-0.297,0.742-0.297c0.088,0,0.172,0.011,0.253,0.033s0.184,0.063,0.308,0.121
		c-0.41,0.168-0.615,0.488-0.615,0.957c0,0.308,0.155,0.55,0.467,0.726c0.313,0.176,0.739,0.264,1.282,0.264
		c0.293,0,0.564-0.033,0.813-0.099s0.464-0.15,0.644-0.253c0.18-0.103,0.319-0.218,0.418-0.347c0.1-0.128,0.148-0.255,0.148-0.379
		c0-0.206-0.123-0.391-0.368-0.556c-0.246-0.165-0.593-0.288-1.04-0.369c-0.799-0.139-1.386-0.301-1.76-0.484
		s-0.561-0.44-0.561-0.77c0-0.212,0.093-0.392,0.28-0.539c0.187-0.146,0.522-0.293,1.007-0.44l0.021-0.044
		c-0.558-0.396-0.836-0.906-0.836-1.529c0-0.337,0.069-0.658,0.209-0.962c0.14-0.305,0.328-0.572,0.566-0.803
		s0.518-0.413,0.836-0.544c0.319-0.132,0.654-0.198,1.007-0.198c0.543,0,0.997,0.198,1.364,0.594
		c0.345-0.389,0.678-0.583,1.001-0.583c0.234,0,0.439,0.071,0.615,0.214c0.177,0.143,0.265,0.31,0.265,0.5
		c0,0.147-0.05,0.27-0.148,0.369c-0.1,0.099-0.222,0.148-0.369,0.148c-0.109,0-0.196-0.024-0.258-0.071
		c-0.063-0.048-0.116-0.101-0.16-0.16s-0.093-0.112-0.148-0.16c-0.055-0.047-0.13-0.071-0.226-0.071
		c-0.051,0-0.099,0.009-0.143,0.027c-0.044,0.019-0.125,0.068-0.242,0.148c0.037,0.103,0.063,0.2,0.077,0.292
		c0.015,0.092,0.022,0.208,0.022,0.347c0,0.807-0.225,1.45-0.672,1.931c-0.447,0.48-1.063,0.75-1.848,0.808
		c-0.352,0.03-0.604,0.074-0.754,0.132s-0.225,0.146-0.225,0.264c0,0.154,0.082,0.27,0.247,0.347s0.372,0.141,0.621,0.192
		c0.25,0.052,0.518,0.103,0.804,0.154s0.554,0.126,0.803,0.225c0.249,0.099,0.456,0.235,0.621,0.407S155.375,68.034,155.375,68.328z
		 M153.064,65.423c0.177,0,0.349-0.069,0.518-0.209c0.168-0.139,0.32-0.324,0.456-0.556c0.136-0.231,0.244-0.493,0.325-0.786
		c0.08-0.293,0.12-0.594,0.12-0.902c0-0.293-0.065-0.526-0.197-0.698s-0.305-0.259-0.518-0.259c-0.169,0-0.341,0.076-0.517,0.226
		c-0.176,0.15-0.336,0.343-0.479,0.578c-0.144,0.235-0.259,0.5-0.347,0.797c-0.088,0.297-0.132,0.589-0.132,0.875
		c0,0.279,0.069,0.504,0.209,0.677C152.643,65.337,152.83,65.423,153.064,65.423z"/>
	<path fill="#450D06" d="M160.72,66.062c-0.637,1.049-1.422,1.573-2.354,1.573c-0.506,0-0.895-0.156-1.167-0.467
		c-0.271-0.312-0.406-0.753-0.406-1.326c0-0.506,0.104-1.012,0.313-1.518c0.209-0.506,0.482-0.962,0.82-1.369
		c0.336-0.407,0.715-0.737,1.133-0.99s0.836-0.379,1.254-0.379c0.352,0,0.639,0.09,0.863,0.27c0.223,0.18,0.336,0.409,0.336,0.688
		c0,0.257-0.096,0.521-0.287,0.792c-0.189,0.271-0.449,0.528-0.775,0.77c-0.326,0.242-0.707,0.462-1.143,0.66
		c-0.438,0.198-0.9,0.352-1.393,0.462c-0.016,0.103-0.025,0.203-0.033,0.302s-0.01,0.2-0.01,0.303c0,0.799,0.281,1.199,0.846,1.199
		c0.271,0,0.553-0.106,0.842-0.319c0.289-0.212,0.559-0.506,0.809-0.88L160.72,66.062z M160.093,62.102
		c-0.189,0-0.389,0.073-0.594,0.22c-0.205,0.147-0.4,0.343-0.588,0.589c-0.188,0.246-0.357,0.526-0.512,0.841
		s-0.279,0.642-0.375,0.979c0.354-0.095,0.68-0.22,0.98-0.374s0.559-0.328,0.775-0.522c0.215-0.194,0.387-0.4,0.512-0.616
		c0.123-0.216,0.186-0.435,0.186-0.654C160.478,62.255,160.351,62.102,160.093,62.102z"/>
	<path fill="#450D06" d="M166.33,62.156c-0.176,0-0.375,0.09-0.6,0.27c-0.223,0.18-0.451,0.418-0.682,0.715
		c-0.23,0.297-0.453,0.636-0.666,1.017c-0.211,0.382-0.391,0.77-0.537,1.166l-0.814,2.2h-0.969l0.814-2.519
		c0.131-0.403,0.242-0.748,0.33-1.034c0.088-0.286,0.16-0.526,0.215-0.72s0.094-0.352,0.115-0.473s0.033-0.218,0.033-0.292
		c0-0.198-0.063-0.297-0.188-0.297c-0.08,0-0.176,0.051-0.285,0.154c-0.111,0.103-0.223,0.237-0.336,0.402s-0.223,0.354-0.324,0.566
		c-0.104,0.213-0.191,0.429-0.266,0.649l-0.33-0.165c0.258-0.755,0.545-1.313,0.865-1.672c0.318-0.359,0.684-0.539,1.094-0.539
		c0.234,0,0.402,0.066,0.5,0.198c0.1,0.132,0.148,0.356,0.148,0.671c0,0.374-0.063,0.708-0.186,1.001l0.031,0.033
		c0.375-0.66,0.754-1.142,1.139-1.446s0.805-0.457,1.26-0.457c0.322,0,0.568,0.077,0.738,0.231c0.168,0.154,0.252,0.374,0.252,0.66
		c0,0.095-0.01,0.202-0.027,0.319s-0.049,0.258-0.094,0.423c-0.043,0.165-0.104,0.361-0.182,0.589
		c-0.076,0.227-0.17,0.506-0.279,0.836c-0.17,0.499-0.309,0.917-0.418,1.254c-0.111,0.337-0.166,0.576-0.166,0.715
		c0,0.11,0.037,0.165,0.109,0.165c0.104,0,0.254-0.084,0.451-0.253c0.199-0.168,0.467-0.44,0.803-0.814l0.287,0.154
		c-0.117,0.22-0.27,0.435-0.457,0.644s-0.381,0.398-0.582,0.566c-0.203,0.169-0.402,0.305-0.6,0.407
		c-0.199,0.103-0.371,0.154-0.518,0.154c-0.184,0-0.328-0.081-0.434-0.242c-0.107-0.162-0.16-0.374-0.16-0.638
		c0-0.103,0.01-0.207,0.027-0.313s0.057-0.258,0.115-0.457c0.059-0.198,0.145-0.464,0.258-0.797c0.115-0.333,0.27-0.775,0.469-1.326
		c0.066-0.19,0.121-0.352,0.164-0.484c0.045-0.132,0.08-0.248,0.105-0.347c0.025-0.099,0.043-0.185,0.055-0.258
		s0.016-0.143,0.016-0.209C166.626,62.292,166.529,62.156,166.33,62.156z"/>
	<path fill="#450D06" d="M172.656,65.753c-0.309,0.609-0.666,1.074-1.072,1.397c-0.408,0.323-0.842,0.484-1.305,0.484
		c-0.477,0-0.857-0.163-1.143-0.489c-0.287-0.326-0.43-0.761-0.43-1.304c0-0.322,0.047-0.652,0.143-0.99s0.225-0.664,0.385-0.979
		c0.162-0.315,0.354-0.612,0.572-0.891c0.221-0.279,0.455-0.521,0.705-0.726c0.248-0.205,0.508-0.369,0.775-0.489
		c0.268-0.121,0.529-0.182,0.785-0.182c0.354,0,0.643,0.095,0.869,0.286c0.229,0.19,0.342,0.429,0.342,0.715
		c0,0.184-0.053,0.332-0.16,0.445c-0.105,0.114-0.244,0.17-0.412,0.17s-0.307-0.053-0.412-0.159c-0.107-0.106-0.16-0.237-0.16-0.391
		c0-0.095,0.016-0.172,0.045-0.231s0.043-0.114,0.043-0.165c0-0.103-0.088-0.154-0.264-0.154c-0.242,0-0.488,0.114-0.736,0.341
		c-0.25,0.228-0.475,0.521-0.678,0.88c-0.201,0.359-0.365,0.761-0.494,1.205c-0.129,0.444-0.193,0.886-0.193,1.326
		c0,0.352,0.068,0.629,0.205,0.831c0.135,0.202,0.324,0.302,0.566,0.302c0.131,0,0.27-0.037,0.412-0.11s0.287-0.174,0.434-0.303
		c0.146-0.128,0.289-0.28,0.424-0.457c0.137-0.176,0.26-0.37,0.369-0.583L172.656,65.753z"/>
	<path fill="#450D06" d="M177.484,66.062c-0.637,1.049-1.422,1.573-2.354,1.573c-0.506,0-0.895-0.156-1.166-0.467
		s-0.406-0.753-0.406-1.326c0-0.506,0.104-1.012,0.313-1.518c0.209-0.506,0.482-0.962,0.82-1.369
		c0.336-0.407,0.715-0.737,1.133-0.99s0.836-0.379,1.254-0.379c0.352,0,0.639,0.09,0.863,0.27c0.223,0.18,0.336,0.409,0.336,0.688
		c0,0.257-0.096,0.521-0.287,0.792c-0.189,0.271-0.449,0.528-0.775,0.77c-0.326,0.242-0.707,0.462-1.143,0.66
		c-0.438,0.198-0.9,0.352-1.393,0.462c-0.016,0.103-0.025,0.203-0.033,0.302s-0.01,0.2-0.01,0.303c0,0.799,0.281,1.199,0.846,1.199
		c0.271,0,0.553-0.106,0.842-0.319c0.289-0.212,0.559-0.506,0.809-0.88L177.484,66.062z M176.857,62.102
		c-0.189,0-0.389,0.073-0.594,0.22c-0.205,0.147-0.4,0.343-0.588,0.589c-0.188,0.246-0.357,0.526-0.512,0.841
		s-0.279,0.642-0.375,0.979c0.354-0.095,0.68-0.22,0.98-0.374s0.559-0.328,0.775-0.522c0.215-0.194,0.387-0.4,0.512-0.616
		c0.123-0.216,0.186-0.435,0.186-0.654C177.242,62.255,177.115,62.102,176.857,62.102z"/>
	
</g>
<g  data-anchor-target="#section5"
	data--4050-top="opacity:0;"
	data--4100-top="opacity:0.5;"
	data--5000-top="opacity:0.5;"
	data--5050-top="opacity:0;">
	<path  fill="#3E0106" d="M22.808,107.841c0,0.283,0.021,0.566,0.064,0.842c0.4,2.588,2.644,4.563,5.298,4.738v-11.158
		C25.181,102.456,22.808,104.88,22.808,107.841z"/>
	<path  fill="#3E0106" d="M15.203,94.354v-2.211h-5.033v6.955h0.063l-0.835,0.799l-0.292,0.281
		c-2.396,2.311-4.774,4.637-7.156,6.959c-0.132,0.129-0.254,0.268-0.465,0.49c2.752,0,5.353,0,8.015,0c0,7.189,0,14.344,0,21.494
		c6.235,0,12.455,0,18.672,0v-7.904h-0.597v-2.457h-2.009v-1.91h2.009v-1.566c-3.354-0.424-6.126-2.998-6.639-6.316
		c-0.057-0.371-0.086-0.75-0.086-1.127c0-4.014,3.252-7.291,7.322-7.488V82.524c-3.527,3.185-7.036,6.354-10.643,9.611
		L15.203,94.354z"/>
</g>
<path   data-anchor-target="#section5"
	data--4100-top="opacity:0;"
	data--4150-top="opacity:0.25;"
	data--4950-top="opacity:0.25;"
	data--5000-top="opacity:0;" opacity="0.25" fill="#3E0106" d="M28.936,82.46v17.893v1.91v11.156v7.799v7.904c6.258,0,12.513,0,18.779,0
	c0-7.182,0-14.322,0-21.5c2.641,0,5.241,0,7.841,0c0.021-0.041,0.044-0.082,0.066-0.123C46.735,99.159,37.848,90.821,28.936,82.46z"
	/>
<path   data-anchor-target="#section5"
	data--4150-top="opacity:0;"
	data--4200-top="opacity:0.25;"
	data--4900-top="opacity:0.25;"
	data--4950-top="opacity:0;" opacity="0.25" fill="#3E0106" d="M92.843,82.024c-3.67,3.315-7.315,6.607-11.068,9.996l-1.449,1.384V91.44h-5.033v6.771
	l-1.939,1.852c-2.396,2.311-4.774,4.637-7.156,6.959c-0.132,0.129-0.254,0.268-0.465,0.49c2.752,0,5.353,0,8.015,0
	c0,7.189,0,14.342,0,21.494c12.766,0,25.471,0,38.218,0c0-7.182,0-14.322,0-21.498c2.641,0,5.241,0,7.841,0
	c0.022-0.043,0.043-0.084,0.065-0.125C110.87,98.938,101.87,90.493,92.843,82.024z"/>
<path   data-anchor-target="#section5"
	data--4200-top="opacity:0;"
	data--4250-top="opacity:0.25;"
	data--4850-top="opacity:0.25;"
	data--4900-top="opacity:0;" opacity="0.25" fill="#3E0106" d="M156.76,82.024c-3.67,3.315-7.316,6.607-11.069,9.996l-1.449,1.384V91.44h-5.034v6.771
	l-1.94,1.852c-2.396,2.311-4.773,4.637-7.156,6.959c-0.132,0.129-0.254,0.268-0.465,0.49c2.751,0,5.353,0,8.014,0
	c0,7.189,0,14.342,0,21.494c12.767,0,25.472,0,38.217,0c0-7.182,0-14.322,0-21.498c2.643,0,5.242,0,7.843,0
	c0.021-0.043,0.044-0.084,0.065-0.125C174.787,98.938,165.786,90.493,156.76,82.024z"/>
<path   data-anchor-target="#section5"
	data--4250-top="opacity:0;"
	data--4300-top="opacity:0.25;"
	data--4800-top="opacity:0.25;"
	data--4850-top="opacity:0;" opacity="0.25" fill="#3E0106" d="M220.676,82.024c-3.67,3.315-7.316,6.607-11.068,9.996l-1.449,1.384V91.44h-5.033v6.771
	l-1.939,1.852c-2.396,2.311-4.773,4.637-7.156,6.959c-0.133,0.129-0.254,0.268-0.465,0.49c2.752,0,5.353,0,8.014,0
	c0,7.189,0,14.342,0,21.494c12.768,0,25.472,0,38.218,0c0-7.182,0-14.322,0-21.498c2.642,0,5.242,0,7.842,0
	c0.022-0.043,0.044-0.084,0.065-0.125C238.704,98.938,229.703,90.493,220.676,82.024z"/>
<path data-anchor-target="#section5"
	data--4300-top="opacity:0;"
	data--4350-top="opacity:0.25;"
	data--4750-top="opacity:0.25;"
	data--4780-top="opacity:0;" opacity="0.25" fill="#3E0106" d="M284.593,82.024c-3.67,3.315-7.316,6.607-11.068,9.996l-1.449,1.384V91.44h-5.033v6.771
	l-1.94,1.852c-2.396,2.311-4.773,4.637-7.155,6.959c-0.133,0.129-0.254,0.268-0.466,0.49c2.752,0,5.354,0,8.015,0
	c0,7.189,0,14.342,0,21.494c12.767,0,25.472,0,38.218,0c0-7.182,0-14.322,0-21.498c2.642,0,5.241,0,7.842,0
	c0.021-0.043,0.044-0.084,0.065-0.125C302.62,98.938,293.62,90.493,284.593,82.024z"/>
<g data-anchor-target="#section5"
	data--4350-top="opacity:0;"
	data--4400-top="opacity:0.5;"
	data--4700-top="opacity:0.5;"
	data--4750-top="opacity:0;" opacity="0.5" enable-background="new    ">
	<path fill="#450D06" d="M15.322,144.777h0.913l-0.627,1.683c-0.104,0.278-0.204,0.575-0.303,0.892
		c-0.099,0.314-0.188,0.619-0.264,0.912c-0.077,0.293-0.138,0.561-0.182,0.803s-0.066,0.422-0.066,0.539
		c0,0.213,0.069,0.319,0.209,0.319c0.103,0,0.251-0.106,0.445-0.319c0.194-0.212,0.413-0.487,0.655-0.824l0.285,0.23
		c-0.308,0.543-0.64,0.963-0.995,1.26s-0.698,0.445-1.028,0.445c-0.169,0-0.299-0.064-0.391-0.192s-0.138-0.339-0.138-0.632
		c0-0.066,0.002-0.144,0.006-0.231c0.004-0.089,0.013-0.206,0.027-0.353l-0.044-0.011c-0.11,0.206-0.24,0.395-0.391,0.566
		c-0.15,0.173-0.313,0.323-0.489,0.451s-0.359,0.228-0.55,0.297c-0.191,0.069-0.378,0.104-0.562,0.104
		c-0.374,0-0.665-0.141-0.874-0.424c-0.209-0.281-0.313-0.672-0.313-1.171c0-0.507,0.105-1.022,0.318-1.552
		c0.213-0.527,0.488-1.006,0.825-1.436c0.337-0.428,0.711-0.78,1.122-1.055c0.41-0.275,0.814-0.413,1.21-0.413
		c0.242,0,0.44,0.057,0.594,0.171c0.154,0.113,0.279,0.299,0.374,0.555L15.322,144.777z M14.189,145.238
		c-0.279,0-0.566,0.129-0.864,0.386c-0.297,0.257-0.566,0.577-0.808,0.962c-0.242,0.385-0.44,0.8-0.595,1.244
		c-0.153,0.443-0.23,0.855-0.23,1.236c0,0.265,0.055,0.476,0.165,0.633c0.109,0.158,0.26,0.236,0.451,0.236
		c0.168,0,0.344-0.067,0.527-0.203s0.361-0.315,0.533-0.539c0.173-0.224,0.336-0.479,0.49-0.765
		c0.153-0.286,0.289-0.581,0.406-0.886c0.118-0.304,0.21-0.603,0.275-0.896c0.066-0.293,0.099-0.557,0.099-0.791
		c0-0.191-0.04-0.342-0.12-0.451C14.438,145.293,14.328,145.238,14.189,145.238z"/>
	<path fill="#450D06" d="M21.79,146.679c0-0.146-0.013-0.28-0.039-0.401c-0.025-0.121-0.055-0.236-0.088-0.347
		c-0.033-0.109-0.063-0.216-0.088-0.318c-0.025-0.104-0.038-0.209-0.038-0.319c0-0.418,0.19-0.627,0.571-0.627
		c0.228,0,0.391,0.081,0.49,0.241c0.099,0.162,0.148,0.43,0.148,0.804c0,0.389-0.048,0.782-0.144,1.183
		c-0.095,0.4-0.228,0.785-0.396,1.154c-0.169,0.371-0.367,0.717-0.595,1.04c-0.227,0.323-0.469,0.604-0.726,0.847
		s-0.522,0.434-0.798,0.572c-0.274,0.139-0.548,0.209-0.819,0.209c-0.198,0-0.383-0.039-0.556-0.115
		c-0.172-0.077-0.32-0.186-0.445-0.324c-0.125-0.14-0.222-0.305-0.291-0.496c-0.07-0.189-0.104-0.396-0.104-0.615
		c0-0.418,0.113-0.909,0.341-1.475c0.228-0.564,0.55-1.146,0.968-1.748l-0.021-0.033c-0.198,0-0.363-0.029-0.495-0.088
		s-0.244-0.125-0.336-0.198s-0.172-0.14-0.242-0.198c-0.069-0.059-0.141-0.088-0.214-0.088c-0.125,0-0.188,0.063-0.188,0.188
		c0,0.065,0.021,0.125,0.061,0.176s0.084,0.103,0.132,0.154c0.048,0.051,0.092,0.107,0.133,0.17c0.04,0.063,0.06,0.138,0.06,0.226
		c0,0.132-0.051,0.24-0.153,0.324c-0.103,0.085-0.235,0.127-0.396,0.127c-0.19,0-0.337-0.059-0.439-0.177
		c-0.104-0.117-0.154-0.281-0.154-0.494c0-0.184,0.037-0.357,0.11-0.523c0.073-0.164,0.172-0.309,0.297-0.434
		c0.124-0.125,0.27-0.225,0.435-0.297c0.165-0.074,0.339-0.11,0.522-0.11c0.146,0,0.271,0.024,0.374,0.071
		c0.103,0.048,0.197,0.104,0.286,0.165c0.088,0.063,0.174,0.118,0.258,0.165c0.085,0.048,0.186,0.072,0.303,0.072
		c0.14,0,0.264-0.056,0.374-0.166c0.154-0.139,0.259-0.225,0.313-0.258s0.127-0.05,0.215-0.05c0.146,0,0.22,0.063,0.22,0.187
		c0,0.029-0.004,0.055-0.011,0.078c-0.008,0.021-0.024,0.055-0.05,0.098c-0.025,0.045-0.069,0.104-0.132,0.177
		s-0.148,0.176-0.259,0.308c-0.169,0.205-0.322,0.437-0.462,0.693s-0.261,0.524-0.363,0.803c-0.103,0.279-0.183,0.56-0.241,0.842
		c-0.06,0.282-0.089,0.549-0.089,0.797c0,0.396,0.068,0.714,0.204,0.952s0.31,0.357,0.522,0.357c0.205,0,0.425-0.11,0.66-0.33
		c0.234-0.22,0.454-0.493,0.66-0.819c0.205-0.326,0.375-0.68,0.511-1.062S21.79,147.009,21.79,146.679z"/>
	<path fill="#450D06" d="M27.862,144.777h0.913l-0.627,1.683c-0.104,0.278-0.204,0.575-0.303,0.892
		c-0.099,0.314-0.188,0.619-0.264,0.912c-0.077,0.293-0.138,0.561-0.182,0.803s-0.066,0.422-0.066,0.539
		c0,0.213,0.069,0.319,0.209,0.319c0.103,0,0.251-0.106,0.445-0.319c0.194-0.212,0.413-0.487,0.655-0.824l0.285,0.23
		c-0.308,0.543-0.64,0.963-0.995,1.26s-0.698,0.445-1.028,0.445c-0.169,0-0.299-0.064-0.391-0.192s-0.138-0.339-0.138-0.632
		c0-0.066,0.002-0.144,0.006-0.231c0.004-0.089,0.013-0.206,0.027-0.353l-0.044-0.011c-0.11,0.206-0.24,0.395-0.391,0.566
		c-0.15,0.173-0.313,0.323-0.489,0.451s-0.359,0.228-0.55,0.297c-0.191,0.069-0.378,0.104-0.562,0.104
		c-0.374,0-0.665-0.141-0.874-0.424c-0.209-0.281-0.313-0.672-0.313-1.171c0-0.507,0.105-1.022,0.318-1.552
		c0.213-0.527,0.488-1.006,0.825-1.436c0.337-0.428,0.711-0.78,1.122-1.055c0.41-0.275,0.814-0.413,1.21-0.413
		c0.242,0,0.44,0.057,0.594,0.171c0.154,0.113,0.279,0.299,0.374,0.555L27.862,144.777z M26.729,145.238
		c-0.279,0-0.566,0.129-0.864,0.386c-0.297,0.257-0.566,0.577-0.808,0.962c-0.242,0.385-0.44,0.8-0.595,1.244
		c-0.153,0.443-0.23,0.855-0.23,1.236c0,0.265,0.055,0.476,0.165,0.633c0.109,0.158,0.26,0.236,0.451,0.236
		c0.168,0,0.344-0.067,0.527-0.203s0.361-0.315,0.533-0.539c0.173-0.224,0.336-0.479,0.49-0.765
		c0.153-0.286,0.289-0.581,0.406-0.886c0.118-0.304,0.21-0.603,0.275-0.896c0.066-0.293,0.099-0.557,0.099-0.791
		c0-0.191-0.04-0.342-0.12-0.451C26.979,145.293,26.868,145.238,26.729,145.238z"/>
	<path fill="#450D06" d="M34.021,145.238c-0.176,0-0.376,0.09-0.6,0.27s-0.451,0.418-0.682,0.716
		c-0.231,0.297-0.453,0.636-0.666,1.017c-0.212,0.383-0.392,0.771-0.538,1.166l-0.814,2.201h-0.968l0.813-2.52
		c0.132-0.403,0.242-0.748,0.33-1.034s0.16-0.526,0.215-0.72c0.055-0.195,0.094-0.353,0.115-0.474
		c0.022-0.121,0.033-0.218,0.033-0.292c0-0.197-0.063-0.297-0.188-0.297c-0.08,0-0.176,0.052-0.285,0.154
		c-0.11,0.104-0.223,0.236-0.336,0.402c-0.113,0.164-0.222,0.354-0.324,0.566c-0.104,0.213-0.191,0.428-0.265,0.648l-0.33-0.165
		c0.257-0.755,0.545-1.313,0.864-1.672c0.318-0.359,0.684-0.539,1.094-0.539c0.235,0,0.402,0.065,0.501,0.198
		c0.099,0.132,0.148,0.355,0.148,0.671c0,0.374-0.063,0.708-0.187,1.001l0.032,0.033c0.374-0.66,0.754-1.143,1.139-1.447
		c0.385-0.304,0.805-0.456,1.26-0.456c0.322,0,0.568,0.077,0.737,0.231c0.168,0.153,0.253,0.373,0.253,0.66
		c0,0.095-0.01,0.201-0.027,0.318c-0.019,0.117-0.05,0.258-0.094,0.424c-0.044,0.164-0.104,0.361-0.182,0.588
		c-0.077,0.228-0.171,0.506-0.28,0.836c-0.169,0.499-0.309,0.917-0.418,1.254c-0.11,0.338-0.165,0.576-0.165,0.715
		c0,0.11,0.036,0.166,0.109,0.166c0.103,0,0.253-0.084,0.451-0.254c0.198-0.168,0.466-0.439,0.803-0.813l0.286,0.153
		c-0.117,0.221-0.27,0.436-0.456,0.645c-0.188,0.209-0.382,0.397-0.583,0.566c-0.202,0.168-0.401,0.305-0.6,0.406
		c-0.198,0.104-0.37,0.154-0.517,0.154c-0.184,0-0.329-0.08-0.435-0.242c-0.106-0.161-0.16-0.373-0.16-0.638
		c0-0.103,0.01-0.207,0.027-0.313c0.019-0.106,0.058-0.258,0.116-0.457c0.059-0.197,0.145-0.463,0.258-0.797
		c0.114-0.334,0.27-0.775,0.468-1.326c0.066-0.189,0.121-0.352,0.165-0.483s0.079-0.247,0.104-0.347
		c0.025-0.099,0.044-0.186,0.055-0.258c0.012-0.074,0.017-0.144,0.017-0.209C34.318,145.375,34.22,145.238,34.021,145.238z"/>
	<path fill="#450D06" d="M38.829,145.689l-0.913,3.025c-0.125,0.396-0.19,0.697-0.198,0.902c0,0.066,0.017,0.125,0.05,0.176
		s0.09,0.077,0.171,0.077c0.132,0,0.271-0.05,0.418-0.149c0.146-0.098,0.287-0.215,0.423-0.352c0.136-0.135,0.257-0.275,0.363-0.418
		s0.186-0.254,0.236-0.336l0.319,0.188c-0.125,0.25-0.282,0.49-0.473,0.721c-0.191,0.23-0.393,0.435-0.605,0.61
		c-0.213,0.177-0.428,0.317-0.644,0.424c-0.217,0.106-0.412,0.159-0.589,0.159c-0.256,0-0.441-0.055-0.555-0.165
		c-0.114-0.11-0.171-0.293-0.171-0.55c0-0.146,0.025-0.345,0.077-0.594c0.051-0.25,0.139-0.59,0.264-1.023l0.814-2.695h-0.946
		l0.143-0.506h0.957l0.572-1.892h1.012l-0.571,1.892h1.199l-0.154,0.506H38.829z"/>
	<path fill="#450D06" d="M45.12,143.005c0.037-0.132,0.073-0.266,0.11-0.401c0.036-0.136,0.055-0.236,0.055-0.303
		c0-0.257-0.278-0.385-0.836-0.385l0.088-0.33l2.014-0.099l-1.97,7.227c-0.059,0.198-0.103,0.373-0.132,0.522
		c-0.029,0.15-0.044,0.276-0.044,0.38c0,0.066,0.019,0.125,0.055,0.176c0.037,0.051,0.096,0.077,0.177,0.077
		c0.117,0,0.242-0.05,0.374-0.149c0.132-0.098,0.258-0.215,0.379-0.352c0.121-0.135,0.229-0.275,0.325-0.418
		c0.095-0.143,0.165-0.254,0.209-0.336l0.33,0.188c-0.11,0.25-0.254,0.49-0.43,0.721s-0.363,0.435-0.561,0.61
		c-0.198,0.177-0.398,0.317-0.6,0.424c-0.202,0.106-0.387,0.159-0.556,0.159c-0.257,0-0.445-0.055-0.566-0.165
		s-0.182-0.293-0.182-0.55c0-0.146,0.022-0.345,0.066-0.594c0.044-0.25,0.121-0.59,0.23-1.023L45.12,143.005z"/>
	<path fill="#450D06" d="M51.336,144.777h0.913l-0.627,1.683c-0.104,0.278-0.204,0.575-0.303,0.892
		c-0.099,0.314-0.188,0.619-0.264,0.912c-0.077,0.293-0.138,0.561-0.182,0.803s-0.066,0.422-0.066,0.539
		c0,0.213,0.069,0.319,0.209,0.319c0.103,0,0.251-0.106,0.445-0.319c0.194-0.212,0.413-0.487,0.655-0.824l0.285,0.23
		c-0.308,0.543-0.64,0.963-0.995,1.26s-0.698,0.445-1.028,0.445c-0.169,0-0.299-0.064-0.391-0.192s-0.138-0.339-0.138-0.632
		c0-0.066,0.002-0.144,0.006-0.231c0.004-0.089,0.013-0.206,0.027-0.353l-0.044-0.011c-0.11,0.206-0.24,0.395-0.391,0.566
		c-0.15,0.173-0.313,0.323-0.489,0.451s-0.359,0.228-0.55,0.297c-0.191,0.069-0.378,0.104-0.562,0.104
		c-0.374,0-0.665-0.141-0.874-0.424c-0.209-0.281-0.313-0.672-0.313-1.171c0-0.507,0.105-1.022,0.318-1.552
		c0.213-0.527,0.488-1.006,0.825-1.436c0.337-0.428,0.711-0.78,1.122-1.055c0.41-0.275,0.814-0.413,1.21-0.413
		c0.242,0,0.44,0.057,0.594,0.171c0.154,0.113,0.279,0.299,0.374,0.555L51.336,144.777z M50.203,145.238
		c-0.279,0-0.566,0.129-0.864,0.386c-0.297,0.257-0.566,0.577-0.808,0.962c-0.242,0.385-0.44,0.8-0.595,1.244
		c-0.153,0.443-0.23,0.855-0.23,1.236c0,0.265,0.055,0.476,0.165,0.633c0.109,0.158,0.26,0.236,0.451,0.236
		c0.168,0,0.344-0.067,0.527-0.203s0.361-0.315,0.533-0.539c0.173-0.224,0.336-0.479,0.49-0.765
		c0.153-0.286,0.289-0.581,0.406-0.886c0.118-0.304,0.21-0.603,0.275-0.896c0.066-0.293,0.099-0.557,0.099-0.791
		c0-0.191-0.04-0.342-0.12-0.451C50.452,145.293,50.342,145.238,50.203,145.238z"/>
	<path fill="#450D06" d="M56.352,146.349c0-0.242,0.046-0.465,0.138-0.671c0.092-0.205,0.218-0.383,0.38-0.533
		c0.161-0.15,0.354-0.268,0.577-0.353c0.224-0.084,0.468-0.126,0.731-0.126c0.353,0,0.646,0.088,0.88,0.265
		c0.235,0.176,0.353,0.402,0.353,0.682c0,0.154-0.043,0.274-0.127,0.363c-0.084,0.088-0.2,0.131-0.347,0.131
		c-0.168,0-0.289-0.049-0.362-0.148c-0.073-0.099-0.136-0.209-0.188-0.33c-0.051-0.121-0.106-0.232-0.165-0.335
		s-0.157-0.153-0.297-0.153c-0.161,0-0.297,0.068-0.407,0.209c-0.109,0.139-0.165,0.311-0.165,0.516
		c0,0.242,0.072,0.469,0.215,0.678s0.303,0.427,0.479,0.654c0.176,0.227,0.336,0.477,0.479,0.748s0.215,0.59,0.215,0.957
		c0,0.249-0.054,0.483-0.16,0.703c-0.106,0.221-0.249,0.413-0.429,0.578s-0.387,0.295-0.621,0.391
		c-0.235,0.095-0.478,0.143-0.727,0.143c-0.439,0-0.79-0.096-1.051-0.285c-0.26-0.191-0.39-0.441-0.39-0.748
		c0-0.213,0.049-0.381,0.148-0.501c0.099-0.121,0.232-0.182,0.401-0.182c0.315,0,0.495,0.216,0.539,0.649
		c0.021,0.234,0.061,0.391,0.115,0.467c0.055,0.077,0.167,0.115,0.336,0.115c0.264,0,0.473-0.078,0.627-0.236
		c0.153-0.157,0.23-0.375,0.23-0.654c0-0.293-0.073-0.554-0.22-0.781c-0.146-0.227-0.309-0.449-0.484-0.665
		s-0.337-0.446-0.483-0.688C56.425,146.965,56.352,146.679,56.352,146.349z"/>
	<path fill="#450D06" d="M61.137,146.976c0.103-0.285,0.176-0.517,0.22-0.693c0.044-0.176,0.065-0.314,0.065-0.418
		c0-0.102-0.016-0.17-0.049-0.203s-0.068-0.049-0.104-0.049c-0.081,0-0.169,0.038-0.265,0.115c-0.095,0.077-0.19,0.167-0.285,0.27
		c-0.096,0.103-0.181,0.205-0.254,0.309c-0.073,0.102-0.124,0.183-0.153,0.241l-0.319-0.198c0.088-0.161,0.211-0.341,0.368-0.539
		c0.158-0.197,0.336-0.381,0.534-0.55s0.403-0.31,0.616-0.423c0.212-0.114,0.414-0.171,0.604-0.171c0.184,0,0.32,0.054,0.412,0.159
		c0.092,0.106,0.138,0.299,0.138,0.578c0,0.213-0.064,0.498-0.192,0.857s-0.295,0.822-0.5,1.387l-0.407,1.11
		c-0.015,0.037-0.035,0.094-0.061,0.171c-0.025,0.076-0.052,0.158-0.077,0.242s-0.048,0.166-0.066,0.247
		c-0.018,0.081-0.027,0.147-0.027,0.198c0,0.066,0.019,0.125,0.056,0.176c0.036,0.051,0.095,0.077,0.176,0.077
		c0.11,0,0.224-0.046,0.341-0.138s0.231-0.199,0.341-0.324c0.11-0.125,0.209-0.252,0.297-0.38s0.154-0.229,0.198-0.302l0.33,0.187
		c-0.088,0.176-0.207,0.37-0.357,0.583s-0.321,0.408-0.512,0.588s-0.399,0.33-0.627,0.451s-0.462,0.182-0.704,0.182
		c-0.213,0-0.372-0.055-0.479-0.165s-0.159-0.293-0.159-0.55c0-0.213,0.034-0.441,0.104-0.688c0.069-0.246,0.171-0.556,0.303-0.93
		L61.137,146.976z M62.753,142.863c-0.183,0-0.343-0.063-0.479-0.188s-0.203-0.285-0.203-0.484c0-0.197,0.066-0.366,0.198-0.506
		c0.132-0.139,0.293-0.209,0.483-0.209c0.206,0,0.374,0.07,0.507,0.209c0.132,0.14,0.197,0.305,0.197,0.496
		c0,0.189-0.069,0.352-0.209,0.483C63.109,142.796,62.944,142.863,62.753,142.863z"/>
	<path fill="#450D06" d="M66.064,145.689l-0.913,3.025c-0.125,0.396-0.19,0.697-0.198,0.902c0,0.066,0.017,0.125,0.05,0.176
		s0.09,0.077,0.171,0.077c0.132,0,0.271-0.05,0.418-0.149c0.146-0.098,0.287-0.215,0.423-0.352c0.136-0.135,0.257-0.275,0.363-0.418
		s0.186-0.254,0.236-0.336l0.319,0.188c-0.125,0.25-0.282,0.49-0.473,0.721c-0.191,0.23-0.393,0.435-0.605,0.61
		c-0.213,0.177-0.428,0.317-0.644,0.424c-0.217,0.106-0.412,0.159-0.589,0.159c-0.256,0-0.441-0.055-0.555-0.165
		c-0.114-0.11-0.171-0.293-0.171-0.55c0-0.146,0.025-0.345,0.077-0.594c0.051-0.25,0.139-0.59,0.264-1.023l0.814-2.695h-0.946
		l0.143-0.506h0.957l0.572-1.892h1.012l-0.571,1.892h1.199l-0.154,0.506H66.064z"/>
	<path fill="#450D06" d="M69.354,149.924c0.117,0,0.271-0.083,0.462-0.247c0.19-0.166,0.392-0.385,0.604-0.66s0.42-0.589,0.622-0.94
		c0.201-0.353,0.372-0.719,0.511-1.101l0.814-2.199h1.023l-0.814,2.519c-0.117,0.366-0.217,0.681-0.297,0.94
		c-0.081,0.26-0.146,0.48-0.198,0.66s-0.088,0.326-0.11,0.439c-0.021,0.114-0.032,0.204-0.032,0.27c0,0.191,0.065,0.287,0.197,0.287
		c0.073,0,0.161-0.035,0.265-0.105c0.103-0.069,0.207-0.164,0.313-0.285s0.209-0.258,0.308-0.408c0.1-0.149,0.186-0.309,0.259-0.479
		l0.33,0.166c-0.096,0.242-0.22,0.479-0.374,0.709s-0.321,0.438-0.501,0.621c-0.18,0.184-0.368,0.33-0.566,0.44
		s-0.393,0.165-0.583,0.165c-0.228,0-0.381-0.08-0.462-0.242c-0.081-0.161-0.121-0.393-0.121-0.693c0-0.124,0.006-0.258,0.017-0.4
		c0.011-0.144,0.031-0.285,0.061-0.424l-0.033-0.033c-0.197,0.352-0.391,0.643-0.577,0.869c-0.188,0.228-0.368,0.41-0.545,0.55
		c-0.176,0.14-0.348,0.237-0.517,0.292s-0.334,0.082-0.495,0.082c-0.345,0-0.585-0.096-0.721-0.285
		c-0.136-0.191-0.203-0.426-0.203-0.705c0-0.308,0.059-0.646,0.176-1.018c0.117-0.369,0.242-0.721,0.374-1.051
		c0.132-0.329,0.244-0.607,0.336-0.836c0.091-0.227,0.165-0.418,0.22-0.571s0.095-0.278,0.121-0.374
		c0.025-0.096,0.038-0.172,0.038-0.23c0-0.029-0.005-0.057-0.017-0.083c-0.011-0.026-0.038-0.038-0.082-0.038
		c-0.096,0-0.233,0.084-0.413,0.252c-0.18,0.17-0.423,0.44-0.731,0.814l-0.285-0.154c0.109-0.213,0.249-0.425,0.418-0.638
		c0.168-0.212,0.348-0.403,0.539-0.571c0.19-0.17,0.388-0.305,0.594-0.408c0.205-0.102,0.396-0.153,0.571-0.153
		c0.367,0,0.551,0.213,0.551,0.638c0,0.257-0.072,0.589-0.215,0.996c-0.143,0.406-0.328,0.893-0.556,1.457
		c-0.146,0.359-0.268,0.682-0.362,0.969c-0.096,0.285-0.144,0.546-0.144,0.78c0,0.154,0.022,0.263,0.066,0.325
		S69.287,149.924,69.354,149.924z"/>
	<path fill="#450D06" d="M78.803,144.777h0.913l-0.627,1.683c-0.104,0.278-0.204,0.575-0.303,0.892
		c-0.099,0.314-0.188,0.619-0.264,0.912c-0.077,0.293-0.138,0.561-0.182,0.803s-0.066,0.422-0.066,0.539
		c0,0.213,0.069,0.319,0.209,0.319c0.103,0,0.251-0.106,0.445-0.319c0.194-0.212,0.413-0.487,0.655-0.824l0.285,0.23
		c-0.308,0.543-0.64,0.963-0.995,1.26s-0.698,0.445-1.028,0.445c-0.169,0-0.299-0.064-0.391-0.192s-0.138-0.339-0.138-0.632
		c0-0.066,0.002-0.144,0.006-0.231c0.004-0.089,0.013-0.206,0.027-0.353l-0.044-0.011c-0.11,0.206-0.24,0.395-0.391,0.566
		c-0.15,0.173-0.313,0.323-0.489,0.451s-0.359,0.228-0.55,0.297c-0.191,0.069-0.378,0.104-0.562,0.104
		c-0.374,0-0.665-0.141-0.874-0.424c-0.209-0.281-0.313-0.672-0.313-1.171c0-0.507,0.105-1.022,0.318-1.552
		c0.213-0.527,0.488-1.006,0.825-1.436c0.337-0.428,0.711-0.78,1.122-1.055c0.41-0.275,0.814-0.413,1.21-0.413
		c0.242,0,0.44,0.057,0.594,0.171c0.154,0.113,0.279,0.299,0.374,0.555L78.803,144.777z M77.67,145.238
		c-0.279,0-0.566,0.129-0.864,0.386c-0.297,0.257-0.566,0.577-0.808,0.962c-0.242,0.385-0.44,0.8-0.595,1.244
		c-0.153,0.443-0.23,0.855-0.23,1.236c0,0.265,0.055,0.476,0.165,0.633c0.109,0.158,0.26,0.236,0.451,0.236
		c0.168,0,0.344-0.067,0.527-0.203s0.361-0.315,0.533-0.539c0.173-0.224,0.336-0.479,0.49-0.765
		c0.153-0.286,0.289-0.581,0.406-0.886c0.118-0.304,0.21-0.603,0.275-0.896c0.066-0.293,0.099-0.557,0.099-0.791
		c0-0.191-0.04-0.342-0.12-0.451C77.919,145.293,77.809,145.238,77.67,145.238z"/>
	<path fill="#450D06" d="M82.872,145.689l-0.913,3.025c-0.125,0.396-0.19,0.697-0.198,0.902c0,0.066,0.017,0.125,0.05,0.176
		s0.09,0.077,0.171,0.077c0.132,0,0.271-0.05,0.418-0.149c0.146-0.098,0.287-0.215,0.423-0.352c0.136-0.135,0.257-0.275,0.363-0.418
		s0.186-0.254,0.236-0.336l0.319,0.188c-0.125,0.25-0.282,0.49-0.473,0.721c-0.191,0.23-0.393,0.435-0.605,0.61
		c-0.213,0.177-0.428,0.317-0.644,0.424c-0.217,0.106-0.412,0.159-0.589,0.159c-0.256,0-0.441-0.055-0.555-0.165
		c-0.114-0.11-0.171-0.293-0.171-0.55c0-0.146,0.025-0.345,0.077-0.594c0.051-0.25,0.139-0.59,0.264-1.023l0.814-2.695h-0.946
		l0.143-0.506h0.957l0.572-1.892h1.012l-0.571,1.892h1.199l-0.154,0.506H82.872z"/>
	<path fill="#450D06" d="M85.743,146.976c0.103-0.285,0.176-0.517,0.22-0.693c0.044-0.176,0.065-0.314,0.065-0.418
		c0-0.102-0.016-0.17-0.049-0.203s-0.068-0.049-0.104-0.049c-0.081,0-0.169,0.038-0.265,0.115c-0.095,0.077-0.19,0.167-0.285,0.27
		c-0.096,0.103-0.181,0.205-0.254,0.309c-0.073,0.102-0.124,0.183-0.153,0.241l-0.319-0.198c0.088-0.161,0.211-0.341,0.368-0.539
		c0.158-0.197,0.336-0.381,0.534-0.55s0.403-0.31,0.616-0.423c0.212-0.114,0.414-0.171,0.604-0.171c0.184,0,0.32,0.054,0.412,0.159
		c0.092,0.106,0.138,0.299,0.138,0.578c0,0.213-0.064,0.498-0.192,0.857s-0.295,0.822-0.5,1.387l-0.407,1.11
		c-0.015,0.037-0.035,0.094-0.061,0.171c-0.025,0.076-0.052,0.158-0.077,0.242s-0.048,0.166-0.066,0.247
		c-0.018,0.081-0.027,0.147-0.027,0.198c0,0.066,0.019,0.125,0.056,0.176c0.036,0.051,0.095,0.077,0.176,0.077
		c0.11,0,0.224-0.046,0.341-0.138s0.231-0.199,0.341-0.324c0.11-0.125,0.209-0.252,0.297-0.38s0.154-0.229,0.198-0.302l0.33,0.187
		c-0.088,0.176-0.207,0.37-0.357,0.583s-0.321,0.408-0.512,0.588s-0.399,0.33-0.627,0.451s-0.462,0.182-0.704,0.182
		c-0.213,0-0.372-0.055-0.479-0.165s-0.159-0.293-0.159-0.55c0-0.213,0.034-0.441,0.104-0.688c0.069-0.246,0.171-0.556,0.303-0.93
		L85.743,146.976z M87.359,142.863c-0.183,0-0.343-0.063-0.479-0.188s-0.203-0.285-0.203-0.484c0-0.197,0.066-0.366,0.198-0.506
		c0.132-0.139,0.293-0.209,0.483-0.209c0.206,0,0.374,0.07,0.507,0.209c0.132,0.14,0.197,0.305,0.197,0.496
		c0,0.189-0.069,0.352-0.209,0.483C87.716,142.796,87.551,142.863,87.359,142.863z"/>
	<path fill="#450D06" d="M90.143,150.716c-0.249,0-0.481-0.049-0.698-0.148c-0.216-0.1-0.405-0.244-0.566-0.435
		s-0.29-0.423-0.385-0.698c-0.096-0.275-0.144-0.585-0.144-0.93c0-0.477,0.09-0.945,0.27-1.408c0.18-0.462,0.416-0.873,0.71-1.232
		c0.293-0.358,0.629-0.648,1.006-0.868c0.378-0.22,0.769-0.33,1.172-0.33c0.264,0,0.508,0.05,0.731,0.148s0.414,0.242,0.572,0.429
		c0.157,0.188,0.282,0.411,0.374,0.672c0.092,0.26,0.138,0.548,0.138,0.863c0,0.461-0.092,0.928-0.275,1.396
		c-0.184,0.47-0.424,0.891-0.721,1.266c-0.297,0.373-0.636,0.68-1.018,0.918C90.928,150.597,90.539,150.716,90.143,150.716z
		 M90.209,150.167c0.249,0,0.497-0.128,0.742-0.386c0.246-0.256,0.466-0.58,0.66-0.973s0.353-0.82,0.473-1.281
		c0.121-0.463,0.182-0.902,0.182-1.32c0-0.389-0.067-0.656-0.203-0.803s-0.321-0.221-0.556-0.221c-0.161,0-0.324,0.057-0.489,0.171
		s-0.321,0.27-0.468,0.468c-0.146,0.197-0.284,0.426-0.412,0.682c-0.129,0.257-0.24,0.527-0.336,0.814
		c-0.095,0.285-0.169,0.577-0.22,0.874c-0.052,0.297-0.077,0.581-0.077,0.853c0,0.41,0.066,0.7,0.198,0.869
		C89.835,150.082,90.004,150.167,90.209,150.167z"/>
	<path fill="#450D06" d="M98.514,145.238c-0.176,0-0.376,0.09-0.6,0.27s-0.451,0.418-0.682,0.716
		c-0.231,0.297-0.453,0.636-0.666,1.017c-0.212,0.383-0.392,0.771-0.538,1.166l-0.814,2.201h-0.968l0.813-2.52
		c0.132-0.403,0.242-0.748,0.33-1.034s0.16-0.526,0.215-0.72c0.055-0.195,0.094-0.353,0.115-0.474
		c0.022-0.121,0.033-0.218,0.033-0.292c0-0.197-0.063-0.297-0.188-0.297c-0.08,0-0.176,0.052-0.285,0.154
		c-0.11,0.104-0.223,0.236-0.336,0.402c-0.113,0.164-0.222,0.354-0.324,0.566c-0.104,0.213-0.191,0.428-0.265,0.648l-0.33-0.165
		c0.257-0.755,0.545-1.313,0.864-1.672c0.318-0.359,0.684-0.539,1.094-0.539c0.235,0,0.402,0.065,0.501,0.198
		c0.099,0.132,0.148,0.355,0.148,0.671c0,0.374-0.063,0.708-0.187,1.001l0.032,0.033c0.374-0.66,0.754-1.143,1.139-1.447
		c0.385-0.304,0.805-0.456,1.26-0.456c0.322,0,0.568,0.077,0.737,0.231c0.168,0.153,0.253,0.373,0.253,0.66
		c0,0.095-0.01,0.201-0.027,0.318c-0.019,0.117-0.05,0.258-0.094,0.424c-0.044,0.164-0.104,0.361-0.182,0.588
		c-0.077,0.228-0.171,0.506-0.28,0.836c-0.169,0.499-0.309,0.917-0.418,1.254c-0.11,0.338-0.165,0.576-0.165,0.715
		c0,0.11,0.036,0.166,0.109,0.166c0.103,0,0.253-0.084,0.451-0.254c0.198-0.168,0.466-0.439,0.803-0.813l0.286,0.153
		c-0.117,0.221-0.27,0.436-0.456,0.645c-0.188,0.209-0.382,0.397-0.583,0.566c-0.202,0.168-0.401,0.305-0.6,0.406
		c-0.198,0.104-0.37,0.154-0.517,0.154c-0.184,0-0.329-0.08-0.435-0.242c-0.106-0.161-0.16-0.373-0.16-0.638
		c0-0.103,0.01-0.207,0.027-0.313c0.019-0.106,0.058-0.258,0.116-0.457c0.059-0.197,0.145-0.463,0.258-0.797
		c0.114-0.334,0.27-0.775,0.468-1.326c0.066-0.189,0.121-0.352,0.165-0.483s0.079-0.247,0.104-0.347
		c0.025-0.099,0.044-0.186,0.055-0.258c0.012-0.074,0.017-0.144,0.017-0.209C98.811,145.375,98.712,145.238,98.514,145.238z"/>
	<path fill="#450D06" d="M108.591,142.995c0.059-0.198,0.103-0.363,0.132-0.495s0.044-0.227,0.044-0.286
		c0-0.11-0.073-0.187-0.221-0.231c-0.146-0.043-0.41-0.065-0.792-0.065l0.121-0.44h2.123l-1.221,4.455
		c-0.154,0.572-0.282,1.061-0.385,1.463c-0.103,0.404-0.186,0.742-0.248,1.018s-0.104,0.501-0.126,0.677
		c-0.022,0.177-0.033,0.323-0.033,0.44c0,0.168,0.025,0.285,0.077,0.352c0.051,0.066,0.117,0.1,0.198,0.1
		c0.161,0,0.335-0.137,0.522-0.408c0.187-0.271,0.354-0.627,0.5-1.066l0.418,0.1c-0.249,0.726-0.522,1.259-0.819,1.6
		c-0.297,0.342-0.633,0.512-1.007,0.512c-0.264,0-0.467-0.084-0.61-0.253c-0.143-0.169-0.214-0.411-0.214-0.726
		c0-0.081,0.007-0.166,0.021-0.254s0.033-0.172,0.055-0.252l-0.088-0.022c-0.278,0.483-0.615,0.856-1.012,1.116
		c-0.396,0.261-0.773,0.391-1.133,0.391c-0.191,0-0.367-0.042-0.528-0.127c-0.161-0.084-0.301-0.201-0.418-0.352
		s-0.211-0.33-0.28-0.539c-0.07-0.209-0.104-0.441-0.104-0.698c0-0.315,0.05-0.644,0.148-0.984s0.234-0.671,0.407-0.99
		c0.172-0.319,0.372-0.622,0.6-0.907c0.227-0.286,0.467-0.537,0.72-0.754c0.253-0.216,0.514-0.387,0.781-0.512
		c0.268-0.124,0.53-0.187,0.787-0.187c0.249,0,0.438,0.048,0.566,0.144c0.128,0.095,0.254,0.245,0.379,0.45L108.591,142.995z
		 M107.083,145.25c-0.19,0-0.383,0.061-0.577,0.182s-0.383,0.282-0.566,0.484c-0.184,0.201-0.354,0.434-0.512,0.697
		c-0.157,0.265-0.295,0.539-0.412,0.826c-0.117,0.285-0.211,0.575-0.28,0.869c-0.07,0.293-0.104,0.568-0.104,0.824
		c0,0.264,0.065,0.475,0.197,0.633s0.309,0.236,0.528,0.236c0.169,0,0.341-0.068,0.517-0.203c0.177-0.137,0.349-0.314,0.518-0.533
		c0.168-0.221,0.328-0.472,0.479-0.754c0.15-0.283,0.282-0.572,0.396-0.869c0.114-0.297,0.204-0.59,0.27-0.881
		c0.066-0.289,0.1-0.551,0.1-0.785c0-0.229-0.044-0.406-0.133-0.534C107.413,145.314,107.274,145.25,107.083,145.25z"/>
	<path fill="#450D06" d="M111.296,144.161c0.411-0.257,0.717-0.501,0.919-0.731c0.201-0.231,0.343-0.486,0.423-0.765
		c-0.103,0.059-0.22,0.088-0.352,0.088c-0.146,0-0.257-0.038-0.33-0.116c-0.073-0.076-0.11-0.181-0.11-0.313
		c0-0.117,0.027-0.229,0.083-0.336c0.055-0.105,0.126-0.195,0.214-0.27c0.088-0.073,0.189-0.132,0.303-0.176
		s0.232-0.066,0.357-0.066c0.382,0,0.572,0.195,0.572,0.584c0,0.241-0.035,0.463-0.104,0.665c-0.07,0.202-0.182,0.396-0.336,0.583
		c-0.153,0.188-0.352,0.374-0.594,0.561c-0.242,0.188-0.531,0.384-0.869,0.589L111.296,144.161z"/>
	<path fill="#450D06" d="M114.277,149.924c0.117,0,0.271-0.083,0.462-0.247c0.19-0.166,0.392-0.385,0.604-0.66
		s0.42-0.589,0.622-0.94c0.201-0.353,0.372-0.719,0.511-1.101l0.814-2.199h1.023l-0.814,2.519c-0.117,0.366-0.217,0.681-0.297,0.94
		c-0.081,0.26-0.146,0.48-0.198,0.66s-0.088,0.326-0.11,0.439c-0.021,0.114-0.032,0.204-0.032,0.27c0,0.191,0.065,0.287,0.197,0.287
		c0.073,0,0.161-0.035,0.265-0.105c0.103-0.069,0.207-0.164,0.313-0.285s0.209-0.258,0.308-0.408c0.1-0.149,0.186-0.309,0.259-0.479
		l0.33,0.166c-0.096,0.242-0.22,0.479-0.374,0.709s-0.321,0.438-0.501,0.621c-0.18,0.184-0.368,0.33-0.566,0.44
		s-0.393,0.165-0.583,0.165c-0.228,0-0.381-0.08-0.462-0.242c-0.081-0.161-0.121-0.393-0.121-0.693c0-0.124,0.006-0.258,0.017-0.4
		c0.011-0.144,0.031-0.285,0.061-0.424l-0.033-0.033c-0.197,0.352-0.391,0.643-0.577,0.869c-0.188,0.228-0.368,0.41-0.545,0.55
		c-0.176,0.14-0.348,0.237-0.517,0.292s-0.334,0.082-0.495,0.082c-0.345,0-0.585-0.096-0.721-0.285
		c-0.136-0.191-0.203-0.426-0.203-0.705c0-0.308,0.059-0.646,0.176-1.018c0.117-0.369,0.242-0.721,0.374-1.051
		c0.132-0.329,0.244-0.607,0.336-0.836c0.091-0.227,0.165-0.418,0.22-0.571s0.095-0.278,0.121-0.374
		c0.025-0.096,0.038-0.172,0.038-0.23c0-0.029-0.005-0.057-0.017-0.083c-0.011-0.026-0.038-0.038-0.082-0.038
		c-0.096,0-0.233,0.084-0.413,0.252c-0.18,0.17-0.423,0.44-0.731,0.814l-0.285-0.154c0.109-0.213,0.249-0.425,0.418-0.638
		c0.168-0.212,0.348-0.403,0.539-0.571c0.19-0.17,0.388-0.305,0.594-0.408c0.205-0.102,0.396-0.153,0.571-0.153
		c0.367,0,0.551,0.213,0.551,0.638c0,0.257-0.072,0.589-0.215,0.996c-0.143,0.406-0.328,0.893-0.556,1.457
		c-0.146,0.359-0.268,0.682-0.362,0.969c-0.096,0.285-0.144,0.546-0.144,0.78c0,0.154,0.022,0.263,0.066,0.325
		S114.211,149.924,114.277,149.924z"/>
	<path fill="#450D06" d="M119.172,146.306c0.08-0.184,0.203-0.373,0.368-0.567s0.345-0.37,0.539-0.528
		c0.194-0.157,0.391-0.287,0.588-0.391c0.198-0.102,0.371-0.153,0.518-0.153c0.176,0,0.304,0.065,0.385,0.198
		c0.081,0.132,0.121,0.344,0.121,0.638c0,0.117-0.006,0.231-0.017,0.341c-0.011,0.11-0.031,0.238-0.061,0.385l0.033,0.033
		c0.088-0.213,0.213-0.422,0.374-0.627s0.335-0.387,0.522-0.545c0.187-0.157,0.378-0.285,0.572-0.385
		c0.194-0.099,0.375-0.148,0.544-0.148c0.213,0,0.391,0.068,0.534,0.203c0.143,0.137,0.214,0.303,0.214,0.501
		c0,0.19-0.061,0.349-0.182,0.474s-0.276,0.187-0.467,0.187c-0.118,0-0.211-0.022-0.281-0.065c-0.069-0.045-0.13-0.09-0.181-0.139
		c-0.052-0.047-0.1-0.093-0.144-0.137s-0.099-0.066-0.165-0.066c-0.14,0-0.301,0.094-0.483,0.281
		c-0.184,0.187-0.374,0.441-0.572,0.764c-0.198,0.323-0.395,0.701-0.589,1.133c-0.194,0.434-0.372,0.898-0.533,1.397l-0.495,1.519
		h-1.023l0.716-2.277c0.139-0.439,0.254-0.805,0.346-1.095s0.163-0.532,0.215-0.726c0.052-0.194,0.086-0.347,0.104-0.457
		c0.019-0.109,0.027-0.205,0.027-0.285c0-0.162-0.055-0.242-0.165-0.242c-0.073,0-0.163,0.029-0.27,0.088s-0.211,0.132-0.313,0.22
		s-0.199,0.187-0.291,0.297s-0.16,0.216-0.204,0.319L119.172,146.306z"/>
	<path fill="#450D06" d="M128.819,151.41c0,0.314-0.068,0.6-0.204,0.852c-0.136,0.254-0.329,0.47-0.583,0.65
		c-0.253,0.179-0.559,0.316-0.918,0.412c-0.359,0.095-0.763,0.143-1.21,0.143c-0.403,0-0.771-0.037-1.101-0.109
		c-0.329-0.074-0.614-0.18-0.852-0.319c-0.238-0.14-0.422-0.303-0.551-0.489c-0.128-0.188-0.192-0.398-0.192-0.633
		c0-0.301,0.098-0.551,0.292-0.748c0.194-0.198,0.441-0.297,0.742-0.297c0.088,0,0.172,0.011,0.253,0.033
		c0.081,0.021,0.184,0.063,0.308,0.121c-0.41,0.168-0.615,0.487-0.615,0.957c0,0.308,0.155,0.549,0.467,0.726
		c0.313,0.176,0.739,0.265,1.282,0.265c0.293,0,0.564-0.033,0.813-0.1s0.464-0.15,0.644-0.253s0.319-0.218,0.418-0.347
		c0.1-0.129,0.148-0.255,0.148-0.379c0-0.206-0.123-0.391-0.368-0.557c-0.246-0.164-0.593-0.287-1.04-0.368
		c-0.799-0.14-1.386-0.301-1.76-0.483c-0.374-0.184-0.561-0.44-0.561-0.771c0-0.212,0.093-0.392,0.28-0.539
		c0.187-0.146,0.522-0.293,1.007-0.44l0.021-0.043c-0.558-0.396-0.836-0.906-0.836-1.529c0-0.338,0.069-0.658,0.209-0.963
		s0.328-0.572,0.566-0.803s0.518-0.412,0.836-0.545c0.319-0.131,0.654-0.197,1.007-0.197c0.543,0,0.997,0.197,1.364,0.594
		c0.345-0.389,0.678-0.583,1.001-0.583c0.234,0,0.439,0.071,0.615,0.214c0.177,0.144,0.265,0.311,0.265,0.501
		c0,0.147-0.05,0.27-0.148,0.368c-0.1,0.1-0.222,0.148-0.369,0.148c-0.109,0-0.196-0.023-0.258-0.07
		c-0.063-0.049-0.116-0.102-0.16-0.16s-0.093-0.111-0.148-0.16c-0.055-0.047-0.13-0.07-0.226-0.07c-0.051,0-0.099,0.009-0.143,0.027
		c-0.044,0.018-0.125,0.067-0.242,0.148c0.037,0.103,0.063,0.199,0.077,0.291s0.022,0.207,0.022,0.347
		c0,0.807-0.225,1.45-0.672,1.931s-1.063,0.75-1.848,0.809c-0.352,0.029-0.604,0.073-0.754,0.132s-0.225,0.146-0.225,0.264
		c0,0.154,0.082,0.27,0.247,0.347s0.372,0.141,0.621,0.192c0.25,0.052,0.518,0.103,0.804,0.154s0.554,0.126,0.803,0.226
		c0.249,0.099,0.456,0.234,0.621,0.406C128.736,150.883,128.819,151.117,128.819,151.41z M126.509,148.505
		c0.177,0,0.349-0.069,0.518-0.209c0.168-0.139,0.32-0.324,0.456-0.556s0.244-0.493,0.325-0.786c0.08-0.293,0.12-0.594,0.12-0.902
		c0-0.293-0.065-0.525-0.197-0.698s-0.305-0.259-0.518-0.259c-0.169,0-0.341,0.076-0.517,0.226c-0.176,0.15-0.336,0.343-0.479,0.577
		c-0.144,0.235-0.259,0.501-0.347,0.798c-0.088,0.298-0.132,0.589-0.132,0.874c0,0.279,0.069,0.505,0.209,0.678
		C126.087,148.419,126.274,148.505,126.509,148.505z"/>
	<path fill="#450D06" d="M134.165,149.144c-0.638,1.049-1.423,1.572-2.354,1.572c-0.506,0-0.895-0.156-1.166-0.467
		c-0.271-0.313-0.406-0.754-0.406-1.326c0-0.506,0.104-1.012,0.313-1.518s0.481-0.963,0.819-1.369
		c0.337-0.408,0.715-0.738,1.133-0.99c0.418-0.254,0.836-0.38,1.254-0.38c0.353,0,0.64,0.09,0.863,0.27s0.336,0.409,0.336,0.688
		c0,0.257-0.096,0.521-0.286,0.792s-0.449,0.527-0.775,0.77s-0.708,0.463-1.144,0.66c-0.437,0.198-0.9,0.352-1.392,0.463
		c-0.016,0.102-0.026,0.203-0.033,0.302c-0.008,0.099-0.011,0.2-0.011,0.303c0,0.8,0.282,1.198,0.847,1.198
		c0.271,0,0.552-0.105,0.842-0.318c0.289-0.213,0.559-0.506,0.808-0.88L134.165,149.144z M133.538,145.183
		c-0.19,0-0.389,0.074-0.594,0.221c-0.206,0.146-0.401,0.342-0.589,0.588c-0.187,0.246-0.357,0.526-0.512,0.842
		c-0.153,0.315-0.278,0.642-0.374,0.979c0.353-0.095,0.679-0.22,0.979-0.373c0.301-0.154,0.559-0.328,0.775-0.523
		c0.216-0.193,0.387-0.399,0.512-0.615c0.124-0.217,0.187-0.436,0.187-0.654C133.923,145.337,133.795,145.183,133.538,145.183z"/>
	<path fill="#450D06" d="M139.774,145.238c-0.176,0-0.376,0.09-0.6,0.27s-0.451,0.418-0.682,0.716
		c-0.231,0.297-0.453,0.636-0.666,1.017c-0.212,0.383-0.392,0.771-0.538,1.166l-0.814,2.201h-0.968l0.813-2.52
		c0.132-0.403,0.242-0.748,0.33-1.034s0.16-0.526,0.215-0.72c0.055-0.195,0.094-0.353,0.115-0.474
		c0.022-0.121,0.033-0.218,0.033-0.292c0-0.197-0.063-0.297-0.188-0.297c-0.08,0-0.176,0.052-0.285,0.154
		c-0.11,0.104-0.223,0.236-0.336,0.402c-0.113,0.164-0.222,0.354-0.324,0.566c-0.104,0.213-0.191,0.428-0.265,0.648l-0.33-0.165
		c0.257-0.755,0.545-1.313,0.864-1.672c0.318-0.359,0.684-0.539,1.094-0.539c0.235,0,0.402,0.065,0.501,0.198
		c0.099,0.132,0.148,0.355,0.148,0.671c0,0.374-0.063,0.708-0.187,1.001l0.032,0.033c0.374-0.66,0.754-1.143,1.139-1.447
		c0.385-0.304,0.805-0.456,1.26-0.456c0.322,0,0.568,0.077,0.737,0.231c0.168,0.153,0.253,0.373,0.253,0.66
		c0,0.095-0.01,0.201-0.027,0.318c-0.019,0.117-0.05,0.258-0.094,0.424c-0.044,0.164-0.104,0.361-0.182,0.588
		c-0.077,0.228-0.171,0.506-0.28,0.836c-0.169,0.499-0.309,0.917-0.418,1.254c-0.11,0.338-0.165,0.576-0.165,0.715
		c0,0.11,0.036,0.166,0.109,0.166c0.103,0,0.253-0.084,0.451-0.254c0.198-0.168,0.466-0.439,0.803-0.813l0.286,0.153
		c-0.117,0.221-0.27,0.436-0.456,0.645c-0.188,0.209-0.382,0.397-0.583,0.566c-0.202,0.168-0.401,0.305-0.6,0.406
		c-0.198,0.104-0.37,0.154-0.517,0.154c-0.184,0-0.329-0.08-0.435-0.242c-0.106-0.161-0.16-0.373-0.16-0.638
		c0-0.103,0.01-0.207,0.027-0.313c0.019-0.106,0.058-0.258,0.116-0.457c0.059-0.197,0.145-0.463,0.258-0.797
		c0.114-0.334,0.27-0.775,0.468-1.326c0.066-0.189,0.121-0.352,0.165-0.483s0.079-0.247,0.104-0.347
		c0.025-0.099,0.044-0.186,0.055-0.258c0.012-0.074,0.017-0.144,0.017-0.209C140.071,145.375,139.973,145.238,139.774,145.238z"/>
	<path fill="#450D06" d="M146.1,148.835c-0.308,0.609-0.665,1.074-1.072,1.396c-0.407,0.323-0.841,0.484-1.304,0.484
		c-0.477,0-0.857-0.163-1.144-0.489s-0.429-0.761-0.429-1.304c0-0.322,0.047-0.652,0.143-0.99c0.096-0.337,0.224-0.663,0.385-0.979
		s0.353-0.612,0.572-0.891c0.22-0.279,0.455-0.521,0.704-0.727s0.508-0.369,0.775-0.489c0.268-0.121,0.53-0.182,0.786-0.182
		c0.353,0,0.642,0.095,0.869,0.286c0.228,0.19,0.342,0.429,0.342,0.715c0,0.184-0.054,0.332-0.16,0.445s-0.244,0.17-0.412,0.17
		c-0.169,0-0.307-0.053-0.413-0.158c-0.106-0.107-0.159-0.237-0.159-0.391c0-0.096,0.015-0.173,0.044-0.231s0.044-0.114,0.044-0.165
		c0-0.103-0.088-0.154-0.264-0.154c-0.242,0-0.488,0.114-0.737,0.342c-0.249,0.227-0.475,0.521-0.677,0.879
		c-0.201,0.359-0.366,0.762-0.494,1.205c-0.129,0.443-0.193,0.886-0.193,1.326c0,0.352,0.068,0.629,0.204,0.83
		s0.324,0.303,0.566,0.303c0.132,0,0.27-0.037,0.412-0.11c0.144-0.073,0.288-0.175,0.435-0.303s0.288-0.28,0.424-0.456
		s0.259-0.371,0.368-0.584L146.1,148.835z"/>
	<path fill="#450D06" d="M150.929,149.144c-0.638,1.049-1.423,1.572-2.354,1.572c-0.506,0-0.895-0.156-1.166-0.467
		c-0.271-0.313-0.406-0.754-0.406-1.326c0-0.506,0.104-1.012,0.313-1.518s0.481-0.963,0.819-1.369
		c0.337-0.408,0.715-0.738,1.133-0.99c0.418-0.254,0.836-0.38,1.254-0.38c0.353,0,0.64,0.09,0.863,0.27s0.336,0.409,0.336,0.688
		c0,0.257-0.096,0.521-0.286,0.792s-0.449,0.527-0.775,0.77s-0.708,0.463-1.144,0.66c-0.437,0.198-0.9,0.352-1.392,0.463
		c-0.016,0.102-0.026,0.203-0.033,0.302c-0.008,0.099-0.011,0.2-0.011,0.303c0,0.8,0.282,1.198,0.847,1.198
		c0.271,0,0.552-0.105,0.842-0.318c0.289-0.213,0.559-0.506,0.808-0.88L150.929,149.144z M150.302,145.183
		c-0.19,0-0.389,0.074-0.594,0.221c-0.206,0.146-0.401,0.342-0.589,0.588c-0.187,0.246-0.357,0.526-0.512,0.842
		c-0.153,0.315-0.278,0.642-0.374,0.979c0.353-0.095,0.679-0.22,0.979-0.373c0.301-0.154,0.559-0.328,0.775-0.523
		c0.216-0.193,0.387-0.399,0.512-0.615c0.124-0.217,0.187-0.436,0.187-0.654C150.687,145.337,150.559,145.183,150.302,145.183z"/>
</g>
</svg>
