<?xml version="1.0" encoding="utf-8"?>
<!-- Generator: Adobe Illustrator 16.0.0, SVG Export Plug-In . SVG Version: 6.00 Build 0)  -->
<!DOCTYPE svg PUBLIC "-//W3C//DTD SVG 1.1//EN" "http://www.w3.org/Graphics/SVG/1.1/DTD/svg11.dtd">
<svg version="1.1" id="Capa_1" xmlns="http://www.w3.org/2000/svg" xmlns:xlink="http://www.w3.org/1999/xlink" x="0px" y="0px"
	 width="313.667px" height="153.667px" viewBox="0 0 313.667 153.667" enable-background="new 0 0 313.667 153.667"
	 xml:space="preserve">
<g data-anchor-target="#section5"
	data--3700-top="opacity:0;"
	data--3750-top="opacity:0.5;"
	data--5350-top="opacity:0.5;"
	data--5400-top="opacity:0;">
	<path  fill="#3E0106" d="M28.595,3.208c-3.67,3.314-7.316,6.606-11.068,9.995l-2.324,2.22v-2.09h-5.033v6.897
		l-1.065,1.018c-2.396,2.309-4.774,4.636-7.156,6.958c-0.132,0.128-0.254,0.267-0.465,0.49c2.752,0,5.353,0,8.015,0
		c0,7.19,0,14.343,0,21.494c12.767,0,25.471,0,38.218,0c0-7.181,0-14.321,0-21.499c2.641,0,5.241,0,7.841,0
		c0.021-0.042,0.044-0.083,0.066-0.125C46.622,20.122,37.621,11.677,28.595,3.208z M31.776,35.73
		c-0.716,0.321-1.467,0.528-2.243,0.624v1.564h2.009v1.91h-2.009v2.457h-1.961v-2.457h-2.009v-1.91h2.009v-1.565
		c-3.354-0.425-6.126-2.999-6.639-6.318c-0.057-0.37-0.086-0.749-0.086-1.125c0-4.14,3.457-7.507,7.706-7.507
		s7.706,3.368,7.706,7.507C36.258,31.829,34.499,34.506,31.776,35.73z"/>
	<path fill="#3E0106" d="M28.553,23.312c-3.168,0-5.745,2.511-5.745,5.597c0,0.282,0.021,0.565,0.064,0.841
		c0.419,2.711,2.861,4.756,5.681,4.756c0.839,0,1.647-0.172,2.402-0.511c2.03-0.912,3.343-2.908,3.343-5.086
		C34.298,25.823,31.721,23.312,28.553,23.312z"/>
</g>
<g data-anchor-target="#section5"
	data--3750-top="opacity:0;"
	data--3800-top="opacity:0.5;"
	data--5300-top="opacity:0.5;"
	data--5350-top="opacity:0;">
	<path  fill="#3E0106" d="M86.673,28.769c0,0.282,0.022,0.565,0.064,0.841c0.4,2.587,2.643,4.563,5.297,4.739V23.19
		C89.046,23.384,86.673,25.808,86.673,28.769z"/>
	<path  fill="#3E0106" d="M80.116,14.281v-1.605h-5.033v6.41l-1.82,1.738l-0.292,0.282
		c-2.396,2.309-4.773,4.636-7.157,6.958c-0.131,0.128-0.253,0.267-0.465,0.49c2.752,0,5.353,0,8.015,0c0,7.189,0,14.343,0,21.494
		c6.234,0,12.455,0,18.672,0v-7.905h-0.597v-2.457h-2.01v-1.91h2.01v-1.565c-3.354-0.425-6.126-2.999-6.639-6.318
		c-0.057-0.371-0.086-0.749-0.086-1.126c0-4.014,3.252-7.292,7.322-7.488V3.452C88.508,6.637,85,9.805,81.392,13.063L80.116,14.281z
		"/>
</g>
<path  data-anchor-target="#section5"
	data--3800-top="opacity:0;"
	data--3850-top="opacity:0.25;"
	data--5250-top="opacity:0.25;"
	data--5300-top="opacity:0;" opacity="0.25" fill="#3E0106" d="M92.801,3.387V21.28v1.91v11.155v7.798v7.905c6.258,0,12.513,0,18.779,0
	c0-7.181,0-14.321,0-21.499c2.641,0,5.241,0,7.841,0c0.022-0.042,0.043-0.083,0.065-0.125
	C110.601,20.087,101.713,11.749,92.801,3.387z"/>
<path  data-anchor-target="#section5"
	data--3850-top="opacity:0;"
	data--3900-top="opacity:0.25;"
	data--5200-top="opacity:0.25;"
	data--5250-top="opacity:0;" opacity="0.25" fill="#3E0106" d="M156.76,3.26c-3.67,3.314-7.316,6.607-11.069,9.995l-1.449,1.384v-1.963h-5.034v6.77
	l-1.94,1.853c-2.396,2.309-4.773,4.636-7.156,6.959c-0.132,0.128-0.254,0.267-0.465,0.49c2.751,0,5.353,0,8.014,0
	c0,7.189,0,14.343,0,21.494c12.767,0,25.472,0,38.217,0c0-7.181,0-14.322,0-21.499c2.643,0,5.242,0,7.843,0
	c0.021-0.042,0.044-0.083,0.065-0.125C174.787,20.173,165.786,11.729,156.76,3.26z"/>
<path  data-anchor-target="#section5"
	data--3900-top="opacity:0;"
	data--3950-top="opacity:0.25;"
	data--5150-top="opacity:0.25;"
	data--5200-top="opacity:0;" opacity="0.25" fill="#3E0106" d="M220.676,3.208c-3.67,3.314-7.316,6.606-11.068,9.995l-1.449,1.384v-1.963h-5.033v6.77
	l-1.939,1.853c-2.396,2.309-4.773,4.636-7.156,6.958c-0.133,0.128-0.254,0.267-0.465,0.49c2.752,0,5.353,0,8.014,0
	c0,7.189,0,14.343,0,21.493c12.768,0,25.472,0,38.218,0c0-7.181,0-14.321,0-21.499c2.642,0,5.242,0,7.842,0
	c0.022-0.042,0.044-0.083,0.065-0.125C238.704,20.122,229.703,11.677,220.676,3.208z"/>
<path data-anchor-target="#section5"
	data--3950-top="opacity:0;"
	data--4000-top="opacity:0.25;"
	data--5100-top="opacity:0.25;"
	data--5150-top="opacity:0;" opacity="0.25" fill="#3E0106" d="M284.593,3.208c-3.67,3.314-7.316,6.606-11.068,9.995l-1.449,1.384v-1.963h-5.033v6.77
	l-1.94,1.853c-2.396,2.309-4.773,4.636-7.155,6.958c-0.133,0.128-0.254,0.267-0.466,0.49c2.752,0,5.354,0,8.015,0
	c0,7.189,0,14.343,0,21.493c12.767,0,25.472,0,38.218,0c0-7.181,0-14.321,0-21.499c2.642,0,5.241,0,7.842,0
	c0.021-0.042,0.044-0.083,0.065-0.125C302.62,20.122,293.62,11.677,284.593,3.208z"/>
<g data-anchor-target="#section5"
	data--4000-top="opacity:0;"
	data--4050-top="opacity:0.5;"
	data--5050-top="opacity:0.5;"
	data--5100-top="opacity:0;" opacity="0.5" enable-background="new    ">
	<path fill="#3E0106" d="M15.283,58.696c0.064-0.216,0.112-0.396,0.144-0.54c0.032-0.145,0.048-0.248,0.048-0.313
		c0-0.12-0.08-0.204-0.24-0.252s-0.448-0.072-0.864-0.072l0.132-0.479h2.316l-1.332,4.86c-0.168,0.624-0.308,1.155-0.42,1.596
		s-0.202,0.81-0.27,1.11c-0.068,0.3-0.114,0.546-0.138,0.737c-0.024,0.192-0.036,0.353-0.036,0.48c0,0.184,0.028,0.312,0.084,0.384
		c0.056,0.072,0.128,0.108,0.216,0.108c0.176,0,0.366-0.148,0.57-0.444c0.204-0.296,0.386-0.684,0.546-1.164l0.456,0.108
		c-0.272,0.792-0.57,1.374-0.894,1.745c-0.324,0.372-0.69,0.559-1.098,0.559c-0.288,0-0.51-0.092-0.666-0.276
		c-0.156-0.184-0.234-0.447-0.234-0.792c0-0.088,0.008-0.18,0.024-0.275c0.016-0.097,0.036-0.188,0.06-0.276l-0.096-0.024
		c-0.304,0.528-0.672,0.935-1.104,1.219c-0.432,0.284-0.844,0.426-1.236,0.426c-0.208,0-0.4-0.046-0.576-0.138
		c-0.176-0.093-0.328-0.221-0.456-0.385c-0.128-0.163-0.23-0.359-0.306-0.588c-0.076-0.228-0.114-0.481-0.114-0.762
		c0-0.344,0.054-0.702,0.162-1.074s0.256-0.731,0.444-1.08c0.188-0.348,0.406-0.678,0.654-0.99c0.248-0.312,0.51-0.586,0.786-0.821
		c0.276-0.236,0.56-0.422,0.852-0.559c0.292-0.136,0.578-0.204,0.858-0.204c0.271,0,0.478,0.053,0.618,0.156
		c0.14,0.104,0.278,0.269,0.414,0.492L15.283,58.696z M13.639,61.156c-0.208,0-0.418,0.065-0.63,0.197
		c-0.212,0.133-0.418,0.309-0.618,0.528c-0.2,0.221-0.386,0.475-0.558,0.762c-0.172,0.288-0.322,0.589-0.45,0.9
		c-0.128,0.313-0.23,0.628-0.306,0.948c-0.076,0.32-0.114,0.62-0.114,0.899c0,0.288,0.072,0.519,0.216,0.69
		c0.144,0.172,0.336,0.258,0.576,0.258c0.184,0,0.372-0.073,0.564-0.222c0.192-0.148,0.38-0.342,0.564-0.582
		s0.358-0.514,0.522-0.822c0.164-0.308,0.308-0.624,0.432-0.948c0.124-0.323,0.222-0.644,0.294-0.96
		c0.072-0.315,0.108-0.602,0.108-0.857c0-0.248-0.048-0.442-0.144-0.582C13.999,61.226,13.847,61.156,13.639,61.156z"/>
	<path fill="#3E0106" d="M18.87,66.255c0.128,0,0.296-0.09,0.504-0.27c0.208-0.181,0.428-0.42,0.66-0.721
		c0.232-0.3,0.458-0.642,0.678-1.025c0.22-0.384,0.406-0.784,0.558-1.2l0.888-2.4h1.116l-0.888,2.748
		c-0.128,0.4-0.236,0.742-0.324,1.026c-0.088,0.284-0.16,0.524-0.216,0.72c-0.056,0.196-0.096,0.356-0.12,0.48
		c-0.024,0.124-0.036,0.222-0.036,0.294c0,0.208,0.072,0.312,0.216,0.312c0.08,0,0.176-0.038,0.288-0.113
		c0.112-0.076,0.226-0.181,0.342-0.313c0.116-0.132,0.228-0.28,0.336-0.444c0.108-0.163,0.202-0.338,0.282-0.521l0.36,0.18
		c-0.104,0.265-0.24,0.522-0.408,0.774s-0.35,0.478-0.546,0.678c-0.196,0.2-0.402,0.36-0.618,0.48
		c-0.216,0.119-0.428,0.18-0.636,0.18c-0.248,0-0.416-0.088-0.504-0.264c-0.088-0.177-0.132-0.429-0.132-0.757
		c0-0.136,0.006-0.281,0.018-0.438c0.012-0.156,0.034-0.31,0.066-0.462l-0.036-0.036c-0.216,0.384-0.426,0.7-0.63,0.948
		s-0.402,0.448-0.594,0.6c-0.192,0.152-0.38,0.258-0.564,0.318c-0.184,0.06-0.364,0.09-0.54,0.09c-0.376,0-0.638-0.104-0.786-0.313
		c-0.148-0.208-0.222-0.464-0.222-0.768c0-0.336,0.064-0.706,0.192-1.11c0.128-0.403,0.264-0.786,0.408-1.146
		c0.144-0.36,0.266-0.664,0.366-0.912s0.18-0.456,0.24-0.624s0.104-0.304,0.132-0.408c0.028-0.104,0.042-0.188,0.042-0.252
		c0-0.032-0.006-0.062-0.018-0.09c-0.012-0.028-0.042-0.042-0.09-0.042c-0.104,0-0.254,0.092-0.45,0.276
		c-0.196,0.184-0.462,0.479-0.798,0.888l-0.312-0.168c0.12-0.232,0.272-0.464,0.456-0.696c0.184-0.231,0.38-0.439,0.588-0.624
		c0.208-0.184,0.424-0.332,0.648-0.443c0.224-0.112,0.432-0.169,0.624-0.169c0.4,0,0.6,0.232,0.6,0.696
		c0,0.28-0.078,0.643-0.234,1.086c-0.156,0.444-0.358,0.975-0.606,1.59c-0.16,0.393-0.292,0.744-0.396,1.057
		c-0.104,0.312-0.156,0.596-0.156,0.852c0,0.168,0.024,0.286,0.072,0.354C18.738,66.221,18.798,66.255,18.87,66.255z"/>
	<path fill="#3E0106" d="M24.21,62.307c0.088-0.199,0.222-0.405,0.402-0.617c0.18-0.212,0.376-0.404,0.588-0.576
		c0.212-0.172,0.426-0.314,0.642-0.426c0.216-0.112,0.404-0.169,0.564-0.169c0.192,0,0.332,0.072,0.42,0.217
		c0.088,0.144,0.132,0.376,0.132,0.695c0,0.129-0.006,0.252-0.018,0.372c-0.012,0.12-0.034,0.261-0.066,0.42l0.036,0.036
		c0.096-0.231,0.232-0.46,0.408-0.684s0.366-0.422,0.57-0.594c0.204-0.172,0.412-0.313,0.624-0.421
		c0.212-0.107,0.41-0.161,0.594-0.161c0.232,0,0.426,0.073,0.582,0.222c0.156,0.148,0.234,0.33,0.234,0.546
		c0,0.208-0.066,0.38-0.198,0.516c-0.132,0.137-0.302,0.204-0.51,0.204c-0.128,0-0.23-0.023-0.306-0.071
		c-0.076-0.049-0.142-0.099-0.198-0.15s-0.108-0.102-0.156-0.15c-0.048-0.048-0.108-0.071-0.18-0.071
		c-0.152,0-0.328,0.102-0.528,0.306c-0.2,0.204-0.408,0.482-0.624,0.834c-0.216,0.353-0.43,0.764-0.642,1.236
		c-0.212,0.472-0.406,0.979-0.582,1.523L25.458,67h-1.116l0.78-2.484c0.152-0.479,0.278-0.878,0.378-1.193
		c0.1-0.316,0.178-0.58,0.234-0.792s0.094-0.378,0.114-0.498c0.02-0.12,0.03-0.224,0.03-0.313c0-0.176-0.06-0.264-0.18-0.264
		c-0.08,0-0.178,0.032-0.294,0.096c-0.116,0.064-0.23,0.145-0.342,0.24c-0.112,0.096-0.218,0.204-0.318,0.324
		c-0.1,0.12-0.174,0.236-0.222,0.348L24.21,62.307z"/>
	<path fill="#3E0106" d="M31.086,63.04c0.112-0.313,0.192-0.564,0.24-0.756c0.048-0.192,0.072-0.344,0.072-0.456
		s-0.018-0.187-0.054-0.222c-0.036-0.036-0.074-0.055-0.114-0.055c-0.088,0-0.184,0.042-0.288,0.126
		c-0.104,0.084-0.208,0.183-0.312,0.294c-0.104,0.112-0.196,0.225-0.276,0.336c-0.08,0.112-0.136,0.2-0.168,0.265l-0.348-0.216
		c0.096-0.177,0.229-0.372,0.402-0.589c0.172-0.216,0.366-0.415,0.582-0.6c0.216-0.184,0.44-0.338,0.672-0.462
		s0.452-0.187,0.66-0.187c0.2,0,0.35,0.059,0.45,0.175s0.15,0.326,0.15,0.63c0,0.231-0.07,0.544-0.21,0.936
		c-0.14,0.393-0.322,0.896-0.546,1.513l-0.444,1.212c-0.016,0.04-0.038,0.102-0.066,0.186c-0.028,0.084-0.056,0.172-0.084,0.264
		c-0.028,0.093-0.052,0.183-0.072,0.271s-0.03,0.16-0.03,0.216c0,0.072,0.02,0.136,0.06,0.192c0.04,0.056,0.104,0.084,0.192,0.084
		c0.12,0,0.244-0.05,0.372-0.15c0.128-0.1,0.252-0.218,0.372-0.354c0.12-0.137,0.228-0.274,0.324-0.414
		c0.096-0.141,0.168-0.25,0.216-0.33l0.36,0.204c-0.096,0.191-0.226,0.403-0.39,0.636s-0.35,0.446-0.558,0.642
		c-0.208,0.196-0.436,0.36-0.684,0.492s-0.504,0.198-0.768,0.198c-0.232,0-0.406-0.061-0.522-0.18
		c-0.116-0.12-0.174-0.32-0.174-0.601c0-0.231,0.038-0.481,0.114-0.75c0.076-0.268,0.186-0.605,0.33-1.014L31.086,63.04z
		 M32.85,58.551c-0.2,0-0.374-0.067-0.522-0.204c-0.148-0.136-0.222-0.312-0.222-0.527c0-0.217,0.072-0.4,0.216-0.553
		c0.144-0.151,0.32-0.228,0.528-0.228c0.224,0,0.408,0.076,0.552,0.228c0.144,0.152,0.216,0.332,0.216,0.54
		c0,0.209-0.076,0.385-0.228,0.528C33.238,58.48,33.058,58.551,32.85,58.551z"/>
	<path fill="#3E0106" d="M38.742,61.143c-0.192,0-0.41,0.099-0.654,0.295c-0.244,0.195-0.492,0.455-0.744,0.779
		s-0.494,0.694-0.726,1.11c-0.232,0.416-0.428,0.84-0.588,1.271L35.142,67h-1.056l0.888-2.748c0.144-0.439,0.264-0.816,0.36-1.128
		c0.096-0.313,0.174-0.574,0.234-0.786c0.06-0.212,0.102-0.384,0.126-0.516c0.024-0.132,0.036-0.238,0.036-0.318
		c0-0.216-0.068-0.324-0.204-0.324c-0.088,0-0.192,0.057-0.312,0.168c-0.12,0.112-0.242,0.259-0.366,0.438s-0.242,0.386-0.354,0.618
		c-0.112,0.231-0.208,0.468-0.288,0.708l-0.36-0.181c0.28-0.823,0.594-1.432,0.942-1.823c0.348-0.393,0.746-0.589,1.194-0.589
		c0.256,0,0.438,0.072,0.546,0.217c0.108,0.144,0.162,0.388,0.162,0.731c0,0.408-0.068,0.772-0.204,1.092l0.036,0.036
		c0.408-0.72,0.822-1.246,1.242-1.578c0.42-0.331,0.878-0.498,1.374-0.498c0.352,0,0.62,0.084,0.804,0.253
		c0.184,0.168,0.276,0.407,0.276,0.72c0,0.104-0.01,0.22-0.03,0.348s-0.054,0.282-0.102,0.462c-0.048,0.181-0.114,0.395-0.198,0.643
		s-0.186,0.552-0.306,0.912c-0.184,0.544-0.336,1-0.456,1.367c-0.12,0.368-0.18,0.629-0.18,0.78c0,0.12,0.04,0.18,0.12,0.18
		c0.112,0,0.276-0.092,0.492-0.275c0.216-0.185,0.508-0.48,0.876-0.889l0.312,0.169c-0.128,0.239-0.294,0.474-0.498,0.701
		c-0.204,0.229-0.416,0.435-0.636,0.618c-0.22,0.185-0.438,0.332-0.654,0.444c-0.216,0.111-0.404,0.168-0.564,0.168
		c-0.2,0-0.358-0.088-0.474-0.264c-0.116-0.177-0.174-0.408-0.174-0.696c0-0.112,0.01-0.227,0.03-0.342
		c0.02-0.116,0.062-0.282,0.126-0.498c0.064-0.217,0.158-0.506,0.282-0.87s0.294-0.847,0.51-1.446
		c0.072-0.208,0.132-0.384,0.18-0.528c0.048-0.144,0.086-0.27,0.114-0.378c0.028-0.107,0.048-0.201,0.06-0.281
		c0.012-0.08,0.018-0.156,0.018-0.229C39.066,61.292,38.958,61.143,38.742,61.143z"/>
	<path fill="#3E0106" d="M46.386,67.875c0,0.344-0.074,0.654-0.222,0.93c-0.148,0.276-0.36,0.513-0.636,0.708
		c-0.276,0.196-0.61,0.347-1.002,0.45c-0.392,0.104-0.832,0.156-1.32,0.156c-0.44,0-0.84-0.04-1.2-0.12
		c-0.36-0.08-0.67-0.196-0.93-0.348c-0.26-0.152-0.46-0.33-0.6-0.534s-0.21-0.435-0.21-0.69c0-0.328,0.106-0.6,0.318-0.815
		s0.482-0.324,0.81-0.324c0.096,0,0.188,0.012,0.276,0.036c0.088,0.023,0.2,0.067,0.336,0.132c-0.448,0.184-0.672,0.532-0.672,1.044
		c0,0.336,0.17,0.6,0.51,0.792c0.34,0.192,0.806,0.288,1.398,0.288c0.32,0,0.616-0.036,0.888-0.108
		c0.272-0.071,0.506-0.164,0.702-0.275c0.196-0.112,0.348-0.238,0.456-0.378c0.108-0.141,0.162-0.278,0.162-0.414
		c0-0.225-0.134-0.427-0.402-0.606s-0.646-0.313-1.134-0.401c-0.872-0.152-1.512-0.328-1.92-0.528c-0.408-0.2-0.612-0.48-0.612-0.84
		c0-0.232,0.102-0.428,0.306-0.588s0.57-0.32,1.098-0.48l0.024-0.048c-0.608-0.432-0.912-0.988-0.912-1.668
		c0-0.368,0.076-0.718,0.228-1.05s0.358-0.624,0.618-0.876c0.26-0.252,0.564-0.45,0.912-0.595c0.348-0.144,0.714-0.216,1.098-0.216
		c0.592,0,1.088,0.216,1.488,0.648c0.376-0.424,0.74-0.637,1.092-0.637c0.256,0,0.48,0.078,0.672,0.234
		c0.192,0.156,0.288,0.338,0.288,0.546c0,0.16-0.054,0.294-0.162,0.402c-0.108,0.107-0.242,0.162-0.402,0.162
		c-0.12,0-0.214-0.026-0.282-0.078c-0.068-0.052-0.126-0.11-0.174-0.174c-0.048-0.064-0.102-0.122-0.162-0.174
		c-0.06-0.053-0.142-0.078-0.246-0.078c-0.056,0-0.108,0.01-0.156,0.029c-0.048,0.021-0.136,0.074-0.264,0.162
		c0.04,0.112,0.068,0.219,0.084,0.318s0.024,0.226,0.024,0.378c0,0.88-0.244,1.582-0.732,2.105c-0.488,0.524-1.16,0.818-2.016,0.883
		c-0.384,0.031-0.658,0.08-0.822,0.144c-0.164,0.064-0.246,0.16-0.246,0.288c0,0.168,0.09,0.294,0.27,0.378
		c0.18,0.084,0.406,0.154,0.678,0.21c0.272,0.057,0.564,0.112,0.876,0.168c0.312,0.057,0.604,0.138,0.876,0.246
		s0.498,0.256,0.678,0.444C46.296,67.301,46.386,67.555,46.386,67.875z M43.866,64.708c0.192,0,0.38-0.076,0.564-0.228
		c0.184-0.152,0.35-0.354,0.498-0.606c0.148-0.252,0.266-0.538,0.354-0.858c0.088-0.319,0.132-0.647,0.132-0.983
		c0-0.32-0.072-0.574-0.216-0.763c-0.144-0.188-0.333-0.281-0.564-0.281c-0.184,0-0.372,0.082-0.564,0.246
		c-0.192,0.164-0.366,0.374-0.522,0.63c-0.156,0.256-0.282,0.546-0.378,0.87c-0.096,0.323-0.144,0.642-0.144,0.954
		c0,0.304,0.076,0.55,0.228,0.737C43.406,64.614,43.61,64.708,43.866,64.708z"/>
	<path fill="#3E0106" d="M55.422,65.068c-0.336,0.664-0.726,1.172-1.17,1.523c-0.444,0.353-0.918,0.528-1.422,0.528
		c-0.52,0-0.936-0.178-1.248-0.534c-0.312-0.355-0.468-0.83-0.468-1.422c0-0.352,0.052-0.712,0.156-1.08
		c0.104-0.368,0.244-0.724,0.42-1.068c0.176-0.344,0.384-0.668,0.624-0.972c0.24-0.304,0.496-0.568,0.768-0.792
		c0.271-0.224,0.554-0.402,0.846-0.534s0.578-0.198,0.858-0.198c0.384,0,0.7,0.104,0.948,0.313c0.248,0.208,0.372,0.468,0.372,0.78
		c0,0.2-0.058,0.361-0.174,0.485c-0.116,0.124-0.266,0.187-0.45,0.187c-0.184,0-0.334-0.059-0.45-0.174
		c-0.116-0.116-0.174-0.259-0.174-0.427c0-0.104,0.016-0.188,0.048-0.252c0.032-0.063,0.048-0.124,0.048-0.18
		c0-0.112-0.096-0.168-0.288-0.168c-0.264,0-0.532,0.124-0.804,0.372s-0.518,0.568-0.738,0.96c-0.22,0.392-0.4,0.83-0.54,1.314
		c-0.14,0.483-0.21,0.966-0.21,1.445c0,0.384,0.074,0.687,0.222,0.906s0.354,0.33,0.618,0.33c0.144,0,0.294-0.04,0.45-0.12
		c0.156-0.08,0.314-0.189,0.474-0.33c0.16-0.14,0.314-0.306,0.462-0.498c0.148-0.191,0.282-0.403,0.402-0.636L55.422,65.068z"/>
	<path fill="#3E0106" d="M56.49,62.307c0.088-0.199,0.222-0.405,0.402-0.617c0.18-0.212,0.376-0.404,0.588-0.576
		c0.212-0.172,0.426-0.314,0.642-0.426c0.216-0.112,0.404-0.169,0.564-0.169c0.192,0,0.332,0.072,0.42,0.217
		c0.088,0.144,0.132,0.376,0.132,0.695c0,0.129-0.006,0.252-0.018,0.372c-0.012,0.12-0.034,0.261-0.066,0.42l0.036,0.036
		c0.096-0.231,0.232-0.46,0.408-0.684s0.366-0.422,0.57-0.594c0.204-0.172,0.412-0.313,0.624-0.421
		c0.212-0.107,0.41-0.161,0.594-0.161c0.232,0,0.426,0.073,0.582,0.222c0.156,0.148,0.234,0.33,0.234,0.546
		c0,0.208-0.066,0.38-0.198,0.516c-0.132,0.137-0.302,0.204-0.51,0.204c-0.128,0-0.23-0.023-0.306-0.071
		c-0.076-0.049-0.142-0.099-0.198-0.15s-0.108-0.102-0.156-0.15c-0.048-0.048-0.108-0.071-0.18-0.071
		c-0.152,0-0.328,0.102-0.528,0.306c-0.2,0.204-0.408,0.482-0.624,0.834c-0.216,0.353-0.43,0.764-0.642,1.236
		c-0.212,0.472-0.406,0.979-0.582,1.523L57.738,67h-1.116l0.78-2.484c0.152-0.479,0.278-0.878,0.378-1.193
		c0.1-0.316,0.178-0.58,0.234-0.792s0.094-0.378,0.114-0.498c0.02-0.12,0.03-0.224,0.03-0.313c0-0.176-0.06-0.264-0.18-0.264
		c-0.08,0-0.178,0.032-0.294,0.096c-0.116,0.064-0.23,0.145-0.342,0.24c-0.112,0.096-0.218,0.204-0.318,0.324
		c-0.1,0.12-0.174,0.236-0.222,0.348L56.49,62.307z"/>
	<path fill="#3E0106" d="M63.366,63.04c0.112-0.313,0.192-0.564,0.24-0.756c0.048-0.192,0.072-0.344,0.072-0.456
		s-0.018-0.187-0.054-0.222c-0.036-0.036-0.074-0.055-0.114-0.055c-0.088,0-0.184,0.042-0.288,0.126
		c-0.104,0.084-0.208,0.183-0.312,0.294c-0.104,0.112-0.196,0.225-0.276,0.336c-0.08,0.112-0.136,0.2-0.168,0.265l-0.348-0.216
		c0.096-0.177,0.229-0.372,0.402-0.589c0.172-0.216,0.366-0.415,0.582-0.6c0.216-0.184,0.44-0.338,0.672-0.462
		s0.452-0.187,0.66-0.187c0.2,0,0.35,0.059,0.45,0.175s0.15,0.326,0.15,0.63c0,0.231-0.07,0.544-0.21,0.936
		c-0.14,0.393-0.322,0.896-0.546,1.513l-0.444,1.212c-0.016,0.04-0.038,0.102-0.066,0.186c-0.028,0.084-0.056,0.172-0.084,0.264
		c-0.028,0.093-0.052,0.183-0.072,0.271s-0.03,0.16-0.03,0.216c0,0.072,0.02,0.136,0.06,0.192c0.04,0.056,0.104,0.084,0.192,0.084
		c0.12,0,0.244-0.05,0.372-0.15c0.128-0.1,0.252-0.218,0.372-0.354c0.12-0.137,0.228-0.274,0.324-0.414
		c0.096-0.141,0.168-0.25,0.216-0.33l0.36,0.204c-0.096,0.191-0.226,0.403-0.39,0.636s-0.35,0.446-0.558,0.642
		c-0.208,0.196-0.436,0.36-0.684,0.492s-0.504,0.198-0.768,0.198c-0.232,0-0.406-0.061-0.522-0.18
		c-0.116-0.12-0.174-0.32-0.174-0.601c0-0.231,0.038-0.481,0.114-0.75c0.076-0.268,0.186-0.605,0.33-1.014L63.366,63.04z
		 M65.13,58.551c-0.2,0-0.374-0.067-0.522-0.204c-0.148-0.136-0.222-0.312-0.222-0.527c0-0.217,0.072-0.4,0.216-0.553
		c0.144-0.151,0.32-0.228,0.528-0.228c0.224,0,0.408,0.076,0.552,0.228c0.144,0.152,0.216,0.332,0.216,0.54
		c0,0.209-0.076,0.385-0.228,0.528C65.518,58.48,65.338,58.551,65.13,58.551z"/>
	<path fill="#3E0106" d="M66.846,62.356c0-0.265,0.05-0.509,0.15-0.732c0.1-0.224,0.238-0.418,0.414-0.582
		c0.176-0.164,0.386-0.292,0.63-0.384c0.244-0.092,0.51-0.139,0.798-0.139c0.384,0,0.704,0.097,0.96,0.288
		c0.256,0.192,0.384,0.44,0.384,0.744c0,0.168-0.046,0.3-0.138,0.396c-0.092,0.096-0.218,0.144-0.378,0.144
		c-0.184,0-0.316-0.054-0.396-0.162c-0.08-0.107-0.148-0.228-0.204-0.359c-0.056-0.132-0.116-0.254-0.18-0.366
		s-0.172-0.168-0.324-0.168c-0.176,0-0.324,0.076-0.444,0.228c-0.12,0.152-0.18,0.341-0.18,0.564c0,0.264,0.078,0.51,0.234,0.738
		c0.156,0.228,0.33,0.466,0.522,0.714s0.366,0.52,0.522,0.815c0.156,0.296,0.234,0.645,0.234,1.044c0,0.272-0.058,0.528-0.174,0.769
		c-0.116,0.24-0.272,0.45-0.468,0.63c-0.196,0.18-0.422,0.322-0.678,0.426c-0.256,0.104-0.52,0.156-0.792,0.156
		c-0.48,0-0.862-0.104-1.146-0.313s-0.426-0.479-0.426-0.815c0-0.232,0.054-0.414,0.162-0.546s0.254-0.198,0.438-0.198
		c0.344,0,0.54,0.236,0.588,0.708c0.024,0.256,0.066,0.426,0.126,0.51c0.06,0.084,0.182,0.126,0.366,0.126
		c0.288,0,0.516-0.086,0.684-0.258s0.252-0.41,0.252-0.714c0-0.32-0.08-0.604-0.24-0.853c-0.16-0.247-0.336-0.489-0.528-0.726
		s-0.368-0.486-0.528-0.75C66.926,63.028,66.846,62.715,66.846,62.356z"/>
	<path fill="#3E0106" d="M72.065,63.04c0.112-0.313,0.192-0.564,0.24-0.756c0.048-0.192,0.072-0.344,0.072-0.456
		s-0.018-0.187-0.054-0.222c-0.036-0.036-0.074-0.055-0.114-0.055c-0.088,0-0.184,0.042-0.288,0.126
		c-0.104,0.084-0.208,0.183-0.312,0.294c-0.104,0.112-0.196,0.225-0.276,0.336c-0.08,0.112-0.136,0.2-0.168,0.265l-0.348-0.216
		c0.096-0.177,0.229-0.372,0.402-0.589c0.172-0.216,0.366-0.415,0.582-0.6c0.216-0.184,0.44-0.338,0.672-0.462
		s0.452-0.187,0.66-0.187c0.2,0,0.35,0.059,0.45,0.175s0.15,0.326,0.15,0.63c0,0.231-0.07,0.544-0.21,0.936
		c-0.14,0.393-0.322,0.896-0.546,1.513l-0.444,1.212c-0.016,0.04-0.038,0.102-0.066,0.186c-0.028,0.084-0.056,0.172-0.084,0.264
		c-0.028,0.093-0.052,0.183-0.072,0.271s-0.03,0.16-0.03,0.216c0,0.072,0.02,0.136,0.06,0.192c0.04,0.056,0.104,0.084,0.192,0.084
		c0.12,0,0.244-0.05,0.372-0.15c0.128-0.1,0.252-0.218,0.372-0.354c0.12-0.137,0.228-0.274,0.324-0.414
		c0.096-0.141,0.168-0.25,0.216-0.33l0.36,0.204c-0.096,0.191-0.226,0.403-0.39,0.636s-0.35,0.446-0.558,0.642
		c-0.208,0.196-0.436,0.36-0.684,0.492s-0.504,0.198-0.768,0.198c-0.232,0-0.406-0.061-0.522-0.18
		c-0.116-0.12-0.174-0.32-0.174-0.601c0-0.231,0.038-0.481,0.114-0.75c0.076-0.268,0.186-0.605,0.33-1.014L72.065,63.04z
		 M73.83,58.551c-0.2,0-0.374-0.067-0.522-0.204c-0.148-0.136-0.222-0.312-0.222-0.527c0-0.217,0.072-0.4,0.216-0.553
		c0.144-0.151,0.32-0.228,0.528-0.228c0.224,0,0.408,0.076,0.552,0.228c0.144,0.152,0.216,0.332,0.216,0.54
		c0,0.209-0.076,0.385-0.228,0.528C74.218,58.48,74.038,58.551,73.83,58.551z"/>
	<path fill="#3E0106" d="M75.545,62.356c0-0.265,0.05-0.509,0.15-0.732c0.1-0.224,0.238-0.418,0.414-0.582
		c0.176-0.164,0.386-0.292,0.63-0.384c0.244-0.092,0.51-0.139,0.798-0.139c0.384,0,0.704,0.097,0.96,0.288
		c0.256,0.192,0.384,0.44,0.384,0.744c0,0.168-0.046,0.3-0.138,0.396c-0.092,0.096-0.218,0.144-0.378,0.144
		c-0.184,0-0.316-0.054-0.396-0.162c-0.08-0.107-0.148-0.228-0.204-0.359c-0.056-0.132-0.116-0.254-0.18-0.366
		s-0.172-0.168-0.324-0.168c-0.176,0-0.324,0.076-0.444,0.228c-0.12,0.152-0.18,0.341-0.18,0.564c0,0.264,0.078,0.51,0.234,0.738
		c0.156,0.228,0.33,0.466,0.522,0.714s0.366,0.52,0.522,0.815c0.156,0.296,0.234,0.645,0.234,1.044c0,0.272-0.058,0.528-0.174,0.769
		c-0.116,0.24-0.272,0.45-0.468,0.63c-0.196,0.18-0.422,0.322-0.678,0.426c-0.256,0.104-0.52,0.156-0.792,0.156
		c-0.48,0-0.862-0.104-1.146-0.313s-0.426-0.479-0.426-0.815c0-0.232,0.054-0.414,0.162-0.546s0.254-0.198,0.438-0.198
		c0.344,0,0.54,0.236,0.588,0.708c0.024,0.256,0.066,0.426,0.126,0.51c0.06,0.084,0.182,0.126,0.366,0.126
		c0.288,0,0.516-0.086,0.684-0.258s0.252-0.41,0.252-0.714c0-0.32-0.08-0.604-0.24-0.853c-0.16-0.247-0.336-0.489-0.528-0.726
		s-0.368-0.486-0.528-0.75C75.625,63.028,75.545,62.715,75.545,62.356z"/>
</g>
<g  data-anchor-target="#section5"
	data--4050-top="opacity:0;"
	data--4100-top="opacity:0.5;"
	data--5000-top="opacity:0.5;"
	data--5050-top="opacity:0;">
	<path  fill="#3E0106" d="M22.808,107.841c0,0.283,0.021,0.566,0.064,0.842c0.4,2.588,2.644,4.563,5.298,4.738v-11.158
		C25.181,102.456,22.808,104.88,22.808,107.841z"/>
	<path  fill="#3E0106" d="M15.203,94.354v-2.211h-5.033v6.955h0.063l-0.835,0.799l-0.292,0.281
		c-2.396,2.311-4.774,4.637-7.156,6.959c-0.132,0.129-0.254,0.268-0.465,0.49c2.752,0,5.353,0,8.015,0c0,7.189,0,14.344,0,21.494
		c6.235,0,12.455,0,18.672,0v-7.904h-0.597v-2.457h-2.009v-1.91h2.009v-1.566c-3.354-0.424-6.126-2.998-6.639-6.316
		c-0.057-0.371-0.086-0.75-0.086-1.127c0-4.014,3.252-7.291,7.322-7.488V82.524c-3.527,3.185-7.036,6.354-10.643,9.611
		L15.203,94.354z"/>
</g>
<path   data-anchor-target="#section5"
	data--4100-top="opacity:0;"
	data--4150-top="opacity:0.25;"
	data--4950-top="opacity:0.25;"
	data--5000-top="opacity:0;" opacity="0.25" fill="#3E0106" d="M28.936,82.46v17.893v1.91v11.156v7.799v7.904c6.258,0,12.513,0,18.779,0
	c0-7.182,0-14.322,0-21.5c2.641,0,5.241,0,7.841,0c0.021-0.041,0.044-0.082,0.066-0.123C46.735,99.159,37.848,90.821,28.936,82.46z"
	/>
<path   data-anchor-target="#section5"
	data--4150-top="opacity:0;"
	data--4200-top="opacity:0.25;"
	data--4900-top="opacity:0.25;"
	data--4950-top="opacity:0;" opacity="0.25" fill="#3E0106" d="M92.843,82.024c-3.67,3.315-7.315,6.607-11.068,9.996l-1.449,1.384V91.44h-5.033v6.771
	l-1.939,1.852c-2.396,2.311-4.774,4.637-7.156,6.959c-0.132,0.129-0.254,0.268-0.465,0.49c2.752,0,5.353,0,8.015,0
	c0,7.189,0,14.342,0,21.494c12.766,0,25.471,0,38.218,0c0-7.182,0-14.322,0-21.498c2.641,0,5.241,0,7.841,0
	c0.022-0.043,0.043-0.084,0.065-0.125C110.87,98.938,101.87,90.493,92.843,82.024z"/>
<path   data-anchor-target="#section5"
	data--4200-top="opacity:0;"
	data--4250-top="opacity:0.25;"
	data--4850-top="opacity:0.25;"
	data--4900-top="opacity:0;" opacity="0.25" fill="#3E0106" d="M156.76,82.024c-3.67,3.315-7.316,6.607-11.069,9.996l-1.449,1.384V91.44h-5.034v6.771
	l-1.94,1.852c-2.396,2.311-4.773,4.637-7.156,6.959c-0.132,0.129-0.254,0.268-0.465,0.49c2.751,0,5.353,0,8.014,0
	c0,7.189,0,14.342,0,21.494c12.767,0,25.472,0,38.217,0c0-7.182,0-14.322,0-21.498c2.643,0,5.242,0,7.843,0
	c0.021-0.043,0.044-0.084,0.065-0.125C174.787,98.938,165.786,90.493,156.76,82.024z"/>
<path   data-anchor-target="#section5"
	data--4250-top="opacity:0;"
	data--4300-top="opacity:0.25;"
	data--4800-top="opacity:0.25;"
	data--4850-top="opacity:0;" opacity="0.25" fill="#3E0106" d="M220.676,82.024c-3.67,3.315-7.316,6.607-11.068,9.996l-1.449,1.384V91.44h-5.033v6.771
	l-1.939,1.852c-2.396,2.311-4.773,4.637-7.156,6.959c-0.133,0.129-0.254,0.268-0.465,0.49c2.752,0,5.353,0,8.014,0
	c0,7.189,0,14.342,0,21.494c12.768,0,25.472,0,38.218,0c0-7.182,0-14.322,0-21.498c2.642,0,5.242,0,7.842,0
	c0.022-0.043,0.044-0.084,0.065-0.125C238.704,98.938,229.703,90.493,220.676,82.024z"/>
<path data-anchor-target="#section5"
	data--4300-top="opacity:0;"
	data--4350-top="opacity:0.25;"
	data--4750-top="opacity:0.25;"
	data--4780-top="opacity:0;" opacity="0.25" fill="#3E0106" d="M284.593,82.024c-3.67,3.315-7.316,6.607-11.068,9.996l-1.449,1.384V91.44h-5.033v6.771
	l-1.94,1.852c-2.396,2.311-4.773,4.637-7.155,6.959c-0.133,0.129-0.254,0.268-0.466,0.49c2.752,0,5.354,0,8.015,0
	c0,7.189,0,14.342,0,21.494c12.767,0,25.472,0,38.218,0c0-7.182,0-14.322,0-21.498c2.642,0,5.241,0,7.842,0
	c0.021-0.043,0.044-0.084,0.065-0.125C302.62,98.938,293.62,90.493,284.593,82.024z"/>
<g data-anchor-target="#section5"
	data--4350-top="opacity:0;"
	data--4400-top="opacity:0.5;"
	data--4700-top="opacity:0.5;"
	data--4750-top="opacity:0;" opacity="0.5" enable-background="new    ">
	<path fill="#3E0106" d="M12.115,144.671l0.036,0.025c0.232-0.369,0.522-0.654,0.87-0.859c0.348-0.203,0.718-0.305,1.11-0.305
		c0.488,0,0.864,0.15,1.128,0.455c0.264,0.305,0.396,0.721,0.396,1.248c0,0.377-0.056,0.76-0.168,1.152
		c-0.112,0.393-0.266,0.768-0.462,1.127c-0.196,0.361-0.426,0.699-0.69,1.016c-0.264,0.314-0.546,0.592-0.846,0.828
		c-0.3,0.234-0.616,0.422-0.948,0.557c-0.332,0.137-0.658,0.205-0.978,0.205c-0.456,0-0.83-0.139-1.122-0.414
		c-0.292-0.277-0.438-0.635-0.438-1.074c0-0.209,0.044-0.502,0.132-0.883c0.088-0.379,0.216-0.834,0.384-1.361l1.452-4.68
		c0.04-0.145,0.08-0.291,0.12-0.439c0.04-0.146,0.06-0.258,0.06-0.328c0-0.281-0.308-0.422-0.924-0.422l0.108-0.359l2.304-0.107
		L12.115,144.671z M11.754,149.507c0.184,0,0.38-0.064,0.588-0.197s0.412-0.311,0.612-0.533c0.2-0.225,0.392-0.484,0.576-0.781
		c0.184-0.295,0.344-0.605,0.48-0.93c0.136-0.324,0.246-0.652,0.33-0.984s0.126-0.645,0.126-0.941c0-0.279-0.064-0.512-0.192-0.695
		c-0.128-0.186-0.284-0.277-0.468-0.277c-0.176,0-0.366,0.066-0.57,0.199c-0.204,0.131-0.404,0.311-0.6,0.539
		c-0.196,0.229-0.384,0.488-0.564,0.779c-0.18,0.293-0.34,0.602-0.48,0.926c-0.14,0.322-0.25,0.648-0.33,0.977
		c-0.08,0.328-0.12,0.641-0.12,0.938C11.143,149.179,11.347,149.507,11.754,149.507z"/>
	<path fill="#3E0106" d="M20.527,148.403c-0.696,1.145-1.552,1.717-2.568,1.717c-0.552,0-0.976-0.17-1.272-0.51
		s-0.444-0.822-0.444-1.447c0-0.551,0.114-1.104,0.342-1.656c0.228-0.551,0.526-1.049,0.894-1.494
		c0.368-0.443,0.78-0.803,1.236-1.08c0.456-0.275,0.912-0.414,1.368-0.414c0.384,0,0.698,0.1,0.942,0.295
		c0.244,0.195,0.366,0.445,0.366,0.75c0,0.279-0.104,0.568-0.312,0.863c-0.208,0.297-0.49,0.576-0.846,0.84
		c-0.356,0.266-0.772,0.506-1.248,0.721c-0.476,0.217-0.982,0.385-1.518,0.504c-0.016,0.113-0.028,0.223-0.036,0.33
		s-0.012,0.219-0.012,0.33c0,0.873,0.308,1.309,0.924,1.309c0.296,0,0.602-0.117,0.918-0.348c0.316-0.232,0.61-0.553,0.882-0.961
		L20.527,148.403z M19.843,144.083c-0.208,0-0.424,0.08-0.648,0.24c-0.224,0.16-0.438,0.375-0.642,0.643s-0.39,0.574-0.558,0.918
		s-0.304,0.699-0.408,1.068c0.384-0.105,0.74-0.24,1.068-0.408c0.328-0.168,0.61-0.357,0.846-0.57
		c0.236-0.213,0.422-0.436,0.558-0.672s0.204-0.475,0.204-0.715C20.263,144.251,20.123,144.083,19.843,144.083z"/>
	<path fill="#3E0106" d="M23.371,149.124c-0.208,0.816-0.417,1.482-0.624,1.998c-0.208,0.516-0.432,0.922-0.672,1.217
		c-0.24,0.297-0.498,0.5-0.774,0.613c-0.276,0.111-0.586,0.168-0.93,0.168c-0.336,0-0.612-0.088-0.828-0.264
		c-0.216-0.178-0.324-0.393-0.324-0.648c0-0.201,0.052-0.359,0.156-0.475s0.248-0.174,0.432-0.174c0.168,0,0.284,0.043,0.348,0.133
		c0.064,0.088,0.118,0.184,0.162,0.287s0.094,0.199,0.15,0.287c0.056,0.088,0.164,0.133,0.324,0.133
		c0.184,0,0.352-0.096,0.504-0.287c0.152-0.193,0.268-0.445,0.348-0.756l1.74-6.758H22.23l0.156-0.551h1.14
		c0.176-0.721,0.368-1.332,0.576-1.836c0.208-0.504,0.432-0.918,0.672-1.242c0.24-0.324,0.496-0.561,0.768-0.709
		c0.272-0.146,0.564-0.221,0.876-0.221c0.472,0,0.86,0.098,1.164,0.293c0.304,0.197,0.456,0.443,0.456,0.738
		c0,0.184-0.05,0.34-0.15,0.469c-0.1,0.127-0.242,0.191-0.426,0.191c-0.152,0-0.27-0.027-0.354-0.084s-0.148-0.127-0.192-0.217
		c-0.044-0.088-0.076-0.18-0.096-0.275s-0.046-0.188-0.078-0.275c-0.032-0.088-0.08-0.16-0.144-0.217
		c-0.064-0.055-0.16-0.084-0.288-0.084c-0.16,0-0.318,0.086-0.474,0.258c-0.156,0.172-0.306,0.412-0.45,0.721
		s-0.28,0.674-0.408,1.098c-0.128,0.424-0.244,0.889-0.348,1.393h1.212l-0.168,0.551h-1.176L23.371,149.124z"/>
	<path fill="#3E0106" d="M27.739,150.12c-0.272,0-0.526-0.055-0.762-0.162c-0.236-0.109-0.442-0.266-0.618-0.475
		c-0.176-0.207-0.316-0.461-0.42-0.762s-0.156-0.639-0.156-1.014c0-0.52,0.098-1.033,0.294-1.537
		c0.196-0.504,0.454-0.951,0.774-1.344c0.32-0.391,0.686-0.707,1.098-0.947c0.412-0.24,0.838-0.361,1.278-0.361
		c0.288,0,0.554,0.055,0.798,0.162c0.244,0.109,0.452,0.266,0.624,0.469c0.172,0.203,0.308,0.447,0.408,0.732
		c0.1,0.283,0.15,0.598,0.15,0.941c0,0.504-0.1,1.012-0.3,1.523c-0.2,0.514-0.462,0.973-0.786,1.381s-0.694,0.742-1.11,1.002
		C28.595,149.989,28.17,150.12,27.739,150.12z M27.811,149.519c0.272,0,0.542-0.139,0.81-0.42c0.268-0.279,0.508-0.633,0.72-1.061
		c0.212-0.428,0.384-0.895,0.516-1.398c0.132-0.504,0.198-0.984,0.198-1.439c0-0.424-0.074-0.717-0.222-0.877s-0.35-0.24-0.606-0.24
		c-0.176,0-0.354,0.063-0.534,0.186c-0.18,0.125-0.35,0.295-0.51,0.512c-0.16,0.215-0.31,0.463-0.45,0.744
		c-0.14,0.279-0.262,0.574-0.366,0.887s-0.184,0.631-0.24,0.955c-0.056,0.324-0.084,0.633-0.084,0.93
		c0,0.447,0.072,0.764,0.216,0.947S27.586,149.519,27.811,149.519z"/>
	<path fill="#3E0106" d="M32.022,145.308c0.088-0.199,0.222-0.406,0.402-0.617c0.18-0.213,0.376-0.404,0.588-0.576
		c0.212-0.172,0.426-0.314,0.642-0.426c0.216-0.113,0.404-0.17,0.564-0.17c0.192,0,0.332,0.072,0.42,0.217
		c0.088,0.145,0.132,0.377,0.132,0.695c0,0.129-0.006,0.252-0.018,0.373c-0.012,0.119-0.034,0.26-0.066,0.42l0.036,0.035
		c0.096-0.23,0.232-0.459,0.408-0.684c0.176-0.223,0.366-0.422,0.57-0.594c0.204-0.172,0.412-0.313,0.624-0.42
		c0.212-0.107,0.41-0.162,0.594-0.162c0.232,0,0.426,0.074,0.582,0.223c0.156,0.148,0.234,0.33,0.234,0.545
		c0,0.209-0.066,0.381-0.198,0.516c-0.132,0.137-0.302,0.205-0.51,0.205c-0.128,0-0.23-0.023-0.306-0.072
		c-0.076-0.049-0.142-0.098-0.198-0.15c-0.056-0.051-0.108-0.102-0.156-0.15c-0.048-0.047-0.108-0.07-0.18-0.07
		c-0.152,0-0.328,0.102-0.528,0.305c-0.2,0.205-0.408,0.482-0.624,0.834c-0.216,0.354-0.43,0.764-0.642,1.236
		s-0.406,0.98-0.582,1.523l-0.54,1.656h-1.116l0.78-2.484c0.152-0.479,0.278-0.877,0.378-1.193s0.178-0.58,0.234-0.791
		c0.056-0.213,0.094-0.379,0.114-0.498c0.02-0.121,0.03-0.225,0.03-0.313c0-0.176-0.06-0.264-0.18-0.264
		c-0.08,0-0.178,0.031-0.294,0.096c-0.116,0.064-0.23,0.145-0.342,0.24c-0.112,0.096-0.218,0.203-0.318,0.324
		c-0.1,0.119-0.174,0.236-0.222,0.348L32.022,145.308z"/>
	<path fill="#3E0106" d="M41.599,148.403c-0.696,1.145-1.552,1.717-2.568,1.717c-0.552,0-0.976-0.17-1.272-0.51
		s-0.444-0.822-0.444-1.447c0-0.551,0.114-1.104,0.342-1.656c0.228-0.551,0.526-1.049,0.894-1.494
		c0.368-0.443,0.78-0.803,1.236-1.08c0.456-0.275,0.912-0.414,1.368-0.414c0.384,0,0.698,0.1,0.942,0.295
		c0.244,0.195,0.366,0.445,0.366,0.75c0,0.279-0.104,0.568-0.312,0.863c-0.208,0.297-0.49,0.576-0.846,0.84
		c-0.356,0.266-0.772,0.506-1.248,0.721c-0.476,0.217-0.982,0.385-1.518,0.504c-0.016,0.113-0.028,0.223-0.036,0.33
		s-0.012,0.219-0.012,0.33c0,0.873,0.308,1.309,0.924,1.309c0.296,0,0.602-0.117,0.918-0.348c0.316-0.232,0.61-0.553,0.882-0.961
		L41.599,148.403z M40.915,144.083c-0.208,0-0.424,0.08-0.648,0.24c-0.224,0.16-0.438,0.375-0.642,0.643s-0.39,0.574-0.558,0.918
		s-0.304,0.699-0.408,1.068c0.384-0.105,0.74-0.24,1.068-0.408c0.328-0.168,0.61-0.357,0.846-0.57
		c0.236-0.213,0.422-0.436,0.558-0.672s0.204-0.475,0.204-0.715C41.334,144.251,41.194,144.083,40.915,144.083z"/>
	<path fill="#3E0106" d="M50.395,148.067c-0.336,0.664-0.726,1.172-1.17,1.523c-0.444,0.354-0.918,0.529-1.422,0.529
		c-0.52,0-0.936-0.178-1.248-0.535c-0.312-0.355-0.468-0.83-0.468-1.422c0-0.352,0.052-0.711,0.156-1.08
		c0.104-0.367,0.244-0.723,0.42-1.068c0.176-0.344,0.384-0.668,0.624-0.971c0.24-0.305,0.496-0.568,0.768-0.793
		c0.271-0.223,0.554-0.402,0.846-0.533c0.292-0.133,0.578-0.199,0.858-0.199c0.384,0,0.7,0.105,0.948,0.313
		c0.248,0.209,0.372,0.469,0.372,0.781c0,0.199-0.058,0.361-0.174,0.484c-0.116,0.125-0.266,0.188-0.45,0.188
		c-0.184,0-0.334-0.059-0.45-0.174c-0.116-0.117-0.174-0.26-0.174-0.428c0-0.104,0.016-0.188,0.048-0.252
		c0.032-0.063,0.048-0.123,0.048-0.18c0-0.111-0.096-0.168-0.288-0.168c-0.264,0-0.532,0.125-0.804,0.373s-0.518,0.568-0.738,0.959
		c-0.22,0.393-0.4,0.83-0.54,1.314c-0.14,0.484-0.21,0.967-0.21,1.445c0,0.385,0.074,0.688,0.222,0.906
		c0.148,0.221,0.354,0.33,0.618,0.33c0.144,0,0.294-0.039,0.45-0.119c0.156-0.08,0.314-0.189,0.474-0.33s0.314-0.307,0.462-0.498
		s0.282-0.404,0.402-0.637L50.395,148.067z"/>
	<path fill="#3E0106" d="M51.462,145.308c0.088-0.199,0.222-0.406,0.402-0.617c0.18-0.213,0.376-0.404,0.588-0.576
		c0.212-0.172,0.426-0.314,0.642-0.426c0.216-0.113,0.404-0.17,0.564-0.17c0.192,0,0.332,0.072,0.42,0.217
		c0.088,0.145,0.132,0.377,0.132,0.695c0,0.129-0.006,0.252-0.018,0.373c-0.012,0.119-0.034,0.26-0.066,0.42l0.036,0.035
		c0.096-0.23,0.232-0.459,0.408-0.684c0.176-0.223,0.366-0.422,0.57-0.594c0.204-0.172,0.412-0.313,0.624-0.42
		c0.212-0.107,0.41-0.162,0.594-0.162c0.232,0,0.426,0.074,0.582,0.223c0.156,0.148,0.234,0.33,0.234,0.545
		c0,0.209-0.066,0.381-0.198,0.516c-0.132,0.137-0.302,0.205-0.51,0.205c-0.128,0-0.23-0.023-0.306-0.072
		c-0.076-0.049-0.142-0.098-0.198-0.15c-0.056-0.051-0.108-0.102-0.156-0.15c-0.048-0.047-0.108-0.07-0.18-0.07
		c-0.152,0-0.328,0.102-0.528,0.305c-0.2,0.205-0.408,0.482-0.624,0.834c-0.216,0.354-0.43,0.764-0.642,1.236
		s-0.406,0.98-0.582,1.523l-0.54,1.656h-1.116l0.78-2.484c0.152-0.479,0.278-0.877,0.378-1.193s0.178-0.58,0.234-0.791
		c0.056-0.213,0.094-0.379,0.114-0.498c0.02-0.121,0.03-0.225,0.03-0.313c0-0.176-0.06-0.264-0.18-0.264
		c-0.08,0-0.178,0.031-0.294,0.096c-0.116,0.064-0.23,0.145-0.342,0.24c-0.112,0.096-0.218,0.203-0.318,0.324
		c-0.1,0.119-0.174,0.236-0.222,0.348L51.462,145.308z"/>
	<path fill="#3E0106" d="M58.338,146.04c0.112-0.313,0.192-0.564,0.24-0.756c0.048-0.193,0.072-0.344,0.072-0.457
		c0-0.111-0.018-0.186-0.054-0.221c-0.036-0.037-0.074-0.055-0.114-0.055c-0.088,0-0.184,0.041-0.288,0.125
		c-0.104,0.084-0.208,0.184-0.312,0.295c-0.104,0.111-0.196,0.225-0.276,0.336s-0.136,0.199-0.168,0.264l-0.348-0.215
		c0.096-0.178,0.229-0.373,0.402-0.59c0.172-0.215,0.366-0.414,0.582-0.6c0.216-0.184,0.44-0.338,0.672-0.461
		c0.232-0.125,0.452-0.188,0.66-0.188c0.2,0,0.35,0.059,0.45,0.176c0.1,0.115,0.15,0.326,0.15,0.629c0,0.232-0.07,0.545-0.21,0.936
		c-0.14,0.393-0.322,0.896-0.546,1.514l-0.444,1.211c-0.016,0.041-0.038,0.102-0.066,0.186c-0.028,0.084-0.056,0.172-0.084,0.264
		c-0.028,0.094-0.052,0.184-0.072,0.271s-0.03,0.16-0.03,0.215c0,0.072,0.02,0.137,0.06,0.193c0.04,0.055,0.104,0.084,0.192,0.084
		c0.12,0,0.244-0.051,0.372-0.15s0.252-0.219,0.372-0.354c0.12-0.137,0.228-0.275,0.324-0.414c0.096-0.141,0.168-0.25,0.216-0.33
		l0.36,0.203c-0.096,0.191-0.226,0.404-0.39,0.637s-0.35,0.445-0.558,0.641c-0.208,0.197-0.436,0.361-0.684,0.492
		c-0.248,0.133-0.504,0.199-0.768,0.199c-0.232,0-0.406-0.061-0.522-0.18c-0.116-0.121-0.174-0.32-0.174-0.602
		c0-0.23,0.038-0.48,0.114-0.75c0.076-0.268,0.186-0.605,0.33-1.014L58.338,146.04z M60.102,141.552c-0.2,0-0.374-0.068-0.522-0.205
		c-0.148-0.135-0.222-0.311-0.222-0.527s0.072-0.4,0.216-0.553c0.144-0.15,0.32-0.227,0.528-0.227c0.224,0,0.408,0.076,0.552,0.227
		c0.144,0.152,0.216,0.332,0.216,0.541s-0.076,0.385-0.228,0.527C60.49,141.479,60.31,141.552,60.102,141.552z"/>
	<path fill="#3E0106" d="M61.818,145.356c0-0.266,0.05-0.51,0.15-0.732c0.1-0.225,0.238-0.418,0.414-0.582
		c0.176-0.164,0.386-0.293,0.63-0.385c0.244-0.092,0.51-0.139,0.798-0.139c0.384,0,0.704,0.098,0.96,0.289s0.384,0.439,0.384,0.744
		c0,0.168-0.046,0.299-0.138,0.396c-0.092,0.096-0.218,0.143-0.378,0.143c-0.184,0-0.316-0.053-0.396-0.162
		c-0.08-0.107-0.148-0.227-0.204-0.359c-0.056-0.131-0.116-0.254-0.18-0.365c-0.064-0.113-0.172-0.168-0.324-0.168
		c-0.176,0-0.324,0.076-0.444,0.227c-0.12,0.152-0.18,0.342-0.18,0.564c0,0.264,0.078,0.51,0.234,0.738s0.33,0.467,0.522,0.715
		s0.366,0.52,0.522,0.814c0.156,0.297,0.234,0.645,0.234,1.045c0,0.271-0.058,0.527-0.174,0.768
		c-0.116,0.24-0.272,0.451-0.468,0.631c-0.196,0.18-0.422,0.322-0.678,0.426c-0.256,0.104-0.52,0.156-0.792,0.156
		c-0.48,0-0.862-0.105-1.146-0.313c-0.284-0.209-0.426-0.48-0.426-0.816c0-0.232,0.054-0.414,0.162-0.545
		c0.108-0.133,0.254-0.199,0.438-0.199c0.344,0,0.54,0.236,0.588,0.709c0.024,0.256,0.066,0.426,0.126,0.51
		c0.06,0.084,0.182,0.125,0.366,0.125c0.288,0,0.516-0.086,0.684-0.258s0.252-0.41,0.252-0.713c0-0.32-0.08-0.605-0.24-0.854
		c-0.16-0.246-0.336-0.488-0.528-0.725s-0.368-0.486-0.528-0.75C61.898,146.028,61.818,145.716,61.818,145.356z"/>
	<path fill="#3E0106" d="M67.038,146.04c0.112-0.313,0.192-0.564,0.24-0.756c0.048-0.193,0.072-0.344,0.072-0.457
		c0-0.111-0.018-0.186-0.054-0.221c-0.036-0.037-0.074-0.055-0.114-0.055c-0.088,0-0.184,0.041-0.288,0.125
		c-0.104,0.084-0.208,0.184-0.312,0.295c-0.104,0.111-0.196,0.225-0.276,0.336s-0.136,0.199-0.168,0.264l-0.348-0.215
		c0.096-0.178,0.229-0.373,0.402-0.59c0.172-0.215,0.366-0.414,0.582-0.6c0.216-0.184,0.44-0.338,0.672-0.461
		c0.232-0.125,0.452-0.188,0.66-0.188c0.2,0,0.35,0.059,0.45,0.176c0.1,0.115,0.15,0.326,0.15,0.629c0,0.232-0.07,0.545-0.21,0.936
		c-0.14,0.393-0.322,0.896-0.546,1.514l-0.444,1.211c-0.016,0.041-0.038,0.102-0.066,0.186c-0.028,0.084-0.056,0.172-0.084,0.264
		c-0.028,0.094-0.052,0.184-0.072,0.271s-0.03,0.16-0.03,0.215c0,0.072,0.02,0.137,0.06,0.193c0.04,0.055,0.104,0.084,0.192,0.084
		c0.12,0,0.244-0.051,0.372-0.15s0.252-0.219,0.372-0.354c0.12-0.137,0.228-0.275,0.324-0.414c0.096-0.141,0.168-0.25,0.216-0.33
		l0.36,0.203c-0.096,0.191-0.226,0.404-0.39,0.637s-0.35,0.445-0.558,0.641c-0.208,0.197-0.436,0.361-0.684,0.492
		c-0.248,0.133-0.504,0.199-0.768,0.199c-0.232,0-0.406-0.061-0.522-0.18c-0.116-0.121-0.174-0.32-0.174-0.602
		c0-0.23,0.038-0.48,0.114-0.75c0.076-0.268,0.186-0.605,0.33-1.014L67.038,146.04z M68.802,141.552c-0.2,0-0.374-0.068-0.522-0.205
		c-0.148-0.135-0.222-0.311-0.222-0.527s0.072-0.4,0.216-0.553c0.144-0.15,0.32-0.227,0.528-0.227c0.224,0,0.408,0.076,0.552,0.227
		c0.144,0.152,0.216,0.332,0.216,0.541s-0.076,0.385-0.228,0.527C69.19,141.479,69.01,141.552,68.802,141.552z"/>
	<path fill="#3E0106" d="M70.518,145.356c0-0.266,0.05-0.51,0.15-0.732c0.1-0.225,0.238-0.418,0.414-0.582
		c0.176-0.164,0.386-0.293,0.63-0.385c0.244-0.092,0.51-0.139,0.798-0.139c0.384,0,0.704,0.098,0.96,0.289s0.384,0.439,0.384,0.744
		c0,0.168-0.046,0.299-0.138,0.396c-0.092,0.096-0.218,0.143-0.378,0.143c-0.184,0-0.316-0.053-0.396-0.162
		c-0.08-0.107-0.148-0.227-0.204-0.359c-0.056-0.131-0.116-0.254-0.18-0.365c-0.064-0.113-0.172-0.168-0.324-0.168
		c-0.176,0-0.324,0.076-0.444,0.227c-0.12,0.152-0.18,0.342-0.18,0.564c0,0.264,0.078,0.51,0.234,0.738s0.33,0.467,0.522,0.715
		s0.366,0.52,0.522,0.814c0.156,0.297,0.234,0.645,0.234,1.045c0,0.271-0.058,0.527-0.174,0.768
		c-0.116,0.24-0.272,0.451-0.468,0.631c-0.196,0.18-0.422,0.322-0.678,0.426c-0.256,0.104-0.52,0.156-0.792,0.156
		c-0.48,0-0.862-0.105-1.146-0.313c-0.284-0.209-0.426-0.48-0.426-0.816c0-0.232,0.054-0.414,0.162-0.545
		c0.108-0.133,0.254-0.199,0.438-0.199c0.344,0,0.54,0.236,0.588,0.709c0.024,0.256,0.066,0.426,0.126,0.51
		c0.06,0.084,0.182,0.125,0.366,0.125c0.288,0,0.516-0.086,0.684-0.258s0.252-0.41,0.252-0.713c0-0.32-0.08-0.605-0.24-0.854
		c-0.16-0.246-0.336-0.488-0.528-0.725s-0.368-0.486-0.528-0.75C70.598,146.028,70.518,145.716,70.518,145.356z"/>
</g>
</svg>
