<?xml version="1.0" encoding="utf-8"?>
<!-- Generator: Adobe Illustrator 16.0.0, SVG Export Plug-In . SVG Version: 6.00 Build 0)  -->
<!DOCTYPE svg PUBLIC "-//W3C//DTD SVG 1.1//EN" "http://www.w3.org/Graphics/SVG/1.1/DTD/svg11.dtd">
<svg version="1.1" id="Capa_1" xmlns="http://www.w3.org/2000/svg" xmlns:xlink="http://www.w3.org/1999/xlink" x="0px" y="0px"
	 width="189px" height="286px" viewBox="0 0 189 286" enable-background="new 0 0 189 286" xml:space="preserve">
<title>Group 43</title>
<desc>Created with Sketch.</desc>
<g id="Group-45" transform="translate(0.000000, 258.000000)">
	<g enable-background="new    " data-bottom="opacity:0;" data--50-bottom="opacity:1;">
		<text transform="matrix(1 0 0 1 100.1934 12)" fill="#902F01" font-family="'Arial-ItalicMT'" font-size="12">conflict-affected </text>
	</g>
	<g enable-background="new    " data-bottom="opacity:0;" data--50-bottom="opacity:1;">
		<text transform="matrix(1 0 0 1 118.8418 27)" fill="#902F01" font-family="'Arial-ItalicMT'" font-size="12">countries</text>
	</g>
</g>
<g id="Group-35"  data--200-bottom="opacity:0;" data--230-bottom="opacity:0.5;" transform="translate(26.000000, 0.000000)">
	<g id="Page-1-Copy-5">
		<g id="Group-26" transform="translate(8.361960, 18.712914)">
			<path id="Fill-1" fill="#AA4F20" fill-opacity="0.7015" d="M127.107,6.53c-1.014,0.435-1.965,0.843-2.917,1.25
				c-4.925,2.103-9.85,4.207-14.778,6.302c-0.13,0.056-0.322,0.069-0.449,0.015c-5.82-2.475-11.637-4.959-17.453-7.444
				c-0.078-0.033-0.152-0.075-0.271-0.133c0.903-0.325,1.766-0.634,2.627-0.943c5.007-1.792,10.013-3.585,15.021-5.368
				c0.164-0.058,0.383-0.065,0.544-0.008c5.777,2.058,11.551,4.125,17.325,6.192C126.854,6.428,126.951,6.469,127.107,6.53"/>
			<path id="Fill-7" fill="#AA4F20" fill-opacity="0.7015" d="M123.818,19.63h-0.795v-0.333c0-3.118,0.004-6.236-0.007-9.354
				c-0.001-0.265,0.069-0.404,0.322-0.474c0.154-0.042,0.299-0.122,0.479-0.198V19.63z"/>
			<path id="Fill-10" fill="#AA4F20" fill-opacity="0.7015" d="M121.915,21.794c0.316-0.544,0.61-1.057,0.912-1.565
				c0.107-0.18,1.078-0.225,1.188-0.046c0.316,0.52,0.616,1.05,0.943,1.612H121.915z"/>
			<path id="Fill-4" fill="#AA4F20" fill-opacity="0.7015" d="M98.176,10.85c1.349,0.579,2.653,1.138,3.956,1.698
				c2.267,0.973,4.533,1.945,6.797,2.923c0.174,0.076,0.313,0.074,0.484,0c3.461-1.475,6.924-2.944,10.387-4.414
				c0.114-0.048,0.229-0.094,0.373-0.153c0.008,0.102,0.02,0.181,0.02,0.261c0,1.368-0.004,2.736,0.005,4.104
				c0.002,0.194-0.06,0.282-0.238,0.358c-3.519,1.487-7.032,2.981-10.546,4.479c-0.174,0.073-0.316,0.071-0.488-0.003
				c-3.499-1.509-6.998-3.014-10.502-4.511c-0.2-0.086-0.268-0.186-0.267-0.399c0.01-1.35,0.005-2.699,0.006-4.048
				C98.162,11.061,98.169,10.976,98.176,10.85"/>
		</g>
		<g id="Group-15" transform="translate(13.379136, 7.069323)">
			<path id="Fill-13" fill="#965028" d="M119.691,42.755l-5.855,3.106L91.129,3.514l5.854-3.106L119.691,42.755z"/>
		</g>
		<g id="Group-18">
			<path id="Fill-16" fill="#965028" d="M126.916,45.965c-2.68,1.231-5.549,1.856-8.529,1.856c-10.01,0-18.682-7.428-20.17-17.277
				c-0.15-1.003-0.228-2.032-0.228-3.058c0-11.211,9.149-20.333,20.397-20.333s20.397,9.123,20.397,20.333
				C138.784,35.398,134.125,42.652,126.916,45.965 M118.387,0.215c-15.086,0-27.358,12.235-27.358,27.272
				c0,1.371,0.103,2.747,0.306,4.091c1.822,12.059,11.664,21.407,23.572,22.953v5.686h-7.135v6.938h7.135v8.925h6.961v-8.925h7.135
				v-6.938h-7.135v-5.683c2.754-0.347,5.422-1.099,7.963-2.267c9.668-4.443,15.916-14.17,15.916-24.78
				C145.746,12.45,133.473,0.215,118.387,0.215"/>
		</g>
	</g>
</g>
<rect data-bottom="transform: matrix(1.00,0.00,0.00,0.10,0,220);" data--50-bottom="transform: matrix(1.00,0.00,0.00,1,0,0);" id="Rectangle-73-Copy" x="129" y="106" fill="#965028" width="30" height="140"/>
<g enable-background="new    " data-bottom="opacity:0;" data--50-bottom="opacity:1;">
	<text transform="matrix(1 0 0 1 0.8979 270)" fill="#902F01" font-family="'Arial-ItalicMT'" font-size="12">conflict-free </text>
</g>
<g enable-background="new    " data-bottom="opacity:0;" data--50-bottom="opacity:1;">
	<text transform="matrix(1 0 0 1 8.8418 285)" fill="#902F01" font-family="'Arial-ItalicMT'" font-size="12">countries</text>
</g>
<g data--120-bottom="opacity:0;" data--150-bottom="opacity:0.5;" id="Page-1-Copy-6" transform="translate(26.000000, 0.000000)" >
	<g id="Group-26_1_" transform="translate(8.361960, 18.712914)">
		<path id="Fill-1_1_" fill="#AA4F20" fill-opacity="0.7015" d="M17.107,87.53c-1.015,0.435-1.965,0.843-2.917,1.25
			c-4.925,2.103-9.85,4.207-14.778,6.302c-0.13,0.056-0.323,0.069-0.45,0.015c-5.82-2.475-11.636-4.959-17.452-7.444
			c-0.078-0.033-0.153-0.075-0.272-0.133c0.904-0.325,1.766-0.634,2.628-0.943c5.006-1.792,10.012-3.585,15.021-5.368
			C-0.95,81.15-0.731,81.143-0.57,81.2c5.777,2.058,11.551,4.125,17.325,6.192C16.854,87.428,16.951,87.469,17.107,87.53"/>
		<path id="Fill-7_1_" fill="#AA4F20" fill-opacity="0.7015" d="M13.818,100.63h-0.794v-0.333c0-3.118,0.004-6.236-0.007-9.354
			c-0.001-0.265,0.069-0.404,0.322-0.474c0.154-0.042,0.299-0.122,0.479-0.198V100.63z"/>
		<path id="Fill-10_1_" fill="#AA4F20" fill-opacity="0.7015" d="M11.915,102.794c0.316-0.544,0.611-1.057,0.913-1.565
			c0.107-0.18,1.078-0.225,1.187-0.046c0.317,0.52,0.617,1.05,0.944,1.612H11.915z"/>
		<path id="Fill-4_1_" fill="#AA4F20" fill-opacity="0.7015" d="M-11.824,91.85c1.349,0.579,2.653,1.138,3.957,1.698
			c2.266,0.973,4.533,1.945,6.797,2.923c0.174,0.076,0.312,0.074,0.484,0c3.461-1.475,6.924-2.944,10.387-4.414
			c0.113-0.048,0.228-0.094,0.372-0.153c0.008,0.102,0.02,0.181,0.02,0.261c0.001,1.368-0.004,2.736,0.005,4.104
			c0.001,0.194-0.06,0.282-0.238,0.358c-3.518,1.487-7.033,2.981-10.546,4.479c-0.174,0.073-0.317,0.071-0.489-0.003
			c-3.499-1.509-6.998-3.014-10.501-4.511c-0.201-0.086-0.268-0.186-0.267-0.399c0.01-1.35,0.005-2.699,0.005-4.048
			C-11.838,92.061-11.83,91.976-11.824,91.85"/>
	</g>
	<g id="Group-15_1_" transform="translate(13.379136, 7.069323)">
		<path id="Fill-13_1_" fill="#AA4F20" d="M9.691,123.755l-5.855,3.106l-22.708-42.347l5.855-3.106L9.691,123.755z"/>
	</g>
	<g id="Group-18_1_">
		<path id="Fill-16_1_" fill="#AA4F20" d="M16.916,126.965c-2.68,1.231-5.549,1.856-8.529,1.856
			c-10.01,0-18.681-7.428-20.169-17.277c-0.151-1.003-0.228-2.032-0.228-3.058c0-11.211,9.15-20.333,20.397-20.333
			s20.397,9.123,20.397,20.333C28.784,116.398,24.125,123.652,16.916,126.965 M8.387,81.215c-15.085,0-27.358,12.235-27.358,27.272
			c0,1.371,0.103,2.747,0.306,4.091c1.822,12.059,11.664,21.407,23.573,22.953v5.686h-7.135v6.938h7.135v8.925h6.961v-8.925h7.134
			v-6.938h-7.134v-5.683c2.753-0.347,5.421-1.099,7.962-2.267c9.668-4.443,15.916-14.17,15.916-24.78
			C35.746,93.45,23.472,81.215,8.387,81.215"/>
	</g>
</g>
<rect id="Rectangle-73" data-bottom="transform: matrix(1.00,0.00,0.00,0.10,0,220);" data--50-bottom="transform: matrix(1.00,0.00,0.00,1,0,0);" x="19" y="187" fill="#B47349" width="30" height="59.23"/>
</svg>
