<?xml version="1.0" encoding="utf-8"?>
<!-- Generator: Adobe Illustrator 16.0.0, SVG Export Plug-In . SVG Version: 6.00 Build 0)  -->
<!DOCTYPE svg PUBLIC "-//W3C//DTD SVG 1.1//EN" "http://www.w3.org/Graphics/SVG/1.1/DTD/svg11.dtd">
<svg version="1.1" id="Capa_1" xmlns="http://www.w3.org/2000/svg" xmlns:xlink="http://www.w3.org/1999/xlink" x="0px" y="0px"
	 width="323.521px" height="203.998px" viewBox="0 0 323.521 203.998" enable-background="new 0 0 323.521 203.998"
	 xml:space="preserve">
<polyline fill="none" stroke="#FFFFFF" stroke-linecap="round" stroke-linejoin="round" stroke-miterlimit="10" points="
	119.677,121.177 119.677,121.177 141.544,99.309 150.177,107.943 165.336,92.784 174.4,101.849 191.932,84.314 193.958,86.339 
	204.749,75.549 228.071,98.873 239.198,87.746 263.807,112.354 "/>
<g>
	<polygon fill="none" stroke="#FFFFFF" stroke-linecap="round" stroke-linejoin="round" stroke-miterlimit="10" points="
		323.558,130.194 304.15,110.79 300.514,114.424 281.125,95.036 239.216,136.947 219.224,116.953 182.85,153.327 146.132,116.608 
		130.62,132.12 103.382,104.88 87.096,121.167 55.594,89.664 51.956,93.301 32.568,73.912 0.75,105.73 0.75,203.761 
		323.558,203.761 	"/>
</g>
<g>
	
		<polygon fill="none" stroke="#FFFFFF" stroke-width="1.6492" stroke-linecap="round" stroke-linejoin="round" stroke-miterlimit="10" points="
		65.364,183.806 37.266,170.024 9.166,183.806 5.153,203.632 69.378,203.632 	"/>
	<g>
		
			<polygon fill="none" stroke="#FFFFFF" stroke-width="1.6492" stroke-linecap="round" stroke-linejoin="round" stroke-miterlimit="10" points="
			23.946,193.13 18.55,193.13 18.55,187.195 26.81,187.195 23.946,188.312 		"/>
	</g>
	<g>
		
			<rect x="48.554" y="187.195" fill="none" stroke="#FFFFFF" stroke-width="1.6492" stroke-linecap="round" stroke-linejoin="round" stroke-miterlimit="10" width="9.679" height="5.935"/>
	</g>
	
		<polygon fill="none" stroke="#FFFFFF" stroke-width="1.6492" stroke-linecap="round" stroke-linejoin="round" stroke-miterlimit="10" points="
		23.946,203.632 46.159,203.632 46.159,184.945 32.332,184.945 23.946,188.312 	"/>
	
		<rect x="23.946" y="188.312" fill="none" stroke="#FFFFFF" stroke-width="1.6492" stroke-linecap="round" stroke-linejoin="round" stroke-miterlimit="10" width="15.032" height="15.32"/>
	
		<polygon fill="none" stroke="#FFFFFF" stroke-width="1.6492" stroke-linecap="round" stroke-linejoin="round" stroke-miterlimit="10" points="
		37.774,203.632 46.159,203.632 46.159,184.945 37.774,188.312 	"/>
	
		<polygon fill="none" stroke="#FFFFFF" stroke-width="1.6492" stroke-linecap="round" stroke-linejoin="round" stroke-miterlimit="10" points="
		40.883,176.283 38.354,176.283 38.354,173.755 36.177,173.755 36.177,176.283 33.648,176.283 33.648,178.46 36.177,178.46 
		36.177,180.988 38.354,180.988 38.354,178.46 40.883,178.46 	"/>
</g>
<g>
	<g>
		
			<polygon fill="none" stroke="#FFFFFF" stroke-width="1.6492" stroke-linecap="round" stroke-linejoin="round" stroke-miterlimit="10" points="
			99.097,176.915 100.896,176.031 88.648,170.024 37.266,170.024 65.364,183.806 98.061,183.806 		"/>
		
			<polygon fill="none" stroke="#FFFFFF" stroke-width="1.6492" stroke-linecap="round" stroke-linejoin="round" stroke-miterlimit="10" points="
			65.364,183.806 69.378,203.632 95.083,203.632 98.061,183.806 		"/>
		
			<polygon fill="none" stroke="#FFFFFF" stroke-width="1.6492" stroke-linecap="round" stroke-linejoin="round" stroke-miterlimit="10" points="
			155.294,176.915 127.196,163.133 100.896,176.031 99.097,176.915 98.061,183.806 95.083,203.632 120.761,203.632 159.309,203.632 
					"/>
	</g>
	<g>
		
			<rect x="137.359" y="187.195" fill="none" stroke="#FFFFFF" stroke-width="1.6492" stroke-linecap="round" stroke-linejoin="round" stroke-miterlimit="10" width="9.678" height="5.935"/>
	</g>
	
		<polygon fill="none" stroke="#FFFFFF" stroke-width="1.6492" stroke-linecap="round" stroke-linejoin="round" stroke-miterlimit="10" points="
		112.75,203.632 134.963,203.632 134.963,184.945 121.136,184.945 112.75,188.312 	"/>
	
		<rect x="112.75" y="188.312" fill="none" stroke="#FFFFFF" stroke-width="1.6492" stroke-linecap="round" stroke-linejoin="round" stroke-miterlimit="10" width="15.032" height="15.32"/>
	
		<polygon fill="none" stroke="#FFFFFF" stroke-width="1.6492" stroke-linecap="round" stroke-linejoin="round" stroke-miterlimit="10" points="
		126.577,203.632 134.963,203.632 134.963,184.945 126.577,188.312 	"/>
	<g>
		
			<polygon fill="none" stroke="#FFFFFF" stroke-width="1.6492" stroke-linecap="round" stroke-linejoin="round" stroke-miterlimit="10" points="
			112.751,193.13 107.354,193.13 107.354,187.195 115.613,187.195 112.751,188.312 		"/>
	</g>
</g>
<g>
	
		<polygon fill="none" stroke="#FFFFFF" stroke-width="1.6492" stroke-linecap="round" stroke-linejoin="round" stroke-miterlimit="10" points="
		294.588,183.806 266.489,170.024 215.104,170.024 243.206,183.806 247.217,203.632 298.666,203.632 295.775,189.673 	"/>
	<g>
		
			<polygon fill="none" stroke="#FFFFFF" stroke-width="1.6492" stroke-linecap="round" stroke-linejoin="round" stroke-miterlimit="10" points="
			203.868,175.536 178.58,163.133 127.196,163.133 155.294,176.915 201.055,176.915 		"/>
		
			<polygon fill="none" stroke="#FFFFFF" stroke-width="1.6492" stroke-linecap="round" stroke-linejoin="round" stroke-miterlimit="10" points="
			201.055,176.915 155.294,176.915 159.309,203.632 182.992,203.632 187.007,183.806 		"/>
		
			<polygon fill="none" stroke="#FFFFFF" stroke-width="1.6492" stroke-linecap="round" stroke-linejoin="round" stroke-miterlimit="10" points="
			243.206,183.806 215.104,170.024 203.868,175.536 201.055,176.915 187.007,183.806 182.992,203.632 210.692,203.632 
			247.217,203.632 		"/>
	</g>
	<g>
		
			<rect x="226.396" y="187.195" fill="none" stroke="#FFFFFF" stroke-width="1.6492" stroke-linecap="round" stroke-linejoin="round" stroke-miterlimit="10" width="9.678" height="5.935"/>
	</g>
	
		<polygon fill="none" stroke="#FFFFFF" stroke-width="1.6492" stroke-linecap="round" stroke-linejoin="round" stroke-miterlimit="10" points="
		201.785,203.632 224,203.632 224,184.945 210.173,184.945 201.785,188.312 	"/>
	
		<rect x="201.785" y="188.312" fill="none" stroke="#FFFFFF" stroke-width="1.6492" stroke-linecap="round" stroke-linejoin="round" stroke-miterlimit="10" width="15.032" height="15.32"/>
	
		<polygon fill="none" stroke="#FFFFFF" stroke-width="1.6492" stroke-linecap="round" stroke-linejoin="round" stroke-miterlimit="10" points="
		215.614,203.632 224,203.632 224,184.945 215.614,188.312 	"/>
	<g>
		
			<polygon fill="none" stroke="#FFFFFF" stroke-width="1.6492" stroke-linecap="round" stroke-linejoin="round" stroke-miterlimit="10" points="
			201.785,193.13 196.39,193.13 196.39,187.195 204.65,187.195 201.785,188.312 		"/>
	</g>
</g>
<g>
	<g>
		
			<polygon fill="none" stroke="#FFFFFF" stroke-width="1.6492" stroke-linecap="round" stroke-linejoin="round" stroke-miterlimit="10" points="
			294.588,183.806 243.206,183.806 247.217,203.632 298.666,203.632 		"/>
	</g>
</g>
<polyline fill="none" stroke="#FFFFFF" stroke-linecap="round" stroke-linejoin="round" stroke-miterlimit="10" points="
	26.817,116.468 32.466,122.115 34.144,120.438 43.087,129.382 50.796,121.674 "/>
<polyline fill="none" stroke="#FFFFFF" stroke-linecap="round" stroke-linejoin="round" stroke-miterlimit="10" points="
	248.01,141.94 254.329,148.26 256.208,146.382 266.216,156.391 274.843,147.765 "/>
<polyline fill="none" stroke="#FFFFFF" stroke-linecap="round" stroke-linejoin="round" stroke-miterlimit="10" points="
	191.328,96.223 195.747,100.644 197.061,99.332 204.06,106.33 210.092,100.296 "/>
<polyline fill="none" stroke="#FFFFFF" stroke-linecap="round" stroke-linejoin="round" stroke-miterlimit="10" points="
	142.146,146.557 137.036,151.668 135.517,150.15 127.424,158.242 120.449,151.269 "/>
<path class="cloud-1" fill="none" stroke="#FFFFFF" stroke-linecap="round" stroke-linejoin="round" stroke-miterlimit="10" d="M236.952,79.226
	c0.476-1.464,1.81-2.541,3.409-2.639c0-0.004-0.001-0.006-0.001-0.009c0-3.192,2.589-5.781,5.782-5.781
	c2.79,0,5.121,1.979,5.66,4.611c0.154-0.02,0.308-0.033,0.464-0.033c1.91,0,3.461,1.534,3.492,3.436h0.001v1.487h-15.378h-3.616
	h-2.975C234.681,79.647,235.771,79.254,236.952,79.226z"/>
<path class="cloud-2" fill="none" stroke="#FFFFFF" stroke-linecap="round" stroke-linejoin="round" stroke-miterlimit="10" d="M123.386,88.461
	c-0.892-2.734-3.383-4.747-6.37-4.931c0-0.005,0-0.01,0-0.015c0-5.965-4.835-10.801-10.8-10.801c-5.215,0-9.568,3.697-10.579,8.614
	c-0.283-0.038-0.57-0.059-0.863-0.059c-3.568,0-6.464,2.863-6.521,6.417h-0.002v2.78h28.726h6.759h5.554
	C127.628,89.25,125.592,88.514,123.386,88.461z"/>
<path class="cloud-3" fill="none" stroke="#FFFFFF" stroke-linecap="round" stroke-linejoin="round" stroke-miterlimit="10" d="M165.46,45.723
	c-0.289-0.884-1.094-1.536-2.06-1.594c0-0.002,0-0.004,0-0.005c0-1.93-1.563-3.494-3.494-3.494c-1.687,0-3.095,1.196-3.422,2.785
	c-0.091-0.011-0.184-0.019-0.279-0.019c-1.153,0-2.09,0.928-2.108,2.076h-0.001v0.899h9.292h2.186h1.798
	C166.832,45.979,166.175,45.741,165.46,45.723z"/>
<g>
	<path fill="none" stroke="#FFFFFF" stroke-linecap="round" stroke-linejoin="round" stroke-miterlimit="10" d="M311.632,202.538
		h-0.518v-21.791h-2.482v21.791h-0.52c-0.674,0-1.222,0.548-1.222,1.223h1.741h2.482h1.739
		C312.854,203.086,312.307,202.538,311.632,202.538z"/>
	<path fill="none" stroke="#FFFFFF" stroke-linecap="round" stroke-linejoin="round" stroke-miterlimit="10" d="M319.938,178.855
		h-6.214l0.518-0.511l-1.369-0.669l2.034,0.02l1.161-1.14l-1.372-0.67l2.035,0.019l1.155-1.136l-0.094-0.095
		c-1.148-1.169-3.03-1.186-4.2-0.036l-3.72,3.65l-3.719-3.65c-1.171-1.149-3.05-1.133-4.2,0.036l-0.092,0.095l1.152,1.136
		l2.036-0.019l-1.372,0.67l1.16,1.14l2.037-0.02l-1.372,0.669l0.519,0.511h-6.215c-1.998,0-3.62,1.621-3.62,3.62v0.16h1.972
		l1.756-1.753l-0.622,1.753h1.984l1.754-1.753l-0.621,1.753h7.463h7l-0.623-1.753l1.755,1.753h2.748l-0.622-1.753l1.755,1.753h1.673
		v-0.16C323.558,180.477,321.938,178.855,319.938,178.855z"/>
</g>
<g>
	<path fill="#FFFFFF" d="M53.677,193.162c0.762,0.27,0.917,1.361,0.922,1.547c0.018,0.248-0.005,0.6-0.122,1.091
		c-0.315,1.319-0.619,3.545-0.619,3.545s-0.036,0.311-0.325,0.187c-0.135-0.059-0.291-0.186-0.309-0.413
		c-0.018-0.229-0.576-4.587-0.415-5.393C52.811,193.726,52.916,192.894,53.677,193.162z"/>
	<path fill="#FFFFFF" d="M53.351,198.83c0,0,0.073,4.02,0.089,4.305c0.016,0.289-0.102,0.389-0.102,0.389l-0.877,0.347l-0.004,0.127
		h1.038l0.327-0.136c-0.024-0.117-0.128-0.351-0.138-0.6c-0.009-0.251,0.323-1.595,0.404-2.706s-0.428-1.736-0.428-1.736
		s-0.069-0.11-0.171-0.117C53.386,198.697,53.349,198.785,53.351,198.83z"/>
	<path fill="#FFFFFF" d="M53.624,192.927c0.773,0.235,0.975,1.319,0.987,1.504c0.028,0.249,0.021,0.602-0.074,1.096
		c-0.259,1.335-0.469,3.57-0.469,3.57s-0.023,0.309-0.316,0.198c-0.138-0.052-0.299-0.172-0.326-0.399
		c-0.027-0.227-0.77-4.558-0.643-5.369C52.782,193.526,52.852,192.688,53.624,192.927z"/>
	<path fill="#FFFFFF" d="M53.49,198.855c0,0,0.366,4.003,0.402,4.286c0.036,0.287-0.073,0.395-0.073,0.395l-0.893,0.334l0.004,0.127
		h1.078l0.339-0.091c-0.033-0.117-0.176-0.409-0.203-0.657c-0.028-0.25,0.204-1.613,0.205-2.729c0-1.115-0.552-1.7-0.552-1.7
		s-0.077-0.104-0.18-0.104C53.516,198.72,53.486,198.807,53.49,198.855z"/>
	<path fill="#FFFFFF" d="M53.203,192.454c0.246-0.297,0.849-2.201,0.916-2.347c0.065-0.142,0.086-0.487-0.115-0.53
		c-0.201-0.04-0.309,0.153-0.309,0.153s-0.198,0.463-0.461,1.479c-0.182,0.697-0.326,0.997-0.418,1.2c0,0-0.054,0.138,0.136,0.173
		C53.106,192.607,53.203,192.454,53.203,192.454z"/>
	<path fill="#FFFFFF" d="M53.203,192.454c0,0,0.021,0.444-0.412,1.21c-0.433,0.767-0.625,1.216-0.625,1.216s0.124,0.421,0.064,0.595
		c-0.059,0.173-0.193,0.299-0.193,0.299l0.011-0.303c0,0-0.232,0.265-0.15,0.546l0.022,0.112l-0.081,0.019
		c0,0-0.112-0.128-0.138-0.293c-0.025-0.164,0.271-1.019,0.271-1.019c0.096-0.149,0.686-1.923,0.749-2.182
		c0.019-0.081,0.05-0.152,0.092-0.245c0,0,0.066-0.166,0.224-0.138C53.195,192.3,53.203,192.454,53.203,192.454z"/>
	<path fill="#FFFFFF" d="M53.675,189.239c0,0-0.022-0.264,0.033-0.589c0.06-0.354,0.442-0.151,0.442-0.151l0.048,0.625
		c0.025,0.336-0.336,0.425-0.468,0.354C53.6,189.408,53.675,189.239,53.675,189.239z"/>
	<path fill="#FFFFFF" d="M52.671,193.826c0,0-0.194-1.162,0-2.498c0,0-0.163-0.354-0.06-0.585c0.102-0.229,1.001-1.264,1.063-1.504
		l0.523-0.115c0,0,0.15,0.736,0.122,1.604c-0.034,0.998,0.098,1.856,0.088,2.082c-0.008,0.174,0.057,1.017,0.057,1.017H52.671z"/>
	<path fill="#FFFFFF" d="M54.464,193.826c0,0,0.275,0.892,0.218,2.125c-0.059,1.237,0.453,6.077,0.943,7.133
		c0.491,1.054-2.451,0.29-3.269,0c-0.818-0.292,0.357-7.105,0.314-9.258H54.464z"/>
	<path fill="#FFFFFF" d="M53.099,187.387c0.001-0.024,0.002-0.041,0.002-0.041l0.002,0.001c0.001-0.005,0.002-0.012,0.003-0.019
		c0.082-0.559,0.513-0.959,0.967-0.893c0.452,0.065,0.753,0.575,0.671,1.134c-0.001,0.006-0.002,0.011-0.003,0.017l0,0
		c0,0,0,0.003-0.001,0.005c-0.013,0.079-0.034,0.159-0.061,0.233c-0.118,0.383-0.409,1.083-0.956,1.002h-0.001
		c-0.56-0.081-0.63-0.872-0.629-1.262C53.091,187.505,53.092,187.445,53.099,187.387z"/>
	<path fill="#FFFFFF" d="M53.106,187.328c0,0-0.076,0.377-0.13,0.436c-0.054,0.059,0.134,0.125,0.134,0.125l0.084-0.02
		L53.106,187.328z"/>
	<path fill="#FFFFFF" d="M53.407,192.503c0.193-0.335,0.475-2.314,0.516-2.465c0.042-0.151,0.005-0.497-0.201-0.503
		c-0.206-0.01-0.279,0.199-0.279,0.199s-0.119,0.489-0.212,1.532c-0.063,0.72-0.156,1.039-0.214,1.256c0,0-0.032,0.144,0.162,0.146
		C53.336,192.671,53.407,192.503,53.407,192.503z"/>
	<path fill="#FFFFFF" d="M53.406,192.414c0,0,0.016,0.443-0.428,1.205c-0.442,0.761-0.64,1.207-0.64,1.207s0.117,0.423,0.057,0.594
		c-0.061,0.174-0.196,0.296-0.196,0.296l0.013-0.302c0,0-0.235,0.264-0.155,0.545l0.021,0.112l-0.081,0.016
		c0,0-0.111-0.126-0.133-0.291c-0.023-0.167,0.284-1.019,0.284-1.019c0.098-0.146,0.71-1.914,0.776-2.17
		c0.019-0.08,0.051-0.153,0.094-0.244c0,0,0.067-0.164,0.226-0.136C53.401,192.259,53.406,192.414,53.406,192.414z"/>
	<g>
		<path fill="#FFFFFF" d="M53.832,187.873c0-0.147,0.119-0.265,0.265-0.265c0.146,0,0.264,0.117,0.264,0.265
			c0,0.146-0.119,0.265-0.264,0.265C53.951,188.138,53.832,188.019,53.832,187.873z M53.861,187.873
			c0,0.128,0.106,0.234,0.236,0.234c0.129,0,0.235-0.106,0.235-0.234c0-0.13-0.106-0.236-0.235-0.236
			C53.967,187.637,53.861,187.743,53.861,187.873z"/>
	</g>
	<path fill="#FFFFFF" d="M54.182,187.695c0.028-0.264-0.122-0.225-0.306-0.35c-0.184-0.124-0.088-0.344-0.154-0.48
		c-0.065-0.136-0.471,0.062-0.493,0.012c-0.022-0.05,0.072-0.187,0.072-0.187s0.459-0.578,1.046-0.285
		c0.693,0.346,0.58,1.137,0.58,1.137s-0.297,1.242-0.592,0.907C54.151,188.237,54.182,187.695,54.182,187.695z"/>
	
		<ellipse transform="matrix(0.9726 -0.2326 0.2326 0.9726 -41.969 17.8729)" fill="#FFFFFF" cx="54.815" cy="186.928" rx="0.363" ry="0.478"/>
	<path fill="#FFFFFF" d="M54.337,186.321c0,0,0.49-0.064,0.678,0.136c0.187,0.202,0.284,0.604,0.069,0.83
		C54.87,187.513,54.337,186.321,54.337,186.321z"/>
	<path fill="#FFFFFF" d="M53.734,186.35c0,0,0.23-0.122,0.547-0.075c0.318,0.049,0.811,0.95,0.83,1.013
		c0.018,0.059-0.037,0.334-0.087,0.379C54.973,187.713,53.734,186.35,53.734,186.35z"/>
	<path fill="#FFFFFF" d="M55.06,187.659c-0.021,0.18-0.302,0.531-0.302,0.531c-0.746-0.366-1.395-1.568-1.395-1.568
		s0.158-0.229,0.334-0.299C53.874,186.251,55.027,187.589,55.06,187.659z"/>
</g>
<g>
	<path fill="#FFFFFF" d="M99.256,191.063c0,0-0.053,0.494,0.376,1.377c0.428,0.884,0.612,1.394,0.612,1.394s-0.165,0.462-0.112,0.66
		c0.054,0.197,0.194,0.345,0.194,0.345l0.01-0.336c0,0,0.24,0.311,0.13,0.616l-0.034,0.123l0.089,0.026c0,0,0.133-0.133,0.172-0.314
		c0.039-0.183-0.231-1.155-0.231-1.155c-0.097-0.171-0.632-2.187-0.683-2.479c-0.017-0.09-0.046-0.173-0.085-0.279
		c0,0-0.063-0.19-0.24-0.168C99.275,190.894,99.256,191.063,99.256,191.063z"/>
	<path fill="#FFFFFF" d="M100.765,192.652c-0.685,0.585-0.407,1.784-0.339,1.979c0.082,0.265,0.246,0.622,0.565,1.085
		c0.858,1.25,2.069,3.44,2.069,3.44s0.162,0.309,0.412,0.063c0.119-0.113,0.229-0.31,0.156-0.554
		c-0.074-0.244-1.243-5.002-1.735-5.778C101.892,192.888,101.449,192.065,100.765,192.652z"/>
	<path fill="#FFFFFF" d="M101.578,191.913c-0.898,0.066-1.385,1.199-1.444,1.396c-0.092,0.263-0.169,0.648-0.188,1.209
		c-0.047,1.517-0.367,3.999-0.367,3.999s-0.052,0.344,0.295,0.294c0.163-0.021,0.367-0.113,0.453-0.354s1.957-4.769,2.02-5.687
		C102.347,192.771,102.476,191.848,101.578,191.913z"/>
	<path fill="#FFFFFF" d="M100.268,198.397c0,0-1.382,4.264-1.491,4.565s-0.018,0.448-0.018,0.448l0.947,0.317l-0.036,0.136h-1.23
		l-0.346-0.182c0.064-0.118,0.292-0.402,0.384-0.666c0.089-0.265,0.172-1.805,0.445-3.018c0.274-1.211,1.019-1.714,1.019-1.714
		s0.11-0.096,0.222-0.069C100.272,198.244,100.283,198.347,100.268,198.397z"/>
	<path fill="#FFFFFF" d="M103.382,198.418c0,0,1.538,4.21,1.637,4.516c0.099,0.304,0.261,0.362,0.261,0.362l0.943-0.332l0.056,0.131
		l-0.97,0.755l-0.396-0.007c-0.021-0.135-0.007-0.416-0.097-0.681c-0.092-0.266-0.976-1.53-1.506-2.654s-0.252-1.978-0.252-1.978
		s0.026-0.143,0.13-0.191C103.29,198.294,103.364,198.368,103.382,198.418z"/>
	<path fill="#FFFFFF" d="M100.377,192.806c0,0-0.416,0.907-0.579,2.229c-0.166,1.332-0.877,5.141-1.342,6.317
		c-0.463,1.176,5.522,1.436,6.299,0.903c0.646-0.446-2.476-7.108-2.43-9.449H100.377z"/>
	<path fill="#FFFFFF" d="M101.21,187.776c0,0-0.026-0.287-0.037-0.642c-0.01-0.389-0.682-0.228-0.682-0.228l0.137,0.771
		c-0.027,0.367,0.378,0.437,0.521,0.358C101.294,187.96,101.21,187.776,101.21,187.776z"/>
	<path fill="#FFFFFF" d="M101.838,185.882c-0.001-0.026-0.002-0.042-0.002-0.042h-0.002c-0.001-0.006-0.002-0.013-0.003-0.02
		c-0.09-0.606-0.56-1.043-1.052-0.971c-0.492,0.071-0.818,0.624-0.729,1.231c0.001,0.007,0.001,0.014,0.002,0.021l0,0
		c0,0,0,0.002,0,0.003c0.016,0.091,0.037,0.174,0.068,0.254c0.127,0.416,0.444,1.178,1.039,1.09h0.001
		c0.61-0.088,0.685-0.947,0.685-1.372C101.846,186.013,101.844,185.947,101.838,185.882z"/>
	<path fill="#FFFFFF" d="M101.831,185.82c0,0,0.082,0.408,0.14,0.475c0.061,0.062-0.144,0.133-0.144,0.133l-0.093-0.02
		L101.831,185.82z"/>
	<g>
		<path fill="#FFFFFF" d="M100.753,186.698c-0.158,0-0.287-0.129-0.287-0.285c0-0.16,0.129-0.289,0.287-0.289
			c0.158,0,0.288,0.129,0.288,0.289C101.041,186.569,100.912,186.698,100.753,186.698z M100.753,186.156
			c-0.141,0-0.255,0.114-0.255,0.257c0,0.138,0.115,0.253,0.255,0.253c0.141,0,0.255-0.115,0.255-0.253
			C101.009,186.271,100.895,186.156,100.753,186.156z"/>
	</g>
	<path fill="#FFFFFF" d="M100.66,186.219c-0.031-0.284,0.133-0.243,0.333-0.379c0.2-0.135,0.097-0.374,0.167-0.523
		c0.071-0.149,0.514,0.067,0.537,0.012c0.024-0.055-0.079-0.201-0.079-0.201s-0.5-0.629-1.14-0.311
		c-0.751,0.376-0.628,1.237-0.628,1.237s0.323,1.351,0.644,0.985C100.693,186.81,100.66,186.219,100.66,186.219z"/>
	
		<ellipse transform="matrix(-0.9718 -0.236 0.236 -0.9718 153.3706 389.1247)" fill="#FFFFFF" cx="99.971" cy="185.384" rx="0.395" ry="0.518"/>
	<path fill="#FFFFFF" d="M100.492,184.722c0,0-0.533-0.067-0.737,0.15c-0.204,0.22-0.309,0.654-0.076,0.902
		C99.913,186.021,100.492,184.722,100.492,184.722z"/>
	<path fill="#FFFFFF" d="M101.147,184.758c0,0-0.251-0.136-0.596-0.084c-0.346,0.053-0.882,1.034-0.902,1.101
		c-0.02,0.065,0.04,0.365,0.096,0.416C99.801,186.236,101.147,184.758,101.147,184.758z"/>
	<path fill="#FFFFFF" d="M99.705,186.184c0.023,0.191,0.33,0.574,0.33,0.574c0.808-0.399,1.515-1.705,1.515-1.705
		s-0.173-0.249-0.363-0.326C100.996,184.647,99.742,186.104,99.705,186.184z"/>
	<path fill="#FFFFFF" d="M99.263,190.977c0.059-0.428,1.156-2.368,1.223-2.528c0.067-0.164,0.334-0.441,0.521-0.309
		s0.11,0.364,0.11,0.364s-0.228,0.515-0.858,1.502c-0.433,0.678-0.568,1.022-0.664,1.252c0,0-0.07,0.149-0.243,0.021
		C99.211,191.171,99.263,190.977,99.263,190.977z"/>
	<path fill="#FFFFFF" d="M102.331,192.879c0,0,0.218-1.295,0-2.786c0,0,0.182-0.396,0.068-0.651
		c-0.114-0.258-1.116-1.412-1.186-1.68l-0.583-0.127c0,0-0.011,0.827,0,1.795c0.012,0.981-0.007,2.18-0.064,2.365
		c-0.059,0.185-0.234,1.084-0.234,1.084H102.331z"/>
	<path fill="#FFFFFF" d="M102.03,191.304c-0.279-0.329-0.979-2.445-1.055-2.604c-0.075-0.157-0.103-0.543,0.121-0.593
		c0.224-0.05,0.346,0.166,0.346,0.166s0.229,0.512,0.537,1.642c0.212,0.776,0.377,1.107,0.483,1.334c0,0,0.062,0.151-0.148,0.194
		C102.141,191.475,102.03,191.304,102.03,191.304z"/>
	<path fill="#FFFFFF" d="M102.03,191.304c0,0-0.018,0.494,0.476,1.346c0.494,0.847,0.715,1.344,0.715,1.344
		s-0.132,0.473-0.063,0.665c0.068,0.191,0.219,0.328,0.219,0.328l-0.016-0.335c0,0,0.262,0.291,0.175,0.606l-0.025,0.124l0.09,0.02
		c0,0,0.125-0.142,0.15-0.326c0.025-0.186-0.317-1.135-0.317-1.135c-0.109-0.163-0.792-2.134-0.865-2.422
		c-0.022-0.089-0.058-0.168-0.106-0.271c0,0-0.076-0.187-0.251-0.15C102.035,191.131,102.03,191.304,102.03,191.304z"/>
</g>
<g>
	<path fill="#FFFFFF" d="M285.467,193.104c0.764,0.269,0.918,1.359,0.923,1.546c0.018,0.248-0.005,0.6-0.121,1.09
		c-0.315,1.321-0.619,3.546-0.619,3.546s-0.036,0.312-0.325,0.185c-0.137-0.056-0.29-0.185-0.307-0.411
		c-0.018-0.229-0.577-4.586-0.416-5.395C284.602,193.664,284.706,192.833,285.467,193.104z"/>
	<path fill="#FFFFFF" d="M285.142,198.771c0,0,0.071,4.02,0.089,4.305c0.016,0.287-0.101,0.387-0.101,0.387l-0.879,0.35
		l-0.004,0.127h1.036l0.329-0.137c-0.024-0.118-0.129-0.351-0.14-0.602c-0.01-0.248,0.323-1.592,0.404-2.706
		c0.082-1.11-0.429-1.734-0.429-1.734s-0.068-0.109-0.171-0.116C285.177,198.638,285.14,198.725,285.142,198.771z"/>
	<path fill="#FFFFFF" d="M285.415,192.865c0.772,0.238,0.975,1.323,0.987,1.505c0.026,0.249,0.021,0.602-0.076,1.097
		c-0.257,1.335-0.469,3.57-0.469,3.57s-0.022,0.31-0.315,0.198c-0.139-0.053-0.299-0.172-0.327-0.4
		c-0.027-0.229-0.769-4.558-0.643-5.37C284.572,193.465,284.643,192.63,285.415,192.865z"/>
	<path fill="#FFFFFF" d="M285.279,198.794c0,0,0.367,4.002,0.402,4.288c0.037,0.283-0.072,0.394-0.072,0.394l-0.895,0.336
		l0.004,0.127h1.079l0.339-0.092c-0.03-0.116-0.175-0.407-0.203-0.657c-0.026-0.249,0.205-1.614,0.205-2.727
		c0-1.116-0.552-1.7-0.552-1.7s-0.076-0.106-0.18-0.104C285.306,198.66,285.275,198.749,285.279,198.794z"/>
	<path fill="#FFFFFF" d="M284.995,192.395c0.244-0.301,0.848-2.204,0.913-2.346c0.067-0.142,0.088-0.489-0.114-0.53
		c-0.202-0.043-0.31,0.15-0.31,0.15s-0.198,0.464-0.461,1.479c-0.182,0.701-0.325,1-0.418,1.203c0,0-0.056,0.135,0.134,0.17
		C284.896,192.549,284.995,192.395,284.995,192.395z"/>
	<path fill="#FFFFFF" d="M284.995,192.395c0,0,0.02,0.444-0.413,1.212c-0.434,0.764-0.624,1.214-0.624,1.214
		s0.122,0.421,0.063,0.594c-0.058,0.174-0.191,0.298-0.191,0.298l0.011-0.302c0,0-0.232,0.267-0.151,0.547l0.022,0.11l-0.079,0.018
		c0,0-0.113-0.124-0.137-0.289c-0.027-0.167,0.271-1.021,0.271-1.021c0.097-0.149,0.686-1.924,0.746-2.181
		c0.021-0.081,0.052-0.152,0.094-0.244c0,0,0.065-0.168,0.224-0.141C284.984,192.238,284.995,192.395,284.995,192.395z"/>
	<path fill="#FFFFFF" d="M285.465,189.178c0,0-0.021-0.262,0.034-0.588c0.06-0.353,0.442-0.148,0.442-0.148l0.048,0.623
		c0.025,0.337-0.336,0.426-0.469,0.354C285.39,189.347,285.465,189.178,285.465,189.178z"/>
	<path fill="#FFFFFF" d="M284.462,193.768c0,0-0.193-1.163,0-2.499c0,0-0.162-0.355-0.06-0.586c0.102-0.229,1-1.263,1.063-1.505
		l0.523-0.113c0,0,0.15,0.738,0.122,1.604c-0.035,0.995,0.097,1.856,0.087,2.08c-0.008,0.176,0.056,1.019,0.056,1.019H284.462z"/>
	<path fill="#FFFFFF" d="M286.253,193.768c0,0,0.277,0.891,0.219,2.126c-0.058,1.232,0.455,6.077,0.944,7.13
		c0.491,1.053-2.452,0.291-3.269,0c-0.817-0.29,0.357-7.103,0.314-9.256H286.253z"/>
	<path fill="#FFFFFF" d="M284.89,187.324c0-0.022,0.003-0.035,0.003-0.035h0.002c0-0.008,0.002-0.014,0.002-0.019
		c0.081-0.561,0.515-0.961,0.968-0.896c0.451,0.067,0.752,0.573,0.671,1.134c-0.002,0.005-0.002,0.012-0.005,0.018l0,0
		c0,0,0,0.001,0,0.003c-0.012,0.083-0.033,0.163-0.061,0.234c-0.117,0.383-0.407,1.084-0.956,1.004h-0.002
		c-0.56-0.084-0.63-0.873-0.63-1.265C284.88,187.445,284.882,187.387,284.89,187.324z"/>
	<path fill="#FFFFFF" d="M284.896,187.271c0,0-0.076,0.375-0.13,0.434c-0.055,0.06,0.134,0.122,0.134,0.122l0.082-0.018
		L284.896,187.271z"/>
	<path fill="#FFFFFF" d="M285.196,192.442c0.193-0.335,0.475-2.313,0.517-2.465c0.041-0.15,0.006-0.496-0.201-0.505
		c-0.206-0.007-0.279,0.201-0.279,0.201s-0.118,0.489-0.211,1.535c-0.064,0.721-0.156,1.039-0.215,1.253
		c0,0-0.032,0.144,0.161,0.147C285.126,192.609,285.196,192.442,285.196,192.442z"/>
	<path fill="#FFFFFF" d="M285.173,192.499c0,0-0.283,0.342-1.118,0.62c-0.837,0.276-1.277,0.48-1.277,0.48s-0.194,0.396-0.353,0.484
		c-0.161,0.088-0.344,0.092-0.344,0.092l0.211-0.218c0,0-0.35,0.041-0.477,0.304l-0.059,0.099l-0.072-0.041c0,0,0-0.169,0.093-0.309
		c0.093-0.139,0.888-0.572,0.888-0.572c0.17-0.047,1.797-0.964,2.018-1.114c0.069-0.047,0.14-0.079,0.234-0.12
		c0,0,0.158-0.08,0.256,0.049C285.271,192.378,285.173,192.499,285.173,192.499z"/>
	<g>
		<path fill="#FFFFFF" d="M285.623,187.812c0-0.146,0.118-0.265,0.265-0.265c0.146,0,0.263,0.119,0.263,0.265
			c0,0.146-0.117,0.265-0.263,0.265C285.741,188.076,285.623,187.958,285.623,187.812z M285.653,187.812
			c0,0.131,0.104,0.235,0.234,0.235c0.129,0,0.234-0.104,0.234-0.235c0-0.129-0.105-0.233-0.234-0.233
			C285.757,187.578,285.653,187.683,285.653,187.812z"/>
	</g>
	<path fill="#FFFFFF" d="M285.974,187.635c0.027-0.259-0.122-0.223-0.308-0.346c-0.183-0.125-0.089-0.347-0.154-0.482
		c-0.064-0.137-0.471,0.062-0.491,0.012c-0.021-0.051,0.071-0.188,0.071-0.188s0.46-0.578,1.047-0.283
		c0.692,0.345,0.579,1.138,0.579,1.138s-0.297,1.242-0.59,0.904C285.941,188.179,285.974,187.635,285.974,187.635z"/>
	<path fill="#FFFFFF" d="M286.96,186.784c0.061,0.257-0.047,0.503-0.242,0.548c-0.194,0.049-0.404-0.122-0.467-0.379
		c-0.058-0.255,0.049-0.501,0.242-0.548C286.69,186.358,286.897,186.528,286.96,186.784z"/>
	<path fill="#FFFFFF" d="M286.129,186.261c0,0,0.488-0.063,0.676,0.138c0.188,0.2,0.286,0.601,0.069,0.827
		C286.659,187.452,286.129,186.261,286.129,186.261z"/>
	<path fill="#FFFFFF" d="M285.524,186.293c0,0,0.229-0.125,0.549-0.076c0.317,0.047,0.81,0.949,0.829,1.009
		c0.019,0.063-0.037,0.337-0.087,0.383C286.763,187.652,285.524,186.293,285.524,186.293z"/>
	<path fill="#FFFFFF" d="M286.851,187.601c-0.021,0.18-0.303,0.532-0.303,0.532c-0.743-0.367-1.393-1.571-1.393-1.571
		s0.157-0.227,0.332-0.298C285.664,186.192,286.818,187.529,286.851,187.601z"/>
</g>
<g>
	<path fill="#FFFFFF" d="M178.211,190.841c-0.234-0.397-0.808-2.781-0.859-2.962c-0.049-0.18,0.035-0.667,0.454-0.586
		c0.241,0.044,0.335,0.236,0.335,0.236s0.267,0.572,0.389,1.821c0.082,0.859,0.198,1.27,0.148,1.511c0,0-0.017,0.153-0.192,0.179
		C178.296,191.042,178.211,190.841,178.211,190.841z"/>
	<path fill="#FFFFFF" d="M178.177,190.645c0,0,0.042,0.327,0.494,0.814c0.716,0.773,1.064,1.2,1.064,1.2s0.125,0.469,0.255,0.643
		c0.134,0.175,0.331,0.265,0.331,0.265l-0.124-0.337c0,0,0.362,0.212,0.376,0.563l0.016,0.136l0.099-0.011
		c0,0,0.08-0.185,0.046-0.382s-0.692-1.056-0.692-1.056c-0.167-0.134-1.074-1.518-1.245-1.789c-0.049-0.084-0.112-0.154-0.195-0.242
		c0,0-0.138-0.164-0.306-0.072C178.126,190.467,178.177,190.645,178.177,190.645z"/>
	<g>
		<path fill="#FFFFFF" d="M178.155,187.521c0,0-0.106-0.216-0.383-0.27c-0.474-0.089-0.569,0.463-0.513,0.667
			c0.02,0.072,0.109,0.438,0.23,0.906l0.968-0.219C178.315,187.868,178.155,187.521,178.155,187.521z"/>
	</g>
	<path fill="#FFFFFF" d="M177.791,191.881c-0.821,0.516-0.717,1.832-0.676,2.048c0.045,0.296,0.349,1.112,0.542,1.683
		c0.81,2.392,1.259,2.669,1.259,2.669s0.271,0.406,0.577,0.187c0.144-0.103,0.291-0.292,0.252-0.562
		c-0.038-0.273-0.397-4.69-0.797-5.592C178.948,192.313,178.608,191.37,177.791,191.881z"/>
	<path fill="#FFFFFF" d="M180.235,203.981h0.421l1.167-0.616l-0.033-0.146l-1.059,0.171c0,0-0.046-0.027-0.098-0.104l-0.456,0.075
		C180.18,203.605,180.236,203.87,180.235,203.981z"/>
	<path fill="#FFFFFF" d="M180.524,202.956c-0.047-0.341-0.866-5.08-0.866-5.08c-0.01-0.055-0.073-0.148-0.189-0.118
		c-0.12,0.03-0.931,0.034-0.583,1.321c0.346,1.287,1.231,3.772,1.276,4.068c0.012,0.068,0.016,0.14,0.016,0.213l0.456-0.075
		C180.592,203.219,180.546,203.114,180.524,202.956z"/>
	<path fill="#FFFFFF" d="M178.116,191.157c-0.963,0.073-1.484,1.287-1.55,1.499c-0.098,0.28-0.104,0.703-0.2,1.297
		c-0.396,2.493-0.501,4.173-0.501,4.173s0.051,0.487,0.422,0.435c0.176-0.022,0.396-0.125,0.487-0.382
		c0.092-0.257,2.102-5.118,2.167-6.1C178.941,192.079,179.081,191.086,178.116,191.157z"/>
	<path fill="#FFFFFF" d="M177.724,186.702c0,0-0.199-0.306-0.037-0.705c0.157-0.397-0.754-0.239-0.754-0.239l0.053,0.926
		c-0.033,0.404,0.516,0.393,0.673,0.308C177.817,186.906,177.724,186.702,177.724,186.702z"/>
	<path fill="#FFFFFF" d="M178.926,192.195c0,0,0.232-1.393,0-2.991c0,0-0.221-2.188-1.2-2.502l-0.625-0.138
		c0,0-0.561,0.377-0.44,1.796c0.085,0.983,0.161,2.346,0.099,2.546s0.021,1.289,0.021,1.289H178.926z"/>
	<path fill="#FFFFFF" d="M178.414,184.756c-0.002-0.029-0.004-0.047-0.004-0.047l-0.001,0.001c-0.002-0.008-0.002-0.014-0.004-0.021
		c-0.098-0.669-0.613-1.146-1.157-1.069c-0.541,0.08-0.899,0.496-0.803,1.165c0.001,0.006,0.003,0.013,0.004,0.021l0,0
		c0,0,0,0.002,0.001,0.004c0.015,0.101,0.04,0.193,0.073,0.281c0.139,0.458,0.488,1.295,1.143,1.201h0.003
		c0.671-0.099,0.752-1.043,0.752-1.513C178.423,184.709,178.423,184.828,178.414,184.756z"/>
	<path fill="#FFFFFF" d="M178.405,184.688c0,0,0.091,0.259,0.156,0.33c0.065,0.07-0.16,0.147-0.16,0.147l-0.102-0.021
		L178.405,184.688z"/>
	<path fill="#FFFFFF" d="M176.615,190.905c-0.049-0.461,0.417-2.867,0.445-3.052c0.03-0.186,0.309-0.593,0.657-0.349
		c0.2,0.144,0.208,0.357,0.208,0.357s0.006,0.63-0.402,1.817c-0.283,0.819-0.345,1.237-0.492,1.438c0,0-0.079,0.133-0.248,0.083
		C176.61,191.122,176.615,190.905,176.615,190.905z"/>
	<path fill="#FFFFFF" d="M176.714,190.643c0,0-0.196,0.263-0.213,0.929c-0.025,1.052-0.069,1.599-0.069,1.599
		s-0.239,0.425-0.267,0.643c-0.026,0.216,0.053,0.422,0.053,0.422l0.147-0.332c0,0,0.11,0.407-0.123,0.666l-0.084,0.109l0.078,0.061
		c0,0,0.187-0.076,0.3-0.241c0.113-0.166,0.237-1.241,0.237-1.241c-0.025-0.211,0.285-1.838,0.353-2.148
		c0.022-0.097,0.026-0.192,0.029-0.312c0,0,0.016-0.214-0.17-0.266C176.801,190.48,176.714,190.643,176.714,190.643z"/>
	<path fill="#FFFFFF" d="M174.378,203.786l0.372,0.195h1.318l0.041-0.146l-1.019-0.344c0,0-0.027-0.045-0.035-0.137l-0.439-0.146
		C174.503,203.429,174.431,203.687,174.378,203.786z"/>
	<path fill="#FFFFFF" d="M175.11,203.014c0.118-0.323,1.6-4.898,1.6-4.898c0.019-0.053,0.006-0.165-0.111-0.194
		c-0.121-0.028-0.839-0.403-1.131,0.897c-0.294,1.302-0.668,3.912-0.766,4.196c-0.021,0.065-0.052,0.129-0.086,0.195l0.439,0.146
		C175.049,203.276,175.057,203.164,175.11,203.014z"/>
	<path fill="#FFFFFF" d="M177.089,184.774c-0.036-0.315,0.145,0.046,0.368-0.104c0.224-0.151,0.108-0.418,0.187-0.582
		c0.08-0.166,0.569,0.075,0.595,0.014c0.027-0.06-0.088-0.227-0.088-0.227s-0.554-0.698-1.263-0.343
		c-0.835,0.419-0.699,1.249-0.699,1.249s0.359,1.31,0.714,0.9C177.124,185.429,177.089,184.774,177.089,184.774z"/>
	<g>
		<path fill="#FFFFFF" d="M177.942,187.86c0,0-0.009-0.243-0.236-0.405c-0.394-0.278-0.712,0.186-0.744,0.396
			c-0.012,0.071-0.082,0.442-0.166,0.919l0.971,0.204C177.945,188.244,177.942,187.86,177.942,187.86z"/>
	</g>
</g>
<g>
	<path fill="#FFFFFF" d="M77.159,190.841c0.233-0.397,0.807-2.781,0.858-2.962c0.05-0.18-0.035-0.667-0.453-0.586
		c-0.242,0.044-0.337,0.236-0.337,0.236s-0.267,0.572-0.388,1.821c-0.082,0.859-0.2,1.27-0.148,1.511c0,0,0.017,0.153,0.192,0.179
		C77.074,191.042,77.159,190.841,77.159,190.841z"/>
	<path fill="#FFFFFF" d="M77.192,190.645c0,0-0.042,0.327-0.494,0.814c-0.715,0.773-1.065,1.2-1.065,1.2s-0.123,0.469-0.255,0.643
		c-0.133,0.175-0.332,0.265-0.332,0.265l0.125-0.337c0,0-0.362,0.212-0.375,0.563l-0.015,0.136l-0.099-0.011
		c0,0-0.08-0.185-0.046-0.382s0.694-1.056,0.694-1.056c0.165-0.134,1.074-1.518,1.242-1.789c0.052-0.084,0.114-0.154,0.197-0.242
		c0,0,0.138-0.164,0.306-0.072C77.243,190.467,77.192,190.645,77.192,190.645z"/>
	<g>
		<path fill="#FFFFFF" d="M77.213,187.521c0,0,0.107-0.216,0.382-0.27c0.475-0.089,0.57,0.463,0.513,0.667
			c-0.019,0.072-0.11,0.438-0.231,0.906l-0.967-0.219C77.052,187.868,77.213,187.521,77.213,187.521z"/>
	</g>
	<path fill="#FFFFFF" d="M77.58,191.881c0.817,0.516,0.714,1.832,0.672,2.048c-0.043,0.296-0.347,1.112-0.542,1.683
		c-0.809,2.392-1.257,2.669-1.257,2.669s-0.273,0.406-0.577,0.187c-0.144-0.103-0.293-0.292-0.253-0.562
		c0.039-0.273,0.397-4.69,0.796-5.592C76.42,192.313,76.761,191.37,77.58,191.881z"/>
	<path fill="#FFFFFF" d="M75.133,203.981h-0.419l-1.169-0.616l0.033-0.146l1.06,0.171c0,0,0.045-0.027,0.096-0.104l0.457,0.075
		C75.19,203.605,75.132,203.87,75.133,203.981z"/>
	<path fill="#FFFFFF" d="M74.844,202.956c0.046-0.341,0.867-5.08,0.867-5.08c0.009-0.055,0.072-0.148,0.19-0.118
		c0.119,0.03,0.929,0.034,0.583,1.321c-0.346,1.287-1.233,3.772-1.278,4.068c-0.011,0.068-0.014,0.14-0.015,0.213l-0.457-0.075
		C74.777,203.219,74.823,203.114,74.844,202.956z"/>
	<path fill="#FFFFFF" d="M77.253,191.157c0.963,0.073,1.485,1.287,1.549,1.499c0.099,0.28,0.105,0.703,0.2,1.297
		c0.397,2.493,0.501,4.173,0.501,4.173s-0.05,0.487-0.423,0.435c-0.175-0.022-0.395-0.125-0.487-0.382
		c-0.091-0.257-2.1-5.118-2.167-6.1C76.427,192.079,76.289,191.086,77.253,191.157z"/>
	<path fill="#FFFFFF" d="M77.645,186.702c0,0,0.199-0.306,0.039-0.705c-0.158-0.397,0.753-0.239,0.753-0.239l-0.05,0.926
		c0.031,0.404-0.518,0.393-0.675,0.308C77.554,186.906,77.645,186.702,77.645,186.702z"/>
	<path fill="#FFFFFF" d="M76.443,192.195c0,0-0.233-1.393,0-2.991c0,0,0.22-2.188,1.201-2.502l0.625-0.138
		c0,0,0.56,0.377,0.439,1.796c-0.083,0.983-0.161,2.346-0.098,2.546c0.062,0.2-0.022,1.289-0.022,1.289H76.443z"/>
	<path fill="#FFFFFF" d="M76.954,184.756c0.002-0.029,0.004-0.047,0.004-0.047l0.002,0.001c0-0.008,0.001-0.014,0.002-0.021
		c0.099-0.669,0.617-1.146,1.157-1.069c0.542,0.08,0.902,0.496,0.804,1.165c0,0.006-0.001,0.013-0.003,0.021l0,0
		c0,0,0,0.002,0,0.004c-0.016,0.101-0.042,0.193-0.073,0.281c-0.141,0.458-0.49,1.295-1.145,1.201h-0.001
		c-0.671-0.099-0.753-1.043-0.752-1.513C76.945,184.709,76.947,184.828,76.954,184.756z"/>
	<path fill="#FFFFFF" d="M76.962,184.688c0,0-0.09,0.259-0.156,0.33c-0.065,0.07,0.16,0.147,0.16,0.147l0.101-0.021L76.962,184.688z
		"/>
	<path fill="#FFFFFF" d="M78.754,190.905c0.048-0.461-0.418-2.867-0.447-3.052c-0.028-0.186-0.308-0.593-0.654-0.349
		c-0.201,0.144-0.208,0.357-0.208,0.357s-0.006,0.63,0.402,1.817c0.281,0.819,0.344,1.237,0.491,1.438c0,0,0.08,0.133,0.249,0.083
		C78.758,191.122,78.754,190.905,78.754,190.905z"/>
	<path fill="#FFFFFF" d="M78.655,190.643c0,0,0.197,0.263,0.212,0.929c0.024,1.052,0.069,1.599,0.069,1.599s0.24,0.425,0.266,0.643
		c0.027,0.216-0.052,0.422-0.052,0.422l-0.146-0.332c0,0-0.113,0.407,0.123,0.666l0.084,0.109l-0.079,0.061
		c0,0-0.187-0.076-0.3-0.241c-0.113-0.166-0.237-1.241-0.237-1.241c0.026-0.211-0.287-1.838-0.355-2.148
		c-0.02-0.097-0.024-0.192-0.027-0.312c0,0-0.016-0.214,0.17-0.266C78.568,190.48,78.655,190.643,78.655,190.643z"/>
	<path fill="#FFFFFF" d="M80.991,203.786l-0.371,0.195h-1.321l-0.04-0.146l1.019-0.344c0,0,0.028-0.045,0.035-0.137l0.439-0.146
		C80.867,203.429,80.938,203.687,80.991,203.786z"/>
	<path fill="#FFFFFF" d="M80.258,203.014c-0.118-0.323-1.6-4.898-1.6-4.898c-0.017-0.053-0.005-0.165,0.113-0.194
		c0.12-0.028,0.839-0.403,1.131,0.897c0.294,1.302,0.667,3.912,0.765,4.196c0.021,0.065,0.052,0.129,0.085,0.195l-0.439,0.146
		C80.32,203.276,80.312,203.164,80.258,203.014z"/>
	<path fill="#FFFFFF" d="M78.28,184.774c0.036-0.315-0.146,0.046-0.369-0.104c-0.223-0.151-0.108-0.418-0.186-0.582
		c-0.08-0.166-0.569,0.075-0.595,0.014c-0.026-0.06,0.087-0.227,0.087-0.227s0.555-0.698,1.264-0.343
		c0.834,0.419,0.698,1.249,0.698,1.249s-0.358,1.31-0.713,0.9C78.243,185.429,78.28,184.774,78.28,184.774z"/>
	<g>
		<path fill="#FFFFFF" d="M77.427,187.86c0,0,0.008-0.243,0.236-0.405c0.395-0.278,0.712,0.186,0.744,0.396
			c0.012,0.071,0.082,0.442,0.167,0.919l-0.972,0.204C77.423,188.244,77.427,187.86,77.427,187.86z"/>
	</g>
</g>
<g>
	<path fill="#FFFFFF" d="M276.896,190.268c-0.408-0.18-2.219-1.723-2.36-1.833c-0.142-0.114-0.354-0.545,0.02-0.721
		c0.215-0.102,0.4-0.006,0.4-0.006s0.533,0.296,1.343,1.208c0.553,0.629,0.88,0.884,0.978,1.103c0,0,0.075,0.129-0.049,0.247
		C277.078,190.377,276.896,190.268,276.896,190.268z"/>
	<path fill="#FFFFFF" d="M277.05,190.313c0,0,0.318-0.004,0.838-0.382c0.828-0.604,1.274-0.893,1.274-0.893l-0.137-0.312
		c-0.147,0.143-1.581,0.861-1.862,0.994c-0.087,0.04-0.162,0.093-0.257,0.162c0,0-0.173,0.114-0.105,0.287
		C276.871,190.342,277.05,190.313,277.05,190.313z"/>
	<path fill="#FFFFFF" d="M274.882,192.21c-0.792,0.499-0.692,1.775-0.652,1.986c0.044,0.287,0.337,1.078,0.525,1.632
		c0.785,2.319,1.221,2.588,1.221,2.588s0.265,0.394,0.56,0.181c0.138-0.099,0.283-0.283,0.245-0.547
		c-0.038-0.262-0.384-4.547-0.772-5.422C276.008,192.628,275.678,191.714,274.882,192.21z"/>
	<path fill="#FFFFFF" d="M277.257,203.943h0.406l1.133-0.594l-0.032-0.145l-1.028,0.165c0,0-0.045-0.025-0.094-0.102l-0.442,0.072
		C277.2,203.579,277.257,203.836,277.257,203.943z"/>
	<path fill="#FFFFFF" d="M277.535,202.95c-0.043-0.33-0.839-4.926-0.839-4.926c-0.011-0.054-0.072-0.145-0.186-0.114
		c-0.114,0.028-0.901,0.031-0.565,1.28c0.337,1.25,1.197,3.659,1.239,3.944c0.012,0.065,0.015,0.135,0.015,0.206l0.442-0.072
		C277.601,203.205,277.558,203.104,277.535,202.95z"/>
	<path fill="#FFFFFF" d="M275.201,191.508c-0.935,0.072-1.44,1.247-1.504,1.453c-0.096,0.273-0.103,0.682-0.194,1.258
		c-0.385,2.419-0.485,4.047-0.485,4.047s0.05,0.473,0.411,0.422c0.168-0.023,0.38-0.12,0.472-0.369
		c0.088-0.25,2.036-4.963,2.101-5.915C276.001,192.403,276.136,191.439,275.201,191.508z"/>
	<path fill="#FFFFFF" d="M274.82,187.189c0,0-0.191-0.298-0.039-0.684c0.156-0.386-0.729-0.233-0.729-0.233l0.036,0.914
		c-0.029,0.392,0.515,0.362,0.667,0.28C274.909,187.385,274.82,187.189,274.82,187.189z"/>
	<path fill="#FFFFFF" d="M275.986,192.514c0,0,0.225-1.35,0-2.901c0,0-0.215-2.119-1.165-2.423l-0.606-0.133
		c0,0-0.543,0.362-0.427,1.738c0.081,0.954,0.156,2.275,0.096,2.47c-0.061,0.195,0.021,1.249,0.021,1.249H275.986z"/>
	<path fill="#FFFFFF" d="M275.487,185.334c-0.002-0.029-0.002-0.047-0.002-0.047l-0.002,0.002c0-0.009-0.002-0.016-0.002-0.022
		c-0.095-0.647-0.598-1.112-1.122-1.035c-0.524,0.078-0.876,0.479-0.78,1.13c0.001,0.006,0.001,0.014,0.003,0.021l0,0
		c0,0,0,0.002,0,0.004c0.017,0.096,0.042,0.186,0.073,0.272c0.135,0.444,0.474,1.257,1.107,1.164h0.002
		c0.652-0.096,0.73-1.013,0.73-1.467C275.499,185.286,275.497,185.402,275.487,185.334z"/>
	<path fill="#FFFFFF" d="M275.481,185.267c0,0,0.088,0.251,0.15,0.321c0.063,0.068-0.155,0.144-0.155,0.144l-0.097-0.022
		L275.481,185.267z"/>
	<path fill="#FFFFFF" d="M275.559,191.23c-0.288-0.342-1.229-2.525-1.305-2.69c-0.079-0.162-0.079-0.644,0.333-0.636
		c0.239,0.005,0.361,0.173,0.361,0.173s0.351,0.5,0.669,1.674c0.222,0.812,0.401,1.182,0.392,1.422c0,0,0.01,0.15-0.153,0.201
		C275.675,191.407,275.559,191.23,275.559,191.23z"/>
	<path fill="#FFFFFF" d="M275.495,190.967c0,0-0.014,0.318,0.337,0.859c0.556,0.858,0.818,1.32,0.818,1.32s0.038,0.472,0.137,0.66
		c0.098,0.188,0.271,0.308,0.271,0.308l-0.064-0.344c0,0,0.312,0.263,0.269,0.6l-0.008,0.135l0.096,0.005
		c0,0,0.106-0.163,0.107-0.357c0-0.193-0.487-1.124-0.487-1.124c-0.138-0.155-0.774-1.628-0.89-1.917
		c-0.036-0.089-0.084-0.166-0.149-0.264c0,0-0.103-0.179-0.279-0.12C275.477,190.786,275.495,190.967,275.495,190.967z"/>
	<path fill="#FFFFFF" d="M271.573,203.755l0.361,0.188h1.282l0.037-0.141l-0.988-0.333c0,0-0.023-0.041-0.032-0.131l-0.428-0.145
		C271.695,203.407,271.627,203.659,271.573,203.755z"/>
	<path fill="#FFFFFF" d="M272.287,203.006c0.113-0.314,1.551-4.751,1.551-4.751c0.017-0.052,0.005-0.161-0.109-0.188
		c-0.118-0.028-0.813-0.39-1.099,0.871c-0.284,1.262-0.644,3.792-0.74,4.067c-0.022,0.063-0.051,0.127-0.084,0.188l0.428,0.145
		C272.226,203.262,272.233,203.15,272.287,203.006z"/>
	<path fill="#FFFFFF" d="M274.203,185.352c-0.033-0.307,0.144,0.042,0.357-0.102c0.215-0.146,0.104-0.403,0.183-0.563
		c0.076-0.158,0.552,0.073,0.576,0.014c0.026-0.059-0.085-0.221-0.085-0.221s-0.537-0.674-1.226-0.331
		c-0.809,0.403-0.678,1.211-0.678,1.211s0.349,1.268,0.693,0.874C274.239,185.987,274.203,185.352,274.203,185.352z"/>
	<path fill="#FFFFFF" d="M275.464,185.849c0,0-0.318-0.078-0.479,0c-0.161,0.082-0.203,0.171-0.309,0.073
		c-0.104-0.097-0.204-0.711-0.204-0.711h-0.148l0.056,0.707c0,0-0.031,0.819,0.384,0.904c0,0,0.011,0.011,0.048,0.007
		c0.034-0.004,0.555-0.068,0.671-0.95C275.481,185.879,275.483,185.855,275.464,185.849z"/>
	<g>
		<path fill="#FFFFFF" d="M274.961,188.066c0,0-0.138-0.19-0.409-0.196c-0.469-0.008-0.47,0.536-0.382,0.723
			c0.031,0.063,0.178,0.399,0.368,0.828l0.892-0.366C275.172,188.371,274.961,188.066,274.961,188.066z"/>
	</g>
	<path fill="#FFFFFF" d="M278.896,188.861c0.046-0.044,0.085-0.093,0.113-0.125v-0.002l0.033-0.278l0.218-0.468l0.027-0.062
		c0.02-0.043,0.063-0.034,0.06,0.11l-0.072,0.213l0.003,0.017l0.251-0.162c0,0,0.053-0.037,0.067-0.02l0.091,0.097
		c0.01,0.008,0.01,0.018,0.006,0.027l-0.012,0.188c0.001,0.024-0.035,0.077-0.035,0.077l-0.028,0.181
		c-0.004,0.012-0.021,0.096-0.021,0.096l-0.108,0.104l-0.199,0.141l-0.129,0.062c0,0-0.152,0.075-0.24,0.003
		C278.835,188.983,278.859,188.898,278.896,188.861z"/>
	<path fill="#FFFFFF" d="M278.896,188.861c0.046-0.044,0.085-0.093,0.113-0.125v-0.002l0.033-0.278l0.218-0.468l0.027-0.062
		c0.02-0.043,0.063-0.034,0.06,0.11l-0.072,0.213l0.003,0.017l-0.117,0.789c0,0-0.152,0.075-0.24,0.003
		C278.835,188.983,278.859,188.898,278.896,188.861z"/>
</g>
</svg>
