<?xml version="1.0" encoding="utf-8"?>
<!-- Generator: Adobe Illustrator 16.0.0, SVG Export Plug-In . SVG Version: 6.00 Build 0)  -->
<!DOCTYPE svg PUBLIC "-//W3C//DTD SVG 1.1//EN" "http://www.w3.org/Graphics/SVG/1.1/DTD/svg11.dtd">
<svg version="1.1" id="Capa_1" xmlns="http://www.w3.org/2000/svg" xmlns:xlink="http://www.w3.org/1999/xlink" x="0px" y="0px"
	 width="323.521px" height="203.998px" viewBox="0 0 323.521 203.998" enable-background="new 0 0 323.521 203.998"
	 xml:space="preserve">
<polyline fill="none" stroke="#FFFFFF" stroke-linecap="round" stroke-linejoin="round" stroke-miterlimit="10" points="
	119.886,100.378 119.886,100.378 141.93,78.334 150.632,87.037 165.914,71.756 175.05,80.894 192.725,63.218 194.765,65.259 
	205.644,54.381 229.156,77.894 240.373,66.678 265.179,91.484 "/>
<g>
	<polyline fill="none" stroke="#FFFFFF" stroke-linecap="round" stroke-linejoin="round" stroke-miterlimit="10" points="
		325.411,109.469 305.848,89.905 302.182,93.571 282.638,74.026 240.39,116.274 220.236,96.122 183.569,132.788 146.554,95.772 
		130.917,111.409 103.459,83.951 87.042,100.368 55.285,68.611 51.619,72.277 32.075,52.732 0,84.807 	"/>
</g>
<g>
	<polygon fill="none" stroke="#FFFFFF" stroke-linecap="round" stroke-linejoin="round" stroke-miterlimit="10" points="
		65.135,183.512 36.81,169.62 8.484,183.512 4.438,203.498 69.182,203.498 	"/>
	<g>
		<polygon fill="none" stroke="#FFFFFF" stroke-linecap="round" stroke-linejoin="round" stroke-miterlimit="10" points="
			23.384,192.911 17.943,192.911 17.943,186.929 26.27,186.929 23.384,188.054 		"/>
	</g>
	<g>
		
			<rect x="48.189" y="186.929" fill="none" stroke="#FFFFFF" stroke-linecap="round" stroke-linejoin="round" stroke-miterlimit="10" width="9.757" height="5.982"/>
	</g>
	<polygon fill="none" stroke="#FFFFFF" stroke-linecap="round" stroke-linejoin="round" stroke-miterlimit="10" points="
		23.384,203.498 45.775,203.498 45.775,184.659 31.836,184.659 23.384,188.054 	"/>
	
		<rect x="23.384" y="188.054" fill="none" stroke="#FFFFFF" stroke-linecap="round" stroke-linejoin="round" stroke-miterlimit="10" width="15.152" height="15.444"/>
	<polygon fill="none" stroke="#FFFFFF" stroke-linecap="round" stroke-linejoin="round" stroke-miterlimit="10" points="
		37.322,203.498 45.775,203.498 45.775,184.659 37.322,188.054 	"/>
	<polygon fill="none" stroke="#FFFFFF" stroke-linecap="round" stroke-linejoin="round" stroke-miterlimit="10" points="
		40.456,175.929 37.907,175.929 37.907,173.38 35.712,173.38 35.712,175.929 33.163,175.929 33.163,178.123 35.712,178.123 
		35.712,180.674 37.907,180.674 37.907,178.123 40.456,178.123 	"/>
</g>
<g>
	<g>
		<polygon fill="none" stroke="#FFFFFF" stroke-linecap="round" stroke-linejoin="round" stroke-miterlimit="10" points="
			99.14,176.565 100.955,175.677 88.607,169.62 36.81,169.62 65.135,183.512 98.097,183.512 		"/>
		<polygon fill="none" stroke="#FFFFFF" stroke-linecap="round" stroke-linejoin="round" stroke-miterlimit="10" points="
			65.135,183.512 69.182,203.498 95.094,203.498 98.097,183.512 		"/>
		<polygon fill="none" stroke="#FFFFFF" stroke-linecap="round" stroke-linejoin="round" stroke-miterlimit="10" points="
			155.792,176.565 127.465,162.672 100.955,175.677 99.14,176.565 98.097,183.512 95.094,203.498 120.979,203.498 159.837,203.498 
					"/>
	</g>
	<g>
		
			<rect x="137.711" y="186.929" fill="none" stroke="#FFFFFF" stroke-linecap="round" stroke-linejoin="round" stroke-miterlimit="10" width="9.756" height="5.982"/>
	</g>
	<polygon fill="none" stroke="#FFFFFF" stroke-linecap="round" stroke-linejoin="round" stroke-miterlimit="10" points="
		112.904,203.498 135.295,203.498 135.295,184.659 121.356,184.659 112.904,188.054 	"/>
	
		<rect x="112.904" y="188.054" fill="none" stroke="#FFFFFF" stroke-linecap="round" stroke-linejoin="round" stroke-miterlimit="10" width="15.153" height="15.444"/>
	<polygon fill="none" stroke="#FFFFFF" stroke-linecap="round" stroke-linejoin="round" stroke-miterlimit="10" points="
		126.843,203.498 135.295,203.498 135.295,184.659 126.843,188.054 	"/>
	<g>
		<polygon fill="none" stroke="#FFFFFF" stroke-linecap="round" stroke-linejoin="round" stroke-miterlimit="10" points="
			112.905,192.911 107.464,192.911 107.464,186.929 115.791,186.929 112.905,188.054 		"/>
	</g>
</g>
<g>
	<polygon fill="none" stroke="#FFFFFF" stroke-linecap="round" stroke-linejoin="round" stroke-miterlimit="10" points="
		296.207,183.512 267.883,169.62 216.085,169.62 244.41,183.512 248.456,203.498 300.319,203.498 297.404,189.428 	"/>
	<g>
		<polyline fill="none" stroke="#FFFFFF" stroke-linecap="round" stroke-linejoin="round" stroke-miterlimit="10" points="
			201.922,176.565 204.755,175.177 179.264,162.672 127.465,162.672 		"/>
		<polygon fill="none" stroke="#FFFFFF" stroke-linecap="round" stroke-linejoin="round" stroke-miterlimit="10" points="
			201.922,176.565 155.792,176.565 159.837,203.498 183.714,203.498 187.76,183.512 		"/>
		<polyline fill="none" stroke="#FFFFFF" stroke-linecap="round" stroke-linejoin="round" stroke-miterlimit="10" points="
			187.76,183.512 183.714,203.498 211.634,203.498 248.456,203.498 244.41,183.512 216.085,169.62 204.755,175.177 		"/>
	</g>
	<g>
		
			<rect x="227.465" y="186.929" fill="none" stroke="#FFFFFF" stroke-linecap="round" stroke-linejoin="round" stroke-miterlimit="10" width="9.757" height="5.982"/>
	</g>
	<polygon fill="none" stroke="#FFFFFF" stroke-linecap="round" stroke-linejoin="round" stroke-miterlimit="10" points="
		202.659,203.498 225.05,203.498 225.05,184.659 211.111,184.659 202.659,188.054 	"/>
	
		<rect x="202.659" y="188.054" fill="none" stroke="#FFFFFF" stroke-linecap="round" stroke-linejoin="round" stroke-miterlimit="10" width="15.151" height="15.444"/>
	<polygon fill="none" stroke="#FFFFFF" stroke-linecap="round" stroke-linejoin="round" stroke-miterlimit="10" points="
		216.598,203.498 225.05,203.498 225.05,184.659 216.598,188.054 	"/>
	<g>
		<polygon fill="none" stroke="#FFFFFF" stroke-linecap="round" stroke-linejoin="round" stroke-miterlimit="10" points="
			202.659,192.911 197.219,192.911 197.219,186.929 205.546,186.929 202.659,188.054 		"/>
	</g>
</g>
<g>
	<g>
		
			<line fill="none" stroke="#FFFFFF" stroke-linecap="round" stroke-linejoin="round" stroke-miterlimit="10" x1="296.207" y1="183.512" x2="244.41" y2="183.512"/>
	</g>
</g>
<polyline fill="none" stroke="#FFFFFF" stroke-linecap="round" stroke-linejoin="round" stroke-miterlimit="10" points="
	26.278,95.631 31.972,101.325 33.663,99.634 42.678,108.649 50.45,100.878 "/>
<polyline fill="none" stroke="#FFFFFF" stroke-linecap="round" stroke-linejoin="round" stroke-miterlimit="10" points="
	249.255,121.308 255.626,127.679 257.519,125.786 267.607,135.876 276.304,127.18 "/>
<polyline fill="none" stroke="#FFFFFF" stroke-linecap="round" stroke-linejoin="round" stroke-miterlimit="10" points="
	192.114,75.223 196.57,79.679 197.893,78.355 204.949,85.411 211.03,79.33 "/>
<polyline fill="none" stroke="#FFFFFF" stroke-linecap="round" stroke-linejoin="round" stroke-miterlimit="10" points="
	142.537,125.963 137.385,131.114 135.854,129.585 127.695,137.743 120.664,130.712 "/>
<path class="cloud-1" fill="none" stroke="#FFFFFF" stroke-linecap="round" stroke-linejoin="round" stroke-miterlimit="10" d="M238.106,58.088
	c0.481-1.475,1.825-2.562,3.438-2.661c0-0.003,0-0.005,0-0.008c0-3.218,2.609-5.828,5.828-5.828c2.814,0,5.162,1.995,5.708,4.648
	c0.153-0.021,0.309-0.032,0.466-0.032c1.925,0,3.488,1.544,3.52,3.463h0.001v1.499h-15.501h-3.647h-2.996
	C235.818,58.514,236.917,58.117,238.106,58.088z"/>
<path class="cloud-2" fill="none" stroke="#FFFFFF" stroke-linecap="round" stroke-linejoin="round" stroke-miterlimit="10" d="M123.625,67.399
	c-0.899-2.757-3.41-4.784-6.42-4.971c0-0.004,0-0.01,0-0.014c0-6.014-4.875-10.889-10.888-10.889c-5.258,0-9.645,3.727-10.664,8.683
	c-0.285-0.038-0.575-0.059-0.87-0.059c-3.596,0-6.516,2.886-6.574,6.468h-0.002v2.802h28.958h6.813h5.6
	C127.901,68.194,125.848,67.452,123.625,67.399z"/>
<path class="cloud-3" fill="none" stroke="#FFFFFF" stroke-linecap="round" stroke-linejoin="round" stroke-miterlimit="10" d="M166.039,24.315
	c-0.29-0.892-1.103-1.547-2.077-1.607c0-0.001,0-0.003,0-0.005c0-1.945-1.576-3.522-3.521-3.522c-1.701,0-3.12,1.206-3.449,2.808
	c-0.093-0.012-0.187-0.019-0.282-0.019c-1.164,0-2.107,0.934-2.127,2.092h0v0.906h9.367h2.204h1.812
	C167.423,24.573,166.759,24.333,166.039,24.315z"/>
<g>
	<path fill="none" stroke="#FFFFFF" stroke-linecap="round" stroke-linejoin="round" stroke-miterlimit="10" d="M313.39,202.01
		h-0.521v-20.036h-2.504v20.036h-0.522c-0.68,0-1.23,0.551-1.23,1.231h1.753h2.504h1.754
		C314.622,202.561,314.069,202.01,313.39,202.01z"/>
	<path fill="none" stroke="#FFFFFF" stroke-linecap="round" stroke-linejoin="round" stroke-miterlimit="10" d="M321.762,178.136
		h-6.264l0.523-0.514l-1.384-0.676l2.052,0.02l1.171-1.149l-1.383-0.676l2.052,0.019l1.164-1.142l-0.094-0.095
		c-1.158-1.181-3.054-1.197-4.233-0.039l-3.75,3.68l-3.75-3.68c-1.18-1.158-3.075-1.142-4.233,0.039l-0.094,0.095l1.164,1.142
		l2.052-0.019l-1.383,0.676l1.171,1.149l2.052-0.02l-1.383,0.676l0.522,0.514h-6.265c-2.015,0-3.649,1.635-3.649,3.649v0.161h1.987
		l1.769-1.768l-0.626,1.768h2l1.769-1.768l-0.627,1.768h7.524h7.055l-0.626-1.768l1.769,1.768h2.77l-0.625-1.768l1.768,1.768h1.686
		v-0.161C325.411,179.771,323.777,178.136,321.762,178.136z"/>
</g>
<g>
	<path fill="#FFFFFF" d="M53.354,192.944c0.768,0.271,0.925,1.373,0.93,1.559c0.018,0.25-0.005,0.605-0.123,1.101
		c-0.317,1.331-0.625,3.573-0.625,3.573s-0.036,0.313-0.326,0.188c-0.137-0.058-0.294-0.187-0.312-0.416
		c-0.017-0.231-0.58-4.623-0.418-5.437C52.48,193.512,52.586,192.673,53.354,192.944z"/>
	<path fill="#FFFFFF" d="M53.024,198.658c0,0,0.074,4.051,0.089,4.34c0.016,0.289-0.102,0.391-0.102,0.391l-0.884,0.35l-0.004,0.129
		h1.045l0.331-0.138c-0.024-0.118-0.13-0.353-0.14-0.605c-0.009-0.253,0.325-1.605,0.407-2.728c0.082-1.119-0.432-1.749-0.432-1.749
		s-0.069-0.111-0.172-0.118C53.061,198.524,53.023,198.611,53.024,198.658z"/>
	<path fill="#FFFFFF" d="M53.301,192.706c0.778,0.238,0.982,1.332,0.995,1.518c0.028,0.25,0.021,0.605-0.076,1.104
		c-0.261,1.345-0.473,3.599-0.473,3.599s-0.022,0.313-0.318,0.202c-0.14-0.053-0.302-0.175-0.33-0.404
		c-0.027-0.229-0.776-4.595-0.648-5.414C52.452,193.31,52.521,192.468,53.301,192.706z"/>
	<path fill="#FFFFFF" d="M53.165,198.683c0,0,0.369,4.034,0.406,4.321c0.036,0.287-0.073,0.398-0.073,0.398l-0.901,0.336
		l0.004,0.129h1.087l0.342-0.092c-0.033-0.117-0.178-0.412-0.205-0.663c-0.028-0.251,0.207-1.627,0.207-2.75
		s-0.557-1.714-0.557-1.714s-0.077-0.106-0.181-0.104C53.191,198.546,53.16,198.636,53.165,198.683z"/>
	<path fill="#FFFFFF" d="M52.876,192.231c0.247-0.303,0.856-2.222,0.922-2.365c0.066-0.144,0.088-0.492-0.116-0.535
		c-0.202-0.042-0.311,0.152-0.311,0.152s-0.199,0.467-0.465,1.492c-0.183,0.704-0.328,1.005-0.422,1.21c0,0-0.055,0.138,0.136,0.173
		C52.778,192.386,52.876,192.231,52.876,192.231z"/>
	<path fill="#FFFFFF" d="M52.876,192.231c0,0,0.021,0.447-0.416,1.22s-0.63,1.224-0.63,1.224s0.125,0.426,0.065,0.601
		c-0.059,0.174-0.194,0.301-0.194,0.301l0.01-0.305c0,0-0.234,0.267-0.151,0.55l0.023,0.113l-0.082,0.017
		c0,0-0.113-0.126-0.139-0.292c-0.025-0.167,0.274-1.028,0.274-1.028c0.097-0.151,0.691-1.938,0.753-2.198
		c0.02-0.082,0.051-0.154,0.093-0.247c0,0,0.066-0.168,0.226-0.14C52.868,192.075,52.876,192.231,52.876,192.231z"/>
	<path fill="#FFFFFF" d="M53.353,188.988c0,0-0.022-0.265,0.033-0.593c0.061-0.355,0.446-0.152,0.446-0.152l0.048,0.631
		c0.025,0.339-0.338,0.428-0.472,0.356C53.275,189.159,53.353,188.988,53.353,188.988z"/>
	<path fill="#FFFFFF" d="M52.341,193.613c0,0-0.196-1.171,0-2.519c0,0-0.164-0.357-0.061-0.589s1.009-1.274,1.072-1.518l0.527-0.114
		c0,0,0.151,0.743,0.122,1.616c-0.034,1.005,0.099,1.87,0.089,2.099c-0.007,0.176,0.058,1.024,0.058,1.024H52.341z"/>
	<path fill="#FFFFFF" d="M54.147,193.613c0,0,0.278,0.898,0.219,2.144c-0.058,1.245,0.458,6.127,0.952,7.188s-2.472,0.293-3.295,0
		c-0.824-0.294,0.361-7.161,0.318-9.332H54.147z"/>
	<path fill="#FFFFFF" d="M52.771,187.12c0.001-0.024,0.002-0.038,0.002-0.038l0.002,0.001c0.001-0.007,0.002-0.014,0.003-0.019
		c0.083-0.563,0.518-0.968,0.975-0.901c0.456,0.067,0.759,0.579,0.677,1.143c-0.001,0.006-0.002,0.012-0.003,0.018l0,0
		c0,0,0,0.002-0.001,0.004c-0.013,0.082-0.034,0.161-0.062,0.236c-0.119,0.385-0.412,1.091-0.963,1.01h-0.002
		c-0.565-0.082-0.634-0.879-0.634-1.271C52.763,187.243,52.765,187.182,52.771,187.12z"/>
	<path fill="#FFFFFF" d="M52.778,187.064c0,0-0.076,0.378-0.131,0.438c-0.055,0.06,0.135,0.124,0.135,0.124l0.084-0.019
		L52.778,187.064z"/>
	<path fill="#FFFFFF" d="M53.081,192.278c0.194-0.338,0.479-2.332,0.521-2.484c0.041-0.151,0.005-0.5-0.203-0.508
		c-0.207-0.008-0.282,0.203-0.282,0.203s-0.12,0.492-0.213,1.545c-0.064,0.727-0.158,1.047-0.216,1.264c0,0-0.031,0.146,0.163,0.148
		C53.01,192.448,53.081,192.278,53.081,192.278z"/>
	<path fill="#FFFFFF" d="M53.081,192.189c0,0,0.015,0.448-0.431,1.215c-0.446,0.768-0.646,1.217-0.646,1.217s0.119,0.427,0.057,0.6
		c-0.061,0.175-0.197,0.299-0.197,0.299l0.014-0.304c0,0-0.237,0.264-0.158,0.547l0.022,0.114l-0.082,0.016
		c0,0-0.112-0.127-0.134-0.293c-0.023-0.168,0.287-1.026,0.287-1.026c0.099-0.148,0.716-1.928,0.782-2.189
		c0.02-0.08,0.053-0.152,0.096-0.244c0,0,0.069-0.166,0.227-0.137C53.076,192.033,53.081,192.189,53.081,192.189z"/>
	<g>
		<path fill="#FFFFFF" d="M53.51,187.611c0-0.146,0.12-0.267,0.267-0.267c0.146,0,0.267,0.12,0.267,0.267
			c0,0.147-0.12,0.267-0.267,0.267C53.629,187.878,53.51,187.759,53.51,187.611z M53.539,187.611c0,0.13,0.107,0.237,0.237,0.237
			s0.237-0.107,0.237-0.237s-0.106-0.237-0.237-0.237S53.539,187.481,53.539,187.611z"/>
	</g>
	<path fill="#FFFFFF" d="M53.863,187.433c0.029-0.263-0.123-0.225-0.308-0.351s-0.089-0.348-0.155-0.485
		c-0.066-0.137-0.476,0.063-0.498,0.012c-0.022-0.05,0.073-0.188,0.073-0.188s0.463-0.583,1.056-0.286
		c0.697,0.348,0.583,1.146,0.583,1.146s-0.3,1.252-0.597,0.912C53.833,187.979,53.863,187.433,53.863,187.433z"/>
	
		<ellipse transform="matrix(0.9721 -0.2347 0.2347 0.9721 -42.284 18.0037)" fill="#FFFFFF" cx="54.501" cy="186.66" rx="0.366" ry="0.48"/>
	<path fill="#FFFFFF" d="M54.019,186.046c0,0,0.495-0.063,0.684,0.14c0.188,0.203,0.287,0.606,0.07,0.835
		C54.556,187.25,54.019,186.046,54.019,186.046z"/>
	<path fill="#FFFFFF" d="M53.412,186.077c0,0,0.231-0.124,0.552-0.076c0.32,0.049,0.818,0.958,0.836,1.02s-0.037,0.339-0.088,0.385
		C54.659,187.45,53.412,186.077,53.412,186.077z"/>
	<path fill="#FFFFFF" d="M54.748,187.398c-0.021,0.181-0.305,0.534-0.305,0.534c-0.751-0.369-1.406-1.582-1.406-1.582
		s0.16-0.229,0.337-0.301C53.552,185.978,54.714,187.325,54.748,187.398z"/>
</g>
<g>
	<path fill="#FFFFFF" d="M99.301,190.829c0,0-0.054,0.497,0.379,1.387c0.433,0.892,0.618,1.406,0.618,1.406
		s-0.167,0.465-0.114,0.664c0.055,0.197,0.195,0.347,0.195,0.347l0.01-0.338c0,0,0.242,0.313,0.13,0.622l-0.033,0.124l0.089,0.025
		c0,0,0.135-0.133,0.174-0.316c0.04-0.185-0.234-1.165-0.234-1.165c-0.097-0.173-0.637-2.203-0.688-2.498
		c-0.016-0.092-0.046-0.174-0.086-0.281c0,0-0.062-0.191-0.241-0.171C99.32,190.656,99.301,190.829,99.301,190.829z"/>
	<path fill="#FFFFFF" d="M100.821,192.429c-0.69,0.591-0.41,1.8-0.341,1.995c0.082,0.268,0.248,0.628,0.569,1.096
		c0.866,1.258,2.086,3.468,2.086,3.468s0.163,0.311,0.415,0.064c0.119-0.116,0.231-0.313,0.157-0.56
		c-0.074-0.246-1.253-5.043-1.75-5.825C101.958,192.667,101.511,191.839,100.821,192.429z"/>
	<path fill="#FFFFFF" d="M101.641,191.687c-0.905,0.067-1.396,1.207-1.455,1.406c-0.093,0.266-0.171,0.654-0.189,1.22
		c-0.047,1.527-0.37,4.031-0.37,4.031s-0.053,0.345,0.296,0.296c0.165-0.021,0.371-0.115,0.457-0.357
		c0.087-0.243,1.974-4.808,2.036-5.731C102.416,192.551,102.546,191.618,101.641,191.687z"/>
	<path fill="#FFFFFF" d="M100.32,198.222c0,0-1.392,4.299-1.502,4.602s-0.019,0.45-0.019,0.45l0.956,0.322l-0.037,0.138h-1.24
		l-0.35-0.184c0.064-0.119,0.294-0.404,0.386-0.671c0.092-0.268,0.174-1.819,0.45-3.042s1.027-1.729,1.027-1.729
		s0.11-0.097,0.223-0.07C100.325,198.066,100.336,198.172,100.32,198.222z"/>
	<path fill="#FFFFFF" d="M103.46,198.242c0,0,1.55,4.244,1.649,4.552c0.101,0.307,0.263,0.366,0.263,0.366l0.951-0.335l0.056,0.131
		l-0.978,0.763l-0.398-0.009c-0.023-0.134-0.007-0.42-0.099-0.687c-0.091-0.267-0.982-1.541-1.518-2.675
		c-0.536-1.132-0.254-1.993-0.254-1.993s0.027-0.144,0.132-0.192C103.368,198.117,103.442,198.192,103.46,198.242z"/>
	<path fill="#FFFFFF" d="M100.431,192.585c0,0-0.419,0.914-0.584,2.246c-0.167,1.345-0.884,5.183-1.352,6.368
		c-0.468,1.187,5.565,1.447,6.349,0.91c0.652-0.448-2.496-7.165-2.449-9.524H100.431z"/>
	<path fill="#FFFFFF" d="M101.271,187.515c0,0-0.027-0.289-0.037-0.646c-0.011-0.393-0.688-0.23-0.688-0.23l0.139,0.778
		c-0.028,0.37,0.38,0.438,0.525,0.36S101.271,187.515,101.271,187.515z"/>
	<path fill="#FFFFFF" d="M101.903,185.604c-0.002-0.026-0.003-0.042-0.003-0.042l-0.002,0.001c-0.001-0.007-0.002-0.014-0.003-0.02
		c-0.09-0.613-0.564-1.053-1.06-0.98c-0.496,0.074-0.826,0.629-0.736,1.242c0.001,0.007,0.001,0.014,0.002,0.02l0,0
		c0,0,0,0.002,0.001,0.004c0.015,0.09,0.038,0.176,0.068,0.256c0.128,0.42,0.447,1.188,1.047,1.1h0.002
		c0.614-0.09,0.69-0.956,0.689-1.385C101.912,185.735,101.91,185.671,101.903,185.604z"/>
	<path fill="#FFFFFF" d="M101.896,185.544c0,0,0.083,0.412,0.143,0.477c0.06,0.064-0.146,0.135-0.146,0.135l-0.093-0.021
		L101.896,185.544z"/>
	<g>
		<path fill="#FFFFFF" d="M100.81,186.429c-0.159,0-0.289-0.13-0.289-0.29c0-0.159,0.13-0.29,0.289-0.29
			c0.16,0,0.29,0.131,0.29,0.29C101.1,186.299,100.97,186.429,100.81,186.429z M100.81,185.882c-0.141,0-0.257,0.115-0.257,0.257
			s0.116,0.258,0.257,0.258c0.143,0,0.258-0.116,0.258-0.258S100.952,185.882,100.81,185.882z"/>
	</g>
	<path fill="#FFFFFF" d="M100.716,185.944c-0.031-0.287,0.134-0.245,0.335-0.382c0.202-0.137,0.098-0.377,0.169-0.526
		c0.072-0.15,0.517,0.066,0.541,0.012c0.023-0.055-0.08-0.205-0.08-0.205s-0.504-0.633-1.148-0.313
		c-0.758,0.38-0.634,1.248-0.634,1.248s0.325,1.361,0.648,0.992C100.749,186.539,100.716,185.944,100.716,185.944z"/>
	
		<ellipse transform="matrix(-0.9721 -0.2344 0.2344 -0.9721 153.8593 388.5002)" fill="#FFFFFF" cx="100.021" cy="185.105" rx="0.398" ry="0.522"/>
	<path fill="#FFFFFF" d="M100.547,184.437c0,0-0.538-0.069-0.744,0.151c-0.206,0.222-0.311,0.659-0.076,0.909
		C99.963,185.745,100.547,184.437,100.547,184.437z"/>
	<path fill="#FFFFFF" d="M101.207,184.471c0,0-0.252-0.136-0.601-0.083c-0.349,0.053-0.889,1.043-0.909,1.109
		c-0.02,0.065,0.04,0.367,0.096,0.417C99.85,185.964,101.207,184.471,101.207,184.471z"/>
	<path fill="#FFFFFF" d="M99.753,185.907c0.023,0.197,0.331,0.582,0.331,0.582c0.816-0.402,1.528-1.722,1.528-1.722
		s-0.174-0.249-0.366-0.327C101.054,184.362,99.79,185.828,99.753,185.907z"/>
	<path fill="#FFFFFF" d="M99.308,190.739c0.059-0.43,1.165-2.385,1.232-2.548c0.067-0.163,0.336-0.446,0.525-0.312
		c0.188,0.134,0.111,0.37,0.111,0.37s-0.229,0.518-0.865,1.511c-0.437,0.686-0.572,1.033-0.669,1.266c0,0-0.07,0.148-0.245,0.02
		C99.256,190.938,99.308,190.739,99.308,190.739z"/>
	<path fill="#FFFFFF" d="M102.401,192.659c0,0,0.219-1.307,0-2.811c0,0,0.183-0.398,0.068-0.657s-1.125-1.421-1.195-1.69
		l-0.587-0.13c0,0-0.011,0.835,0,1.809c0.011,0.991-0.006,2.198-0.065,2.387c-0.06,0.188-0.235,1.093-0.235,1.093H102.401z"/>
	<path fill="#FFFFFF" d="M102.097,191.069c-0.28-0.332-0.987-2.465-1.063-2.623s-0.104-0.549,0.121-0.598
		c0.226-0.051,0.35,0.166,0.35,0.166s0.229,0.518,0.54,1.655c0.214,0.784,0.38,1.118,0.488,1.345c0,0,0.063,0.152-0.149,0.194
		C102.208,191.241,102.097,191.069,102.097,191.069z"/>
	<path fill="#FFFFFF" d="M102.097,191.069c0,0-0.017,0.5,0.48,1.356c0.498,0.855,0.72,1.356,0.72,1.356s-0.132,0.477-0.064,0.669
		c0.069,0.193,0.221,0.333,0.221,0.333l-0.016-0.338c0,0,0.265,0.292,0.176,0.61l-0.025,0.126l0.091,0.019
		c0,0,0.125-0.143,0.151-0.329c0.025-0.186-0.32-1.143-0.32-1.143c-0.11-0.166-0.799-2.151-0.872-2.441
		c-0.022-0.09-0.059-0.172-0.107-0.273c0,0-0.077-0.187-0.253-0.152S102.097,191.069,102.097,191.069z"/>
</g>
<g>
	<path fill="#FFFFFF" d="M287.014,192.884c0.769,0.271,0.925,1.372,0.93,1.559c0.019,0.251-0.005,0.605-0.122,1.1
		c-0.317,1.332-0.625,3.575-0.625,3.575s-0.035,0.312-0.326,0.188c-0.138-0.059-0.294-0.187-0.312-0.418
		c-0.018-0.229-0.58-4.621-0.418-5.437C286.141,193.45,286.247,192.612,287.014,192.884z"/>
	<path fill="#FFFFFF" d="M286.685,198.599c0,0,0.074,4.051,0.09,4.339c0.016,0.289-0.102,0.391-0.102,0.391l-0.885,0.351
		l-0.004,0.128h1.045l0.331-0.137c-0.025-0.12-0.13-0.354-0.14-0.606c-0.01-0.252,0.324-1.606,0.406-2.727s-0.432-1.75-0.432-1.75
		s-0.068-0.111-0.172-0.118C286.721,198.464,286.684,198.551,286.685,198.599z"/>
	<path fill="#FFFFFF" d="M286.961,192.646c0.778,0.238,0.982,1.332,0.995,1.518c0.028,0.25,0.021,0.605-0.076,1.104
		c-0.261,1.346-0.472,3.6-0.472,3.6s-0.022,0.313-0.319,0.2c-0.139-0.052-0.301-0.174-0.329-0.403
		c-0.027-0.229-0.775-4.594-0.648-5.414C286.111,193.249,286.183,192.407,286.961,192.646z"/>
	<path fill="#FFFFFF" d="M286.825,198.623c0,0,0.368,4.034,0.405,4.321c0.036,0.286-0.073,0.397-0.073,0.397l-0.901,0.337
		l0.005,0.128h1.087l0.342-0.092c-0.032-0.117-0.178-0.412-0.204-0.663c-0.028-0.252,0.206-1.626,0.206-2.749
		c0-1.124-0.557-1.715-0.557-1.715s-0.077-0.105-0.181-0.104C286.852,198.486,286.82,198.575,286.825,198.623z"/>
	<path fill="#FFFFFF" d="M286.536,192.171c0.247-0.303,0.856-2.222,0.922-2.365c0.067-0.144,0.088-0.492-0.115-0.535
		c-0.203-0.042-0.311,0.153-0.311,0.153s-0.2,0.467-0.466,1.49c-0.183,0.705-0.328,1.006-0.421,1.212c0,0-0.057,0.137,0.136,0.171
		C286.438,192.325,286.536,192.171,286.536,192.171z"/>
	<path fill="#FFFFFF" d="M286.536,192.171c0,0,0.021,0.447-0.416,1.22c-0.436,0.772-0.629,1.225-0.629,1.225
		s0.124,0.425,0.065,0.599c-0.061,0.176-0.194,0.302-0.194,0.302l0.01-0.304c0,0-0.233,0.266-0.15,0.549l0.023,0.114l-0.082,0.017
		c0,0-0.113-0.126-0.139-0.293s0.273-1.027,0.273-1.027c0.098-0.151,0.692-1.939,0.754-2.2c0.02-0.081,0.051-0.153,0.094-0.245
		c0,0,0.065-0.169,0.225-0.141C286.528,192.014,286.536,192.171,286.536,192.171z"/>
	<path fill="#FFFFFF" d="M287.013,188.929c0,0-0.022-0.266,0.033-0.594c0.06-0.355,0.446-0.152,0.446-0.152l0.047,0.631
		c0.025,0.339-0.338,0.429-0.471,0.357C286.936,189.099,287.013,188.929,287.013,188.929z"/>
	<path fill="#FFFFFF" d="M286.001,193.553c0,0-0.196-1.171,0-2.519c0,0-0.164-0.357-0.061-0.589
		c0.103-0.231,1.008-1.274,1.071-1.517l0.527-0.115c0,0,0.151,0.743,0.122,1.617c-0.034,1.004,0.099,1.87,0.089,2.098
		c-0.008,0.176,0.058,1.024,0.058,1.024H286.001z"/>
	<path fill="#FFFFFF" d="M287.808,193.553c0,0,0.278,0.898,0.22,2.144c-0.059,1.244,0.457,6.127,0.952,7.188
		c0.494,1.062-2.473,0.294-3.296,0c-0.824-0.293,0.36-7.162,0.317-9.332H287.808z"/>
	<path fill="#FFFFFF" d="M286.432,187.061c0.002-0.024,0.002-0.039,0.002-0.039h0.002c0.001-0.005,0.002-0.012,0.003-0.018
		c0.082-0.563,0.519-0.968,0.975-0.899c0.456,0.065,0.76,0.577,0.677,1.142c-0.001,0.006-0.001,0.012-0.003,0.017l0,0
		c0,0,0,0.002,0,0.004c-0.014,0.082-0.034,0.162-0.062,0.236c-0.119,0.385-0.412,1.092-0.964,1.012h-0.002
		c-0.565-0.084-0.634-0.881-0.634-1.274C286.424,187.182,286.426,187.121,286.432,187.061z"/>
	<path fill="#FFFFFF" d="M286.438,187.004c0,0-0.076,0.379-0.132,0.438c-0.054,0.059,0.136,0.124,0.136,0.124l0.084-0.019
		L286.438,187.004z"/>
	<path fill="#FFFFFF" d="M286.741,192.22c0.195-0.339,0.479-2.333,0.52-2.484c0.042-0.152,0.006-0.502-0.201-0.51
		c-0.208-0.008-0.282,0.202-0.282,0.202s-0.12,0.493-0.213,1.548c-0.064,0.725-0.158,1.046-0.217,1.264c0,0-0.031,0.145,0.163,0.147
		C286.671,192.388,286.741,192.22,286.741,192.22z"/>
	<path fill="#FFFFFF" d="M286.717,192.274c0,0-0.284,0.346-1.127,0.626c-0.843,0.279-1.289,0.483-1.289,0.483
		s-0.194,0.399-0.354,0.489c-0.162,0.09-0.347,0.092-0.347,0.092l0.212-0.218c0,0-0.353,0.04-0.481,0.306l-0.059,0.1l-0.072-0.042
		c0,0,0.001-0.169,0.094-0.31c0.094-0.142,0.895-0.579,0.895-0.579c0.173-0.046,1.813-0.971,2.035-1.123
		c0.068-0.047,0.142-0.08,0.233-0.12c0,0,0.162-0.079,0.261,0.048C286.816,192.155,286.717,192.274,286.717,192.274z"/>
	<g>
		<path fill="#FFFFFF" d="M287.17,187.552c0-0.147,0.12-0.266,0.267-0.266c0.147,0,0.267,0.118,0.267,0.266
			c0,0.146-0.119,0.266-0.267,0.266C287.29,187.817,287.17,187.698,287.17,187.552z M287.199,187.552
			c0,0.131,0.106,0.236,0.237,0.236s0.236-0.105,0.236-0.236s-0.105-0.238-0.236-0.238S287.199,187.421,287.199,187.552z"/>
	</g>
	<path fill="#FFFFFF" d="M287.523,187.372c0.028-0.263-0.122-0.225-0.309-0.351c-0.185-0.126-0.09-0.347-0.155-0.485
		c-0.065-0.137-0.475,0.063-0.497,0.012c-0.022-0.049,0.073-0.188,0.073-0.188s0.462-0.584,1.055-0.287
		c0.698,0.348,0.584,1.146,0.584,1.146s-0.3,1.253-0.597,0.912C287.493,187.92,287.523,187.372,287.523,187.372z"/>
	
		<ellipse transform="matrix(0.9727 -0.2322 0.2322 0.9727 -35.4479 71.9985)" fill="#FFFFFF" cx="288.162" cy="186.6" rx="0.366" ry="0.481"/>
	<path fill="#FFFFFF" d="M287.679,185.987c0,0,0.494-0.065,0.685,0.139c0.188,0.203,0.286,0.605,0.069,0.834
		C288.216,187.189,287.679,185.987,287.679,185.987z"/>
	<path fill="#FFFFFF" d="M287.072,186.019c0,0,0.231-0.127,0.552-0.077c0.32,0.049,0.817,0.958,0.837,1.019
		c0.018,0.062-0.037,0.34-0.089,0.385C288.32,187.391,287.072,186.019,287.072,186.019z"/>
	<path fill="#FFFFFF" d="M288.408,187.339c-0.021,0.18-0.305,0.534-0.305,0.534c-0.75-0.369-1.405-1.582-1.405-1.582
		s0.16-0.229,0.337-0.302C287.213,185.917,288.375,187.267,288.408,187.339z"/>
</g>
<g>
	<path fill="#FFFFFF" d="M178.892,190.606c-0.236-0.402-0.813-2.805-0.865-2.986c-0.051-0.183,0.035-0.674,0.456-0.594
		c0.244,0.047,0.34,0.24,0.34,0.24s0.269,0.575,0.391,1.835c0.083,0.868,0.201,1.28,0.149,1.524c0,0-0.017,0.154-0.193,0.179
		C178.977,190.808,178.892,190.606,178.892,190.606z"/>
	<path fill="#FFFFFF" d="M178.857,190.407c0,0,0.043,0.327,0.498,0.819c0.722,0.78,1.074,1.208,1.074,1.208s0.124,0.475,0.258,0.65
		c0.133,0.176,0.333,0.268,0.333,0.268l-0.127-0.342c0,0,0.367,0.215,0.38,0.568l0.016,0.137l0.1-0.011c0,0,0.081-0.187,0.046-0.386
		c-0.033-0.198-0.699-1.064-0.699-1.064c-0.166-0.133-1.082-1.529-1.252-1.803c-0.052-0.084-0.115-0.154-0.199-0.244
		c0,0-0.138-0.165-0.308-0.072C178.807,190.228,178.857,190.407,178.857,190.407z"/>
	<g>
		<path fill="#FFFFFF" d="M178.837,187.259c0,0-0.109-0.221-0.385-0.273c-0.479-0.092-0.575,0.467-0.519,0.674
			c0.02,0.07,0.111,0.439,0.232,0.912l0.976-0.22C179,187.606,178.837,187.259,178.837,187.259z"/>
	</g>
	<path fill="#FFFFFF" d="M178.468,191.653c-0.825,0.518-0.722,1.845-0.679,2.064c0.045,0.297,0.351,1.119,0.545,1.696
		c0.816,2.409,1.269,2.689,1.269,2.689s0.274,0.409,0.582,0.188c0.145-0.104,0.293-0.294,0.254-0.568
		c-0.039-0.273-0.4-4.728-0.803-5.636C179.636,192.088,179.294,191.137,178.468,191.653z"/>
	<path fill="#FFFFFF" d="M180.933,203.851h0.424l1.178-0.619l-0.033-0.15l-1.068,0.173c0,0-0.046-0.027-0.097-0.105l-0.461,0.075
		C180.876,203.472,180.935,203.738,180.933,203.851z"/>
	<path fill="#FFFFFF" d="M181.225,202.817c-0.047-0.344-0.873-5.121-0.873-5.121c-0.01-0.055-0.074-0.149-0.192-0.12
		c-0.119,0.03-0.938,0.034-0.588,1.333c0.35,1.297,1.243,3.802,1.289,4.101c0.011,0.068,0.015,0.141,0.015,0.214l0.461-0.075
		C181.293,203.081,181.246,202.976,181.225,202.817z"/>
	<path fill="#FFFFFF" d="M178.797,190.924c-0.971,0.073-1.497,1.296-1.562,1.51c-0.1,0.284-0.106,0.708-0.202,1.309
		c-0.4,2.514-0.505,4.205-0.505,4.205s0.051,0.491,0.426,0.439c0.176-0.025,0.398-0.125,0.491-0.385
		c0.092-0.261,2.116-5.159,2.184-6.149C179.629,191.853,179.769,190.851,178.797,190.924z"/>
	<path fill="#FFFFFF" d="M178.401,186.433c0,0-0.2-0.31-0.039-0.711c0.16-0.4-0.759-0.241-0.759-0.241l0.052,0.933
		c-0.031,0.407,0.521,0.395,0.68,0.309S178.401,186.433,178.401,186.433z"/>
	<path fill="#FFFFFF" d="M179.612,191.968c0,0,0.235-1.402,0-3.014c0,0-0.222-2.204-1.209-2.521l-0.631-0.139
		c0,0-0.565,0.379-0.443,1.809c0.085,0.991,0.162,2.367,0.099,2.567c-0.063,0.202,0.023,1.298,0.023,1.298H179.612z"/>
	<path fill="#FFFFFF" d="M179.098,184.47c-0.002-0.029-0.003-0.047-0.003-0.047l-0.003,0.002c-0.001-0.008-0.001-0.016-0.002-0.023
		c-0.1-0.674-0.622-1.156-1.167-1.077c-0.546,0.08-0.909,0.499-0.811,1.174c0.001,0.007,0.002,0.015,0.003,0.021v0.001
		c0,0,0,0.002,0.001,0.005c0.017,0.099,0.041,0.193,0.075,0.281c0.141,0.463,0.492,1.307,1.152,1.211h0.001
		c0.677-0.099,0.761-1.053,0.76-1.523C179.107,184.423,179.105,184.542,179.098,184.47z"/>
	<path fill="#FFFFFF" d="M179.09,184.401c0,0,0.091,0.262,0.155,0.333c0.066,0.071-0.159,0.147-0.159,0.147l-0.104-0.021
		L179.09,184.401z"/>
	<path fill="#FFFFFF" d="M177.283,190.668c-0.048-0.464,0.422-2.889,0.45-3.075c0.03-0.187,0.312-0.599,0.66-0.35
		c0.203,0.143,0.211,0.358,0.211,0.358s0.007,0.635-0.405,1.831c-0.284,0.825-0.348,1.249-0.495,1.45c0,0-0.08,0.134-0.251,0.081
		C177.278,190.888,177.283,190.668,177.283,190.668z"/>
	<path fill="#FFFFFF" d="M177.383,190.404c0,0-0.198,0.264-0.214,0.935c-0.025,1.063-0.07,1.615-0.07,1.615
		s-0.241,0.426-0.268,0.646c-0.027,0.219,0.053,0.424,0.053,0.424l0.147-0.332c0,0,0.112,0.408-0.124,0.671l-0.084,0.109
		l0.078,0.062c0,0,0.188-0.077,0.303-0.244c0.113-0.167,0.239-1.251,0.239-1.251c-0.027-0.213,0.288-1.852,0.356-2.166
		c0.021-0.098,0.025-0.192,0.028-0.313c0,0,0.016-0.217-0.171-0.269S177.383,190.404,177.383,190.404z"/>
	<path fill="#FFFFFF" d="M175.028,203.654l0.374,0.196h1.331l0.04-0.147l-1.025-0.346c0,0-0.028-0.045-0.037-0.138l-0.442-0.148
		C175.154,203.291,175.081,203.555,175.028,203.654z"/>
	<path fill="#FFFFFF" d="M175.768,202.875c0.118-0.326,1.612-4.938,1.612-4.938c0.017-0.053,0.005-0.166-0.113-0.196
		c-0.121-0.028-0.846-0.405-1.142,0.906c-0.295,1.312-0.671,3.943-0.77,4.229c-0.022,0.065-0.053,0.131-0.087,0.195l0.442,0.148
		C175.704,203.14,175.713,203.026,175.768,202.875z"/>
	<path fill="#FFFFFF" d="M177.761,184.487c-0.035-0.316,0.146,0.047,0.372-0.105c0.224-0.151,0.108-0.418,0.188-0.584
		c0.08-0.166,0.574,0.074,0.601,0.014s-0.089-0.229-0.089-0.229s-0.559-0.703-1.273-0.346c-0.842,0.421-0.704,1.26-0.704,1.26
		s0.361,1.318,0.719,0.907C177.798,185.149,177.761,184.487,177.761,184.487z"/>
	<g>
		<path fill="#FFFFFF" d="M178.621,187.6c0,0-0.008-0.245-0.238-0.407c-0.397-0.281-0.717,0.186-0.749,0.397
			c-0.012,0.073-0.082,0.447-0.168,0.927l0.979,0.205C178.625,187.985,178.621,187.6,178.621,187.6z"/>
	</g>
</g>
<g>
	<path fill="#FFFFFF" d="M77.025,190.606c0.235-0.402,0.813-2.805,0.864-2.986c0.051-0.183-0.034-0.674-0.456-0.594
		c-0.244,0.047-0.34,0.24-0.34,0.24s-0.269,0.575-0.391,1.835c-0.083,0.868-0.201,1.28-0.149,1.524c0,0,0.017,0.154,0.193,0.179
		C76.939,190.808,77.025,190.606,77.025,190.606z"/>
	<path fill="#FFFFFF" d="M77.059,190.407c0,0-0.042,0.327-0.498,0.819c-0.722,0.78-1.074,1.208-1.074,1.208s-0.125,0.475-0.257,0.65
		c-0.134,0.176-0.334,0.268-0.334,0.268l0.126-0.342c0,0-0.366,0.215-0.379,0.568l-0.016,0.137l-0.099-0.011
		c0,0-0.082-0.187-0.047-0.386c0.034-0.198,0.7-1.064,0.7-1.064c0.167-0.133,1.082-1.529,1.252-1.803
		c0.052-0.084,0.116-0.154,0.199-0.244c0,0,0.139-0.165,0.308-0.072C77.11,190.228,77.059,190.407,77.059,190.407z"/>
	<g>
		<path fill="#FFFFFF" d="M77.08,187.259c0,0,0.108-0.221,0.385-0.273c0.478-0.092,0.575,0.467,0.517,0.674
			c-0.02,0.07-0.11,0.439-0.232,0.912l-0.976-0.22C76.917,187.606,77.08,187.259,77.08,187.259z"/>
	</g>
	<path fill="#FFFFFF" d="M77.449,191.653c0.825,0.518,0.721,1.845,0.678,2.064c-0.044,0.297-0.35,1.119-0.545,1.696
		c-0.816,2.409-1.268,2.689-1.268,2.689s-0.274,0.409-0.582,0.188c-0.145-0.104-0.294-0.294-0.255-0.568
		c0.04-0.273,0.401-4.728,0.803-5.636C76.281,192.088,76.624,191.137,77.449,191.653z"/>
	<path fill="#FFFFFF" d="M74.983,203.851H74.56l-1.178-0.619l0.034-0.15l1.068,0.173c0,0,0.046-0.027,0.097-0.105l0.46,0.075
		C75.041,203.472,74.982,203.738,74.983,203.851z"/>
	<path fill="#FFFFFF" d="M74.692,202.817c0.046-0.344,0.873-5.121,0.873-5.121c0.01-0.055,0.073-0.149,0.191-0.12
		c0.121,0.03,0.937,0.034,0.588,1.333c-0.349,1.297-1.243,3.802-1.289,4.101c-0.011,0.068-0.015,0.141-0.015,0.214l-0.46-0.075
		C74.624,203.081,74.67,202.976,74.692,202.817z"/>
	<path fill="#FFFFFF" d="M77.12,190.924c0.971,0.073,1.498,1.296,1.562,1.51c0.099,0.284,0.106,0.708,0.203,1.309
		c0.4,2.514,0.505,4.205,0.505,4.205s-0.051,0.491-0.426,0.439c-0.177-0.025-0.398-0.125-0.491-0.385
		c-0.092-0.261-2.117-5.159-2.184-6.149C76.288,191.853,76.147,190.851,77.12,190.924z"/>
	<path fill="#FFFFFF" d="M77.515,186.433c0,0,0.2-0.31,0.039-0.711c-0.161-0.4,0.759-0.241,0.759-0.241l-0.051,0.933
		c0.031,0.407-0.521,0.395-0.68,0.309C77.422,186.636,77.515,186.433,77.515,186.433z"/>
	<path fill="#FFFFFF" d="M76.304,191.968c0,0-0.235-1.402,0-3.014c0,0,0.222-2.204,1.21-2.521l0.63-0.139
		c0,0,0.565,0.379,0.443,1.809c-0.084,0.991-0.163,2.367-0.099,2.567c0.063,0.202-0.022,1.298-0.022,1.298H76.304z"/>
	<path fill="#FFFFFF" d="M76.818,184.47c0.002-0.029,0.004-0.047,0.004-0.047l0.001,0.002c0.001-0.008,0.002-0.016,0.003-0.023
		c0.099-0.674,0.621-1.156,1.167-1.077c0.546,0.08,0.909,0.499,0.81,1.174c0,0.007-0.002,0.015-0.003,0.021v0.001
		c0,0,0,0.002-0.001,0.005c-0.016,0.099-0.042,0.193-0.074,0.281c-0.141,0.463-0.493,1.307-1.153,1.211h-0.001
		c-0.676-0.099-0.76-1.053-0.759-1.523C76.81,184.423,76.812,184.542,76.818,184.47z"/>
	<path fill="#FFFFFF" d="M76.827,184.401c0,0-0.091,0.262-0.157,0.333s0.162,0.147,0.162,0.147l0.102-0.021L76.827,184.401z"/>
	<path fill="#FFFFFF" d="M78.633,190.668c0.048-0.464-0.421-2.889-0.451-3.075s-0.311-0.599-0.661-0.35
		c-0.202,0.143-0.209,0.358-0.209,0.358s-0.007,0.635,0.405,1.831c0.284,0.825,0.348,1.249,0.495,1.45c0,0,0.08,0.134,0.25,0.081
		C78.638,190.888,78.633,190.668,78.633,190.668z"/>
	<path fill="#FFFFFF" d="M78.534,190.404c0,0,0.198,0.264,0.213,0.935c0.025,1.063,0.07,1.615,0.07,1.615s0.241,0.426,0.268,0.646
		c0.027,0.219-0.053,0.424-0.053,0.424l-0.147-0.332c0,0-0.113,0.408,0.124,0.671l0.084,0.109l-0.079,0.062
		c0,0-0.188-0.077-0.302-0.244c-0.114-0.167-0.239-1.251-0.239-1.251c0.026-0.213-0.288-1.852-0.356-2.166
		c-0.021-0.098-0.025-0.192-0.028-0.313c0,0-0.015-0.217,0.171-0.269S78.534,190.404,78.534,190.404z"/>
	<path fill="#FFFFFF" d="M80.889,203.654l-0.375,0.196h-1.332l-0.04-0.147l1.026-0.346c0,0,0.028-0.045,0.036-0.138l0.442-0.148
		C80.763,203.291,80.835,203.555,80.889,203.654z"/>
	<path fill="#FFFFFF" d="M80.149,202.875c-0.118-0.326-1.612-4.938-1.612-4.938c-0.017-0.053-0.005-0.166,0.114-0.196
		c0.121-0.028,0.845-0.405,1.141,0.906s0.672,3.943,0.77,4.229c0.022,0.065,0.053,0.131,0.086,0.195l-0.442,0.148
		C80.212,203.14,80.204,203.026,80.149,202.875z"/>
	<path fill="#FFFFFF" d="M78.156,184.487c0.035-0.316-0.148,0.047-0.372-0.105c-0.225-0.151-0.108-0.418-0.188-0.584
		s-0.574,0.074-0.6,0.014s0.088-0.229,0.088-0.229s0.559-0.703,1.273-0.346c0.842,0.421,0.704,1.26,0.704,1.26
		s-0.36,1.318-0.718,0.907C78.119,185.149,78.156,184.487,78.156,184.487z"/>
	<g>
		<path fill="#FFFFFF" d="M77.295,187.6c0,0,0.008-0.245,0.238-0.407c0.397-0.281,0.717,0.186,0.75,0.397
			c0.011,0.073,0.082,0.447,0.167,0.927l-0.979,0.205C77.292,187.985,77.295,187.6,77.295,187.6z"/>
	</g>
</g>
<g>
	<path fill="#FFFFFF" d="M278.375,190.026c-0.414-0.182-2.236-1.736-2.381-1.85c-0.144-0.113-0.355-0.548,0.02-0.725
		c0.219-0.104,0.404-0.006,0.404-0.006s0.539,0.299,1.353,1.217c0.559,0.634,0.887,0.891,0.986,1.111c0,0,0.074,0.131-0.051,0.25
		C278.558,190.136,278.375,190.026,278.375,190.026z"/>
	<path fill="#FFFFFF" d="M278.528,190.073c0,0,0.32-0.004,0.846-0.388c0.833-0.607,1.284-0.898,1.284-0.898l-0.139-0.314
		c-0.147,0.144-1.595,0.87-1.877,1.002c-0.088,0.042-0.163,0.094-0.258,0.164c0,0-0.175,0.114-0.105,0.288
		C278.349,190.102,278.528,190.073,278.528,190.073z"/>
	<path fill="#FFFFFF" d="M276.345,191.985c-0.801,0.502-0.7,1.789-0.658,2c0.044,0.29,0.34,1.087,0.529,1.646
		c0.791,2.337,1.229,2.609,1.229,2.609s0.267,0.396,0.564,0.182c0.14-0.101,0.284-0.286,0.247-0.551
		c-0.039-0.266-0.389-4.584-0.779-5.466C277.478,192.406,277.146,191.483,276.345,191.985z"/>
	<path fill="#FFFFFF" d="M278.735,203.814h0.41l1.144-0.603l-0.033-0.145l-1.036,0.167c0,0-0.045-0.026-0.094-0.103l-0.447,0.072
		C278.681,203.445,278.736,203.705,278.735,203.814z"/>
	<path fill="#FFFFFF" d="M279.019,202.812c-0.046-0.333-0.847-4.967-0.847-4.967c-0.01-0.054-0.071-0.145-0.187-0.116
		c-0.116,0.03-0.908,0.033-0.57,1.292c0.339,1.26,1.206,3.688,1.251,3.978c0.009,0.065,0.013,0.136,0.013,0.206l0.447-0.072
		C279.084,203.066,279.039,202.965,279.019,202.812z"/>
	<path fill="#FFFFFF" d="M276.664,191.277c-0.941,0.071-1.452,1.258-1.514,1.464c-0.097,0.276-0.104,0.687-0.196,1.27
		c-0.389,2.438-0.49,4.078-0.49,4.078s0.05,0.476,0.414,0.425c0.17-0.023,0.386-0.119,0.475-0.372
		c0.09-0.253,2.053-5.003,2.119-5.964C277.472,192.178,277.606,191.206,276.664,191.277z"/>
	<path fill="#FFFFFF" d="M276.28,186.923c0,0-0.193-0.301-0.037-0.689s-0.736-0.234-0.736-0.234l0.037,0.922
		c-0.03,0.395,0.519,0.365,0.673,0.283C276.371,187.119,276.28,186.923,276.28,186.923z"/>
	<path fill="#FFFFFF" d="M277.456,192.29c0,0,0.228-1.359,0-2.924c0,0-0.216-2.137-1.174-2.443l-0.611-0.134
		c0,0-0.549,0.366-0.431,1.753c0.083,0.961,0.158,2.294,0.098,2.49c-0.062,0.195,0.021,1.258,0.021,1.258H277.456z"/>
	<path fill="#FFFFFF" d="M276.956,185.052c-0.002-0.028-0.003-0.045-0.003-0.045l-0.002,0.001c-0.001-0.007-0.002-0.015-0.004-0.021
		c-0.095-0.654-0.602-1.123-1.131-1.045c-0.529,0.076-0.882,0.482-0.785,1.139c0,0.006,0.001,0.013,0.003,0.02l0,0
		c0,0,0,0.002,0,0.005c0.017,0.097,0.04,0.187,0.072,0.274c0.138,0.445,0.478,1.266,1.118,1.172h0.002
		c0.656-0.096,0.736-1.02,0.736-1.478C276.965,185.006,276.963,185.123,276.956,185.052z"/>
	<path fill="#FFFFFF" d="M276.947,184.987c0,0,0.089,0.252,0.152,0.321s-0.156,0.144-0.156,0.144l-0.099-0.021L276.947,184.987z"/>
	<path fill="#FFFFFF" d="M277.026,190.997c-0.292-0.346-1.239-2.545-1.317-2.712c-0.078-0.165-0.078-0.648,0.338-0.641
		c0.24,0.005,0.363,0.173,0.363,0.173s0.353,0.506,0.675,1.689c0.224,0.815,0.404,1.191,0.395,1.432c0,0,0.01,0.151-0.155,0.203
		C277.143,191.175,277.026,190.997,277.026,190.997z"/>
	<path fill="#FFFFFF" d="M276.961,190.73c0,0-0.014,0.319,0.34,0.866c0.56,0.865,0.824,1.332,0.824,1.332s0.041,0.475,0.138,0.664
		c0.1,0.19,0.274,0.312,0.274,0.312l-0.063-0.348c0,0,0.313,0.267,0.268,0.606l-0.008,0.134l0.097,0.006
		c0,0,0.109-0.165,0.109-0.359c0-0.196-0.491-1.134-0.491-1.134c-0.137-0.156-0.779-1.643-0.896-1.932
		c-0.036-0.09-0.085-0.168-0.149-0.268c0,0-0.104-0.18-0.282-0.12C276.943,190.55,276.961,190.73,276.961,190.73z"/>
	<path fill="#FFFFFF" d="M273.009,203.622l0.363,0.192h1.292l0.038-0.145l-0.994-0.334c0,0-0.027-0.045-0.036-0.134l-0.429-0.145
		C273.131,203.271,273.062,203.526,273.009,203.622z"/>
	<path fill="#FFFFFF" d="M273.726,202.867c0.115-0.316,1.564-4.789,1.564-4.789c0.017-0.052,0.005-0.161-0.109-0.189
		c-0.118-0.028-0.82-0.395-1.107,0.877c-0.286,1.273-0.65,3.825-0.746,4.102c-0.022,0.064-0.051,0.128-0.084,0.19l0.429,0.145
		C273.666,203.124,273.673,203.014,273.726,202.867z"/>
	<path fill="#FFFFFF" d="M275.659,185.07c-0.034-0.308,0.145,0.044,0.36-0.103c0.218-0.146,0.106-0.406,0.183-0.566
		c0.077-0.162,0.557,0.07,0.582,0.012c0.025-0.058-0.086-0.221-0.086-0.221s-0.542-0.681-1.234-0.335
		c-0.816,0.408-0.683,1.221-0.683,1.221s0.349,1.279,0.697,0.882C275.695,185.711,275.659,185.07,275.659,185.07z"/>
	<path fill="#FFFFFF" d="M276.928,185.572c0,0-0.317-0.081-0.48,0c-0.164,0.081-0.206,0.17-0.312,0.073
		c-0.105-0.098-0.206-0.716-0.206-0.716h-0.149l0.056,0.712c0,0-0.032,0.824,0.389,0.91c0,0,0.011,0.012,0.047,0.008
		c0.034-0.004,0.559-0.068,0.676-0.957C276.947,185.603,276.951,185.578,276.928,185.572z"/>
	<g>
		<path fill="#FFFFFF" d="M276.424,187.807c0,0-0.141-0.191-0.414-0.196c-0.472-0.01-0.473,0.539-0.383,0.728
			c0.029,0.064,0.178,0.403,0.371,0.835l0.896-0.37C276.637,188.114,276.424,187.807,276.424,187.807z"/>
	</g>
	<path fill="#FFFFFF" d="M280.391,188.608c0.045-0.043,0.086-0.092,0.114-0.127v-0.001l0.033-0.28l0.219-0.471l0.028-0.062
		c0.021-0.044,0.063-0.036,0.06,0.11l-0.072,0.213l0.002,0.019l0.253-0.165c0,0,0.054-0.036,0.067-0.019l0.094,0.099
		c0.009,0.007,0.009,0.016,0.004,0.026l-0.012,0.19c0.001,0.022-0.035,0.075-0.035,0.075l-0.027,0.183
		c-0.005,0.013-0.022,0.096-0.022,0.096l-0.108,0.105l-0.201,0.143l-0.129,0.061c0,0-0.154,0.077-0.242,0.003
		C280.328,188.732,280.354,188.646,280.391,188.608z"/>
	<path fill="#FFFFFF" d="M280.391,188.608c0.045-0.043,0.086-0.092,0.114-0.127v-0.001l0.033-0.28l0.219-0.471l0.028-0.062
		c0.021-0.044,0.063-0.036,0.06,0.11l-0.072,0.213l0.002,0.019l-0.117,0.794c0,0-0.154,0.077-0.242,0.003
		C280.328,188.732,280.354,188.646,280.391,188.608z"/>
</g>
<line fill="none" stroke="#FFFFFF" stroke-linecap="round" stroke-linejoin="round" stroke-miterlimit="10" x1="300.319" y1="203.498" x2="325.411" y2="203.498"/>
<line fill="none" stroke="#FFFFFF" stroke-linecap="round" stroke-linejoin="round" stroke-miterlimit="10" x1="4.438" y1="203.498" x2="0" y2="203.498"/>
</svg>
