<?xml version="1.0" encoding="utf-8"?>
<!-- Generator: Adobe Illustrator 16.0.0, SVG Export Plug-In . SVG Version: 6.00 Build 0)  -->
<!DOCTYPE svg PUBLIC "-//W3C//DTD SVG 1.1//EN" "http://www.w3.org/Graphics/SVG/1.1/DTD/svg11.dtd">
<svg version="1.1" id="Capa_1" xmlns="http://www.w3.org/2000/svg" xmlns:xlink="http://www.w3.org/1999/xlink" x="0px" y="0px"
	 width="1500.008px" height="527.896px" viewBox="0 0 1500.008 527.896" enable-background="new 0 0 1500.008 527.896"
	 xml:space="preserve">
<polyline fill="none" stroke="#FFFFFF" stroke-linecap="round" stroke-linejoin="round" stroke-miterlimit="10" points="
	226.597,371.24 268.077,329.759 284.454,346.136 313.21,317.38 330.403,334.574 363.662,301.313 367.502,305.153 387.972,284.684 
	432.218,328.93 453.323,307.824 500.004,354.504 "/>
<polygon fill="none" stroke="#FFFFFF" stroke-linecap="round" stroke-linejoin="round" stroke-miterlimit="10" points="
	1422.897,401.153 1384.976,363.23 1315.978,432.227 1235.277,351.533 1228.377,358.431 1191.6,321.652 1112.098,401.153 
	1074.176,363.23 1005.178,432.227 935.523,362.574 906.098,391.998 854.43,340.329 823.537,371.222 763.777,311.462 
	756.879,318.361 720.101,281.582 613.34,388.341 576.533,351.533 569.634,358.431 532.856,321.652 453.354,401.153 415.432,363.23 
	346.434,432.227 276.779,362.574 247.354,391.998 195.687,340.329 164.794,371.222 105.033,311.462 98.135,318.361 61.357,281.582 
	1,341.938 1,527.896 613.059,527.896 613.346,527.896 1189.415,527.896 1272.09,527.896 1501,527.896 1501.008,323.044 "/>
<g>
	<polygon fill="none" stroke="#FFFFFF" stroke-linecap="round" stroke-linejoin="round" stroke-miterlimit="10" points="
		332.932,493.404 284.047,469.427 235.162,493.404 228.18,527.896 339.913,527.896 	"/>
	<g>
		<polygon fill="none" stroke="#FFFFFF" stroke-linecap="round" stroke-linejoin="round" stroke-miterlimit="10" points="
			260.876,509.624 251.486,509.624 251.486,499.3 265.855,499.3 260.876,501.243 		"/>
	</g>
	<g>
		
			<rect x="303.686" y="499.3" fill="none" stroke="#FFFFFF" stroke-linecap="round" stroke-linejoin="round" stroke-miterlimit="10" width="16.839" height="10.323"/>
	</g>
	<polygon fill="none" stroke="#FFFFFF" stroke-linecap="round" stroke-linejoin="round" stroke-miterlimit="10" points="
		260.876,527.896 299.518,527.896 299.518,495.384 275.463,495.384 260.876,501.243 	"/>
	
		<rect x="260.876" y="501.243" fill="none" stroke="#FFFFFF" stroke-linecap="round" stroke-linejoin="round" stroke-miterlimit="10" width="24.054" height="26.653"/>
	<polygon fill="none" stroke="#FFFFFF" stroke-linecap="round" stroke-linejoin="round" stroke-miterlimit="10" points="
		284.93,527.896 299.518,527.896 299.518,495.384 284.93,501.243 	"/>
	<polygon fill="none" stroke="#FFFFFF" stroke-linecap="round" stroke-linejoin="round" stroke-miterlimit="10" points="
		273.95,509.624 273.95,527.896 268.326,527.896 	"/>
	<polygon fill="none" stroke="#FFFFFF" stroke-linecap="round" stroke-linejoin="round" stroke-miterlimit="10" points="
		273.95,509.62 263.682,524.735 268.338,527.896 	"/>
	<polygon fill="none" stroke="#FFFFFF" stroke-linecap="round" stroke-linejoin="round" stroke-miterlimit="10" points="
		290.338,480.315 285.94,480.315 285.94,475.918 282.152,475.918 282.152,480.315 277.752,480.315 277.752,484.103 282.152,484.103 
		282.152,488.504 285.94,488.504 285.94,484.103 290.338,484.103 	"/>
</g>
<g>
	<g>
		<polygon fill="none" stroke="#FFFFFF" stroke-linecap="round" stroke-linejoin="round" stroke-miterlimit="10" points="
			391.617,481.416 394.746,479.879 373.438,469.427 284.047,469.427 332.932,493.404 389.814,493.404 		"/>
		<polygon fill="none" stroke="#FFFFFF" stroke-linecap="round" stroke-linejoin="round" stroke-miterlimit="10" points="
			332.932,493.404 339.913,527.896 384.633,527.896 389.814,493.404 		"/>
		<polygon fill="none" stroke="#FFFFFF" stroke-linecap="round" stroke-linejoin="round" stroke-miterlimit="10" points="
			489.385,481.416 440.5,457.439 394.746,479.879 391.617,481.416 389.814,493.404 384.633,527.896 429.305,527.896 
			496.367,527.896 		"/>
	</g>
	<g>
		
			<rect x="458.181" y="499.3" fill="none" stroke="#FFFFFF" stroke-linecap="round" stroke-linejoin="round" stroke-miterlimit="10" width="16.839" height="10.323"/>
	</g>
	<polygon fill="none" stroke="#FFFFFF" stroke-linecap="round" stroke-linejoin="round" stroke-miterlimit="10" points="
		415.37,527.896 454.012,527.896 454.012,495.384 429.957,495.384 415.37,501.243 	"/>
	
		<rect x="415.37" y="501.243" fill="none" stroke="#FFFFFF" stroke-linecap="round" stroke-linejoin="round" stroke-miterlimit="10" width="24.055" height="26.653"/>
	<polygon fill="none" stroke="#FFFFFF" stroke-linecap="round" stroke-linejoin="round" stroke-miterlimit="10" points="
		439.425,527.896 454.012,527.896 454.012,495.384 439.425,501.243 	"/>
	<polygon fill="none" stroke="#FFFFFF" stroke-linecap="round" stroke-linejoin="round" stroke-miterlimit="10" points="
		427.295,509.62 417.026,524.735 421.682,527.896 	"/>
	<polygon fill="none" stroke="#FFFFFF" stroke-linecap="round" stroke-linejoin="round" stroke-miterlimit="10" points="
		427.295,509.624 421.67,527.896 427.295,527.896 432.922,527.896 	"/>
	<polygon fill="none" stroke="#FFFFFF" stroke-linecap="round" stroke-linejoin="round" stroke-miterlimit="10" points="
		427.295,509.62 437.563,524.735 432.908,527.896 	"/>
	<g>
		<polygon fill="none" stroke="#FFFFFF" stroke-linecap="round" stroke-linejoin="round" stroke-miterlimit="10" points="
			415.37,509.624 405.98,509.624 405.98,499.3 420.352,499.3 415.37,501.243 		"/>
	</g>
</g>
<g>
	<polygon fill="none" stroke="#FFFFFF" stroke-linecap="round" stroke-linejoin="round" stroke-miterlimit="10" points="
		731.715,493.404 682.832,469.427 593.438,469.427 642.323,493.404 649.305,527.896 728.971,527.896 733.781,503.615 	"/>
	<g>
		<polygon fill="none" stroke="#FFFFFF" stroke-linecap="round" stroke-linejoin="round" stroke-miterlimit="10" points="
			573.885,479.019 529.893,457.439 440.5,457.439 489.385,481.416 568.996,481.416 		"/>
		<polygon fill="none" stroke="#FFFFFF" stroke-linecap="round" stroke-linejoin="round" stroke-miterlimit="10" points="
			568.996,481.416 489.385,481.416 496.367,527.896 537.572,527.896 544.555,493.404 		"/>
		<polygon fill="none" stroke="#FFFFFF" stroke-linecap="round" stroke-linejoin="round" stroke-miterlimit="10" points="
			642.323,493.404 593.438,469.427 573.885,479.019 568.996,481.416 544.555,493.404 537.572,527.896 585.76,527.896 
			649.305,527.896 		"/>
	</g>
	<g>
		
			<rect x="613.078" y="499.3" fill="none" stroke="#FFFFFF" stroke-linecap="round" stroke-linejoin="round" stroke-miterlimit="10" width="16.838" height="10.323"/>
	</g>
	<polygon fill="none" stroke="#FFFFFF" stroke-linecap="round" stroke-linejoin="round" stroke-miterlimit="10" points="
		570.27,527.896 608.911,527.896 608.911,495.384 584.856,495.384 570.27,501.243 	"/>
	
		<rect x="570.27" y="501.243" fill="none" stroke="#FFFFFF" stroke-linecap="round" stroke-linejoin="round" stroke-miterlimit="10" width="24.054" height="26.653"/>
	<polygon fill="none" stroke="#FFFFFF" stroke-linecap="round" stroke-linejoin="round" stroke-miterlimit="10" points="
		594.323,527.896 608.911,527.896 608.911,495.384 594.323,501.243 	"/>
	<g>
		<polygon fill="none" stroke="#FFFFFF" stroke-linecap="round" stroke-linejoin="round" stroke-miterlimit="10" points="
			570.27,509.624 560.878,509.624 560.878,499.3 575.25,499.3 570.27,501.243 		"/>
	</g>
</g>
<g>
	<g>
		<polygon fill="none" stroke="#FFFFFF" stroke-linecap="round" stroke-linejoin="round" stroke-miterlimit="10" points="
			731.715,493.404 642.323,493.404 649.305,527.896 728.789,527.896 733.742,503.426 		"/>
		<polygon fill="none" stroke="#FFFFFF" stroke-linecap="round" stroke-linejoin="round" stroke-miterlimit="10" points="
			833.541,493.404 784.656,469.427 735.77,493.404 733.742,503.426 728.789,527.896 738.697,527.896 840.523,527.896 		"/>
	</g>
	<g>
		
			<rect x="804.295" y="499.3" fill="none" stroke="#FFFFFF" stroke-linecap="round" stroke-linejoin="round" stroke-miterlimit="10" width="16.838" height="10.323"/>
	</g>
	<polygon fill="none" stroke="#FFFFFF" stroke-linecap="round" stroke-linejoin="round" stroke-miterlimit="10" points="
		761.484,527.896 800.127,527.896 800.127,495.384 776.072,495.384 761.484,501.243 	"/>
	
		<rect x="761.484" y="501.243" fill="none" stroke="#FFFFFF" stroke-linecap="round" stroke-linejoin="round" stroke-miterlimit="10" width="24.057" height="26.653"/>
	<polygon fill="none" stroke="#FFFFFF" stroke-linecap="round" stroke-linejoin="round" stroke-miterlimit="10" points="
		785.541,527.896 800.127,527.896 800.127,495.384 785.541,501.243 	"/>
	<polygon fill="none" stroke="#FFFFFF" stroke-linecap="round" stroke-linejoin="round" stroke-miterlimit="10" points="
		774.559,509.624 774.559,527.896 768.934,527.896 	"/>
	<polygon fill="none" stroke="#FFFFFF" stroke-linecap="round" stroke-linejoin="round" stroke-miterlimit="10" points="
		774.559,509.62 764.293,524.735 768.947,527.896 	"/>
	<polygon fill="none" stroke="#FFFFFF" stroke-linecap="round" stroke-linejoin="round" stroke-miterlimit="10" points="
		790.947,480.591 786.549,480.591 786.549,476.193 782.764,476.193 782.764,480.591 778.361,480.591 778.361,484.379 
		782.764,484.379 782.764,488.779 786.549,488.779 786.549,484.379 790.947,484.379 	"/>
	<g>
		<polygon fill="none" stroke="#FFFFFF" stroke-linecap="round" stroke-linejoin="round" stroke-miterlimit="10" points="
			761.484,509.624 752.096,509.624 752.096,499.3 766.467,499.3 761.484,501.243 		"/>
	</g>
</g>
<g>
	<polygon fill="none" stroke="#FFFFFF" stroke-linecap="round" stroke-linejoin="round" stroke-miterlimit="10" points="
		1086.34,493.404 1037.459,469.427 948.068,469.427 996.953,493.404 1003.934,527.896 1093.324,527.896 	"/>
	<g>
		<polygon fill="none" stroke="#FFFFFF" stroke-linecap="round" stroke-linejoin="round" stroke-miterlimit="10" points="
			911.057,487.581 874.047,469.427 784.656,469.427 833.541,493.404 899.182,493.404 		"/>
		<polygon fill="none" stroke="#FFFFFF" stroke-linecap="round" stroke-linejoin="round" stroke-miterlimit="10" points="
			833.541,493.404 840.523,527.896 892.201,527.896 899.182,493.404 		"/>
		<polygon fill="none" stroke="#FFFFFF" stroke-linecap="round" stroke-linejoin="round" stroke-miterlimit="10" points="
			996.953,493.404 948.068,469.427 911.057,487.581 899.182,493.404 892.201,527.896 929.914,527.896 1003.934,527.896 		"/>
	</g>
	<g>
		
			<rect x="967.709" y="499.3" fill="none" stroke="#FFFFFF" stroke-linecap="round" stroke-linejoin="round" stroke-miterlimit="10" width="16.836" height="10.323"/>
	</g>
	<polygon fill="none" stroke="#FFFFFF" stroke-linecap="round" stroke-linejoin="round" stroke-miterlimit="10" points="
		924.898,527.896 963.541,527.896 963.541,495.384 939.484,495.384 924.898,501.243 	"/>
	
		<rect x="924.898" y="501.243" fill="none" stroke="#FFFFFF" stroke-linecap="round" stroke-linejoin="round" stroke-miterlimit="10" width="24.053" height="26.653"/>
	<polygon fill="none" stroke="#FFFFFF" stroke-linecap="round" stroke-linejoin="round" stroke-miterlimit="10" points="
		948.951,527.896 963.541,527.896 963.541,495.384 948.951,501.243 	"/>
	<polygon fill="none" stroke="#FFFFFF" stroke-linecap="round" stroke-linejoin="round" stroke-miterlimit="10" points="
		937.971,509.624 937.971,527.896 932.348,527.896 	"/>
	<polygon fill="none" stroke="#FFFFFF" stroke-linecap="round" stroke-linejoin="round" stroke-miterlimit="10" points="
		937.971,509.62 927.703,524.735 932.359,527.896 	"/>
	<polygon fill="none" stroke="#FFFFFF" stroke-linecap="round" stroke-linejoin="round" stroke-miterlimit="10" points="
		1086.34,493.404 1093.324,527.896 1003.934,527.896 996.953,493.404 	"/>
	<g>
		<polygon fill="none" stroke="#FFFFFF" stroke-linecap="round" stroke-linejoin="round" stroke-miterlimit="10" points="
			924.898,509.624 915.506,509.624 915.506,499.3 929.879,499.3 924.898,501.243 		"/>
	</g>
</g>
<g>
	<polygon fill="none" stroke="#FFFFFF" stroke-linecap="round" stroke-linejoin="round" stroke-miterlimit="10" points="
		1290.508,493.404 1241.627,469.427 1152.236,469.427 1201.121,493.404 1208.102,527.896 1297.492,527.896 	"/>
	<g>
		<polygon fill="none" stroke="#FFFFFF" stroke-linecap="round" stroke-linejoin="round" stroke-miterlimit="10" points="
			1201.121,493.404 1152.236,469.427 1115.225,487.581 1103.35,493.404 1096.369,527.896 1134.082,527.896 1208.102,527.896 		"/>
	</g>
	<g>
		
			<rect x="1171.877" y="499.3" fill="none" stroke="#FFFFFF" stroke-linecap="round" stroke-linejoin="round" stroke-miterlimit="10" width="16.836" height="10.323"/>
	</g>
	<polygon fill="none" stroke="#FFFFFF" stroke-linecap="round" stroke-linejoin="round" stroke-miterlimit="10" points="
		1129.066,527.896 1167.709,527.896 1167.709,495.384 1143.652,495.384 1129.066,501.243 	"/>
	
		<rect x="1129.066" y="501.243" fill="none" stroke="#FFFFFF" stroke-linecap="round" stroke-linejoin="round" stroke-miterlimit="10" width="24.053" height="26.653"/>
	<polygon fill="none" stroke="#FFFFFF" stroke-linecap="round" stroke-linejoin="round" stroke-miterlimit="10" points="
		1153.119,527.896 1167.709,527.896 1167.709,495.384 1153.119,501.243 	"/>
	<polygon fill="none" stroke="#FFFFFF" stroke-linecap="round" stroke-linejoin="round" stroke-miterlimit="10" points="
		1142.139,509.624 1142.139,527.896 1136.516,527.896 	"/>
	<polygon fill="none" stroke="#FFFFFF" stroke-linecap="round" stroke-linejoin="round" stroke-miterlimit="10" points="
		1142.139,509.62 1131.871,524.735 1136.527,527.896 	"/>
	<polygon fill="none" stroke="#FFFFFF" stroke-linecap="round" stroke-linejoin="round" stroke-miterlimit="10" points="
		1290.508,493.404 1297.492,527.896 1208.102,527.896 1201.121,493.404 	"/>
	<g>
		<polygon fill="none" stroke="#FFFFFF" stroke-linecap="round" stroke-linejoin="round" stroke-miterlimit="10" points="
			1129.066,509.624 1119.674,509.624 1119.674,499.3 1134.047,499.3 1129.066,501.243 		"/>
	</g>
</g>
<polyline fill="none" stroke="#FFFFFF" stroke-linecap="round" stroke-linejoin="round" stroke-miterlimit="10" points="
	50.448,362.307 61.162,373.021 64.345,369.838 81.311,386.805 95.935,372.181 "/>
<polyline fill="none" stroke="#FFFFFF" stroke-linecap="round" stroke-linejoin="round" stroke-miterlimit="10" points="
	470.037,410.625 482.026,422.614 485.588,419.052 504.574,438.039 520.938,421.675 "/>
<polyline fill="none" stroke="#FFFFFF" stroke-linecap="round" stroke-linejoin="round" stroke-miterlimit="10" points="
	1165.821,410.625 1177.811,422.614 1181.372,419.052 1200.358,438.039 1216.723,421.675 "/>
<polyline fill="none" stroke="#FFFFFF" stroke-linecap="round" stroke-linejoin="round" stroke-miterlimit="10" points="
	362.514,323.904 370.898,332.29 373.389,329.799 386.665,343.076 398.108,331.631 "/>
<line fill="none" stroke="#FFFFFF" stroke-linecap="round" stroke-linejoin="round" stroke-miterlimit="10" x1="911.057" y1="252.789" x2="808.012" y2="355.833"/>
<polyline fill="none" stroke="#FFFFFF" stroke-linecap="round" stroke-linejoin="round" stroke-miterlimit="10" points="
	1438.86,385.191 1310.494,256.825 1278.601,288.716 1222.601,232.717 1189.118,266.2 1124.348,201.427 1116.869,208.905 
	1077.008,169.043 990.843,255.209 949.741,214.106 902.993,260.852 "/>
<polyline fill="none" stroke="#FFFFFF" stroke-linecap="round" stroke-linejoin="round" stroke-miterlimit="10" points="
	1126.584,245.421 1110.256,261.751 1105.406,256.903 1079.553,282.757 1057.268,260.47 "/>
<polyline fill="none" stroke="#FFFFFF" stroke-linecap="round" stroke-linejoin="round" stroke-miterlimit="10" points="
	269.22,419.385 259.525,429.08 256.646,426.201 241.293,441.552 228.061,428.321 "/>
<polyline fill="none" stroke="#FFFFFF" stroke-linecap="round" stroke-linejoin="round" stroke-miterlimit="10" points="
	886.245,419.385 876.551,429.08 873.671,426.201 858.318,441.552 845.086,428.321 "/>
<path fill="none" stroke="#FFFFFF" stroke-linecap="round" stroke-linejoin="round" stroke-miterlimit="10" d="M500.795,291.661
	c0.904-2.776,3.433-4.82,6.468-5.007c0-0.005-0.001-0.01-0.001-0.016c0-6.056,4.909-10.967,10.967-10.967
	c5.294,0,9.715,3.755,10.741,8.747c0.287-0.039,0.581-0.06,0.878-0.06c3.621,0,6.562,2.906,6.619,6.516h0.003v2.821h-29.168h-6.864
	H494.8C496.486,292.461,498.555,291.714,500.795,291.661z"/>
<path  fill="none" stroke="#FFFFFF" stroke-linecap="round" stroke-linejoin="round" stroke-miterlimit="10" d="M233.633,309.18
	c-1.691-5.188-6.417-9.002-12.082-9.353c0-0.009,0-0.019,0-0.027c0-11.316-9.173-20.489-20.488-20.489
	c-9.894,0-18.149,7.012-20.067,16.34c-0.536-0.071-1.082-0.112-1.638-0.112c-6.766,0-12.261,5.433-12.37,12.173h-0.004v5.272h54.491
	h12.821h10.537C241.68,310.676,237.816,309.282,233.633,309.18z"/>
<path class="cloud-1" fill="none" stroke="#FFFFFF" stroke-linecap="round" stroke-linejoin="round" stroke-miterlimit="10" d="M1264.881,94.092
	c-1.691-5.188-6.416-9.002-12.082-9.353c0-0.009,0-0.019,0-0.027c0-11.316-9.172-20.489-20.488-20.489
	c-9.893,0-18.148,7.012-20.066,16.34c-0.537-0.071-1.082-0.112-1.639-0.112c-6.766,0-12.26,5.433-12.369,12.173h-0.004v5.272h54.49
	h12.822h10.537C1272.928,95.588,1269.064,94.194,1264.881,94.092z"/>
<path fill="none" stroke="#FFFFFF" stroke-linecap="round" stroke-linejoin="round" stroke-miterlimit="10" d="M796.724,278.615
	c1.691-5.188,6.417-9.002,12.082-9.353c0-0.009,0-0.019,0-0.027c0-11.316,9.173-20.489,20.488-20.489
	c9.894,0,18.149,7.012,20.067,16.34c0.536-0.071,1.082-0.112,1.638-0.112c6.766,0,12.261,5.433,12.37,12.173h0.004v5.272h-54.491
	h-12.821h-10.537C788.677,280.111,792.54,278.716,796.724,278.615z"/>
<path fill="none" stroke="#FFFFFF" stroke-linecap="round" stroke-linejoin="round" stroke-miterlimit="10" d="M710,228.109
	c-0.547-1.678-2.075-2.913-3.908-3.025c0-0.002,0-0.007,0-0.01c0-3.659-2.967-6.627-6.627-6.627c-3.201,0-5.871,2.269-6.492,5.285
	c-0.173-0.023-0.351-0.036-0.529-0.036c-2.188,0-3.966,1.758-4.001,3.938h-0.003v1.704h17.627h4.148h3.408
	C712.603,228.593,711.354,228.141,710,228.109z"/>
<path fill="none" stroke="#FFFFFF" stroke-linecap="round" stroke-linejoin="round" stroke-miterlimit="10" d="M1376.297,22.66
	c0.547-1.678,2.075-2.913,3.908-3.025c0-0.002,0-0.007,0-0.01c0-3.659,2.967-6.627,6.627-6.627c3.201,0,5.871,2.269,6.492,5.285
	c0.173-0.023,0.351-0.036,0.529-0.036c2.188,0,3.966,1.758,4.001,3.938h0.003v1.704h-17.627h-4.148h-3.408
	C1373.694,23.144,1374.943,22.692,1376.297,22.66z"/>
<g>
	<path fill="none" stroke="#FFFFFF" stroke-linecap="round" stroke-linejoin="round" stroke-miterlimit="10" d="M1390.316,524.392
		h-1.486v-57.104h-7.126v57.104h-1.485c-1.938,0-3.506,1.569-3.506,3.504h4.991h7.126h4.989
		C1393.819,525.961,1392.251,524.392,1390.316,524.392z"/>
	<path fill="none" stroke="#FFFFFF" stroke-linecap="round" stroke-linejoin="round" stroke-miterlimit="10" d="M1414.144,456.441
		h-17.829l1.488-1.462l-3.936-1.923l5.84,0.053l3.332-3.27l-3.936-1.924l5.84,0.054l3.311-3.25l-0.266-0.271
		c-3.296-3.358-8.692-3.408-12.051-0.109l-10.67,10.475l-10.672-10.475c-3.358-3.299-8.755-3.249-12.049,0.109l-0.269,0.271
		l3.312,3.25l5.842-0.054l-3.938,1.924l3.334,3.27l5.838-0.053l-3.936,1.923l1.488,1.462h-17.831
		c-5.735,0-10.385,4.649-10.385,10.386v0.462h5.653l5.037-5.036l-1.784,5.036h5.69l5.034-5.036l-1.78,5.036h21.413h20.079
		l-1.781-5.036l5.032,5.036h7.885l-1.784-5.036l5.037,5.036h4.795v-0.462C1424.529,461.09,1419.88,456.441,1414.144,456.441z"/>
</g>
<g>
	<path fill="none" stroke="#FFFFFF" stroke-linecap="round" stroke-linejoin="round" stroke-miterlimit="10" d="M68.087,525.044
		h-1.21v-46.48h-5.801v46.48h-1.209c-1.577,0-2.854,1.277-2.854,2.852h4.063h5.801h4.061
		C70.938,526.322,69.661,525.044,68.087,525.044z"/>
	<path fill="none" stroke="#FFFFFF" stroke-linecap="round" stroke-linejoin="round" stroke-miterlimit="10" d="M87.48,469.735
		H72.969l1.211-1.189l-3.203-1.565l4.754,0.043l2.712-2.661l-3.203-1.566l4.753,0.044l2.695-2.646l-0.217-0.221
		c-2.683-2.733-7.075-2.774-9.809-0.089l-8.685,8.525l-8.687-8.525c-2.734-2.686-7.126-2.645-9.808,0.089l-0.219,0.221l2.696,2.646
		l4.754-0.044l-3.204,1.566l2.714,2.661l4.751-0.043l-3.203,1.565l1.212,1.189H40.471c-4.669,0-8.453,3.784-8.453,8.453v0.376h4.602
		l4.1-4.099l-1.452,4.099h4.632l4.098-4.099l-1.449,4.099h17.43H80.32l-1.45-4.099l4.096,4.099h6.418l-1.452-4.099l4.1,4.099h3.903
		v-0.376C95.935,473.519,92.15,469.735,87.48,469.735z"/>
</g>
<g>
	<polyline fill="none" stroke="#FFFFFF" stroke-linecap="round" stroke-linejoin="round" stroke-miterlimit="10" points="
		719.428,487.376 719.428,452.957 713.627,452.957 713.627,484.532 	"/>
	<path fill="none" stroke="#FFFFFF" stroke-linecap="round" stroke-linejoin="round" stroke-miterlimit="10" d="M740.031,444.127
		H725.52l1.211-1.189l-3.203-1.565l4.754,0.043l2.711-2.661l-3.203-1.566l4.754,0.044l2.695-2.646l-0.217-0.221
		c-2.684-2.733-7.076-2.774-9.809-0.089l-8.686,8.525l-8.686-8.525c-2.734-2.686-7.127-2.645-9.809,0.089l-0.219,0.221l2.697,2.646
		l4.754-0.044l-3.205,1.566l2.715,2.661l4.75-0.043l-3.203,1.565l1.213,1.189h-14.514c-4.67,0-8.453,3.784-8.453,8.453v0.376h4.602
		l4.1-4.099l-1.453,4.099h4.633l4.098-4.099l-1.449,4.099h17.43h16.344l-1.451-4.099l4.096,4.099h6.418l-1.451-4.099l4.1,4.099
		h3.902v-0.376C748.484,447.912,744.701,444.127,740.031,444.127z"/>
</g>
<path fill="#FFFFFF" d="M197.234,525.957c-1.041-2.235-2.126-12.511-2.004-15.13c0.052-1.088-0.021-2.038-0.121-2.792
	c-0.004-0.159-0.014-0.305-0.029-0.436c-0.011-0.15-0.083-0.585-0.259-1.09c-0.03-0.114-0.053-0.194-0.053-0.194
	s-0.138-1.786-0.121-2.156c0.021-0.479-0.259-2.302-0.188-4.417c0.06-1.813-0.248-3.354-0.256-3.396c0-0.003,0-0.005,0-0.008
	l-0.069-0.902c0.166-0.128,0.315-0.281,0.443-0.463c0.266,0.185,0.526-0.185,0.735-0.657c0.026,0.014,0.052,0.031,0.079,0.044
	c0,0,0.596-0.746,0.642-1.125c-0.004-0.01-0.018-0.029-0.039-0.058c0.094-0.175,0.182-0.625,0.147-0.739
	c-0.002-0.006-0.017-0.034-0.023-0.048c0.403-0.487,0.204-1.294-0.182-1.708c-0.333-0.358-1.107-0.323-1.355-0.302
	c-0.068-0.038-0.136-0.077-0.199-0.087c-0.545-0.083-0.954,0.068-1.096,0.131c-0.06-0.027-0.111-0.043-0.144-0.03
	c-0.372,0.152-0.709,0.636-0.709,0.636s0.001,0.001,0.001,0.002c-0.082,0.081-0.134,0.143-0.134,0.143s-0.199,0.292-0.153,0.397
	c0.007,0.017,0.038,0.018,0.079,0.014c-0.165,0.275-0.288,0.593-0.339,0.945c0,0-0.003,0.014-0.008,0.037h-0.001l0,0.008
	c-0.035,0.167-0.167,0.771-0.267,0.877c-0.115,0.126,0.284,0.262,0.284,0.262h0.001c0.085,0.816,0.374,1.79,1.226,1.97
	c-0.053,0.515-0.026,0.896-0.026,0.897h-0.002c-0.133,0.51-2.039,2.704-2.256,3.192c-0.217,0.487,0.128,1.241,0.128,1.241
	c-0.205,1.405-0.207,2.719-0.156,3.688c-0.414,1.3-1.168,3.514-1.323,3.754c0,0-0.629,1.813-0.575,2.163
	c0.053,0.352,0.291,0.617,0.291,0.617l0.172-0.036l-0.049-0.238c-0.03-0.104-0.035-0.206-0.031-0.306
	c0.082,0.266,0.24,0.457,0.24,0.457l0.172-0.034l-0.046-0.239c-0.04-0.144-0.041-0.284-0.02-0.415
	c0.042-0.042,0.219-0.234,0.341-0.508l-0.018,0.408c0,0,0.286-0.26,0.416-0.627c0.129-0.364-0.12-1.264-0.12-1.264
	s0.224-0.501,0.701-1.388c-0.135,5.202-2.313,18.321-0.662,18.909c0.48,0.171,1.311,0.418,2.234,0.639
	c-0.064,0.199-0.152,0.294-0.152,0.294l-1.861,0.737l-0.01,0.27h1.003h1.196h1.093l0.72-0.193c-0.042-0.148-0.167-0.438-0.274-0.758
	C196.142,527.249,197.813,527.198,197.234,525.957z M193.4,526.917l-0.177,0.066c-0.021-0.079-0.043-0.159-0.061-0.244
	c0.102,0.021,0.203,0.044,0.305,0.064C193.433,526.873,193.4,526.917,193.4,526.917z"/>
<path fill="#FFFFFF" d="M515.056,508.25c-0.155-0.24-0.909-2.454-1.323-3.755c0.05-0.968,0.048-2.281-0.156-3.687
	c0,0,0.345-0.754,0.128-1.241c-0.217-0.488-2.123-2.683-2.256-3.192h-0.002c0-0.001,0.027-0.383-0.026-0.897
	c0.852-0.181,1.14-1.153,1.226-1.97h0.001c0,0,0.399-0.136,0.284-0.262c-0.1-0.106-0.232-0.71-0.267-0.877l0-0.008h-0.001
	c-0.005-0.023-0.008-0.037-0.008-0.037c-0.052-0.353-0.175-0.67-0.339-0.945c0.041,0.004,0.072,0.003,0.079-0.014
	c0.046-0.105-0.153-0.397-0.153-0.397s-0.052-0.062-0.134-0.143c0-0.001,0.001-0.002,0.001-0.002s-0.337-0.483-0.709-0.636
	c-0.032-0.013-0.084,0.003-0.144,0.03c-0.142-0.063-0.551-0.214-1.096-0.131c-0.063,0.01-0.131,0.049-0.199,0.087
	c-0.248-0.021-1.022-0.057-1.355,0.302c-0.386,0.414-0.585,1.221-0.182,1.708c-0.006,0.014-0.021,0.042-0.023,0.048
	c-0.034,0.114,0.053,0.564,0.148,0.739c-0.021,0.028-0.035,0.048-0.04,0.058c0.046,0.379,0.642,1.125,0.642,1.125
	c0.026-0.013,0.052-0.03,0.079-0.044c0.208,0.473,0.469,0.842,0.735,0.657c0.128,0.182,0.278,0.335,0.443,0.463l-0.069,0.902
	c0,0.003,0,0.005,0,0.008c-0.008,0.041-0.316,1.582-0.256,3.396c0.071,2.115-0.208,3.938-0.188,4.417
	c0.017,0.37-0.121,2.156-0.121,2.156s-0.022,0.08-0.053,0.194c-0.176,0.505-0.248,0.939-0.259,1.09
	c-0.015,0.131-0.025,0.276-0.029,0.437c-0.1,0.753-0.172,1.703-0.121,2.791c0.122,2.619-0.963,12.895-2.004,15.13
	c-0.578,1.241,1.092,1.292,2.987,0.988c-0.107,0.319-0.233,0.609-0.274,0.758l0.72,0.193h1.093h1.196h1.003l-0.01-0.27l-1.861-0.737
	c0,0-0.087-0.095-0.152-0.294c0.923-0.221,1.753-0.468,2.234-0.639c1.651-0.588-0.527-13.707-0.662-18.909
	c0.478,0.887,0.701,1.388,0.701,1.388s-0.249,0.899-0.12,1.264c0.13,0.367,0.416,0.627,0.416,0.627l-0.018-0.408
	c0.122,0.273,0.298,0.466,0.341,0.508c0.021,0.131,0.02,0.271-0.02,0.415l-0.046,0.239l0.172,0.034c0,0,0.158-0.191,0.24-0.457
	c0.004,0.1-0.001,0.201-0.031,0.306l-0.049,0.238l0.172,0.036c0,0,0.238-0.266,0.291-0.617
	C515.685,510.062,515.056,508.25,515.056,508.25z M511.319,526.776l-0.177-0.066c0,0-0.032-0.044-0.067-0.113
	c0.102-0.021,0.203-0.043,0.305-0.064C511.363,526.617,511.341,526.697,511.319,526.776z"/>
<path fill="#FFFFFF" d="M114.109,526.267l-1.704,0.602c0,0-0.292-0.106-0.472-0.656c-0.04-0.122-0.211-0.603-0.448-1.259
	c1.017-0.989-4.354-12.538-4.412-16.861c0.002-0.013,0.003-0.024,0.005-0.036h0.003c0,0,0.051-0.311,0.097-0.822
	c0.068,0.131,0.135,0.262,0.217,0.404c0.893,1.533,1.291,2.43,1.291,2.43s-0.237,0.854-0.114,1.2s0.396,0.595,0.396,0.595
	l-0.028-0.605c0,0,0.474,0.525,0.315,1.094l-0.045,0.227l0.164,0.033c0,0,0.223-0.256,0.27-0.59
	c0.046-0.333-0.573-2.047-0.573-2.047c-0.197-0.298-1.431-3.854-1.562-4.374c-0.041-0.161-0.105-0.307-0.192-0.49
	c-0.021-0.046-0.045-0.095-0.069-0.146c-0.018-0.604-0.067-1.261-0.166-1.94c0,0,0.326-0.716,0.121-1.179s-2.016-2.546-2.143-3.03
	l-0.005-0.001c-0.004-0.045-0.022-0.263-0.04-0.581c0.802-0.156,1.071-1.066,1.151-1.828h0.001c0,0,0.37-0.126,0.264-0.241
	c-0.093-0.101-0.216-0.663-0.248-0.815l0-0.005h0c-0.005-0.021-0.007-0.034-0.007-0.034c-0.048-0.326-0.162-0.62-0.314-0.875
	c0.038,0.004,0.067,0.003,0.074-0.013c0.041-0.098-0.144-0.368-0.144-0.368s-0.048-0.057-0.123-0.132l0.001-0.002
	c0,0-0.313-0.446-0.656-0.588c-0.03-0.012-0.078,0.003-0.133,0.027c-0.131-0.058-0.51-0.196-1.015-0.12
	c-0.058,0.009-0.122,0.045-0.185,0.08c-0.23-0.02-0.946-0.052-1.253,0.279c-0.357,0.383-0.542,1.13-0.169,1.581
	c-0.006,0.013-0.02,0.039-0.021,0.045c-0.032,0.104,0.048,0.521,0.137,0.684c-0.02,0.026-0.033,0.045-0.037,0.054
	c0.042,0.352,0.594,1.04,0.594,1.04c0.024-0.012,0.047-0.032,0.071-0.045c0.193,0.44,0.435,0.784,0.682,0.613
	c0.051,0.071,0.107,0.135,0.165,0.198l0.159,0.896c-0.002,0.152-0.005,0.525-0.007,1.03c-0.116,0.117-0.208,0.252-0.252,0.358
	c-0.121,0.292-2.103,3.795-2.207,4.565c0,0-0.016,0.074-0.014,0.168c-0.003,0.034-0.082,0.913,0.679,2.478
	c0.379,0.779,0.65,1.396,0.83,1.825c-0.079,0.278-0.146,0.619-0.195,1.033c-0.13,0.537-0.251,1.146-0.335,1.825
	c-0.299,2.409-1.584,9.284-2.424,11.41c-0.124,0.313,0.011,0.589,0.327,0.831c-0.125,1.071-0.207,1.931-0.292,2.177
	c-0.164,0.478-0.576,0.988-0.691,1.202l0.627,0.329h2.222l0.066-0.247l-1.712-0.576c0,0-0.165-0.264,0.033-0.807
	c0.052-0.144,0.267-0.793,0.551-1.661c2.337,0.882,7.517,1.069,9.551,0.628c0.414,0.674,0.734,1.193,0.803,1.392
	c0.164,0.478,0.137,0.989,0.178,1.229l0.713,0.018l1.752-1.369L114.109,526.267z M102.314,504.736c0,0-0.003-0.007-0.003-0.008
	c0.179-0.406,0.458-0.973,1.027-1.863c0.262-0.41,0.481-0.77,0.67-1.088c0,0.017,0,0.031,0,0.047
	c0.021,1.773-0.012,3.937-0.116,4.273c-0.106,0.337-0.422,1.959-0.422,1.959h0.005c-0.073,0.128-0.135,0.244-0.187,0.352
	c-0.339-1.2-0.761-2.828-0.82-3.169C102.44,505.076,102.387,504.926,102.314,504.736z"/>
<g>
	<path fill="#FFFFFF" d="M711.979,500.331c-0.554-1.292-2.755-3.541-3.104-3.991c-0.35-0.449-1.434-1.098-1.905-0.518
		c-0.472,0.579-0.025,1.252-0.025,1.252s0.028,0.138,1.065,1.076c1.945,1.764,2.677,2.721,3.177,3.359c0,0,0.349,0.402,0.779-0.149
		C712.313,500.9,711.979,500.331,711.979,500.331z"/>
	<path fill="#FFFFFF" d="M712.046,501.228c0,0-0.445,0.932-2.171,2.029c-0.492,0.313-0.929,0.51-0.929,0.51
		s-0.211,0.999-0.521,1.289c-0.311,0.289-0.72,0.398-0.72,0.398l0.35-0.605c0,0-0.764,0.288-0.904,0.953l-0.075,0.255l-0.185-0.052
		c0,0-0.093-0.381,0.037-0.747c0.131-0.367,1.674-1.792,1.674-1.792c0.36-0.2,1.83-1.892,2.24-2.355
		c0.127-0.144,0.271-0.257,0.457-0.398c0,0,0.316-0.27,0.608-0.039C712.201,500.904,712.046,501.228,712.046,501.228z"/>
	<path fill="#FFFFFF" d="M707.594,505.705c1.526,1.307,0.907,3.984,0.755,4.416c-0.182,0.594-0.55,1.39-1.261,2.424
		c-1.915,2.785-4.617,4.848-4.617,4.848s-0.359,0.687-0.919,0.142c-0.264-0.256-0.51-0.692-0.347-1.237
		c0.165-0.546,2.774-8.332,3.872-10.063C705.077,506.233,706.067,504.397,707.594,505.705z"/>
	<path fill="#FFFFFF" d="M705.779,504.059c2.003,0.151,3.089,2.676,3.221,3.114c0.204,0.587,0.379,1.446,0.418,2.701
		c0.104,3.378,0.819,6.091,0.819,6.091s0.116,0.766-0.657,0.657c-0.364-0.051-0.821-0.256-1.012-0.793s-4.367-7.811-4.505-9.855
		C704.063,505.974,703.775,503.91,705.779,504.059z"/>
	<path fill="#FFFFFF" d="M708.702,515.696c0,0,3.082,9.515,3.326,10.187c0.244,0.671,0.041,0.996,0.041,0.996l-2.116,0.712
		l0.081,0.306h2.746l0.773-0.407c-0.143-0.265-0.651-0.895-0.854-1.484c-0.203-0.591-0.387-4.028-0.997-6.734
		c-0.609-2.704-2.273-3.824-2.273-3.824s-0.243-0.213-0.492-0.154C708.692,515.353,708.667,515.585,708.702,515.696z"/>
	<path fill="#FFFFFF" d="M701.753,515.742c0,0-3.431,9.395-3.652,10.074c-0.221,0.679-0.582,0.811-0.582,0.811l-2.104-0.743
		l-0.124,0.291l2.164,1.691l0.883-0.022c0.051-0.296,0.015-0.929,0.217-1.518c0.204-0.591,2.177-3.412,3.361-5.92
		c1.186-2.507,0.563-4.414,0.563-4.414s-0.06-0.317-0.292-0.424C701.956,515.465,701.792,515.633,701.753,515.742z"/>
	<path fill="#FFFFFF" d="M709.354,506.05c0,0,0.843,1.85,1.292,4.971c0.428,2.969,1.719,11.515,2.908,14.07
		c1.189,2.555-12.605,0.386-14.588-0.319s4.534-13.501,4.431-18.722H709.354z"/>
	<path fill="#FFFFFF" d="M706.338,495.695c0,0,0.508-0.784,0.101-1.8s1.867-0.706,1.867-0.706l-0.372,2.153
		c0.078,1.031-1.024,1.302-1.427,1.084C706.105,496.208,706.338,495.695,706.338,495.695z"/>
	<path fill="#FFFFFF" d="M703.409,506.214c0,0-0.298-2.922,0.688-6.219c0,0-0.404-0.884-0.15-1.455
		c0.254-0.572,2.49-3.146,2.646-3.744l1.3-0.285c0,0,1.278,1.852,1.131,4.004c-0.156,2.279,0.08,4.927,0.08,5.305
		c0,0.437,0.25,2.395,0.25,2.395H703.409z"/>
	<path fill="#FFFFFF" d="M705.585,502.117c0.905-1.074,1.93-4.051,2.175-4.565c0.244-0.515,0.338-1.772-0.392-1.935
		c-0.73-0.162-1.131,0.538-1.131,0.538s-0.109,0.087-0.484,1.435c-0.703,2.53-1.23,3.613-1.577,4.347c0,0-0.204,0.493,0.483,0.63
		C705.226,502.67,705.585,502.117,705.585,502.117z"/>
	<path fill="#FFFFFF" d="M704.812,502.579c0,0-1.031,0.021-2.786-1.03c-0.5-0.299-0.871-0.602-0.871-0.602s-0.987,0.261-1.386,0.113
		s-0.681-0.464-0.681-0.464l0.699,0.04c0,0-0.6-0.553-1.258-0.38l-0.262,0.047l-0.036-0.188c0,0,0.299-0.254,0.685-0.301
		c0.386-0.048,2.353,0.691,2.353,0.691c0.34,0.232,2.512,0.787,3.109,0.945c0.186,0.051,0.352,0.127,0.562,0.229
		c0,0,0.383,0.163,0.308,0.528C705.172,502.573,704.812,502.579,704.812,502.579z"/>
	<path fill="#FFFFFF" d="M705.14,490.47c0.005-0.063,0.008-0.099,0.008-0.099h0.005c0.001-0.015,0.003-0.03,0.005-0.045
		c0.212-1.447,1.332-2.48,2.502-2.31s1.947,1.482,1.736,2.928c-0.003,0.016-0.006,0.03-0.008,0.046h0.001
		c0,0-0.001,0.004-0.003,0.01c-0.034,0.212-0.088,0.414-0.159,0.605c-0.303,0.988-1.056,2.799-2.471,2.592h-0.004
		c-1.449-0.211-1.628-2.255-1.626-3.266C705.12,490.782,705.124,490.627,705.14,490.47z"/>
	<path fill="#FFFFFF" d="M705.157,490.327c0,0-0.193,0.971-0.335,1.125c-0.142,0.152,0.346,0.317,0.346,0.317l0.218-0.049
		L705.157,490.327z"/>
	<g>
		<path fill="#FFFFFF" d="M707.036,491.731c0-0.377,0.307-0.684,0.683-0.684c0.377,0,0.683,0.307,0.683,0.684
			c0,0.376-0.306,0.683-0.683,0.683C707.343,492.414,707.036,492.107,707.036,491.731z M707.111,491.731
			c0,0.334,0.272,0.607,0.607,0.607s0.607-0.273,0.607-0.607c0-0.335-0.272-0.608-0.607-0.608S707.111,491.396,707.111,491.731z"/>
	</g>
	<path fill="#FFFFFF" d="M707.94,491.271c0.076-0.676-0.314-0.577-0.79-0.899c-0.476-0.323-0.229-0.891-0.399-1.243
		c-0.168-0.354-1.22,0.157-1.275,0.029c-0.056-0.129,0.188-0.485,0.188-0.485s1.187-1.493,2.706-0.734
		c1.789,0.894,1.497,2.942,1.497,2.942s-0.768,3.211-1.528,2.34C707.862,492.676,707.94,491.271,707.94,491.271z"/>
	<circle fill="#FFFFFF" cx="705.551" cy="488.641" r="0.451"/>
	<circle fill="#FFFFFF" cx="706.365" cy="487.833" r="0.444"/>
	<circle fill="#FFFFFF" cx="708.094" cy="487.604" r="0.444"/>
	<circle fill="#FFFFFF" cx="709.053" cy="488.167" r="0.444"/>
	<circle fill="#FFFFFF" cx="706.851" cy="487.567" r="0.299"/>
	<circle fill="#FFFFFF" cx="705.92" cy="488.222" r="0.299"/>
	<circle fill="#FFFFFF" cx="707.277" cy="487.723" r="0.299"/>
	<circle fill="#FFFFFF" cx="708.712" cy="487.833" r="0.299"/>
	<circle fill="#FFFFFF" cx="707.601" cy="487.471" r="0.312"/>
	<circle fill="#FFFFFF" cx="709.43" cy="488.641" r="0.312"/>
	<circle fill="#FFFFFF" cx="709.672" cy="489.359" r="0.312"/>
	<circle fill="#FFFFFF" cx="709.885" cy="490.795" r="0.312"/>
	<circle fill="#FFFFFF" cx="709.629" cy="491.586" r="0.312"/>
	<circle fill="#FFFFFF" cx="709.804" cy="489.946" r="0.312"/>
	<circle fill="#FFFFFF" cx="709.885" cy="490.327" r="0.312"/>
	<circle fill="#FFFFFF" cx="707.236" cy="487.389" r="0.174"/>
	<circle fill="#FFFFFF" cx="708.539" cy="487.567" r="0.174"/>
	<circle fill="#FFFFFF" cx="709.757" cy="488.909" r="0.174"/>
	<circle fill="#FFFFFF" cx="709.498" cy="488.29" r="0.174"/>
	<circle fill="#FFFFFF" cx="708.406" cy="487.92" r="0.174"/>
	<circle fill="#FFFFFF" cx="705.874" cy="487.833" r="0.128"/>
	<circle fill="#FFFFFF" cx="709.804" cy="489.092" r="0.128"/>
	<circle fill="#FFFFFF" cx="710.013" cy="489.67" r="0.128"/>
	<circle fill="#FFFFFF" cx="709.83" cy="489.633" r="0.128"/>
	<circle fill="#FFFFFF" cx="709.941" cy="489.487" r="0.127"/>
	<circle fill="#FFFFFF" cx="710.069" cy="491.106" r="0.127"/>
	<circle fill="#FFFFFF" cx="709.604" cy="491.898" r="0.128"/>
	<circle fill="#FFFFFF" cx="709.3" cy="492.573" r="0.16"/>
	<circle fill="#FFFFFF" cx="708.519" cy="493.03" r="0.159"/>
	<circle fill="#FFFFFF" cx="708.887" cy="492.902" r="0.16"/>
	<circle fill="#FFFFFF" cx="709.396" cy="492.414" r="0.128"/>
	<circle fill="#FFFFFF" cx="708.743" cy="493.062" r="0.128"/>
	<circle fill="#FFFFFF" cx="709.061" cy="492.774" r="0.128"/>
	<circle fill="#FFFFFF" cx="709.86" cy="491.147" r="0.128"/>
	<circle fill="#FFFFFF" cx="709.885" cy="491.315" r="0.208"/>
	<circle fill="#FFFFFF" cx="709.477" cy="492.157" r="0.208"/>
	<circle fill="#FFFFFF" cx="709.188" cy="492.858" r="0.208"/>
	<circle fill="#FFFFFF" cx="709.548" cy="488.987" r="0.127"/>
	<circle fill="#FFFFFF" cx="709.702" cy="488.78" r="0.128"/>
	<circle fill="#FFFFFF" cx="710.116" cy="490.073" r="0.127"/>
	<circle fill="#FFFFFF" cx="705.607" cy="488.022" r="0.267"/>
	<circle fill="#FFFFFF" cx="705.508" cy="488.987" r="0.206"/>
</g>
<path fill="#FFFFFF" d="M1350.37,525.969c-1.04-2.235-2.125-12.511-2.002-15.13c0.052-1.09-0.021-2.042-0.122-2.796
	c-0.004-0.158-0.014-0.302-0.028-0.432c-0.011-0.149-0.083-0.584-0.259-1.089c-0.029-0.115-0.053-0.195-0.053-0.195
	s-0.138-1.786-0.122-2.156c0.021-0.479-0.258-2.302-0.188-4.417c0.061-1.813-0.248-3.354-0.257-3.396
	c0-0.003,0.001-0.005,0.001-0.008l-0.068-0.902c0.165-0.128,0.314-0.281,0.443-0.463c0.266,0.185,0.526-0.185,0.734-0.657
	c0.026,0.014,0.052,0.031,0.078,0.044c0,0,0.597-0.746,0.643-1.125c-0.005-0.01-0.019-0.029-0.04-0.059
	c0.096-0.175,0.182-0.624,0.148-0.738c-0.002-0.006-0.017-0.034-0.023-0.048c0.402-0.487,0.203-1.294-0.182-1.708
	c-0.333-0.358-1.109-0.323-1.355-0.302c-0.068-0.038-0.137-0.077-0.2-0.087c-0.544-0.083-0.952,0.067-1.095,0.131
	c-0.061-0.027-0.111-0.043-0.144-0.03c-0.373,0.152-0.709,0.636-0.709,0.636l0.001,0.002c-0.082,0.081-0.134,0.143-0.134,0.143
	s-0.199,0.292-0.154,0.397c0.007,0.017,0.039,0.018,0.079,0.014c-0.164,0.275-0.287,0.593-0.339,0.945c0,0-0.003,0.015-0.008,0.038
	l-0.002-0.001c0,0-0.001,0.013-0.001,0.015c-0.037,0.175-0.167,0.765-0.267,0.87c-0.115,0.126,0.285,0.262,0.285,0.262h0.001
	c0.086,0.816,0.374,1.79,1.226,1.971c-0.053,0.514-0.025,0.896-0.025,0.896h-0.002c-0.133,0.51-2.039,2.704-2.256,3.192
	c-0.217,0.487,0.127,1.241,0.127,1.241c-0.138,0.946-0.183,1.848-0.183,2.634c-1.15,0.672-3.346,1.892-3.632,1.969
	c0,0-1.685,0.922-1.882,1.218c-0.196,0.296-0.197,0.652-0.197,0.652l0.151,0.089l0.123-0.21c0.271-0.56,1.013-0.646,1.013-0.646
	l-0.444,0.46c0,0,0.387-0.005,0.727-0.194c0.338-0.188,0.746-1.027,0.746-1.027s0.939-0.43,2.713-1.019
	c0.264-0.088,0.494-0.178,0.708-0.269c0.001,0.01,0.001,0.021,0.002,0.03c-0.415,1.3-1.17,3.514-1.323,3.754
	c0,0-0.629,1.813-0.576,2.163c0.053,0.352,0.292,0.617,0.292,0.617l0.171-0.036l-0.049-0.238c-0.174-0.597,0.318-1.157,0.318-1.157
	l-0.021,0.64c0,0,0.283-0.265,0.408-0.633c0.125-0.367-0.137-1.263-0.137-1.263s0.334-0.777,1.072-2.121
	c0.052,4.682-2.389,18.916-0.668,19.528c0.48,0.171,1.312,0.418,2.234,0.639c-0.064,0.2-0.152,0.294-0.152,0.294l-1.861,0.737
	l-0.009,0.27h1.003h1.196h1.093l0.719-0.193c-0.041-0.148-0.167-0.438-0.274-0.758
	C1349.278,527.261,1350.948,527.21,1350.37,525.969z M1346.536,526.929l-0.176,0.066c-0.022-0.079-0.044-0.159-0.062-0.244
	c0.102,0.021,0.203,0.044,0.305,0.064C1346.568,526.885,1346.536,526.929,1346.536,526.929z"/>
<path fill="#FFFFFF" d="M1073.96,526.276l-2.25,0.363c0,0-0.096-0.058-0.203-0.222c-0.09-0.142-0.188-0.363-0.233-0.697
	c-0.084-0.611-1.341-7.896-1.727-10.13c0.065-0.173,0.105-0.364,0.073-0.591c-0.083-0.575-0.844-9.95-1.689-11.862
	c0,0-0.022-0.06-0.064-0.147c0.017-0.09,0.028-0.172,0.037-0.246c0.021-0.142,0.052-0.387,0.084-0.712
	c1.078,1.188,1.613,1.836,1.613,1.836s0.262,0.998,0.541,1.367c0.281,0.371,0.703,0.563,0.703,0.563l-0.266-0.718
	c0,0,0.77,0.451,0.798,1.195l0.034,0.288l0.207-0.022c0,0,0.172-0.393,0.098-0.812c-0.07-0.418-1.471-2.24-1.471-2.24
	c-0.269-0.215-1.45-1.971-2.156-3.049c0.034-1.092,0.004-2.455-0.207-3.901c0,0-0.467-4.639-2.547-5.305l-0.002-0.001
	c-0.002-0.002-0.227-0.355-0.213-0.877c0.031-0.003,0.058,0.007,0.09,0.002l0.004-0.001c1.095-0.16,1.448-1.38,1.555-2.388
	l0.002,0.001c0,0,0.478-0.161,0.339-0.312c-0.138-0.149-0.329-0.698-0.329-0.698c-0.068-0.465-0.239-0.88-0.469-1.23
	c0.058,0.008,0.104,0.009,0.113-0.014c0.055-0.128-0.187-0.48-0.187-0.48s-1.176-1.479-2.681-0.728
	c-1.771,0.886-1.481,2.65-1.481,2.65s0.63,2.293,1.312,2.051c0.087,0.146,0.183,0.284,0.286,0.415l0.087,1.568
	c0,0.003,0.001,0.004,0.001,0.007c-0.334,0.418-0.868,1.427-0.687,3.549c0.071,0.849,0.142,1.828,0.19,2.724
	c-0.174,1.099-0.307,2.114-0.291,2.574c-0.108,0.315-0.221,0.808-0.237,1.514c-0.053,2.235-0.148,3.398-0.148,3.398
	s-0.508,0.898-0.563,1.359s0.111,0.894,0.111,0.894l0.31-0.7c0,0,0.006,0.022,0.013,0.057c-0.003,0.018-0.004,0.032-0.007,0.05
	c-0.065,0.408-0.125,0.802-0.183,1.188c-0.027,0.039-0.05,0.08-0.083,0.117l-0.176,0.231l0.165,0.128c0,0,0.018-0.009,0.024-0.012
	c-0.521,3.576-0.733,6.118-0.793,6.921c-0.336,0.285-0.653,0.807-0.865,1.749c-0.623,2.761-1.414,8.3-1.622,8.901
	c-0.046,0.138-0.11,0.275-0.181,0.412c-0.243,0.462-0.396,1.017-0.508,1.226l0.789,0.415h2.801l0.084-0.312l-2.16-0.727
	c0,0-0.059-0.097-0.075-0.291c-0.015-0.168,0.003-0.408,0.118-0.726c0.21-0.58,2.491-7.612,3.19-9.769
	c0.138-0.122,0.263-0.272,0.339-0.488c0.089-0.248,1.009-2.494,2.004-5.072c1.241,3.581,2.061,4.774,2.383,5.137
	c-0.129,0.406-0.139,0.993,0.091,1.845c0.735,2.732,2.616,8.003,2.712,8.632c0.023,0.144,0.031,0.296,0.031,0.449
	c0.002,0.522,0.124,1.084,0.122,1.321h0.892l2.479-1.305L1073.96,526.276z"/>
<path fill="#FFFFFF" d="M367.861,526.613l-1.782,0.287c0,0-0.077-0.045-0.161-0.176c-0.072-0.111-0.148-0.288-0.186-0.552
	c-0.065-0.485-1.064-6.272-1.367-8.025c0.052-0.136,0.084-0.288,0.059-0.468c-0.066-0.455-0.669-7.883-1.34-9.397
	c0,0-0.018-0.049-0.053-0.121c0.005-0.028,0.008-0.052,0.012-0.078h0.002c0,0,0.041-0.262,0.083-0.68
	c0.855,0.942,1.279,1.458,1.279,1.458s0.207,0.79,0.429,1.083c0.223,0.294,0.557,0.446,0.557,0.446l-0.21-0.569
	c0,0,0.609,0.357,0.632,0.948l0.027,0.227l0.164-0.017c0,0,0.136-0.312,0.078-0.644c-0.057-0.33-1.166-1.774-1.166-1.774
	c-0.213-0.171-1.153-1.567-1.711-2.421c0.027-0.866,0.006-1.938-0.162-3.086c0,0-0.369-3.674-2.017-4.201h-0.002
	c-0.001-0.002-0.178-0.283-0.167-0.696c0.024-0.002,0.045,0.006,0.07,0.002l0.002-0.001c0.867-0.127,1.148-1.093,1.232-1.891h0.001
	c0,0,0.379-0.128,0.269-0.247c-0.109-0.118-0.261-0.553-0.261-0.553c-0.054-0.369-0.189-0.697-0.372-0.976
	c0.046,0.006,0.083,0.007,0.09-0.011c0.044-0.102-0.147-0.381-0.147-0.381s-0.932-1.171-2.123-0.576
	c-1.404,0.702-1.174,2.101-1.174,2.101s0.499,1.815,1.039,1.625c0.069,0.115,0.145,0.225,0.227,0.327l0.069,1.243
	c0,0.002,0,0.003,0,0.005c-0.264,0.33-0.688,1.129-0.544,2.812c0.058,0.675,0.112,1.452,0.151,2.163
	c-0.137,0.869-0.242,1.672-0.229,2.035c-0.085,0.25-0.175,0.64-0.188,1.198c-0.043,1.771-0.117,2.693-0.117,2.693
	s-0.402,0.711-0.447,1.076s0.088,0.707,0.088,0.707l0.246-0.554c0,0,0.004,0.018,0.01,0.043c-0.002,0.015-0.003,0.026-0.006,0.041
	c-0.052,0.323-0.099,0.636-0.145,0.942c-0.021,0.031-0.038,0.063-0.064,0.092l-0.141,0.184l0.131,0.101c0,0,0.015-0.007,0.02-0.009
	c-0.412,2.832-0.58,4.846-0.627,5.482c-0.267,0.226-0.519,0.639-0.688,1.387c-0.493,2.188-1.119,6.575-1.283,7.052
	c-0.038,0.109-0.088,0.218-0.145,0.326c-0.192,0.366-0.313,0.806-0.402,0.971l0.625,0.329h2.22l0.065-0.246l-1.71-0.576
	c0,0-0.046-0.076-0.06-0.23c-0.012-0.134,0.002-0.323,0.092-0.575c0.168-0.461,1.982-6.051,2.529-7.739
	c0.109-0.097,0.208-0.216,0.268-0.386c0.07-0.196,0.799-1.978,1.587-4.02c1,2.886,1.654,3.813,1.9,4.084
	c-0.103,0.322-0.122,0.771,0.06,1.447c0.581,2.165,2.071,6.34,2.148,6.839c0.018,0.113,0.024,0.234,0.024,0.355
	c0.001,0.414,0.098,0.858,0.097,1.047h0.706l1.965-1.033L367.861,526.613z"/>
<path fill="#FFFFFF" d="M1333.974,494.481l-0.195-0.207c-0.031-0.037-0.143,0.039-0.143,0.039l-0.533,0.346l-0.006-0.037
	l0.154-0.449c0.008-0.308-0.083-0.325-0.127-0.232l-0.059,0.129l-0.461,0.993l-0.072,0.588l0.002,0.004
	c-0.005,0.006-0.014,0.015-0.019,0.021c-0.485,0.377-3.327,1.801-3.899,2.069c-0.054,0.025-0.104,0.058-0.155,0.088
	c-0.354-0.395-0.912-0.924-1.683-1.795c-0.488-0.552-0.922-0.986-1.304-1.342c-0.377-1.044-0.955-2.044-1.827-2.323l-0.002-0.001
	c-0.001-0.001-0.196-0.314-0.204-0.78c0.029-0.003,0.055,0.007,0.085,0.002c0,0,0.023,0.023,0.098,0.016
	c0.072-0.008,1.178-0.143,1.424-2.016c0,0,0.007-0.051-0.041-0.062c0,0-0.004-0.001-0.005-0.001
	c0.013-0.085,0.026-0.169,0.035-0.252h0.001c0,0,0.465-0.157,0.33-0.303c-0.135-0.145-0.32-0.678-0.32-0.678
	c-0.065-0.451-0.231-0.853-0.454-1.193c0.057,0.008,0.101,0.009,0.11-0.013c0.053-0.123-0.182-0.466-0.182-0.466
	s-1.14-1.434-2.598-0.705c-1.719,0.858-1.438,2.569-1.438,2.569s0.61,2.224,1.271,1.99c0.083,0.14,0.175,0.272,0.274,0.396
	l0.06,1.491c0,0.003,0.001,0.005,0.001,0.007c-0.324,0.427-0.809,1.404-0.638,3.406c0.172,2.023,0.332,4.829,0.203,5.241
	c-0.129,0.411,0.045,2.647,0.045,2.647h0.006c-0.247,0.433-0.402,0.807-0.445,0.95c-0.203,0.58-0.219,1.445-0.414,2.671
	c-0.685,4.305-0.946,7.421-1.013,8.315c-0.325,0.275-0.633,0.781-0.839,1.694c-0.604,2.678-1.371,8.049-1.572,8.633
	c-0.046,0.133-0.107,0.267-0.176,0.399c-0.235,0.449-0.384,0.986-0.492,1.188l0.764,0.402h2.719l0.08-0.302l-2.094-0.704
	c0,0-0.057-0.094-0.074-0.282c-0.014-0.163,0.002-0.396,0.115-0.704c0.204-0.564,2.425-7.406,3.095-9.474
	c0.134-0.118,0.254-0.265,0.328-0.473c0.085-0.24,0.978-2.42,1.941-4.919c1.205,3.476,2,4.631,2.313,4.981
	c-0.125,0.395-0.134,0.964,0.088,1.789c0.712,2.65,2.536,7.76,2.63,8.37c0.021,0.139,0.029,0.287,0.029,0.436
	c0.002,0.507,0.121,1.052,0.119,1.281h0.863l2.405-1.266l-0.069-0.305l-2.181,0.352c0,0-0.095-0.056-0.196-0.215
	c-0.089-0.138-0.184-0.352-0.228-0.677c-0.08-0.593-1.3-7.659-1.674-9.824c0.063-0.167,0.103-0.353,0.071-0.571
	c-0.082-0.559-0.818-9.649-1.64-11.504c0,0-0.022-0.06-0.064-0.148c0.006-0.034,0.01-0.063,0.014-0.096h0.003
	c0,0,0.049-0.294,0.1-0.798c0.888,1.396,1.312,2.143,1.312,2.143s0.083,0.998,0.29,1.397s0.576,0.655,0.576,0.655l-0.133-0.73
	c0,0,0.66,0.56,0.563,1.274l-0.016,0.282l0.203,0.013c0,0,0.229-0.347,0.229-0.759s-1.033-2.386-1.033-2.386
	c-0.286-0.324-1.614-3.393-1.878-4.042c0.006-0.941-0.043-2.036-0.21-3.187c0.776,0.612,1.484,1.138,1.849,1.327
	c0.172,0.171,0.407,0.143,0.407,0.143s0.024-0.002,0.06-0.006c0.048,0,0.094-0.011,0.144-0.025c0.276-0.058,0.823-0.233,1.578-0.784
	c1.421-1.037,2.304-1.628,2.591-1.817c0.061-0.02,0.108-0.039,0.108-0.039l0.273-0.127l0.422-0.3l0.229-0.221
	c0,0,0.038-0.177,0.047-0.203l0.059-0.384c0,0,0.076-0.111,0.073-0.159l0.024-0.401
	C1333.991,494.516,1333.993,494.496,1333.974,494.481z"/>
</svg>
