<?xml version="1.0" encoding="utf-8"?>
<!-- Generator: Adobe Illustrator 16.0.0, SVG Export Plug-In . SVG Version: 6.00 Build 0)  -->
<!DOCTYPE svg PUBLIC "-//W3C//DTD SVG 1.1//EN" "http://www.w3.org/Graphics/SVG/1.1/DTD/svg11.dtd">
<svg version="1.1" id="Capa_1" xmlns="http://www.w3.org/2000/svg" xmlns:xlink="http://www.w3.org/1999/xlink" x="0px" y="0px"
	 width="323.522px" height="203.998px" viewBox="0 0 323.522 203.998" enable-background="new 0 0 323.522 203.998"
	 xml:space="preserve">
<rect x="-230.412" y="-186.681" display="none" fill="#BF0411" stroke="#FFFFFF" stroke-linecap="round" stroke-linejoin="round" stroke-miterlimit="10" width="731.818" height="592.045"/>
<polyline fill="none" stroke="#FFFFFF" stroke-linecap="round" stroke-linejoin="round" stroke-miterlimit="10" points="
	116.365,98.194 116.365,98.194 138.583,75.945 147.355,84.729 162.758,69.306 171.967,78.527 189.782,60.688 191.839,62.747 
	202.804,51.768 226.503,75.5 237.809,64.18 262.813,89.218 "/>
<polyline fill="none" stroke="#FFFFFF" stroke-linecap="round" stroke-linejoin="round" stroke-miterlimit="10" points="
	323.522,107.369 303.805,87.624 300.108,91.323 280.409,71.597 237.825,114.238 217.513,93.898 180.554,130.906 143.245,93.546 
	127.484,109.328 99.808,81.614 83.261,98.185 51.251,66.131 47.556,69.831 27.856,50.104 -4.474,82.478 "/>
<polyline fill="none" stroke="#FFFFFF" stroke-linecap="round" stroke-linejoin="round" stroke-miterlimit="10" points="
	22.013,93.403 27.752,99.15 29.456,97.443 38.544,106.544 46.377,98.7 "/>
<polyline fill="none" stroke="#FFFFFF" stroke-linecap="round" stroke-linejoin="round" stroke-miterlimit="10" points="
	246.761,119.319 253.184,125.751 255.091,123.841 265.261,134.024 274.025,125.247 "/>
<polyline fill="none" stroke="#FFFFFF" stroke-linecap="round" stroke-linejoin="round" stroke-miterlimit="10" points="
	189.167,72.804 193.658,77.302 194.992,75.966 202.104,83.087 208.233,76.949 "/>
<polyline fill="none" stroke="#FFFFFF" stroke-linecap="round" stroke-linejoin="round" stroke-miterlimit="10" points="
	139.195,120.116 134.002,125.316 132.46,123.772 124.237,132.006 117.149,124.909 "/>
<path class="cloud-1" fill="none" stroke="#FFFFFF" stroke-linecap="round" stroke-linejoin="round" stroke-miterlimit="10" d="M216.046,41.856
	c0.484-1.488,1.839-2.585,3.464-2.686c0-0.003,0-0.005,0-0.008c0-3.248,2.63-5.883,5.874-5.883c2.836,0,5.204,2.014,5.754,4.691
	c0.153-0.021,0.311-0.031,0.47-0.031c1.94,0,3.516,1.559,3.546,3.495h0.002v1.513h-15.624h-3.676h-3.021
	C213.738,42.286,214.846,41.886,216.046,41.856z"/>
<path class="cloud-2" fill="none" stroke="#FFFFFF" stroke-linecap="round" stroke-linejoin="round" stroke-miterlimit="10" d="M120.134,57.105
	c-0.906-2.783-3.437-4.829-6.472-5.017v-0.015c0-6.07-4.914-10.99-10.974-10.99c-5.3,0-9.722,3.762-10.749,8.765
	c-0.288-0.039-0.58-0.061-0.877-0.061c-3.625,0-6.567,2.914-6.626,6.529h-0.002v2.827h29.188h6.868h5.645
	C124.444,57.908,122.375,57.159,120.134,57.105z"/>
<path class="cloud-3" fill="none" stroke="#FFFFFF" stroke-linecap="round" stroke-linejoin="round" stroke-miterlimit="10" d="M162.885,7.769
	c-0.293-0.9-1.111-1.563-2.093-1.623V6.141c0-1.963-1.589-3.555-3.55-3.555c-1.715,0-3.145,1.217-3.477,2.835
	c-0.093-0.013-0.188-0.019-0.284-0.019c-1.172,0-2.124,0.942-2.143,2.111h-0.001v0.914h9.442H163h1.826
	C164.279,8.028,163.609,7.786,162.885,7.769z"/>
<polygon fill="none" stroke="#FFFFFF" stroke-linecap="round" stroke-linejoin="round" stroke-miterlimit="10" points="
	61.179,179.473 32.629,165.45 4.078,179.473 0,199.645 65.258,199.645 "/>
<polygon fill="none" stroke="#FFFFFF" stroke-linecap="round" stroke-linejoin="round" stroke-miterlimit="10" points="
	19.096,188.958 13.612,188.958 13.612,182.921 22.005,182.921 19.096,184.057 "/>
<rect x="44.099" y="182.921" fill="none" stroke="#FFFFFF" stroke-linecap="round" stroke-linejoin="round" stroke-miterlimit="10" width="9.834" height="6.037"/>
<polygon fill="none" stroke="#FFFFFF" stroke-linecap="round" stroke-linejoin="round" stroke-miterlimit="10" points="
	19.096,199.646 41.665,199.646 41.665,180.631 27.616,180.631 19.096,184.057 "/>
<rect x="19.096" y="184.056" fill="none" stroke="#FFFFFF" stroke-linecap="round" stroke-linejoin="round" stroke-miterlimit="10" width="15.273" height="15.589"/>
<polygon fill="none" stroke="#FFFFFF" stroke-linecap="round" stroke-linejoin="round" stroke-miterlimit="10" points="
	33.146,199.646 41.665,199.646 41.665,180.631 33.146,184.057 "/>
<polygon fill="none" stroke="#FFFFFF" stroke-linecap="round" stroke-linejoin="round" stroke-miterlimit="10" points="
	36.304,171.818 33.734,171.818 33.734,169.245 31.522,169.245 31.522,171.818 28.953,171.818 28.953,174.033 31.522,174.033 
	31.522,176.606 33.734,176.606 33.734,174.033 36.304,174.033 "/>
<polygon fill="none" stroke="#FFFFFF" stroke-linecap="round" stroke-linejoin="round" stroke-miterlimit="10" points="
	95.454,172.462 97.283,171.563 84.837,165.45 32.628,165.45 61.179,179.473 94.402,179.473 "/>
<polygon fill="none" stroke="#FFFFFF" stroke-linecap="round" stroke-linejoin="round" stroke-miterlimit="10" points="
	61.179,179.472 65.258,199.645 91.376,199.645 94.402,179.472 "/>
<polygon fill="none" stroke="#FFFFFF" stroke-linecap="round" stroke-linejoin="round" stroke-miterlimit="10" points="
	152.556,172.461 124.004,158.438 97.283,171.563 95.454,172.461 94.402,179.472 91.375,199.645 117.466,199.645 156.634,199.645 "/>
<rect x="134.331" y="182.921" fill="none" stroke="#FFFFFF" stroke-linecap="round" stroke-linejoin="round" stroke-miterlimit="10" width="9.834" height="6.037"/>
<polygon fill="none" stroke="#FFFFFF" stroke-linecap="round" stroke-linejoin="round" stroke-miterlimit="10" points="
	109.328,199.646 131.897,199.646 131.897,180.631 117.848,180.631 109.328,184.057 "/>
<rect x="109.327" y="184.056" fill="none" stroke="#FFFFFF" stroke-linecap="round" stroke-linejoin="round" stroke-miterlimit="10" width="15.273" height="15.589"/>
<polygon fill="none" stroke="#FFFFFF" stroke-linecap="round" stroke-linejoin="round" stroke-miterlimit="10" points="
	123.376,199.646 131.896,199.646 131.896,180.631 123.376,184.057 "/>
<polygon fill="none" stroke="#FFFFFF" stroke-linecap="round" stroke-linejoin="round" stroke-miterlimit="10" points="
	109.328,188.958 103.844,188.958 103.844,182.921 112.237,182.921 109.328,184.057 "/>
<polygon fill="none" stroke="#FFFFFF" stroke-linecap="round" stroke-linejoin="round" stroke-miterlimit="10" points="
	294.087,179.473 265.537,165.45 213.328,165.45 241.878,179.473 245.957,199.645 298.231,199.645 295.294,185.443 "/>
<polygon fill="none" stroke="#FFFFFF" stroke-linecap="round" stroke-linejoin="round" stroke-miterlimit="10" points="
	201.908,171.059 176.214,158.438 124.005,158.438 152.556,172.461 199.053,172.461 "/>
<polygon fill="none" stroke="#FFFFFF" stroke-linecap="round" stroke-linejoin="round" stroke-miterlimit="10" points="
	199.053,172.461 152.556,172.461 156.634,199.646 180.699,199.646 184.777,179.473 "/>
<polygon fill="none" stroke="#FFFFFF" stroke-linecap="round" stroke-linejoin="round" stroke-miterlimit="10" points="
	241.879,179.473 213.328,165.45 201.908,171.06 199.053,172.461 184.777,179.473 180.699,199.645 208.843,199.645 245.957,199.645 
	"/>
<rect x="224.798" y="182.921" fill="none" stroke="#FFFFFF" stroke-linecap="round" stroke-linejoin="round" stroke-miterlimit="10" width="9.835" height="6.037"/>
<polygon fill="none" stroke="#FFFFFF" stroke-linecap="round" stroke-linejoin="round" stroke-miterlimit="10" points="
	199.795,199.646 222.364,199.646 222.364,180.631 208.315,180.631 199.795,184.057 "/>
<rect x="199.795" y="184.056" fill="none" stroke="#FFFFFF" stroke-linecap="round" stroke-linejoin="round" stroke-miterlimit="10" width="15.272" height="15.589"/>
<polygon fill="none" stroke="#FFFFFF" stroke-linecap="round" stroke-linejoin="round" stroke-miterlimit="10" points="
	213.845,199.646 222.364,199.646 222.364,180.631 213.845,184.057 "/>
<polygon fill="none" stroke="#FFFFFF" stroke-linecap="round" stroke-linejoin="round" stroke-miterlimit="10" points="
	199.795,188.958 194.312,188.958 194.312,182.921 202.705,182.921 199.795,184.057 "/>
<polygon fill="none" stroke="#FFFFFF" stroke-linecap="round" stroke-linejoin="round" stroke-miterlimit="10" points="
	294.086,179.472 241.878,179.472 245.957,199.645 298.231,199.645 "/>
<path fill="none" stroke="#FFFFFF" stroke-linecap="round" stroke-linejoin="round" stroke-miterlimit="10" d="M311.406,198.439
	h-0.526v-20.353h-2.523v20.353h-0.526c-0.686,0-1.241,0.511-1.241,1.141h1.768h2.523h1.768
	C312.647,198.95,312.092,198.439,311.406,198.439z"/>
<path fill="none" stroke="#FFFFFF" stroke-linecap="round" stroke-linejoin="round" stroke-miterlimit="10" d="M319.845,174.241
	h-6.314l0.528-0.519l-1.395-0.682l2.068,0.019l1.18-1.159l-1.394-0.683l2.068,0.02l1.173-1.153l-0.095-0.096
	c-1.168-1.191-3.078-1.209-4.268-0.039l-3.779,3.715l-3.779-3.715c-1.189-1.17-3.1-1.152-4.268,0.039l-0.094,0.096l1.173,1.153
	l2.068-0.02l-1.395,0.683l1.181,1.159l2.068-0.019l-1.395,0.682l0.527,0.519h-6.314c-2.031,0-3.678,1.649-3.678,3.683v0.164h2.002
	l1.783-1.785l-0.632,1.785h2.016l1.783-1.785l-0.632,1.785h7.584h7.11l-0.631-1.785l1.783,1.785h2.792l-0.632-1.785l1.783,1.785
	h1.698v-0.164C323.522,175.891,321.876,174.241,319.845,174.241z"/>
<g>
	<defs>
		<path id="SVGID_1_" d="M49.093,190.658c0.629,0.222,0.758,1.127,0.763,1.278c0.015,0.206-0.004,0.498-0.101,0.903
			c-0.26,1.094-0.512,2.936-0.512,2.936s-0.029,0.257-0.268,0.154c-0.112-0.048-0.241-0.153-0.255-0.343
			c-0.015-0.188-0.476-3.796-0.343-4.464C48.377,191.123,48.464,190.435,49.093,190.658"/>
	</defs>
	<clipPath id="SVGID_2_">
		<use xlink:href="#SVGID_1_"  overflow="visible"/>
	</clipPath>
	<g clip-path="url(#SVGID_2_)">
		<defs>
			<rect id="SVGID_3_" x="17.27" y="157.001" width="308" height="43"/>
		</defs>
		<clipPath id="SVGID_4_">
			<use xlink:href="#SVGID_3_"  overflow="visible"/>
		</clipPath>
		<rect x="43.353" y="185.613" clip-path="url(#SVGID_4_)" fill="#FFFFFF" width="11.507" height="15.341"/>
	</g>
</g>
<g>
	<defs>
		<path id="SVGID_5_" d="M48.823,195.349c0,0,0.061,3.327,0.074,3.564c0.013,0.237-0.083,0.321-0.083,0.321l-0.725,0.286
			l-0.003,0.105h0.856l0.271-0.112c-0.02-0.098-0.106-0.29-0.114-0.498c-0.007-0.207,0.267-1.317,0.334-2.238
			c0.067-0.92-0.354-1.437-0.354-1.437s-0.056-0.092-0.141-0.097C48.853,195.239,48.822,195.311,48.823,195.349"/>
	</defs>
	<clipPath id="SVGID_6_">
		<use xlink:href="#SVGID_5_"  overflow="visible"/>
	</clipPath>
	<g clip-path="url(#SVGID_6_)">
		<defs>
			<rect id="SVGID_7_" x="17.27" y="157.001" width="308" height="43"/>
		</defs>
		<clipPath id="SVGID_8_">
			<use xlink:href="#SVGID_7_"  overflow="visible"/>
		</clipPath>
		<rect x="43.085" y="190.244" clip-path="url(#SVGID_8_)" fill="#FFFFFF" width="11.354" height="14.382"/>
	</g>
</g>
<g>
	<defs>
		<path id="SVGID_9_" d="M49.05,190.462c0.638,0.196,0.805,1.094,0.816,1.246c0.023,0.206,0.017,0.497-0.062,0.907
			c-0.214,1.104-0.388,2.954-0.388,2.954s-0.018,0.258-0.261,0.165c-0.114-0.042-0.248-0.144-0.27-0.331
			c-0.022-0.188-0.636-3.772-0.532-4.446C48.354,190.957,48.411,190.266,49.05,190.462"/>
	</defs>
	<clipPath id="SVGID_10_">
		<use xlink:href="#SVGID_9_"  overflow="visible"/>
	</clipPath>
	<g clip-path="url(#SVGID_10_)">
		<defs>
			<rect id="SVGID_11_" x="17.27" y="157.001" width="308" height="43"/>
		</defs>
		<clipPath id="SVGID_12_">
			<use xlink:href="#SVGID_11_"  overflow="visible"/>
		</clipPath>
		<rect x="43.342" y="185.427" clip-path="url(#SVGID_12_)" fill="#FFFFFF" width="11.536" height="15.327"/>
	</g>
</g>
<g>
	<defs>
		<path id="SVGID_13_" d="M48.938,195.37c0,0,0.302,3.312,0.333,3.548c0.03,0.236-0.061,0.326-0.061,0.326l-0.739,0.276l0.004,0.105
			h0.892l0.28-0.075c-0.027-0.096-0.146-0.338-0.168-0.545c-0.023-0.206,0.169-1.335,0.169-2.257s-0.457-1.407-0.457-1.407
			s-0.063-0.087-0.148-0.087C48.96,195.258,48.935,195.331,48.938,195.37"/>
	</defs>
	<clipPath id="SVGID_14_">
		<use xlink:href="#SVGID_13_"  overflow="visible"/>
	</clipPath>
	<g clip-path="url(#SVGID_14_)">
		<defs>
			<rect id="SVGID_15_" x="17.27" y="157.001" width="308" height="43"/>
		</defs>
		<clipPath id="SVGID_16_">
			<use xlink:href="#SVGID_15_"  overflow="visible"/>
		</clipPath>
		<rect x="43.472" y="190.255" clip-path="url(#SVGID_16_)" fill="#FFFFFF" width="11.177" height="14.371"/>
	</g>
</g>
<g>
	<defs>
		<path id="SVGID_17_" d="M48.702,190.072c0.203-0.248,0.702-1.824,0.756-1.942s0.072-0.405-0.095-0.439
			c-0.166-0.034-0.255,0.126-0.255,0.126s-0.164,0.384-0.381,1.224c-0.15,0.579-0.27,0.826-0.346,0.994c0,0-0.045,0.113,0.111,0.142
			C48.622,190.199,48.702,190.072,48.702,190.072"/>
	</defs>
	<clipPath id="SVGID_18_">
		<use xlink:href="#SVGID_17_"  overflow="visible"/>
	</clipPath>
	<g clip-path="url(#SVGID_18_)">
		<defs>
			<rect id="SVGID_19_" x="17.27" y="157.001" width="308" height="43"/>
		</defs>
		<clipPath id="SVGID_20_">
			<use xlink:href="#SVGID_19_"  overflow="visible"/>
		</clipPath>
		<rect x="43.375" y="182.686" clip-path="url(#SVGID_20_)" fill="#FFFFFF" width="11.122" height="12.493"/>
	</g>
</g>
<g>
	<defs>
		<path id="SVGID_21_" d="M48.702,190.072c0,0,0.017,0.367-0.34,1.002c-0.358,0.634-0.517,1.005-0.517,1.005
			s0.102,0.349,0.053,0.492s-0.159,0.247-0.159,0.247l0.008-0.249c0,0-0.191,0.218-0.124,0.45l0.02,0.094l-0.067,0.014
			c0,0-0.093-0.104-0.114-0.24s0.225-0.844,0.225-0.844c0.08-0.124,0.567-1.592,0.618-1.806c0.016-0.067,0.042-0.126,0.077-0.203
			c0,0,0.054-0.137,0.185-0.114C48.695,189.943,48.702,190.072,48.702,190.072"/>
	</defs>
	<clipPath id="SVGID_22_">
		<use xlink:href="#SVGID_21_"  overflow="visible"/>
	</clipPath>
	<g clip-path="url(#SVGID_22_)">
		<defs>
			<rect id="SVGID_23_" x="17.27" y="157.001" width="308" height="43"/>
		</defs>
		<clipPath id="SVGID_24_">
			<use xlink:href="#SVGID_23_"  overflow="visible"/>
		</clipPath>
		<rect x="42.461" y="184.917" clip-path="url(#SVGID_24_)" fill="#FFFFFF" width="11.241" height="13.21"/>
	</g>
</g>
<g>
	<defs>
		<path id="SVGID_25_" d="M49.098,187.41c0,0-0.023-0.218,0.034-0.487c0.063-0.293,0.468-0.125,0.468-0.125l0.05,0.518
			c0.027,0.278-0.355,0.352-0.495,0.293C49.017,187.549,49.098,187.41,49.098,187.41"/>
	</defs>
	<clipPath id="SVGID_26_">
		<use xlink:href="#SVGID_25_"  overflow="visible"/>
	</clipPath>
	<g clip-path="url(#SVGID_26_)">
		<defs>
			<rect id="SVGID_27_" x="17.27" y="157.001" width="308" height="43"/>
		</defs>
		<clipPath id="SVGID_28_">
			<use xlink:href="#SVGID_27_"  overflow="visible"/>
		</clipPath>
		<rect x="44.074" y="181.75" clip-path="url(#SVGID_28_)" fill="#FFFFFF" width="10.577" height="10.877"/>
	</g>
</g>
<g>
	<defs>
		<path id="SVGID_29_" d="M48.263,191.207c0,0-0.161-0.962,0-2.068c0,0-0.134-0.294-0.05-0.483c0.084-0.19,0.827-1.046,0.879-1.245
			l0.432-0.095c0,0,0.124,0.61,0.101,1.327c-0.028,0.825,0.081,1.536,0.073,1.724c-0.006,0.144,0.047,0.841,0.047,0.841H48.263z"/>
	</defs>
	<clipPath id="SVGID_30_">
		<use xlink:href="#SVGID_29_"  overflow="visible"/>
	</clipPath>
	<g clip-path="url(#SVGID_30_)">
		<defs>
			<rect id="SVGID_31_" x="17.27" y="157.001" width="308" height="43"/>
		</defs>
		<clipPath id="SVGID_32_">
			<use xlink:href="#SVGID_31_"  overflow="visible"/>
		</clipPath>
		<rect x="43.185" y="182.315" clip-path="url(#SVGID_32_)" fill="#FFFFFF" width="11.559" height="13.892"/>
	</g>
</g>
<g>
	<defs>
		<path id="SVGID_33_" d="M49.744,191.207c0,0,0.228,0.738,0.18,1.76c-0.048,1.022,0.375,5.031,0.78,5.903
			c0.406,0.872-2.026,0.24-2.702,0c-0.676-0.241,0.296-5.881,0.26-7.663H49.744z"/>
	</defs>
	<clipPath id="SVGID_34_">
		<use xlink:href="#SVGID_33_"  overflow="visible"/>
	</clipPath>
	<g clip-path="url(#SVGID_34_)">
		<defs>
			<rect id="SVGID_35_" x="17.27" y="157.001" width="308" height="43"/>
		</defs>
		<clipPath id="SVGID_36_">
			<use xlink:href="#SVGID_35_"  overflow="visible"/>
		</clipPath>
		<rect x="42.763" y="186.207" clip-path="url(#SVGID_36_)" fill="#FFFFFF" width="12.987" height="18.109"/>
	</g>
</g>
<g>
	<defs>
		<path id="SVGID_37_" d="M48.616,185.876c0.001-0.021,0.002-0.032,0.002-0.032h0.001c0.001-0.005,0.001-0.01,0.002-0.014
			c0.068-0.464,0.425-0.795,0.799-0.74c0.374,0.055,0.623,0.476,0.555,0.938c0,0.004-0.001,0.009-0.002,0.014
			c0,0,0,0.001-0.001,0.003c-0.011,0.068-0.028,0.133-0.051,0.194c-0.097,0.315-0.337,0.896-0.79,0.83h-0.001
			c-0.463-0.068-0.52-0.723-0.52-1.046C48.609,185.975,48.611,185.926,48.616,185.876"/>
	</defs>
	<clipPath id="SVGID_38_">
		<use xlink:href="#SVGID_37_"  overflow="visible"/>
	</clipPath>
	<g clip-path="url(#SVGID_38_)">
		<defs>
			<rect id="SVGID_39_" x="17.27" y="157.001" width="308" height="43"/>
		</defs>
		<clipPath id="SVGID_40_">
			<use xlink:href="#SVGID_39_"  overflow="visible"/>
		</clipPath>
		<rect x="43.61" y="180.084" clip-path="url(#SVGID_40_)" fill="#FFFFFF" width="11.376" height="11.991"/>
	</g>
</g>
<g>
	<defs>
		<path id="SVGID_41_" d="M48.87,190.111c0.159-0.277,0.392-1.914,0.426-2.04c0.034-0.124,0.004-0.411-0.167-0.417
			c-0.169-0.007-0.231,0.166-0.231,0.166s-0.098,0.403-0.174,1.27c-0.053,0.595-0.129,0.859-0.177,1.037c0,0-0.026,0.12,0.134,0.122
			C48.812,190.25,48.87,190.111,48.87,190.111"/>
	</defs>
	<clipPath id="SVGID_42_">
		<use xlink:href="#SVGID_41_"  overflow="visible"/>
	</clipPath>
	<g clip-path="url(#SVGID_42_)">
		<defs>
			<rect id="SVGID_43_" x="17.27" y="157.001" width="308" height="43"/>
		</defs>
		<clipPath id="SVGID_44_">
			<use xlink:href="#SVGID_43_"  overflow="visible"/>
		</clipPath>
		<rect x="43.546" y="182.653" clip-path="url(#SVGID_44_)" fill="#FFFFFF" width="10.763" height="12.596"/>
	</g>
</g>
<g>
	<defs>
		<path id="SVGID_45_" d="M48.87,190.038c0,0,0.013,0.368-0.354,0.998c-0.366,0.63-0.529,0.998-0.529,0.998s0.098,0.351,0.047,0.493
			s-0.162,0.245-0.162,0.245l0.011-0.249c0,0-0.194,0.216-0.129,0.448l0.018,0.095l-0.067,0.013c0,0-0.091-0.105-0.11-0.242
			c-0.02-0.137,0.235-0.842,0.235-0.842c0.081-0.122,0.587-1.583,0.641-1.797c0.017-0.066,0.043-0.126,0.078-0.201
			c0,0,0.057-0.137,0.187-0.112C48.865,189.91,48.87,190.038,48.87,190.038"/>
	</defs>
	<clipPath id="SVGID_46_">
		<use xlink:href="#SVGID_45_"  overflow="visible"/>
	</clipPath>
	<g clip-path="url(#SVGID_46_)">
		<defs>
			<rect id="SVGID_47_" x="17.27" y="157.001" width="308" height="43"/>
		</defs>
		<clipPath id="SVGID_48_">
			<use xlink:href="#SVGID_47_"  overflow="visible"/>
		</clipPath>
		<rect x="42.593" y="184.882" clip-path="url(#SVGID_48_)" fill="#FFFFFF" width="11.276" height="13.197"/>
	</g>
</g>
<g>
	<defs>
		<path id="SVGID_49_" d="M49.222,186.349c0-0.158,0.129-0.289,0.289-0.289c0.158,0,0.288,0.131,0.288,0.289
			c0,0.16-0.13,0.29-0.288,0.29C49.351,186.639,49.222,186.509,49.222,186.349 M49.253,186.349c0,0.143,0.115,0.259,0.257,0.259
			c0.141,0,0.256-0.116,0.256-0.259c0-0.141-0.115-0.257-0.256-0.257C49.369,186.092,49.253,186.208,49.253,186.349"/>
	</defs>
	<clipPath id="SVGID_50_">
		<use xlink:href="#SVGID_49_"  overflow="visible"/>
	</clipPath>
	<g clip-path="url(#SVGID_50_)">
		<defs>
			<rect id="SVGID_51_" x="17.27" y="157.001" width="308" height="43"/>
		</defs>
		<clipPath id="SVGID_52_">
			<use xlink:href="#SVGID_51_"  overflow="visible"/>
		</clipPath>
		<rect x="44.222" y="181.06" clip-path="url(#SVGID_52_)" fill="#FFFFFF" width="10.577" height="10.579"/>
	</g>
</g>
<g>
	<defs>
		<path id="SVGID_53_" d="M49.511,186.132c0.024-0.216-0.1-0.185-0.252-0.288c-0.152-0.103-0.073-0.285-0.127-0.397
			c-0.054-0.113-0.39,0.051-0.408,0.01c-0.018-0.042,0.06-0.156,0.06-0.156s0.38-0.478,0.866-0.234
			c0.572,0.285,0.479,0.941,0.479,0.941s-0.246,1.028-0.489,0.749C49.486,186.581,49.511,186.132,49.511,186.132"/>
	</defs>
	<clipPath id="SVGID_54_">
		<use xlink:href="#SVGID_53_"  overflow="visible"/>
	</clipPath>
	<g clip-path="url(#SVGID_54_)">
		<defs>
			<rect id="SVGID_55_" x="17.27" y="157.001" width="308" height="43"/>
		</defs>
		<clipPath id="SVGID_56_">
			<use xlink:href="#SVGID_55_"  overflow="visible"/>
		</clipPath>
		<rect x="43.72" y="179.996" clip-path="url(#SVGID_56_)" fill="#FFFFFF" width="11.412" height="11.808"/>
	</g>
</g>
<g>
	<defs>
		<path id="SVGID_57_" d="M50.327,185.428c0.051,0.211-0.039,0.414-0.2,0.453s-0.333-0.102-0.384-0.313
			c-0.051-0.212,0.039-0.415,0.2-0.454C50.104,185.076,50.276,185.216,50.327,185.428"/>
	</defs>
	<clipPath id="SVGID_58_">
		<use xlink:href="#SVGID_57_"  overflow="visible"/>
	</clipPath>
	<g clip-path="url(#SVGID_58_)">
		<defs>
			<rect id="SVGID_59_" x="17.27" y="157.001" width="308" height="43"/>
		</defs>
		<clipPath id="SVGID_60_">
			<use xlink:href="#SVGID_59_"  overflow="visible"/>
		</clipPath>
		<rect x="44.729" y="180.108" clip-path="url(#SVGID_60_)" fill="#FFFFFF" width="10.612" height="10.779"/>
	</g>
</g>
<g>
	<defs>
		<path id="SVGID_61_" d="M49.639,184.994c0,0,0.405-0.053,0.561,0.114s0.235,0.498,0.058,0.685
			C50.079,185.981,49.639,184.994,49.639,184.994"/>
	</defs>
	<clipPath id="SVGID_62_">
		<use xlink:href="#SVGID_61_"  overflow="visible"/>
	</clipPath>
	<g clip-path="url(#SVGID_62_)">
		<defs>
			<rect id="SVGID_63_" x="17.27" y="157.001" width="308" height="43"/>
		</defs>
		<clipPath id="SVGID_64_">
			<use xlink:href="#SVGID_63_"  overflow="visible"/>
		</clipPath>
		<rect x="44.639" y="179.986" clip-path="url(#SVGID_64_)" fill="#FFFFFF" width="10.719" height="10.831"/>
	</g>
</g>
<g>
	<defs>
		<path id="SVGID_65_" d="M49.141,185.02c0,0,0.19-0.103,0.453-0.063c0.263,0.04,0.671,0.786,0.686,0.836
			c0.015,0.051-0.031,0.279-0.073,0.316C50.164,186.147,49.141,185.02,49.141,185.02"/>
	</defs>
	<clipPath id="SVGID_66_">
		<use xlink:href="#SVGID_65_"  overflow="visible"/>
	</clipPath>
	<g clip-path="url(#SVGID_66_)">
		<defs>
			<rect id="SVGID_67_" x="17.27" y="157.001" width="308" height="43"/>
		</defs>
		<clipPath id="SVGID_68_">
			<use xlink:href="#SVGID_67_"  overflow="visible"/>
		</clipPath>
		<rect x="44.141" y="179.947" clip-path="url(#SVGID_68_)" fill="#FFFFFF" width="11.142" height="11.163"/>
	</g>
</g>
<g>
	<defs>
		<path id="SVGID_69_" d="M50.237,186.104c-0.018,0.148-0.25,0.439-0.25,0.439c-0.615-0.303-1.152-1.299-1.152-1.299
			s0.131-0.188,0.276-0.248C49.256,184.937,50.209,186.044,50.237,186.104"/>
	</defs>
	<clipPath id="SVGID_70_">
		<use xlink:href="#SVGID_69_"  overflow="visible"/>
	</clipPath>
	<g clip-path="url(#SVGID_70_)">
		<defs>
			<rect id="SVGID_71_" x="17.27" y="157.001" width="308" height="43"/>
		</defs>
		<clipPath id="SVGID_72_">
			<use xlink:href="#SVGID_71_"  overflow="visible"/>
		</clipPath>
		<rect x="43.834" y="179.994" clip-path="url(#SVGID_72_)" fill="#FFFFFF" width="11.402" height="11.549"/>
	</g>
</g>
<g>
	<defs>
		<path id="SVGID_73_" d="M105.788,188.921c0,0-0.044,0.408,0.311,1.139c0.355,0.731,0.506,1.154,0.506,1.154
			s-0.137,0.382-0.093,0.545c0.044,0.163,0.16,0.286,0.16,0.286l0.008-0.279c0,0,0.198,0.258,0.106,0.513l-0.028,0.102l0.074,0.021
			c0,0,0.11-0.109,0.143-0.261c0.032-0.15-0.192-0.956-0.192-0.956c-0.08-0.142-0.522-1.809-0.564-2.052
			c-0.013-0.075-0.038-0.143-0.071-0.229c0,0-0.051-0.158-0.198-0.141C105.803,188.779,105.788,188.921,105.788,188.921"/>
	</defs>
	<clipPath id="SVGID_74_">
		<use xlink:href="#SVGID_73_"  overflow="visible"/>
	</clipPath>
	<g clip-path="url(#SVGID_74_)">
		<defs>
			<rect id="SVGID_75_" x="17.27" y="157.001" width="308" height="43"/>
		</defs>
		<clipPath id="SVGID_76_">
			<use xlink:href="#SVGID_75_"  overflow="visible"/>
		</clipPath>
		<rect x="100.786" y="183.76" clip-path="url(#SVGID_76_)" fill="#FFFFFF" width="11.192" height="13.641"/>
	</g>
</g>
<g>
	<defs>
		<path id="SVGID_77_" d="M107.034,190.234c-0.565,0.484-0.336,1.478-0.28,1.639c0.067,0.22,0.204,0.516,0.467,0.899
			c0.71,1.032,1.711,2.848,1.711,2.848s0.133,0.254,0.34,0.053c0.098-0.096,0.189-0.257,0.129-0.459
			c-0.061-0.203-1.027-4.142-1.434-4.784C107.966,190.43,107.6,189.749,107.034,190.234"/>
	</defs>
	<clipPath id="SVGID_78_">
		<use xlink:href="#SVGID_77_"  overflow="visible"/>
	</clipPath>
	<g clip-path="url(#SVGID_78_)">
		<defs>
			<rect id="SVGID_79_" x="17.27" y="157.001" width="308" height="43"/>
		</defs>
		<clipPath id="SVGID_80_">
			<use xlink:href="#SVGID_79_"  overflow="visible"/>
		</clipPath>
		<rect x="101.661" y="185.06" clip-path="url(#SVGID_80_)" fill="#FFFFFF" width="12.759" height="15.691"/>
	</g>
</g>
<g>
	<defs>
		<path id="SVGID_81_" d="M107.706,189.624c-0.742,0.056-1.145,0.993-1.193,1.156c-0.076,0.217-0.141,0.536-0.155,1.001
			c-0.038,1.254-0.303,3.31-0.303,3.31s-0.043,0.284,0.243,0.244c0.135-0.019,0.304-0.095,0.375-0.294
			c0.071-0.2,1.618-3.948,1.669-4.707C108.342,190.334,108.449,189.569,107.706,189.624"/>
	</defs>
	<clipPath id="SVGID_82_">
		<use xlink:href="#SVGID_81_"  overflow="visible"/>
	</clipPath>
	<g clip-path="url(#SVGID_82_)">
		<defs>
			<rect id="SVGID_83_" x="17.27" y="157.001" width="308" height="43"/>
		</defs>
		<clipPath id="SVGID_84_">
			<use xlink:href="#SVGID_83_"  overflow="visible"/>
		</clipPath>
		<rect x="101.052" y="184.621" clip-path="url(#SVGID_84_)" fill="#FFFFFF" width="12.295" height="15.718"/>
	</g>
</g>
<g>
	<defs>
		<path id="SVGID_85_" d="M106.623,194.991c0,0-1.142,3.529-1.232,3.778c-0.091,0.248-0.015,0.37-0.015,0.37l0.784,0.265
			l-0.031,0.112h-1.017l-0.287-0.15c0.053-0.099,0.241-0.333,0.316-0.551c0.075-0.22,0.143-1.494,0.37-2.498
			c0.226-1.005,0.842-1.419,0.842-1.419s0.09-0.079,0.182-0.059C106.627,194.864,106.636,194.95,106.623,194.991"/>
	</defs>
	<clipPath id="SVGID_86_">
		<use xlink:href="#SVGID_85_"  overflow="visible"/>
	</clipPath>
	<g clip-path="url(#SVGID_86_)">
		<defs>
			<rect id="SVGID_87_" x="17.27" y="157.001" width="308" height="43"/>
		</defs>
		<clipPath id="SVGID_88_">
			<use xlink:href="#SVGID_87_"  overflow="visible"/>
		</clipPath>
		<rect x="99.826" y="189.837" clip-path="url(#SVGID_88_)" fill="#FFFFFF" width="11.802" height="14.68"/>
	</g>
</g>
<g>
	<defs>
		<path id="SVGID_89_" d="M109.198,195.008c0,0,1.271,3.485,1.353,3.737c0.082,0.252,0.215,0.301,0.215,0.301l0.78-0.275
			l0.046,0.107l-0.801,0.628l-0.327-0.009c-0.019-0.109-0.006-0.344-0.081-0.563c-0.075-0.219-0.806-1.266-1.245-2.195
			c-0.438-0.931-0.208-1.638-0.208-1.638s0.022-0.117,0.108-0.157C109.123,194.905,109.183,194.967,109.198,195.008"/>
	</defs>
	<clipPath id="SVGID_90_">
		<use xlink:href="#SVGID_89_"  overflow="visible"/>
	</clipPath>
	<g clip-path="url(#SVGID_90_)">
		<defs>
			<rect id="SVGID_91_" x="17.27" y="157.001" width="308" height="43"/>
		</defs>
		<clipPath id="SVGID_92_">
			<use xlink:href="#SVGID_91_"  overflow="visible"/>
		</clipPath>
		<rect x="103.868" y="189.931" clip-path="url(#SVGID_92_)" fill="#FFFFFF" width="12.724" height="14.575"/>
	</g>
</g>
<g>
	<defs>
		<path id="SVGID_93_" d="M106.714,190.362c0,0-0.344,0.751-0.479,1.845c-0.137,1.104-0.725,4.255-1.109,5.229
			c-0.383,0.974,4.564,1.188,5.207,0.746c0.535-0.367-2.046-5.883-2.008-7.82H106.714z"/>
	</defs>
	<clipPath id="SVGID_94_">
		<use xlink:href="#SVGID_93_"  overflow="visible"/>
	</clipPath>
	<g clip-path="url(#SVGID_94_)">
		<defs>
			<rect id="SVGID_95_" x="17.27" y="157.001" width="308" height="43"/>
		</defs>
		<clipPath id="SVGID_96_">
			<use xlink:href="#SVGID_95_"  overflow="visible"/>
		</clipPath>
		<rect x="100.105" y="185.362" clip-path="url(#SVGID_96_)" fill="#FFFFFF" width="15.301" height="18.04"/>
	</g>
</g>
<g>
	<defs>
		<path id="SVGID_97_" d="M107.403,186.199c0,0-0.022-0.237-0.03-0.53c-0.008-0.323-0.564-0.19-0.564-0.19l0.114,0.64
			c-0.023,0.304,0.312,0.359,0.43,0.297C107.472,186.351,107.403,186.199,107.403,186.199"/>
	</defs>
	<clipPath id="SVGID_98_">
		<use xlink:href="#SVGID_97_"  overflow="visible"/>
	</clipPath>
	<g clip-path="url(#SVGID_98_)">
		<defs>
			<rect id="SVGID_99_" x="17.27" y="157.001" width="308" height="43"/>
		</defs>
		<clipPath id="SVGID_100_">
			<use xlink:href="#SVGID_99_"  overflow="visible"/>
		</clipPath>
		<rect x="101.809" y="180.452" clip-path="url(#SVGID_100_)" fill="#FFFFFF" width="10.614" height="10.985"/>
	</g>
</g>
<g>
	<defs>
		<path id="SVGID_101_" d="M107.921,184.631c-0.001-0.021-0.002-0.035-0.002-0.035l-0.001,0.001
			c-0.001-0.006-0.001-0.011-0.002-0.016c-0.074-0.504-0.463-0.864-0.87-0.804c-0.407,0.059-0.677,0.516-0.603,1.019
			c0.001,0.005,0.001,0.01,0.002,0.016h0c0,0,0,0.001,0.001,0.004c0.012,0.073,0.031,0.145,0.056,0.211
			c0.105,0.344,0.367,0.975,0.858,0.901h0.001c0.504-0.074,0.566-0.784,0.565-1.137
			C107.928,184.739,107.927,184.686,107.921,184.631"/>
	</defs>
	<clipPath id="SVGID_102_">
		<use xlink:href="#SVGID_101_"  overflow="visible"/>
	</clipPath>
	<g clip-path="url(#SVGID_102_)">
		<defs>
			<rect id="SVGID_103_" x="17.27" y="157.001" width="308" height="43"/>
		</defs>
		<clipPath id="SVGID_104_">
			<use xlink:href="#SVGID_103_"  overflow="visible"/>
		</clipPath>
		<rect x="101.43" y="178.77" clip-path="url(#SVGID_104_)" fill="#FFFFFF" width="11.497" height="12.164"/>
	</g>
</g>
<g>
	<defs>
		<path id="SVGID_105_" d="M107.076,185.41c-0.159,0-0.288-0.129-0.288-0.289c0-0.159,0.129-0.289,0.288-0.289
			s0.289,0.13,0.289,0.289C107.365,185.281,107.235,185.41,107.076,185.41 M107.076,184.864c-0.141,0-0.256,0.114-0.256,0.257
			c0,0.142,0.115,0.257,0.256,0.257c0.142,0,0.257-0.115,0.257-0.257C107.333,184.979,107.217,184.864,107.076,184.864"/>
	</defs>
	<clipPath id="SVGID_106_">
		<use xlink:href="#SVGID_105_"  overflow="visible"/>
	</clipPath>
	<g clip-path="url(#SVGID_106_)">
		<defs>
			<rect id="SVGID_107_" x="17.27" y="157.001" width="308" height="43"/>
		</defs>
		<clipPath id="SVGID_108_">
			<use xlink:href="#SVGID_107_"  overflow="visible"/>
		</clipPath>
		<rect x="101.788" y="179.832" clip-path="url(#SVGID_108_)" fill="#FFFFFF" width="10.577" height="10.578"/>
	</g>
</g>
<g>
	<defs>
		<path id="SVGID_109_" d="M106.948,184.909c-0.026-0.235,0.109-0.2,0.274-0.313c0.166-0.111,0.08-0.31,0.139-0.432
			c0.059-0.124,0.424,0.055,0.443,0.01s-0.065-0.169-0.065-0.169s-0.413-0.52-0.941-0.256c-0.621,0.312-0.52,1.024-0.52,1.024
			s0.267,1.117,0.531,0.814C106.975,185.399,106.948,184.909,106.948,184.909"/>
	</defs>
	<clipPath id="SVGID_110_">
		<use xlink:href="#SVGID_109_"  overflow="visible"/>
	</clipPath>
	<g clip-path="url(#SVGID_110_)">
		<defs>
			<rect id="SVGID_111_" x="17.27" y="157.001" width="308" height="43"/>
		</defs>
		<clipPath id="SVGID_112_">
			<use xlink:href="#SVGID_111_"  overflow="visible"/>
		</clipPath>
		<rect x="101.272" y="178.674" clip-path="url(#SVGID_112_)" fill="#FFFFFF" width="11.536" height="11.966"/>
	</g>
</g>
<g>
	<defs>
		<path id="SVGID_113_" d="M106.061,184.144c-0.055,0.23,0.042,0.45,0.218,0.493c0.175,0.042,0.362-0.11,0.417-0.34
			c0.055-0.23-0.042-0.452-0.218-0.494C106.303,183.761,106.116,183.913,106.061,184.144"/>
	</defs>
	<clipPath id="SVGID_114_">
		<use xlink:href="#SVGID_113_"  overflow="visible"/>
	</clipPath>
	<g clip-path="url(#SVGID_114_)">
		<defs>
			<rect id="SVGID_115_" x="17.27" y="157.001" width="308" height="43"/>
		</defs>
		<clipPath id="SVGID_116_">
			<use xlink:href="#SVGID_115_"  overflow="visible"/>
		</clipPath>
		<rect x="101.045" y="178.796" clip-path="url(#SVGID_116_)" fill="#FFFFFF" width="10.666" height="10.848"/>
	</g>
</g>
<g>
	<defs>
		<path id="SVGID_117_" d="M106.809,183.672c0,0-0.441-0.057-0.61,0.124c-0.168,0.181-0.255,0.542-0.063,0.746
			C106.33,184.746,106.809,183.672,106.809,183.672"/>
	</defs>
	<clipPath id="SVGID_118_">
		<use xlink:href="#SVGID_117_"  overflow="visible"/>
	</clipPath>
	<g clip-path="url(#SVGID_118_)">
		<defs>
			<rect id="SVGID_119_" x="17.27" y="157.001" width="308" height="43"/>
		</defs>
		<clipPath id="SVGID_120_">
			<use xlink:href="#SVGID_119_"  overflow="visible"/>
		</clipPath>
		<rect x="101.027" y="178.663" clip-path="url(#SVGID_120_)" fill="#FFFFFF" width="10.782" height="10.905"/>
	</g>
</g>
<g>
	<defs>
		<path id="SVGID_121_" d="M107.351,183.7c0,0-0.207-0.112-0.493-0.068c-0.286,0.043-0.729,0.855-0.746,0.91
			c-0.017,0.054,0.033,0.302,0.079,0.343C106.238,184.926,107.351,183.7,107.351,183.7"/>
	</defs>
	<clipPath id="SVGID_122_">
		<use xlink:href="#SVGID_121_"  overflow="visible"/>
	</clipPath>
	<g clip-path="url(#SVGID_122_)">
		<defs>
			<rect id="SVGID_123_" x="17.27" y="157.001" width="308" height="43"/>
		</defs>
		<clipPath id="SVGID_124_">
			<use xlink:href="#SVGID_123_"  overflow="visible"/>
		</clipPath>
		<rect x="101.109" y="178.622" clip-path="url(#SVGID_124_)" fill="#FFFFFF" width="11.242" height="11.264"/>
	</g>
</g>
<g>
	<defs>
		<path id="SVGID_125_" d="M106.159,184.88c0.019,0.16,0.271,0.477,0.271,0.477c0.669-0.329,1.253-1.412,1.253-1.412
			s-0.143-0.205-0.3-0.271C107.225,183.61,106.188,184.814,106.159,184.88"/>
	</defs>
	<clipPath id="SVGID_126_">
		<use xlink:href="#SVGID_125_"  overflow="visible"/>
	</clipPath>
	<g clip-path="url(#SVGID_126_)">
		<defs>
			<rect id="SVGID_127_" x="17.27" y="157.001" width="308" height="43"/>
		</defs>
		<clipPath id="SVGID_128_">
			<use xlink:href="#SVGID_127_"  overflow="visible"/>
		</clipPath>
		<rect x="101.159" y="178.672" clip-path="url(#SVGID_128_)" fill="#FFFFFF" width="11.524" height="11.685"/>
	</g>
</g>
<g>
	<defs>
		<path id="SVGID_129_" d="M105.793,188.848c0.048-0.354,0.955-1.959,1.01-2.093s0.276-0.366,0.431-0.256s0.091,0.304,0.091,0.304
			s-0.188,0.425-0.709,1.241c-0.359,0.563-0.47,0.848-0.549,1.038c0,0-0.058,0.123-0.201,0.017
			C105.751,189.01,105.793,188.848,105.793,188.848"/>
	</defs>
	<clipPath id="SVGID_130_">
		<use xlink:href="#SVGID_129_"  overflow="visible"/>
	</clipPath>
	<g clip-path="url(#SVGID_130_)">
		<defs>
			<rect id="SVGID_131_" x="17.27" y="157.001" width="308" height="43"/>
		</defs>
		<clipPath id="SVGID_132_">
			<use xlink:href="#SVGID_131_"  overflow="visible"/>
		</clipPath>
		<rect x="100.786" y="181.47" clip-path="url(#SVGID_132_)" fill="#FFFFFF" width="11.553" height="12.672"/>
	</g>
</g>
<g>
	<defs>
		<path id="SVGID_133_" d="M108.33,190.423c0,0,0.18-1.072,0-2.306c0,0,0.149-0.329,0.056-0.541
			c-0.094-0.212-0.922-1.167-0.98-1.389l-0.481-0.105c0,0-0.009,0.685,0,1.485c0.009,0.813-0.006,1.804-0.054,1.959
			c-0.049,0.153-0.193,0.896-0.193,0.896H108.33z"/>
	</defs>
	<clipPath id="SVGID_134_">
		<use xlink:href="#SVGID_133_"  overflow="visible"/>
	</clipPath>
	<g clip-path="url(#SVGID_134_)">
		<defs>
			<rect id="SVGID_135_" x="17.27" y="157.001" width="308" height="43"/>
		</defs>
		<clipPath id="SVGID_136_">
			<use xlink:href="#SVGID_135_"  overflow="visible"/>
		</clipPath>
		<rect x="101.677" y="181.082" clip-path="url(#SVGID_136_)" fill="#FFFFFF" width="11.739" height="14.341"/>
	</g>
</g>
<g>
	<defs>
		<path id="SVGID_137_" d="M108.08,189.119c-0.23-0.273-0.81-2.024-0.872-2.154c-0.062-0.131-0.085-0.451,0.1-0.492
			c0.186-0.041,0.287,0.138,0.287,0.138s0.188,0.424,0.442,1.358c0.175,0.644,0.313,0.918,0.4,1.104c0,0,0.052,0.125-0.123,0.16
			C108.171,189.259,108.08,189.119,108.08,189.119"/>
	</defs>
	<clipPath id="SVGID_138_">
		<use xlink:href="#SVGID_137_"  overflow="visible"/>
	</clipPath>
	<g clip-path="url(#SVGID_138_)">
		<defs>
			<rect id="SVGID_139_" x="17.27" y="157.001" width="308" height="43"/>
		</defs>
		<clipPath id="SVGID_140_">
			<use xlink:href="#SVGID_139_"  overflow="visible"/>
		</clipPath>
		<rect x="102.164" y="181.467" clip-path="url(#SVGID_140_)" fill="#FFFFFF" width="11.281" height="12.77"/>
	</g>
</g>
<g>
	<defs>
		<path id="SVGID_141_" d="M108.08,189.119c0,0-0.014,0.41,0.394,1.113c0.408,0.702,0.591,1.112,0.591,1.112
			s-0.109,0.393-0.052,0.55c0.056,0.159,0.18,0.273,0.18,0.273l-0.012-0.278c0,0,0.216,0.241,0.144,0.502l-0.02,0.104l0.074,0.016
			c0,0,0.103-0.117,0.124-0.27c0.021-0.153-0.262-0.939-0.262-0.939c-0.09-0.136-0.655-1.766-0.715-2.004
			c-0.019-0.074-0.048-0.14-0.088-0.225c0,0-0.063-0.153-0.208-0.125C108.085,188.976,108.08,189.119,108.08,189.119"/>
	</defs>
	<clipPath id="SVGID_142_">
		<use xlink:href="#SVGID_141_"  overflow="visible"/>
	</clipPath>
	<g clip-path="url(#SVGID_142_)">
		<defs>
			<rect id="SVGID_143_" x="17.27" y="157.001" width="308" height="43"/>
		</defs>
		<clipPath id="SVGID_144_">
			<use xlink:href="#SVGID_143_"  overflow="visible"/>
		</clipPath>
		<rect x="103.08" y="183.944" clip-path="url(#SVGID_144_)" fill="#FFFFFF" width="11.424" height="13.566"/>
	</g>
</g>
<g>
	<defs>
		<path id="SVGID_145_" d="M259.713,190.608c0.629,0.222,0.759,1.127,0.763,1.279c0.015,0.206-0.004,0.497-0.101,0.903
			c-0.261,1.093-0.513,2.935-0.513,2.935s-0.029,0.257-0.268,0.154c-0.112-0.048-0.24-0.153-0.255-0.342
			c-0.015-0.19-0.477-3.796-0.343-4.465C258.997,191.073,259.084,190.385,259.713,190.608"/>
	</defs>
	<clipPath id="SVGID_146_">
		<use xlink:href="#SVGID_145_"  overflow="visible"/>
	</clipPath>
	<g clip-path="url(#SVGID_146_)">
		<defs>
			<rect id="SVGID_147_" x="17.27" y="157.001" width="308" height="43"/>
		</defs>
		<clipPath id="SVGID_148_">
			<use xlink:href="#SVGID_147_"  overflow="visible"/>
		</clipPath>
		<rect x="253.973" y="185.564" clip-path="url(#SVGID_148_)" fill="#FFFFFF" width="11.507" height="15.34"/>
	</g>
</g>
<g>
	<defs>
		<path id="SVGID_149_" d="M259.443,195.3c0,0,0.061,3.326,0.073,3.563s-0.084,0.32-0.084,0.32l-0.725,0.288l-0.004,0.105h0.857
			l0.271-0.113c-0.02-0.097-0.106-0.289-0.114-0.497c-0.007-0.207,0.267-1.318,0.334-2.24c0.067-0.919-0.354-1.436-0.354-1.436
			s-0.057-0.092-0.141-0.097C259.473,195.19,259.442,195.261,259.443,195.3"/>
	</defs>
	<clipPath id="SVGID_150_">
		<use xlink:href="#SVGID_149_"  overflow="visible"/>
	</clipPath>
	<g clip-path="url(#SVGID_150_)">
		<defs>
			<rect id="SVGID_151_" x="17.27" y="157.001" width="308" height="43"/>
		</defs>
		<clipPath id="SVGID_152_">
			<use xlink:href="#SVGID_151_"  overflow="visible"/>
		</clipPath>
		<rect x="253.704" y="190.194" clip-path="url(#SVGID_152_)" fill="#FFFFFF" width="11.354" height="14.383"/>
	</g>
</g>
<g>
	<defs>
		<path id="SVGID_153_" d="M259.67,190.413c0.638,0.195,0.805,1.094,0.815,1.245c0.023,0.206,0.017,0.498-0.063,0.907
			c-0.214,1.104-0.387,2.954-0.387,2.954s-0.019,0.258-0.262,0.165c-0.114-0.043-0.247-0.143-0.27-0.331s-0.637-3.772-0.531-4.445
			C258.974,190.908,259.031,190.216,259.67,190.413"/>
	</defs>
	<clipPath id="SVGID_154_">
		<use xlink:href="#SVGID_153_"  overflow="visible"/>
	</clipPath>
	<g clip-path="url(#SVGID_154_)">
		<defs>
			<rect id="SVGID_155_" x="17.27" y="157.001" width="308" height="43"/>
		</defs>
		<clipPath id="SVGID_156_">
			<use xlink:href="#SVGID_155_"  overflow="visible"/>
		</clipPath>
		<rect x="253.961" y="185.378" clip-path="url(#SVGID_156_)" fill="#FFFFFF" width="11.536" height="15.327"/>
	</g>
</g>
<g>
	<defs>
		<path id="SVGID_157_" d="M259.558,195.32c0,0,0.303,3.313,0.333,3.549c0.029,0.234-0.061,0.326-0.061,0.326l-0.738,0.276
			l0.004,0.105h0.892l0.28-0.075c-0.027-0.096-0.146-0.338-0.168-0.545c-0.023-0.206,0.169-1.335,0.169-2.257
			c0-0.923-0.457-1.408-0.457-1.408s-0.063-0.087-0.147-0.086C259.58,195.208,259.555,195.282,259.558,195.32"/>
	</defs>
	<clipPath id="SVGID_158_">
		<use xlink:href="#SVGID_157_"  overflow="visible"/>
	</clipPath>
	<g clip-path="url(#SVGID_158_)">
		<defs>
			<rect id="SVGID_159_" x="17.27" y="157.001" width="308" height="43"/>
		</defs>
		<clipPath id="SVGID_160_">
			<use xlink:href="#SVGID_159_"  overflow="visible"/>
		</clipPath>
		<rect x="254.092" y="190.206" clip-path="url(#SVGID_160_)" fill="#FFFFFF" width="11.177" height="14.371"/>
	</g>
</g>
<g>
	<defs>
		<path id="SVGID_161_" d="M259.321,190.022c0.203-0.247,0.702-1.824,0.756-1.942c0.055-0.117,0.072-0.404-0.095-0.439
			c-0.166-0.033-0.255,0.126-0.255,0.126s-0.164,0.384-0.382,1.224c-0.149,0.58-0.269,0.827-0.346,0.995
			c0,0-0.045,0.112,0.111,0.142C259.241,190.149,259.321,190.022,259.321,190.022"/>
	</defs>
	<clipPath id="SVGID_162_">
		<use xlink:href="#SVGID_161_"  overflow="visible"/>
	</clipPath>
	<g clip-path="url(#SVGID_162_)">
		<defs>
			<rect id="SVGID_163_" x="17.27" y="157.001" width="308" height="43"/>
		</defs>
		<clipPath id="SVGID_164_">
			<use xlink:href="#SVGID_163_"  overflow="visible"/>
		</clipPath>
		<rect x="253.994" y="182.636" clip-path="url(#SVGID_164_)" fill="#FFFFFF" width="11.121" height="12.493"/>
	</g>
</g>
<g>
	<defs>
		<path id="SVGID_165_" d="M259.321,190.022c0,0,0.018,0.367-0.341,1.002c-0.357,0.634-0.517,1.005-0.517,1.005
			s0.103,0.35,0.054,0.493c-0.049,0.143-0.159,0.246-0.159,0.246l0.009-0.25c0,0-0.192,0.22-0.124,0.452l0.019,0.094l-0.066,0.014
			c0,0-0.093-0.104-0.113-0.241c-0.021-0.137,0.224-0.844,0.224-0.844c0.08-0.124,0.567-1.591,0.618-1.807
			c0.016-0.065,0.042-0.126,0.076-0.201c0,0,0.055-0.139,0.185-0.115C259.315,189.894,259.321,190.022,259.321,190.022"/>
	</defs>
	<clipPath id="SVGID_166_">
		<use xlink:href="#SVGID_165_"  overflow="visible"/>
	</clipPath>
	<g clip-path="url(#SVGID_166_)">
		<defs>
			<rect id="SVGID_167_" x="17.27" y="157.001" width="308" height="43"/>
		</defs>
		<clipPath id="SVGID_168_">
			<use xlink:href="#SVGID_167_"  overflow="visible"/>
		</clipPath>
		<rect x="253.08" y="184.868" clip-path="url(#SVGID_168_)" fill="#FFFFFF" width="11.241" height="13.21"/>
	</g>
</g>
<g>
	<defs>
		<path id="SVGID_169_" d="M259.717,187.36c0,0-0.023-0.219,0.035-0.487c0.063-0.292,0.467-0.125,0.467-0.125l0.051,0.517
			c0.026,0.279-0.355,0.353-0.494,0.294C259.636,187.5,259.717,187.36,259.717,187.36"/>
	</defs>
	<clipPath id="SVGID_170_">
		<use xlink:href="#SVGID_169_"  overflow="visible"/>
	</clipPath>
	<g clip-path="url(#SVGID_170_)">
		<defs>
			<rect id="SVGID_171_" x="17.27" y="157.001" width="308" height="43"/>
		</defs>
		<clipPath id="SVGID_172_">
			<use xlink:href="#SVGID_171_"  overflow="visible"/>
		</clipPath>
		<rect x="254.693" y="181.7" clip-path="url(#SVGID_172_)" fill="#FFFFFF" width="10.577" height="10.878"/>
	</g>
</g>
<g>
	<defs>
		<path id="SVGID_173_" d="M258.883,191.158c0,0-0.161-0.962,0-2.068c0,0-0.135-0.294-0.051-0.483
			c0.085-0.191,0.827-1.048,0.879-1.246l0.432-0.096c0,0,0.125,0.611,0.101,1.328c-0.027,0.825,0.081,1.536,0.073,1.724
			c-0.006,0.145,0.048,0.842,0.048,0.842H258.883z"/>
	</defs>
	<clipPath id="SVGID_174_">
		<use xlink:href="#SVGID_173_"  overflow="visible"/>
	</clipPath>
	<g clip-path="url(#SVGID_174_)">
		<defs>
			<rect id="SVGID_175_" x="17.27" y="157.001" width="308" height="43"/>
		</defs>
		<clipPath id="SVGID_176_">
			<use xlink:href="#SVGID_175_"  overflow="visible"/>
		</clipPath>
		<rect x="253.805" y="182.265" clip-path="url(#SVGID_176_)" fill="#FFFFFF" width="11.56" height="13.894"/>
	</g>
</g>
<g>
	<defs>
		<path id="SVGID_177_" d="M260.364,191.158c0,0,0.229,0.736,0.18,1.76c-0.048,1.022,0.375,5.03,0.78,5.902s-2.027,0.24-2.702,0
			c-0.676-0.241,0.296-5.881,0.261-7.662H260.364z"/>
	</defs>
	<clipPath id="SVGID_178_">
		<use xlink:href="#SVGID_177_"  overflow="visible"/>
	</clipPath>
	<g clip-path="url(#SVGID_178_)">
		<defs>
			<rect id="SVGID_179_" x="17.27" y="157.001" width="308" height="43"/>
		</defs>
		<clipPath id="SVGID_180_">
			<use xlink:href="#SVGID_179_"  overflow="visible"/>
		</clipPath>
		<rect x="253.383" y="186.158" clip-path="url(#SVGID_180_)" fill="#FFFFFF" width="12.986" height="18.108"/>
	</g>
</g>
<g>
	<defs>
		<path id="SVGID_181_" d="M259.235,185.826c0.001-0.021,0.002-0.032,0.002-0.032l0.002,0.001c0-0.005,0.001-0.01,0.002-0.015
			c0.067-0.463,0.425-0.794,0.8-0.74c0.373,0.055,0.622,0.475,0.555,0.938c-0.001,0.005-0.002,0.01-0.003,0.015c0,0,0,0.001,0,0.003
			c-0.012,0.066-0.028,0.132-0.051,0.194c-0.097,0.315-0.338,0.896-0.79,0.829h-0.002c-0.463-0.067-0.52-0.723-0.52-1.046
			C259.229,185.926,259.23,185.876,259.235,185.826"/>
	</defs>
	<clipPath id="SVGID_182_">
		<use xlink:href="#SVGID_181_"  overflow="visible"/>
	</clipPath>
	<g clip-path="url(#SVGID_182_)">
		<defs>
			<rect id="SVGID_183_" x="17.27" y="157.001" width="308" height="43"/>
		</defs>
		<clipPath id="SVGID_184_">
			<use xlink:href="#SVGID_183_"  overflow="visible"/>
		</clipPath>
		<rect x="254.229" y="180.034" clip-path="url(#SVGID_184_)" fill="#FFFFFF" width="11.377" height="11.991"/>
	</g>
</g>
<g>
	<defs>
		<path id="SVGID_185_" d="M259.489,190.062c0.159-0.277,0.393-1.914,0.427-2.039s0.004-0.411-0.166-0.419
			c-0.17-0.006-0.231,0.167-0.231,0.167s-0.098,0.404-0.175,1.27c-0.052,0.596-0.129,0.86-0.177,1.038c0,0-0.026,0.119,0.134,0.122
			C259.432,190.2,259.489,190.062,259.489,190.062"/>
	</defs>
	<clipPath id="SVGID_186_">
		<use xlink:href="#SVGID_185_"  overflow="visible"/>
	</clipPath>
	<g clip-path="url(#SVGID_186_)">
		<defs>
			<rect id="SVGID_187_" x="17.27" y="157.001" width="308" height="43"/>
		</defs>
		<clipPath id="SVGID_188_">
			<use xlink:href="#SVGID_187_"  overflow="visible"/>
		</clipPath>
		<rect x="254.165" y="182.604" clip-path="url(#SVGID_188_)" fill="#FFFFFF" width="10.764" height="12.597"/>
	</g>
</g>
<g>
	<defs>
		<path id="SVGID_189_" d="M259.47,190.108c0,0-0.234,0.283-0.925,0.513s-1.057,0.397-1.057,0.397s-0.159,0.328-0.291,0.401
			c-0.133,0.074-0.283,0.076-0.283,0.076l0.174-0.18c0,0-0.289,0.033-0.395,0.252l-0.049,0.082l-0.059-0.035
			c0,0,0.001-0.14,0.077-0.254c0.076-0.116,0.733-0.477,0.733-0.477c0.141-0.038,1.486-0.797,1.668-0.921
			c0.056-0.039,0.115-0.065,0.192-0.099c0,0,0.133-0.066,0.214,0.039C259.552,190.009,259.47,190.108,259.47,190.108"/>
	</defs>
	<clipPath id="SVGID_190_">
		<use xlink:href="#SVGID_189_"  overflow="visible"/>
	</clipPath>
	<g clip-path="url(#SVGID_190_)">
		<defs>
			<rect id="SVGID_191_" x="17.27" y="157.001" width="308" height="43"/>
		</defs>
		<clipPath id="SVGID_192_">
			<use xlink:href="#SVGID_191_"  overflow="visible"/>
		</clipPath>
		<rect x="251.586" y="184.844" clip-path="url(#SVGID_192_)" fill="#FFFFFF" width="12.92" height="11.807"/>
	</g>
</g>
<g>
	<defs>
		<path id="SVGID_193_" d="M259.841,186.3c0-0.16,0.13-0.289,0.289-0.289c0.158,0,0.288,0.129,0.288,0.289s-0.13,0.289-0.288,0.289
			C259.971,186.589,259.841,186.46,259.841,186.3 M259.873,186.3c0,0.143,0.115,0.258,0.257,0.258s0.256-0.115,0.256-0.258
			c0-0.141-0.114-0.257-0.256-0.257S259.873,186.159,259.873,186.3"/>
	</defs>
	<clipPath id="SVGID_194_">
		<use xlink:href="#SVGID_193_"  overflow="visible"/>
	</clipPath>
	<g clip-path="url(#SVGID_194_)">
		<defs>
			<rect id="SVGID_195_" x="17.27" y="157.001" width="308" height="43"/>
		</defs>
		<clipPath id="SVGID_196_">
			<use xlink:href="#SVGID_195_"  overflow="visible"/>
		</clipPath>
		<rect x="254.841" y="181.011" clip-path="url(#SVGID_196_)" fill="#FFFFFF" width="10.577" height="10.578"/>
	</g>
</g>
<g>
	<defs>
		<path id="SVGID_197_" d="M260.131,186.082c0.023-0.216-0.101-0.185-0.253-0.287c-0.152-0.104-0.073-0.286-0.128-0.399
			c-0.054-0.112-0.39,0.052-0.407,0.011s0.06-0.155,0.06-0.155s0.38-0.479,0.866-0.235c0.571,0.285,0.478,0.941,0.478,0.941
			s-0.245,1.028-0.488,0.75C260.105,186.531,260.131,186.082,260.131,186.082"/>
	</defs>
	<clipPath id="SVGID_198_">
		<use xlink:href="#SVGID_197_"  overflow="visible"/>
	</clipPath>
	<g clip-path="url(#SVGID_198_)">
		<defs>
			<rect id="SVGID_199_" x="17.27" y="157.001" width="308" height="43"/>
		</defs>
		<clipPath id="SVGID_200_">
			<use xlink:href="#SVGID_199_"  overflow="visible"/>
		</clipPath>
		<rect x="254.34" y="179.947" clip-path="url(#SVGID_200_)" fill="#FFFFFF" width="11.412" height="11.808"/>
	</g>
</g>
<g>
	<defs>
		<path id="SVGID_201_" d="M260.946,185.378c0.051,0.212-0.039,0.414-0.2,0.454c-0.161,0.039-0.333-0.103-0.384-0.314
			s0.039-0.414,0.2-0.452C260.724,185.026,260.896,185.166,260.946,185.378"/>
	</defs>
	<clipPath id="SVGID_202_">
		<use xlink:href="#SVGID_201_"  overflow="visible"/>
	</clipPath>
	<g clip-path="url(#SVGID_202_)">
		<defs>
			<rect id="SVGID_203_" x="17.27" y="157.001" width="308" height="43"/>
		</defs>
		<clipPath id="SVGID_204_">
			<use xlink:href="#SVGID_203_"  overflow="visible"/>
		</clipPath>
		<rect x="255.349" y="180.058" clip-path="url(#SVGID_204_)" fill="#FFFFFF" width="10.612" height="10.78"/>
	</g>
</g>
<g>
	<defs>
		<path id="SVGID_205_" d="M260.259,184.944c0,0,0.405-0.054,0.561,0.114c0.154,0.166,0.234,0.497,0.057,0.686
			C260.698,185.932,260.259,184.944,260.259,184.944"/>
	</defs>
	<clipPath id="SVGID_206_">
		<use xlink:href="#SVGID_205_"  overflow="visible"/>
	</clipPath>
	<g clip-path="url(#SVGID_206_)">
		<defs>
			<rect id="SVGID_207_" x="17.27" y="157.001" width="308" height="43"/>
		</defs>
		<clipPath id="SVGID_208_">
			<use xlink:href="#SVGID_207_"  overflow="visible"/>
		</clipPath>
		<rect x="255.259" y="179.936" clip-path="url(#SVGID_208_)" fill="#FFFFFF" width="10.719" height="10.832"/>
	</g>
</g>
<g>
	<defs>
		<path id="SVGID_209_" d="M259.761,184.97c0,0,0.189-0.103,0.452-0.063c0.264,0.04,0.671,0.787,0.686,0.837
			c0.016,0.05-0.03,0.278-0.072,0.315C260.783,186.097,259.761,184.97,259.761,184.97"/>
	</defs>
	<clipPath id="SVGID_210_">
		<use xlink:href="#SVGID_209_"  overflow="visible"/>
	</clipPath>
	<g clip-path="url(#SVGID_210_)">
		<defs>
			<rect id="SVGID_211_" x="17.27" y="157.001" width="308" height="43"/>
		</defs>
		<clipPath id="SVGID_212_">
			<use xlink:href="#SVGID_211_"  overflow="visible"/>
		</clipPath>
		<rect x="254.761" y="179.898" clip-path="url(#SVGID_212_)" fill="#FFFFFF" width="11.141" height="11.162"/>
	</g>
</g>
<g>
	<defs>
		<path id="SVGID_213_" d="M260.856,186.055c-0.018,0.148-0.25,0.439-0.25,0.439c-0.615-0.304-1.152-1.3-1.152-1.3
			s0.131-0.188,0.276-0.248S260.829,185.995,260.856,186.055"/>
	</defs>
	<clipPath id="SVGID_214_">
		<use xlink:href="#SVGID_213_"  overflow="visible"/>
	</clipPath>
	<g clip-path="url(#SVGID_214_)">
		<defs>
			<rect id="SVGID_215_" x="17.27" y="157.001" width="308" height="43"/>
		</defs>
		<clipPath id="SVGID_216_">
			<use xlink:href="#SVGID_215_"  overflow="visible"/>
		</clipPath>
		<rect x="254.454" y="179.944" clip-path="url(#SVGID_216_)" fill="#FFFFFF" width="11.402" height="11.55"/>
	</g>
</g>
<g>
	<defs>
		<path id="SVGID_217_" d="M171.052,188.737c-0.193-0.33-0.667-2.303-0.708-2.452c-0.043-0.149,0.027-0.553,0.373-0.486
			c0.2,0.038,0.278,0.197,0.278,0.197s0.221,0.472,0.32,1.506c0.068,0.713,0.165,1.052,0.123,1.252c0,0-0.014,0.127-0.158,0.147
			C171.122,188.903,171.052,188.737,171.052,188.737"/>
	</defs>
	<clipPath id="SVGID_218_">
		<use xlink:href="#SVGID_217_"  overflow="visible"/>
	</clipPath>
	<g clip-path="url(#SVGID_218_)">
		<defs>
			<rect id="SVGID_219_" x="17.27" y="157.001" width="308" height="43"/>
		</defs>
		<clipPath id="SVGID_220_">
			<use xlink:href="#SVGID_219_"  overflow="visible"/>
		</clipPath>
		<rect x="165.332" y="180.791" clip-path="url(#SVGID_220_)" fill="#FFFFFF" width="11.116" height="13.11"/>
	</g>
</g>
<g>
	<defs>
		<path id="SVGID_221_" d="M171.024,188.574c0,0,0.035,0.269,0.408,0.673c0.592,0.641,0.881,0.993,0.881,0.993
			s0.102,0.389,0.211,0.533s0.273,0.219,0.273,0.219l-0.104-0.28c0,0,0.3,0.177,0.311,0.467l0.014,0.112l0.081-0.009
			c0,0,0.066-0.153,0.038-0.316c-0.027-0.163-0.573-0.874-0.573-0.874c-0.137-0.109-0.888-1.256-1.026-1.479
			c-0.043-0.07-0.096-0.127-0.164-0.201c0,0-0.113-0.136-0.252-0.061C170.982,188.427,171.024,188.574,171.024,188.574"/>
	</defs>
	<clipPath id="SVGID_222_">
		<use xlink:href="#SVGID_221_"  overflow="visible"/>
	</clipPath>
	<g clip-path="url(#SVGID_222_)">
		<defs>
			<rect id="SVGID_223_" x="17.27" y="157.001" width="308" height="43"/>
		</defs>
		<clipPath id="SVGID_224_">
			<use xlink:href="#SVGID_223_"  overflow="visible"/>
		</clipPath>
		<rect x="166.019" y="183.328" clip-path="url(#SVGID_224_)" fill="#FFFFFF" width="12.126" height="12.963"/>
	</g>
</g>
<g>
	<defs>
		<path id="SVGID_225_" d="M171.007,185.988c0,0-0.089-0.181-0.315-0.225c-0.393-0.074-0.472,0.385-0.425,0.554
			c0.017,0.059,0.091,0.361,0.19,0.75l0.8-0.181C171.141,186.275,171.007,185.988,171.007,185.988"/>
	</defs>
	<clipPath id="SVGID_226_">
		<use xlink:href="#SVGID_225_"  overflow="visible"/>
	</clipPath>
	<g clip-path="url(#SVGID_226_)">
		<defs>
			<rect id="SVGID_227_" x="17.27" y="157.001" width="308" height="43"/>
		</defs>
		<clipPath id="SVGID_228_">
			<use xlink:href="#SVGID_227_"  overflow="visible"/>
		</clipPath>
		<rect x="165.255" y="180.756" clip-path="url(#SVGID_228_)" fill="#FFFFFF" width="11.002" height="11.312"/>
	</g>
</g>
<g>
	<defs>
		<path id="SVGID_229_" d="M170.704,189.598c-0.677,0.426-0.591,1.516-0.557,1.695c0.037,0.244,0.288,0.919,0.447,1.392
			c0.67,1.979,1.041,2.209,1.041,2.209s0.224,0.336,0.477,0.155c0.118-0.085,0.241-0.242,0.209-0.467
			c-0.032-0.224-0.329-3.882-0.658-4.628C171.663,189.954,171.381,189.173,170.704,189.598"/>
	</defs>
	<clipPath id="SVGID_230_">
		<use xlink:href="#SVGID_229_"  overflow="visible"/>
	</clipPath>
	<g clip-path="url(#SVGID_230_)">
		<defs>
			<rect id="SVGID_231_" x="17.27" y="157.001" width="308" height="43"/>
		</defs>
		<clipPath id="SVGID_232_">
			<use xlink:href="#SVGID_231_"  overflow="visible"/>
		</clipPath>
		<rect x="165.125" y="184.471" clip-path="url(#SVGID_232_)" fill="#FFFFFF" width="12.201" height="15.632"/>
	</g>
</g>
<g>
	<defs>
		<path id="SVGID_233_" d="M172.727,199.613h0.347l0.966-0.51l-0.027-0.122l-0.877,0.142c0,0-0.037-0.022-0.079-0.087l-0.377,0.062
			C172.679,199.302,172.727,199.521,172.727,199.613"/>
	</defs>
	<clipPath id="SVGID_234_">
		<use xlink:href="#SVGID_233_"  overflow="visible"/>
	</clipPath>
	<g clip-path="url(#SVGID_234_)">
		<defs>
			<rect id="SVGID_235_" x="17.27" y="157.001" width="308" height="43"/>
		</defs>
		<clipPath id="SVGID_236_">
			<use xlink:href="#SVGID_235_"  overflow="visible"/>
		</clipPath>
		<rect x="167.679" y="193.981" clip-path="url(#SVGID_236_)" fill="#FFFFFF" width="11.36" height="10.632"/>
	</g>
</g>
<g>
	<defs>
		<path id="SVGID_237_" d="M172.965,198.765c-0.038-0.281-0.716-4.205-0.716-4.205c-0.008-0.046-0.06-0.123-0.157-0.099
			c-0.099,0.025-0.768,0.028-0.481,1.094c0.286,1.066,1.019,3.122,1.057,3.368c0.008,0.056,0.012,0.115,0.012,0.175l0.378-0.061
			C173.021,198.982,172.983,198.895,172.965,198.765"/>
	</defs>
	<clipPath id="SVGID_238_">
		<use xlink:href="#SVGID_237_"  overflow="visible"/>
	</clipPath>
	<g clip-path="url(#SVGID_238_)">
		<defs>
			<rect id="SVGID_239_" x="17.27" y="157.001" width="308" height="43"/>
		</defs>
		<clipPath id="SVGID_240_">
			<use xlink:href="#SVGID_239_"  overflow="visible"/>
		</clipPath>
		<rect x="166.539" y="189.456" clip-path="url(#SVGID_240_)" fill="#FFFFFF" width="11.518" height="14.642"/>
	</g>
</g>
<g>
	<defs>
		<path id="SVGID_241_" d="M170.975,188.999c-0.796,0.059-1.228,1.063-1.281,1.239c-0.081,0.232-0.087,0.582-0.165,1.074
			c-0.328,2.064-0.414,3.453-0.414,3.453s0.042,0.403,0.35,0.36c0.145-0.02,0.326-0.102,0.401-0.315
			c0.076-0.214,1.736-4.235,1.792-5.051C171.657,189.76,171.771,188.938,170.975,188.999"/>
	</defs>
	<clipPath id="SVGID_242_">
		<use xlink:href="#SVGID_241_"  overflow="visible"/>
	</clipPath>
	<g clip-path="url(#SVGID_242_)">
		<defs>
			<rect id="SVGID_243_" x="17.27" y="157.001" width="308" height="43"/>
		</defs>
		<clipPath id="SVGID_244_">
			<use xlink:href="#SVGID_243_"  overflow="visible"/>
		</clipPath>
		<rect x="164.114" y="183.995" clip-path="url(#SVGID_244_)" fill="#FFFFFF" width="12.549" height="16.134"/>
	</g>
</g>
<g>
	<defs>
		<path id="SVGID_245_" d="M170.65,185.311c0,0-0.164-0.254-0.032-0.584c0.132-0.328-0.622-0.197-0.622-0.197l0.042,0.766
			c-0.025,0.334,0.428,0.324,0.558,0.253C170.727,185.478,170.65,185.311,170.65,185.311"/>
	</defs>
	<clipPath id="SVGID_246_">
		<use xlink:href="#SVGID_245_"  overflow="visible"/>
	</clipPath>
	<g clip-path="url(#SVGID_246_)">
		<defs>
			<rect id="SVGID_247_" x="17.27" y="157.001" width="308" height="43"/>
		</defs>
		<clipPath id="SVGID_248_">
			<use xlink:href="#SVGID_247_"  overflow="visible"/>
		</clipPath>
		<rect x="164.996" y="179.503" clip-path="url(#SVGID_248_)" fill="#FFFFFF" width="10.676" height="11.085"/>
	</g>
</g>
<g>
	<defs>
		<path id="SVGID_249_" d="M171.644,189.856c0,0,0.192-1.152,0-2.477c0,0-0.182-1.809-0.992-2.069l-0.517-0.113
			c0,0-0.464,0.311-0.364,1.484c0.069,0.814,0.134,1.943,0.082,2.109c-0.052,0.165,0.018,1.065,0.018,1.065H171.644z"/>
	</defs>
	<clipPath id="SVGID_250_">
		<use xlink:href="#SVGID_249_"  overflow="visible"/>
	</clipPath>
	<g clip-path="url(#SVGID_250_)">
		<defs>
			<rect id="SVGID_251_" x="17.27" y="157.001" width="308" height="43"/>
		</defs>
		<clipPath id="SVGID_252_">
			<use xlink:href="#SVGID_251_"  overflow="visible"/>
		</clipPath>
		<rect x="164.757" y="180.197" clip-path="url(#SVGID_252_)" fill="#FFFFFF" width="11.973" height="14.659"/>
	</g>
</g>
<g>
	<defs>
		<path id="SVGID_253_" d="M171.222,183.699c-0.002-0.025-0.004-0.038-0.004-0.038h-0.001c-0.001-0.006-0.002-0.012-0.002-0.018
			c-0.081-0.555-0.51-0.95-0.957-0.885c-0.448,0.065-0.745,0.409-0.665,0.964c0.001,0.005,0.002,0.012,0.003,0.018
			c0,0,0,0.001,0.001,0.004c0.013,0.081,0.034,0.158,0.061,0.231c0.116,0.378,0.404,1.072,0.945,0.993h0.002
			c0.555-0.081,0.623-0.864,0.622-1.251C171.229,183.66,171.228,183.759,171.222,183.699"/>
	</defs>
	<clipPath id="SVGID_254_">
		<use xlink:href="#SVGID_253_"  overflow="visible"/>
	</clipPath>
	<g clip-path="url(#SVGID_254_)">
		<defs>
			<rect id="SVGID_255_" x="17.27" y="157.001" width="308" height="43"/>
		</defs>
		<clipPath id="SVGID_256_">
			<use xlink:href="#SVGID_255_"  overflow="visible"/>
		</clipPath>
		<rect x="164.58" y="177.752" clip-path="url(#SVGID_256_)" fill="#FFFFFF" width="11.647" height="12.223"/>
	</g>
</g>
<g>
	<defs>
		<path id="SVGID_257_" d="M169.733,188.789c-0.039-0.381,0.346-2.372,0.37-2.526c0.023-0.152,0.254-0.49,0.541-0.288
			c0.166,0.119,0.172,0.295,0.172,0.295s0.006,0.522-0.332,1.506c-0.233,0.677-0.285,1.024-0.406,1.189c0,0-0.065,0.11-0.205,0.067
			C169.729,188.969,169.733,188.789,169.733,188.789"/>
	</defs>
	<clipPath id="SVGID_258_">
		<use xlink:href="#SVGID_257_"  overflow="visible"/>
	</clipPath>
	<g clip-path="url(#SVGID_258_)">
		<defs>
			<rect id="SVGID_259_" x="17.27" y="157.001" width="308" height="43"/>
		</defs>
		<clipPath id="SVGID_260_">
			<use xlink:href="#SVGID_259_"  overflow="visible"/>
		</clipPath>
		<rect x="164.73" y="180.912" clip-path="url(#SVGID_260_)" fill="#FFFFFF" width="11.086" height="13.13"/>
	</g>
</g>
<g>
	<defs>
		<path id="SVGID_261_" d="M169.814,188.571c0,0-0.162,0.218-0.175,0.769c-0.021,0.872-0.058,1.325-0.058,1.325
			s-0.198,0.351-0.22,0.531c-0.022,0.179,0.043,0.348,0.043,0.348l0.121-0.273c0,0,0.093,0.336-0.102,0.552l-0.068,0.09l0.064,0.05
			c0,0,0.154-0.063,0.247-0.2c0.094-0.137,0.196-1.026,0.196-1.026c-0.021-0.176,0.236-1.521,0.293-1.779
			c0.018-0.079,0.021-0.158,0.022-0.257c0,0,0.014-0.177-0.14-0.221C169.887,188.436,169.814,188.571,169.814,188.571"/>
	</defs>
	<clipPath id="SVGID_262_">
		<use xlink:href="#SVGID_261_"  overflow="visible"/>
	</clipPath>
	<g clip-path="url(#SVGID_262_)">
		<defs>
			<rect id="SVGID_263_" x="17.27" y="157.001" width="308" height="43"/>
		</defs>
		<clipPath id="SVGID_264_">
			<use xlink:href="#SVGID_263_"  overflow="visible"/>
		</clipPath>
		<rect x="164.355" y="183.471" clip-path="url(#SVGID_264_)" fill="#FFFFFF" width="10.824" height="13.491"/>
	</g>
</g>
<g>
	<defs>
		<path id="SVGID_265_" d="M167.884,199.452l0.308,0.161h1.092l0.032-0.121l-0.842-0.283c0,0-0.022-0.038-0.029-0.114l-0.362-0.122
			C167.987,199.154,167.928,199.37,167.884,199.452"/>
	</defs>
	<clipPath id="SVGID_266_">
		<use xlink:href="#SVGID_265_"  overflow="visible"/>
	</clipPath>
	<g clip-path="url(#SVGID_266_)">
		<defs>
			<rect id="SVGID_267_" x="17.27" y="157.001" width="308" height="43"/>
		</defs>
		<clipPath id="SVGID_268_">
			<use xlink:href="#SVGID_267_"  overflow="visible"/>
		</clipPath>
		<rect x="162.884" y="193.973" clip-path="url(#SVGID_268_)" fill="#FFFFFF" width="11.432" height="10.641"/>
	</g>
</g>
<g>
	<defs>
		<path id="SVGID_269_" d="M168.49,198.812c0.097-0.268,1.322-4.055,1.322-4.055c0.014-0.044,0.004-0.137-0.093-0.161
			c-0.1-0.022-0.693-0.333-0.936,0.744c-0.243,1.077-0.551,3.238-0.632,3.473c-0.019,0.054-0.043,0.107-0.07,0.16l0.362,0.122
			C168.438,199.03,168.445,198.936,168.49,198.812"/>
	</defs>
	<clipPath id="SVGID_270_">
		<use xlink:href="#SVGID_269_"  overflow="visible"/>
	</clipPath>
	<g clip-path="url(#SVGID_270_)">
		<defs>
			<rect id="SVGID_271_" x="17.27" y="157.001" width="308" height="43"/>
		</defs>
		<clipPath id="SVGID_272_">
			<use xlink:href="#SVGID_271_"  overflow="visible"/>
		</clipPath>
		<rect x="163.082" y="189.537" clip-path="url(#SVGID_272_)" fill="#FFFFFF" width="11.735" height="14.558"/>
	</g>
</g>
<g>
	<defs>
		<path id="SVGID_273_" d="M170.125,183.714c-0.029-0.261,0.121,0.038,0.305-0.087c0.184-0.124,0.089-0.344,0.154-0.479
			c0.064-0.138,0.47,0.061,0.492,0.011c0.021-0.05-0.072-0.188-0.072-0.188s-0.459-0.577-1.045-0.284
			c-0.69,0.347-0.577,1.034-0.577,1.034s0.296,1.083,0.59,0.746C170.155,184.257,170.125,183.714,170.125,183.714"/>
	</defs>
	<clipPath id="SVGID_274_">
		<use xlink:href="#SVGID_273_"  overflow="visible"/>
	</clipPath>
	<g clip-path="url(#SVGID_274_)">
		<defs>
			<rect id="SVGID_275_" x="17.27" y="157.001" width="308" height="43"/>
		</defs>
		<clipPath id="SVGID_276_">
			<use xlink:href="#SVGID_275_"  overflow="visible"/>
		</clipPath>
		<rect x="164.375" y="177.604" clip-path="url(#SVGID_276_)" fill="#FFFFFF" width="11.704" height="11.929"/>
	</g>
</g>
<g>
	<defs>
		<path id="SVGID_277_" d="M170.83,186.269c0,0-0.007-0.2-0.194-0.335c-0.326-0.23-0.588,0.153-0.615,0.327
			c-0.01,0.061-0.067,0.367-0.138,0.763l0.803,0.167C170.833,186.585,170.83,186.269,170.83,186.269"/>
	</defs>
	<clipPath id="SVGID_278_">
		<use xlink:href="#SVGID_277_"  overflow="visible"/>
	</clipPath>
	<g clip-path="url(#SVGID_278_)">
		<defs>
			<rect id="SVGID_279_" x="17.27" y="157.001" width="308" height="43"/>
		</defs>
		<clipPath id="SVGID_280_">
			<use xlink:href="#SVGID_279_"  overflow="visible"/>
		</clipPath>
		<rect x="164.883" y="180.862" clip-path="url(#SVGID_280_)" fill="#FFFFFF" width="10.947" height="11.328"/>
	</g>
</g>
<g>
	<defs>
		<path id="SVGID_281_" d="M79.598,188.737c0.193-0.33,0.667-2.303,0.708-2.452c0.042-0.149-0.028-0.553-0.374-0.486
			c-0.2,0.038-0.279,0.197-0.279,0.197s-0.22,0.472-0.32,1.506c-0.068,0.713-0.165,1.052-0.122,1.252c0,0,0.014,0.127,0.158,0.147
			C79.526,188.903,79.598,188.737,79.598,188.737"/>
	</defs>
	<clipPath id="SVGID_282_">
		<use xlink:href="#SVGID_281_"  overflow="visible"/>
	</clipPath>
	<g clip-path="url(#SVGID_282_)">
		<defs>
			<rect id="SVGID_283_" x="17.27" y="157.001" width="308" height="43"/>
		</defs>
		<clipPath id="SVGID_284_">
			<use xlink:href="#SVGID_283_"  overflow="visible"/>
		</clipPath>
		<rect x="74.201" y="180.791" clip-path="url(#SVGID_284_)" fill="#FFFFFF" width="11.116" height="13.11"/>
	</g>
</g>
<g>
	<defs>
		<path id="SVGID_285_" d="M79.625,188.574c0,0-0.035,0.269-0.409,0.673c-0.592,0.641-0.881,0.993-0.881,0.993
			s-0.102,0.389-0.21,0.533c-0.11,0.145-0.274,0.219-0.274,0.219l0.104-0.28c0,0-0.3,0.177-0.311,0.467l-0.013,0.112l-0.081-0.009
			c0,0-0.066-0.153-0.038-0.316c0.028-0.163,0.573-0.874,0.573-0.874c0.137-0.109,0.888-1.256,1.027-1.479
			c0.043-0.07,0.095-0.127,0.163-0.201c0,0,0.114-0.136,0.252-0.061C79.667,188.427,79.625,188.574,79.625,188.574"/>
	</defs>
	<clipPath id="SVGID_286_">
		<use xlink:href="#SVGID_285_"  overflow="visible"/>
	</clipPath>
	<g clip-path="url(#SVGID_286_)">
		<defs>
			<rect id="SVGID_287_" x="17.27" y="157.001" width="308" height="43"/>
		</defs>
		<clipPath id="SVGID_288_">
			<use xlink:href="#SVGID_287_"  overflow="visible"/>
		</clipPath>
		<rect x="72.505" y="183.328" clip-path="url(#SVGID_288_)" fill="#FFFFFF" width="12.126" height="12.963"/>
	</g>
</g>
<g>
	<defs>
		<path id="SVGID_289_" d="M79.643,185.988c0,0,0.089-0.181,0.316-0.225c0.392-0.074,0.471,0.385,0.424,0.554
			c-0.017,0.059-0.091,0.361-0.19,0.75l-0.8-0.181C79.508,186.275,79.643,185.988,79.643,185.988"/>
	</defs>
	<clipPath id="SVGID_290_">
		<use xlink:href="#SVGID_289_"  overflow="visible"/>
	</clipPath>
	<g clip-path="url(#SVGID_290_)">
		<defs>
			<rect id="SVGID_291_" x="17.27" y="157.001" width="308" height="43"/>
		</defs>
		<clipPath id="SVGID_292_">
			<use xlink:href="#SVGID_291_"  overflow="visible"/>
		</clipPath>
		<rect x="74.392" y="180.756" clip-path="url(#SVGID_292_)" fill="#FFFFFF" width="11.002" height="11.312"/>
	</g>
</g>
<g>
	<defs>
		<path id="SVGID_293_" d="M79.945,189.598c0.677,0.426,0.591,1.516,0.556,1.695c-0.037,0.244-0.288,0.919-0.447,1.392
			c-0.669,1.979-1.04,2.209-1.04,2.209s-0.225,0.336-0.477,0.155c-0.119-0.085-0.242-0.242-0.209-0.467
			c0.032-0.224,0.328-3.882,0.658-4.628C78.987,189.954,79.268,189.173,79.945,189.598"/>
	</defs>
	<clipPath id="SVGID_294_">
		<use xlink:href="#SVGID_293_"  overflow="visible"/>
	</clipPath>
	<g clip-path="url(#SVGID_294_)">
		<defs>
			<rect id="SVGID_295_" x="17.27" y="157.001" width="308" height="43"/>
		</defs>
		<clipPath id="SVGID_296_">
			<use xlink:href="#SVGID_295_"  overflow="visible"/>
		</clipPath>
		<rect x="73.323" y="184.471" clip-path="url(#SVGID_296_)" fill="#FFFFFF" width="12.202" height="15.632"/>
	</g>
</g>
<g>
	<defs>
		<path id="SVGID_297_" d="M77.923,199.613h-0.347l-0.966-0.51l0.028-0.122l0.876,0.142c0,0,0.038-0.022,0.079-0.087l0.377,0.062
			C77.97,199.302,77.922,199.521,77.923,199.613"/>
	</defs>
	<clipPath id="SVGID_298_">
		<use xlink:href="#SVGID_297_"  overflow="visible"/>
	</clipPath>
	<g clip-path="url(#SVGID_298_)">
		<defs>
			<rect id="SVGID_299_" x="17.27" y="157.001" width="308" height="43"/>
		</defs>
		<clipPath id="SVGID_300_">
			<use xlink:href="#SVGID_299_"  overflow="visible"/>
		</clipPath>
		<rect x="71.61" y="193.981" clip-path="url(#SVGID_300_)" fill="#FFFFFF" width="11.361" height="10.632"/>
	</g>
</g>
<g>
	<defs>
		<path id="SVGID_301_" d="M77.684,198.765c0.039-0.281,0.716-4.205,0.716-4.205c0.008-0.046,0.06-0.123,0.157-0.099
			c0.099,0.025,0.768,0.028,0.482,1.094c-0.286,1.066-1.019,3.122-1.057,3.368c-0.009,0.056-0.012,0.115-0.012,0.175l-0.377-0.061
			C77.628,198.982,77.667,198.895,77.684,198.765"/>
	</defs>
	<clipPath id="SVGID_302_">
		<use xlink:href="#SVGID_301_"  overflow="visible"/>
	</clipPath>
	<g clip-path="url(#SVGID_302_)">
		<defs>
			<rect id="SVGID_303_" x="17.27" y="157.001" width="308" height="43"/>
		</defs>
		<clipPath id="SVGID_304_">
			<use xlink:href="#SVGID_303_"  overflow="visible"/>
		</clipPath>
		<rect x="72.593" y="189.456" clip-path="url(#SVGID_304_)" fill="#FFFFFF" width="11.517" height="14.642"/>
	</g>
</g>
<g>
	<defs>
		<path id="SVGID_305_" d="M79.675,188.999c0.796,0.059,1.228,1.063,1.28,1.239c0.082,0.232,0.088,0.582,0.166,1.074
			c0.329,2.064,0.415,3.453,0.415,3.453s-0.042,0.403-0.35,0.36c-0.145-0.02-0.327-0.102-0.402-0.315s-1.736-4.235-1.791-5.051
			C78.993,189.76,78.878,188.938,79.675,188.999"/>
	</defs>
	<clipPath id="SVGID_306_">
		<use xlink:href="#SVGID_305_"  overflow="visible"/>
	</clipPath>
	<g clip-path="url(#SVGID_306_)">
		<defs>
			<rect id="SVGID_307_" x="17.27" y="157.001" width="308" height="43"/>
		</defs>
		<clipPath id="SVGID_308_">
			<use xlink:href="#SVGID_307_"  overflow="visible"/>
		</clipPath>
		<rect x="73.987" y="183.995" clip-path="url(#SVGID_308_)" fill="#FFFFFF" width="12.549" height="16.134"/>
	</g>
</g>
<g>
	<defs>
		<path id="SVGID_309_" d="M79.999,185.311c0,0,0.164-0.254,0.032-0.584c-0.131-0.328,0.622-0.197,0.622-0.197l-0.042,0.766
			c0.025,0.334-0.427,0.324-0.558,0.253C79.923,185.478,79.999,185.311,79.999,185.311"/>
	</defs>
	<clipPath id="SVGID_310_">
		<use xlink:href="#SVGID_309_"  overflow="visible"/>
	</clipPath>
	<g clip-path="url(#SVGID_310_)">
		<defs>
			<rect id="SVGID_311_" x="17.27" y="157.001" width="308" height="43"/>
		</defs>
		<clipPath id="SVGID_312_">
			<use xlink:href="#SVGID_311_"  overflow="visible"/>
		</clipPath>
		<rect x="74.977" y="179.503" clip-path="url(#SVGID_312_)" fill="#FFFFFF" width="10.676" height="11.085"/>
	</g>
</g>
<g>
	<defs>
		<path id="SVGID_313_" d="M79.006,189.856c0,0-0.193-1.152,0-2.477c0,0,0.182-1.809,0.992-2.069l0.517-0.113
			c0,0,0.464,0.311,0.364,1.484c-0.069,0.814-0.133,1.943-0.081,2.109c0.051,0.165-0.019,1.065-0.019,1.065H79.006z"/>
	</defs>
	<clipPath id="SVGID_314_">
		<use xlink:href="#SVGID_313_"  overflow="visible"/>
	</clipPath>
	<g clip-path="url(#SVGID_314_)">
		<defs>
			<rect id="SVGID_315_" x="17.27" y="157.001" width="308" height="43"/>
		</defs>
		<clipPath id="SVGID_316_">
			<use xlink:href="#SVGID_315_"  overflow="visible"/>
		</clipPath>
		<rect x="73.92" y="180.197" clip-path="url(#SVGID_316_)" fill="#FFFFFF" width="11.973" height="14.659"/>
	</g>
</g>
<g>
	<defs>
		<path id="SVGID_317_" d="M79.428,183.699c0.001-0.025,0.003-0.038,0.003-0.038h0.001c0.001-0.006,0.002-0.012,0.002-0.018
			c0.081-0.555,0.509-0.95,0.957-0.885s0.745,0.409,0.664,0.964c0,0.005-0.002,0.012-0.002,0.018c0,0,0,0.001-0.001,0.004
			c-0.013,0.081-0.034,0.158-0.061,0.231c-0.116,0.378-0.404,1.072-0.946,0.993h-0.001c-0.554-0.081-0.623-0.864-0.622-1.251
			C79.42,183.66,79.422,183.759,79.428,183.699"/>
	</defs>
	<clipPath id="SVGID_318_">
		<use xlink:href="#SVGID_317_"  overflow="visible"/>
	</clipPath>
	<g clip-path="url(#SVGID_318_)">
		<defs>
			<rect id="SVGID_319_" x="17.27" y="157.001" width="308" height="43"/>
		</defs>
		<clipPath id="SVGID_320_">
			<use xlink:href="#SVGID_319_"  overflow="visible"/>
		</clipPath>
		<rect x="74.422" y="177.752" clip-path="url(#SVGID_320_)" fill="#FFFFFF" width="11.647" height="12.223"/>
	</g>
</g>
<g>
	<defs>
		<path id="SVGID_321_" d="M80.916,188.789c0.039-0.381-0.346-2.372-0.37-2.526c-0.024-0.152-0.255-0.49-0.542-0.288
			c-0.166,0.119-0.172,0.295-0.172,0.295s-0.005,0.522,0.333,1.506c0.232,0.677,0.285,1.024,0.406,1.189c0,0,0.065,0.11,0.206,0.067
			C80.92,188.969,80.916,188.789,80.916,188.789"/>
	</defs>
	<clipPath id="SVGID_322_">
		<use xlink:href="#SVGID_321_"  overflow="visible"/>
	</clipPath>
	<g clip-path="url(#SVGID_322_)">
		<defs>
			<rect id="SVGID_323_" x="17.27" y="157.001" width="308" height="43"/>
		</defs>
		<clipPath id="SVGID_324_">
			<use xlink:href="#SVGID_323_"  overflow="visible"/>
		</clipPath>
		<rect x="74.833" y="180.912" clip-path="url(#SVGID_324_)" fill="#FFFFFF" width="11.086" height="13.13"/>
	</g>
</g>
<g>
	<defs>
		<path id="SVGID_325_" d="M80.835,188.571c0,0,0.162,0.218,0.175,0.769c0.021,0.872,0.058,1.325,0.058,1.325
			s0.197,0.351,0.22,0.531c0.021,0.179-0.044,0.348-0.044,0.348l-0.121-0.273c0,0-0.092,0.336,0.101,0.552l0.069,0.09l-0.065,0.05
			c0,0-0.154-0.063-0.247-0.2c-0.094-0.137-0.197-1.026-0.197-1.026c0.022-0.176-0.236-1.521-0.292-1.779
			c-0.018-0.079-0.021-0.158-0.022-0.257c0,0-0.013-0.177,0.14-0.221C80.762,188.436,80.835,188.571,80.835,188.571"/>
	</defs>
	<clipPath id="SVGID_326_">
		<use xlink:href="#SVGID_325_"  overflow="visible"/>
	</clipPath>
	<g clip-path="url(#SVGID_326_)">
		<defs>
			<rect id="SVGID_327_" x="17.27" y="157.001" width="308" height="43"/>
		</defs>
		<clipPath id="SVGID_328_">
			<use xlink:href="#SVGID_327_"  overflow="visible"/>
		</clipPath>
		<rect x="75.469" y="183.471" clip-path="url(#SVGID_328_)" fill="#FFFFFF" width="10.824" height="13.491"/>
	</g>
</g>
<g>
	<defs>
		<path id="SVGID_329_" d="M82.766,199.452l-0.308,0.161h-1.091l-0.033-0.121l0.841-0.283c0,0,0.023-0.038,0.03-0.114l0.363-0.122
			C82.663,199.154,82.722,199.37,82.766,199.452"/>
	</defs>
	<clipPath id="SVGID_330_">
		<use xlink:href="#SVGID_329_"  overflow="visible"/>
	</clipPath>
	<g clip-path="url(#SVGID_330_)">
		<defs>
			<rect id="SVGID_331_" x="17.27" y="157.001" width="308" height="43"/>
		</defs>
		<clipPath id="SVGID_332_">
			<use xlink:href="#SVGID_331_"  overflow="visible"/>
		</clipPath>
		<rect x="76.334" y="193.973" clip-path="url(#SVGID_332_)" fill="#FFFFFF" width="11.432" height="10.641"/>
	</g>
</g>
<g>
	<defs>
		<path id="SVGID_333_" d="M82.159,198.812c-0.097-0.268-1.322-4.055-1.322-4.055c-0.014-0.044-0.004-0.137,0.093-0.161
			c0.099-0.022,0.693-0.333,0.935,0.744c0.243,1.077,0.551,3.238,0.632,3.473c0.018,0.054,0.043,0.107,0.071,0.16l-0.363,0.122
			C82.21,199.03,82.204,198.936,82.159,198.812"/>
	</defs>
	<clipPath id="SVGID_334_">
		<use xlink:href="#SVGID_333_"  overflow="visible"/>
	</clipPath>
	<g clip-path="url(#SVGID_334_)">
		<defs>
			<rect id="SVGID_335_" x="17.27" y="157.001" width="308" height="43"/>
		</defs>
		<clipPath id="SVGID_336_">
			<use xlink:href="#SVGID_335_"  overflow="visible"/>
		</clipPath>
		<rect x="75.832" y="189.537" clip-path="url(#SVGID_336_)" fill="#FFFFFF" width="11.736" height="14.558"/>
	</g>
</g>
<g>
	<defs>
		<path id="SVGID_337_" d="M80.524,183.714c0.029-0.261-0.121,0.038-0.305-0.087c-0.183-0.124-0.088-0.344-0.154-0.479
			c-0.065-0.138-0.47,0.061-0.492,0.011s0.072-0.188,0.072-0.188s0.458-0.577,1.044-0.284c0.69,0.347,0.578,1.034,0.578,1.034
			s-0.296,1.083-0.589,0.746C80.494,184.257,80.524,183.714,80.524,183.714"/>
	</defs>
	<clipPath id="SVGID_338_">
		<use xlink:href="#SVGID_337_"  overflow="visible"/>
	</clipPath>
	<g clip-path="url(#SVGID_338_)">
		<defs>
			<rect id="SVGID_339_" x="17.27" y="157.001" width="308" height="43"/>
		</defs>
		<clipPath id="SVGID_340_">
			<use xlink:href="#SVGID_339_"  overflow="visible"/>
		</clipPath>
		<rect x="74.57" y="177.604" clip-path="url(#SVGID_340_)" fill="#FFFFFF" width="11.704" height="11.929"/>
	</g>
</g>
<g>
	<defs>
		<path id="SVGID_341_" d="M79.819,186.269c0,0,0.006-0.2,0.195-0.335c0.326-0.23,0.587,0.153,0.615,0.327
			c0.009,0.061,0.067,0.367,0.137,0.763l-0.803,0.167C79.816,186.585,79.819,186.269,79.819,186.269"/>
	</defs>
	<clipPath id="SVGID_342_">
		<use xlink:href="#SVGID_341_"  overflow="visible"/>
	</clipPath>
	<g clip-path="url(#SVGID_342_)">
		<defs>
			<rect id="SVGID_343_" x="17.27" y="157.001" width="308" height="43"/>
		</defs>
		<clipPath id="SVGID_344_">
			<use xlink:href="#SVGID_343_"  overflow="visible"/>
		</clipPath>
		<rect x="74.819" y="180.862" clip-path="url(#SVGID_344_)" fill="#FFFFFF" width="10.947" height="11.328"/>
	</g>
</g>
<g>
	<defs>
		<path id="SVGID_345_" d="M252.629,188.262c-0.34-0.148-1.834-1.426-1.952-1.519c-0.117-0.094-0.292-0.45,0.017-0.595
			c0.179-0.084,0.33-0.006,0.33-0.006s0.442,0.245,1.109,1c0.459,0.521,0.728,0.731,0.809,0.912c0,0,0.062,0.107-0.041,0.205
			C252.778,188.351,252.629,188.262,252.629,188.262"/>
	</defs>
	<clipPath id="SVGID_346_">
		<use xlink:href="#SVGID_345_"  overflow="visible"/>
	</clipPath>
	<g clip-path="url(#SVGID_346_)">
		<defs>
			<rect id="SVGID_347_" x="17.27" y="157.001" width="308" height="43"/>
		</defs>
		<clipPath id="SVGID_348_">
			<use xlink:href="#SVGID_347_"  overflow="visible"/>
		</clipPath>
		<rect x="245.521" y="181.109" clip-path="url(#SVGID_348_)" fill="#FFFFFF" width="12.439" height="12.191"/>
	</g>
</g>
<g>
	<defs>
		<path id="SVGID_349_" d="M252.755,188.3c0,0,0.263-0.004,0.693-0.317c0.683-0.499,1.053-0.738,1.053-0.738l-0.113-0.259
			c-0.121,0.118-1.308,0.715-1.539,0.823c-0.072,0.034-0.134,0.077-0.212,0.135c0,0-0.144,0.095-0.086,0.236
			C252.607,188.324,252.755,188.3,252.755,188.3"/>
	</defs>
	<clipPath id="SVGID_350_">
		<use xlink:href="#SVGID_349_"  overflow="visible"/>
	</clipPath>
	<g clip-path="url(#SVGID_350_)">
		<defs>
			<rect id="SVGID_351_" x="17.27" y="157.001" width="308" height="43"/>
		</defs>
		<clipPath id="SVGID_352_">
			<use xlink:href="#SVGID_351_"  overflow="visible"/>
		</clipPath>
		<rect x="247.537" y="181.985" clip-path="url(#SVGID_352_)" fill="#FFFFFF" width="11.964" height="11.315"/>
	</g>
</g>
<g>
	<defs>
		<path id="SVGID_353_" d="M250.964,189.87c-0.656,0.412-0.573,1.469-0.539,1.643c0.035,0.237,0.278,0.894,0.434,1.352
			c0.649,1.92,1.009,2.142,1.009,2.142s0.218,0.326,0.462,0.15c0.115-0.082,0.234-0.235,0.203-0.452
			c-0.032-0.218-0.319-3.765-0.639-4.488C251.894,190.216,251.62,189.459,250.964,189.87"/>
	</defs>
	<clipPath id="SVGID_354_">
		<use xlink:href="#SVGID_353_"  overflow="visible"/>
	</clipPath>
	<g clip-path="url(#SVGID_354_)">
		<defs>
			<rect id="SVGID_355_" x="17.27" y="157.001" width="308" height="43"/>
		</defs>
		<clipPath id="SVGID_356_">
			<use xlink:href="#SVGID_355_"  overflow="visible"/>
		</clipPath>
		<rect x="245.401" y="184.748" clip-path="url(#SVGID_356_)" fill="#FFFFFF" width="12.136" height="15.461"/>
	</g>
</g>
<g>
	<defs>
		<path id="SVGID_357_" d="M252.925,199.583h0.337l0.937-0.494l-0.027-0.119l-0.85,0.138c0,0-0.036-0.021-0.076-0.084l-0.366,0.06
			C252.879,199.281,252.926,199.493,252.925,199.583"/>
	</defs>
	<clipPath id="SVGID_358_">
		<use xlink:href="#SVGID_357_"  overflow="visible"/>
	</clipPath>
	<g clip-path="url(#SVGID_358_)">
		<defs>
			<rect id="SVGID_359_" x="17.27" y="157.001" width="308" height="43"/>
		</defs>
		<clipPath id="SVGID_360_">
			<use xlink:href="#SVGID_359_"  overflow="visible"/>
		</clipPath>
		<rect x="247.879" y="193.97" clip-path="url(#SVGID_360_)" fill="#FFFFFF" width="11.319" height="10.613"/>
	</g>
</g>
<g>
	<defs>
		<path id="SVGID_361_" d="M253.156,198.759c-0.037-0.272-0.694-4.077-0.694-4.077c-0.008-0.044-0.058-0.119-0.152-0.096
			c-0.096,0.024-0.744,0.027-0.467,1.062s0.987,3.027,1.024,3.266c0.008,0.054,0.012,0.112,0.012,0.17l0.366-0.06
			C253.211,198.97,253.174,198.886,253.156,198.759"/>
	</defs>
	<clipPath id="SVGID_362_">
		<use xlink:href="#SVGID_361_"  overflow="visible"/>
	</clipPath>
	<g clip-path="url(#SVGID_362_)">
		<defs>
			<rect id="SVGID_363_" x="17.27" y="157.001" width="308" height="43"/>
		</defs>
		<clipPath id="SVGID_364_">
			<use xlink:href="#SVGID_363_"  overflow="visible"/>
		</clipPath>
		<rect x="246.773" y="189.581" clip-path="url(#SVGID_364_)" fill="#FFFFFF" width="11.472" height="14.502"/>
	</g>
</g>
<g>
	<defs>
		<path id="SVGID_365_" d="M251.227,189.289c-0.772,0.058-1.191,1.032-1.242,1.202c-0.079,0.226-0.085,0.563-0.161,1.042
			c-0.318,2.002-0.401,3.349-0.401,3.349s0.041,0.392,0.339,0.35c0.141-0.02,0.316-0.099,0.391-0.307
			c0.073-0.207,1.683-4.107,1.736-4.896C251.888,190.028,251.999,189.231,251.227,189.289"/>
	</defs>
	<clipPath id="SVGID_366_">
		<use xlink:href="#SVGID_365_"  overflow="visible"/>
	</clipPath>
	<g clip-path="url(#SVGID_366_)">
		<defs>
			<rect id="SVGID_367_" x="17.27" y="157.001" width="308" height="43"/>
		</defs>
		<clipPath id="SVGID_368_">
			<use xlink:href="#SVGID_367_"  overflow="visible"/>
		</clipPath>
		<rect x="244.422" y="184.286" clip-path="url(#SVGID_368_)" fill="#FFFFFF" width="12.472" height="15.948"/>
	</g>
</g>
<g>
	<defs>
		<path id="SVGID_369_" d="M250.912,185.713c0,0-0.159-0.246-0.031-0.565c0.127-0.319-0.604-0.192-0.604-0.192l0.03,0.756
			c-0.024,0.324,0.425,0.301,0.552,0.232C250.985,185.875,250.912,185.713,250.912,185.713"/>
	</defs>
	<clipPath id="SVGID_370_">
		<use xlink:href="#SVGID_369_"  overflow="visible"/>
	</clipPath>
	<g clip-path="url(#SVGID_370_)">
		<defs>
			<rect id="SVGID_371_" x="17.27" y="157.001" width="308" height="43"/>
		</defs>
		<clipPath id="SVGID_372_">
			<use xlink:href="#SVGID_371_"  overflow="visible"/>
		</clipPath>
		<rect x="245.277" y="179.93" clip-path="url(#SVGID_372_)" fill="#FFFFFF" width="10.656" height="11.057"/>
	</g>
</g>
<g>
	<defs>
		<path id="SVGID_373_" d="M251.875,190.121c0,0,0.187-1.117,0-2.401c0,0-0.176-1.755-0.962-2.007l-0.501-0.11
			c0,0-0.45,0.302-0.354,1.44c0.067,0.789,0.13,1.884,0.079,2.044c-0.05,0.161,0.018,1.034,0.018,1.034H251.875z"/>
	</defs>
	<clipPath id="SVGID_374_">
		<use xlink:href="#SVGID_373_"  overflow="visible"/>
	</clipPath>
	<g clip-path="url(#SVGID_374_)">
		<defs>
			<rect id="SVGID_375_" x="17.27" y="157.001" width="308" height="43"/>
		</defs>
		<clipPath id="SVGID_376_">
			<use xlink:href="#SVGID_375_"  overflow="visible"/>
		</clipPath>
		<rect x="245.045" y="180.603" clip-path="url(#SVGID_376_)" fill="#FFFFFF" width="11.913" height="14.519"/>
	</g>
</g>
<g>
	<defs>
		<path id="SVGID_377_" d="M251.465,184.177c-0.001-0.023-0.002-0.037-0.002-0.037h-0.002c-0.001-0.005-0.002-0.011-0.002-0.017
			c-0.079-0.537-0.494-0.921-0.928-0.858c-0.435,0.064-0.723,0.398-0.645,0.937c0.001,0.005,0.001,0.01,0.003,0.016
			c0,0,0,0.001,0,0.003c0.013,0.08,0.033,0.155,0.06,0.227c0.112,0.366,0.392,1.04,0.916,0.963h0.002
			c0.538-0.079,0.604-0.838,0.604-1.214C251.473,184.139,251.472,184.235,251.465,184.177"/>
	</defs>
	<clipPath id="SVGID_378_">
		<use xlink:href="#SVGID_377_"  overflow="visible"/>
	</clipPath>
	<g clip-path="url(#SVGID_378_)">
		<defs>
			<rect id="SVGID_379_" x="17.27" y="157.001" width="308" height="43"/>
		</defs>
		<clipPath id="SVGID_380_">
			<use xlink:href="#SVGID_379_"  overflow="visible"/>
		</clipPath>
		<rect x="244.874" y="178.259" clip-path="url(#SVGID_380_)" fill="#FFFFFF" width="11.598" height="12.156"/>
	</g>
</g>
<g>
	<defs>
		<path id="SVGID_381_" d="M251.523,189.059c-0.239-0.283-1.017-2.091-1.081-2.227s-0.063-0.533,0.277-0.526
			c0.197,0.003,0.299,0.143,0.299,0.143s0.288,0.415,0.554,1.387c0.183,0.67,0.33,0.978,0.322,1.176c0,0,0.008,0.124-0.127,0.167
			C251.618,189.205,251.523,189.059,251.523,189.059"/>
	</defs>
	<clipPath id="SVGID_382_">
		<use xlink:href="#SVGID_381_"  overflow="visible"/>
	</clipPath>
	<g clip-path="url(#SVGID_382_)">
		<defs>
			<rect id="SVGID_383_" x="17.27" y="157.001" width="308" height="43"/>
		</defs>
		<clipPath id="SVGID_384_">
			<use xlink:href="#SVGID_383_"  overflow="visible"/>
		</clipPath>
		<rect x="245.41" y="181.305" clip-path="url(#SVGID_384_)" fill="#FFFFFF" width="11.485" height="12.876"/>
	</g>
</g>
<g>
	<defs>
		<path id="SVGID_385_" d="M251.47,188.84c0,0-0.012,0.263,0.278,0.711c0.459,0.71,0.677,1.094,0.677,1.094s0.032,0.39,0.113,0.546
			c0.08,0.155,0.224,0.256,0.224,0.256l-0.052-0.285c0,0,0.258,0.218,0.22,0.497l-0.007,0.109l0.079,0.006
			c0,0,0.089-0.136,0.09-0.297c0-0.159-0.403-0.931-0.403-0.931c-0.112-0.127-0.639-1.347-0.734-1.585
			c-0.029-0.074-0.07-0.138-0.122-0.219c0,0-0.086-0.149-0.231-0.1C251.454,188.692,251.47,188.84,251.47,188.84"/>
	</defs>
	<clipPath id="SVGID_386_">
		<use xlink:href="#SVGID_385_"  overflow="visible"/>
	</clipPath>
	<g clip-path="url(#SVGID_386_)">
		<defs>
			<rect id="SVGID_387_" x="17.27" y="157.001" width="308" height="43"/>
		</defs>
		<clipPath id="SVGID_388_">
			<use xlink:href="#SVGID_387_"  overflow="visible"/>
		</clipPath>
		<rect x="246.47" y="183.633" clip-path="url(#SVGID_388_)" fill="#FFFFFF" width="11.622" height="13.141"/>
	</g>
</g>
<g>
	<defs>
		<path id="SVGID_389_" d="M248.229,199.426l0.299,0.156h1.059l0.031-0.117l-0.815-0.274c0,0-0.022-0.036-0.029-0.11l-0.352-0.118
			C248.329,199.137,248.271,199.347,248.229,199.426"/>
	</defs>
	<clipPath id="SVGID_390_">
		<use xlink:href="#SVGID_389_"  overflow="visible"/>
	</clipPath>
	<g clip-path="url(#SVGID_390_)">
		<defs>
			<rect id="SVGID_391_" x="17.27" y="157.001" width="308" height="43"/>
		</defs>
		<clipPath id="SVGID_392_">
			<use xlink:href="#SVGID_391_"  overflow="visible"/>
		</clipPath>
		<rect x="243.229" y="193.962" clip-path="url(#SVGID_392_)" fill="#FFFFFF" width="11.389" height="10.62"/>
	</g>
</g>
<g>
	<defs>
		<path id="SVGID_393_" d="M248.817,198.805c0.094-0.259,1.282-3.932,1.282-3.932c0.014-0.042,0.004-0.132-0.09-0.156
			c-0.097-0.021-0.673-0.323-0.908,0.721c-0.235,1.046-0.534,3.141-0.612,3.368c-0.018,0.053-0.041,0.104-0.068,0.156l0.352,0.118
			C248.767,199.016,248.773,198.926,248.817,198.805"/>
	</defs>
	<clipPath id="SVGID_394_">
		<use xlink:href="#SVGID_393_"  overflow="visible"/>
	</clipPath>
	<g clip-path="url(#SVGID_394_)">
		<defs>
			<rect id="SVGID_395_" x="17.27" y="157.001" width="308" height="43"/>
		</defs>
		<clipPath id="SVGID_396_">
			<use xlink:href="#SVGID_395_"  overflow="visible"/>
		</clipPath>
		<rect x="243.421" y="189.66" clip-path="url(#SVGID_396_)" fill="#FFFFFF" width="11.684" height="14.42"/>
	</g>
</g>
<g>
	<defs>
		<path id="SVGID_397_" d="M250.402,184.192c-0.028-0.253,0.117,0.036,0.296-0.084c0.178-0.121,0.086-0.334,0.149-0.467
			c0.063-0.132,0.456,0.06,0.477,0.012c0.021-0.049-0.07-0.183-0.07-0.183s-0.444-0.559-1.013-0.274
			c-0.669,0.335-0.56,1.003-0.56,1.003s0.287,1.049,0.571,0.723C250.432,184.718,250.402,184.192,250.402,184.192"/>
	</defs>
	<clipPath id="SVGID_398_">
		<use xlink:href="#SVGID_397_"  overflow="visible"/>
	</clipPath>
	<g clip-path="url(#SVGID_398_)">
		<defs>
			<rect id="SVGID_399_" x="17.27" y="157.001" width="308" height="43"/>
		</defs>
		<clipPath id="SVGID_400_">
			<use xlink:href="#SVGID_399_"  overflow="visible"/>
		</clipPath>
		<rect x="244.675" y="178.116" clip-path="url(#SVGID_400_)" fill="#FFFFFF" width="11.652" height="11.869"/>
	</g>
</g>
<g>
	<defs>
		<path id="SVGID_401_" d="M251.442,184.604c0,0-0.261-0.066-0.395,0s-0.169,0.14-0.255,0.06c-0.087-0.08-0.17-0.588-0.17-0.588
			h-0.122l0.046,0.586c0,0-0.026,0.677,0.319,0.747c0,0,0.009,0.009,0.037,0.006s0.46-0.055,0.556-0.786
			C251.459,184.629,251.461,184.609,251.442,184.604"/>
	</defs>
	<clipPath id="SVGID_402_">
		<use xlink:href="#SVGID_401_"  overflow="visible"/>
	</clipPath>
	<g clip-path="url(#SVGID_402_)">
		<defs>
			<rect id="SVGID_403_" x="17.27" y="157.001" width="308" height="43"/>
		</defs>
		<clipPath id="SVGID_404_">
			<use xlink:href="#SVGID_403_"  overflow="visible"/>
		</clipPath>
		<rect x="245.501" y="179.076" clip-path="url(#SVGID_404_)" fill="#FFFFFF" width="10.958" height="11.34"/>
	</g>
</g>
<g>
	<defs>
		<path id="SVGID_405_" d="M251.028,186.439c0,0-0.114-0.157-0.339-0.161c-0.387-0.009-0.388,0.442-0.314,0.597
			c0.025,0.053,0.146,0.331,0.306,0.686l0.734-0.304C251.203,186.691,251.028,186.439,251.028,186.439"/>
	</defs>
	<clipPath id="SVGID_406_">
		<use xlink:href="#SVGID_405_"  overflow="visible"/>
	</clipPath>
	<g clip-path="url(#SVGID_406_)">
		<defs>
			<rect id="SVGID_407_" x="17.27" y="157.001" width="308" height="43"/>
		</defs>
		<clipPath id="SVGID_408_">
			<use xlink:href="#SVGID_407_"  overflow="visible"/>
		</clipPath>
		<rect x="245.338" y="181.277" clip-path="url(#SVGID_408_)" fill="#FFFFFF" width="11.077" height="11.283"/>
	</g>
</g>
<g>
	<defs>
		<path id="SVGID_409_" d="M254.282,187.097c0.037-0.036,0.069-0.074,0.093-0.104v-0.001l0.027-0.229l0.18-0.388l0.023-0.05
			c0.017-0.036,0.052-0.03,0.049,0.09l-0.06,0.176l0.002,0.014l0.207-0.135c0,0,0.044-0.029,0.056-0.015l0.076,0.081
			c0.008,0.005,0.008,0.014,0.004,0.021l-0.01,0.157c0.001,0.019-0.028,0.063-0.028,0.063l-0.022,0.149
			c-0.004,0.01-0.019,0.079-0.019,0.079l-0.09,0.086l-0.164,0.117l-0.106,0.049c0,0-0.127,0.064-0.198,0.003
			C254.23,187.2,254.252,187.128,254.282,187.097"/>
	</defs>
	<clipPath id="SVGID_410_">
		<use xlink:href="#SVGID_409_"  overflow="visible"/>
	</clipPath>
	<g clip-path="url(#SVGID_410_)">
		<defs>
			<rect id="SVGID_411_" x="17.27" y="157.001" width="308" height="43"/>
		</defs>
		<clipPath id="SVGID_412_">
			<use xlink:href="#SVGID_411_"  overflow="visible"/>
		</clipPath>
		<rect x="249.254" y="181.305" clip-path="url(#SVGID_412_)" fill="#FFFFFF" width="10.688" height="10.981"/>
	</g>
</g>
<g>
	<defs>
		<path id="SVGID_413_" d="M254.295,187.097c0.053-0.036,0.101-0.074,0.133-0.104v-0.001l0.041-0.229l0.258-0.388l0.033-0.05
			c0.024-0.036,0.075-0.03,0.07,0.09l-0.086,0.176l0.003,0.014l-0.139,0.652c0,0-0.183,0.064-0.285,0.003
			C254.221,187.2,254.25,187.128,254.295,187.097"/>
	</defs>
	<clipPath id="SVGID_414_">
		<use xlink:href="#SVGID_413_"  overflow="visible"/>
	</clipPath>
	<g clip-path="url(#SVGID_414_)">
		<defs>
			<rect id="SVGID_415_" x="17.27" y="157.001" width="308" height="43"/>
		</defs>
		<clipPath id="SVGID_416_">
			<use xlink:href="#SVGID_415_"  overflow="visible"/>
		</clipPath>
		<rect x="249.254" y="181.305" clip-path="url(#SVGID_416_)" fill="#FFFFFF" width="10.577" height="10.981"/>
	</g>
</g>
<g>
	
		<line fill="none" stroke="#FFFFFF" stroke-linecap="round" stroke-linejoin="round" stroke-miterlimit="10" x1="298.231" y1="199.645" x2="329.074" y2="199.645"/>
</g>
</svg>
