<?xml version="1.0" encoding="utf-8"?>
<!-- Generator: Adobe Illustrator 16.0.0, SVG Export Plug-In . SVG Version: 6.00 Build 0)  -->
<!DOCTYPE svg PUBLIC "-//W3C//DTD SVG 1.1//EN" "http://www.w3.org/Graphics/SVG/1.1/DTD/svg11.dtd">
<svg version="1.1" id="Capa_1" xmlns="http://www.w3.org/2000/svg" xmlns:xlink="http://www.w3.org/1999/xlink" x="0px" y="0px"
	 width="1500.008px" height="527.896px" viewBox="0 0 1500.008 527.896" enable-background="new 0 0 1500.008 527.896"
	 xml:space="preserve">
<g>
	<path fill="none" stroke="#FFFFFF" stroke-linecap="round" stroke-linejoin="round" stroke-miterlimit="10" d="M516.83,293.292
		c0.732-10.654,1.347-16.768,1.347-16.768c-0.066-0.062-0.136-0.117-0.2-0.182l-9.455-9.455c-2.721-2.721-2.722-7.134,0-9.855
		s7.134-2.721,9.855,0l9.455,9.455c0.064,0.064,0.12,0.135,0.182,0.201c0,0,65.657-8.807,130.994,0
		c0.061-0.066,0.117-0.137,0.182-0.201l9.453-9.455c2.722-2.721,7.135-2.722,9.856,0s2.722,7.135-0.001,9.855l-9.453,9.455
		c-0.064,0.064-0.135,0.12-0.201,0.182c0,0,7.667,88.146,0,172.892c0.066,0.061,0.137,0.117,0.201,0.182l9.454,9.455
		c2.722,2.721,2.722,7.133,0,9.855c-2.722,2.721-7.134,2.721-9.856,0l-9.454-9.455c-0.064-0.064-0.12-0.135-0.183-0.201
		c0,0-28.111,3.77-65.851,3.908"/>
	<g>
		<g>
			
				<line fill="none" stroke="#FFFFFF" stroke-linecap="round" stroke-linejoin="round" x1="569.254" y1="307.163" x2="575.254" y2="307.163"/>
			
				<line fill="none" stroke="#FFFFFF" stroke-linecap="round" stroke-linejoin="round" stroke-dasharray="12.5128,12.5128" x1="587.767" y1="307.163" x2="656.588" y2="307.163"/>
			
				<line fill="none" stroke="#FFFFFF" stroke-linecap="round" stroke-linejoin="round" x1="662.844" y1="307.163" x2="668.844" y2="307.163"/>
		</g>
	</g>
</g>
<g>
	<path fill="none" stroke="#FFFFFF" stroke-miterlimit="10" d="M448.744,419.896l-10.918,41.451c-0.08,0.043-0.162,0.078-0.24,0.125
		l-11.551,6.734c-3.325,1.938-4.449,6.205-2.512,9.531c1.939,3.324,6.205,4.447,9.531,2.51l11.551-6.734
		c0.078-0.047,0.15-0.1,0.227-0.148l126.674,33.367c0.043,0.08,0.078,0.16,0.124,0.24l6.734,11.551
		c1.938,3.324,6.205,4.449,9.53,2.51c3.325-1.938,4.449-6.205,2.51-9.529l-6.733-11.553c-0.046-0.078-0.1-0.15-0.147-0.227
		l44.016-167.1c0.079-0.043,0.161-0.079,0.24-0.125l11.55-6.735c3.325-1.938,4.449-6.205,2.511-9.53s-6.207-4.448-9.53-2.51
		l-11.552,6.734c-0.078,0.046-0.149,0.1-0.226,0.148l-126.673-33.366c-0.043-0.08-0.079-0.162-0.125-0.241L487,275.449
		c-1.939-3.324-6.205-4.449-9.531-2.511c-3.324,1.938-4.448,6.206-2.51,9.53l6.734,11.552c0.046,0.078,0.1,0.15,0.148,0.227
		l-9.936,37.718"/>
	<line fill="none" stroke="#FFFFFF" stroke-miterlimit="10" x1="460.505" y1="375.248" x2="452.065" y2="407.285"/>
	<line fill="none" stroke="#FFFFFF" stroke-miterlimit="10" x1="474.037" y1="323.875" x2="619.734" y2="362.252"/>
	<g>
		<path fill="none" stroke="#FFFFFF" stroke-miterlimit="10" d="M529.515,390.422l-6.243-4.335
			c-2.396,3.448-1.545,8.18,1.902,10.576c1.724,1.198,4.092,0.772,5.289-0.95C531.662,393.988,531.235,391.621,529.515,390.422z"/>
		<path fill="none" stroke="#FFFFFF" stroke-miterlimit="10" d="M537.637,392.564l7.565-0.694c0.387,4.183-2.687,7.88-6.87,8.264
			c-2.09,0.192-3.939-1.346-4.131-3.434C534.008,394.606,535.547,392.756,537.637,392.564z"/>
		<path fill="none" stroke="#FFFFFF" stroke-miterlimit="10" d="M526.352,402.417l-6.242-4.337
			c-2.396,3.448-1.547,8.183,1.903,10.577c1.722,1.199,4.089,0.771,5.288-0.951S528.072,403.617,526.352,402.417z"/>
		<path fill="none" stroke="#FFFFFF" stroke-miterlimit="10" d="M534.473,404.558l7.566-0.695c0.387,4.182-2.686,7.883-6.869,8.264
			c-2.091,0.195-3.939-1.344-4.133-3.434C530.845,406.603,532.384,404.753,534.473,404.558z"/>
		<path fill="none" stroke="#FFFFFF" stroke-miterlimit="10" d="M523.188,414.416l-6.24-4.34c-2.398,3.449-1.548,8.182,1.901,10.578
			c1.724,1.201,4.091,0.771,5.289-0.951S524.91,415.609,523.188,414.416z"/>
		<path fill="none" stroke="#FFFFFF" stroke-miterlimit="10" d="M531.31,416.558l7.567-0.699c0.385,4.184-2.688,7.881-6.871,8.264
			c-2.091,0.195-3.938-1.346-4.131-3.434C527.682,418.599,529.221,416.746,531.31,416.558z"/>
		<path fill="none" stroke="#FFFFFF" stroke-miterlimit="10" d="M539.494,385.688L539.494,385.688
			c0.819-3.108-1.636-9.671-1.636-9.671l-0.002-0.002c0,0-5.373,4.5-6.194,7.608l0.004,0.001c-0.187,0.627-0.229,1.304-0.086,1.979
			c0.455,2.191,2.604,3.596,4.794,3.137C537.971,388.41,539.148,387.178,539.494,385.688z"/>
		<line fill="none" stroke="#FFFFFF" stroke-miterlimit="10" x1="523.738" y1="430.494" x2="517.533" y2="454.027"/>
		<path fill="none" stroke="#FFFFFF" stroke-miterlimit="10" d="M514.924,423.783c4.027,6.912,12.88,9.248,19.789,5.219"/>
		<line fill="none" stroke="#FFFFFF" stroke-miterlimit="10" x1="523.101" y1="386.568" x2="529.27" y2="363.178"/>
		<line fill="none" stroke="#FFFFFF" stroke-miterlimit="10" x1="545.133" y1="392.379" x2="551.301" y2="368.987"/>
		<line fill="none" stroke="#FFFFFF" stroke-miterlimit="10" x1="537.756" y1="376.41" x2="543.924" y2="353.016"/>
	</g>
</g>
<g>
	<path fill="none" stroke="#FFFFFF" stroke-miterlimit="10" d="M1177.837,409.769l16.744,39.459
		c-0.036,0.084-0.079,0.162-0.113,0.246l-5.009,12.396c-1.443,3.568,0.28,7.631,3.848,9.074c3.57,1.441,7.629-0.283,9.073-3.852
		l5.01-12.396c0.034-0.084,0.058-0.17,0.089-0.254l120.587-51.172c0.083,0.037,0.16,0.08,0.245,0.115l12.396,5.01
		c3.568,1.441,7.63-0.281,9.072-3.85s-0.281-7.631-3.85-9.072l-12.396-5.011c-0.084-0.034-0.171-0.059-0.256-0.089l-67.5-159.071
		c0.036-0.083,0.079-0.161,0.113-0.246l5.009-12.396c1.443-3.568-0.281-7.63-3.85-9.073c-3.568-1.442-7.631,0.283-9.071,3.851
		l-5.012,12.397c-0.033,0.084-0.057,0.17-0.087,0.255l-120.586,51.17c-0.083-0.037-0.162-0.079-0.247-0.114l-12.396-5.01
		c-3.568-1.441-7.63,0.281-9.073,3.85c-1.441,3.568,0.282,7.631,3.851,9.072l12.396,5.011c0.085,0.034,0.172,0.059,0.257,0.089
		l39.803,93.282"/>
	<line fill="none" stroke="#FFFFFF" stroke-miterlimit="10" x1="1139.049" y1="318.362" x2="1277.745" y2="259.507"/>
	<g>
		<path fill="none" stroke="#FFFFFF" stroke-miterlimit="10" d="M1223.656,337.015l-7.591,0.396
			c0.217,4.193,3.786,7.413,7.979,7.197c2.097-0.107,3.708-1.895,3.601-3.989C1227.537,338.52,1225.75,336.91,1223.656,337.015z"/>
		<path fill="none" stroke="#FFFFFF" stroke-miterlimit="10" d="M1231.389,333.737l5.558-5.181c2.866,3.07,2.7,7.875-0.373,10.739
			c-1.534,1.432-3.938,1.349-5.368-0.186C1229.77,337.573,1229.854,335.167,1231.389,333.737z"/>
		<path fill="none" stroke="#FFFFFF" stroke-miterlimit="10" d="M1228.499,348.437l-7.591,0.392c0.216,4.194,3.786,7.417,7.98,7.199
			c2.096-0.106,3.706-1.894,3.599-3.99C1232.382,349.942,1230.594,348.332,1228.499,348.437z"/>
		<path fill="none" stroke="#FFFFFF" stroke-miterlimit="10" d="M1236.231,345.158l5.557-5.182
			c2.866,3.069,2.702,7.876-0.372,10.739c-1.534,1.434-3.938,1.349-5.37-0.185C1234.614,348.996,1234.699,346.591,1236.231,345.158z
			"/>
		<path fill="none" stroke="#FFFFFF" stroke-miterlimit="10" d="M1233.343,359.861l-7.591,0.389
			c0.216,4.196,3.785,7.417,7.979,7.199c2.099-0.105,3.708-1.894,3.602-3.989C1237.225,361.364,1235.436,359.75,1233.343,359.861z"
			/>
		<path fill="none" stroke="#FFFFFF" stroke-miterlimit="10" d="M1241.076,356.582l5.556-5.186c2.866,3.073,2.7,7.877-0.373,10.741
			c-1.534,1.435-3.938,1.348-5.368-0.186C1239.457,360.417,1239.54,358.009,1241.076,356.582z"/>
		<path fill="none" stroke="#FFFFFF" stroke-miterlimit="10" d="M1228.648,327.163L1228.648,327.163
			c-1.256-2.96-7.215-6.646-7.215-6.646h-0.002c0,0-1.494,6.848-0.24,9.809l0.004-0.002c0.236,0.609,0.617,1.171,1.145,1.617
			c1.701,1.455,4.26,1.25,5.711-0.454C1229.11,330.248,1229.287,328.552,1228.648,327.163z"/>
		<line fill="none" stroke="#FFFFFF" stroke-miterlimit="10" x1="1243.621" y1="372.236" x2="1253.123" y2="394.643"/>
		<path fill="none" stroke="#FFFFFF" stroke-miterlimit="10" d="M1232.544,372.327c7.416,3,15.845-0.573,18.842-7.989"/>
		<line fill="none" stroke="#FFFFFF" stroke-miterlimit="10" x1="1216.225" y1="337.895" x2="1206.783" y2="315.625"/>
		<line fill="none" stroke="#FFFFFF" stroke-miterlimit="10" x1="1237.203" y1="329.001" x2="1227.759" y2="306.729"/>
		<line fill="none" stroke="#FFFFFF" stroke-miterlimit="10" x1="1221.594" y1="320.89" x2="1212.148" y2="298.618"/>
	</g>
</g>
<g>
	<path fill="none" stroke="#FFFFFF" stroke-miterlimit="10" d="M1268.19,428.679l-3.557,10.977c-0.082,0.039-0.165,0.07-0.246,0.111
		l-11.908,6.08c-3.428,1.75-4.788,5.947-3.04,9.375c1.752,3.43,5.947,4.787,9.377,3.039l11.908-6.08
		c0.081-0.041,0.155-0.092,0.234-0.135l124.617,40.377c0.038,0.082,0.068,0.164,0.109,0.246l6.08,11.908
		c1.751,3.428,5.948,4.787,9.376,3.037s4.788-5.947,3.038-9.375l-6.08-11.908c-0.041-0.08-0.091-0.156-0.135-0.234l53.264-164.387
		c0.082-0.039,0.165-0.069,0.247-0.111l11.907-6.081c3.429-1.749,4.787-5.947,3.038-9.376c-1.75-3.428-5.949-4.787-9.375-3.036
		l-11.91,6.079c-0.08,0.042-0.154,0.092-0.232,0.136l-124.616-40.377c-0.038-0.082-0.07-0.166-0.111-0.248l-6.08-11.908
		c-1.751-3.427-5.947-4.787-9.376-3.038c-3.428,1.751-4.788,5.948-3.037,9.376l6.079,11.908c0.042,0.082,0.092,0.157,0.136,0.236
		l-14.433,44.848"/>
	<line fill="none" stroke="#FFFFFF" stroke-miterlimit="10" x1="1308.453" y1="304.416" x2="1451.784" y2="350.857"/>
	<g>
		<path fill="none" stroke="#FFFFFF" stroke-miterlimit="10" d="M1360.135,373.953l-5.992-4.676
			c-2.585,3.31-1.999,8.081,1.31,10.666c1.654,1.293,4.042,0.999,5.334-0.653C1362.08,377.633,1361.785,375.246,1360.135,373.953z"
			/>
		<path fill="none" stroke="#FFFFFF" stroke-miterlimit="10" d="M1368.123,376.544l7.594-0.271c0.152,4.198-3.121,7.718-7.32,7.868
			c-2.097,0.075-3.858-1.563-3.933-3.658C1364.387,378.38,1366.027,376.62,1368.123,376.544z"/>
		<path fill="none" stroke="#FFFFFF" stroke-miterlimit="10" d="M1356.307,385.754l-5.989-4.68c-2.586,3.31-2.001,8.084,1.31,10.668
			c1.652,1.293,4.04,0.999,5.333-0.655C1358.254,389.435,1357.959,387.047,1356.307,385.754z"/>
		<path fill="none" stroke="#FFFFFF" stroke-miterlimit="10" d="M1364.297,388.344l7.593-0.272c0.153,4.197-3.12,7.72-7.319,7.868
			c-2.098,0.077-3.857-1.562-3.935-3.659C1360.561,390.183,1362.2,388.423,1364.297,388.344z"/>
		<path fill="none" stroke="#FFFFFF" stroke-miterlimit="10" d="M1349.861,404.339c1.221,0.088,2.462-0.414,3.272-1.451
			c1.292-1.652,0.999-4.044-0.654-5.331l-5.988-4.682c-0.562,0.719-0.974,1.506-1.241,2.325"/>
		<path fill="none" stroke="#FFFFFF" stroke-miterlimit="10" d="M1360.47,400.148l7.595-0.275c0.15,4.199-3.123,7.719-7.321,7.867
			c-2.099,0.078-3.858-1.563-3.934-3.658C1356.733,401.984,1358.373,400.218,1360.47,400.148z"/>
		<path fill="none" stroke="#FFFFFF" stroke-miterlimit="10" d="M1370.362,369.783L1370.362,369.783
			c0.991-3.059-1.095-9.748-1.095-9.748l-0.001-0.001c0,0-5.616,4.193-6.609,7.251l0.004,0.001
			c-0.221,0.615-0.302,1.289-0.195,1.972c0.331,2.214,2.398,3.736,4.611,3.399C1368.689,372.416,1369.934,371.25,1370.362,369.783z"
			/>
		<line fill="none" stroke="#FFFFFF" stroke-miterlimit="10" x1="1352.133" y1="413.64" x2="1344.625" y2="436.791"/>
		<path fill="none" stroke="#FFFFFF" stroke-miterlimit="10" d="M1345.1,408.667c4.161,5.457,11.743,7.326,18.074,4.094"/>
		<line fill="none" stroke="#FFFFFF" stroke-miterlimit="10" x1="1353.945" y1="369.748" x2="1361.408" y2="346.739"/>
		<line fill="none" stroke="#FFFFFF" stroke-miterlimit="10" x1="1375.619" y1="376.778" x2="1383.082" y2="353.766"/>
		<line fill="none" stroke="#FFFFFF" stroke-miterlimit="10" x1="1369.145" y1="360.421" x2="1376.606" y2="337.409"/>
	</g>
</g>
<g>
	<path fill="none" stroke="#FFFFFF" stroke-miterlimit="10" d="M480.129,420.107L480.129,420.107
		c0.001-12.459-15.689-34.632-15.689-34.632h-0.008c0,0-15.689,22.173-15.689,34.632h0.01c-0.084,2.525,0.432,5.107,1.631,7.508
		c3.879,7.758,13.314,10.902,21.07,7.023C477.107,431.812,480.307,426.035,480.129,420.107z"/>
	<g>
		<path fill="none" stroke="#FFFFFF" stroke-miterlimit="10" d="M351.09,263.423h55.771c3.756,0,6.799-3.043,6.799-6.798
			s-3.043-6.799-6.799-6.799H351.09c-3.756,0-6.799,3.044-6.799,6.799S347.334,263.423,351.09,263.423z"/>
		<path fill="none" stroke="#FFFFFF" stroke-miterlimit="10" d="M357.105,349.845c5.723,5.81,13.681,9.412,22.48,9.412
			c11.436,0,21.449-6.083,26.984-15.189h10.48h13.988c9.235,0,16.75,7.514,16.75,16.75v14.43h33.298v-14.666h-0.006
			c-0.128-27.486-22.525-49.811-50.042-49.811h-12.828h-12.006c-4.726-7.412-12.456-12.717-21.479-14.196v-26.243h-11.5v26.462
			c-6.623,1.355-12.485,4.789-16.886,9.587"/>
	</g>
</g>
<g>
	<path fill="none" stroke="#FFFFFF" stroke-miterlimit="10" d="M854.649,496.496L854.649,496.496
		c-0.001-12.457,15.689-34.631,15.689-34.631h0.008c0,0,15.689,22.174,15.689,34.631h-0.01c0.084,2.527-0.432,5.109-1.631,7.51
		c-3.879,7.758-13.314,10.902-21.07,7.023C857.671,508.201,854.472,502.423,854.649,496.496z"/>
	<g>
		<path fill="none" stroke="#FFFFFF" stroke-miterlimit="10" d="M967.416,339.813h-39.499c-3.756,0-6.799-3.043-6.799-6.798
			s3.043-6.799,6.799-6.799h25.896"/>
		<path fill="none" stroke="#FFFFFF" stroke-miterlimit="10" d="M977.673,426.234c-5.723,5.811-13.681,9.412-22.48,9.412
			c-11.436,0-21.449-6.082-26.984-15.189h-10.48h-13.988c-9.235,0-16.75,7.514-16.75,16.75v14.43h-33.298V436.97h0.006
			c0.128-27.486,22.525-49.81,50.042-49.81h12.828h12.006c4.726-7.412,12.456-12.717,21.479-14.196v-26.243h11.5v26.462
			c6.623,1.355,12.485,4.789,16.886,9.587"/>
	</g>
</g>
<g>
	<path fill="none" stroke="#FFFFFF" stroke-miterlimit="10" d="M156.43,388.688c-6.036-19.313-26.584-30.076-45.896-24.041
		c-12.276,3.836-21.096,13.537-24.345,25.057c-9.229-7.619-22.004-10.572-34.279-6.736c-19.313,6.035-30.075,26.583-24.04,45.896
		c2.998,9.594,9.578,17.078,17.809,21.439l-0.003,0.01l72.38,41.373l35.94-75.225l-0.001-0.002
		C158.277,408.185,159.429,398.284,156.43,388.688z"/>
	<polyline fill="none" stroke="#FFFFFF" stroke-linecap="round" stroke-linejoin="round" stroke-miterlimit="10" points="
		32.497,438.386 49.374,433.113 51.799,416.474 67.823,441.613 62.976,402.144 83.826,447.517 81.745,422.996 94.396,419.042 	"/>
	<circle fill="#FFFFFF" cx="94.396" cy="419.042" r="2.455"/>
	
		<line fill="none" stroke="#FFFFFF" stroke-linecap="round" stroke-linejoin="round" stroke-miterlimit="10" x1="197.885" y1="444.921" x2="135.102" y2="464.542"/>
	<polyline fill="none" stroke="#FFFFFF" stroke-linecap="round" stroke-linejoin="round" stroke-miterlimit="10" points="
		155.029,291.129 186.168,281.398 212.25,364.858 	"/>
	<polyline fill="none" stroke="#FFFFFF" stroke-linecap="round" stroke-linejoin="round" stroke-miterlimit="10" points="
		92.838,371.089 75.606,315.95 106.745,306.218 	"/>
	<path fill="none" stroke="#FFFFFF" stroke-linecap="round" stroke-linejoin="round" stroke-miterlimit="10" d="M138.305,288.542
		c-0.076-0.513-0.182-1.028-0.342-1.54c-1.686-5.395-7.426-8.402-12.821-6.716c-5.396,1.687-8.403,7.427-6.717,12.822
		c0.159,0.512,0.367,0.994,0.596,1.46l-12.4,3.875l5.796,18.544l44.084-13.776l-5.795-18.544L138.305,288.542z"/>
	
		<line fill="none" stroke="#FFFFFF" stroke-linecap="round" stroke-linejoin="round" stroke-miterlimit="10" x1="93.348" y1="334.212" x2="181.983" y2="306.513"/>
	
		<line fill="none" stroke="#FFFFFF" stroke-linecap="round" stroke-linejoin="round" stroke-miterlimit="10" x1="97.267" y1="346.751" x2="185.901" y2="319.052"/>
	
		<line fill="none" stroke="#FFFFFF" stroke-linecap="round" stroke-linejoin="round" stroke-miterlimit="10" x1="101.185" y1="359.291" x2="189.82" y2="331.59"/>
	
		<line fill="none" stroke="#FFFFFF" stroke-linecap="round" stroke-linejoin="round" stroke-miterlimit="10" x1="133.453" y1="362.969" x2="160.268" y2="354.589"/>
</g>
<g>
	<path fill="none" stroke="#FFFFFF" stroke-miterlimit="10" d="M345.825,412.697l-9.985,55.652l-118.086-21.188
		c-10.854-1.947-21.215,5.26-23.162,16.115l28.795-160.481c1.949-10.854,12.309-18.063,23.163-16.114l118.085,21.188l-16.086,89.652
		"/>
	
		<line fill="none" stroke="#FFFFFF" stroke-linecap="round" stroke-linejoin="round" stroke-miterlimit="10" x1="252.129" y1="493.873" x2="328.791" y2="507.628"/>
	<path fill="none" stroke="#FFFFFF" stroke-linecap="round" stroke-linejoin="round" stroke-miterlimit="10" d="M194.592,463.277
		c-1.947,10.854,5.26,21.215,16.115,23.162l6.232,1.119"/>
	<path fill="none" stroke="#FFFFFF" stroke-linecap="round" stroke-linejoin="round" stroke-miterlimit="10" d="M328.791,507.628
		c-8.908-12.803-5.756-30.371,7.047-39.279"/>
	<polygon fill="none" stroke="#FFFFFF" stroke-linecap="round" stroke-linejoin="round" stroke-miterlimit="10" points="
		238.524,521.414 230.305,511.328 219.973,518.085 229.008,467.73 247.561,471.058 	"/>
</g>
<g>
	<path fill="none" stroke="#FFFFFF" stroke-miterlimit="10" d="M658.957,266.27l-7.107-18.392
		c-3.974-10.286,1.133-21.828,11.42-25.803l111.905-43.245l58.772,152.082l-111.906,43.246
		c-10.286,3.976-15.394,15.517-11.418,25.803l-40.482-104.755"/>
	
		<line fill="none" stroke="#FFFFFF" stroke-linecap="round" stroke-linejoin="round" stroke-miterlimit="10" x1="775.681" y1="396.211" x2="848.331" y2="368.135"/>
	<path fill="none" stroke="#FFFFFF" stroke-linecap="round" stroke-linejoin="round" stroke-miterlimit="10" d="M710.623,399.961
		c3.975,10.286,15.516,15.394,25.804,11.419l5.905-2.283"/>
	<path fill="none" stroke="#FFFFFF" stroke-linecap="round" stroke-linejoin="round" stroke-miterlimit="10" d="M848.331,368.135
		c-14.263-6.311-20.697-22.96-14.386-37.222"/>
	<polygon fill="none" stroke="#FFFFFF" stroke-linecap="round" stroke-linejoin="round" stroke-miterlimit="10" points="
		778.365,426.812 766.102,422.464 760.785,433.605 742.344,385.887 759.925,379.091 	"/>
</g>
<g>
	
		<rect x="322.21" y="438.573" transform="matrix(0.7071 -0.7071 0.7071 0.7071 -205.3483 404.637)" fill="none" stroke="#FFFFFF" stroke-miterlimit="10" width="127.126" height="23.254"/>
	<line fill="none" stroke="#FFFFFF" stroke-miterlimit="10" x1="339.82" y1="479.708" x2="348.042" y2="487.931"/>
	<line fill="none" stroke="#FFFFFF" stroke-miterlimit="10" x1="347.403" y1="472.126" x2="352.176" y2="476.898"/>
	<line fill="none" stroke="#FFFFFF" stroke-miterlimit="10" x1="354.987" y1="464.542" x2="363.209" y2="472.765"/>
	<line fill="none" stroke="#FFFFFF" stroke-miterlimit="10" x1="362.57" y1="456.958" x2="367.342" y2="461.732"/>
	<line fill="none" stroke="#FFFFFF" stroke-miterlimit="10" x1="370.153" y1="449.376" x2="378.375" y2="457.597"/>
	<line fill="none" stroke="#FFFFFF" stroke-miterlimit="10" x1="377.736" y1="441.792" x2="382.508" y2="446.564"/>
	<line fill="none" stroke="#FFFFFF" stroke-miterlimit="10" x1="385.32" y1="434.21" x2="393.542" y2="442.431"/>
	<line fill="none" stroke="#FFFFFF" stroke-miterlimit="10" x1="392.903" y1="426.626" x2="397.675" y2="431.398"/>
	<line fill="none" stroke="#FFFFFF" stroke-miterlimit="10" x1="400.487" y1="419.042" x2="408.709" y2="427.265"/>
	<line fill="none" stroke="#FFFFFF" stroke-miterlimit="10" x1="408.069" y1="411.46" x2="412.842" y2="416.232"/>
	<line fill="none" stroke="#FFFFFF" stroke-miterlimit="10" x1="415.653" y1="403.876" x2="423.875" y2="412.099"/>
</g>
<g>
	
		<rect x="891.644" y="299.532" transform="matrix(0.7071 0.7071 -0.7071 0.7071 499.8018 -584.2996)" fill="none" stroke="#FFFFFF" stroke-miterlimit="10" width="127.127" height="23.254"/>
	<line fill="none" stroke="#FFFFFF" stroke-miterlimit="10" x1="925.698" y1="265.207" x2="917.476" y2="273.428"/>
	<line fill="none" stroke="#FFFFFF" stroke-miterlimit="10" x1="933.281" y1="272.79" x2="928.51" y2="277.562"/>
	<line fill="none" stroke="#FFFFFF" stroke-miterlimit="10" x1="940.864" y1="280.374" x2="932.643" y2="288.595"/>
	<line fill="none" stroke="#FFFFFF" stroke-miterlimit="10" x1="948.448" y1="287.957" x2="943.676" y2="292.728"/>
	<line fill="none" stroke="#FFFFFF" stroke-miterlimit="10" x1="956.03" y1="295.54" x2="947.81" y2="303.761"/>
	<line fill="none" stroke="#FFFFFF" stroke-miterlimit="10" x1="963.614" y1="303.123" x2="958.843" y2="307.894"/>
	<line fill="none" stroke="#FFFFFF" stroke-miterlimit="10" x1="971.197" y1="310.707" x2="962.976" y2="318.928"/>
	<line fill="none" stroke="#FFFFFF" stroke-miterlimit="10" x1="978.78" y1="318.29" x2="974.009" y2="323.061"/>
	<line fill="none" stroke="#FFFFFF" stroke-miterlimit="10" x1="986.364" y1="325.874" x2="978.143" y2="334.095"/>
	<line fill="none" stroke="#FFFFFF" stroke-miterlimit="10" x1="993.947" y1="333.456" x2="989.176" y2="338.228"/>
	<line fill="none" stroke="#FFFFFF" stroke-miterlimit="10" x1="1001.53" y1="341.04" x2="993.309" y2="349.261"/>
</g>
<g>
	<polygon fill="none" stroke="#FFFFFF" stroke-miterlimit="10" points="368.91,431.308 373.385,426.835 369.501,418.474 
		360.552,427.423 	"/>
	<polyline fill="none" stroke="#FFFFFF" stroke-miterlimit="10" points="360.552,427.423 293.56,360.433 302.51,351.483 
		369.501,418.474 	"/>
	<polyline fill="none" stroke="#FFFFFF" stroke-miterlimit="10" points="360.552,427.423 377.271,435.193 369.501,418.474 	"/>
	<line fill="none" stroke="#FFFFFF" stroke-miterlimit="10" x1="373.385" y1="426.835" x2="368.91" y2="431.308"/>
	<g>
		<polyline fill="none" stroke="#FFFFFF" stroke-miterlimit="10" points="369.817,418.791 367.695,419.648 366.838,421.771 
			364.717,422.626 363.857,424.751 361.729,425.613 360.867,427.74 		"/>
	</g>
	
		<rect x="288.895" y="349.169" transform="matrix(-0.7071 0.7071 -0.7071 -0.7071 753.6866 394.1299)" fill="none" stroke="#FFFFFF" stroke-miterlimit="10" width="12.655" height="7.955"/>
	
		<rect x="283.254" y="343.529" transform="matrix(-0.7071 0.7071 -0.7071 -0.7071 740.0715 388.465)" fill="none" stroke="#FFFFFF" stroke-miterlimit="10" width="12.656" height="7.955"/>
	<line fill="none" stroke="#FFFFFF" stroke-miterlimit="10" x1="364.785" y1="422.708" x2="312.14" y2="370.065"/>
	<line fill="none" stroke="#FFFFFF" stroke-miterlimit="10" x1="308.826" y1="366.75" x2="298.496" y2="356.42"/>
</g>
<g>
	<polygon fill="none" stroke="#FFFFFF" stroke-miterlimit="10" points="835.523,416.031 840.999,419.201 848.074,413.292 
		837.119,406.953 	"/>
	<polyline fill="none" stroke="#FFFFFF" stroke-miterlimit="10" points="837.119,406.953 884.563,324.949 895.52,331.288 
		848.074,413.292 	"/>
	<polyline fill="none" stroke="#FFFFFF" stroke-miterlimit="10" points="837.119,406.953 833.926,425.111 848.074,413.292 	"/>
	<line fill="none" stroke="#FFFFFF" stroke-miterlimit="10" x1="840.999" y1="419.201" x2="835.523" y2="416.031"/>
	<g>
		<polyline fill="none" stroke="#FFFFFF" stroke-miterlimit="10" points="847.8,413.765 846.526,411.763 844.152,411.656 
			842.879,409.654 840.504,409.544 839.224,407.537 836.845,407.427 		"/>
	</g>
	
		<rect x="885.704" y="320.699" transform="matrix(-0.8656 -0.5008 0.5008 -0.8656 1501.5426 1052.436)" fill="none" stroke="#FFFFFF" stroke-miterlimit="10" width="12.655" height="7.955"/>
	
		<rect x="889.698" y="313.794" transform="matrix(-0.8656 -0.5008 0.5008 -0.8656 1512.48 1041.5303)" fill="none" stroke="#FFFFFF" stroke-miterlimit="10" width="12.656" height="7.955"/>
	<line fill="none" stroke="#FFFFFF" stroke-miterlimit="10" x1="842.768" y1="409.828" x2="880.051" y2="345.385"/>
	<line fill="none" stroke="#FFFFFF" stroke-miterlimit="10" x1="882.397" y1="341.329" x2="889.714" y2="328.683"/>
</g>
<g>
	<path fill="none" stroke="#FFFFFF" stroke-miterlimit="10" d="M1062.657,389.029c3.829-17.201,20.877-28.041,38.076-24.214
		c10.933,2.434,19.296,10.209,22.956,19.969c7.454-7.286,18.323-10.781,29.257-8.348c17.201,3.828,28.041,20.875,24.213,38.075
		c-1.901,8.545-7.066,15.52-13.891,19.906l0.004,0.008l-59.795,41.188l-36.68-62.658l0.002-0.002
		C1062.477,406.083,1060.756,397.577,1062.657,389.029z"/>
	<polyline fill="none" stroke="#FFFFFF" stroke-miterlimit="10" points="1061.867,398.195 1076.899,401.541 1085.953,390.031 
		1087.136,415.968 1100.612,384.065 1096.655,427.373 1105.729,407.957 1116.996,410.464 	"/>
	<circle fill="#FFFFFF" cx="1117.25" cy="410.521" r="2.267"/>
	<polyline fill="none" stroke="#FFFFFF" stroke-miterlimit="10" points="984.15,356.546 969.097,424.187 1079.542,448.765 
		1081.768,438.767 	"/>
	<polyline fill="none" stroke="#FFFFFF" stroke-miterlimit="10" points="1034.557,277.858 1003.216,270.882 990.137,329.646 	"/>
	<polyline fill="none" stroke="#FFFFFF" stroke-miterlimit="10" points="1099.163,364.551 1114.498,295.65 1083.155,288.674 	"/>
	<path fill="none" stroke="#FFFFFF" stroke-miterlimit="10" d="M1050.745,273.942c0.033-0.511,0.094-1.024,0.209-1.538
		c1.209-5.431,6.59-8.854,12.021-7.644c5.432,1.208,8.853,6.589,7.645,12.021c-0.114,0.515-0.279,1.005-0.464,1.48l12.481,2.778
		l-4.154,18.664l-44.372-9.875l4.154-18.664L1050.745,273.942z"/>
	<line fill="none" stroke="#FFFFFF" stroke-miterlimit="10" x1="1098.604" y1="315.024" x2="1009.392" y2="295.169"/>
	<line fill="none" stroke="#FFFFFF" stroke-miterlimit="10" x1="1095.795" y1="327.643" x2="1006.583" y2="307.789"/>
	<line fill="none" stroke="#FFFFFF" stroke-miterlimit="10" x1="1092.986" y1="340.264" x2="1003.774" y2="320.41"/>
	<line fill="none" stroke="#FFFFFF" stroke-miterlimit="10" x1="1056.489" y1="345.387" x2="1000.965" y2="333.031"/>
</g>
</svg>
