<?xml version="1.0" encoding="utf-8"?>
<!-- Generator: Adobe Illustrator 16.0.0, SVG Export Plug-In . SVG Version: 6.00 Build 0)  -->
<!DOCTYPE svg PUBLIC "-//W3C//DTD SVG 1.1//EN" "http://www.w3.org/Graphics/SVG/1.1/DTD/svg11.dtd">
<svg version="1.1" id="Capa_1" xmlns="http://www.w3.org/2000/svg" xmlns:xlink="http://www.w3.org/1999/xlink" x="0px" y="0px"
	 width="470.848px" height="195.847px" viewBox="0 0 470.848 195.847" enable-background="new 0 0 470.848 195.847"
	 xml:space="preserve">
<g>
	<path fill="none" stroke="#FFFFFF" stroke-linecap="round" stroke-linejoin="round" stroke-miterlimit="10" d="M347.834,32.792
		c0.523-7.615,0.962-11.984,0.962-11.984c-0.047-0.044-0.096-0.084-0.143-0.13l-6.758-6.758c-1.945-1.945-1.946-5.099,0-7.044
		c1.944-1.945,5.098-1.944,7.044,0l6.759,6.758c0.045,0.046,0.084,0.096,0.129,0.144c0,0,46.929-6.294,93.63,0
		c0.043-0.047,0.084-0.098,0.13-0.144l6.757-6.758c1.944-1.944,5.1-1.945,7.044,0c1.946,1.945,1.946,5.1,0,7.044l-6.757,6.758
		c-0.046,0.046-0.096,0.085-0.144,0.13c0,0,5.479,63.003,0,123.576c0.048,0.045,0.098,0.084,0.144,0.131l6.757,6.758
		c1.946,1.943,1.946,5.098,0,7.045c-1.944,1.945-5.098,1.943-7.044,0l-6.758-6.76c-0.047-0.045-0.086-0.096-0.13-0.143
		c0,0-20.093,2.695-47.068,2.793"/>
	<g>
		<g>
			
				<line fill="none" stroke="#FFFFFF" stroke-linecap="round" stroke-linejoin="round" x1="385.305" y1="42.707" x2="391.305" y2="42.707"/>
			
				<line fill="none" stroke="#FFFFFF" stroke-linecap="round" stroke-linejoin="round" stroke-dasharray="11.8365,11.8365" x1="403.142" y1="42.707" x2="444.569" y2="42.707"/>
			
				<line fill="none" stroke="#FFFFFF" stroke-linecap="round" stroke-linejoin="round" x1="450.487" y1="42.707" x2="456.487" y2="42.707"/>
		</g>
	</g>
</g>
<path fill="none" stroke="#FFFFFF" stroke-miterlimit="10" d="M299.169,123.284l-7.804,29.629c-0.058,0.029-0.116,0.057-0.172,0.088
	l-8.256,4.814c-2.378,1.385-3.181,4.436-1.796,6.813c1.387,2.377,4.436,3.178,6.813,1.793l8.256-4.813
	c0.057-0.033,0.108-0.072,0.162-0.105l90.542,23.85c0.031,0.057,0.056,0.115,0.088,0.17l4.813,8.258
	c1.387,2.375,4.436,3.18,6.813,1.793c2.376-1.385,3.181-4.436,1.794-6.811l-4.813-8.258c-0.032-0.055-0.071-0.107-0.104-0.162
	l31.461-119.437c0.056-0.031,0.114-0.056,0.172-0.089l8.254-4.814c2.378-1.385,3.181-4.435,1.796-6.812
	c-1.387-2.376-4.437-3.179-6.813-1.794l-8.257,4.813c-0.056,0.033-0.107,0.071-0.162,0.106l-90.54-23.849
	c-0.03-0.057-0.057-0.116-0.089-0.172l-4.813-8.256c-1.387-2.376-4.436-3.18-6.813-1.795c-2.376,1.386-3.18,4.436-1.794,6.812
	l4.813,8.257c0.032,0.056,0.071,0.107,0.105,0.162l-6.102,20.959"/>
<line fill="none" stroke="#FFFFFF" stroke-miterlimit="10" x1="307.574" y1="91.372" x2="297.75" y2="128.665"/>
<line fill="none" stroke="#FFFFFF" stroke-miterlimit="10" x1="317.247" y1="54.652" x2="421.386" y2="82.083"/>
<g>
	<path fill="none" stroke="#FFFFFF" stroke-miterlimit="10" d="M356.899,102.218l-4.461-3.098c-1.713,2.465-1.104,5.846,1.359,7.559
		c1.231,0.857,2.925,0.553,3.78-0.68C358.436,104.767,358.13,103.075,356.899,102.218z"/>
	<path fill="none" stroke="#FFFFFF" stroke-miterlimit="10" d="M362.706,103.749l5.406-0.496c0.277,2.988-1.92,5.631-4.91,5.906
		c-1.493,0.137-2.814-0.963-2.952-2.455C360.112,105.208,361.212,103.886,362.706,103.749z"/>
	<path fill="none" stroke="#FFFFFF" stroke-miterlimit="10" d="M354.64,110.792l-4.462-3.1c-1.713,2.465-1.105,5.848,1.36,7.561
		c1.23,0.857,2.923,0.551,3.779-0.682C356.175,113.341,355.87,111.649,354.64,110.792z"/>
	<path fill="none" stroke="#FFFFFF" stroke-miterlimit="10" d="M360.444,112.321l5.408-0.496c0.276,2.988-1.92,5.633-4.91,5.906
		c-1.495,0.139-2.815-0.961-2.953-2.453C357.851,113.782,358.95,112.462,360.444,112.321z"/>
	<path fill="none" stroke="#FFFFFF" stroke-miterlimit="10" d="M352.378,119.368l-4.46-3.102c-1.714,2.465-1.107,5.848,1.358,7.559
		c1.232,0.859,2.924,0.553,3.78-0.678C353.913,121.915,353.609,120.222,352.378,119.368z"/>
	<path fill="none" stroke="#FFFFFF" stroke-miterlimit="10" d="M358.183,120.899l5.41-0.5c0.274,2.99-1.922,5.633-4.912,5.906
		c-1.494,0.141-2.815-0.961-2.952-2.453C355.591,122.358,356.69,121.034,358.183,120.899z"/>
	<path fill="none" stroke="#FFFFFF" stroke-miterlimit="10" d="M364.033,98.833L364.033,98.833c0.585-2.221-1.169-6.912-1.169-6.912
		l-0.002-0.001c0,0-3.841,3.216-4.427,5.438l0.003,0.001c-0.135,0.448-0.164,0.931-0.062,1.415c0.325,1.566,1.86,2.57,3.426,2.242
		C362.944,100.779,363.786,99.9,364.033,98.833z"/>
	<line fill="none" stroke="#FFFFFF" stroke-miterlimit="10" x1="352.771" y1="130.86" x2="348.337" y2="147.681"/>
	<path fill="none" stroke="#FFFFFF" stroke-miterlimit="10" d="M346.472,126.063c2.879,4.941,9.205,6.609,14.145,3.73"/>
	<line fill="none" stroke="#FFFFFF" stroke-miterlimit="10" x1="352.315" y1="99.462" x2="356.726" y2="82.745"/>
	<line fill="none" stroke="#FFFFFF" stroke-miterlimit="10" x1="368.063" y1="103.616" x2="372.472" y2="86.897"/>
	<line fill="none" stroke="#FFFFFF" stroke-miterlimit="10" x1="362.791" y1="92.202" x2="367.2" y2="75.481"/>
</g>
<g>
	<path fill="none" stroke="#FFFFFF" stroke-miterlimit="10" d="M327.602,113.435L327.602,113.435
		c0-8.904-11.214-24.752-11.214-24.752h-0.006c0,0-11.215,15.848-11.215,24.752h0.008c-0.061,1.807,0.309,3.652,1.165,5.367
		c2.772,5.545,9.517,7.793,15.061,5.021C325.442,121.802,327.729,117.673,327.602,113.435z"/>
	<g>
		<path fill="none" stroke="#FFFFFF" stroke-miterlimit="10" d="M235.369,11.444h39.863c2.685,0,4.86-2.175,4.86-4.858
			c0-2.684-2.176-4.86-4.86-4.86h-39.863c-2.685,0-4.859,2.176-4.859,4.86C230.51,9.269,232.685,11.444,235.369,11.444z"/>
		<path fill="none" stroke="#FFFFFF" stroke-miterlimit="10" d="M239.669,73.215c4.09,4.152,9.777,6.727,16.068,6.727
			c8.174,0,15.331-4.348,19.287-10.857h7.491h9.998c6.601,0,11.973,5.371,11.973,11.973v10.313h23.8V80.889h-0.005
			c-0.091-19.646-16.101-35.603-35.768-35.603h-9.169h-8.581c-3.378-5.298-8.903-9.089-15.354-10.147V16.382h-8.22v18.914
			c-4.734,0.969-8.924,3.423-12.068,6.852"/>
	</g>
</g>
<path fill="none" stroke="#FFFFFF" stroke-miterlimit="10" d="M96.234,100.978c-4.315-13.804-19.002-21.497-32.806-17.183
	c-8.774,2.742-15.078,9.676-17.4,17.91c-6.597-5.446-15.728-7.557-24.501-4.815c-13.804,4.313-21.498,19-17.183,32.805
	c2.143,6.857,6.847,12.207,12.729,15.324l-0.002,0.008l51.733,29.57l25.689-53.768h-0.001
	C97.554,114.913,98.376,107.837,96.234,100.978z"/>
<polyline class="hearth" fill="none" stroke="#FFFFFF" stroke-linecap="round" stroke-linejoin="round" stroke-miterlimit="10" points="
	7.651,136.501 19.714,132.731 21.447,120.839 32.9,138.808 29.436,110.597 44.339,143.028 42.852,125.501 51.894,122.675 "/>
<circle class="hearth-point" fill="#FFFFFF" cx="51.894" cy="122.675" r="1.755"/>
<line fill="none" stroke="#FFFFFF" stroke-linecap="round" stroke-linejoin="round" stroke-miterlimit="10" x1="125.863" y1="141.173" x2="80.988" y2="155.196"/>
<polyline fill="none" stroke="#FFFFFF" stroke-linecap="round" stroke-linejoin="round" stroke-miterlimit="10" points="
	95.232,31.247 117.489,24.292 136.131,83.946 "/>
<polyline fill="none" stroke="#FFFFFF" stroke-linecap="round" stroke-linejoin="round" stroke-miterlimit="10" points="
	50.781,88.399 38.464,48.988 60.72,42.032 "/>
<path fill="none" stroke="#FFFFFF" stroke-linecap="round" stroke-linejoin="round" stroke-miterlimit="10" d="M83.278,29.398
	c-0.055-0.367-0.13-0.735-0.244-1.101c-1.205-3.855-5.309-6.005-9.164-4.8c-3.857,1.206-6.006,5.309-4.801,9.165
	c0.114,0.366,0.263,0.71,0.426,1.043l-8.863,2.77l4.143,13.254l31.509-9.847l-4.142-13.255L83.278,29.398z"/>
<line class="text-1" fill="none" stroke="#FFFFFF" stroke-linejoin="round" stroke-miterlimit="10" x1="51.145" y1="62.042" x2="114.498" y2="42.243"/>
<line class="text-2" fill="none" stroke="#FFFFFF" stroke-linejoin="round" stroke-miterlimit="10" x1="53.945" y1="71.004" x2="117.298" y2="51.206"/>
<line class="text-3" fill="none" stroke="#FFFFFF" stroke-linejoin="round" stroke-miterlimit="10" x1="56.746" y1="79.966" x2="120.099" y2="60.167"/>
<line class="text-4" fill="none" stroke="#FFFFFF" stroke-linejoin="round" stroke-miterlimit="10" x1="79.81" y1="82.596" x2="98.976" y2="76.606"/>
<g>
	<path fill="none" stroke="#FFFFFF" stroke-miterlimit="10" d="M231.605,118.14l-7.137,39.777l-84.403-15.145
		c-7.759-1.391-15.164,3.762-16.556,11.52l20.582-114.707c1.393-7.757,8.797-12.91,16.555-11.518l84.404,15.145l-11.497,64.08"/>
	
		<line fill="none" stroke="#FFFFFF" stroke-linecap="round" stroke-linejoin="round" stroke-miterlimit="10" x1="164.635" y1="176.161" x2="219.431" y2="185.993"/>
	<path fill="none" stroke="#FFFFFF" stroke-linecap="round" stroke-linejoin="round" stroke-miterlimit="10" d="M123.51,154.292
		c-1.393,7.758,3.76,15.164,11.519,16.557l4.455,0.799"/>
	<path fill="none" stroke="#FFFFFF" stroke-linecap="round" stroke-linejoin="round" stroke-miterlimit="10" d="M219.431,185.993
		c-6.367-9.152-4.114-21.709,5.037-28.076"/>
	<polygon fill="none" stroke="#FFFFFF" stroke-linecap="round" stroke-linejoin="round" stroke-miterlimit="10" points="
		154.911,195.847 149.036,188.636 141.651,193.466 148.109,157.476 161.37,159.854 	"/>
</g>
<g>
	
		<rect x="214.728" y="136.635" transform="matrix(0.7071 -0.7071 0.7071 0.7071 -26.2934 226.412)" fill="none" stroke="#FFFFFF" stroke-miterlimit="10" width="90.864" height="16.621"/>
	<line fill="none" stroke="#FFFFFF" stroke-miterlimit="10" x1="227.314" y1="166.036" x2="233.19" y2="171.915"/>
	<line fill="none" stroke="#FFFFFF" stroke-miterlimit="10" x1="232.733" y1="160.616" x2="236.146" y2="164.028"/>
	<line fill="none" stroke="#FFFFFF" stroke-miterlimit="10" x1="238.154" y1="155.196" x2="244.032" y2="161.073"/>
	<line fill="none" stroke="#FFFFFF" stroke-miterlimit="10" x1="243.575" y1="149.776" x2="246.985" y2="153.187"/>
	<line fill="none" stroke="#FFFFFF" stroke-miterlimit="10" x1="248.995" y1="144.356" x2="254.872" y2="150.233"/>
	<line fill="none" stroke="#FFFFFF" stroke-miterlimit="10" x1="254.415" y1="138.937" x2="257.825" y2="142.347"/>
	<line fill="none" stroke="#FFFFFF" stroke-miterlimit="10" x1="259.836" y1="133.517" x2="265.712" y2="139.394"/>
	<line fill="none" stroke="#FFFFFF" stroke-miterlimit="10" x1="265.255" y1="128.097" x2="268.665" y2="131.507"/>
	<line fill="none" stroke="#FFFFFF" stroke-miterlimit="10" x1="270.676" y1="122.675" x2="276.554" y2="128.552"/>
	<line fill="none" stroke="#FFFFFF" stroke-miterlimit="10" x1="276.095" y1="117.255" x2="279.507" y2="120.665"/>
	<line fill="none" stroke="#FFFFFF" stroke-miterlimit="10" x1="281.517" y1="111.835" x2="287.394" y2="117.712"/>
</g>
<g>
	<polygon fill="none" stroke="#FFFFFF" stroke-miterlimit="10" points="248.106,131.442 251.305,128.245 248.528,122.269 
		242.132,128.665 	"/>
	<polyline fill="none" stroke="#FFFFFF" stroke-miterlimit="10" points="242.132,128.665 194.248,80.783 200.646,74.386 
		248.528,122.269 	"/>
	<polyline fill="none" stroke="#FFFFFF" stroke-miterlimit="10" points="242.132,128.665 254.083,134.22 248.528,122.269 	"/>
	<line fill="none" stroke="#FFFFFF" stroke-miterlimit="10" x1="251.305" y1="128.245" x2="248.106" y2="131.442"/>
	<g>
		<polyline fill="none" stroke="#FFFFFF" stroke-miterlimit="10" points="248.755,122.495 247.237,123.106 246.63,124.62 
			245.112,125.231 244.498,126.753 242.976,127.368 242.358,128.892 		"/>
	</g>
	
		<rect x="190.915" y="72.732" transform="matrix(-0.7072 0.7071 -0.7071 -0.7072 387.0781 -9.1663)" fill="none" stroke="#FFFFFF" stroke-miterlimit="10" width="9.045" height="5.686"/>
	
		<rect x="186.882" y="68.701" transform="matrix(-0.7071 0.7071 -0.7071 -0.7071 377.3418 -13.2047)" fill="none" stroke="#FFFFFF" stroke-miterlimit="10" width="9.046" height="5.686"/>
	<line fill="none" stroke="#FFFFFF" stroke-miterlimit="10" x1="245.158" y1="125.296" x2="207.528" y2="87.667"/>
	<line fill="none" stroke="#FFFFFF" stroke-miterlimit="10" x1="205.161" y1="85.298" x2="197.777" y2="77.915"/>
</g>
</svg>
