<?xml version="1.0" encoding="utf-8"?>
<!-- Generator: Adobe Illustrator 16.0.0, SVG Export Plug-In . SVG Version: 6.00 Build 0)  -->
<!DOCTYPE svg PUBLIC "-//W3C//DTD SVG 1.1//EN" "http://www.w3.org/Graphics/SVG/1.1/DTD/svg11.dtd">
<svg version="1.1" id="Capa_1" xmlns="http://www.w3.org/2000/svg" xmlns:xlink="http://www.w3.org/1999/xlink" x="0px" y="0px"
	 width="438.414px" height="204.28px" viewBox="201.738 94 438.414 204.28" enable-background="new 201.738 94 438.414 204.28"
	 xml:space="preserve">
<g>
	<path fill="none" stroke="#FFFFFF" stroke-miterlimit="10" d="M597.953,209.263c-11.459-5.783-25.324-9.813-42.262-9.813
		c-9.328,0-17.615,1.1-25.094,3.054"/>
</g>
<g>
	<path fill="none" stroke="#FFFFFF" stroke-miterlimit="10" d="M427.744,190.518c-17.452-11.366-38.429-19.011-66.649-19.011
		c-44.481,0-70.973,18.986-94.025,41.601"/>
	<path fill="none" stroke="#FFFFFF" stroke-miterlimit="10" d="M451.113,209.271c-4.787-4.517-9.754-8.846-15.02-12.855"/>
</g>
<g>
	<polyline fill="none" stroke="#FFFFFF" stroke-miterlimit="10" points="456.402,212.875 456.402,197.059 451.113,197.059 
		451.113,218.634 	"/>
	<path fill="none" stroke="#FFFFFF" stroke-miterlimit="10" d="M482.779,195.333c-0.652-3.599-3.801-6.326-7.586-6.326h-13.234
		l1.104-1.085l-2.922-1.429l4.338,0.041l2.473-2.428l-2.924-1.427l4.336,0.041l2.459-2.413l-0.197-0.203
		c-2.447-2.492-6.453-2.529-8.945-0.082l-7.922,7.775l-7.92-7.775c-2.494-2.447-6.498-2.411-8.945,0.082l-0.199,0.203l2.459,2.413
		l4.336-0.041l-2.922,1.427l2.473,2.428l4.336-0.041l-2.922,1.429l1.104,1.085h-13.234c-4.258,0-7.709,3.451-7.709,7.708v0.344
		h4.197l3.736-3.738l-1.322,3.738h4.225l3.736-3.738l-1.324,3.738h15.896h14.904l-1.322-3.738l3.736,3.738h5.852l-1.322-3.738
		l3.629,3.629"/>
</g>
<path class="cloud-2" fill="none" stroke="#FFFFFF" stroke-miterlimit="10" d="M366.473,122.618c-1.507-4.623-5.717-8.022-10.767-8.335
	c0-0.007,0-0.016,0-0.024c0-10.084-8.174-18.258-18.258-18.258c-8.816,0-16.173,6.248-17.882,14.561
	c-0.479-0.064-0.964-0.1-1.46-0.1c-6.03,0-10.925,4.839-11.022,10.846h-0.004v4.7h48.558h11.425h9.391
	C373.644,123.951,370.201,122.707,366.473,122.618z"/>
<path class="cloud-3" fill="none" stroke="#FFFFFF" stroke-miterlimit="10" d="M527.406,138.123c0.975-2.988,3.697-5.185,6.959-5.388
	c0-0.005,0-0.01,0-0.015c0-6.518,5.285-11.802,11.803-11.802c5.699,0,10.453,4.038,11.559,9.412
	c0.309-0.042,0.623-0.066,0.943-0.066c3.898,0,7.061,3.128,7.125,7.012h0.002v3.037H534.41h-7.385h-6.068
	C522.773,138.985,524.998,138.18,527.406,138.123z"/>
<g>
	<rect x="212.583" y="236.289" fill="none" stroke="#FFFFFF" stroke-miterlimit="10" width="78.393" height="51.25"/>
	<path fill="none" stroke="#FFFFFF" stroke-miterlimit="10" d="M253.775,208.536v-4.102h-3.919v4.087
		c-6.469,1.471-27.808,7.683-41.425,27.768h43.35h43.349C281.56,216.274,260.325,210.038,253.775,208.536z"/>
	<rect x="243.087" y="260.193" fill="none" stroke="#FFFFFF" stroke-miterlimit="10" width="17.386" height="27.346"/>
	<g>
		<path fill="none" stroke="#FFFFFF" stroke-miterlimit="10" d="M231.787,259.555c0-2.383-1.932-4.314-4.314-4.314
			c-2.382,0-4.314,1.932-4.314,4.314v9.03h8.629V259.555z"/>
	</g>
	<g>
		<path fill="none" stroke="#FFFFFF" stroke-miterlimit="10" d="M279.795,259.555c0-2.383-1.932-4.314-4.314-4.314
			s-4.314,1.932-4.314,4.314v9.03h8.628V259.555z"/>
	</g>
	<line fill="none" stroke="#FFFFFF" stroke-miterlimit="10" x1="208.431" y1="236.289" x2="208.431" y2="240.037"/>
	<line fill="none" stroke="#FFFFFF" stroke-miterlimit="10" x1="217.101" y1="236.289" x2="217.101" y2="240.037"/>
	<line fill="none" stroke="#FFFFFF" stroke-miterlimit="10" x1="225.771" y1="236.289" x2="225.771" y2="240.037"/>
	<line fill="none" stroke="#FFFFFF" stroke-miterlimit="10" x1="234.441" y1="236.289" x2="234.441" y2="240.037"/>
	<line fill="none" stroke="#FFFFFF" stroke-miterlimit="10" x1="243.11" y1="236.289" x2="243.11" y2="240.037"/>
	<line fill="none" stroke="#FFFFFF" stroke-miterlimit="10" x1="251.78" y1="236.289" x2="251.78" y2="240.037"/>
	<line fill="none" stroke="#FFFFFF" stroke-miterlimit="10" x1="260.45" y1="236.289" x2="260.45" y2="240.037"/>
	<line fill="none" stroke="#FFFFFF" stroke-miterlimit="10" x1="269.12" y1="236.289" x2="269.12" y2="240.037"/>
	<line fill="none" stroke="#FFFFFF" stroke-miterlimit="10" x1="277.79" y1="236.289" x2="277.79" y2="240.037"/>
	<line fill="none" stroke="#FFFFFF" stroke-miterlimit="10" x1="286.459" y1="236.289" x2="286.459" y2="240.037"/>
	<line fill="none" stroke="#FFFFFF" stroke-miterlimit="10" x1="295.129" y1="236.289" x2="295.129" y2="240.037"/>
</g>
<g>
	<rect x="561.724" y="236.289" fill="none" stroke="#FFFFFF" stroke-miterlimit="10" width="78.395" height="51.25"/>
	<rect x="592.228" y="260.193" fill="none" stroke="#FFFFFF" stroke-miterlimit="10" width="17.387" height="27.346"/>
	<g>
		<path fill="none" stroke="#FFFFFF" stroke-miterlimit="10" d="M580.927,259.555c0-2.383-1.932-4.314-4.314-4.314
			s-4.314,1.932-4.314,4.314v9.03h8.629V259.555z"/>
	</g>
	<g>
		<path fill="none" stroke="#FFFFFF" stroke-miterlimit="10" d="M628.935,259.555c0-2.383-1.93-4.314-4.313-4.314
			s-4.316,1.932-4.316,4.314v9.03h8.629V259.555z"/>
	</g>
</g>
<g>
	<polyline fill="none" stroke="#FFFFFF" stroke-miterlimit="10" points="451.775,225.329 451.775,224.55 548.177,224.55 
		548.177,287.572 451.775,287.572 	"/>
	<path fill="none" stroke="#FFFFFF" stroke-miterlimit="10" d="M450.591,224.55h49.385h53.307
		c-16.686-24.612-42.799-32.282-50.854-34.126v-5.043h-4.818v5.024c-7.764,1.766-32.934,9.08-49.707,32.378"/>
	<rect x="489.287" y="253.944" fill="none" stroke="#FFFFFF" stroke-miterlimit="10" width="21.381" height="33.628"/>
	<g>
		<path fill="none" stroke="#FFFFFF" stroke-miterlimit="10" d="M475.39,253.161c0-2.931-2.375-5.305-5.305-5.305
			c-2.932,0-5.307,2.374-5.307,5.305v11.106h10.611V253.161z"/>
	</g>
	<g>
		<path fill="none" stroke="#FFFFFF" stroke-miterlimit="10" d="M534.425,253.161c0-2.931-2.375-5.305-5.303-5.305
			c-2.932,0-5.307,2.374-5.307,5.305v11.106h10.609V253.161z"/>
	</g>
	<line fill="none" stroke="#FFFFFF" stroke-miterlimit="10" x1="457.33" y1="224.55" x2="457.33" y2="229.159"/>
	<line fill="none" stroke="#FFFFFF" stroke-miterlimit="10" x1="467.992" y1="224.55" x2="467.992" y2="229.159"/>
	<line fill="none" stroke="#FFFFFF" stroke-miterlimit="10" x1="478.654" y1="224.55" x2="478.654" y2="229.159"/>
	<line fill="none" stroke="#FFFFFF" stroke-miterlimit="10" x1="489.316" y1="224.55" x2="489.316" y2="229.159"/>
	<line fill="none" stroke="#FFFFFF" stroke-miterlimit="10" x1="499.976" y1="224.55" x2="499.976" y2="229.159"/>
	<line fill="none" stroke="#FFFFFF" stroke-miterlimit="10" x1="510.638" y1="224.55" x2="510.638" y2="229.159"/>
	<line fill="none" stroke="#FFFFFF" stroke-miterlimit="10" x1="521.298" y1="224.55" x2="521.298" y2="229.159"/>
	<line fill="none" stroke="#FFFFFF" stroke-miterlimit="10" x1="531.962" y1="224.55" x2="531.962" y2="229.159"/>
	<line fill="none" stroke="#FFFFFF" stroke-miterlimit="10" x1="542.621" y1="224.55" x2="542.621" y2="229.159"/>
	<line fill="none" stroke="#FFFFFF" stroke-miterlimit="10" x1="553.283" y1="224.55" x2="553.283" y2="229.159"/>
</g>
<g>
	<line fill="none" stroke="#FFFFFF" stroke-miterlimit="10" x1="346.849" y1="224.028" x2="345.449" y2="224.948"/>
	<polyline fill="none" stroke="#FFFFFF" stroke-miterlimit="10" points="345.231,225.091 328.216,236.289 398.322,236.289 
		468.429,236.289 420.022,204.434 398.322,204.434 376.622,204.434 350.741,221.466 	"/>
	<rect x="335.449" y="236.289" fill="none" stroke="#FFFFFF" stroke-miterlimit="10" width="125.748" height="51.25"/>
	<g>
		<path fill="none" stroke="#FFFFFF" stroke-miterlimit="10" d="M407.086,269.032c0-4.882-3.959-8.839-8.841-8.839
			c-4.881,0-8.839,3.957-8.839,8.839v18.507h17.681V269.032z"/>
	</g>
	<rect x="358.725" y="251.001" fill="none" stroke="#FFFFFF" stroke-miterlimit="10" width="13.307" height="16.691"/>
	<rect x="425.703" y="251.001" fill="none" stroke="#FFFFFF" stroke-miterlimit="10" width="13.307" height="16.691"/>
</g>
<g>
	<path fill="none" stroke="#FFFFFF" stroke-miterlimit="10" d="M326.076,284.936h-1.103v-59.845h-5.29v59.845h-1.102
		c-1.438,0-2.602,1.164-2.602,2.603h3.704h5.29h3.704C328.678,286.1,327.513,284.936,326.076,284.936z"/>
	<path fill="none" stroke="#FFFFFF" stroke-miterlimit="10" d="M343.765,217.04H330.53l1.105-1.085l-2.922-1.427l4.335,0.038
		l2.473-2.428l-2.922-1.427l4.335,0.04l2.458-2.413l-0.197-0.202c-2.448-2.491-6.453-2.528-8.945-0.081l-7.921,7.776l-7.921-7.776
		c-2.494-2.447-6.498-2.41-8.945,0.081l-0.197,0.202l2.457,2.413l4.336-0.04l-2.923,1.427l2.474,2.428l4.335-0.038l-2.922,1.427
		l1.105,1.085h-13.236c-4.257,0-7.708,3.452-7.708,7.708v0.344h4.197l3.737-3.737l-1.323,3.737h4.225l3.736-3.737l-1.323,3.737
		h15.896h14.905l-1.323-3.737l3.736,3.737h5.852l-1.323-3.737l3.736,3.737h3.561v-0.344
		C351.474,220.492,348.022,217.04,343.765,217.04z"/>
</g>
<g>
	<path fill="#FFFFFF" d="M204.454,272.638c1.047,0.368,1.261,1.872,1.268,2.125c0.024,0.343-0.006,0.826-0.167,1.501
		c-0.433,1.816-0.853,4.876-0.853,4.876s-0.049,0.426-0.445,0.257c-0.187-0.08-0.401-0.255-0.425-0.569
		c-0.023-0.314-0.792-6.307-0.57-7.417C203.262,273.411,203.407,272.267,204.454,272.638z"/>
	<path fill="#FFFFFF" d="M204.004,280.432c0,0,0.101,5.528,0.123,5.92c0.021,0.395-0.14,0.534-0.14,0.534l-1.206,0.478l-0.005,0.175
		h1.425l0.451-0.188c-0.033-0.161-0.177-0.481-0.19-0.825c-0.013-0.344,0.443-2.19,0.555-3.722c0.112-1.527-0.588-2.385-0.588-2.385
		s-0.095-0.153-0.235-0.162C204.054,280.249,204.003,280.369,204.004,280.432z"/>
	<path fill="#FFFFFF" d="M204.381,272.312c1.062,0.326,1.339,1.818,1.357,2.07c0.039,0.343,0.028,0.826-0.104,1.507
		c-0.355,1.834-0.645,4.909-0.645,4.909s-0.031,0.427-0.434,0.273c-0.19-0.071-0.411-0.237-0.449-0.55
		c-0.037-0.314-1.059-6.268-0.885-7.387C203.223,273.135,203.319,271.987,204.381,272.312z"/>
	<path fill="#FFFFFF" d="M204.196,280.465c0,0,0.502,5.504,0.553,5.896c0.05,0.391-0.1,0.541-0.1,0.541l-1.229,0.461l0.006,0.175
		h1.484l0.466-0.126c-0.044-0.159-0.243-0.562-0.279-0.904c-0.038-0.343,0.282-2.217,0.282-3.75s-0.76-2.34-0.76-2.34
		s-0.105-0.143-0.246-0.143C204.233,280.28,204.19,280.402,204.196,280.465z"/>
	<path fill="#FFFFFF" d="M203.802,271.665c0.337-0.413,1.167-3.03,1.258-3.228c0.09-0.195,0.12-0.672-0.158-0.729
		c-0.276-0.058-0.425,0.209-0.425,0.209s-0.272,0.638-0.634,2.033c-0.249,0.963-0.448,1.372-0.575,1.652
		c0,0-0.075,0.187,0.186,0.235C203.669,271.875,203.802,271.665,203.802,271.665z"/>
	<path fill="#FFFFFF" d="M203.802,271.665c0,0,0.028,0.61-0.567,1.665c-0.595,1.053-0.859,1.669-0.859,1.669
		s0.169,0.581,0.089,0.818c-0.081,0.239-0.265,0.41-0.265,0.41l0.014-0.415c0,0-0.319,0.363-0.206,0.75l0.031,0.154l-0.111,0.024
		c0,0-0.155-0.173-0.188-0.399c-0.035-0.229,0.373-1.403,0.373-1.403c0.132-0.206,0.943-2.644,1.027-3
		c0.027-0.109,0.07-0.209,0.127-0.336c0,0,0.09-0.229,0.308-0.189C203.792,271.451,203.802,271.665,203.802,271.665z"/>
	<path fill="#FFFFFF" d="M204.452,267.241c0,0-0.03-0.362,0.045-0.809c0.083-0.486,0.608-0.209,0.608-0.209l0.066,0.861
		c0.034,0.464-0.461,0.585-0.643,0.486C204.347,267.473,204.452,267.241,204.452,267.241z"/>
	<path fill="#FFFFFF" d="M203.072,273.55c0,0-0.268-1.598,0-3.436c0,0-0.223-0.489-0.083-0.803c0.141-0.316,1.376-1.74,1.462-2.071
		l0.718-0.156c0,0,0.207,1.014,0.167,2.204c-0.046,1.373,0.135,2.553,0.122,2.863c-0.011,0.239,0.079,1.398,0.079,1.398H203.072z"/>
	<path fill="#FFFFFF" d="M205.537,273.55c0,0,0.379,1.227,0.298,2.925c-0.079,1.698,0.624,8.357,1.299,9.806
		c0.674,1.448-3.372,0.4-4.496,0s0.492-9.77,0.433-12.73H205.537z"/>
	<path fill="#FFFFFF" d="M203.659,264.692c0.002-0.032,0.003-0.052,0.003-0.052h0.002c0.001-0.008,0.003-0.017,0.004-0.023
		c0.112-0.771,0.707-1.32,1.33-1.229c0.622,0.091,1.035,0.788,0.923,1.559c-0.001,0.008-0.002,0.016-0.004,0.023l0,0
		c0,0,0,0.001-0.001,0.006c-0.018,0.111-0.046,0.219-0.084,0.321c-0.161,0.525-0.561,1.488-1.313,1.379h-0.003
		c-0.771-0.113-0.866-1.199-0.864-1.737C203.648,264.859,203.65,264.776,203.659,264.692z"/>
	<path fill="#FFFFFF" d="M203.669,264.617c0,0-0.104,0.517-0.179,0.597c-0.075,0.081,0.184,0.17,0.184,0.17l0.115-0.026
		L203.669,264.617z"/>
	<path fill="#FFFFFF" d="M204.082,271.73c0.265-0.46,0.653-3.182,0.709-3.39c0.056-0.207,0.007-0.683-0.276-0.694
		c-0.282-0.01-0.385,0.277-0.385,0.277s-0.163,0.672-0.29,2.109c-0.088,0.989-0.216,1.427-0.295,1.724c0,0-0.043,0.198,0.222,0.203
		C203.985,271.96,204.082,271.73,204.082,271.73z"/>
	<path fill="#FFFFFF" d="M204.082,271.607c0,0,0.021,0.612-0.588,1.659s-0.881,1.657-0.881,1.657s0.162,0.584,0.078,0.82
		c-0.083,0.238-0.27,0.405-0.27,0.405l0.019-0.413c0,0-0.323,0.359-0.215,0.748l0.03,0.155l-0.111,0.022
		c0,0-0.152-0.176-0.184-0.402c-0.032-0.229,0.391-1.398,0.391-1.398c0.135-0.204,0.977-2.633,1.067-2.986
		c0.027-0.109,0.072-0.21,0.13-0.336c0,0,0.094-0.226,0.311-0.186C204.075,271.395,204.082,271.607,204.082,271.607z"/>
	<g>
		<path fill="#FFFFFF" d="M204.667,265.363c0-0.2,0.164-0.363,0.364-0.363c0.2,0,0.363,0.163,0.363,0.363s-0.163,0.363-0.363,0.363
			C204.831,265.726,204.667,265.563,204.667,265.363z M204.707,265.363c0,0.178,0.146,0.323,0.324,0.323
			c0.177,0,0.323-0.146,0.323-0.323s-0.146-0.324-0.323-0.324C204.853,265.039,204.707,265.185,204.707,265.363z"/>
	</g>
	<path fill="#FFFFFF" d="M205.148,265.119c0.04-0.359-0.167-0.308-0.42-0.479c-0.252-0.172-0.122-0.474-0.212-0.662
		c-0.09-0.188-0.649,0.086-0.679,0.016c-0.03-0.068,0.1-0.258,0.1-0.258s0.632-0.796,1.44-0.39c0.951,0.476,0.796,1.564,0.796,1.564
		s-0.408,1.708-0.813,1.244C205.107,265.865,205.148,265.119,205.148,265.119z"/>
	
		<ellipse transform="matrix(0.9726 -0.2326 0.2326 0.9726 -55.7781 55.1719)" fill="#FFFFFF" cx="206.02" cy="264.065" rx="0.5" ry="0.655"/>
	<path fill="#FFFFFF" d="M205.361,263.227c0,0,0.674-0.088,0.933,0.19c0.258,0.276,0.391,0.827,0.095,1.139
		C206.094,264.869,205.361,263.227,205.361,263.227z"/>
	<path fill="#FFFFFF" d="M204.533,263.27c0,0,0.316-0.172,0.753-0.104c0.438,0.066,1.115,1.307,1.141,1.39
		c0.025,0.084-0.051,0.462-0.121,0.525C206.235,265.142,204.533,263.27,204.533,263.27z"/>
	<path fill="#FFFFFF" d="M206.356,265.072c-0.029,0.246-0.416,0.729-0.416,0.729c-1.024-0.503-1.917-2.158-1.917-2.158
		s0.218-0.314,0.46-0.411C204.725,263.132,206.31,264.972,206.356,265.072z"/>
</g>
<g>
	<path fill="#FFFFFF" d="M379.457,272.638c1.047,0.368,1.261,1.872,1.269,2.125c0.024,0.343-0.007,0.826-0.167,1.501
		c-0.433,1.816-0.853,4.876-0.853,4.876s-0.048,0.426-0.445,0.257c-0.187-0.08-0.4-0.255-0.425-0.569
		c-0.024-0.314-0.792-6.307-0.57-7.417C378.266,273.411,378.409,272.267,379.457,272.638z"/>
	<path fill="#FFFFFF" d="M379.007,280.432c0,0,0.101,5.528,0.123,5.92c0.021,0.395-0.139,0.534-0.139,0.534l-1.207,0.478
		l-0.006,0.175h1.426l0.451-0.188c-0.034-0.161-0.178-0.481-0.191-0.825c-0.012-0.344,0.443-2.19,0.555-3.722
		c0.111-1.527-0.588-2.385-0.588-2.385s-0.094-0.153-0.235-0.162C379.056,280.249,379.005,280.369,379.007,280.432z"/>
	<path fill="#FFFFFF" d="M379.384,272.312c1.061,0.326,1.34,1.818,1.357,2.07c0.039,0.343,0.028,0.826-0.103,1.507
		c-0.356,1.834-0.645,4.909-0.645,4.909s-0.031,0.427-0.434,0.273c-0.19-0.071-0.412-0.237-0.449-0.55
		c-0.037-0.314-1.059-6.268-0.885-7.387C378.226,273.135,378.322,271.987,379.384,272.312z"/>
	<path fill="#FFFFFF" d="M379.198,280.465c0,0,0.503,5.504,0.553,5.896c0.05,0.391-0.099,0.541-0.099,0.541l-1.23,0.461l0.007,0.175
		h1.483l0.466-0.126c-0.044-0.159-0.242-0.562-0.28-0.904c-0.037-0.343,0.283-2.217,0.283-3.75s-0.761-2.34-0.761-2.34
		s-0.104-0.143-0.246-0.143C379.235,280.28,379.193,280.402,379.198,280.465z"/>
	<path fill="#FFFFFF" d="M378.805,271.665c0.337-0.413,1.167-3.03,1.257-3.228c0.091-0.195,0.119-0.672-0.157-0.729
		s-0.426,0.209-0.426,0.209s-0.271,0.638-0.633,2.033c-0.25,0.963-0.448,1.372-0.576,1.652c0,0-0.076,0.187,0.186,0.235
		C378.671,271.875,378.805,271.665,378.805,271.665z"/>
	<path fill="#FFFFFF" d="M378.805,271.665c0,0,0.028,0.61-0.567,1.665c-0.595,1.053-0.859,1.669-0.859,1.669s0.17,0.581,0.089,0.818
		c-0.081,0.239-0.265,0.41-0.265,0.41l0.015-0.415c0,0-0.32,0.363-0.207,0.75l0.032,0.154l-0.111,0.024c0,0-0.154-0.173-0.189-0.399
		c-0.035-0.229,0.373-1.403,0.373-1.403c0.133-0.206,0.944-2.644,1.028-3c0.027-0.109,0.07-0.209,0.127-0.336
		c0,0,0.091-0.229,0.308-0.189C378.795,271.451,378.805,271.665,378.805,271.665z"/>
	<path fill="#FFFFFF" d="M379.456,267.241c0,0-0.031-0.362,0.044-0.809c0.082-0.486,0.608-0.209,0.608-0.209l0.066,0.861
		c0.035,0.464-0.462,0.585-0.643,0.486C379.349,267.473,379.456,267.241,379.456,267.241z"/>
	<path fill="#FFFFFF" d="M378.074,273.55c0,0-0.267-1.598,0-3.436c0,0-0.223-0.489-0.082-0.803c0.139-0.316,1.375-1.74,1.461-2.071
		l0.718-0.156c0,0,0.207,1.014,0.167,2.204c-0.046,1.373,0.135,2.553,0.121,2.863c-0.01,0.239,0.079,1.398,0.079,1.398H378.074z"/>
	<path fill="#FFFFFF" d="M380.539,273.55c0,0,0.38,1.227,0.299,2.925c-0.079,1.698,0.625,8.357,1.299,9.806
		c0.674,1.448-3.372,0.4-4.495,0c-1.125-0.4,0.492-9.77,0.432-12.73H380.539z"/>
	<path fill="#FFFFFF" d="M378.662,264.692c0.002-0.032,0.004-0.052,0.004-0.052h0.002c0.001-0.008,0.003-0.017,0.004-0.023
		c0.112-0.771,0.708-1.32,1.33-1.229c0.621,0.091,1.036,0.788,0.924,1.559c-0.002,0.008-0.003,0.016-0.004,0.023l0,0
		c0,0,0,0.001-0.002,0.006c-0.018,0.111-0.046,0.219-0.083,0.321c-0.161,0.525-0.562,1.488-1.314,1.379h-0.003
		c-0.771-0.113-0.865-1.199-0.864-1.737C378.651,264.859,378.653,264.776,378.662,264.692z"/>
	<path fill="#FFFFFF" d="M378.671,264.617c0,0-0.104,0.517-0.179,0.597c-0.075,0.081,0.184,0.17,0.184,0.17l0.116-0.026
		L378.671,264.617z"/>
	<path fill="#FFFFFF" d="M379.085,271.73c0.265-0.46,0.652-3.182,0.709-3.39c0.057-0.207,0.007-0.683-0.276-0.694
		c-0.282-0.01-0.384,0.277-0.384,0.277s-0.164,0.672-0.291,2.109c-0.088,0.989-0.215,1.427-0.295,1.724c0,0-0.043,0.198,0.223,0.203
		C378.988,271.96,379.085,271.73,379.085,271.73z"/>
	<path fill="#FFFFFF" d="M379.084,271.607c0,0,0.021,0.612-0.587,1.659c-0.609,1.047-0.88,1.657-0.88,1.657s0.161,0.584,0.077,0.82
		c-0.083,0.238-0.27,0.405-0.27,0.405l0.019-0.413c0,0-0.323,0.359-0.214,0.748l0.029,0.155l-0.111,0.022
		c0,0-0.153-0.176-0.184-0.402c-0.032-0.229,0.391-1.398,0.391-1.398c0.134-0.204,0.976-2.633,1.066-2.986
		c0.028-0.109,0.072-0.21,0.13-0.336c0,0,0.094-0.226,0.311-0.186C379.078,271.395,379.084,271.607,379.084,271.607z"/>
	<g>
		<path fill="#FFFFFF" d="M379.67,265.363c0-0.2,0.163-0.363,0.364-0.363c0.2,0,0.363,0.163,0.363,0.363s-0.163,0.363-0.363,0.363
			C379.833,265.726,379.67,265.563,379.67,265.363z M379.71,265.363c0,0.178,0.146,0.323,0.324,0.323s0.323-0.146,0.323-0.323
			s-0.145-0.324-0.323-0.324S379.71,265.185,379.71,265.363z"/>
	</g>
	<path fill="#FFFFFF" d="M380.151,265.119c0.04-0.359-0.167-0.308-0.421-0.479c-0.252-0.172-0.122-0.474-0.212-0.662
		c-0.09-0.188-0.647,0.086-0.679,0.016c-0.029-0.068,0.1-0.258,0.1-0.258s0.632-0.796,1.44-0.39
		c0.951,0.476,0.796,1.564,0.796,1.564s-0.408,1.708-0.813,1.244C380.109,265.865,380.151,265.119,380.151,265.119z"/>
	
		<ellipse transform="matrix(0.9726 -0.2325 0.2325 0.9726 -50.9577 95.8344)" fill="#FFFFFF" cx="381.023" cy="264.065" rx="0.5" ry="0.655"/>
	<path fill="#FFFFFF" d="M380.364,263.227c0,0,0.674-0.088,0.933,0.19c0.258,0.276,0.391,0.827,0.096,1.139
		C381.096,264.869,380.364,263.227,380.364,263.227z"/>
	<path fill="#FFFFFF" d="M379.536,263.27c0,0,0.316-0.172,0.753-0.104c0.438,0.066,1.115,1.307,1.141,1.39
		c0.025,0.084-0.05,0.462-0.12,0.525C381.238,265.142,379.536,263.27,379.536,263.27z"/>
	<path fill="#FFFFFF" d="M381.359,265.072c-0.03,0.246-0.416,0.729-0.416,0.729c-1.023-0.503-1.917-2.158-1.917-2.158
		s0.218-0.314,0.459-0.411C379.727,263.132,381.313,264.972,381.359,265.072z"/>
</g>
<g>
	<path fill="#FFFFFF" d="M360.538,277.969c0.229,1.234,1.871,1.736,2.151,1.789c0.379,0.086,0.924,0.135,1.705,0.074
		c2.105-0.165,5.595-0.098,5.595-0.098s0.484,0.021,0.363-0.452c-0.056-0.223-0.215-0.491-0.561-0.574
		c-0.347-0.081-6.903-1.988-8.182-1.935C361.609,276.774,360.307,276.735,360.538,277.969z"/>
	<path fill="#FFFFFF" d="M370.362,279.412c0,0-0.568,6.221-0.625,6.664c-0.056,0.441,0.113,0.611,0.113,0.611l1.39,0.521
		l-0.007,0.196h-1.677l-0.526-0.142c0.049-0.18,0.273-0.634,0.316-1.022c0.042-0.387-0.319-2.506-0.319-4.237
		c0-1.732,0.859-2.644,0.859-2.644s0.119-0.164,0.279-0.161C370.321,279.202,370.369,279.342,370.362,279.412z"/>
	<path fill="#FFFFFF" d="M362.631,275.05c-0.381-0.466-1.319-3.425-1.421-3.646c-0.103-0.221-0.135-0.761,0.178-0.823
		c0.313-0.066,0.48,0.234,0.48,0.234s0.308,0.72,0.717,2.298c0.281,1.087,0.506,1.551,0.649,1.867c0,0,0.085,0.213-0.209,0.267
		C362.782,275.288,362.631,275.05,362.631,275.05z"/>
	<path fill="#FFFFFF" d="M362.657,275.322c0,0,0.413,0.553,1.689,1.046c1.276,0.494,1.949,0.842,1.949,0.842s0.268,0.629,0.51,0.778
		c0.242,0.15,0.526,0.168,0.526,0.168l-0.311-0.352c0,0,0.539,0.088,0.718,0.507l0.083,0.158l0.113-0.061
		c0,0,0.012-0.261-0.121-0.484c-0.133-0.224-1.331-0.957-1.331-0.957c-0.263-0.086-2.721-1.632-3.05-1.882
		c-0.104-0.078-0.211-0.133-0.353-0.202c0,0-0.243-0.136-0.405,0.055C362.513,275.127,362.657,275.322,362.657,275.322z"/>
	<path fill="#FFFFFF" d="M361.896,270.053c0,0-0.258-0.4-0.05-0.916c0.207-0.517-0.687-0.234-0.687-0.234l-0.074,0.972
		c-0.04,0.523,0.521,0.66,0.726,0.55C362.016,270.314,361.896,270.053,361.896,270.053z"/>
	<path fill="#FFFFFF" d="M363.457,277.182c0,0,0.302-1.807,0-3.882c0,0,0.252-0.553,0.094-0.909
		c-0.159-0.358-1.556-1.966-1.652-2.338l-0.812-0.179c0,0,0.022,1.153,0,2.501c-0.022,1.367-0.173,3.066-0.254,3.326
		c-0.082,0.26-0.161,1.48-0.161,1.48H363.457z"/>
	<path fill="#FFFFFF" d="M362.793,267.043c-0.003-0.038-0.004-0.06-0.004-0.06h-0.002c-0.001-0.008-0.003-0.019-0.004-0.027
		c-0.128-0.869-0.8-1.491-1.503-1.388c-0.704,0.103-1.171,0.891-1.044,1.76c0.001,0.009,0.003,0.019,0.004,0.027l0,0
		c0,0,0,0.002,0.001,0.006c0.021,0.127,0.053,0.249,0.096,0.365c0.183,0.592,0.635,1.681,1.485,1.558h0.003
		c0.872-0.128,0.978-1.356,0.977-1.964C362.805,267.232,362.802,267.136,362.793,267.043z"/>
	<path fill="#FFFFFF" d="M362.782,266.957c0,0,0.117,0.585,0.202,0.675c0.084,0.093-0.208,0.192-0.208,0.192l-0.131-0.028
		L362.782,266.957z"/>
	<path fill="#FFFFFF" d="M362.315,275.124c-0.3-0.52-0.738-3.594-0.802-3.829s-0.008-0.771,0.312-0.784
		c0.319-0.013,0.435,0.312,0.435,0.312s0.185,0.76,0.329,2.385c0.098,1.118,0.243,1.613,0.333,1.947c0,0,0.048,0.226-0.251,0.231
		C362.424,275.385,362.315,275.124,362.315,275.124z"/>
	<path fill="#FFFFFF" d="M362.315,274.987c0,0-0.023,0.689,0.665,1.873c0.688,1.185,0.995,1.875,0.995,1.875
		s-0.182,0.659-0.088,0.926c0.094,0.269,0.304,0.459,0.304,0.459l-0.021-0.468c0,0,0.365,0.406,0.243,0.846l-0.035,0.174
		l0.127,0.026c0,0,0.172-0.197,0.207-0.454c0.036-0.259-0.442-1.581-0.442-1.581c-0.152-0.229-1.104-2.973-1.205-3.375
		c-0.031-0.124-0.081-0.237-0.147-0.379c0,0-0.106-0.257-0.351-0.209C362.323,274.747,362.315,274.987,362.315,274.987z"/>
	<g>
		<path fill="#FFFFFF" d="M361.242,268.21c-0.226,0-0.41-0.183-0.41-0.409c0-0.228,0.184-0.411,0.41-0.411
			c0.227,0,0.411,0.184,0.411,0.411C361.653,268.028,361.469,268.21,361.242,268.21z M361.242,267.435
			c-0.201,0-0.365,0.165-0.365,0.366s0.164,0.364,0.365,0.364c0.202,0,0.367-0.163,0.367-0.364S361.444,267.435,361.242,267.435z"/>
	</g>
	<path fill="#FFFFFF" d="M361.109,267.525c-0.045-0.406,0.189-0.348,0.475-0.541s0.138-0.536,0.24-0.747
		c0.102-0.213,0.733,0.096,0.767,0.018c0.033-0.078-0.113-0.291-0.113-0.291s-0.714-0.899-1.628-0.441
		c-1.075,0.536-0.899,1.768-0.899,1.768s0.461,1.931,0.919,1.407C361.156,268.368,361.109,267.525,361.109,267.525z"/>
	
		<ellipse transform="matrix(-0.9726 -0.2326 0.2326 -0.9726 648.4381 609.1149)" fill="#FFFFFF" cx="360.125" cy="266.334" rx="0.565" ry="0.741"/>
	<path fill="#FFFFFF" d="M360.869,265.388c0,0-0.762-0.099-1.054,0.214c-0.292,0.313-0.442,0.936-0.108,1.287
		C360.042,267.243,360.869,265.388,360.869,265.388z"/>
	<path fill="#FFFFFF" d="M361.806,265.436c0,0-0.357-0.193-0.852-0.118c-0.495,0.076-1.261,1.478-1.29,1.571
		c-0.027,0.095,0.058,0.523,0.136,0.594C359.882,267.552,361.806,265.436,361.806,265.436z"/>
	<path fill="#FFFFFF" d="M359.745,267.473c0.033,0.277,0.47,0.823,0.47,0.823c1.156-0.569,2.167-2.439,2.167-2.439
		s-0.247-0.353-0.52-0.465S359.796,267.361,359.745,267.473z"/>
	<path fill="#FFFFFF" d="M370.372,279.331c0,0,0.035,5.792,0,6.25c-0.036,0.457-1.775,0.319-1.958,0.275
		c-0.183-0.046,0.779-6.136,0.137-6.134c-0.64,0.001,1.802-0.439,1.802-0.439"/>
</g>
<g>
	<path fill="#FFFFFF" d="M298.774,269.878c0,0-0.074,0.677,0.517,1.893c0.59,1.214,0.842,1.917,0.842,1.917
		s-0.229,0.634-0.154,0.906c0.073,0.27,0.266,0.474,0.266,0.474l0.014-0.463c0,0,0.33,0.427,0.177,0.85l-0.045,0.17l0.121,0.034
		c0,0,0.184-0.181,0.238-0.432c0.054-0.251-0.319-1.589-0.319-1.589c-0.133-0.236-0.869-3.006-0.939-3.408
		c-0.022-0.126-0.063-0.24-0.118-0.385c0,0-0.085-0.261-0.33-0.232C298.8,269.643,298.774,269.878,298.774,269.878z"/>
	<path fill="#FFFFFF" d="M300.848,272.059c-0.94,0.807-0.56,2.456-0.465,2.724c0.111,0.365,0.338,0.856,0.776,1.493
		c1.181,1.717,2.846,4.732,2.846,4.732s0.222,0.423,0.566,0.087c0.163-0.158,0.315-0.426,0.214-0.763
		c-0.101-0.337-1.709-6.881-2.386-7.947C302.399,272.385,301.789,271.254,300.848,272.059z"/>
	<path fill="#FFFFFF" d="M301.966,271.046c-1.235,0.092-1.904,1.649-1.986,1.919c-0.125,0.362-0.233,0.893-0.257,1.664
		c-0.064,2.084-0.505,5.499-0.505,5.499s-0.072,0.472,0.404,0.405c0.225-0.032,0.506-0.158,0.623-0.488
		c0.118-0.332,2.692-6.559,2.778-7.819C303.024,272.226,303.202,270.955,301.966,271.046z"/>
	<path fill="#FFFFFF" d="M300.165,279.962c0,0-1.899,5.864-2.05,6.278c-0.151,0.413-0.025,0.614-0.025,0.614l1.304,0.439
		l-0.051,0.188h-1.692l-0.476-0.251c0.087-0.163,0.401-0.552,0.527-0.916c0.125-0.363,0.238-2.481,0.614-4.149
		c0.375-1.667,1.401-2.356,1.401-2.356s0.15-0.132,0.303-0.097C300.17,279.751,300.187,279.893,300.165,279.962z"/>
	<path fill="#FFFFFF" d="M304.447,279.991c0,0,2.115,5.791,2.251,6.209c0.137,0.418,0.359,0.5,0.359,0.5l1.297-0.457l0.077,0.179
		l-1.334,1.042l-0.544-0.014c-0.032-0.183-0.01-0.573-0.135-0.936c-0.125-0.364-1.341-2.103-2.072-3.649
		c-0.73-1.545-0.346-2.721-0.346-2.721s0.036-0.194,0.18-0.262C304.322,279.819,304.424,279.924,304.447,279.991z"/>
	<path fill="#FFFFFF" d="M300.315,272.273c0,0-0.572,1.246-0.796,3.064c-0.228,1.834-1.207,7.069-1.845,8.688
		c-0.638,1.615,7.593,1.973,8.663,1.24c0.889-0.61-3.405-9.775-3.342-12.993H300.315z"/>
	<path fill="#FFFFFF" d="M301.462,265.357c0,0-0.037-0.396-0.05-0.882c-0.015-0.536-0.939-0.314-0.939-0.314l0.189,1.061
		c-0.038,0.506,0.519,0.599,0.716,0.493C301.576,265.608,301.462,265.357,301.462,265.357z"/>
	<path fill="#FFFFFF" d="M302.324,262.75c-0.003-0.036-0.004-0.058-0.004-0.058l-0.003,0.002c-0.001-0.01-0.002-0.018-0.003-0.027
		c-0.123-0.835-0.77-1.434-1.447-1.335c-0.677,0.098-1.125,0.856-1.003,1.692c0.001,0.011,0.002,0.019,0.004,0.026l0,0
		c0,0,0,0.003,0,0.007c0.021,0.122,0.052,0.24,0.093,0.35c0.175,0.571,0.61,1.619,1.428,1.499h0.002
		c0.839-0.123,0.942-1.304,0.94-1.889C302.335,262.928,302.333,262.84,302.324,262.75z"/>
	<path fill="#FFFFFF" d="M302.314,262.667c0,0,0.113,0.563,0.194,0.651c0.082,0.088-0.2,0.183-0.2,0.183l-0.125-0.027
		L302.314,262.667z"/>
	<g>
		<path fill="#FFFFFF" d="M300.833,263.874c-0.218,0-0.395-0.176-0.395-0.395c0-0.218,0.177-0.395,0.395-0.395
			c0.218,0,0.396,0.177,0.396,0.395C301.228,263.698,301.051,263.874,300.833,263.874z M300.833,263.127
			c-0.193,0-0.351,0.158-0.351,0.352s0.158,0.351,0.351,0.351c0.194,0,0.352-0.157,0.352-0.351S301.027,263.127,300.833,263.127z"/>
	</g>
	<path fill="#FFFFFF" d="M300.704,263.213c-0.043-0.391,0.183-0.335,0.457-0.521c0.275-0.187,0.134-0.514,0.231-0.718
		c0.099-0.205,0.706,0.092,0.738,0.018c0.032-0.075-0.109-0.28-0.109-0.28s-0.687-0.865-1.566-0.426
		c-1.035,0.517-0.865,1.702-0.865,1.702s0.443,1.855,0.883,1.353C300.75,264.027,300.704,263.213,300.704,263.213z"/>
	
		<ellipse transform="matrix(-0.9727 -0.2322 0.2322 -0.9727 530.4526 586.5881)" fill="#FFFFFF" cx="299.757" cy="262.068" rx="0.542" ry="0.712"/>
	<path fill="#FFFFFF" d="M300.474,261.158c0,0-0.734-0.097-1.015,0.206c-0.28,0.301-0.425,0.899-0.104,1.239
		C299.677,262.942,300.474,261.158,300.474,261.158z"/>
	<path fill="#FFFFFF" d="M301.375,261.204c0,0-0.345-0.186-0.819-0.113c-0.476,0.072-1.213,1.422-1.24,1.513
		c-0.027,0.089,0.054,0.502,0.131,0.569C299.523,263.241,301.375,261.204,301.375,261.204z"/>
	<path fill="#FFFFFF" d="M299.392,263.164c0.032,0.267,0.452,0.793,0.452,0.793c1.112-0.549,2.084-2.349,2.084-2.349
		s-0.238-0.339-0.5-0.447C301.166,261.054,299.441,263.055,299.392,263.164z"/>
	<path fill="#FFFFFF" d="M298.785,269.756c0.08-0.587,1.589-3.254,1.68-3.477c0.092-0.222,0.459-0.608,0.716-0.426
		c0.257,0.184,0.152,0.505,0.152,0.505s-0.313,0.707-1.18,2.062c-0.597,0.935-0.781,1.41-0.913,1.726c0,0-0.096,0.203-0.335,0.027
		C298.713,270.025,298.785,269.756,298.785,269.756z"/>
	<path fill="#FFFFFF" d="M303.003,272.375c0,0,0.299-1.784,0-3.835c0,0,0.25-0.545,0.094-0.896
		c-0.157-0.353-1.536-1.938-1.632-2.308l-0.801-0.175c0,0-0.015,1.139,0,2.467c0.015,1.351-0.009,2.997-0.089,3.255
		c-0.081,0.255-0.32,1.492-0.32,1.492H303.003z"/>
	<path fill="#FFFFFF" d="M302.588,270.207c-0.383-0.454-1.347-3.361-1.45-3.579c-0.103-0.217-0.142-0.748,0.165-0.817
		c0.309-0.068,0.477,0.228,0.477,0.228s0.313,0.707,0.737,2.258c0.292,1.069,0.52,1.526,0.666,1.835c0,0,0.086,0.208-0.204,0.266
		C302.74,270.44,302.588,270.207,302.588,270.207z"/>
	<path fill="#FFFFFF" d="M302.588,270.207c0,0-0.024,0.681,0.655,1.85c0.68,1.167,0.983,1.85,0.983,1.85s-0.181,0.649-0.087,0.914
		c0.094,0.265,0.3,0.453,0.3,0.453l-0.021-0.461c0,0,0.36,0.4,0.24,0.833l-0.033,0.172l0.124,0.026c0,0,0.17-0.196,0.206-0.449
		c0.036-0.255-0.437-1.561-0.437-1.561c-0.15-0.226-1.089-2.934-1.189-3.33c-0.03-0.122-0.08-0.232-0.146-0.373
		c0,0-0.104-0.256-0.346-0.208C302.596,269.969,302.588,270.207,302.588,270.207z"/>
</g>
<g>
	<polygon fill="#FFFFFF" points="602.707,273.065 602.628,273.065 601.105,273.065 601.089,273.065 599.56,273.065 599.488,273.065 
		598.996,274.79 599.998,287.941 600.783,287.941 601.082,276.069 601.113,276.069 601.414,287.941 602.197,287.941 
		603.222,274.702 	"/>
	
		<ellipse transform="matrix(0.9969 0.0792 -0.0792 0.9969 22.8566 -46.8592)" fill="#FFFFFF" cx="602.53" cy="264.894" rx="0.228" ry="0.483"/>
	<g>
		<path fill="#FFFFFF" d="M598.861,287.822l0.043,0.133h2.088C600.992,287.955,600.992,286.722,598.861,287.822z"/>
	</g>
	<g>
		<path fill="#FFFFFF" d="M603.314,287.822l-0.041,0.133h-2.088C601.185,287.955,601.185,286.722,603.314,287.822z"/>
	</g>
	<path fill="#FFFFFF" d="M599.455,269.373c0,0-0.025,0.145-0.063,0.35L599.455,269.373z"/>
	<path fill="#FFFFFF" d="M598.646,272.189c0.086-0.228,0.107-0.915,0.1-1.096c-0.006-0.127,0.313-0.848,0.508-1.276
		c0.086-0.189,0.148-0.323,0.148-0.323c0.293-0.641-0.223-0.865-0.434-0.96c-0.209-0.095-0.338,0.08-0.338,0.08
		c-0.42,0.646-0.566,2.383-0.566,2.383s-0.043,0.244-0.143,0.397c-0.16,0.244-0.479,2.562-0.354,3.426l0.469,0.067
		C598.037,274.887,598.558,272.417,598.646,272.189z"/>
	<path fill="#FFFFFF" d="M602.808,269.722c-0.037-0.205-0.064-0.35-0.064-0.35L602.808,269.722z"/>
	<path fill="#FFFFFF" d="M604.064,271.046c0,0-0.055-1.744-0.441-2.411c0,0-0.117-0.18-0.336-0.095
		c-0.215,0.085-0.74,0.28-0.48,0.937c0,0,0.055,0.136,0.131,0.33c0.174,0.438,0.455,1.175,0.441,1.3
		c-0.018,0.182-0.029,0.868,0.045,1.099s0.465,2.729,0.465,2.729l0.475-0.048c0.17-0.854-0.029-3.186-0.176-3.437
		C604.095,271.292,604.064,271.046,604.064,271.046z"/>
	<path fill="#FFFFFF" d="M603.742,268.904c-0.277-0.822-1.865-1.319-1.865-1.319c-0.516-0.115-0.328-1.181-0.328-1.181h-0.299
		h-0.143h-0.016h-0.143h-0.275c0,0,0.133,1.065-0.35,1.181c0,0-1.531,0.425-1.809,1.247c0,0-0.135,0.503,0.174,0.769
		c0.309,0.264,0.686,0.222,0.703,0.123v-0.001v-0.001c0.018-0.098,0.027-0.149,0.027-0.149l0,0c0.021-0.122,0.035-0.199,0.035-0.199
		s0.619,0.145,1.494,0.181c0.051,0,0.1,0.003,0.15,0.005c0.051-0.002,0.102-0.005,0.15-0.005c0.875-0.036,1.494-0.181,1.494-0.181
		s0.014,0.075,0.031,0.172c0.018,0.099,0.424,0.319,0.734,0.056C603.816,269.337,603.742,268.904,603.742,268.904z"/>
	<path fill="#FFFFFF" d="M604.355,274.87c-0.012-0.039-0.039-0.138-0.049-0.283l-0.443,0.062c0.016,0.136-0.004,0.301-0.02,0.402
		h-0.004l-0.275,0.329l-0.305,0.733l-0.037,0.094c-0.029,0.069,0.025,0.11,0.186-0.046l0.164-0.303l0.021-0.015l0.26,1.185
		c0,0,0.016,0.098,0.049,0.096l0.207,0.002c0.018,0.003,0.029-0.008,0.033-0.022l0.203-0.21c0.025-0.022,0.047-0.119,0.047-0.119
		l0.125-0.291c0.01-0.018,0-0.054,0-0.054l-0.012-0.382l-0.035-0.349l0.006-0.23l-0.049-0.372L604.355,274.87z"/>
	<path fill="#FFFFFF" d="M597.57,274.797c0.016-0.038,0.049-0.136,0.063-0.279l0.441,0.085c-0.021,0.134-0.014,0.301-0.002,0.402
		h0.002l0.26,0.342l0.264,0.75l0.037,0.098c0.021,0.067-0.031,0.105-0.184-0.059l-0.148-0.311l-0.021-0.017l-0.32,1.17
		c0,0-0.021,0.098-0.055,0.093l-0.205-0.007c-0.018,0.001-0.029-0.01-0.035-0.024l-0.189-0.222c-0.025-0.023-0.043-0.12-0.043-0.12
		l-0.107-0.299c-0.01-0.018,0.002-0.052,0.002-0.052l0.029-0.382l0.055-0.345l0.006-0.232l0.066-0.368L597.57,274.797z"/>
	
		<ellipse transform="matrix(-0.9969 0.0788 -0.0788 -0.9969 1218.3782 481.6997)" fill="#FFFFFF" cx="599.683" cy="264.894" rx="0.229" ry="0.484"/>
	<path fill="#FFFFFF" d="M602.525,264.695c0.006-0.043,0.006-0.067,0.006-0.067h-0.004c0-0.01,0-0.019,0-0.03
		c0-0.975-0.639-1.765-1.428-1.765s-1.428,0.79-1.428,1.765c0,0.012,0,0.021,0,0.03l0,0c0,0,0,0.004,0,0.007
		c0.002,0.144,0.02,0.282,0.047,0.415c0.105,0.681,0.428,1.949,1.381,1.949h0.004c0.977,0,1.291-1.332,1.387-1.998
		C602.509,264.9,602.521,264.798,602.525,264.695z"/>
	<path fill="#FFFFFF" d="M600.003,263.519c-0.035,0.05-0.246,0.524-0.246,0.937c0,0.414-0.109,0.506-0.109,0.506
		s-0.162-0.64-0.035-1.163c0.127-0.525,0.398-1.48,1.525-1.449c1.129,0.03,1.559,0.826,1.492,1.997l-0.037,0.615
		c0,0-0.111-0.252-0.1-0.549c0.014-0.295-0.271-0.401-0.264-0.597c0,0-0.262-0.745-1.074-0.747
		C600.339,263.067,600.003,263.519,600.003,263.519z"/>
	<path fill="#FFFFFF" d="M602.871,269.373h-1.785H599.3c0.412,1.825,0.254,3.448,0.158,3.692h1.627h1.627
		C602.617,272.821,602.46,271.198,602.871,269.373z"/>
	<g>
		<path fill="#FFFFFF" d="M601.873,267.584c-0.07-0.017-0.127-0.048-0.172-0.093c-0.504,0.255-0.965,0.126-1.225,0.004
			c-0.043,0.043-0.096,0.072-0.158,0.089c0,0-0.682,0.189-1.219,0.561l0,0c0.277,0.17,0.273,1.603,0.273,1.603
			c0.313,1.669,0.17,3.089,0.082,3.317h1.625h1.627c-0.09-0.234-0.238-1.729,0.109-3.457h0.002c0.006-0.357,0.045-1.278,0.254-1.452
			C602.531,267.79,601.873,267.584,601.873,267.584z"/>
	</g>
	<path fill="#FFFFFF" d="M603.652,286.88c0.672-11.656-0.941-13.815-0.941-13.815h-3.256c0,0-1.611,2.159-0.939,13.815H603.652z"/>
	<path fill="#FFFFFF" d="M599.683,266.039c0,0.018-0.014,0.032-0.031,0.032l0,0c-0.018,0-0.035-0.015-0.035-0.032v-0.838
		c0-0.018,0.018-0.033,0.035-0.033l0,0c0.018,0,0.031,0.016,0.031,0.033V266.039z"/>
	<path fill="#FFFFFF" d="M602.595,266.039c0,0.018-0.016,0.032-0.033,0.032l0,0c-0.018,0-0.031-0.015-0.031-0.032v-0.838
		c0-0.018,0.014-0.033,0.031-0.033l0,0c0.018,0,0.033,0.016,0.033,0.033V266.039z"/>
	<circle fill="#FFFFFF" cx="600.044" cy="263.493" r="0.203"/>
	<circle fill="#FFFFFF" cx="599.837" cy="263.688" r="0.203"/>
	<circle fill="#FFFFFF" cx="599.785" cy="263.992" r="0.203"/>
	<circle fill="#FFFFFF" cx="600.5" cy="263.126" r="0.204"/>
	<circle fill="#FFFFFF" cx="600.815" cy="263.126" r="0.204"/>
	<circle fill="#FFFFFF" cx="601.153" cy="263.069" r="0.204"/>
	<circle fill="#FFFFFF" cx="601.481" cy="263.113" r="0.204"/>
	<circle fill="#FFFFFF" cx="601.77" cy="263.167" r="0.204"/>
	<circle fill="#FFFFFF" cx="602.024" cy="263.369" r="0.204"/>
	<circle fill="#FFFFFF" cx="602.208" cy="263.563" r="0.204"/>
	<circle fill="#FFFFFF" cx="600.215" cy="263.369" r="0.079"/>
	<circle fill="#FFFFFF" cx="600.292" cy="263.275" r="0.106"/>
	<path fill="#FFFFFF" d="M599.572,264.461c0,0,1.043-0.64,1.547-1.294c0,0,0.891,1.202,1.506,1.265c0,0,0.498-2.207-1.506-2.293
		C599.113,262.052,599.572,264.461,599.572,264.461z"/>
	<g>
		<path fill="#FFFFFF" d="M601.119,262.139c-1.006-0.044-1.393,0.541-1.527,1.132c0.137-0.037,1.498-0.401,1.563-0.527
			c0,0,0.832,0.712,1.518,0.901C602.621,263.003,602.318,262.19,601.119,262.139z"/>
	</g>
</g>
<g>
	
		<ellipse transform="matrix(0.9969 0.0788 -0.0788 0.9969 21.8298 -41.0325)" fill="#FFFFFF" cx="530.73" cy="256.032" rx="0.229" ry="0.484"/>
	<path fill="#FFFFFF" d="M527.654,260.511c0,0-0.025,0.145-0.063,0.35L527.654,260.511z"/>
	<path fill="#FFFFFF" d="M531.007,260.861c-0.037-0.205-0.064-0.35-0.064-0.35L531.007,260.861z"/>
	<path fill="#FFFFFF" d="M531.941,260.042c-0.277-0.822-1.865-1.319-1.865-1.319c-0.516-0.115-0.326-1.181-0.326-1.181h-0.301
		h-0.143h-0.016h-0.143h-0.275c0,0,0.133,1.065-0.35,1.181c0,0-1.531,0.425-1.809,1.247c0,0-0.135,0.503,0.174,0.768
		s0.686,0.222,0.703,0.124v-0.001c0,0,0-0.001,0-0.002c0.018-0.097,0.027-0.149,0.027-0.149l0,0
		c0.021-0.121,0.035-0.198,0.035-0.198s0.619,0.145,1.494,0.18c0.051,0.002,0.1,0.004,0.15,0.006
		c0.051-0.002,0.102-0.004,0.15-0.006c0.875-0.035,1.494-0.18,1.494-0.18s0.016,0.075,0.031,0.172
		c0.018,0.098,0.424,0.319,0.734,0.055C532.015,260.475,531.941,260.042,531.941,260.042z"/>
	
		<ellipse transform="matrix(-0.9969 0.0788 -0.0788 -0.9969 1074.3015 469.6636)" fill="#FFFFFF" cx="527.882" cy="256.032" rx="0.229" ry="0.484"/>
	<path fill="#FFFFFF" d="M530.724,255.833c0.006-0.042,0.006-0.067,0.006-0.067h-0.004c0-0.009,0-0.02,0-0.029
		c0-0.976-0.639-1.766-1.428-1.766s-1.428,0.79-1.428,1.766c0,0.01,0,0.021,0,0.029l0,0c0,0,0,0.004,0,0.008
		c0.002,0.143,0.02,0.282,0.047,0.414c0.105,0.682,0.428,1.95,1.381,1.95h0.004c0.977,0,1.291-1.332,1.387-1.997
		C530.708,256.04,530.72,255.937,530.724,255.833z"/>
	<path fill="#FFFFFF" d="M528.203,254.658c-0.035,0.05-0.246,0.524-0.246,0.938c0,0.412-0.109,0.505-0.109,0.505
		s-0.162-0.64-0.035-1.164s0.398-1.479,1.525-1.45c1.129,0.032,1.559,0.827,1.492,1.999l-0.037,0.615c0,0-0.111-0.253-0.1-0.548
		c0.014-0.297-0.271-0.401-0.264-0.598c0,0-0.26-0.745-1.074-0.748C528.539,254.205,528.203,254.658,528.203,254.658z"/>
	<path fill="#FFFFFF" d="M531.07,260.511h-1.785H527.5c0.412,1.825,0.254,3.448,0.16,3.692h1.625h1.627
		C530.816,263.959,530.66,262.336,531.07,260.511z"/>
	<g>
		<path fill="#FFFFFF" d="M530.072,258.723c-0.07-0.017-0.127-0.049-0.172-0.093c-0.504,0.256-0.965,0.127-1.225,0.005
			c-0.043,0.041-0.096,0.072-0.158,0.088c0,0-0.684,0.189-1.219,0.561l0,0c0.277,0.169,0.275,1.604,0.275,1.604
			c0.311,1.668,0.168,3.09,0.08,3.316h1.627h1.625c-0.09-0.235-0.238-1.73,0.109-3.457h0.002c0.006-0.357,0.045-1.279,0.254-1.451
			C530.73,258.929,530.072,258.723,530.072,258.723z"/>
	</g>
	<path fill="#FFFFFF" d="M527.882,257.177c0,0.018-0.014,0.032-0.031,0.032l0,0c-0.018,0-0.033-0.015-0.033-0.032v-0.838
		c0-0.018,0.016-0.033,0.033-0.033l0,0c0.018,0,0.031,0.016,0.031,0.033V257.177z"/>
	<path fill="#FFFFFF" d="M530.794,257.177c0,0.018-0.016,0.032-0.033,0.032l0,0c-0.018,0-0.031-0.015-0.031-0.032v-0.838
		c0-0.018,0.014-0.033,0.031-0.033l0,0c0.018,0,0.033,0.016,0.033,0.033V257.177z"/>
	<circle fill="#FFFFFF" cx="528.245" cy="254.63" r="0.204"/>
	<circle fill="#FFFFFF" cx="528.037" cy="254.828" r="0.203"/>
	<circle fill="#FFFFFF" cx="527.984" cy="255.129" r="0.203"/>
	<circle fill="#FFFFFF" cx="528.7" cy="254.264" r="0.204"/>
	<circle fill="#FFFFFF" cx="529.014" cy="254.264" r="0.204"/>
	<circle fill="#FFFFFF" cx="529.352" cy="254.207" r="0.204"/>
	<circle fill="#FFFFFF" cx="529.68" cy="254.251" r="0.204"/>
	<circle fill="#FFFFFF" cx="529.969" cy="254.305" r="0.204"/>
	<circle fill="#FFFFFF" cx="530.223" cy="254.506" r="0.204"/>
	<circle fill="#FFFFFF" cx="530.407" cy="254.702" r="0.204"/>
	<circle fill="#FFFFFF" cx="528.415" cy="254.506" r="0.079"/>
	<circle fill="#FFFFFF" cx="528.491" cy="254.414" r="0.106"/>
	<path fill="#FFFFFF" d="M527.771,255.6c0,0,1.043-0.64,1.547-1.295c0,0,0.891,1.204,1.506,1.266c0,0,0.498-2.206-1.506-2.292
		C527.312,253.191,527.771,255.6,527.771,255.6z"/>
	<g>
		<path fill="#FFFFFF" d="M529.318,253.279c-1.006-0.045-1.393,0.539-1.527,1.131c0.137-0.037,1.498-0.402,1.563-0.528
			c0,0,0.832,0.713,1.518,0.903C530.822,254.142,530.517,253.331,529.318,253.279z"/>
	</g>
	<g>
		<path fill="#FFFFFF" d="M526.945,262.231c-0.006-0.127,0.313-0.847,0.508-1.275c0.086-0.189,0.15-0.324,0.15-0.324
			c0.291-0.64-0.225-0.863-0.436-0.959c-0.209-0.096-0.338,0.079-0.338,0.079c-0.42,0.646-0.566,2.384-0.566,2.384
			s-0.043,0.244-0.143,0.397c-0.088,0.133-0.221,0.88-0.305,1.671h0.814c0.098-0.434,0.184-0.796,0.215-0.877
			C526.931,263.098,526.953,262.414,526.945,262.231z"/>
		<path fill="#FFFFFF" d="M532.386,262.588c-0.092-0.157-0.123-0.403-0.123-0.403s-0.055-1.743-0.441-2.41
			c0,0-0.117-0.182-0.334-0.096c-0.217,0.084-0.742,0.28-0.482,0.936c0,0,0.055,0.137,0.131,0.331
			c0.174,0.438,0.455,1.175,0.441,1.3c-0.018,0.181-0.029,0.867,0.045,1.099c0.025,0.079,0.09,0.435,0.162,0.859h0.814
			C532.554,263.435,532.464,262.723,532.386,262.588z"/>
	</g>
</g>
<g>
	<path fill="#FFFFFF" d="M454.83,274.091c-0.359-0.836-1.787-2.295-2.014-2.585c-0.227-0.292-0.928-0.713-1.234-0.336
		c-0.307,0.375-0.016,0.812-0.016,0.812s0.018,0.088,0.689,0.696c1.262,1.145,1.734,1.764,2.059,2.179c0,0,0.227,0.26,0.506-0.098
		C455.044,274.462,454.83,274.091,454.83,274.091z"/>
	<path fill="#FFFFFF" d="M454.873,274.673c0,0-0.289,0.605-1.408,1.316c-0.318,0.202-0.6,0.33-0.6,0.33s-0.139,0.647-0.34,0.836
		c-0.201,0.188-0.465,0.259-0.465,0.259l0.227-0.393c0,0-0.496,0.186-0.586,0.617l-0.049,0.165l-0.119-0.034
		c0,0-0.061-0.246,0.023-0.483s1.084-1.161,1.084-1.161c0.234-0.13,1.188-1.227,1.451-1.527c0.084-0.093,0.176-0.166,0.297-0.258
		c0,0,0.205-0.174,0.395-0.024C454.972,274.463,454.873,274.673,454.873,274.673z"/>
	<path fill="#FFFFFF" d="M451.988,277.576c0.988,0.847,0.588,2.582,0.488,2.862c-0.119,0.385-0.357,0.901-0.818,1.57
		c-1.24,1.806-2.992,3.143-2.992,3.143s-0.232,0.445-0.594,0.093c-0.172-0.165-0.332-0.45-0.227-0.803
		c0.107-0.354,1.799-5.399,2.51-6.522C450.355,277.918,450.998,276.728,451.988,277.576z"/>
	<path fill="#FFFFFF" d="M450.81,276.508c1.299,0.099,2.002,1.735,2.088,2.02c0.133,0.38,0.246,0.938,0.271,1.751
		c0.066,2.189,0.531,3.947,0.531,3.947s0.074,0.497-0.428,0.426c-0.234-0.032-0.531-0.165-0.654-0.513
		c-0.125-0.349-2.832-5.064-2.92-6.388C449.699,277.751,449.511,276.412,450.81,276.508z"/>
	<path fill="#FFFFFF" d="M452.705,284.051c0,0,1.998,6.167,2.156,6.603c0.158,0.435,0.027,0.646,0.027,0.646l-1.373,0.462
		l0.053,0.198h1.781l0.5-0.263c-0.092-0.174-0.422-0.581-0.553-0.964c-0.133-0.382-0.252-2.611-0.646-4.363
		c-0.396-1.755-1.475-2.48-1.475-2.48s-0.156-0.137-0.318-0.1C452.699,283.83,452.681,283.98,452.705,284.051z"/>
	<path fill="#FFFFFF" d="M448.201,284.082c0,0-2.225,6.089-2.367,6.529c-0.145,0.44-0.377,0.526-0.377,0.526l-1.365-0.482
		l-0.078,0.189l1.402,1.095l0.57-0.013c0.033-0.192,0.01-0.603,0.143-0.985c0.131-0.382,1.41-2.211,2.178-3.837
		c0.768-1.624,0.365-2.86,0.365-2.86s-0.039-0.205-0.189-0.274C448.332,283.903,448.226,284.011,448.201,284.082z"/>
	<path fill="#FFFFFF" d="M453.126,277.799c0,0,0.547,1.2,0.838,3.223c0.277,1.924,1.113,7.464,1.885,9.12
		c0.771,1.655-8.17,0.25-9.455-0.207c-1.285-0.458,2.939-8.75,2.871-12.136H453.126z"/>
	<path fill="#FFFFFF" d="M451.173,271.087c0,0,0.328-0.507,0.064-1.166c-0.264-0.658,1.211-0.457,1.211-0.457l-0.242,1.395
		c0.051,0.669-0.664,0.845-0.926,0.704C451.023,271.42,451.173,271.087,451.173,271.087z"/>
	<path fill="#FFFFFF" d="M449.275,277.906c0,0-0.193-1.893,0.445-4.03c0,0-0.262-0.573-0.098-0.944
		c0.164-0.37,1.615-2.039,1.715-2.426l0.844-0.185c0,0,0.828,1.2,0.732,2.595c-0.102,1.478,0.051,3.193,0.051,3.438
		c0,0.283,0.162,1.552,0.162,1.552H449.275z"/>
	<path fill="#FFFFFF" d="M450.685,275.25c0.586-0.695,1.25-2.626,1.408-2.959c0.158-0.334,0.221-1.148-0.254-1.254
		c-0.473-0.104-0.732,0.348-0.732,0.348s-0.07,0.058-0.313,0.931c-0.457,1.64-0.799,2.341-1.023,2.818c0,0-0.133,0.318,0.313,0.406
		C450.453,275.609,450.685,275.25,450.685,275.25z"/>
	<path fill="#FFFFFF" d="M450.183,275.55c0,0-0.668,0.014-1.807-0.667c-0.322-0.194-0.564-0.392-0.564-0.392
		s-0.639,0.17-0.898,0.074c-0.258-0.097-0.439-0.302-0.439-0.302l0.453,0.026c0,0-0.389-0.358-0.816-0.246l-0.168,0.03l-0.023-0.122
		c0,0,0.193-0.164,0.443-0.195c0.248-0.029,1.523,0.448,1.523,0.448c0.221,0.15,1.629,0.51,2.016,0.614
		c0.121,0.031,0.229,0.081,0.365,0.147c0,0,0.246,0.105,0.199,0.343C450.417,275.545,450.183,275.55,450.183,275.55z"/>
	<path fill="#FFFFFF" d="M450.396,267.702c0.002-0.041,0.006-0.064,0.006-0.064h0.002c0.002-0.009,0.002-0.02,0.004-0.028
		c0.137-0.938,0.863-1.607,1.621-1.497c0.758,0.111,1.262,0.961,1.125,1.897c-0.002,0.009-0.002,0.021-0.004,0.029l0,0
		c0,0,0,0.002-0.002,0.007c-0.021,0.137-0.057,0.27-0.104,0.392c-0.197,0.642-0.684,1.815-1.602,1.68h-0.002
		c-0.939-0.136-1.055-1.461-1.055-2.116C450.384,267.903,450.386,267.803,450.396,267.702z"/>
	<path fill="#FFFFFF" d="M450.408,267.609c0,0-0.127,0.629-0.217,0.729c-0.092,0.1,0.223,0.205,0.223,0.205l0.143-0.031
		L450.408,267.609z"/>
	<g>
		<path fill="#FFFFFF" d="M451.625,268.519c0-0.245,0.199-0.443,0.443-0.443s0.441,0.198,0.441,0.443
			c0,0.243-0.197,0.442-0.441,0.442S451.625,268.762,451.625,268.519z M451.673,268.519c0,0.216,0.178,0.395,0.395,0.395
			s0.393-0.179,0.393-0.395c0-0.218-0.176-0.395-0.393-0.395S451.673,268.301,451.673,268.519z"/>
	</g>
	<path fill="#FFFFFF" d="M452.212,268.22c0.049-0.438-0.205-0.374-0.514-0.583s-0.148-0.576-0.258-0.806
		c-0.109-0.229-0.791,0.103-0.826,0.021c-0.037-0.084,0.121-0.315,0.121-0.315s0.77-0.968,1.754-0.477
		c1.16,0.579,0.971,1.908,0.971,1.908s-0.498,2.08-0.99,1.517C452.16,269.13,452.212,268.22,452.212,268.22z"/>
	<circle fill="#FFFFFF" cx="450.663" cy="266.516" r="0.292"/>
	<circle fill="#FFFFFF" cx="451.19" cy="265.993" r="0.288"/>
	<circle fill="#FFFFFF" cx="452.311" cy="265.844" r="0.288"/>
	<circle fill="#FFFFFF" cx="452.933" cy="266.208" r="0.287"/>
	<circle fill="#FFFFFF" cx="451.505" cy="265.82" r="0.193"/>
	<circle fill="#FFFFFF" cx="450.902" cy="266.244" r="0.193"/>
	<circle fill="#FFFFFF" cx="451.782" cy="265.92" r="0.194"/>
	<circle fill="#FFFFFF" cx="452.711" cy="265.993" r="0.194"/>
	<circle fill="#FFFFFF" cx="451.991" cy="265.757" r="0.202"/>
	<circle fill="#FFFFFF" cx="453.176" cy="266.516" r="0.202"/>
	<path fill="#FFFFFF" d="M453.132,266.98c0,0.113,0.09,0.203,0.201,0.203s0.201-0.09,0.201-0.203c0-0.109-0.09-0.201-0.201-0.201
		S453.132,266.871,453.132,266.98z"/>
	<circle fill="#FFFFFF" cx="453.471" cy="267.912" r="0.202"/>
	<circle fill="#FFFFFF" cx="453.307" cy="268.425" r="0.202"/>
	<circle fill="#FFFFFF" cx="453.418" cy="267.362" r="0.202"/>
	<circle fill="#FFFFFF" cx="453.471" cy="267.609" r="0.202"/>
	<circle fill="#FFFFFF" cx="451.755" cy="265.705" r="0.113"/>
	<circle fill="#FFFFFF" cx="452.599" cy="265.82" r="0.113"/>
	<circle fill="#FFFFFF" cx="453.388" cy="266.689" r="0.113"/>
	<circle fill="#FFFFFF" cx="453.22" cy="266.289" r="0.113"/>
	<circle fill="#FFFFFF" cx="452.513" cy="266.049" r="0.113"/>
	<circle fill="#FFFFFF" cx="450.872" cy="265.993" r="0.083"/>
	<circle fill="#FFFFFF" cx="453.418" cy="266.809" r="0.083"/>
	<circle fill="#FFFFFF" cx="453.554" cy="267.183" r="0.082"/>
	<circle fill="#FFFFFF" cx="453.436" cy="267.159" r="0.083"/>
	<circle fill="#FFFFFF" cx="453.507" cy="267.064" r="0.082"/>
	<circle fill="#FFFFFF" cx="453.591" cy="268.113" r="0.082"/>
	<circle fill="#FFFFFF" cx="453.29" cy="268.626" r="0.083"/>
	<circle fill="#FFFFFF" cx="453.093" cy="269.064" r="0.104"/>
	<circle fill="#FFFFFF" cx="452.585" cy="269.362" r="0.104"/>
	<circle fill="#FFFFFF" cx="452.826" cy="269.278" r="0.104"/>
	<circle fill="#FFFFFF" cx="453.155" cy="268.961" r="0.083"/>
	<circle fill="#FFFFFF" cx="452.731" cy="269.381" r="0.083"/>
	<circle fill="#FFFFFF" cx="452.938" cy="269.194" r="0.083"/>
	<circle fill="#FFFFFF" cx="453.456" cy="268.14" r="0.083"/>
	<circle fill="#FFFFFF" cx="453.471" cy="268.249" r="0.136"/>
	<circle fill="#FFFFFF" cx="453.207" cy="268.793" r="0.135"/>
	<circle fill="#FFFFFF" cx="453.021" cy="269.25" r="0.135"/>
	<circle fill="#FFFFFF" cx="453.253" cy="266.741" r="0.082"/>
	<circle fill="#FFFFFF" cx="453.353" cy="266.606" r="0.082"/>
	<circle fill="#FFFFFF" cx="453.621" cy="267.444" r="0.082"/>
	<circle fill="#FFFFFF" cx="450.698" cy="266.115" r="0.173"/>
	<circle fill="#FFFFFF" cx="450.635" cy="266.741" r="0.134"/>
</g>
<g>
	<path fill="#FFFFFF" d="M427.207,278.409c0.646-0.003,1.994-0.53,2.248-0.596c0.252-0.067,0.721-0.41,0.561-0.713
		c-0.162-0.305-0.525-0.236-0.525-0.236s-0.063-0.014-0.646,0.258c-1.098,0.507-1.631,0.645-1.992,0.739
		c0,0-0.232,0.074-0.078,0.357C426.906,278.447,427.207,278.409,427.207,278.409z"/>
	<path fill="#FFFFFF" d="M426.816,278.276c0,0-0.314-0.356-0.469-1.283c-0.043-0.264-0.049-0.484-0.049-0.484
		s-0.385-0.269-0.453-0.452c-0.064-0.184-0.039-0.376-0.039-0.376l0.195,0.257c0,0,0.014-0.376-0.242-0.555l-0.094-0.076
		l0.055-0.068c0,0,0.178,0.028,0.309,0.148c0.133,0.121,0.459,1.029,0.459,1.029c0.02,0.19,0.471,1.115,0.594,1.373
		c0.037,0.079,0.059,0.159,0.086,0.264c0,0,0.057,0.184-0.092,0.266C426.923,278.399,426.816,278.276,426.816,278.276z"/>
	<path fill="#FFFFFF" d="M429.564,281.455c0.701,0.601,0.418,1.83,0.348,2.029c-0.084,0.271-0.252,0.638-0.58,1.112
		c-0.881,1.281-2.123,2.229-2.123,2.229s-0.164,0.315-0.422,0.063c-0.121-0.116-0.234-0.316-0.158-0.566
		c0.074-0.251,1.275-3.83,1.779-4.626C428.408,281.697,428.861,280.853,429.564,281.455z"/>
	<path fill="#FFFFFF" d="M428.73,280.698c0.922,0.071,1.42,1.229,1.48,1.432c0.094,0.27,0.174,0.664,0.191,1.24
		c0.047,1.554,0.377,2.801,0.377,2.801s0.055,0.352-0.301,0.301c-0.168-0.021-0.379-0.115-0.467-0.364
		c-0.086-0.246-2.006-3.588-2.07-4.529C427.941,281.578,427.808,280.628,428.73,280.698z"/>
	<path fill="#FFFFFF" d="M430.074,286.046c0,0,1.416,4.372,1.529,4.683c0.111,0.308,0.018,0.456,0.018,0.456l-0.973,0.329
		l0.037,0.141h1.264l0.355-0.189c-0.066-0.12-0.301-0.41-0.393-0.681c-0.094-0.273-0.18-1.853-0.459-3.095
		c-0.279-1.244-1.045-1.76-1.045-1.76s-0.111-0.097-0.227-0.069C430.07,285.889,430.056,285.995,430.074,286.046z"/>
	<path fill="#FFFFFF" d="M426.88,286.068c0,0-1.576,4.318-1.68,4.63c-0.102,0.312-0.268,0.372-0.268,0.372l-0.967-0.341
		l-0.057,0.133l0.994,0.778l0.404-0.011c0.025-0.136,0.008-0.426,0.102-0.697c0.094-0.272,1-1.568,1.545-2.722
		c0.545-1.151,0.26-2.029,0.26-2.029s-0.029-0.145-0.135-0.194C426.972,285.941,426.898,286.018,426.88,286.068z"/>
	<path fill="#FFFFFF" d="M428.988,276.852c0,0,0.232-0.359,0.045-0.826s0.621-0.211,0.621-0.211l0.066,0.877
		c0.035,0.475-0.471,0.598-0.656,0.497C428.88,277.089,428.988,276.852,428.988,276.852z"/>
	<path fill="#FFFFFF" d="M427.64,281.689c0,0-0.137-1.343,0.316-2.859c0,0-0.186-0.406-0.068-0.668
		c0.117-0.264,1.145-1.445,1.215-1.721l0.6-0.131c0,0,0.586,0.85,0.52,1.84c-0.072,1.047,0.035,2.264,0.035,2.438
		c0,0.201,0.115,1.102,0.115,1.102H427.64z"/>
	<path fill="#FFFFFF" d="M428.64,279.805c0.418-0.495,0.887-1.863,1-2.098c0.113-0.238,0.156-0.814-0.18-0.891
		c-0.336-0.073-0.52,0.248-0.52,0.248s-0.051,0.041-0.223,0.66c-0.322,1.162-0.566,1.659-0.725,1.998c0,0-0.094,0.225,0.223,0.288
		C428.476,280.06,428.64,279.805,428.64,279.805z"/>
	<path fill="#FFFFFF" d="M428.285,280.018c0,0-0.473,0.009-1.281-0.474c-0.229-0.139-0.398-0.277-0.398-0.277
		s-0.455,0.12-0.637,0.052c-0.184-0.067-0.313-0.213-0.313-0.213l0.32,0.018c0,0-0.275-0.253-0.578-0.173l-0.121,0.021l-0.016-0.086
		c0,0,0.137-0.116,0.314-0.14c0.178-0.021,1.082,0.318,1.082,0.318c0.156,0.106,1.154,0.362,1.428,0.435
		c0.086,0.024,0.162,0.058,0.258,0.105c0,0,0.178,0.075,0.143,0.243C428.451,280.013,428.285,280.018,428.285,280.018z"/>
	<path fill="#FFFFFF" d="M428.437,274.318c0.002-0.028,0.002-0.045,0.002-0.045h0.002c0.002-0.007,0.002-0.014,0.004-0.021
		c0.096-0.665,0.611-1.14,1.148-1.061c0.539,0.077,0.895,0.678,0.799,1.345c-0.002,0.007-0.002,0.013-0.004,0.021l0,0
		c0,0,0,0.001,0,0.005c-0.016,0.097-0.041,0.189-0.074,0.278c-0.139,0.454-0.484,1.286-1.135,1.19h-0.002
		c-0.666-0.097-0.748-1.037-0.746-1.499C428.427,274.462,428.429,274.39,428.437,274.318z"/>
	<path fill="#FFFFFF" d="M428.445,274.252c0,0-0.09,0.445-0.154,0.517s0.158,0.146,0.158,0.146l0.102-0.022L428.445,274.252z"/>
	<g>
		<path fill="#FFFFFF" d="M429.308,274.898c0-0.173,0.141-0.314,0.314-0.314c0.172,0,0.313,0.142,0.313,0.314
			s-0.141,0.313-0.313,0.313C429.449,275.21,429.308,275.071,429.308,274.898z M429.343,274.898c0,0.152,0.123,0.279,0.279,0.279
			c0.152,0,0.277-0.127,0.277-0.279c0-0.155-0.125-0.279-0.277-0.279C429.466,274.619,429.343,274.743,429.343,274.898z"/>
	</g>
	<path fill="#FFFFFF" d="M429.724,274.686c0.033-0.31-0.145-0.265-0.365-0.413c-0.217-0.149-0.104-0.41-0.182-0.572
		c-0.078-0.161-0.561,0.073-0.586,0.014s0.086-0.222,0.086-0.222s0.545-0.688,1.244-0.338c0.822,0.41,0.688,1.352,0.688,1.352
		s-0.352,1.476-0.703,1.075C429.687,275.333,429.724,274.686,429.724,274.686z"/>
	<circle fill="#FFFFFF" cx="428.625" cy="273.476" r="0.206"/>
	<circle fill="#FFFFFF" cx="429" cy="273.106" r="0.204"/>
	<circle fill="#FFFFFF" cx="429.794" cy="273.001" r="0.203"/>
	<circle fill="#FFFFFF" cx="430.235" cy="273.259" r="0.204"/>
	<circle fill="#FFFFFF" cx="429.222" cy="272.984" r="0.137"/>
	<circle fill="#FFFFFF" cx="428.795" cy="273.285" r="0.138"/>
	<circle fill="#FFFFFF" cx="429.418" cy="273.056" r="0.138"/>
	<circle fill="#FFFFFF" cx="430.079" cy="273.106" r="0.138"/>
	<circle fill="#FFFFFF" cx="429.567" cy="272.938" r="0.144"/>
	<path fill="#FFFFFF" d="M430.265,273.476c0,0.08,0.064,0.146,0.143,0.146c0.08,0,0.143-0.065,0.143-0.146
		c0-0.077-0.063-0.142-0.143-0.142C430.33,273.334,430.265,273.399,430.265,273.476z"/>
	<circle fill="#FFFFFF" cx="430.519" cy="273.808" r="0.143"/>
	<circle fill="#FFFFFF" cx="430.617" cy="274.468" r="0.143"/>
	<circle fill="#FFFFFF" cx="430.499" cy="274.831" r="0.144"/>
	<circle fill="#FFFFFF" cx="430.581" cy="274.077" r="0.144"/>
	<circle fill="#FFFFFF" cx="430.617" cy="274.252" r="0.143"/>
	<circle fill="#FFFFFF" cx="429.4" cy="272.901" r="0.08"/>
	<circle fill="#FFFFFF" cx="429.998" cy="272.984" r="0.08"/>
	<circle fill="#FFFFFF" cx="430.558" cy="273.601" r="0.08"/>
	<circle fill="#FFFFFF" cx="430.439" cy="273.316" r="0.08"/>
	<circle fill="#FFFFFF" cx="429.937" cy="273.146" r="0.08"/>
	<circle fill="#FFFFFF" cx="428.773" cy="273.106" r="0.059"/>
	<circle fill="#FFFFFF" cx="430.58" cy="273.685" r="0.059"/>
	<circle fill="#FFFFFF" cx="430.675" cy="273.951" r="0.059"/>
	<circle fill="#FFFFFF" cx="430.591" cy="273.933" r="0.059"/>
	<circle fill="#FFFFFF" cx="430.644" cy="273.866" r="0.059"/>
	<circle fill="#FFFFFF" cx="430.701" cy="274.611" r="0.059"/>
	<circle fill="#FFFFFF" cx="430.488" cy="274.973" r="0.059"/>
	<circle fill="#FFFFFF" cx="430.349" cy="275.285" r="0.074"/>
	<circle fill="#FFFFFF" cx="429.989" cy="275.629" r="0.073"/>
	<circle fill="#FFFFFF" cx="430.159" cy="275.571" r="0.073"/>
	<circle fill="#FFFFFF" cx="430.392" cy="275.21" r="0.059"/>
	<circle fill="#FFFFFF" cx="430.092" cy="275.644" r="0.06"/>
	<circle fill="#FFFFFF" cx="430.238" cy="275.511" r="0.059"/>
	<circle fill="#FFFFFF" cx="430.605" cy="274.629" r="0.059"/>
	<circle fill="#FFFFFF" cx="430.617" cy="274.706" r="0.096"/>
	<circle fill="#FFFFFF" cx="430.429" cy="275.092" r="0.096"/>
	<circle fill="#FFFFFF" cx="430.297" cy="275.417" r="0.095"/>
	<circle fill="#FFFFFF" cx="430.462" cy="273.636" r="0.059"/>
	<circle fill="#FFFFFF" cx="430.534" cy="273.541" r="0.058"/>
	<circle fill="#FFFFFF" cx="430.723" cy="274.134" r="0.06"/>
	<path fill="#FFFFFF" d="M428.529,273.192c0,0.068,0.055,0.124,0.123,0.124c0.066,0,0.123-0.056,0.123-0.124
		c0-0.065-0.057-0.122-0.123-0.122C428.583,273.07,428.529,273.126,428.529,273.192z"/>
	<circle fill="#FFFFFF" cx="428.606" cy="273.636" r="0.095"/>
	<path fill="#FFFFFF" d="M427.64,281.689c0,0-1.928,5.969-2.041,6.829s0.869,0.761,1.121,0.612c0.252-0.149,0.76-2.452,1.326-3.041
		c0.568-0.59,1.092-1.438,1.092-1.438s1.354,4.098,1.486,4.246c0.133,0.149,1.174-0.23,1.24-0.362
		c0.064-0.133-1.371-5.611-1.492-6.847C430.251,280.452,427.64,281.689,427.64,281.689z"/>
</g>
<g>
	<path fill="#FFFFFF" d="M413.087,278.409c-0.646-0.003-1.993-0.53-2.247-0.596c-0.252-0.067-0.722-0.41-0.56-0.713
		c0.159-0.305,0.524-0.236,0.524-0.236s0.063-0.014,0.646,0.258c1.096,0.507,1.631,0.645,1.992,0.739c0,0,0.233,0.074,0.077,0.357
		C413.388,278.447,413.087,278.409,413.087,278.409z"/>
	<path fill="#FFFFFF" d="M413.381,278.322c0,0,0.467-0.082,1.166-0.711c0.199-0.179,0.341-0.35,0.341-0.35s0.469,0.029,0.635-0.071
		c0.166-0.103,0.266-0.27,0.266-0.27l-0.312,0.081c0,0,0.222-0.304,0.534-0.285h0.121v-0.089c0,0-0.156-0.087-0.335-0.076
		c-0.179,0.014-0.999,0.521-0.999,0.521c-0.134,0.136-1.064,0.579-1.32,0.703c-0.079,0.039-0.146,0.087-0.232,0.153
		c0,0-0.158,0.106-0.092,0.264C413.218,278.351,413.381,278.322,413.381,278.322z"/>
	<path fill="#FFFFFF" d="M410.729,281.455c-0.701,0.601-0.417,1.83-0.347,2.029c0.084,0.271,0.253,0.638,0.58,1.112
		c0.88,1.281,2.122,2.229,2.122,2.229s0.166,0.315,0.422,0.063c0.122-0.116,0.235-0.316,0.159-0.566
		c-0.075-0.251-1.275-3.83-1.779-4.626C411.886,281.697,411.432,280.853,410.729,281.455z"/>
	<path fill="#FFFFFF" d="M411.563,280.698c-0.921,0.071-1.419,1.229-1.48,1.432c-0.094,0.27-0.175,0.664-0.193,1.24
		c-0.047,1.554-0.376,2.801-0.376,2.801s-0.053,0.352,0.302,0.301c0.168-0.021,0.378-0.115,0.465-0.364
		c0.088-0.246,2.008-3.588,2.071-4.529C412.353,281.578,412.485,280.628,411.563,280.698z"/>
	<path fill="#FFFFFF" d="M410.22,286.046c0,0-1.417,4.372-1.529,4.683c-0.112,0.308-0.019,0.456-0.019,0.456l0.974,0.329
		l-0.038,0.141h-1.263l-0.355-0.189c0.065-0.12,0.3-0.41,0.392-0.681c0.095-0.273,0.179-1.853,0.46-3.095
		c0.28-1.244,1.045-1.76,1.045-1.76s0.111-0.097,0.226-0.069C410.224,285.889,410.237,285.995,410.22,286.046z"/>
	<path fill="#FFFFFF" d="M413.414,286.068c0,0,1.577,4.318,1.678,4.63c0.103,0.312,0.268,0.372,0.268,0.372l0.968-0.341l0.057,0.133
		l-0.995,0.778l-0.406-0.011c-0.024-0.136-0.007-0.426-0.1-0.697c-0.094-0.272-1-1.568-1.545-2.722
		c-0.544-1.151-0.258-2.029-0.258-2.029s0.028-0.145,0.134-0.194C413.321,285.941,413.396,286.018,413.414,286.068z"/>
	<path fill="#FFFFFF" d="M411.307,276.852c0,0-0.234-0.359-0.046-0.826s-0.621-0.211-0.621-0.211l-0.066,0.877
		c-0.036,0.475,0.47,0.598,0.656,0.497C411.414,277.089,411.307,276.852,411.307,276.852z"/>
	<path fill="#FFFFFF" d="M412.652,281.689c0,0,0.138-1.343-0.314-2.859c0,0,0.185-0.406,0.068-0.668
		c-0.117-0.264-1.144-1.445-1.216-1.721l-0.598-0.131c0,0-0.587,0.85-0.52,1.84c0.072,1.047-0.037,2.264-0.037,2.438
		c0,0.201-0.115,1.102-0.115,1.102H412.652z"/>
	<path fill="#FFFFFF" d="M411.653,279.805c-0.417-0.495-0.887-1.863-1-2.098c-0.112-0.238-0.155-0.814,0.18-0.891
		c0.335-0.073,0.52,0.248,0.52,0.248s0.05,0.041,0.223,0.66c0.323,1.162,0.565,1.659,0.725,1.998c0,0,0.094,0.225-0.222,0.288
		C411.818,280.06,411.653,279.805,411.653,279.805z"/>
	<path fill="#FFFFFF" d="M412.008,280.018c0,0,0.474,0.009,1.281-0.474c0.229-0.139,0.4-0.277,0.4-0.277s0.454,0.12,0.636,0.052
		c0.183-0.067,0.313-0.213,0.313-0.213l-0.322,0.018c0,0,0.276-0.253,0.578-0.173l0.121,0.021l0.016-0.086
		c0,0-0.137-0.116-0.314-0.14c-0.178-0.021-1.081,0.318-1.081,0.318c-0.157,0.106-1.155,0.362-1.43,0.435
		c-0.084,0.024-0.161,0.058-0.257,0.105c0,0-0.177,0.075-0.142,0.243C411.843,280.013,412.008,280.018,412.008,280.018z"/>
	<path fill="#FFFFFF" d="M411.857,274.318c-0.002-0.028-0.003-0.045-0.003-0.045h-0.002c-0.001-0.007-0.001-0.014-0.003-0.021
		c-0.097-0.665-0.611-1.14-1.148-1.061c-0.538,0.077-0.896,0.678-0.798,1.345c0.001,0.007,0.002,0.013,0.003,0.021l0,0
		c0,0,0,0.001,0.001,0.005c0.017,0.097,0.041,0.189,0.073,0.278c0.139,0.454,0.485,1.286,1.136,1.19h0.001
		c0.666-0.097,0.749-1.037,0.747-1.499C411.866,274.462,411.865,274.39,411.857,274.318z"/>
	<path fill="#FFFFFF" d="M411.849,274.252c0,0,0.09,0.445,0.154,0.517c0.066,0.071-0.159,0.146-0.159,0.146l-0.1-0.022
		L411.849,274.252z"/>
	<g>
		<path fill="#FFFFFF" d="M410.672,275.21c-0.173,0-0.314-0.14-0.314-0.313s0.141-0.314,0.314-0.314
			c0.172,0,0.313,0.142,0.313,0.314S410.845,275.21,410.672,275.21z M410.672,274.619c-0.154,0-0.28,0.124-0.28,0.279
			c0,0.152,0.125,0.279,0.28,0.279c0.154,0,0.279-0.127,0.279-0.279C410.951,274.743,410.826,274.619,410.672,274.619z"/>
	</g>
	<path fill="#FFFFFF" d="M410.57,274.686c-0.035-0.31,0.144-0.265,0.363-0.413c0.218-0.149,0.105-0.41,0.183-0.572
		c0.078-0.161,0.561,0.073,0.587,0.014c0.026-0.06-0.086-0.222-0.086-0.222s-0.546-0.688-1.244-0.338
		c-0.822,0.41-0.688,1.352-0.688,1.352s0.353,1.476,0.703,1.075C410.606,275.333,410.57,274.686,410.57,274.686z"/>
	<circle fill="#FFFFFF" cx="411.668" cy="273.476" r="0.207"/>
	<circle fill="#FFFFFF" cx="411.295" cy="273.106" r="0.204"/>
	<circle fill="#FFFFFF" cx="410.499" cy="273.001" r="0.204"/>
	<circle fill="#FFFFFF" cx="410.058" cy="273.259" r="0.204"/>
	<circle fill="#FFFFFF" cx="411.071" cy="272.984" r="0.137"/>
	<circle fill="#FFFFFF" cx="411.499" cy="273.285" r="0.138"/>
	<circle fill="#FFFFFF" cx="410.875" cy="273.056" r="0.138"/>
	<circle fill="#FFFFFF" cx="410.215" cy="273.106" r="0.138"/>
	<circle fill="#FFFFFF" cx="410.726" cy="272.938" r="0.143"/>
	<path fill="#FFFFFF" d="M410.029,273.476c0,0.08-0.063,0.146-0.143,0.146c-0.079,0-0.143-0.065-0.143-0.146
		c0-0.077,0.064-0.142,0.143-0.142C409.965,273.334,410.029,273.399,410.029,273.476z"/>
	<circle fill="#FFFFFF" cx="409.774" cy="273.808" r="0.143"/>
	<circle fill="#FFFFFF" cx="409.676" cy="274.468" r="0.143"/>
	<circle fill="#FFFFFF" cx="409.794" cy="274.831" r="0.143"/>
	<circle fill="#FFFFFF" cx="409.714" cy="274.077" r="0.143"/>
	<circle fill="#FFFFFF" cx="409.676" cy="274.252" r="0.143"/>
	<circle fill="#FFFFFF" cx="410.894" cy="272.901" r="0.079"/>
	<circle fill="#FFFFFF" cx="410.295" cy="272.984" r="0.08"/>
	<circle fill="#FFFFFF" cx="409.735" cy="273.601" r="0.08"/>
	<circle fill="#FFFFFF" cx="409.855" cy="273.316" r="0.08"/>
	<circle fill="#FFFFFF" cx="410.356" cy="273.146" r="0.08"/>
	<circle fill="#FFFFFF" cx="411.52" cy="273.106" r="0.059"/>
	<circle fill="#FFFFFF" cx="409.713" cy="273.685" r="0.059"/>
	<circle fill="#FFFFFF" cx="409.618" cy="273.951" r="0.059"/>
	<circle fill="#FFFFFF" cx="409.702" cy="273.933" r="0.059"/>
	<circle fill="#FFFFFF" cx="409.651" cy="273.866" r="0.058"/>
	<circle fill="#FFFFFF" cx="409.592" cy="274.611" r="0.059"/>
	<circle fill="#FFFFFF" cx="409.805" cy="274.973" r="0.059"/>
	<circle fill="#FFFFFF" cx="409.946" cy="275.285" r="0.073"/>
	<circle fill="#FFFFFF" cx="410.304" cy="275.629" r="0.073"/>
	<circle fill="#FFFFFF" cx="410.135" cy="275.571" r="0.073"/>
	<circle fill="#FFFFFF" cx="409.902" cy="275.21" r="0.059"/>
	<circle fill="#FFFFFF" cx="410.201" cy="275.644" r="0.058"/>
	<circle fill="#FFFFFF" cx="410.055" cy="275.511" r="0.058"/>
	<circle fill="#FFFFFF" cx="409.688" cy="274.629" r="0.059"/>
	<circle fill="#FFFFFF" cx="409.676" cy="274.706" r="0.096"/>
	<circle fill="#FFFFFF" cx="409.864" cy="275.092" r="0.096"/>
	<circle fill="#FFFFFF" cx="409.996" cy="275.417" r="0.095"/>
	<circle fill="#FFFFFF" cx="409.831" cy="273.636" r="0.059"/>
	<circle fill="#FFFFFF" cx="409.761" cy="273.541" r="0.059"/>
	<circle fill="#FFFFFF" cx="409.571" cy="274.134" r="0.059"/>
	<path fill="#FFFFFF" d="M411.765,273.192c0,0.068-0.054,0.124-0.122,0.124c-0.068,0-0.124-0.056-0.124-0.124
		c0-0.065,0.056-0.122,0.124-0.122C411.711,273.07,411.765,273.126,411.765,273.192z"/>
	<circle fill="#FFFFFF" cx="411.688" cy="273.636" r="0.095"/>
	<path fill="#FFFFFF" d="M412.652,281.689c0,0,1.931,5.969,2.043,6.829s-0.869,0.761-1.123,0.612
		c-0.252-0.149-0.759-2.452-1.327-3.041c-0.567-0.59-1.09-1.438-1.09-1.438s-1.355,4.098-1.487,4.246
		c-0.133,0.149-1.173-0.23-1.24-0.362c-0.065-0.133,1.371-5.611,1.492-6.847C410.042,280.452,412.652,281.689,412.652,281.689z"/>
</g>
<g>
	<rect x="345.431" y="279.864" fill="none" stroke="#FFFFFF" stroke-miterlimit="10" width="22.146" height="2.483"/>
	<line fill="#7CB9E0" stroke="#FFFFFF" stroke-miterlimit="10" x1="345.431" y1="282.347" x2="345.431" y2="287.539"/>
	<line fill="#7CB9E0" stroke="#FFFFFF" stroke-miterlimit="10" x1="367.576" y1="282.347" x2="367.576" y2="287.572"/>
</g>
<g>
	<path fill="#FFFFFF" d="M622.255,277.969c-0.23,1.234-1.871,1.736-2.152,1.789c-0.379,0.086-0.924,0.135-1.705,0.074
		c-2.105-0.165-5.594-0.098-5.594-0.098s-0.484,0.021-0.363-0.452c0.057-0.223,0.215-0.491,0.561-0.574
		c0.348-0.081,6.904-1.988,8.182-1.935C621.183,276.774,622.486,276.735,622.255,277.969z"/>
	<path fill="#FFFFFF" d="M612.429,279.412c0,0,0.57,6.221,0.627,6.664c0.055,0.441-0.113,0.611-0.113,0.611l-1.391,0.521
		l0.008,0.196h1.676l0.527-0.142c-0.051-0.18-0.273-0.634-0.316-1.022c-0.043-0.387,0.32-2.506,0.32-4.237
		c0-1.732-0.859-2.644-0.859-2.644s-0.119-0.164-0.279-0.161C612.472,279.202,612.423,279.342,612.429,279.412z"/>
	<path fill="#FFFFFF" d="M620.162,275.05c0.381-0.466,1.32-3.425,1.422-3.646c0.102-0.221,0.135-0.761-0.178-0.823
		c-0.314-0.066-0.48,0.234-0.48,0.234s-0.309,0.72-0.717,2.298c-0.281,1.087-0.506,1.551-0.65,1.867c0,0-0.086,0.213,0.209,0.267
		C620.011,275.288,620.162,275.05,620.162,275.05z"/>
	<path fill="#FFFFFF" d="M620.136,275.322c0,0-0.412,0.553-1.689,1.046c-1.275,0.494-1.949,0.842-1.949,0.842
		s-0.268,0.629-0.51,0.778c-0.242,0.15-0.525,0.168-0.525,0.168l0.311-0.352c0,0-0.541,0.088-0.719,0.507l-0.082,0.158l-0.113-0.061
		c0,0-0.014-0.261,0.121-0.484c0.133-0.224,1.332-0.957,1.332-0.957c0.262-0.086,2.719-1.632,3.049-1.882
		c0.104-0.078,0.211-0.133,0.354-0.202c0,0,0.242-0.136,0.404,0.055C620.279,275.127,620.136,275.322,620.136,275.322z"/>
	<path fill="#FFFFFF" d="M620.896,270.053c0,0,0.258-0.4,0.051-0.916c-0.207-0.517,0.688-0.234,0.688-0.234l0.074,0.972
		c0.039,0.523-0.521,0.66-0.729,0.55C620.777,270.314,620.896,270.053,620.896,270.053z"/>
	<path fill="#FFFFFF" d="M619.337,277.182c0,0-0.305-1.807,0-3.882c0,0-0.254-0.553-0.094-0.909c0.158-0.358,1.553-1.966,1.65-2.338
		l0.813-0.179c0,0,0.357,1.201,0,2.501c-0.357,1.298-0.125,3.014-0.045,3.274c0.08,0.26,0.461,1.532,0.461,1.532H619.337z"/>
	<path fill="#FFFFFF" d="M620,267.043c0.002-0.038,0.004-0.06,0.004-0.06h0.002c0.002-0.008,0.004-0.019,0.006-0.027
		c0.127-0.869,0.799-1.491,1.502-1.388c0.703,0.103,1.17,0.891,1.045,1.76c-0.002,0.009-0.004,0.019-0.004,0.027l0,0
		c0,0,0,0.002-0.002,0.006c-0.021,0.127-0.053,0.249-0.096,0.365c-0.184,0.592-0.635,1.681-1.484,1.558h-0.004
		c-0.871-0.128-0.979-1.356-0.977-1.964C619.988,267.232,619.99,267.136,620,267.043z"/>
	<path fill="#FFFFFF" d="M620.011,266.957c0,0-0.119,0.585-0.203,0.675c-0.084,0.093,0.209,0.192,0.209,0.192l0.131-0.028
		L620.011,266.957z"/>
	<path fill="#FFFFFF" d="M620.478,275.124c0.301-0.52,0.738-3.594,0.803-3.829s0.008-0.771-0.314-0.784
		c-0.318-0.013-0.434,0.312-0.434,0.312s-0.184,0.76-0.328,2.385c-0.098,1.118-0.244,1.613-0.334,1.947c0,0-0.049,0.226,0.252,0.231
		C620.369,275.385,620.478,275.124,620.478,275.124z"/>
	<path fill="#FFFFFF" d="M620.478,274.987c0,0,0.023,0.689-0.664,1.873c-0.689,1.185-0.996,1.875-0.996,1.875
		s0.184,0.659,0.088,0.926c-0.094,0.269-0.305,0.459-0.305,0.459l0.021-0.468c0,0-0.365,0.406-0.242,0.846l0.033,0.174l-0.127,0.026
		c0,0-0.172-0.197-0.207-0.454c-0.033-0.259,0.443-1.581,0.443-1.581c0.15-0.229,1.104-2.973,1.203-3.375
		c0.031-0.124,0.082-0.237,0.148-0.379c0,0,0.105-0.257,0.352-0.209C620.47,274.747,620.478,274.987,620.478,274.987z"/>
	<g>
		<path fill="#FFFFFF" d="M621.138,267.801c0-0.228,0.186-0.411,0.412-0.411s0.41,0.184,0.41,0.411c0,0.227-0.184,0.409-0.41,0.409
			S621.138,268.028,621.138,267.801z M621.183,267.801c0,0.201,0.166,0.364,0.367,0.364s0.365-0.163,0.365-0.364
			s-0.164-0.366-0.365-0.366S621.183,267.6,621.183,267.801z"/>
	</g>
	<path fill="#FFFFFF" d="M621.683,267.525c0.045-0.406-0.189-0.348-0.475-0.541c-0.287-0.193-0.139-0.536-0.24-0.747
		c-0.102-0.213-0.732,0.096-0.766,0.018s0.111-0.291,0.111-0.291s0.713-0.899,1.627-0.441c1.076,0.536,0.9,1.768,0.9,1.768
		s-0.461,1.931-0.92,1.407C621.636,268.368,621.683,267.525,621.683,267.525z"/>
	
		<ellipse transform="matrix(0.9725 -0.2328 0.2328 0.9725 -44.8889 152.2411)" fill="#FFFFFF" cx="622.667" cy="266.334" rx="0.564" ry="0.741"/>
	<path fill="#FFFFFF" d="M621.923,265.388c0,0,0.764-0.099,1.055,0.214c0.291,0.313,0.441,0.936,0.107,1.287
		C622.751,267.243,621.923,265.388,621.923,265.388z"/>
	<path fill="#FFFFFF" d="M620.988,265.436c0,0,0.357-0.193,0.852-0.118c0.492,0.076,1.26,1.478,1.289,1.571
		c0.027,0.095-0.059,0.523-0.135,0.594C622.912,267.552,620.988,265.436,620.988,265.436z"/>
	<path fill="#FFFFFF" d="M623.048,267.473c-0.033,0.277-0.471,0.823-0.471,0.823c-1.156-0.569-2.168-2.439-2.168-2.439
		s0.248-0.353,0.521-0.465S622.996,267.361,623.048,267.473z"/>
	<path fill="#FFFFFF" d="M612.421,279.331c0,0-0.035,5.792,0,6.25c0.035,0.457,1.775,0.319,1.959,0.275
		c0.182-0.046-0.779-6.136-0.139-6.134c0.641,0.001-1.801-0.439-1.801-0.439"/>
</g>
<g>
	<rect x="615.546" y="279.864" fill="none" stroke="#FFFFFF" stroke-miterlimit="10" width="22.146" height="2.483"/>
	<line fill="#7CB9E0" stroke="#FFFFFF" stroke-miterlimit="10" x1="615.546" y1="282.347" x2="615.546" y2="287.539"/>
	<line fill="#7CB9E0" stroke="#FFFFFF" stroke-miterlimit="10" x1="637.693" y1="282.347" x2="637.693" y2="287.572"/>
</g>
<circle fill="#FFFFFF" cx="419.147" cy="275.453" r="1.099"/>
<g>
	<path fill="#FFFFFF" d="M554.855,275.84c1.047,0.37,1.262,1.873,1.268,2.127c0.025,0.341-0.006,0.825-0.166,1.5
		c-0.432,1.816-0.854,4.876-0.854,4.876s-0.047,0.426-0.443,0.257c-0.188-0.08-0.402-0.255-0.426-0.568
		c-0.023-0.315-0.791-6.307-0.57-7.418C553.664,276.614,553.808,275.471,554.855,275.84z"/>
	<path fill="#FFFFFF" d="M554.408,283.635c0,0,0.1,5.526,0.121,5.921s-0.139,0.532-0.139,0.532l-1.207,0.479l-0.006,0.175h1.428
		l0.449-0.188c-0.033-0.161-0.176-0.481-0.189-0.826s0.443-2.191,0.553-3.721c0.113-1.528-0.588-2.388-0.588-2.388
		s-0.094-0.15-0.234-0.16C554.455,283.453,554.406,283.573,554.408,283.635z"/>
	<path fill="#FFFFFF" d="M554.783,275.516c1.061,0.324,1.34,1.817,1.357,2.069c0.039,0.342,0.029,0.827-0.104,1.507
		c-0.355,1.835-0.643,4.908-0.643,4.908s-0.033,0.429-0.436,0.275c-0.191-0.071-0.41-0.237-0.449-0.55
		c-0.037-0.314-1.059-6.269-0.885-7.387C553.625,276.339,553.72,275.191,554.783,275.516z"/>
	<path fill="#FFFFFF" d="M554.597,283.669c0,0,0.504,5.504,0.555,5.896c0.049,0.391-0.1,0.542-0.1,0.542l-1.23,0.46l0.006,0.175
		h1.482l0.467-0.125c-0.043-0.159-0.242-0.562-0.279-0.904c-0.037-0.344,0.281-2.219,0.281-3.751s-0.758-2.34-0.758-2.34
		s-0.105-0.144-0.248-0.142C554.634,283.484,554.593,283.606,554.597,283.669z"/>
	<path fill="#FFFFFF" d="M554.205,274.867c0.336-0.411,1.168-3.029,1.256-3.227c0.092-0.194,0.121-0.671-0.156-0.729
		c-0.275-0.058-0.424,0.209-0.424,0.209s-0.273,0.637-0.637,2.032c-0.248,0.964-0.447,1.373-0.574,1.653
		c0,0-0.074,0.187,0.186,0.234C554.07,275.078,554.205,274.867,554.205,274.867z"/>
	<path fill="#FFFFFF" d="M554.205,274.867c0,0,0.029,0.611-0.568,1.666c-0.594,1.053-0.859,1.67-0.859,1.67s0.172,0.581,0.09,0.818
		c-0.08,0.238-0.264,0.41-0.264,0.41l0.014-0.415c0,0-0.318,0.362-0.205,0.75l0.031,0.154l-0.113,0.024c0,0-0.154-0.174-0.188-0.4
		c-0.035-0.228,0.373-1.403,0.373-1.403c0.133-0.206,0.943-2.644,1.029-3c0.025-0.11,0.068-0.208,0.125-0.335
		c0,0,0.092-0.23,0.307-0.19C554.193,274.655,554.205,274.867,554.205,274.867z"/>
	<path fill="#FFFFFF" d="M554.855,270.445c0,0-0.031-0.362,0.045-0.81c0.082-0.485,0.605-0.208,0.605-0.208l0.068,0.86
		c0.035,0.463-0.463,0.584-0.645,0.487C554.75,270.676,554.855,270.445,554.855,270.445z"/>
	<path fill="#FFFFFF" d="M553.474,276.754c0,0-0.268-1.599,0-3.437c0,0-0.225-0.488-0.084-0.804
		c0.141-0.317,1.377-1.738,1.463-2.069l0.719-0.157c0,0,0.205,1.014,0.168,2.205c-0.049,1.37,0.133,2.553,0.119,2.863
		c-0.01,0.239,0.08,1.398,0.08,1.398H553.474z"/>
	<path fill="#FFFFFF" d="M555.939,276.754c0,0,0.379,1.224,0.297,2.923c-0.078,1.699,0.625,8.358,1.301,9.807
		c0.674,1.448-3.371,0.399-4.494,0c-1.127-0.399,0.49-9.771,0.432-12.729H555.939z"/>
	<path fill="#FFFFFF" d="M554.062,267.895c0-0.032,0.002-0.052,0.002-0.052l0.002,0.001c0.002-0.008,0.004-0.017,0.004-0.024
		c0.113-0.77,0.709-1.321,1.33-1.229c0.621,0.091,1.037,0.787,0.924,1.559c-0.002,0.006-0.004,0.016-0.004,0.023l0,0
		c0,0,0,0.001-0.002,0.003c-0.018,0.113-0.045,0.222-0.084,0.323c-0.16,0.525-0.561,1.489-1.313,1.38h-0.004
		c-0.77-0.113-0.865-1.201-0.863-1.738C554.05,268.061,554.052,267.98,554.062,267.895z"/>
	<path fill="#FFFFFF" d="M554.07,267.82c0,0-0.104,0.517-0.178,0.597c-0.074,0.082,0.184,0.169,0.184,0.169l0.115-0.024
		L554.07,267.82z"/>
	<path fill="#FFFFFF" d="M554.484,274.933c0.266-0.459,0.652-3.182,0.711-3.39c0.055-0.207,0.006-0.683-0.279-0.694
		c-0.281-0.01-0.383,0.278-0.383,0.278s-0.164,0.67-0.291,2.108c-0.088,0.99-0.215,1.428-0.295,1.724c0,0-0.043,0.198,0.223,0.201
		C554.386,275.164,554.484,274.933,554.484,274.933z"/>
	<path fill="#FFFFFF" d="M554.451,275.009c0,0-0.389,0.473-1.537,0.854c-1.15,0.381-1.76,0.66-1.76,0.66s-0.266,0.544-0.484,0.666
		s-0.471,0.127-0.471,0.127l0.289-0.299c0,0-0.48,0.055-0.656,0.419l-0.08,0.136l-0.098-0.057c0,0,0-0.233,0.127-0.424
		c0.129-0.192,1.221-0.789,1.221-0.789c0.236-0.063,2.473-1.325,2.775-1.532c0.094-0.064,0.193-0.108,0.32-0.165
		c0,0,0.219-0.107,0.355,0.065C554.585,274.845,554.451,275.009,554.451,275.009z"/>
	<g>
		<path fill="#FFFFFF" d="M555.068,268.566c0-0.199,0.164-0.363,0.365-0.363c0.199,0,0.363,0.164,0.363,0.363
			c0,0.201-0.164,0.363-0.363,0.363C555.232,268.929,555.068,268.767,555.068,268.566z M555.109,268.566
			c0,0.178,0.146,0.323,0.324,0.323s0.322-0.146,0.322-0.323c0-0.177-0.145-0.324-0.322-0.324S555.109,268.389,555.109,268.566z"/>
	</g>
	<path fill="#FFFFFF" d="M555.55,268.322c0.039-0.358-0.168-0.308-0.42-0.479s-0.121-0.474-0.213-0.661
		c-0.09-0.188-0.648,0.084-0.678,0.016c-0.031-0.068,0.1-0.258,0.1-0.258s0.631-0.796,1.439-0.392
		c0.951,0.475,0.797,1.564,0.797,1.564s-0.41,1.71-0.814,1.246C555.509,269.068,555.55,268.322,555.55,268.322z"/>
	
		<ellipse transform="matrix(0.9724 -0.2333 0.2333 0.9724 -47.0038 137.2108)" fill="#FFFFFF" cx="556.421" cy="267.268" rx="0.5" ry="0.656"/>
	<path fill="#FFFFFF" d="M555.763,266.431c0,0,0.674-0.088,0.932,0.189c0.258,0.276,0.393,0.827,0.096,1.139
		C556.496,268.073,555.763,266.431,555.763,266.431z"/>
	<path fill="#FFFFFF" d="M554.935,266.474c0,0,0.316-0.172,0.752-0.104c0.439,0.065,1.115,1.306,1.143,1.39
		c0.023,0.084-0.051,0.463-0.121,0.524C556.636,268.346,554.935,266.474,554.935,266.474z"/>
	<path fill="#FFFFFF" d="M556.757,268.276c-0.029,0.244-0.414,0.729-0.414,0.729c-1.025-0.505-1.918-2.158-1.918-2.158
		s0.217-0.313,0.459-0.413C555.126,266.336,556.71,268.176,556.757,268.276z"/>
</g>
<g>
	<path fill="#FFFFFF" d="M475.541,274.246c-0.32-0.549-1.109-3.826-1.18-4.073c-0.07-0.248,0.047-0.918,0.621-0.809
		c0.334,0.063,0.463,0.326,0.463,0.326s0.367,0.786,0.535,2.505c0.113,1.183,0.273,1.746,0.203,2.08c0,0-0.023,0.209-0.266,0.243
		C475.658,274.521,475.541,274.246,475.541,274.246z"/>
	<path fill="#FFFFFF" d="M475.494,273.976c0,0,0.059,0.445,0.68,1.117c0.984,1.064,1.465,1.648,1.465,1.648s0.17,0.646,0.352,0.887
		c0.182,0.239,0.455,0.364,0.455,0.364l-0.172-0.466c0,0,0.498,0.293,0.518,0.774l0.021,0.188l0.135-0.015
		c0,0,0.109-0.255,0.064-0.526c-0.047-0.271-0.955-1.451-0.955-1.451c-0.227-0.184-1.479-2.087-1.709-2.46
		c-0.072-0.114-0.158-0.212-0.271-0.333c0,0-0.189-0.227-0.42-0.101C475.423,273.73,475.494,273.976,475.494,273.976z"/>
	<g>
		<path fill="#FFFFFF" d="M475.466,269.679c0,0-0.148-0.3-0.525-0.372c-0.654-0.124-0.787,0.637-0.707,0.918
			c0.027,0.098,0.152,0.601,0.316,1.246l1.332-0.3C475.687,270.155,475.466,269.679,475.466,269.679z"/>
	</g>
	<path fill="#FFFFFF" d="M474.962,275.674c-1.127,0.708-0.984,2.518-0.926,2.817c0.063,0.404,0.479,1.528,0.744,2.313
		c1.113,3.288,1.73,3.671,1.73,3.671s0.373,0.557,0.793,0.256c0.197-0.141,0.4-0.402,0.346-0.775
		c-0.051-0.373-0.545-6.449-1.094-7.688C476.556,276.268,476.087,274.971,474.962,275.674z"/>
	<path fill="#FFFFFF" d="M478.326,292.316h0.578l1.607-0.846l-0.049-0.205l-1.455,0.235c0,0-0.064-0.036-0.133-0.144l-0.627,0.102
		C478.248,291.798,478.326,292.163,478.326,292.316z"/>
	<path fill="#FFFFFF" d="M478.724,290.905c-0.064-0.468-1.193-6.985-1.193-6.985c-0.012-0.076-0.098-0.205-0.26-0.164
		c-0.166,0.041-1.277,0.047-0.803,1.818c0.477,1.771,1.695,5.187,1.758,5.595c0.014,0.093,0.02,0.192,0.021,0.29l0.627-0.102
		C478.814,291.265,478.753,291.122,478.724,290.905z"/>
	<path fill="#FFFFFF" d="M475.412,274.679c-1.324,0.1-2.043,1.77-2.131,2.061c-0.135,0.389-0.145,0.966-0.275,1.785
		c-0.547,3.429-0.689,5.737-0.689,5.737s0.07,0.671,0.582,0.598c0.24-0.032,0.543-0.168,0.668-0.524
		c0.127-0.355,2.889-7.036,2.98-8.39C476.546,275.946,476.738,274.58,475.412,274.679z"/>
	<path fill="#FFFFFF" d="M474.871,268.554c0,0-0.271-0.423-0.051-0.97c0.217-0.548-1.035-0.33-1.035-0.33l0.068,1.272
		c-0.043,0.556,0.711,0.538,0.928,0.421C474.998,268.832,474.871,268.554,474.871,268.554z"/>
	<path fill="#FFFFFF" d="M476.525,276.105c0,0,0.32-1.914,0-4.113c0,0-0.303-3.006-1.65-3.438l-0.859-0.189
		c0,0-0.773,0.515-0.607,2.467c0.115,1.352,0.223,3.229,0.137,3.502c-0.086,0.275,0.031,1.771,0.031,1.771H476.525z"/>
	<path fill="#FFFFFF" d="M475.822,265.875c-0.002-0.04-0.006-0.062-0.006-0.062h-0.002c-0.002-0.011-0.002-0.02-0.004-0.028
		c-0.133-0.923-0.848-1.581-1.592-1.471c-0.744,0.109-1.24,0.68-1.105,1.601c0.002,0.009,0.004,0.019,0.004,0.028v0.001
		c0,0,0,0.002,0.002,0.006c0.021,0.136,0.057,0.265,0.102,0.385c0.193,0.63,0.672,1.782,1.574,1.652v-0.001
		c0.924-0.135,1.037-1.438,1.035-2.079C475.835,265.81,475.832,265.974,475.822,265.875z"/>
	<path fill="#FFFFFF" d="M475.81,265.785c0,0,0.125,0.354,0.215,0.452c0.09,0.097-0.223,0.201-0.223,0.201l-0.137-0.029
		L475.81,265.785z"/>
	<path fill="#FFFFFF" d="M473.347,274.333c-0.066-0.633,0.574-3.942,0.613-4.196c0.041-0.255,0.426-0.817,0.902-0.479
		c0.275,0.196,0.285,0.49,0.285,0.49s0.008,0.866-0.553,2.499c-0.387,1.125-0.475,1.703-0.676,1.978c0,0-0.109,0.182-0.342,0.111
		C473.341,274.63,473.347,274.333,473.347,274.333z"/>
	<path fill="#FFFFFF" d="M473.482,273.97c0,0-0.27,0.362-0.291,1.276c-0.035,1.45-0.096,2.203-0.096,2.203s-0.328,0.582-0.367,0.882
		c-0.037,0.297,0.074,0.578,0.074,0.578l0.199-0.454c0,0,0.154,0.556-0.168,0.916l-0.115,0.148l0.109,0.084
		c0,0,0.256-0.105,0.41-0.333c0.156-0.228,0.326-1.706,0.326-1.706c-0.035-0.29,0.395-2.526,0.486-2.954
		c0.029-0.134,0.035-0.264,0.039-0.429c0,0,0.021-0.294-0.232-0.364C473.603,273.746,473.482,273.97,473.482,273.97z"/>
	<path fill="#FFFFFF" d="M470.269,292.046l0.512,0.27h1.816l0.055-0.202l-1.4-0.471c0,0-0.039-0.062-0.049-0.188l-0.605-0.202
		C470.443,291.551,470.343,291.912,470.269,292.046z"/>
	<path fill="#FFFFFF" d="M471.279,290.984c0.16-0.444,2.199-6.738,2.199-6.738c0.023-0.072,0.008-0.226-0.154-0.267
		c-0.164-0.038-1.152-0.554-1.557,1.237c-0.404,1.788-0.916,5.379-1.051,5.769c-0.029,0.09-0.07,0.179-0.119,0.268l0.605,0.202
		C471.193,291.346,471.205,291.19,471.279,290.984z"/>
	<path fill="#FFFFFF" d="M474,265.9c-0.051-0.432,0.201,0.063,0.506-0.144s0.146-0.571,0.256-0.797
		c0.107-0.228,0.783,0.102,0.818,0.018s-0.121-0.312-0.121-0.312s-0.762-0.957-1.736-0.472c-1.148,0.575-0.961,1.72-0.961,1.72
		s0.494,1.797,0.98,1.236C474.048,266.802,474,265.9,474,265.9z"/>
	<g>
		<path fill="#FFFFFF" d="M475.171,270.145c0,0-0.01-0.334-0.324-0.557c-0.543-0.383-0.979,0.255-1.023,0.543
			c-0.016,0.099-0.111,0.61-0.229,1.265l1.336,0.279C475.177,270.67,475.171,270.145,475.171,270.145z"/>
	</g>
</g>
<g>
	<path fill="#FFFFFF" d="M255.203,274.246c0.322-0.549,1.11-3.826,1.179-4.073c0.07-0.248-0.047-0.918-0.621-0.809
		c-0.333,0.063-0.463,0.326-0.463,0.326s-0.368,0.786-0.533,2.505c-0.114,1.183-0.275,1.746-0.204,2.08c0,0,0.023,0.209,0.264,0.243
		C255.084,274.521,255.203,274.246,255.203,274.246z"/>
	<path fill="#FFFFFF" d="M255.249,273.976c0,0-0.058,0.445-0.679,1.117c-0.985,1.064-1.465,1.648-1.465,1.648
		s-0.169,0.646-0.351,0.887c-0.182,0.239-0.455,0.364-0.455,0.364l0.172-0.466c0,0-0.499,0.293-0.517,0.774l-0.022,0.188
		l-0.135-0.015c0,0-0.111-0.255-0.063-0.526c0.046-0.271,0.954-1.451,0.954-1.451c0.228-0.184,1.477-2.087,1.708-2.46
		c0.072-0.114,0.158-0.212,0.271-0.333c0,0,0.189-0.227,0.421-0.101C255.319,273.73,255.249,273.976,255.249,273.976z"/>
	<g>
		<path fill="#FFFFFF" d="M255.277,269.679c0,0,0.148-0.3,0.526-0.372c0.652-0.124,0.785,0.637,0.705,0.918
			c-0.026,0.098-0.15,0.601-0.316,1.246l-1.331-0.3C255.055,270.155,255.277,269.679,255.277,269.679z"/>
	</g>
	<path fill="#FFFFFF" d="M255.782,275.674c1.125,0.708,0.983,2.518,0.925,2.817c-0.061,0.404-0.478,1.528-0.744,2.313
		c-1.114,3.288-1.73,3.671-1.73,3.671s-0.374,0.557-0.793,0.256c-0.197-0.141-0.401-0.402-0.348-0.775s0.547-6.449,1.096-7.688
		C254.187,276.268,254.654,274.971,255.782,275.674z"/>
	<path fill="#FFFFFF" d="M252.417,292.316h-0.577l-1.607-0.846l0.047-0.205l1.457,0.235c0,0,0.063-0.036,0.132-0.144l0.628,0.102
		C252.496,291.798,252.416,292.163,252.417,292.316z"/>
	<path fill="#FFFFFF" d="M252.02,290.905c0.064-0.468,1.192-6.985,1.192-6.985c0.012-0.076,0.099-0.205,0.261-0.164
		c0.164,0.041,1.278,0.047,0.801,1.818c-0.476,1.771-1.695,5.187-1.757,5.595c-0.015,0.093-0.02,0.192-0.021,0.29l-0.628-0.102
		C251.927,291.265,251.99,291.122,252.02,290.905z"/>
	<path fill="#FFFFFF" d="M255.331,274.679c1.325,0.1,2.043,1.77,2.13,2.061c0.135,0.389,0.146,0.966,0.276,1.785
		c0.546,3.429,0.689,5.737,0.689,5.737s-0.07,0.671-0.582,0.598c-0.241-0.032-0.543-0.168-0.669-0.524
		c-0.126-0.355-2.888-7.036-2.979-8.39C254.197,275.946,254.005,274.58,255.331,274.679z"/>
	<path fill="#FFFFFF" d="M255.87,268.554c0,0,0.274-0.423,0.054-0.97c-0.218-0.548,1.035-0.33,1.035-0.33l-0.07,1.272
		c0.042,0.556-0.711,0.538-0.928,0.421C255.745,268.832,255.87,268.554,255.87,268.554z"/>
	<path fill="#FFFFFF" d="M254.219,276.105c0,0-0.321-1.914,0-4.113c0,0,0.302-3.006,1.65-3.438l0.86-0.189
		c0,0,0.771,0.515,0.605,2.467c-0.115,1.352-0.222,3.229-0.136,3.502c0.086,0.275-0.03,1.771-0.03,1.771H254.219z"/>
	<path fill="#FFFFFF" d="M254.921,265.875c0.002-0.04,0.005-0.062,0.005-0.062h0.002c0.001-0.011,0.002-0.02,0.003-0.028
		c0.135-0.923,0.848-1.581,1.592-1.471c0.745,0.109,1.24,0.68,1.105,1.601c-0.001,0.009-0.003,0.019-0.004,0.028l0,0.001
		c0,0,0,0.002-0.001,0.006c-0.021,0.136-0.057,0.265-0.102,0.385c-0.192,0.63-0.672,1.782-1.572,1.652l-0.003-0.001
		c-0.922-0.135-1.036-1.438-1.035-2.079C254.908,265.81,254.911,265.974,254.921,265.875z"/>
	<path fill="#FFFFFF" d="M254.932,265.785c0,0-0.124,0.354-0.213,0.452c-0.09,0.097,0.22,0.201,0.22,0.201l0.139-0.029
		L254.932,265.785z"/>
	<path fill="#FFFFFF" d="M257.396,274.333c0.065-0.633-0.575-3.942-0.615-4.196c-0.04-0.255-0.423-0.817-0.901-0.479
		c-0.276,0.196-0.286,0.49-0.286,0.49s-0.009,0.866,0.553,2.499c0.387,1.125,0.474,1.703,0.676,1.978c0,0,0.109,0.182,0.341,0.111
		C257.403,274.63,257.396,274.333,257.396,274.333z"/>
	<path fill="#FFFFFF" d="M257.261,273.97c0,0,0.27,0.362,0.291,1.276c0.035,1.45,0.097,2.203,0.097,2.203s0.329,0.582,0.365,0.882
		c0.037,0.297-0.072,0.578-0.072,0.578l-0.201-0.454c0,0-0.154,0.556,0.168,0.916l0.115,0.148l-0.107,0.084
		c0,0-0.256-0.105-0.412-0.333c-0.156-0.228-0.327-1.706-0.327-1.706c0.036-0.29-0.393-2.526-0.487-2.954
		c-0.029-0.134-0.034-0.264-0.038-0.429c0,0-0.021-0.294,0.233-0.364C257.141,273.746,257.261,273.97,257.261,273.97z"/>
	<path fill="#FFFFFF" d="M260.473,292.046l-0.511,0.27h-1.816l-0.054-0.202l1.399-0.471c0,0,0.039-0.062,0.049-0.188l0.604-0.202
		C260.301,291.551,260.4,291.912,260.473,292.046z"/>
	<path fill="#FFFFFF" d="M259.464,290.984c-0.161-0.444-2.2-6.738-2.2-6.738c-0.023-0.072-0.006-0.226,0.154-0.267
		c0.166-0.038,1.153-0.554,1.557,1.237c0.403,1.788,0.916,5.379,1.05,5.769c0.031,0.09,0.072,0.179,0.118,0.268l-0.604,0.202
		C259.55,291.346,259.539,291.19,259.464,290.984z"/>
	<path fill="#FFFFFF" d="M256.745,265.9c0.048-0.432-0.202,0.063-0.507-0.144c-0.306-0.207-0.147-0.571-0.257-0.797
		c-0.108-0.228-0.782,0.102-0.818,0.018c-0.036-0.084,0.121-0.312,0.121-0.312s0.762-0.957,1.736-0.472
		c1.149,0.575,0.961,1.72,0.961,1.72s-0.492,1.797-0.98,1.236C256.694,266.802,256.745,265.9,256.745,265.9z"/>
	<g>
		<path fill="#FFFFFF" d="M255.572,270.145c0,0,0.011-0.334,0.325-0.557c0.542-0.383,0.977,0.255,1.022,0.543
			c0.016,0.099,0.111,0.61,0.229,1.265l-1.336,0.279C255.566,270.67,255.572,270.145,255.572,270.145z"/>
	</g>
</g>
<g>
	<path fill="#FFFFFF" d="M543.07,271.944c-0.564-0.248-3.053-2.37-3.246-2.524c-0.197-0.155-0.486-0.748,0.027-0.988
		c0.295-0.142,0.549-0.008,0.549-0.008s0.734,0.405,1.846,1.66c0.764,0.865,1.211,1.213,1.344,1.514c0,0,0.104,0.181-0.066,0.343
		C543.32,272.09,543.07,271.944,543.07,271.944z"/>
	<path fill="#FFFFFF" d="M543.279,272.007c0,0,0.438-0.007,1.154-0.529c1.135-0.829,1.752-1.226,1.752-1.226l-0.189-0.43
		c-0.201,0.198-2.174,1.187-2.561,1.367c-0.119,0.056-0.223,0.128-0.352,0.224c0,0-0.24,0.157-0.145,0.395
		S543.279,272.007,543.279,272.007z"/>
	<path fill="#FFFFFF" d="M540.3,274.615c-1.092,0.685-0.953,2.441-0.898,2.73c0.061,0.394,0.465,1.482,0.723,2.243
		c1.08,3.19,1.678,3.559,1.678,3.559s0.363,0.543,0.768,0.251c0.193-0.138,0.393-0.391,0.338-0.753
		c-0.053-0.361-0.529-6.254-1.061-7.456C541.847,275.189,541.392,273.931,540.3,274.615z"/>
	<path fill="#FFFFFF" d="M543.562,290.751h0.561l1.559-0.821l-0.045-0.196l-1.414,0.228c0,0-0.061-0.036-0.127-0.14l-0.609,0.099
		C543.486,290.25,543.564,290.602,543.562,290.751z"/>
	<path fill="#FFFFFF" d="M543.947,289.383c-0.061-0.454-1.154-6.774-1.154-6.774c-0.014-0.073-0.098-0.199-0.254-0.16
		c-0.158,0.042-1.238,0.047-0.777,1.765c0.461,1.717,1.645,5.029,1.705,5.426c0.014,0.089,0.02,0.185,0.02,0.281l0.609-0.099
		C544.039,289.733,543.976,289.593,543.947,289.383z"/>
	<path fill="#FFFFFF" d="M540.736,273.65c-1.285,0.096-1.98,1.715-2.066,1.997c-0.131,0.376-0.143,0.937-0.266,1.729
		c-0.531,3.326-0.67,5.566-0.67,5.566s0.068,0.647,0.566,0.578c0.232-0.032,0.523-0.163,0.646-0.507
		c0.123-0.345,2.803-6.825,2.891-8.137C541.837,274.877,542.021,273.552,540.736,273.65z"/>
	<path fill="#FFFFFF" d="M540.212,267.708c0,0-0.262-0.408-0.051-0.939c0.213-0.53-1.004-0.32-1.004-0.32l0.051,1.259
		c-0.041,0.537,0.707,0.498,0.918,0.384C540.337,267.978,540.212,267.708,540.212,267.708z"/>
	<path fill="#FFFFFF" d="M541.816,275.031c0,0,0.311-1.854,0-3.988c0,0-0.293-2.916-1.602-3.335l-0.832-0.183
		c0,0-0.748,0.501-0.588,2.393c0.111,1.312,0.215,3.13,0.133,3.397c-0.084,0.266,0.027,1.716,0.027,1.716H541.816z"/>
	<path fill="#FFFFFF" d="M541.134,265.156c-0.002-0.038-0.004-0.061-0.004-0.061l-0.004,0.001c0-0.011,0-0.02-0.004-0.028
		c-0.131-0.894-0.822-1.532-1.543-1.426c-0.723,0.105-1.203,0.66-1.072,1.552c0.002,0.011,0.002,0.02,0.004,0.028l0,0
		c0,0,0,0.003,0.002,0.006c0.021,0.131,0.055,0.256,0.098,0.374c0.188,0.609,0.652,1.729,1.525,1.6h0.002
		c0.896-0.13,1.006-1.392,1.006-2.015C541.146,265.095,541.144,265.253,541.134,265.156z"/>
	<path fill="#FFFFFF" d="M541.123,265.068c0,0,0.121,0.345,0.207,0.438c0.088,0.095-0.213,0.196-0.213,0.196l-0.133-0.029
		L541.123,265.068z"/>
	<path fill="#FFFFFF" d="M541.23,273.266c-0.396-0.472-1.689-3.473-1.797-3.699c-0.107-0.226-0.107-0.885,0.461-0.875
		c0.328,0.007,0.496,0.237,0.496,0.237s0.48,0.69,0.922,2.305c0.305,1.112,0.549,1.624,0.537,1.953c0,0,0.012,0.206-0.213,0.276
		C541.388,273.509,541.23,273.266,541.23,273.266z"/>
	<path fill="#FFFFFF" d="M541.142,272.904c0,0-0.02,0.438,0.463,1.181c0.764,1.181,1.127,1.818,1.127,1.818s0.053,0.646,0.188,0.905
		c0.133,0.259,0.373,0.424,0.373,0.424l-0.088-0.473c0,0,0.428,0.363,0.365,0.826l-0.01,0.183l0.133,0.009
		c0,0,0.146-0.225,0.146-0.492s-0.67-1.547-0.67-1.547c-0.188-0.212-1.063-2.238-1.223-2.633c-0.049-0.124-0.115-0.229-0.203-0.363
		c0,0-0.143-0.249-0.385-0.166C541.117,272.658,541.142,272.904,541.142,272.904z"/>
	<path fill="#FFFFFF" d="M535.75,290.492l0.496,0.26h1.762l0.053-0.195l-1.357-0.457c0,0-0.037-0.061-0.047-0.184l-0.588-0.195
		C535.916,290.011,535.822,290.359,535.75,290.492z"/>
	<path fill="#FFFFFF" d="M536.728,289.46c0.158-0.431,2.133-6.532,2.133-6.532c0.023-0.072,0.008-0.222-0.15-0.262
		c-0.158-0.036-1.117-0.537-1.51,1.198c-0.389,1.735-0.887,5.218-1.018,5.597c-0.029,0.086-0.068,0.172-0.115,0.259l0.588,0.195
		C536.646,289.809,536.656,289.659,536.728,289.46z"/>
	<path fill="#FFFFFF" d="M539.365,265.181c-0.045-0.421,0.195,0.061,0.492-0.141c0.297-0.199,0.145-0.554,0.248-0.773
		c0.107-0.219,0.76,0.1,0.795,0.019c0.035-0.079-0.117-0.302-0.117-0.302s-0.738-0.93-1.686-0.457
		c-1.111,0.556-0.93,1.665-0.93,1.665s0.475,1.744,0.951,1.203C539.414,266.056,539.365,265.181,539.365,265.181z"/>
	<path fill="#FFFFFF" d="M541.097,265.866c0,0-0.436-0.109-0.658,0c-0.223,0.11-0.281,0.233-0.424,0.1
		c-0.145-0.133-0.281-0.977-0.281-0.977h-0.203l0.076,0.972c0,0-0.043,1.126,0.529,1.241c0,0,0.016,0.017,0.064,0.012
		c0.047-0.006,0.762-0.093,0.922-1.307C541.123,265.907,541.126,265.874,541.097,265.866z"/>
	<g>
		<path fill="#FFFFFF" d="M540.406,268.914c0,0-0.189-0.261-0.563-0.268c-0.645-0.013-0.645,0.735-0.521,0.993
			c0.041,0.089,0.242,0.55,0.506,1.138l1.223-0.504C540.699,269.332,540.406,268.914,540.406,268.914z"/>
	</g>
	<path fill="#FFFFFF" d="M545.82,270.008c0.063-0.062,0.117-0.126,0.154-0.172v-0.005l0.047-0.38l0.299-0.645l0.037-0.083
		c0.029-0.061,0.088-0.048,0.082,0.151l-0.1,0.29l0.006,0.025l0.344-0.226c0,0,0.072-0.048,0.092-0.024l0.127,0.135
		c0.014,0.009,0.012,0.021,0.006,0.035l-0.016,0.26c0.002,0.031-0.047,0.104-0.047,0.104l-0.039,0.248
		c-0.006,0.017-0.029,0.132-0.029,0.132l-0.148,0.144l-0.273,0.193l-0.178,0.084c0,0-0.211,0.104-0.33,0.003
		C545.736,270.177,545.769,270.059,545.82,270.008z"/>
	<path fill="#FFFFFF" d="M545.82,270.008c0.063-0.062,0.117-0.126,0.154-0.172v-0.005l0.047-0.38l0.299-0.645l0.037-0.083
		c0.029-0.061,0.088-0.048,0.082,0.151l-0.1,0.29l0.006,0.025l-0.162,1.084c0,0-0.211,0.104-0.33,0.003
		C545.736,270.177,545.769,270.059,545.82,270.008z"/>
</g>
<polyline fill="none" stroke="#FFFFFF" stroke-miterlimit="10" points="561.724,236.289 600.716,207.202 640.119,236.289 "/>
</svg>
