<?xml version="1.0" encoding="utf-8"?>
<!-- Generator: Adobe Illustrator 16.0.0, SVG Export Plug-In . SVG Version: 6.00 Build 0)  -->
<!DOCTYPE svg PUBLIC "-//W3C//DTD SVG 1.1//EN" "http://www.w3.org/Graphics/SVG/1.1/DTD/svg11.dtd">
<svg version="1.1" id="Capa_1" xmlns="http://www.w3.org/2000/svg" xmlns:xlink="http://www.w3.org/1999/xlink" x="0px" y="0px"
	 width="841.89px" height="392.28px" viewBox="0 0 841.89 392.28" enable-background="new 0 0 841.89 392.28" xml:space="preserve">
<g>
	<path fill="none" stroke="#FFFFFF" stroke-miterlimit="10" d="M751.242,176.142c-21.93-11.066-47.769-18.01-80.185-18.01
		c-17.854,0-33.712,2.106-48.021,5.847"/>
</g>
<g>
	<path fill="none" stroke="#FFFFFF" stroke-miterlimit="10" d="M426.196,141.037c-33.399-21.751-73.546-36.384-127.552-36.384
		c-85.128,0-135.826,36.335-179.942,79.613"/>
	<path fill="none" stroke="#FFFFFF" stroke-miterlimit="10" d="M470.919,176.925c-9.164-8.643-18.667-16.926-28.745-24.601"/>
</g>
<g>
	<polyline fill="none" stroke="#FFFFFF" stroke-miterlimit="10" points="481.041,183.823 481.041,153.554 470.918,153.554 
		470.918,194.846 	"/>
	<path fill="none" stroke="#FFFFFF" stroke-miterlimit="10" d="M531.519,150.251c-1.247-6.886-7.271-12.105-14.516-12.105h-25.329
		l2.115-2.078l-5.592-2.731l8.297,0.077l4.734-4.648l-5.594-2.73l8.297,0.078l4.704-4.619l-0.377-0.387
		c-4.685-4.77-12.349-4.84-17.119-0.155l-15.159,14.881l-15.159-14.881c-4.771-4.685-12.437-4.614-17.119,0.155l-0.378,0.387
		l4.704,4.619l8.298-0.078l-5.594,2.73l4.734,4.648l8.297-0.077l-5.592,2.731l2.114,2.078h-25.33
		c-8.147,0-14.753,6.604-14.753,14.752v0.656h8.032l7.152-7.15l-2.532,7.15h8.085l7.15-7.15l-2.532,7.15h30.422h28.523l-2.531-7.15
		l7.15,7.15h11.199l-2.532-7.15l6.946,6.945"/>
</g>
<path class="cloud-1" fill="none" stroke="#FFFFFF" stroke-miterlimit="10" d="M308.938,63.263c-2.885-8.848-10.942-15.353-20.605-15.951
	c0-0.014,0-0.031,0-0.046c0-19.299-15.643-34.942-34.942-34.942c-16.873,0-30.952,11.958-34.223,27.866
	c-0.915-0.124-1.845-0.191-2.792-0.191c-11.541,0-20.909,9.262-21.096,20.758h-0.007v8.993h92.929h21.867h17.97
	C322.66,65.814,316.072,63.433,308.938,63.263z"/>
<path class="cloud-2" fill="none" stroke="#FFFFFF" stroke-miterlimit="10" d="M616.928,92.937c1.863-5.719,7.072-9.924,13.318-10.31
	c0-0.01,0-0.021,0-0.03c0-12.475,10.11-22.586,22.585-22.586c10.906,0,20.007,7.729,22.12,18.012
	c0.592-0.08,1.193-0.124,1.806-0.124c7.46,0,13.515,5.986,13.636,13.417h0.005v5.813H630.33h-14.133h-11.616
	C608.058,94.586,612.315,93.047,616.928,92.937z"/>
<g>
	<rect x="14.428" y="228.633" fill="none" stroke="#FFFFFF" stroke-miterlimit="10" width="150.026" height="98.079"/>
	<path fill="none" stroke="#FFFFFF" stroke-miterlimit="10" d="M93.258,175.521v-7.85h-7.5v7.819
		c-12.38,2.816-53.217,14.703-79.278,53.142h82.961h82.961C146.433,190.328,105.794,178.393,93.258,175.521z"/>
	<rect x="72.805" y="274.378" fill="none" stroke="#FFFFFF" stroke-miterlimit="10" width="33.273" height="52.334"/>
	<g>
		<path fill="none" stroke="#FFFFFF" stroke-miterlimit="10" d="M51.178,273.158c0-4.561-3.696-8.257-8.257-8.257
			c-4.559,0-8.257,3.696-8.257,8.257v17.285h16.514V273.158z"/>
	</g>
	<g>
		<path fill="none" stroke="#FFFFFF" stroke-miterlimit="10" d="M143.055,273.158c0-4.561-3.696-8.257-8.256-8.257
			c-4.561,0-8.257,3.696-8.257,8.257v17.285h16.513V273.158z"/>
	</g>
	<line fill="none" stroke="#FFFFFF" stroke-miterlimit="10" x1="6.48" y1="228.633" x2="6.48" y2="235.804"/>
	<line fill="none" stroke="#FFFFFF" stroke-miterlimit="10" x1="23.072" y1="228.633" x2="23.072" y2="235.804"/>
	<line fill="none" stroke="#FFFFFF" stroke-miterlimit="10" x1="39.665" y1="228.633" x2="39.665" y2="235.804"/>
	<line fill="none" stroke="#FFFFFF" stroke-miterlimit="10" x1="56.257" y1="228.633" x2="56.257" y2="235.804"/>
	<line fill="none" stroke="#FFFFFF" stroke-miterlimit="10" x1="72.85" y1="228.633" x2="72.85" y2="235.804"/>
	<line fill="none" stroke="#FFFFFF" stroke-miterlimit="10" x1="89.441" y1="228.633" x2="89.441" y2="235.804"/>
	<line fill="none" stroke="#FFFFFF" stroke-miterlimit="10" x1="106.033" y1="228.633" x2="106.033" y2="235.804"/>
	<line fill="none" stroke="#FFFFFF" stroke-miterlimit="10" x1="122.626" y1="228.633" x2="122.626" y2="235.804"/>
	<line fill="none" stroke="#FFFFFF" stroke-miterlimit="10" x1="139.218" y1="228.633" x2="139.218" y2="235.804"/>
	<line fill="none" stroke="#FFFFFF" stroke-miterlimit="10" x1="155.809" y1="228.633" x2="155.809" y2="235.804"/>
	<line fill="none" stroke="#FFFFFF" stroke-miterlimit="10" x1="172.402" y1="228.633" x2="172.402" y2="235.804"/>
</g>
<g>
	<rect x="682.604" y="228.633" fill="none" stroke="#FFFFFF" stroke-miterlimit="10" width="150.027" height="98.079"/>
	<path fill="none" stroke="#FFFFFF" stroke-miterlimit="10" d="M761.436,175.521v-7.85h-7.5v7.819
		c-12.38,2.816-53.217,14.703-79.278,53.142h82.961h82.961C814.61,190.328,773.971,178.393,761.436,175.521z"/>
	<rect x="740.981" y="274.378" fill="none" stroke="#FFFFFF" stroke-miterlimit="10" width="33.273" height="52.334"/>
	<g>
		<path fill="none" stroke="#FFFFFF" stroke-miterlimit="10" d="M719.354,273.158c0-4.561-3.696-8.257-8.257-8.257
			c-4.559,0-8.256,3.696-8.256,8.257v17.285h16.513V273.158z"/>
	</g>
	<g>
		<path fill="none" stroke="#FFFFFF" stroke-miterlimit="10" d="M811.232,273.158c0-4.561-3.696-8.257-8.257-8.257
			c-4.56,0-8.257,3.696-8.257,8.257v17.285h16.514V273.158z"/>
	</g>
	<line fill="none" stroke="#FFFFFF" stroke-miterlimit="10" x1="674.657" y1="228.633" x2="674.657" y2="235.804"/>
	<line fill="none" stroke="#FFFFFF" stroke-miterlimit="10" x1="691.249" y1="228.633" x2="691.249" y2="235.804"/>
	<line fill="none" stroke="#FFFFFF" stroke-miterlimit="10" x1="707.842" y1="228.633" x2="707.842" y2="235.804"/>
	<line fill="none" stroke="#FFFFFF" stroke-miterlimit="10" x1="724.435" y1="228.633" x2="724.435" y2="235.804"/>
	<line fill="none" stroke="#FFFFFF" stroke-miterlimit="10" x1="741.026" y1="228.633" x2="741.026" y2="235.804"/>
	<line fill="none" stroke="#FFFFFF" stroke-miterlimit="10" x1="757.618" y1="228.633" x2="757.618" y2="235.804"/>
	<line fill="none" stroke="#FFFFFF" stroke-miterlimit="10" x1="774.211" y1="228.633" x2="774.211" y2="235.804"/>
	<line fill="none" stroke="#FFFFFF" stroke-miterlimit="10" x1="790.804" y1="228.633" x2="790.804" y2="235.804"/>
	<line fill="none" stroke="#FFFFFF" stroke-miterlimit="10" x1="807.396" y1="228.633" x2="807.396" y2="235.804"/>
	<line fill="none" stroke="#FFFFFF" stroke-miterlimit="10" x1="823.986" y1="228.633" x2="823.986" y2="235.804"/>
	<line fill="none" stroke="#FFFFFF" stroke-miterlimit="10" x1="840.579" y1="228.633" x2="840.579" y2="235.804"/>
</g>
<g>
	<polyline fill="none" stroke="#FFFFFF" stroke-miterlimit="10" points="472.187,207.659 472.187,206.168 656.678,206.168 
		656.678,326.777 472.187,326.777 	"/>
	<path fill="none" stroke="#FFFFFF" stroke-miterlimit="10" d="M469.92,206.168h94.513h102.017
		c-31.935-47.103-81.908-61.78-97.324-65.311v-9.653h-9.222v9.616c-14.854,3.38-63.025,17.377-95.124,61.964"/>
	<rect x="543.975" y="262.421" fill="none" stroke="#FFFFFF" stroke-miterlimit="10" width="40.916" height="64.356"/>
	<g>
		<path fill="none" stroke="#FFFFFF" stroke-miterlimit="10" d="M517.379,260.922c0-5.608-4.546-10.153-10.152-10.153
			c-5.607,0-10.154,4.545-10.154,10.153v21.256h20.307V260.922z"/>
	</g>
	<g>
		<path fill="none" stroke="#FFFFFF" stroke-miterlimit="10" d="M630.361,260.922c0-5.608-4.546-10.153-10.153-10.153
			s-10.152,4.545-10.152,10.153v21.256h20.306V260.922z"/>
	</g>
	<line fill="none" stroke="#FFFFFF" stroke-miterlimit="10" x1="482.817" y1="206.168" x2="482.817" y2="214.985"/>
	<line fill="none" stroke="#FFFFFF" stroke-miterlimit="10" x1="503.222" y1="206.168" x2="503.222" y2="214.985"/>
	<line fill="none" stroke="#FFFFFF" stroke-miterlimit="10" x1="523.625" y1="206.168" x2="523.625" y2="214.985"/>
	<line fill="none" stroke="#FFFFFF" stroke-miterlimit="10" x1="544.028" y1="206.168" x2="544.028" y2="214.985"/>
	<line fill="none" stroke="#FFFFFF" stroke-miterlimit="10" x1="564.433" y1="206.168" x2="564.433" y2="214.985"/>
	<line fill="none" stroke="#FFFFFF" stroke-miterlimit="10" x1="584.836" y1="206.168" x2="584.836" y2="214.985"/>
	<line fill="none" stroke="#FFFFFF" stroke-miterlimit="10" x1="605.238" y1="206.168" x2="605.238" y2="214.985"/>
	<line fill="none" stroke="#FFFFFF" stroke-miterlimit="10" x1="625.643" y1="206.168" x2="625.643" y2="214.985"/>
	<line fill="none" stroke="#FFFFFF" stroke-miterlimit="10" x1="646.045" y1="206.168" x2="646.045" y2="214.985"/>
	<line fill="none" stroke="#FFFFFF" stroke-miterlimit="10" x1="666.449" y1="206.168" x2="666.449" y2="214.985"/>
</g>
<g>
	<line fill="none" stroke="#FFFFFF" stroke-miterlimit="10" x1="271.381" y1="205.167" x2="268.702" y2="206.93"/>
	<polyline fill="none" stroke="#FFFFFF" stroke-miterlimit="10" points="268.286,207.204 235.722,228.633 369.891,228.633 
		504.059,228.633 411.418,167.672 369.891,167.672 328.361,167.672 278.83,200.265 	"/>
	<rect x="249.563" y="228.633" fill="none" stroke="#FFFFFF" stroke-miterlimit="10" width="240.652" height="98.079"/>
	<line fill="none" stroke="#FFFFFF" stroke-miterlimit="10" x1="252.492" y1="228.633" x2="252.492" y2="235.804"/>
	<line fill="none" stroke="#FFFFFF" stroke-miterlimit="10" x1="236.606" y1="228.633" x2="236.606" y2="235.804"/>
	<line fill="none" stroke="#FFFFFF" stroke-miterlimit="10" x1="269.264" y1="228.633" x2="269.264" y2="235.804"/>
	<line fill="none" stroke="#FFFFFF" stroke-miterlimit="10" x1="286.035" y1="228.633" x2="286.035" y2="235.804"/>
	<line fill="none" stroke="#FFFFFF" stroke-miterlimit="10" x1="302.807" y1="228.633" x2="302.807" y2="235.804"/>
	<line fill="none" stroke="#FFFFFF" stroke-miterlimit="10" x1="319.576" y1="228.633" x2="319.576" y2="235.804"/>
	<line fill="none" stroke="#FFFFFF" stroke-miterlimit="10" x1="336.348" y1="228.633" x2="336.348" y2="235.804"/>
	<line fill="none" stroke="#FFFFFF" stroke-miterlimit="10" x1="353.119" y1="228.633" x2="353.119" y2="235.804"/>
	<line fill="none" stroke="#FFFFFF" stroke-miterlimit="10" x1="369.891" y1="228.633" x2="369.891" y2="235.804"/>
	<line fill="none" stroke="#FFFFFF" stroke-miterlimit="10" x1="386.661" y1="228.633" x2="386.661" y2="235.804"/>
	<line fill="none" stroke="#FFFFFF" stroke-miterlimit="10" x1="403.433" y1="228.633" x2="403.433" y2="235.804"/>
	<line fill="none" stroke="#FFFFFF" stroke-miterlimit="10" x1="420.203" y1="228.633" x2="420.203" y2="235.804"/>
	<line fill="none" stroke="#FFFFFF" stroke-miterlimit="10" x1="436.975" y1="228.633" x2="436.975" y2="235.804"/>
	<line fill="none" stroke="#FFFFFF" stroke-miterlimit="10" x1="453.745" y1="228.633" x2="453.745" y2="235.804"/>
	<line fill="none" stroke="#FFFFFF" stroke-miterlimit="10" x1="470.517" y1="228.633" x2="470.517" y2="235.804"/>
	<line fill="none" stroke="#FFFFFF" stroke-miterlimit="10" x1="487.287" y1="228.633" x2="487.287" y2="235.804"/>
	<line fill="none" stroke="#FFFFFF" stroke-miterlimit="10" x1="504.059" y1="228.633" x2="504.059" y2="235.804"/>
	<g>
		<path fill="none" stroke="#FFFFFF" stroke-miterlimit="10" d="M386.661,291.295c0-9.345-7.575-16.917-16.919-16.917
			c-9.343,0-16.917,7.572-16.917,16.917v35.417h33.836V291.295z"/>
	</g>
	<rect x="294.109" y="256.788" fill="none" stroke="#FFFFFF" stroke-miterlimit="10" width="25.467" height="31.944"/>
	<rect x="422.289" y="256.788" fill="none" stroke="#FFFFFF" stroke-miterlimit="10" width="25.467" height="31.944"/>
</g>
<g>
	<path fill="none" stroke="#FFFFFF" stroke-miterlimit="10" d="M231.627,321.732h-2.11V207.204h-10.124v114.528h-2.109
		c-2.751,0-4.979,2.229-4.979,4.979h7.089h10.124h7.089C236.606,323.961,234.376,321.732,231.627,321.732z"/>
	<path fill="none" stroke="#FFFFFF" stroke-miterlimit="10" d="M265.479,191.795H240.15l2.115-2.077l-5.593-2.731l8.298,0.076
		l4.733-4.648l-5.593-2.73l8.297,0.078l4.704-4.619l-0.377-0.387c-4.684-4.769-12.349-4.839-17.12-0.154l-15.159,14.88
		l-15.159-14.88c-4.771-4.685-12.436-4.614-17.119,0.154l-0.377,0.387l4.704,4.619l8.298-0.078l-5.594,2.73l4.735,4.648l8.296-0.076
		l-5.592,2.731l2.115,2.077h-25.33c-8.147,0-14.753,6.604-14.753,14.752v0.657h8.033l7.151-7.151l-2.532,7.151h8.085l7.151-7.151
		l-2.532,7.151h30.421h28.523l-2.531-7.151l7.15,7.151h11.2l-2.532-7.151l7.15,7.151h6.814v-0.657
		C280.231,198.399,273.627,191.795,265.479,191.795z"/>
</g>
<g>
	<path fill="#FFFFFF" d="M-1.13,298.195c2.003,0.707,2.414,3.584,2.427,4.069c0.047,0.654-0.013,1.581-0.32,2.871
		c-0.828,3.478-1.631,9.332-1.631,9.332s-0.093,0.815-0.853,0.49c-0.357-0.152-0.767-0.488-0.813-1.089
		c-0.046-0.602-1.516-12.068-1.092-14.194C-3.411,299.675-3.134,297.487-1.13,298.195z"/>
	<path fill="#FFFFFF" d="M-1.99,313.113c0,0,0.193,10.577,0.234,11.33c0.04,0.755-0.267,1.021-0.267,1.021l-2.308,0.914
		l-0.012,0.334h2.728l0.863-0.358c-0.063-0.31-0.339-0.921-0.364-1.581c-0.023-0.658,0.848-4.193,1.063-7.12
		c0.214-2.924-1.127-4.567-1.127-4.567s-0.181-0.291-0.449-0.309C-1.896,312.764-1.994,312.991-1.99,313.113z"/>
	<path fill="#FFFFFF" d="M-1.269,297.574c2.031,0.621,2.563,3.478,2.597,3.961c0.074,0.653,0.054,1.581-0.198,2.882
		c-0.681,3.512-1.233,9.396-1.233,9.396s-0.06,0.817-0.831,0.524c-0.365-0.136-0.788-0.454-0.859-1.053
		c-0.071-0.6-2.026-11.994-1.693-14.137C-3.486,299.147-3.302,296.95-1.269,297.574z"/>
	<path fill="#FFFFFF" d="M-1.624,313.178c0,0,0.962,10.533,1.059,11.282c0.095,0.749-0.191,1.037-0.191,1.037l-2.354,0.881
		l0.012,0.334h2.84l0.892-0.239c-0.084-0.306-0.464-1.075-0.534-1.731c-0.073-0.655,0.54-4.244,0.54-7.177
		c0-2.935-1.455-4.477-1.455-4.477s-0.201-0.276-0.472-0.273C-1.554,312.821-1.635,313.056-1.624,313.178z"/>
	<path fill="#FFFFFF" d="M-2.378,296.333c0.646-0.788,2.235-5.799,2.407-6.175c0.173-0.374,0.229-1.286-0.302-1.396
		c-0.529-0.11-0.813,0.399-0.813,0.399s-0.521,1.219-1.214,3.891c-0.478,1.842-0.857,2.627-1.101,3.162c0,0-0.144,0.358,0.355,0.451
		C-2.633,296.736-2.378,296.333-2.378,296.333z"/>
	<path fill="#FFFFFF" d="M-2.378,296.333c0,0,0.055,1.169-1.084,3.186s-1.645,3.195-1.645,3.195s0.325,1.111,0.169,1.566
		c-0.155,0.457-0.506,0.785-0.506,0.785l0.026-0.793c0,0-0.61,0.694-0.394,1.435l0.061,0.296l-0.213,0.045
		c0,0-0.296-0.33-0.362-0.766c-0.066-0.435,0.714-2.684,0.714-2.684c0.253-0.394,1.805-5.06,1.967-5.741
		c0.051-0.212,0.133-0.401,0.244-0.644c0,0,0.172-0.438,0.588-0.363C-2.397,295.925-2.378,296.333-2.378,296.333z"/>
	<path fill="#FFFFFF" d="M-1.134,287.869c0,0-0.059-0.693,0.086-1.55c0.157-0.929,1.164-0.397,1.164-0.397l0.125,1.646
		c0.066,0.887-0.883,1.119-1.23,0.933C-1.335,288.313-1.134,287.869-1.134,287.869z"/>
	<path fill="#FFFFFF" d="M-3.775,299.942c0,0-0.513-3.058,0-6.574c0,0-0.428-0.935-0.159-1.539c0.27-0.605,2.634-3.328,2.799-3.96
		l1.375-0.302c0,0,0.395,1.941,0.319,4.222c-0.088,2.624,0.258,4.884,0.233,5.479c-0.021,0.459,0.151,2.675,0.151,2.675H-3.775z"/>
	<path fill="#FFFFFF" d="M0.942,299.942c0,0,0.726,2.346,0.571,5.597c-0.152,3.249,1.194,15.995,2.485,18.768
		c1.291,2.771-6.453,0.765-8.603,0c-2.152-0.766,0.941-18.698,0.829-24.364H0.942z"/>
	<path fill="#FFFFFF" d="M-2.651,282.991c0.004-0.064,0.007-0.101,0.007-0.101l0.004,0.001c0.002-0.016,0.005-0.033,0.007-0.047
		c0.215-1.473,1.354-2.526,2.545-2.352c1.19,0.174,1.982,1.509,1.767,2.982c-0.002,0.015-0.005,0.03-0.007,0.045l0,0
		c0,0,0,0.003-0.003,0.01c-0.035,0.215-0.089,0.421-0.161,0.616c-0.309,1.005-1.074,2.849-2.514,2.64h-0.005
		c-1.475-0.217-1.657-2.297-1.655-3.325C-2.673,283.309-2.668,283.149-2.651,282.991z"/>
	<path fill="#FFFFFF" d="M-2.633,282.845c0,0-0.199,0.989-0.342,1.143c-0.144,0.156,0.352,0.325,0.352,0.325l0.221-0.049
		L-2.633,282.845z"/>
	<path fill="#FFFFFF" d="M-1.842,296.459c0.507-0.882,1.249-6.089,1.358-6.486c0.108-0.397,0.014-1.308-0.529-1.328
		c-0.54-0.021-0.735,0.529-0.735,0.529s-0.313,1.285-0.556,4.036c-0.167,1.895-0.412,2.732-0.564,3.3c0,0-0.083,0.379,0.425,0.388
		C-2.027,296.899-1.842,296.459-1.842,296.459z"/>
	<path fill="#FFFFFF" d="M-1.843,296.225c0,0,0.041,1.171-1.125,3.173c-1.165,2.004-1.686,3.175-1.686,3.175s0.31,1.116,0.149,1.567
		c-0.16,0.455-0.516,0.778-0.516,0.778l0.036-0.793c0,0-0.619,0.688-0.411,1.431l0.057,0.297l-0.213,0.043
		c0,0-0.292-0.334-0.351-0.77c-0.061-0.438,0.748-2.677,0.748-2.677c0.258-0.39,1.869-5.035,2.041-5.714
		c0.053-0.211,0.138-0.401,0.25-0.642c0,0,0.179-0.435,0.594-0.355C-1.856,295.817-1.843,296.225-1.843,296.225z"/>
	<g>
		<path fill="#FFFFFF" d="M-0.722,284.272c0-0.383,0.312-0.694,0.696-0.694c0.383,0,0.695,0.312,0.695,0.694
			c0,0.384-0.313,0.695-0.695,0.695C-0.41,284.968-0.722,284.656-0.722,284.272z M-0.646,284.272c0,0.342,0.278,0.619,0.62,0.619
			c0.34,0,0.618-0.277,0.618-0.619c0-0.339-0.277-0.618-0.618-0.618C-0.368,283.654-0.646,283.934-0.646,284.272z"/>
	</g>
	<path fill="#FFFFFF" d="M0.199,283.806c0.075-0.687-0.32-0.588-0.805-0.915c-0.484-0.329-0.233-0.907-0.405-1.267
		c-0.172-0.358-1.242,0.162-1.299,0.03c-0.056-0.13,0.191-0.493,0.191-0.493s1.209-1.522,2.756-0.747
		c1.82,0.909,1.523,2.993,1.523,2.993s-0.781,3.27-1.557,2.383C0.12,285.234,0.199,283.806,0.199,283.806z"/>
	
		<ellipse transform="matrix(0.9725 -0.2329 0.2329 0.9725 -65.58 8.1843)" fill="#FFFFFF" cx="1.866" cy="281.789" rx="0.956" ry="1.254"/>
	<path fill="#FFFFFF" d="M0.605,280.187c0,0,1.291-0.167,1.785,0.364c0.494,0.529,0.748,1.582,0.183,2.179
		C2.008,283.327,0.605,280.187,0.605,280.187z"/>
	<path fill="#FFFFFF" d="M-0.979,280.269c0,0,0.605-0.327,1.441-0.199c0.837,0.128,2.134,2.501,2.184,2.66
		c0.048,0.161-0.097,0.885-0.231,1.004C2.278,283.854-0.979,280.269-0.979,280.269z"/>
	<path fill="#FFFFFF" d="M2.51,283.718c-0.056,0.47-0.796,1.396-0.796,1.396c-1.959-0.964-3.669-4.131-3.669-4.131
		s0.417-0.6,0.88-0.788C-0.612,280.006,2.422,283.527,2.51,283.718z"/>
</g>
<g>
	<path fill="#FFFFFF" d="M333.785,298.195c2.004,0.707,2.414,3.584,2.428,4.069c0.047,0.654-0.014,1.581-0.32,2.871
		c-0.828,3.478-1.631,9.332-1.631,9.332s-0.094,0.815-0.853,0.49c-0.357-0.152-0.767-0.488-0.813-1.089
		c-0.046-0.602-1.515-12.068-1.091-14.194C331.505,299.675,331.781,297.487,333.785,298.195z"/>
	<path fill="#FFFFFF" d="M332.926,313.113c0,0,0.192,10.577,0.233,11.33c0.041,0.755-0.266,1.021-0.266,1.021l-2.309,0.914
		l-0.011,0.334h2.728l0.863-0.358c-0.063-0.31-0.339-0.921-0.364-1.581c-0.023-0.658,0.848-4.193,1.062-7.12
		c0.214-2.924-1.126-4.567-1.126-4.567s-0.181-0.291-0.449-0.309C333.02,312.764,332.922,312.991,332.926,313.113z"/>
	<path fill="#FFFFFF" d="M333.646,297.574c2.031,0.621,2.563,3.478,2.597,3.961c0.074,0.653,0.055,1.581-0.197,2.882
		c-0.681,3.512-1.233,9.396-1.233,9.396s-0.059,0.817-0.83,0.524c-0.365-0.136-0.789-0.454-0.86-1.053
		c-0.07-0.6-2.025-11.994-1.692-14.137C331.43,299.147,331.613,296.95,333.646,297.574z"/>
	<path fill="#FFFFFF" d="M333.291,313.178c0,0,0.963,10.533,1.059,11.282c0.095,0.749-0.191,1.037-0.191,1.037l-2.354,0.881
		l0.013,0.334h2.839l0.893-0.239c-0.085-0.306-0.464-1.075-0.535-1.731c-0.073-0.655,0.54-4.244,0.541-7.177
		c0-2.935-1.455-4.477-1.455-4.477s-0.201-0.276-0.472-0.273C333.361,312.821,333.28,313.056,333.291,313.178z"/>
	<path fill="#FFFFFF" d="M332.538,296.333c0.646-0.788,2.235-5.799,2.407-6.175c0.173-0.374,0.229-1.286-0.302-1.396
		c-0.529-0.11-0.813,0.399-0.813,0.399s-0.521,1.219-1.213,3.891c-0.479,1.842-0.858,2.627-1.102,3.162c0,0-0.145,0.358,0.355,0.451
		C332.282,296.736,332.538,296.333,332.538,296.333z"/>
	<path fill="#FFFFFF" d="M332.538,296.333c0,0,0.054,1.169-1.085,3.186s-1.645,3.195-1.645,3.195s0.324,1.111,0.17,1.566
		c-0.155,0.457-0.507,0.785-0.507,0.785l0.027-0.793c0,0-0.61,0.694-0.394,1.435l0.061,0.296l-0.213,0.045
		c0,0-0.297-0.33-0.362-0.766c-0.066-0.435,0.714-2.684,0.714-2.684c0.254-0.394,1.806-5.06,1.967-5.741
		c0.052-0.212,0.134-0.401,0.244-0.644c0,0,0.173-0.438,0.589-0.363C332.519,295.925,332.538,296.333,332.538,296.333z"/>
	<path fill="#FFFFFF" d="M333.782,287.869c0,0-0.059-0.693,0.086-1.55c0.157-0.929,1.163-0.397,1.163-0.397l0.126,1.646
		c0.066,0.887-0.884,1.119-1.231,0.933C333.58,288.313,333.782,287.869,333.782,287.869z"/>
	<path fill="#FFFFFF" d="M331.14,299.942c0,0-0.512-3.058,0-6.574c0,0-0.427-0.935-0.158-1.539c0.269-0.605,2.634-3.328,2.798-3.96
		l1.375-0.302c0,0,0.396,1.941,0.319,4.222c-0.088,2.624,0.259,4.884,0.232,5.479c-0.02,0.459,0.151,2.675,0.151,2.675H331.14z"/>
	<path fill="#FFFFFF" d="M335.857,299.942c0,0,0.726,2.346,0.572,5.597c-0.152,3.249,1.194,15.995,2.484,18.768
		c1.291,2.771-6.452,0.765-8.603,0c-2.152-0.766,0.941-18.698,0.828-24.364H335.857z"/>
	<path fill="#FFFFFF" d="M332.264,282.991c0.004-0.064,0.007-0.101,0.007-0.101l0.005,0.001c0.002-0.016,0.005-0.033,0.007-0.047
		c0.216-1.473,1.354-2.526,2.546-2.352c1.189,0.174,1.981,1.509,1.767,2.982c-0.003,0.015-0.005,0.03-0.007,0.045l0,0
		c0,0,0,0.003-0.004,0.01c-0.034,0.215-0.089,0.421-0.16,0.616c-0.309,1.005-1.075,2.849-2.515,2.64h-0.005
		c-1.476-0.217-1.656-2.297-1.654-3.325C332.243,283.309,332.248,283.149,332.264,282.991z"/>
	<path fill="#FFFFFF" d="M332.282,282.845c0,0-0.198,0.989-0.343,1.143c-0.143,0.156,0.353,0.325,0.353,0.325l0.222-0.049
		L332.282,282.845z"/>
	<path fill="#FFFFFF" d="M333.073,296.459c0.508-0.882,1.249-6.089,1.358-6.486c0.107-0.397,0.013-1.308-0.529-1.328
		c-0.541-0.021-0.735,0.529-0.735,0.529s-0.313,1.285-0.557,4.036c-0.167,1.895-0.411,2.732-0.564,3.3c0,0-0.082,0.379,0.426,0.388
		C332.889,296.899,333.073,296.459,333.073,296.459z"/>
	<path fill="#FFFFFF" d="M333.072,296.225c0,0,0.041,1.171-1.124,3.173c-1.165,2.004-1.686,3.175-1.686,3.175
		s0.31,1.116,0.149,1.567c-0.161,0.455-0.516,0.778-0.516,0.778l0.035-0.793c0,0-0.618,0.688-0.411,1.431l0.057,0.297l-0.213,0.043
		c0,0-0.292-0.334-0.352-0.77c-0.061-0.438,0.748-2.677,0.748-2.677c0.258-0.39,1.87-5.035,2.041-5.714
		c0.053-0.211,0.138-0.401,0.251-0.642c0,0,0.179-0.435,0.593-0.355S333.072,296.225,333.072,296.225z"/>
	<g>
		<path fill="#FFFFFF" d="M334.193,284.272c0-0.383,0.312-0.694,0.695-0.694c0.383,0,0.695,0.312,0.695,0.694
			c0,0.384-0.313,0.695-0.695,0.695C334.505,284.968,334.193,284.656,334.193,284.272z M334.27,284.272
			c0,0.342,0.278,0.619,0.619,0.619s0.618-0.277,0.618-0.619c0-0.339-0.277-0.618-0.618-0.618S334.27,283.934,334.27,284.272z"/>
	</g>
	<path fill="#FFFFFF" d="M335.114,283.806c0.076-0.687-0.319-0.588-0.805-0.915c-0.483-0.329-0.233-0.907-0.405-1.267
		c-0.172-0.358-1.241,0.162-1.299,0.03c-0.057-0.13,0.19-0.493,0.19-0.493s1.209-1.522,2.757-0.747
		c1.82,0.909,1.523,2.993,1.523,2.993s-0.781,3.27-1.557,2.383C335.035,285.234,335.114,283.806,335.114,283.806z"/>
	
		<ellipse transform="matrix(0.9725 -0.2329 0.2329 0.9725 -56.3693 86.1893)" fill="#FFFFFF" cx="336.782" cy="281.789" rx="0.956" ry="1.254"/>
	<path fill="#FFFFFF" d="M335.521,280.187c0,0,1.291-0.167,1.785,0.364c0.493,0.529,0.748,1.582,0.182,2.179
		C336.923,283.327,335.521,280.187,335.521,280.187z"/>
	<path fill="#FFFFFF" d="M333.936,280.269c0,0,0.605-0.327,1.441-0.199c0.838,0.128,2.135,2.501,2.184,2.66
		c0.049,0.161-0.097,0.885-0.23,1.004C337.193,283.854,333.936,280.269,333.936,280.269z"/>
	<path fill="#FFFFFF" d="M337.426,283.718c-0.057,0.47-0.796,1.396-0.796,1.396c-1.959-0.964-3.669-4.131-3.669-4.131
		s0.417-0.6,0.879-0.788C334.303,280.006,337.337,283.527,337.426,283.718z"/>
</g>
<g>
	<path fill="#FFFFFF" d="M297.579,308.4c0.439,2.36,3.58,3.321,4.116,3.422c0.726,0.165,1.769,0.261,3.263,0.145
		c4.029-0.316,10.707-0.188,10.707-0.188s0.926,0.039,0.695-0.864c-0.106-0.427-0.411-0.942-1.073-1.099
		c-0.664-0.158-13.211-3.806-15.659-3.703C299.628,306.112,297.136,306.037,297.579,308.4z"/>
	<path fill="#FFFFFF" d="M316.381,311.162c0,0-1.088,11.904-1.197,12.751c-0.106,0.847,0.217,1.171,0.217,1.171l2.66,0.996
		l-0.014,0.378h-3.209l-1.009-0.271c0.097-0.346,0.524-1.214,0.605-1.956c0.081-0.74-0.61-4.797-0.61-8.111
		c0-3.315,1.644-5.059,1.644-5.059s0.228-0.313,0.533-0.31C316.301,310.759,316.393,311.024,316.381,311.162z"/>
	<path fill="#FFFFFF" d="M301.584,302.813c-0.729-0.891-2.525-6.554-2.72-6.978c-0.196-0.424-0.259-1.455,0.341-1.578
		c0.599-0.125,0.918,0.45,0.918,0.45s0.589,1.378,1.373,4.397c0.539,2.081,0.969,2.969,1.244,3.573c0,0,0.163,0.406-0.401,0.51
		C301.874,303.269,301.584,302.813,301.584,302.813z"/>
	<path fill="#FFFFFF" d="M301.634,303.331c0,0,0.791,1.06,3.233,2.003c2.442,0.945,3.728,1.61,3.728,1.61s0.513,1.203,0.976,1.488
		c0.464,0.289,1.006,0.324,1.006,0.324l-0.593-0.674c0,0,1.031,0.17,1.374,0.971l0.158,0.303l0.218-0.115
		c0,0,0.022-0.499-0.232-0.928c-0.255-0.428-2.548-1.831-2.548-1.831c-0.504-0.163-5.208-3.123-5.837-3.603
		c-0.198-0.148-0.405-0.254-0.675-0.388c0,0-0.465-0.258-0.775,0.106C301.359,302.96,301.634,303.331,301.634,303.331z"/>
	<path fill="#FFFFFF" d="M300.178,293.249c0,0-0.494-0.764-0.097-1.752s-1.314-0.449-1.314-0.449l-0.142,1.859
		c-0.075,1.002,0.998,1.265,1.391,1.054C300.407,293.749,300.178,293.249,300.178,293.249z"/>
	<path fill="#FFFFFF" d="M303.164,306.894c0,0,0.579-3.456,0-7.43c0,0,0.483-1.058,0.18-1.74c-0.304-0.685-2.977-3.762-3.162-4.475
		l-1.555-0.342c0,0,0.043,2.207,0,4.785c-0.043,2.618-0.33,5.87-0.485,6.367c-0.156,0.496-0.309,2.834-0.309,2.834H303.164z"/>
	<path fill="#FFFFFF" d="M301.895,287.49c-0.005-0.073-0.008-0.114-0.008-0.114l-0.004,0.001c-0.003-0.017-0.006-0.036-0.008-0.053
		c-0.244-1.663-1.531-2.854-2.877-2.657c-1.346,0.198-2.24,1.706-1.998,3.37c0.003,0.018,0.006,0.034,0.009,0.051l0,0
		c0,0,0,0.004,0.002,0.011c0.04,0.244,0.102,0.477,0.183,0.697c0.349,1.136,1.215,3.22,2.842,2.983h0.005
		c1.668-0.245,1.872-2.596,1.87-3.758C301.917,287.849,301.912,287.669,301.895,287.49z"/>
	<path fill="#FFFFFF" d="M301.874,287.324c0,0,0.224,1.119,0.387,1.292c0.161,0.177-0.398,0.367-0.398,0.367l-0.25-0.055
		L301.874,287.324z"/>
	<path fill="#FFFFFF" d="M300.979,302.955c-0.574-0.996-1.412-6.88-1.534-7.329s-0.016-1.479,0.598-1.502
		c0.611-0.022,0.831,0.599,0.831,0.599s0.353,1.452,0.628,4.563c0.189,2.14,0.466,3.087,0.638,3.729c0,0,0.093,0.429-0.48,0.438
		C301.188,303.454,300.979,302.955,300.979,302.955z"/>
	<path fill="#FFFFFF" d="M300.979,302.691c0,0-0.045,1.322,1.272,3.585c1.316,2.266,1.904,3.589,1.904,3.589
		s-0.349,1.261-0.168,1.771c0.182,0.515,0.583,0.878,0.583,0.878l-0.04-0.895c0,0,0.699,0.777,0.465,1.617l-0.065,0.335l0.241,0.048
		c0,0,0.331-0.376,0.397-0.869c0.068-0.494-0.846-3.025-0.846-3.025c-0.292-0.439-2.112-5.689-2.307-6.458
		c-0.059-0.237-0.155-0.453-0.282-0.725c0,0-0.203-0.49-0.671-0.401C300.995,302.231,300.979,302.691,300.979,302.691z"/>
	<g>
		<path fill="#FFFFFF" d="M298.927,289.725c-0.432,0-0.785-0.353-0.785-0.786c0-0.433,0.353-0.785,0.785-0.785
			c0.435,0,0.787,0.353,0.787,0.785C299.714,289.372,299.361,289.725,298.927,289.725z M298.927,288.239
			c-0.384,0-0.698,0.315-0.698,0.699c0,0.387,0.314,0.699,0.698,0.699c0.386,0,0.701-0.313,0.701-0.699
			C299.628,288.555,299.313,288.239,298.927,288.239z"/>
	</g>
	<path fill="#FFFFFF" d="M298.673,288.411c-0.087-0.776,0.361-0.666,0.909-1.035c0.547-0.371,0.264-1.025,0.458-1.431
		c0.195-0.404,1.403,0.185,1.468,0.034c0.064-0.148-0.215-0.557-0.215-0.557s-1.367-1.721-3.115-0.846
		c-2.057,1.027-1.721,3.384-1.721,3.384s0.882,3.694,1.759,2.693C298.762,290.025,298.673,288.411,298.673,288.411z"/>
	
		<ellipse transform="matrix(-0.9724 -0.2332 0.2332 -0.9724 518.679 633.5783)" fill="#FFFFFF" cx="296.788" cy="286.132" rx="1.081" ry="1.418"/>
	<path fill="#FFFFFF" d="M298.213,284.321c0,0-1.459-0.189-2.018,0.411c-0.558,0.599-0.846,1.788-0.206,2.462
		C296.629,287.87,298.213,284.321,298.213,284.321z"/>
	<path fill="#FFFFFF" d="M300.005,284.414c0,0-0.684-0.37-1.629-0.227c-0.946,0.146-2.412,2.827-2.468,3.007
		c-0.053,0.182,0.109,1,0.261,1.135C296.323,288.465,300.005,284.414,300.005,284.414z"/>
	<path fill="#FFFFFF" d="M296.061,288.312c0.063,0.531,0.899,1.577,0.899,1.577c2.214-1.09,4.147-4.669,4.147-4.669
		s-0.472-0.677-0.995-0.891C299.59,284.116,296.16,288.097,296.061,288.312z"/>
	<path fill="#FFFFFF" d="M316.397,311.006c0,0,0.067,11.084,0,11.96c-0.067,0.875-3.396,0.612-3.747,0.525
		s1.489-11.739,0.262-11.738c-1.226,0.002,3.448-0.839,3.448-0.839"/>
</g>
<g>
	<path fill="#FFFFFF" d="M179.377,292.915c0,0-0.142,1.297,0.989,3.621s1.612,3.67,1.612,3.67s-0.437,1.216-0.295,1.734
		c0.141,0.516,0.509,0.906,0.509,0.906l0.026-0.885c0,0,0.63,0.816,0.339,1.626l-0.088,0.324l0.233,0.065
		c0,0,0.352-0.347,0.455-0.827c0.103-0.481-0.611-3.04-0.611-3.04c-0.254-0.453-1.663-5.754-1.797-6.523
		c-0.042-0.239-0.12-0.456-0.226-0.733c0,0-0.163-0.5-0.631-0.445C179.426,292.464,179.377,292.915,179.377,292.915z"/>
	<path fill="#FFFFFF" d="M183.346,297.09c-1.8,1.542-1.071,4.7-0.891,5.21c0.213,0.7,0.648,1.641,1.486,2.858
		c2.26,3.287,5.446,9.057,5.446,9.057s0.424,0.81,1.083,0.167c0.312-0.303,0.604-0.815,0.41-1.46
		c-0.193-0.645-3.272-13.166-4.567-15.208C186.313,297.714,185.146,295.549,183.346,297.09z"/>
	<path fill="#FFFFFF" d="M185.486,295.15c-2.364,0.178-3.644,3.155-3.8,3.674c-0.241,0.69-0.447,1.706-0.493,3.184
		c-0.122,3.988-0.966,10.524-0.966,10.524s-0.137,0.902,0.774,0.775c0.43-0.06,0.969-0.302,1.193-0.936
		c0.225-0.635,5.152-12.551,5.315-14.963C187.51,297.409,187.85,294.974,185.486,295.15z"/>
	<path fill="#FFFFFF" d="M182.038,312.214c0,0-3.636,11.224-3.923,12.016c-0.289,0.791-0.049,1.176-0.049,1.176l2.496,0.84
		l-0.096,0.359h-3.239l-0.912-0.479c0.167-0.312,0.768-1.057,1.008-1.752c0.24-0.696,0.456-4.751,1.176-7.941
		c0.719-3.192,2.682-4.513,2.682-4.513s0.287-0.25,0.581-0.183C182.049,311.811,182.08,312.084,182.038,312.214z"/>
	<path fill="#FFFFFF" d="M190.234,312.269c0,0,4.048,11.081,4.308,11.883c0.262,0.801,0.687,0.956,0.687,0.956l2.483-0.876
		l0.146,0.343l-2.553,1.995l-1.041-0.026c-0.06-0.349-0.018-1.096-0.257-1.792c-0.239-0.695-2.566-4.022-3.965-6.982
		c-1.397-2.955-0.663-5.205-0.663-5.205s0.07-0.375,0.344-0.501C189.995,311.94,190.188,312.14,190.234,312.269z"/>
	<path fill="#FFFFFF" d="M182.326,297.498c0,0-1.094,2.387-1.524,5.864c-0.435,3.51-2.308,13.529-3.53,16.628
		c-1.221,3.094,14.53,3.777,16.578,2.373c1.7-1.168-6.517-18.706-6.395-24.865H182.326z"/>
	<path fill="#FFFFFF" d="M184.521,284.261c0,0-0.07-0.755-0.095-1.687c-0.028-1.024-1.796-0.603-1.796-0.603l0.362,2.031
		c-0.073,0.967,0.993,1.146,1.37,0.943C184.74,284.742,184.521,284.261,184.521,284.261z"/>
	<path fill="#FFFFFF" d="M186.171,279.274c-0.005-0.07-0.008-0.11-0.008-0.11l-0.005,0.001c-0.002-0.018-0.005-0.033-0.007-0.051
		c-0.234-1.6-1.474-2.745-2.769-2.557c-1.295,0.189-2.154,1.641-1.921,3.241c0.002,0.019,0.005,0.034,0.008,0.051h0
		c0,0,0,0.004,0.001,0.011c0.039,0.235,0.099,0.459,0.178,0.67c0.334,1.094,1.168,3.099,2.734,2.869h0.004
		c1.605-0.235,1.802-2.496,1.8-3.615C186.193,279.617,186.188,279.447,186.171,279.274z"/>
	<path fill="#FFFFFF" d="M186.151,279.114c0,0,0.215,1.076,0.372,1.245c0.156,0.169-0.383,0.352-0.383,0.352l-0.241-0.054
		L186.151,279.114z"/>
	<g>
		<path fill="#FFFFFF" d="M183.316,281.425c-0.417,0-0.756-0.34-0.756-0.756c0-0.417,0.339-0.756,0.756-0.756
			c0.417,0,0.757,0.339,0.757,0.756C184.074,281.085,183.734,281.425,183.316,281.425z M183.316,279.996
			c-0.369,0-0.672,0.302-0.672,0.673c0,0.37,0.303,0.671,0.672,0.671c0.372,0,0.673-0.301,0.673-0.671
			C183.989,280.298,183.688,279.996,183.316,279.996z"/>
	</g>
	<path fill="#FFFFFF" d="M183.07,280.16c-0.082-0.748,0.35-0.639,0.875-0.996c0.527-0.357,0.256-0.984,0.442-1.375
		c0.188-0.393,1.351,0.175,1.412,0.032s-0.208-0.537-0.208-0.537s-1.314-1.653-2.997-0.813c-1.979,0.989-1.655,3.256-1.655,3.256
		s0.849,3.554,1.691,2.59C183.158,281.716,183.07,280.16,183.07,280.16z"/>
	
		<ellipse transform="matrix(-0.9723 -0.2336 0.2336 -0.9723 292.5784 590.5842)" fill="#FFFFFF" cx="181.258" cy="277.968" rx="1.039" ry="1.362"/>
	<path fill="#FFFFFF" d="M182.63,276.226c0,0-1.405-0.184-1.942,0.395c-0.537,0.577-0.813,1.722-0.199,2.371
		C181.104,279.642,182.63,276.226,182.63,276.226z"/>
	<path fill="#FFFFFF" d="M184.354,276.313c0,0-0.659-0.354-1.568-0.217c-0.91,0.139-2.321,2.721-2.373,2.895
		c-0.053,0.173,0.104,0.961,0.25,1.091C180.811,280.212,184.354,276.313,184.354,276.313z"/>
	<path fill="#FFFFFF" d="M180.559,280.065c0.061,0.511,0.865,1.516,0.865,1.516c2.129-1.048,3.989-4.492,3.989-4.492
		s-0.454-0.65-0.957-0.856C183.954,276.028,180.654,279.857,180.559,280.065z"/>
	<path fill="#FFFFFF" d="M179.396,292.682c0.153-1.124,3.041-6.228,3.216-6.654c0.175-0.425,0.878-1.162,1.371-0.813
		c0.492,0.35,0.29,0.968,0.29,0.968s-0.6,1.351-2.258,3.945c-1.142,1.787-1.495,2.696-1.747,3.301c0,0-0.184,0.389-0.64,0.052
		C179.26,293.196,179.396,292.682,179.396,292.682z"/>
	<path fill="#FFFFFF" d="M187.471,297.692c0,0,0.572-3.412,0-7.335c0,0,0.477-1.043,0.178-1.718c-0.3-0.675-2.938-3.711-3.122-4.416
		l-1.533-0.336c0,0-0.029,2.178,0,4.722c0.029,2.585-0.017,5.736-0.17,6.229c-0.155,0.49-0.614,2.854-0.614,2.854H187.471z"/>
	<path fill="#FFFFFF" d="M186.677,293.544c-0.733-0.868-2.578-6.435-2.775-6.85c-0.197-0.416-0.272-1.432,0.316-1.563
		c0.591-0.131,0.913,0.436,0.913,0.436s0.599,1.351,1.41,4.32c0.559,2.046,0.994,2.92,1.274,3.512c0,0,0.165,0.397-0.39,0.508
		C186.966,293.991,186.677,293.544,186.677,293.544z"/>
	<path fill="#FFFFFF" d="M186.677,293.544c0,0-0.045,1.304,1.254,3.539c1.3,2.234,1.881,3.54,1.881,3.54s-0.346,1.244-0.167,1.749
		c0.18,0.506,0.575,0.868,0.575,0.868l-0.04-0.884c0,0,0.689,0.766,0.459,1.595l-0.064,0.329l0.237,0.049
		c0,0,0.326-0.372,0.393-0.859c0.067-0.485-0.835-2.983-0.835-2.983c-0.287-0.434-2.085-5.616-2.276-6.374
		c-0.059-0.235-0.153-0.445-0.279-0.714c0,0-0.199-0.488-0.661-0.398S186.677,293.544,186.677,293.544z"/>
</g>
<g>
	<polygon fill="#FFFFFF" points="761.035,299.015 760.889,299.015 757.969,299.015 757.941,299.015 755.014,299.015 
		754.875,299.015 753.932,302.313 755.851,327.484 757.354,327.484 757.926,304.763 757.984,304.763 758.558,327.484 
		760.06,327.484 762.02,302.148 	"/>
	
		<ellipse transform="matrix(0.9969 0.0791 -0.0791 0.9969 24.7921 -59.2693)" fill="#FFFFFF" cx="760.697" cy="283.376" rx="0.438" ry="0.925"/>
	<g>
		<path fill="#FFFFFF" d="M753.676,327.255l0.081,0.255h3.995C757.752,327.51,757.752,325.151,753.676,327.255z"/>
	</g>
	<g>
		<path fill="#FFFFFF" d="M762.197,327.255l-0.079,0.255h-3.997C758.121,327.51,758.121,325.151,762.197,327.255z"/>
	</g>
	<path fill="#FFFFFF" d="M754.813,291.949c0,0-0.052,0.275-0.121,0.667L754.813,291.949z"/>
	<path fill="#FFFFFF" d="M753.261,297.337c0.165-0.436,0.209-1.749,0.193-2.097c-0.011-0.242,0.599-1.621,0.972-2.442
		c0.166-0.363,0.285-0.618,0.285-0.618c0.56-1.228-0.426-1.654-0.829-1.837c-0.403-0.184-0.647,0.152-0.647,0.152
		c-0.805,1.234-1.084,4.56-1.084,4.56s-0.083,0.468-0.274,0.761c-0.306,0.468-0.914,4.903-0.676,6.555l0.899,0.133
		C752.1,302.503,753.096,297.771,753.261,297.337z"/>
	<path fill="#FFFFFF" d="M761.228,292.616c-0.07-0.392-0.122-0.667-0.122-0.667L761.228,292.616z"/>
	<path fill="#FFFFFF" d="M763.632,295.149c0,0-0.106-3.336-0.845-4.61c0,0-0.228-0.347-0.641-0.185
		c-0.412,0.162-1.418,0.537-0.923,1.792c0,0,0.106,0.26,0.252,0.632c0.332,0.84,0.868,2.248,0.845,2.488
		c-0.033,0.348-0.056,1.661,0.086,2.104c0.142,0.441,0.893,5.22,0.893,5.22l0.905-0.088c0.324-1.636-0.056-6.097-0.337-6.58
		C763.691,295.622,763.632,295.149,763.632,295.149z"/>
	<path fill="#FFFFFF" d="M763.016,291.051c-0.531-1.573-3.57-2.526-3.57-2.526c-0.984-0.221-0.625-2.257-0.625-2.257h-0.574h-0.271
		h-0.031h-0.271h-0.527c0,0,0.255,2.036-0.671,2.257c0,0-2.93,0.815-3.462,2.388c0,0-0.258,0.963,0.335,1.471
		c0.593,0.506,1.311,0.424,1.343,0.235l0.002-0.002c0,0,0-0.001,0-0.004c0.032-0.183,0.052-0.284,0.052-0.284l0,0
		c0.042-0.232,0.069-0.379,0.069-0.379s1.182,0.277,2.859,0.343c0.094,0.003,0.19,0.006,0.287,0.01
		c0.098-0.004,0.193-0.007,0.287-0.01c1.677-0.065,2.859-0.343,2.859-0.343s0.027,0.142,0.061,0.328
		c0.033,0.188,0.813,0.611,1.405,0.105C763.16,291.88,763.016,291.051,763.016,291.051z"/>
	<path fill="#FFFFFF" d="M764.191,302.466c-0.025-0.072-0.079-0.264-0.094-0.541l-0.85,0.119c0.026,0.26-0.008,0.574-0.037,0.77
		l-0.006,0.001l-0.53,0.628l-0.579,1.405l-0.076,0.18c-0.053,0.133,0.05,0.209,0.356-0.089l0.313-0.58l0.044-0.029l0.498,2.269
		c0,0,0.027,0.187,0.094,0.183l0.395,0.005c0.033,0.005,0.053-0.015,0.063-0.043l0.387-0.403c0.052-0.043,0.094-0.226,0.094-0.226
		l0.238-0.559c0.018-0.034-0.002-0.103-0.002-0.103l-0.019-0.73l-0.068-0.667l0.01-0.441l-0.092-0.712L764.191,302.466z"/>
	<path fill="#FFFFFF" d="M751.202,302.33c0.03-0.073,0.094-0.261,0.122-0.536l0.844,0.163c-0.041,0.257-0.023,0.573-0.004,0.771
		l0.005,0.001l0.497,0.654l0.506,1.433l0.068,0.186c0.045,0.134-0.061,0.205-0.352-0.108l-0.283-0.595l-0.042-0.032l-0.613,2.24
		c0,0-0.038,0.185-0.104,0.177l-0.394-0.016c-0.034,0.005-0.053-0.018-0.062-0.046l-0.366-0.423
		c-0.049-0.045-0.081-0.229-0.081-0.229l-0.21-0.57c-0.016-0.035,0.008-0.103,0.008-0.103l0.057-0.729l0.103-0.661l0.013-0.442
		l0.128-0.705L751.202,302.33z"/>
	
		<ellipse transform="matrix(-0.9969 0.079 -0.079 -0.9969 1530.5209 506.2079)" fill="#FFFFFF" cx="755.248" cy="283.376" rx="0.439" ry="0.925"/>
	<path fill="#FFFFFF" d="M760.688,282.994c0.007-0.081,0.01-0.127,0.01-0.127h-0.006c0-0.02,0.001-0.038,0.001-0.058
		c0-1.866-1.224-3.379-2.733-3.379s-2.733,1.513-2.733,3.379c0,0.02,0.001,0.038,0.001,0.058h-0.001c0,0,0.001,0.005,0.001,0.014
		c0.005,0.273,0.036,0.539,0.09,0.793c0.199,1.305,0.816,3.731,2.643,3.731h0.006c1.869,0,2.471-2.548,2.656-3.824
		C760.656,283.391,760.679,283.194,760.688,282.994z"/>
	<path fill="#FFFFFF" d="M755.862,280.746c-0.07,0.096-0.47,1.003-0.47,1.793s-0.213,0.967-0.213,0.967s-0.307-1.226-0.066-2.228
		c0.242-1.003,0.761-2.831,2.92-2.773c2.158,0.06,2.982,1.58,2.855,3.822l-0.072,1.179c0,0-0.213-0.482-0.188-1.049
		c0.023-0.566-0.519-0.768-0.507-1.144c0,0-0.498-1.425-2.058-1.431C756.504,279.878,755.862,280.746,755.862,280.746z"/>
	<path fill="#FFFFFF" d="M761.349,291.949h-3.416h-3.416c0.786,3.492,0.485,6.598,0.303,7.065h3.113h3.112
		C760.863,298.547,760.563,295.441,761.349,291.949z"/>
	<g>
		<path fill="#FFFFFF" d="M759.436,288.524c-0.132-0.03-0.238-0.092-0.325-0.177c-0.968,0.489-1.848,0.241-2.344,0.01
			c-0.084,0.079-0.183,0.138-0.302,0.167c0,0-1.308,0.363-2.335,1.074h0.001c0.53,0.323,0.524,3.068,0.524,3.068
			c0.597,3.191,0.325,5.911,0.155,6.348h3.113h3.112c-0.175-0.448-0.456-3.312,0.208-6.617l0,0c0.015-0.683,0.09-2.447,0.491-2.777
			C760.695,288.919,759.436,288.524,759.436,288.524z"/>
	</g>
	<path fill="#FFFFFF" d="M762.842,325.455c1.286-22.309-1.799-26.44-1.799-26.44h-6.232c0,0-3.082,4.132-1.799,26.44H762.842z"/>
	<path fill="#FFFFFF" d="M755.248,285.567c0,0.034-0.027,0.062-0.062,0.062l0,0c-0.034,0-0.062-0.027-0.062-0.062v-1.604
		c0-0.034,0.027-0.063,0.062-0.063l0,0c0.034,0,0.062,0.029,0.062,0.063V285.567z"/>
	<path fill="#FFFFFF" d="M760.82,285.567c0,0.034-0.027,0.062-0.062,0.062l0,0c-0.034,0-0.062-0.027-0.062-0.062v-1.604
		c0-0.034,0.027-0.063,0.062-0.063l0,0c0.034,0,0.062,0.029,0.062,0.063V285.567z"/>
	<circle fill="#FFFFFF" cx="755.94" cy="280.694" r="0.39"/>
	<circle fill="#FFFFFF" cx="755.543" cy="281.069" r="0.39"/>
	<circle fill="#FFFFFF" cx="755.442" cy="281.647" r="0.391"/>
	<circle fill="#FFFFFF" cx="756.813" cy="279.994" r="0.391"/>
	<circle fill="#FFFFFF" cx="757.415" cy="279.994" r="0.39"/>
	<circle fill="#FFFFFF" cx="758.061" cy="279.883" r="0.39"/>
	<circle fill="#FFFFFF" cx="758.69" cy="279.969" r="0.39"/>
	<circle fill="#FFFFFF" cx="759.243" cy="280.072" r="0.39"/>
	<circle fill="#FFFFFF" cx="759.729" cy="280.457" r="0.391"/>
	<circle fill="#FFFFFF" cx="760.079" cy="280.829" r="0.39"/>
	<circle fill="#FFFFFF" cx="756.265" cy="280.457" r="0.152"/>
	<circle fill="#FFFFFF" cx="756.413" cy="280.278" r="0.205"/>
	<path fill="#FFFFFF" d="M755.036,282.548c0,0,1.994-1.225,2.958-2.476c0,0,1.709,2.302,2.885,2.421c0,0,0.953-4.225-2.885-4.389
		C754.156,277.939,755.036,282.548,755.036,282.548z"/>
	<g>
		<path fill="#FFFFFF" d="M757.993,278.104c-1.924-0.083-2.661,1.033-2.92,2.167c0.263-0.07,2.867-0.77,2.986-1.013
			c0,0,1.596,1.365,2.907,1.729C760.871,279.757,760.291,278.203,757.993,278.104z"/>
	</g>
</g>
<g>
	
		<ellipse transform="matrix(0.9969 0.0791 -0.0791 0.9969 23.0206 -48.4558)" fill="#FFFFFF" cx="623.287" cy="266.417" rx="0.438" ry="0.925"/>
	<path fill="#FFFFFF" d="M617.402,274.99c0,0-0.052,0.275-0.121,0.667L617.402,274.99z"/>
	<path fill="#FFFFFF" d="M623.817,275.657c-0.07-0.392-0.122-0.667-0.122-0.667L623.817,275.657z"/>
	<path fill="#FFFFFF" d="M625.605,274.092c-0.531-1.573-3.57-2.526-3.57-2.526c-0.984-0.221-0.625-2.257-0.625-2.257h-0.574h-0.271
		h-0.031h-0.271h-0.527c0,0,0.256,2.036-0.671,2.257c0,0-2.93,0.815-3.462,2.388c0,0-0.258,0.963,0.335,1.47
		s1.311,0.425,1.343,0.237l0.002-0.003c0,0,0-0.001,0-0.004c0.032-0.183,0.052-0.284,0.052-0.284l0,0
		c0.042-0.232,0.069-0.379,0.069-0.379s1.182,0.277,2.859,0.343c0.094,0.003,0.19,0.006,0.287,0.01
		c0.098-0.004,0.193-0.007,0.287-0.01c1.677-0.065,2.859-0.343,2.859-0.343s0.027,0.142,0.061,0.328
		c0.033,0.188,0.813,0.611,1.405,0.104C625.75,274.921,625.605,274.092,625.605,274.092z"/>
	
		<ellipse transform="matrix(-0.9969 0.079 -0.079 -0.9969 1254.7903 483.1974)" fill="#FFFFFF" cx="617.838" cy="266.417" rx="0.439" ry="0.925"/>
	<path fill="#FFFFFF" d="M623.277,266.035c0.007-0.081,0.01-0.127,0.01-0.127h-0.006c0-0.02,0.001-0.039,0.001-0.058
		c0-1.866-1.225-3.379-2.733-3.379c-1.51,0-2.733,1.513-2.733,3.379c0,0.019,0.001,0.038,0.001,0.058h-0.001
		c0,0,0.001,0.005,0.001,0.014c0.005,0.273,0.035,0.539,0.09,0.793c0.199,1.305,0.816,3.731,2.643,3.731h0.005
		c1.87,0,2.472-2.548,2.657-3.824C623.246,266.432,623.269,266.235,623.277,266.035z"/>
	<path fill="#FFFFFF" d="M618.452,263.787c-0.07,0.096-0.471,1.003-0.471,1.793s-0.212,0.967-0.212,0.967s-0.307-1.226-0.065-2.228
		c0.242-1.004,0.76-2.831,2.919-2.773c2.158,0.06,2.982,1.58,2.855,3.822l-0.072,1.179c0,0-0.213-0.482-0.188-1.049
		c0.023-0.566-0.519-0.768-0.508-1.144c0,0-0.497-1.425-2.057-1.431C619.094,262.919,618.452,263.787,618.452,263.787z"/>
	<path fill="#FFFFFF" d="M623.938,274.99h-3.416h-3.416c0.786,3.492,0.484,6.598,0.303,7.065h3.113h3.112
		C623.453,281.588,623.153,278.482,623.938,274.99z"/>
	<g>
		<path fill="#FFFFFF" d="M622.025,271.565c-0.132-0.03-0.238-0.092-0.325-0.177c-0.968,0.489-1.848,0.241-2.345,0.01
			c-0.083,0.079-0.182,0.138-0.301,0.167c0,0-1.309,0.363-2.335,1.074h0.001c0.53,0.323,0.524,3.068,0.524,3.068
			c0.597,3.191,0.325,5.912,0.155,6.348h3.113h3.112c-0.174-0.448-0.456-3.312,0.208-6.617l0,0c0.016-0.683,0.09-2.447,0.491-2.777
			C623.286,271.96,622.025,271.565,622.025,271.565z"/>
	</g>
	<path fill="#FFFFFF" d="M617.838,268.608c0,0.034-0.027,0.062-0.062,0.062l0,0c-0.034,0-0.062-0.027-0.062-0.062v-1.604
		c0-0.034,0.027-0.063,0.062-0.063l0,0c0.034,0,0.062,0.029,0.062,0.063V268.608z"/>
	<path fill="#FFFFFF" d="M623.41,268.608c0,0.034-0.027,0.062-0.062,0.062l0,0c-0.034,0-0.062-0.027-0.062-0.062v-1.604
		c0-0.034,0.027-0.063,0.062-0.063l0,0c0.034,0,0.062,0.029,0.062,0.063V268.608z"/>
	<circle fill="#FFFFFF" cx="618.53" cy="263.735" r="0.39"/>
	<circle fill="#FFFFFF" cx="618.133" cy="264.11" r="0.39"/>
	<circle fill="#FFFFFF" cx="618.033" cy="264.688" r="0.391"/>
	<circle fill="#FFFFFF" cx="619.402" cy="263.035" r="0.391"/>
	<circle fill="#FFFFFF" cx="620.004" cy="263.035" r="0.39"/>
	<circle fill="#FFFFFF" cx="620.651" cy="262.924" r="0.39"/>
	<circle fill="#FFFFFF" cx="621.28" cy="263.01" r="0.39"/>
	<circle fill="#FFFFFF" cx="621.833" cy="263.113" r="0.39"/>
	<circle fill="#FFFFFF" cx="622.318" cy="263.498" r="0.39"/>
	<circle fill="#FFFFFF" cx="622.669" cy="263.87" r="0.39"/>
	<circle fill="#FFFFFF" cx="618.854" cy="263.498" r="0.152"/>
	<circle fill="#FFFFFF" cx="619.002" cy="263.319" r="0.204"/>
	<path fill="#FFFFFF" d="M617.626,265.589c0,0,1.994-1.225,2.958-2.476c0,0,1.709,2.302,2.885,2.421c0,0,0.953-4.225-2.885-4.389
		C616.746,260.98,617.626,265.589,617.626,265.589z"/>
	<g>
		<path fill="#FFFFFF" d="M620.583,261.146c-1.923-0.083-2.661,1.033-2.92,2.167c0.263-0.07,2.866-0.77,2.987-1.013
			c0,0,1.595,1.365,2.906,1.729C623.461,262.798,622.881,261.245,620.583,261.146z"/>
	</g>
	<g>
		<path fill="#FFFFFF" d="M616.044,278.281c-0.011-0.242,0.599-1.621,0.972-2.442c0.166-0.363,0.285-0.618,0.285-0.618
			c0.559-1.228-0.426-1.654-0.829-1.837c-0.403-0.184-0.647,0.152-0.647,0.152c-0.805,1.234-1.084,4.56-1.084,4.56
			s-0.083,0.468-0.274,0.761c-0.166,0.254-0.421,1.684-0.581,3.199h1.559c0.186-0.83,0.35-1.523,0.407-1.678
			C616.016,279.941,616.061,278.629,616.044,278.281z"/>
		<path fill="#FFFFFF" d="M626.457,278.964c-0.176-0.301-0.234-0.773-0.234-0.773s-0.107-3.336-0.847-4.61
			c0,0-0.227-0.347-0.639-0.185c-0.413,0.162-1.419,0.537-0.924,1.792c0,0,0.106,0.261,0.253,0.632
			c0.331,0.84,0.868,2.248,0.844,2.488c-0.033,0.348-0.056,1.661,0.086,2.104c0.049,0.152,0.172,0.829,0.311,1.644h1.559
			C626.78,280.584,626.605,279.22,626.457,278.964z"/>
	</g>
</g>
<g>
	<path fill="#FFFFFF" d="M478.029,300.98c-0.687-1.603-3.417-4.393-3.851-4.95c-0.435-0.558-1.777-1.362-2.363-0.643
		c-0.586,0.719-0.031,1.553-0.031,1.553s0.035,0.171,1.321,1.335c2.413,2.188,3.32,3.375,3.94,4.167c0,0,0.433,0.499,0.967-0.186
		C478.443,301.687,478.029,300.98,478.029,300.98z"/>
	<path fill="#FFFFFF" d="M478.112,302.094c0,0-0.551,1.156-2.692,2.518c-0.61,0.388-1.151,0.632-1.151,0.632s-0.262,1.239-0.646,1.6
		c-0.386,0.358-0.894,0.494-0.894,0.494l0.435-0.751c0,0-0.947,0.357-1.122,1.182l-0.093,0.316l-0.229-0.064
		c0,0-0.115-0.472,0.046-0.927c0.162-0.455,2.076-2.223,2.076-2.223c0.447-0.248,2.271-2.346,2.779-2.922
		c0.158-0.178,0.335-0.318,0.566-0.494c0,0,0.393-0.334,0.755-0.048C478.306,301.691,478.112,302.094,478.112,302.094z"/>
	<path fill="#FFFFFF" d="M472.591,307.646c1.894,1.621,1.125,4.942,0.937,5.478c-0.227,0.737-0.683,1.725-1.564,3.007
		c-2.375,3.455-5.727,6.014-5.727,6.014s-0.446,0.852-1.14,0.175c-0.327-0.316-0.634-0.858-0.431-1.534
		c0.205-0.677,3.441-10.335,4.803-12.483C469.469,308.302,470.697,306.024,472.591,307.646z"/>
	<path fill="#FFFFFF" d="M470.34,305.605c2.484,0.188,3.831,3.319,3.995,3.863c0.253,0.728,0.47,1.794,0.519,3.351
		c0.129,4.189,1.017,7.555,1.017,7.555s0.144,0.95-0.815,0.815c-0.452-0.063-1.019-0.317-1.255-0.983
		c-0.237-0.666-5.417-9.688-5.588-12.225C468.212,307.981,467.854,305.42,470.34,305.605z"/>
	<path fill="#FFFFFF" d="M473.965,320.04c0,0,3.823,11.803,4.127,12.636c0.303,0.832,0.05,1.235,0.05,1.235l-2.624,0.883l0.101,0.38
		h3.406l0.959-0.505c-0.176-0.329-0.808-1.11-1.06-1.842c-0.252-0.732-0.48-4.997-1.237-8.354c-0.756-3.354-2.82-4.743-2.82-4.743
		s-0.301-0.265-0.61-0.191C473.953,319.615,473.922,319.903,473.965,320.04z"/>
	<path fill="#FFFFFF" d="M465.346,320.097c0,0-4.256,11.653-4.53,12.497c-0.274,0.842-0.722,1.005-0.722,1.005l-2.611-0.922
		l-0.153,0.361l2.684,2.098l1.095-0.027c0.063-0.367,0.019-1.152,0.271-1.883c0.253-0.732,2.699-4.232,4.169-7.344
		c1.471-3.109,0.699-5.475,0.699-5.475s-0.074-0.394-0.363-0.525C465.598,319.754,465.395,319.963,465.346,320.097z"/>
	<path fill="#FFFFFF" d="M474.773,308.075c0,0,1.046,2.295,1.604,6.166c0.529,3.683,2.131,14.283,3.606,17.453
		c1.476,3.169-15.636,0.479-18.095-0.396c-2.459-0.875,5.624-16.747,5.496-23.224H474.773z"/>
	<path fill="#FFFFFF" d="M471.033,295.23c0,0,0.63-0.973,0.125-2.232c-0.506-1.26,2.315-0.876,2.315-0.876l-0.462,2.671
		c0.098,1.279-1.271,1.614-1.77,1.345C470.744,295.867,471.033,295.23,471.033,295.23z"/>
	<path fill="#FFFFFF" d="M467.4,308.279c0,0-0.37-3.624,0.853-7.714c0,0-0.501-1.097-0.187-1.806
		c0.314-0.71,3.089-3.902,3.282-4.644l1.612-0.354c0,0,1.586,2.296,1.403,4.966c-0.194,2.827,0.099,6.111,0.099,6.58
		c0,0.542,0.311,2.971,0.311,2.971H467.4z"/>
	<path fill="#FFFFFF" d="M470.099,303.196c1.123-1.332,2.394-5.024,2.698-5.663c0.303-0.639,0.419-2.198-0.486-2.399
		c-0.906-0.201-1.402,0.667-1.402,0.667s-0.136,0.108-0.601,1.779c-0.872,3.139-1.526,4.482-1.956,5.392c0,0-0.254,0.612,0.6,0.781
		C469.653,303.883,470.099,303.196,470.099,303.196z"/>
	<path fill="#FFFFFF" d="M469.141,303.77c0,0-1.28,0.025-3.457-1.278c-0.62-0.371-1.08-0.746-1.08-0.746s-1.226,0.323-1.721,0.141
		c-0.493-0.184-0.843-0.575-0.843-0.575l0.867,0.05c0,0-0.744-0.687-1.561-0.472l-0.324,0.058l-0.044-0.233
		c0,0,0.369-0.315,0.848-0.373c0.479-0.06,2.918,0.857,2.918,0.857c0.422,0.288,3.116,0.977,3.857,1.173
		c0.23,0.063,0.437,0.157,0.696,0.285c0,0,0.476,0.201,0.382,0.654C469.587,303.762,469.141,303.77,469.141,303.77z"/>
	<path fill="#FFFFFF" d="M469.547,288.75c0.006-0.079,0.01-0.123,0.01-0.123h0.006c0.002-0.018,0.004-0.037,0.006-0.056
		c0.263-1.795,1.651-3.076,3.104-2.864c1.451,0.212,2.415,1.839,2.153,3.631c-0.003,0.02-0.007,0.038-0.009,0.058h0.001
		c0,0-0.001,0.005-0.003,0.012c-0.043,0.263-0.11,0.514-0.198,0.751c-0.376,1.226-1.31,3.472-3.065,3.215h-0.004
		c-1.798-0.262-2.02-2.797-2.018-4.051C469.522,289.136,469.527,288.944,469.547,288.75z"/>
	<path fill="#FFFFFF" d="M469.568,288.571c0,0-0.24,1.204-0.416,1.396c-0.175,0.189,0.43,0.394,0.43,0.394l0.27-0.061
		L469.568,288.571z"/>
	<g>
		<path fill="#FFFFFF" d="M471.898,290.313c0-0.468,0.381-0.848,0.848-0.848s0.846,0.38,0.846,0.848
			c0,0.467-0.379,0.847-0.846,0.847S471.898,290.78,471.898,290.313z M471.992,290.313c0,0.414,0.338,0.754,0.754,0.754
			c0.415,0,0.753-0.34,0.753-0.754c0-0.416-0.338-0.755-0.753-0.755C472.33,289.559,471.992,289.897,471.992,290.313z"/>
	</g>
	<path fill="#FFFFFF" d="M473.021,289.743c0.093-0.839-0.391-0.716-0.98-1.116s-0.285-1.104-0.495-1.542
		c-0.21-0.438-1.514,0.195-1.583,0.037c-0.068-0.16,0.234-0.603,0.234-0.603s1.473-1.853,3.357-0.911
		c2.219,1.108,1.856,3.65,1.856,3.65s-0.952,3.982-1.896,2.902C472.924,291.486,473.021,289.743,473.021,289.743z"/>
	<circle fill="#FFFFFF" cx="470.058" cy="286.48" r="0.559"/>
	<circle fill="#FFFFFF" cx="471.066" cy="285.479" r="0.551"/>
	<circle fill="#FFFFFF" cx="473.212" cy="285.194" r="0.551"/>
	<circle fill="#FFFFFF" cx="474.401" cy="285.892" r="0.551"/>
	<circle fill="#FFFFFF" cx="471.669" cy="285.148" r="0.372"/>
	<circle fill="#FFFFFF" cx="470.515" cy="285.961" r="0.372"/>
	<circle fill="#FFFFFF" cx="472.197" cy="285.342" r="0.371"/>
	<circle fill="#FFFFFF" cx="473.979" cy="285.479" r="0.371"/>
	<circle fill="#FFFFFF" cx="472.6" cy="285.029" r="0.387"/>
	<circle fill="#FFFFFF" cx="474.868" cy="286.48" r="0.386"/>
	<circle fill="#FFFFFF" cx="475.168" cy="287.371" r="0.386"/>
	<circle fill="#FFFFFF" cx="475.433" cy="289.153" r="0.387"/>
	<circle fill="#FFFFFF" cx="475.116" cy="290.134" r="0.387"/>
	<circle fill="#FFFFFF" cx="475.332" cy="288.099" r="0.387"/>
	<circle fill="#FFFFFF" cx="475.433" cy="288.571" r="0.387"/>
	<circle fill="#FFFFFF" cx="472.147" cy="284.928" r="0.216"/>
	<circle fill="#FFFFFF" cx="473.763" cy="285.148" r="0.216"/>
	<circle fill="#FFFFFF" cx="475.274" cy="286.813" r="0.216"/>
	<circle fill="#FFFFFF" cx="474.952" cy="286.045" r="0.216"/>
	<circle fill="#FFFFFF" cx="473.599" cy="285.587" r="0.216"/>
	<circle fill="#FFFFFF" cx="470.458" cy="285.479" r="0.159"/>
	<circle fill="#FFFFFF" cx="475.332" cy="287.04" r="0.158"/>
	<circle fill="#FFFFFF" cx="475.591" cy="287.758" r="0.159"/>
	<circle fill="#FFFFFF" cx="475.365" cy="287.712" r="0.159"/>
	<circle fill="#FFFFFF" cx="475.502" cy="287.53" r="0.158"/>
	<circle fill="#FFFFFF" cx="475.661" cy="289.538" r="0.158"/>
	<circle fill="#FFFFFF" cx="475.084" cy="290.521" r="0.159"/>
	<circle fill="#FFFFFF" cx="474.708" cy="291.357" r="0.198"/>
	<circle fill="#FFFFFF" cx="473.738" cy="291.925" r="0.198"/>
	<circle fill="#FFFFFF" cx="474.195" cy="291.766" r="0.198"/>
	<circle fill="#FFFFFF" cx="474.826" cy="291.16" r="0.158"/>
	<circle fill="#FFFFFF" cx="474.016" cy="291.965" r="0.159"/>
	<circle fill="#FFFFFF" cx="474.41" cy="291.607" r="0.159"/>
	<circle fill="#FFFFFF" cx="475.402" cy="289.589" r="0.159"/>
	<circle fill="#FFFFFF" cx="475.433" cy="289.798" r="0.259"/>
	<circle fill="#FFFFFF" cx="474.926" cy="290.842" r="0.258"/>
	<circle fill="#FFFFFF" cx="474.569" cy="291.712" r="0.258"/>
	<circle fill="#FFFFFF" cx="475.015" cy="286.909" r="0.159"/>
	<circle fill="#FFFFFF" cx="475.206" cy="286.653" r="0.159"/>
	<circle fill="#FFFFFF" cx="475.719" cy="288.257" r="0.158"/>
	<circle fill="#FFFFFF" cx="470.126" cy="285.713" r="0.331"/>
	<circle fill="#FFFFFF" cx="470.003" cy="286.909" r="0.256"/>
</g>
<g>
	<path fill="#FFFFFF" d="M425.168,309.241c1.236-0.005,3.814-1.013,4.301-1.141c0.481-0.131,1.38-0.784,1.071-1.365
		c-0.306-0.581-1.003-0.452-1.003-0.452s-0.121-0.023-1.238,0.493c-2.099,0.969-3.122,1.232-3.812,1.415
		c0,0-0.445,0.145-0.147,0.685C424.592,309.314,425.168,309.241,425.168,309.241z"/>
	<path fill="#FFFFFF" d="M424.419,308.985c0,0-0.601-0.68-0.897-2.454c-0.083-0.505-0.092-0.928-0.092-0.928
		s-0.737-0.515-0.865-0.865c-0.126-0.352-0.076-0.72-0.076-0.72l0.372,0.491c0,0,0.028-0.719-0.461-1.06l-0.181-0.147l0.105-0.132
		c0,0,0.339,0.055,0.591,0.285c0.253,0.233,0.875,1.972,0.875,1.972c0.039,0.362,0.902,2.133,1.137,2.624
		c0.071,0.154,0.114,0.308,0.164,0.507c0,0,0.11,0.351-0.176,0.507C424.627,309.223,424.419,308.985,424.419,308.985z"/>
	<path fill="#FFFFFF" d="M429.68,315.069c1.342,1.148,0.798,3.504,0.664,3.883c-0.16,0.522-0.483,1.224-1.109,2.132
		c-1.685,2.451-4.063,4.266-4.063,4.266s-0.314,0.604-0.807,0.123c-0.232-0.225-0.449-0.607-0.306-1.087
		c0.146-0.48,2.44-7.329,3.407-8.854C427.467,315.532,428.336,313.919,429.68,315.069z"/>
	<path fill="#FFFFFF" d="M428.083,313.621c1.763,0.134,2.717,2.354,2.833,2.739c0.18,0.517,0.333,1.272,0.369,2.376
		c0.089,2.972,0.721,5.357,0.721,5.357s0.102,0.674-0.579,0.577c-0.32-0.043-0.723-0.223-0.89-0.696
		c-0.168-0.473-3.842-6.869-3.963-8.669C426.574,315.306,426.32,313.49,428.083,313.621z"/>
	<path fill="#FFFFFF" d="M430.654,323.856c0,0,2.711,8.369,2.926,8.961c0.215,0.59,0.036,0.876,0.036,0.876l-1.861,0.628
		l0.071,0.268h2.415l0.681-0.359c-0.125-0.232-0.574-0.786-0.751-1.304c-0.18-0.521-0.341-3.545-0.878-5.924
		c-0.535-2.379-2-3.365-2-3.365s-0.213-0.187-0.433-0.135C430.646,323.556,430.623,323.76,430.654,323.856z"/>
	<path fill="#FFFFFF" d="M424.542,323.898c0,0-3.018,8.263-3.213,8.861c-0.194,0.596-0.512,0.713-0.512,0.713l-1.851-0.654
		l-0.11,0.255l1.904,1.488l0.776-0.02c0.044-0.26,0.014-0.816,0.191-1.336c0.179-0.519,1.914-2.999,2.957-5.206
		c1.041-2.205,0.495-3.883,0.495-3.883s-0.054-0.278-0.258-0.371C424.721,323.655,424.577,323.803,424.542,323.898z"/>
	<path fill="#FFFFFF" d="M428.575,306.264c0,0,0.446-0.688,0.088-1.582s1.188-0.405,1.188-0.405l0.127,1.678
		c0.068,0.908-0.901,1.146-1.256,0.954C428.37,306.717,428.575,306.264,428.575,306.264z"/>
	<path fill="#FFFFFF" d="M425.998,315.517c0,0-0.262-2.57,0.605-5.471c0,0-0.355-0.775-0.132-1.278
		c0.224-0.504,2.189-2.767,2.327-3.294l1.144-0.25c0,0,1.124,1.627,0.995,3.521c-0.138,2.005,0.07,4.333,0.07,4.665
		c0,0.384,0.22,2.106,0.22,2.106H425.998z"/>
	<path fill="#FFFFFF" d="M427.912,311.913c0.797-0.946,1.697-3.563,1.914-4.016c0.214-0.453,0.296-1.559-0.346-1.702
		c-0.642-0.142-0.994,0.474-0.994,0.474s-0.096,0.076-0.426,1.262c-0.618,2.226-1.082,3.178-1.388,3.824
		c0,0-0.179,0.432,0.425,0.553C427.596,312.399,427.912,311.913,427.912,311.913z"/>
	<path fill="#FFFFFF" d="M427.232,312.319c0,0-0.907,0.018-2.451-0.905c-0.44-0.264-0.766-0.53-0.766-0.53s-0.869,0.229-1.22,0.101
		c-0.35-0.131-0.598-0.41-0.598-0.41l0.614,0.035c0,0-0.527-0.485-1.106-0.333l-0.229,0.041l-0.031-0.166
		c0,0,0.261-0.223,0.602-0.265c0.339-0.042,2.068,0.609,2.068,0.609c0.3,0.203,2.21,0.692,2.736,0.832
		c0.162,0.044,0.309,0.11,0.492,0.201c0,0,0.338,0.143,0.271,0.464C427.549,312.313,427.232,312.319,427.232,312.319z"/>
	<path fill="#FFFFFF" d="M427.521,301.411c0.004-0.055,0.006-0.086,0.006-0.086h0.004c0.002-0.014,0.003-0.027,0.006-0.04
		c0.186-1.272,1.17-2.181,2.199-2.03c1.029,0.148,1.713,1.302,1.527,2.574c-0.002,0.016-0.004,0.026-0.006,0.042l0,0
		c0,0,0,0.002-0.001,0.007c-0.031,0.187-0.079,0.365-0.142,0.532c-0.266,0.87-0.928,2.463-2.173,2.279h-0.003
		c-1.274-0.185-1.432-1.982-1.431-2.87C427.504,301.687,427.508,301.55,427.521,301.411z"/>
	<path fill="#FFFFFF" d="M427.537,301.285c0,0-0.171,0.854-0.296,0.99c-0.124,0.134,0.306,0.278,0.306,0.278l0.19-0.043
		L427.537,301.285z"/>
	<g>
		<path fill="#FFFFFF" d="M429.188,302.521c0-0.333,0.27-0.603,0.602-0.603c0.331,0,0.6,0.27,0.6,0.603c0,0.331-0.269,0.6-0.6,0.6
			C429.458,303.121,429.188,302.853,429.188,302.521z M429.256,302.521c0,0.293,0.238,0.533,0.534,0.533
			c0.294,0,0.534-0.24,0.534-0.533c0-0.296-0.24-0.535-0.534-0.535C429.494,301.986,429.256,302.226,429.256,302.521z"/>
	</g>
	<path fill="#FFFFFF" d="M429.984,302.117c0.066-0.595-0.276-0.509-0.695-0.792c-0.418-0.285-0.202-0.783-0.35-1.095
		c-0.15-0.31-1.074,0.14-1.123,0.026c-0.05-0.113,0.166-0.426,0.166-0.426s1.044-1.313,2.381-0.646
		c1.573,0.786,1.315,2.588,1.315,2.588s-0.674,2.824-1.345,2.058C429.916,303.353,429.984,302.117,429.984,302.117z"/>
	<circle fill="#FFFFFF" cx="427.883" cy="299.802" r="0.396"/>
	<circle fill="#FFFFFF" cx="428.599" cy="299.092" r="0.391"/>
	<circle fill="#FFFFFF" cx="430.12" cy="298.892" r="0.391"/>
	<circle fill="#FFFFFF" cx="430.964" cy="299.386" r="0.391"/>
	<circle fill="#FFFFFF" cx="429.026" cy="298.858" r="0.263"/>
	<circle fill="#FFFFFF" cx="428.207" cy="299.435" r="0.264"/>
	<circle fill="#FFFFFF" cx="429.4" cy="298.995" r="0.264"/>
	<circle fill="#FFFFFF" cx="430.664" cy="299.092" r="0.263"/>
	<circle fill="#FFFFFF" cx="429.686" cy="298.773" r="0.274"/>
	<circle fill="#FFFFFF" cx="431.294" cy="299.802" r="0.274"/>
	<circle fill="#FFFFFF" cx="431.508" cy="300.435" r="0.273"/>
	<path fill="#FFFFFF" d="M431.421,301.699c0,0.149,0.123,0.272,0.273,0.272c0.152,0,0.274-0.123,0.274-0.272
		c0-0.153-0.122-0.276-0.274-0.276C431.544,301.423,431.421,301.546,431.421,301.699z"/>
	<circle fill="#FFFFFF" cx="431.47" cy="302.394" r="0.274"/>
	<circle fill="#FFFFFF" cx="431.624" cy="300.95" r="0.274"/>
	<circle fill="#FFFFFF" cx="431.695" cy="301.285" r="0.274"/>
	<circle fill="#FFFFFF" cx="429.365" cy="298.701" r="0.153"/>
	<circle fill="#FFFFFF" cx="430.51" cy="298.858" r="0.153"/>
	<circle fill="#FFFFFF" cx="431.582" cy="300.038" r="0.153"/>
	<circle fill="#FFFFFF" cx="431.354" cy="299.494" r="0.153"/>
	<circle fill="#FFFFFF" cx="430.394" cy="299.17" r="0.153"/>
	<circle fill="#FFFFFF" cx="428.167" cy="299.092" r="0.112"/>
	<circle fill="#FFFFFF" cx="431.623" cy="300.199" r="0.112"/>
	<circle fill="#FFFFFF" cx="431.807" cy="300.708" r="0.113"/>
	<circle fill="#FFFFFF" cx="431.646" cy="300.676" r="0.112"/>
	<circle fill="#FFFFFF" cx="431.745" cy="300.547" r="0.112"/>
	<circle fill="#FFFFFF" cx="431.856" cy="301.972" r="0.112"/>
	<circle fill="#FFFFFF" cx="431.448" cy="302.668" r="0.112"/>
	<circle fill="#FFFFFF" cx="431.181" cy="303.261" r="0.141"/>
	<circle fill="#FFFFFF" cx="430.493" cy="303.921" r="0.14"/>
	<circle fill="#FFFFFF" cx="430.817" cy="303.808" r="0.141"/>
	<circle fill="#FFFFFF" cx="431.265" cy="303.121" r="0.112"/>
	<circle fill="#FFFFFF" cx="430.69" cy="303.948" r="0.112"/>
	<circle fill="#FFFFFF" cx="430.97" cy="303.695" r="0.112"/>
	<circle fill="#FFFFFF" cx="431.673" cy="302.007" r="0.112"/>
	<circle fill="#FFFFFF" cx="431.695" cy="302.154" r="0.183"/>
	<circle fill="#FFFFFF" cx="431.335" cy="302.895" r="0.183"/>
	<circle fill="#FFFFFF" cx="431.083" cy="303.513" r="0.183"/>
	<circle fill="#FFFFFF" cx="431.398" cy="300.106" r="0.112"/>
	<circle fill="#FFFFFF" cx="431.535" cy="299.926" r="0.112"/>
	<circle fill="#FFFFFF" cx="431.897" cy="301.062" r="0.112"/>
	<circle fill="#FFFFFF" cx="427.932" cy="299.258" r="0.235"/>
	<circle fill="#FFFFFF" cx="427.845" cy="300.106" r="0.182"/>
	<path fill="#FFFFFF" d="M425.998,315.517c0,0-3.691,11.426-3.907,13.072c-0.218,1.645,1.664,1.455,2.146,1.17
		c0.483-0.285,1.453-4.693,2.54-5.819c1.086-1.127,2.086-2.751,2.086-2.751s2.594,7.843,2.846,8.127
		c0.253,0.285,2.246-0.44,2.372-0.695c0.126-0.253-2.622-10.737-2.854-13.104C430.995,313.151,425.998,315.517,425.998,315.517z"/>
</g>
<g>
	<path fill="#FFFFFF" d="M398.146,309.241c-1.237-0.005-3.814-1.013-4.3-1.141c-0.482-0.131-1.381-0.784-1.072-1.365
		c0.305-0.581,1.004-0.452,1.004-0.452s0.121-0.023,1.237,0.493c2.099,0.969,3.122,1.232,3.812,1.415c0,0,0.446,0.145,0.148,0.685
		C398.723,309.314,398.146,309.241,398.146,309.241z"/>
	<path fill="#FFFFFF" d="M398.709,309.075c0,0,0.893-0.158,2.23-1.361c0.381-0.342,0.651-0.669,0.651-0.669s0.896,0.058,1.215-0.136
		c0.317-0.196,0.509-0.517,0.509-0.517l-0.598,0.153c0,0,0.426-0.58,1.021-0.542l0.233-0.002v-0.17c0,0-0.299-0.168-0.641-0.146
		c-0.343,0.025-1.913,0.997-1.913,0.997c-0.255,0.26-2.036,1.106-2.524,1.344c-0.151,0.076-0.28,0.168-0.445,0.294
		c0,0-0.303,0.205-0.177,0.505C398.396,309.13,398.709,309.075,398.709,309.075z"/>
	<path fill="#FFFFFF" d="M393.635,315.069c-1.343,1.148-0.799,3.504-0.664,3.883c0.16,0.522,0.483,1.224,1.108,2.132
		c1.685,2.451,4.062,4.266,4.062,4.266s0.316,0.604,0.809,0.123c0.231-0.225,0.449-0.607,0.305-1.087
		c-0.146-0.48-2.441-7.329-3.406-8.854C395.848,315.532,394.978,313.919,393.635,315.069z"/>
	<path fill="#FFFFFF" d="M395.23,313.621c-1.762,0.134-2.717,2.354-2.833,2.739c-0.181,0.517-0.333,1.272-0.368,2.376
		c-0.091,2.972-0.721,5.357-0.721,5.357s-0.102,0.674,0.578,0.577c0.32-0.043,0.723-0.223,0.891-0.696
		c0.168-0.473,3.842-6.869,3.962-8.669C396.739,315.306,396.993,313.49,395.23,313.621z"/>
	<path fill="#FFFFFF" d="M392.659,323.856c0,0-2.711,8.369-2.925,8.961c-0.216,0.59-0.037,0.876-0.037,0.876l1.862,0.628
		l-0.072,0.268h-2.415l-0.681-0.359c0.125-0.232,0.573-0.786,0.751-1.304c0.18-0.521,0.342-3.545,0.879-5.924
		c0.535-2.379,1.999-3.365,1.999-3.365s0.214-0.187,0.433-0.135C392.668,323.556,392.69,323.76,392.659,323.856z"/>
	<path fill="#FFFFFF" d="M398.771,323.898c0,0,3.018,8.263,3.213,8.861c0.194,0.596,0.512,0.713,0.512,0.713l1.852-0.654
		l0.109,0.255l-1.903,1.488l-0.776-0.02c-0.045-0.26-0.014-0.816-0.191-1.336c-0.18-0.519-1.914-2.999-2.957-5.206
		c-1.043-2.205-0.496-3.883-0.496-3.883s0.054-0.278,0.258-0.371C398.594,323.655,398.736,323.803,398.771,323.898z"/>
	<path fill="#FFFFFF" d="M394.739,306.264c0,0-0.447-0.688-0.089-1.582s-1.188-0.405-1.188-0.405l-0.127,1.678
		c-0.068,0.908,0.9,1.146,1.255,0.954C394.944,306.717,394.739,306.264,394.739,306.264z"/>
	<path fill="#FFFFFF" d="M397.314,315.517c0,0,0.263-2.57-0.604-5.471c0,0,0.356-0.775,0.132-1.278
		c-0.223-0.504-2.189-2.767-2.326-3.294l-1.145-0.25c0,0-1.124,1.627-0.994,3.521c0.137,2.005-0.07,4.333-0.07,4.665
		c0,0.384-0.221,2.106-0.221,2.106H397.314z"/>
	<path fill="#FFFFFF" d="M395.402,311.913c-0.798-0.946-1.698-3.563-1.914-4.016c-0.215-0.453-0.297-1.559,0.345-1.702
		c0.642-0.142,0.995,0.474,0.995,0.474s0.096,0.076,0.426,1.262c0.618,2.226,1.082,3.178,1.387,3.824c0,0,0.18,0.432-0.426,0.553
		C395.717,312.399,395.402,311.913,395.402,311.913z"/>
	<path fill="#FFFFFF" d="M396.081,312.319c0,0,0.907,0.018,2.451-0.905c0.44-0.264,0.767-0.53,0.767-0.53s0.869,0.229,1.219,0.101
		c0.35-0.131,0.598-0.41,0.598-0.41l-0.615,0.035c0,0,0.528-0.485,1.107-0.333l0.23,0.041l0.031-0.166c0,0-0.263-0.223-0.602-0.265
		c-0.34-0.042-2.069,0.609-2.069,0.609c-0.3,0.203-2.21,0.692-2.735,0.832c-0.164,0.044-0.309,0.11-0.493,0.201
		c0,0-0.338,0.143-0.271,0.464C395.764,312.313,396.081,312.319,396.081,312.319z"/>
	<path fill="#FFFFFF" d="M395.793,301.411c-0.005-0.055-0.007-0.086-0.007-0.086h-0.004c-0.002-0.014-0.003-0.027-0.006-0.04
		c-0.185-1.272-1.171-2.181-2.199-2.03c-1.029,0.148-1.713,1.302-1.527,2.574c0.003,0.016,0.005,0.026,0.007,0.042l0,0
		c0,0,0,0.002,0.001,0.007c0.031,0.187,0.078,0.365,0.14,0.532c0.268,0.87,0.929,2.463,2.174,2.279h0.004
		c1.273-0.185,1.432-1.982,1.43-2.87C395.811,301.687,395.807,301.55,395.793,301.411z"/>
	<path fill="#FFFFFF" d="M395.776,301.285c0,0,0.172,0.854,0.296,0.99c0.124,0.134-0.305,0.278-0.305,0.278l-0.191-0.043
		L395.776,301.285z"/>
	<g>
		<path fill="#FFFFFF" d="M393.524,303.121c-0.331,0-0.601-0.269-0.601-0.6c0-0.333,0.27-0.603,0.601-0.603s0.601,0.27,0.601,0.603
			C394.125,302.853,393.855,303.121,393.524,303.121z M393.524,301.986c-0.294,0-0.534,0.239-0.534,0.535
			c0,0.293,0.24,0.533,0.534,0.533c0.295,0,0.534-0.24,0.534-0.533C394.059,302.226,393.819,301.986,393.524,301.986z"/>
	</g>
	<path fill="#FFFFFF" d="M393.329,302.117c-0.066-0.595,0.276-0.509,0.695-0.792c0.418-0.285,0.202-0.783,0.351-1.095
		c0.148-0.31,1.072,0.14,1.122,0.026s-0.165-0.426-0.165-0.426s-1.045-1.313-2.381-0.646c-1.573,0.786-1.316,2.588-1.316,2.588
		s0.675,2.824,1.345,2.058C393.396,303.353,393.329,302.117,393.329,302.117z"/>
	<circle fill="#FFFFFF" cx="395.431" cy="299.802" r="0.396"/>
	<circle fill="#FFFFFF" cx="394.716" cy="299.092" r="0.391"/>
	<circle fill="#FFFFFF" cx="393.193" cy="298.892" r="0.391"/>
	<circle fill="#FFFFFF" cx="392.35" cy="299.386" r="0.391"/>
	<circle fill="#FFFFFF" cx="394.288" cy="298.858" r="0.263"/>
	<circle fill="#FFFFFF" cx="395.106" cy="299.435" r="0.264"/>
	<circle fill="#FFFFFF" cx="393.914" cy="298.995" r="0.264"/>
	<circle fill="#FFFFFF" cx="392.65" cy="299.092" r="0.264"/>
	<circle fill="#FFFFFF" cx="393.628" cy="298.773" r="0.274"/>
	<circle fill="#FFFFFF" cx="392.019" cy="299.802" r="0.274"/>
	<circle fill="#FFFFFF" cx="391.807" cy="300.435" r="0.273"/>
	<path fill="#FFFFFF" d="M391.893,301.699c0,0.149-0.122,0.272-0.273,0.272c-0.152,0-0.275-0.123-0.275-0.272
		c0-0.153,0.123-0.276,0.275-0.276C391.771,301.423,391.893,301.546,391.893,301.699z"/>
	<circle fill="#FFFFFF" cx="391.844" cy="302.394" r="0.274"/>
	<circle fill="#FFFFFF" cx="391.69" cy="300.95" r="0.274"/>
	<circle fill="#FFFFFF" cx="391.618" cy="301.285" r="0.274"/>
	<circle fill="#FFFFFF" cx="393.949" cy="298.701" r="0.152"/>
	<circle fill="#FFFFFF" cx="392.803" cy="298.858" r="0.153"/>
	<circle fill="#FFFFFF" cx="391.731" cy="300.038" r="0.153"/>
	<circle fill="#FFFFFF" cx="391.96" cy="299.494" r="0.153"/>
	<circle fill="#FFFFFF" cx="392.92" cy="299.17" r="0.152"/>
	<circle fill="#FFFFFF" cx="395.147" cy="299.092" r="0.112"/>
	<circle fill="#FFFFFF" cx="391.69" cy="300.199" r="0.112"/>
	<circle fill="#FFFFFF" cx="391.507" cy="300.708" r="0.112"/>
	<circle fill="#FFFFFF" cx="391.667" cy="300.676" r="0.113"/>
	<circle fill="#FFFFFF" cx="391.57" cy="300.547" r="0.112"/>
	<circle fill="#FFFFFF" cx="391.457" cy="301.972" r="0.113"/>
	<circle fill="#FFFFFF" cx="391.866" cy="302.668" r="0.113"/>
	<circle fill="#FFFFFF" cx="392.134" cy="303.261" r="0.141"/>
	<circle fill="#FFFFFF" cx="392.821" cy="303.921" r="0.14"/>
	<circle fill="#FFFFFF" cx="392.497" cy="303.808" r="0.14"/>
	<circle fill="#FFFFFF" cx="392.049" cy="303.121" r="0.112"/>
	<circle fill="#FFFFFF" cx="392.623" cy="303.948" r="0.112"/>
	<circle fill="#FFFFFF" cx="392.344" cy="303.695" r="0.112"/>
	<circle fill="#FFFFFF" cx="391.641" cy="302.007" r="0.112"/>
	<circle fill="#FFFFFF" cx="391.619" cy="302.154" r="0.184"/>
	<circle fill="#FFFFFF" cx="391.978" cy="302.895" r="0.183"/>
	<circle fill="#FFFFFF" cx="392.231" cy="303.513" r="0.183"/>
	<circle fill="#FFFFFF" cx="391.915" cy="300.106" r="0.112"/>
	<circle fill="#FFFFFF" cx="391.779" cy="299.926" r="0.112"/>
	<circle fill="#FFFFFF" cx="391.416" cy="301.062" r="0.112"/>
	<circle fill="#FFFFFF" cx="395.381" cy="299.258" r="0.235"/>
	<circle fill="#FFFFFF" cx="395.469" cy="300.106" r="0.182"/>
	<path fill="#FFFFFF" d="M397.314,315.517c0,0,3.692,11.426,3.909,13.072c0.216,1.645-1.664,1.455-2.147,1.17
		c-0.482-0.285-1.453-4.693-2.539-5.819c-1.087-1.127-2.086-2.751-2.086-2.751s-2.594,7.843-2.847,8.127
		c-0.253,0.285-2.246-0.44-2.372-0.695c-0.126-0.253,2.622-10.737,2.854-13.104C392.318,313.151,397.314,315.517,397.314,315.517z"
		/>
</g>
<g>
	<rect x="268.667" y="312.024" fill="none" stroke="#FFFFFF" stroke-miterlimit="10" width="42.381" height="4.755"/>
	<line fill="#78AFD2" stroke="#FFFFFF" stroke-miterlimit="10" x1="268.667" y1="316.779" x2="268.667" y2="326.712"/>
	<line fill="#78AFD2" stroke="#FFFFFF" stroke-miterlimit="10" x1="311.048" y1="316.779" x2="311.048" y2="326.777"/>
</g>
<g>
	<path fill="#FFFFFF" d="M798.445,308.4c-0.439,2.36-3.58,3.321-4.117,3.422c-0.726,0.165-1.769,0.261-3.262,0.145
		c-4.029-0.316-10.707-0.188-10.707-0.188s-0.926,0.039-0.695-0.864c0.106-0.427,0.41-0.942,1.073-1.099
		c0.663-0.158,13.211-3.806,15.657-3.703C796.395,306.112,798.889,306.037,798.445,308.4z"/>
	<path fill="#FFFFFF" d="M779.643,311.162c0,0,1.088,11.904,1.197,12.751c0.107,0.847-0.217,1.171-0.217,1.171l-2.66,0.996
		l0.014,0.378h3.21l1.009-0.271c-0.097-0.346-0.524-1.214-0.605-1.956c-0.082-0.74,0.61-4.797,0.61-8.111
		c0-3.315-1.644-5.059-1.644-5.059s-0.228-0.313-0.533-0.31C779.723,310.759,779.631,311.024,779.643,311.162z"/>
	<path fill="#FFFFFF" d="M794.439,302.813c0.729-0.891,2.526-6.554,2.721-6.978c0.195-0.424,0.259-1.455-0.341-1.578
		c-0.599-0.125-0.919,0.45-0.919,0.45s-0.588,1.378-1.372,4.397c-0.539,2.081-0.969,2.969-1.244,3.573c0,0-0.163,0.406,0.401,0.51
		C794.15,303.269,794.439,302.813,794.439,302.813z"/>
	<path fill="#FFFFFF" d="M794.39,303.331c0,0-0.79,1.06-3.232,2.003c-2.442,0.945-3.729,1.61-3.729,1.61s-0.512,1.203-0.975,1.488
		c-0.464,0.289-1.006,0.324-1.006,0.324l0.594-0.674c0,0-1.033,0.17-1.375,0.971l-0.158,0.303l-0.218-0.115
		c0,0-0.022-0.499,0.232-0.928c0.255-0.428,2.548-1.831,2.548-1.831c0.504-0.163,5.207-3.123,5.837-3.603
		c0.198-0.148,0.405-0.254,0.675-0.388c0,0,0.465-0.258,0.775,0.106C794.665,302.96,794.39,303.331,794.39,303.331z"/>
	<path fill="#FFFFFF" d="M795.846,293.249c0,0,0.494-0.764,0.098-1.752s1.314-0.449,1.314-0.449l0.142,1.859
		c0.075,1.002-0.998,1.265-1.392,1.054C795.617,293.749,795.846,293.249,795.846,293.249z"/>
	<path fill="#FFFFFF" d="M792.859,306.894c0,0-0.578-3.456,0-7.43c0,0-0.482-1.058-0.179-1.74c0.304-0.685,2.976-3.762,3.162-4.475
		l1.554-0.342c0,0,0.684,2.299,0,4.785c-0.684,2.484-0.241,5.771-0.086,6.269c0.156,0.495,0.881,2.933,0.881,2.933H792.859z"/>
	<path fill="#FFFFFF" d="M794.13,287.49c0.005-0.073,0.008-0.114,0.008-0.114l0.005,0.001c0.002-0.017,0.005-0.036,0.008-0.053
		c0.244-1.663,1.531-2.854,2.877-2.657c1.346,0.198,2.24,1.706,1.998,3.37c-0.004,0.018-0.006,0.034-0.009,0.051l0,0
		c0,0,0,0.004-0.003,0.011c-0.039,0.244-0.102,0.477-0.183,0.697c-0.349,1.136-1.215,3.22-2.842,2.983h-0.005
		c-1.668-0.245-1.873-2.596-1.87-3.758C794.107,287.849,794.111,287.669,794.13,287.49z"/>
	<path fill="#FFFFFF" d="M794.15,287.324c0,0-0.225,1.119-0.387,1.292c-0.162,0.177,0.397,0.367,0.397,0.367l0.25-0.055
		L794.15,287.324z"/>
	<path fill="#FFFFFF" d="M795.045,302.955c0.574-0.996,1.411-6.88,1.534-7.329c0.122-0.449,0.016-1.479-0.599-1.502
		c-0.61-0.022-0.831,0.599-0.831,0.599s-0.353,1.452-0.628,4.563c-0.188,2.14-0.466,3.087-0.638,3.729c0,0-0.093,0.429,0.48,0.438
		C794.836,303.454,795.045,302.955,795.045,302.955z"/>
	<path fill="#FFFFFF" d="M795.045,302.691c0,0,0.045,1.322-1.272,3.585c-1.317,2.266-1.904,3.589-1.904,3.589
		s0.35,1.261,0.169,1.771c-0.182,0.515-0.583,0.878-0.583,0.878l0.04-0.895c0,0-0.699,0.777-0.465,1.617l0.064,0.335l-0.24,0.048
		c0,0-0.331-0.376-0.397-0.869c-0.068-0.494,0.845-3.025,0.845-3.025c0.293-0.439,2.113-5.689,2.307-6.458
		c0.06-0.237,0.156-0.453,0.283-0.725c0,0,0.203-0.49,0.67-0.401C795.028,302.231,795.045,302.691,795.045,302.691z"/>
	<g>
		<path fill="#FFFFFF" d="M796.311,288.938c0-0.433,0.353-0.785,0.786-0.785c0.433,0,0.786,0.353,0.786,0.785
			c0,0.434-0.354,0.786-0.786,0.786C796.663,289.725,796.311,289.372,796.311,288.938z M796.396,288.938
			c0,0.387,0.314,0.699,0.7,0.699c0.385,0,0.698-0.313,0.698-0.699c0-0.384-0.313-0.699-0.698-0.699
			C796.711,288.239,796.396,288.555,796.396,288.938z"/>
	</g>
	<path fill="#FFFFFF" d="M797.352,288.411c0.086-0.776-0.362-0.666-0.909-1.035c-0.548-0.371-0.265-1.025-0.458-1.431
		c-0.195-0.404-1.404,0.185-1.468,0.034c-0.064-0.148,0.215-0.557,0.215-0.557s1.366-1.721,3.114-0.846
		c2.058,1.027,1.722,3.384,1.722,3.384s-0.882,3.694-1.759,2.693C797.263,290.025,797.352,288.411,797.352,288.411z"/>
	
		<ellipse transform="matrix(0.9724 -0.2332 0.2332 0.9724 -44.687 194.243)" fill="#FFFFFF" cx="799.236" cy="286.132" rx="1.081" ry="1.418"/>
	<path fill="#FFFFFF" d="M797.812,284.321c0,0,1.459-0.189,2.018,0.411c0.558,0.599,0.845,1.788,0.206,2.462
		C799.396,287.87,797.812,284.321,797.812,284.321z"/>
	<path fill="#FFFFFF" d="M796.02,284.414c0,0,0.684-0.37,1.629-0.227c0.946,0.146,2.412,2.827,2.468,3.007
		c0.054,0.182-0.108,1-0.261,1.135C799.701,288.465,796.02,284.414,796.02,284.414z"/>
	<path fill="#FFFFFF" d="M799.964,288.312c-0.063,0.531-0.899,1.577-0.899,1.577c-2.214-1.09-4.147-4.669-4.147-4.669
		s0.472-0.677,0.995-0.891C796.435,284.116,799.863,288.097,799.964,288.312z"/>
	<path fill="#FFFFFF" d="M779.627,311.006c0,0-0.067,11.084,0,11.96c0.067,0.875,3.396,0.612,3.747,0.525
		s-1.489-11.739-0.263-11.738c1.226,0.002-3.447-0.839-3.447-0.839"/>
</g>
<g>
	<rect x="785.607" y="312.024" fill="none" stroke="#FFFFFF" stroke-miterlimit="10" width="42.381" height="4.755"/>
	<line fill="none" stroke="#FFFFFF" stroke-miterlimit="10" x1="785.607" y1="316.779" x2="785.607" y2="326.712"/>
	<line fill="none" stroke="#FFFFFF" stroke-miterlimit="10" x1="827.988" y1="316.779" x2="827.988" y2="326.777"/>
</g>
<circle fill="#FFFFFF" cx="409.744" cy="303.583" r="2.103"/>
<g>
	<path fill="#FFFFFF" d="M669.459,304.326c2.004,0.706,2.414,3.583,2.428,4.069c0.047,0.654-0.014,1.581-0.32,2.871
		c-0.828,3.478-1.631,9.332-1.631,9.332s-0.094,0.815-0.853,0.49c-0.357-0.152-0.767-0.488-0.813-1.089
		c-0.046-0.602-1.515-12.068-1.091-14.194C667.179,305.806,667.455,303.618,669.459,304.326z"/>
	<path fill="#FFFFFF" d="M668.6,319.244c0,0,0.192,10.576,0.233,11.33c0.041,0.755-0.266,1.02-0.266,1.02l-2.308,0.915l-0.012,0.334
		h2.728l0.863-0.358c-0.063-0.31-0.34-0.921-0.364-1.581c-0.023-0.659,0.848-4.193,1.062-7.12c0.214-2.924-1.126-4.568-1.126-4.568
		s-0.181-0.29-0.449-0.308C668.693,318.895,668.596,319.122,668.6,319.244z"/>
	<path fill="#FFFFFF" d="M669.32,303.705c2.031,0.621,2.563,3.478,2.598,3.961c0.073,0.653,0.054,1.581-0.198,2.882
		c-0.681,3.512-1.233,9.396-1.233,9.396s-0.059,0.817-0.83,0.524c-0.365-0.136-0.789-0.454-0.859-1.053
		c-0.071-0.6-2.026-11.995-1.693-14.137C667.104,305.278,667.287,303.081,669.32,303.705z"/>
	<path fill="#FFFFFF" d="M668.965,319.309c0,0,0.963,10.532,1.06,11.282c0.094,0.749-0.191,1.037-0.191,1.037l-2.354,0.881
		l0.013,0.334h2.839l0.893-0.24c-0.085-0.305-0.464-1.074-0.535-1.73c-0.073-0.655,0.54-4.244,0.541-7.178
		c0-2.934-1.455-4.476-1.455-4.476s-0.201-0.276-0.473-0.273C669.035,318.952,668.954,319.187,668.965,319.309z"/>
	<path fill="#FFFFFF" d="M668.212,302.464c0.646-0.788,2.235-5.799,2.407-6.175c0.173-0.374,0.229-1.286-0.302-1.396
		c-0.529-0.11-0.813,0.399-0.813,0.399s-0.521,1.219-1.213,3.891c-0.479,1.842-0.858,2.627-1.102,3.162c0,0-0.145,0.358,0.355,0.45
		C667.956,302.867,668.212,302.464,668.212,302.464z"/>
	<path fill="#FFFFFF" d="M668.212,302.464c0,0,0.055,1.168-1.085,3.186c-1.139,2.017-1.645,3.195-1.645,3.195
		s0.325,1.111,0.17,1.566c-0.155,0.457-0.507,0.785-0.507,0.785l0.027-0.794c0,0-0.61,0.695-0.394,1.436l0.061,0.296l-0.213,0.045
		c0,0-0.297-0.33-0.362-0.766s0.714-2.684,0.714-2.684c0.254-0.394,1.806-5.06,1.968-5.741c0.051-0.212,0.133-0.401,0.243-0.644
		c0,0,0.173-0.438,0.588-0.363C668.191,302.056,668.212,302.464,668.212,302.464z"/>
	<path fill="#FFFFFF" d="M669.456,294c0,0-0.059-0.693,0.086-1.55c0.157-0.929,1.163-0.397,1.163-0.397l0.126,1.646
		c0.066,0.887-0.884,1.119-1.231,0.933C669.254,294.442,669.456,294,669.456,294z"/>
	<path fill="#FFFFFF" d="M666.814,306.073c0,0-0.513-3.058,0-6.574c0,0-0.428-0.936-0.159-1.539c0.269-0.606,2.634-3.328,2.798-3.96
		l1.375-0.302c0,0,0.396,1.941,0.319,4.222c-0.088,2.623,0.259,4.884,0.232,5.479c-0.02,0.459,0.151,2.675,0.151,2.675H666.814z"/>
	<path fill="#FFFFFF" d="M671.531,306.073c0,0,0.727,2.345,0.572,5.597c-0.152,3.249,1.194,15.994,2.484,18.768
		c1.291,2.771-6.452,0.764-8.603,0c-2.152-0.766,0.941-18.699,0.829-24.364H671.531z"/>
	<path fill="#FFFFFF" d="M667.938,289.121c0.004-0.063,0.008-0.101,0.008-0.101l0.004,0.002c0.002-0.016,0.005-0.033,0.007-0.048
		c0.216-1.472,1.354-2.525,2.546-2.351c1.189,0.174,1.982,1.509,1.767,2.982c-0.002,0.014-0.005,0.029-0.007,0.045l0,0
		c0,0,0,0.003-0.004,0.009c-0.034,0.216-0.088,0.422-0.16,0.617c-0.309,1.005-1.075,2.849-2.515,2.64h-0.005
		c-1.476-0.217-1.656-2.297-1.654-3.325C667.917,289.438,667.922,289.28,667.938,289.121z"/>
	<path fill="#FFFFFF" d="M667.956,288.975c0,0-0.198,0.99-0.343,1.144c-0.143,0.156,0.353,0.325,0.353,0.325l0.222-0.049
		L667.956,288.975z"/>
	<path fill="#FFFFFF" d="M668.747,302.589c0.508-0.881,1.249-6.088,1.357-6.485s0.014-1.308-0.528-1.329
		c-0.541-0.021-0.735,0.53-0.735,0.53s-0.313,1.285-0.557,4.036c-0.167,1.895-0.411,2.732-0.564,3.299c0,0-0.082,0.38,0.426,0.388
		C668.563,303.03,668.747,302.589,668.747,302.589z"/>
	<path fill="#FFFFFF" d="M668.684,302.735c0,0-0.744,0.904-2.943,1.634c-2.2,0.73-3.365,1.263-3.365,1.263s-0.506,1.042-0.926,1.274
		c-0.422,0.235-0.901,0.241-0.901,0.241l0.552-0.57c0,0-0.92,0.106-1.256,0.801l-0.154,0.26l-0.187-0.109
		c0,0,0.001-0.442,0.244-0.81c0.245-0.367,2.335-1.511,2.335-1.511c0.45-0.121,4.733-2.535,5.312-2.932
		c0.179-0.122,0.369-0.209,0.612-0.314c0,0,0.422-0.207,0.681,0.126C668.943,302.422,668.684,302.735,668.684,302.735z"/>
	<g>
		<path fill="#FFFFFF" d="M669.867,290.403c0-0.383,0.313-0.694,0.695-0.694s0.695,0.312,0.695,0.694
			c0,0.384-0.313,0.695-0.695,0.695S669.867,290.787,669.867,290.403z M669.943,290.403c0,0.342,0.278,0.619,0.619,0.619
			s0.618-0.277,0.618-0.619c0-0.34-0.277-0.618-0.618-0.618S669.943,290.063,669.943,290.403z"/>
	</g>
	<path fill="#FFFFFF" d="M670.788,289.937c0.076-0.687-0.319-0.589-0.805-0.916c-0.484-0.328-0.233-0.907-0.405-1.266
		s-1.241,0.162-1.299,0.03c-0.057-0.131,0.19-0.493,0.19-0.493s1.209-1.522,2.757-0.747c1.82,0.908,1.523,2.993,1.523,2.993
		s-0.781,3.27-1.557,2.383C670.709,291.365,670.788,289.937,670.788,289.937z"/>
	
		<ellipse transform="matrix(0.9725 -0.2329 0.2329 0.9725 -48.5656 164.5395)" fill="#FFFFFF" cx="672.456" cy="287.92" rx="0.956" ry="1.254"/>
	<path fill="#FFFFFF" d="M671.195,286.317c0,0,1.291-0.167,1.785,0.364c0.493,0.529,0.748,1.582,0.182,2.179
		C672.597,289.458,671.195,286.317,671.195,286.317z"/>
	<path fill="#FFFFFF" d="M669.609,286.399c0,0,0.605-0.327,1.441-0.199c0.838,0.128,2.135,2.501,2.184,2.66
		c0.048,0.16-0.097,0.885-0.23,1.004C672.867,289.984,669.609,286.399,669.609,286.399z"/>
	<path fill="#FFFFFF" d="M673.1,289.849c-0.057,0.47-0.796,1.395-0.796,1.395c-1.96-0.964-3.669-4.13-3.669-4.13
		s0.417-0.6,0.879-0.789C669.977,286.137,673.012,289.658,673.1,289.849z"/>
</g>
<g>
	<path fill="#FFFFFF" d="M517.667,301.273c-0.615-1.05-2.124-7.321-2.257-7.796s0.09-1.758,1.189-1.547
		c0.638,0.121,0.887,0.626,0.887,0.626s0.703,1.502,1.021,4.791c0.217,2.266,0.525,3.344,0.39,3.979c0,0-0.044,0.403-0.504,0.467
		C517.892,301.8,517.667,301.273,517.667,301.273z"/>
	<path fill="#FFFFFF" d="M517.578,300.757c0,0,0.111,0.854,1.301,2.139c1.885,2.037,2.804,3.154,2.804,3.154
		s0.325,1.238,0.672,1.696c0.349,0.46,0.871,0.699,0.871,0.699l-0.329-0.891c0,0,0.955,0.56,0.99,1.482l0.041,0.357l0.259-0.027
		c0,0,0.212-0.487,0.121-1.007c-0.089-0.519-1.825-2.779-1.825-2.779c-0.436-0.35-2.826-3.992-3.27-4.706
		c-0.137-0.22-0.302-0.404-0.519-0.637c0,0-0.362-0.434-0.805-0.192C517.445,300.286,517.578,300.757,517.578,300.757z"/>
	<g>
		<path fill="#FFFFFF" d="M517.524,292.534c0,0-0.284-0.573-1.006-0.713c-1.249-0.238-1.502,1.219-1.352,1.758
			c0.052,0.187,0.289,1.149,0.606,2.385l2.547-0.574C517.95,293.444,517.524,292.534,517.524,292.534z"/>
	</g>
	<path fill="#FFFFFF" d="M516.56,304.01c-2.154,1.351-1.882,4.816-1.771,5.389c0.116,0.776,0.914,2.926,1.424,4.429
		c2.131,6.293,3.312,7.023,3.312,7.023s0.715,1.068,1.518,0.492c0.378-0.271,0.769-0.771,0.665-1.484
		c-0.103-0.714-1.045-12.343-2.096-14.715C519.611,305.144,518.716,302.661,516.56,304.01z"/>
	<path fill="#FFFFFF" d="M522.998,335.855h1.105l3.075-1.618l-0.089-0.392l-2.789,0.451c0,0-0.12-0.071-0.252-0.275l-1.203,0.195
		C522.848,334.865,523,335.562,522.998,335.855z"/>
	<path fill="#FFFFFF" d="M523.758,333.156c-0.121-0.896-2.279-13.369-2.279-13.369c-0.025-0.145-0.191-0.391-0.5-0.315
		c-0.314,0.08-2.446,0.091-1.535,3.48c0.912,3.39,3.244,9.927,3.364,10.707c0.028,0.178,0.038,0.367,0.038,0.558l1.203-0.195
		C523.936,333.846,523.815,333.571,523.758,333.156z"/>
	<path fill="#FFFFFF" d="M517.421,302.104c-2.535,0.19-3.91,3.385-4.077,3.942c-0.259,0.741-0.278,1.849-0.528,3.416
		c-1.045,6.562-1.319,10.98-1.319,10.98s0.135,1.282,1.113,1.144c0.461-0.064,1.039-0.323,1.281-1.003
		c0.241-0.68,5.527-13.468,5.702-16.057C519.593,304.527,519.958,301.913,517.421,302.104z"/>
	<path fill="#FFFFFF" d="M516.389,290.38c0,0-0.523-0.808-0.103-1.855c0.419-1.047-1.981-0.631-1.981-0.631l0.135,2.436
		c-0.08,1.063,1.361,1.029,1.775,0.806C516.63,290.911,516.389,290.38,516.389,290.38z"/>
	<path fill="#FFFFFF" d="M519.551,304.831c0,0,0.614-3.661,0-7.871c0,0-0.579-5.754-3.159-6.58l-1.646-0.362
		c0,0-1.477,0.988-1.158,4.723c0.221,2.588,0.425,6.178,0.26,6.703c-0.165,0.526,0.058,3.388,0.058,3.388H519.551z"/>
	<path fill="#FFFFFF" d="M518.206,285.254c-0.005-0.078-0.01-0.12-0.01-0.12l-0.005,0.001c-0.002-0.02-0.005-0.038-0.007-0.056
		c-0.259-1.763-1.622-3.022-3.047-2.813c-1.426,0.208-2.372,1.302-2.116,3.064c0.004,0.018,0.007,0.036,0.01,0.055l-0.001,0.001
		c0,0,0.001,0.004,0.003,0.011c0.041,0.26,0.108,0.505,0.194,0.737c0.368,1.205,1.286,3.41,3.01,3.16l0.005-0.002
		c1.766-0.258,1.982-2.747,1.98-3.978C518.23,285.13,518.226,285.445,518.206,285.254z"/>
	<path fill="#FFFFFF" d="M518.185,285.079c0,0,0.237,0.681,0.409,0.866c0.172,0.187-0.422,0.387-0.422,0.387l-0.266-0.058
		L518.185,285.079z"/>
	<path fill="#FFFFFF" d="M513.469,301.438c-0.125-1.211,1.101-7.543,1.177-8.031c0.075-0.485,0.811-1.562,1.724-0.914
		c0.529,0.375,0.547,0.938,0.547,0.938s0.018,1.658-1.057,4.783c-0.741,2.152-0.908,3.26-1.293,3.783c0,0-0.209,0.349-0.654,0.216
		C513.456,302.011,513.469,301.438,513.469,301.438z"/>
	<path fill="#FFFFFF" d="M513.728,300.747c0,0-0.516,0.691-0.558,2.441c-0.066,2.773-0.184,4.216-0.184,4.216
		s-0.63,1.114-0.699,1.687c-0.07,0.571,0.138,1.108,0.138,1.108l0.385-0.868c0,0,0.294,1.065-0.322,1.751l-0.22,0.287l0.206,0.159
		c0,0,0.49-0.201,0.788-0.638c0.298-0.435,0.625-3.266,0.625-3.266c-0.069-0.555,0.752-4.835,0.932-5.653
		c0.055-0.255,0.064-0.503,0.072-0.82c0,0,0.041-0.563-0.445-0.697C513.959,300.317,513.728,300.747,513.728,300.747z"/>
	<path fill="#FFFFFF" d="M507.58,335.341l0.979,0.515h3.476l0.103-0.387l-2.678-0.901c0,0-0.072-0.119-0.094-0.36l-1.155-0.387
		C507.909,334.394,507.72,335.081,507.58,335.341z"/>
	<path fill="#FFFFFF" d="M509.511,333.307c0.31-0.851,4.21-12.893,4.21-12.893c0.045-0.14,0.014-0.435-0.296-0.512
		c-0.316-0.074-2.207-1.061-2.979,2.365c-0.772,3.425-1.754,10.296-2.012,11.042c-0.058,0.171-0.136,0.342-0.225,0.511l1.155,0.387
		C509.347,333.999,509.368,333.7,509.511,333.307z"/>
	<path fill="#FFFFFF" d="M514.716,285.302c-0.093-0.828,0.385,0.121,0.971-0.274c0.585-0.396,0.282-1.094,0.489-1.526
		c0.209-0.436,1.498,0.193,1.567,0.035c0.068-0.159-0.23-0.597-0.23-0.597s-1.459-1.833-3.325-0.902
		c-2.197,1.099-1.838,3.288-1.838,3.288s0.942,3.441,1.877,2.37C514.812,287.028,514.716,285.302,514.716,285.302z"/>
	<g>
		<path fill="#FFFFFF" d="M516.961,293.426c0,0-0.021-0.639-0.621-1.065c-1.037-0.734-1.871,0.486-1.957,1.04
			c-0.03,0.189-0.214,1.167-0.438,2.421l2.557,0.533C516.971,294.431,516.961,293.426,516.961,293.426z"/>
	</g>
</g>
<g>
	<path fill="#FFFFFF" d="M95.991,301.273c0.615-1.05,2.124-7.321,2.257-7.796c0.133-0.475-0.09-1.758-1.189-1.547
		c-0.638,0.121-0.887,0.626-0.887,0.626s-0.703,1.502-1.021,4.791c-0.217,2.266-0.525,3.344-0.39,3.979c0,0,0.043,0.403,0.504,0.467
		C95.766,301.8,95.991,301.273,95.991,301.273z"/>
	<path fill="#FFFFFF" d="M96.08,300.757c0,0-0.111,0.854-1.3,2.139c-1.885,2.037-2.804,3.154-2.804,3.154s-0.325,1.238-0.672,1.696
		c-0.349,0.46-0.871,0.699-0.871,0.699l0.329-0.891c0,0-0.955,0.56-0.99,1.482l-0.042,0.357l-0.258-0.027
		c0,0-0.212-0.487-0.121-1.007c0.088-0.519,1.825-2.779,1.825-2.779c0.436-0.35,2.826-3.992,3.269-4.706
		c0.137-0.22,0.302-0.404,0.519-0.637c0,0,0.362-0.434,0.805-0.192C96.213,300.286,96.08,300.757,96.08,300.757z"/>
	<g>
		<path fill="#FFFFFF" d="M96.134,292.534c0,0,0.284-0.573,1.006-0.713c1.249-0.238,1.502,1.219,1.351,1.758
			c-0.051,0.187-0.289,1.149-0.606,2.385l-2.546-0.574C95.708,293.444,96.134,292.534,96.134,292.534z"/>
	</g>
	<path fill="#FFFFFF" d="M97.099,304.01c2.154,1.351,1.882,4.816,1.771,5.389c-0.116,0.776-0.914,2.926-1.424,4.429
		c-2.131,6.293-3.311,7.023-3.311,7.023s-0.715,1.068-1.518,0.492c-0.378-0.271-0.769-0.771-0.666-1.484s1.046-12.343,2.096-14.715
		C94.047,305.144,94.942,302.661,97.099,304.01z"/>
	<path fill="#FFFFFF" d="M90.661,335.855h-1.105l-3.076-1.618l0.089-0.392l2.789,0.451c0,0,0.12-0.071,0.252-0.275l1.203,0.195
		C90.81,334.865,90.658,335.562,90.661,335.855z"/>
	<path fill="#FFFFFF" d="M89.9,333.156c0.122-0.896,2.28-13.369,2.28-13.369c0.024-0.145,0.19-0.391,0.5-0.315
		c0.314,0.08,2.446,0.091,1.534,3.48c-0.911,3.39-3.244,9.927-3.364,10.707c-0.028,0.178-0.038,0.367-0.038,0.558l-1.203-0.195
		C89.723,333.846,89.842,333.571,89.9,333.156z"/>
	<path fill="#FFFFFF" d="M96.237,302.104c2.535,0.19,3.91,3.385,4.077,3.942c0.259,0.741,0.278,1.849,0.528,3.416
		c1.045,6.562,1.319,10.98,1.319,10.98s-0.135,1.282-1.113,1.144c-0.461-0.064-1.04-0.323-1.281-1.003
		c-0.242-0.68-5.527-13.468-5.703-16.057C94.065,304.527,93.7,301.913,96.237,302.104z"/>
	<path fill="#FFFFFF" d="M97.269,290.38c0,0,0.523-0.808,0.103-1.855c-0.418-1.047,1.98-0.631,1.98-0.631l-0.134,2.436
		c0.081,1.063-1.361,1.029-1.775,0.806C97.028,290.911,97.269,290.38,97.269,290.38z"/>
	<path fill="#FFFFFF" d="M94.107,304.831c0,0-0.614-3.661,0-7.871c0,0,0.579-5.754,3.159-6.58l1.645-0.362
		c0,0,1.477,0.988,1.158,4.723c-0.22,2.588-0.424,6.178-0.259,6.703c0.165,0.526-0.058,3.388-0.058,3.388H94.107z"/>
	<path fill="#FFFFFF" d="M95.452,285.254c0.005-0.078,0.01-0.12,0.01-0.12l0.005,0.001c0.002-0.02,0.004-0.038,0.007-0.056
		c0.258-1.763,1.622-3.022,3.047-2.813c1.426,0.208,2.372,1.302,2.115,3.064c-0.003,0.018-0.006,0.036-0.009,0.055l0.001,0.001
		c0,0-0.001,0.004-0.003,0.011c-0.042,0.26-0.108,0.505-0.194,0.737c-0.368,1.205-1.286,3.41-3.01,3.16l-0.005-0.002
		c-1.766-0.258-1.982-2.747-1.981-3.978C95.428,285.13,95.433,285.445,95.452,285.254z"/>
	<path fill="#FFFFFF" d="M95.474,285.079c0,0-0.237,0.681-0.408,0.866c-0.172,0.187,0.421,0.387,0.421,0.387l0.266-0.058
		L95.474,285.079z"/>
	<path fill="#FFFFFF" d="M100.189,301.438c0.125-1.211-1.101-7.543-1.177-8.031c-0.075-0.485-0.81-1.562-1.724-0.914
		c-0.528,0.375-0.547,0.938-0.547,0.938s-0.017,1.658,1.058,4.783c0.741,2.152,0.907,3.26,1.293,3.783c0,0,0.208,0.349,0.653,0.216
		C100.202,302.011,100.189,301.438,100.189,301.438z"/>
	<path fill="#FFFFFF" d="M99.931,300.747c0,0,0.516,0.691,0.557,2.441c0.067,2.773,0.185,4.216,0.185,4.216s0.63,1.114,0.699,1.687
		c0.07,0.571-0.138,1.108-0.138,1.108l-0.385-0.868c0,0-0.294,1.065,0.322,1.751l0.219,0.287l-0.206,0.159
		c0,0-0.49-0.201-0.788-0.638c-0.298-0.435-0.625-3.266-0.625-3.266c0.069-0.555-0.752-4.835-0.932-5.653
		c-0.055-0.255-0.065-0.503-0.072-0.82c0,0-0.041-0.563,0.445-0.697C99.699,300.317,99.931,300.747,99.931,300.747z"/>
	<path fill="#FFFFFF" d="M106.078,335.341l-0.979,0.515h-3.476l-0.103-0.387l2.678-0.901c0,0,0.073-0.119,0.094-0.36l1.155-0.387
		C105.749,334.394,105.938,335.081,106.078,335.341z"/>
	<path fill="#FFFFFF" d="M104.147,333.307c-0.309-0.851-4.21-12.893-4.21-12.893c-0.045-0.14-0.013-0.435,0.296-0.512
		c0.316-0.074,2.207-1.061,2.979,2.365c0.773,3.425,1.753,10.296,2.011,11.042c0.059,0.171,0.137,0.342,0.226,0.511l-1.155,0.387
		C104.312,333.999,104.29,333.7,104.147,333.307z"/>
	<path fill="#FFFFFF" d="M98.942,285.302c0.092-0.828-0.386,0.121-0.971-0.274c-0.585-0.396-0.282-1.094-0.49-1.526
		c-0.208-0.436-1.498,0.193-1.566,0.035c-0.068-0.159,0.23-0.597,0.23-0.597s1.458-1.833,3.324-0.902
		c2.198,1.099,1.839,3.288,1.839,3.288s-0.942,3.441-1.877,2.37C98.846,287.028,98.942,285.302,98.942,285.302z"/>
	<g>
		<path fill="#FFFFFF" d="M96.697,293.426c0,0,0.021-0.639,0.621-1.065c1.037-0.734,1.871,0.486,1.958,1.04
			c0.03,0.189,0.213,1.167,0.437,2.421l-2.556,0.533C96.687,294.431,96.697,293.426,96.697,293.426z"/>
	</g>
</g>
<g>
	<path fill="#FFFFFF" d="M646.904,296.866c-1.082-0.473-5.84-4.533-6.215-4.83s-0.932-1.431,0.051-1.891
		c0.569-0.269,1.053-0.015,1.053-0.015s1.408,0.777,3.531,3.177c1.463,1.654,2.317,2.323,2.575,2.899c0,0,0.195,0.343-0.13,0.653
		C647.38,297.15,646.904,296.866,646.904,296.866z"/>
	<path fill="#FFFFFF" d="M647.304,296.987c0,0,0.837-0.012,2.208-1.012c2.174-1.586,3.354-2.346,3.354-2.346l-0.361-0.822
		c-0.387,0.379-4.164,2.272-4.9,2.618c-0.229,0.107-0.426,0.245-0.675,0.427c0,0-0.457,0.301-0.274,0.754
		C646.836,297.062,647.304,296.987,647.304,296.987z"/>
	<path fill="#FFFFFF" d="M641.604,301.979c-2.09,1.31-1.826,4.672-1.719,5.225c0.113,0.754,0.888,2.838,1.382,4.296
		c2.067,6.103,3.211,6.811,3.211,6.811s0.694,1.037,1.472,0.478c0.366-0.264,0.745-0.748,0.646-1.439
		c-0.102-0.693-1.016-11.97-2.033-14.27C644.563,303.079,643.693,300.672,641.604,301.979z"/>
	<path fill="#FFFFFF" d="M647.846,332.861h1.072l2.982-1.57l-0.086-0.378l-2.705,0.437c0,0-0.117-0.069-0.244-0.267l-1.166,0.188
		C647.7,331.9,647.848,332.576,647.846,332.861z"/>
	<path fill="#FFFFFF" d="M648.584,330.243c-0.118-0.868-2.212-12.965-2.212-12.965c-0.024-0.14-0.185-0.378-0.484-0.306
		c-0.305,0.079-2.372,0.089-1.488,3.376c0.884,3.288,3.146,9.626,3.263,10.383c0.026,0.172,0.037,0.356,0.037,0.54l1.166-0.188
		C648.756,330.912,648.639,330.646,648.584,330.243z"/>
	<path fill="#FFFFFF" d="M642.438,300.132c-2.459,0.186-3.791,3.283-3.953,3.822c-0.251,0.72-0.271,1.793-0.513,3.313
		c-1.014,6.363-1.279,10.649-1.279,10.649s0.131,1.241,1.08,1.108c0.446-0.063,1.007-0.314,1.241-0.974
		c0.234-0.658,5.36-13.061,5.531-15.57C644.545,302.481,644.897,299.947,642.438,300.132z"/>
	<path fill="#FFFFFF" d="M641.438,288.762c0,0-0.507-0.782-0.101-1.799c0.407-1.014-1.921-0.612-1.921-0.612l0.097,2.406
		c-0.078,1.029,1.354,0.955,1.756,0.738C641.671,289.276,641.438,288.762,641.438,288.762z"/>
	<path fill="#FFFFFF" d="M644.503,302.776c0,0,0.596-3.551,0-7.633c0,0-0.561-5.58-3.063-6.382l-1.595-0.351
		c0,0-1.433,0.959-1.123,4.579c0.214,2.511,0.411,5.99,0.252,6.502c-0.16,0.51,0.056,3.284,0.056,3.284H644.503z"/>
	<path fill="#FFFFFF" d="M643.198,283.879c-0.005-0.075-0.008-0.118-0.008-0.118l-0.005,0.002c-0.003-0.019-0.005-0.037-0.008-0.055
		c-0.25-1.708-1.572-2.931-2.954-2.729c-1.382,0.203-2.301,1.264-2.051,2.973c0.002,0.018,0.005,0.035,0.009,0.054h-0.001
		c0,0,0.001,0.004,0.002,0.011c0.041,0.251,0.105,0.489,0.188,0.716c0.357,1.167,1.247,3.308,2.918,3.063h0.005
		c1.713-0.251,1.923-2.664,1.922-3.858C643.223,283.759,643.218,284.064,643.198,283.879z"/>
	<path fill="#FFFFFF" d="M643.178,283.708c0,0,0.23,0.661,0.396,0.841c0.167,0.181-0.408,0.375-0.408,0.375l-0.257-0.056
		L643.178,283.708z"/>
	<path fill="#FFFFFF" d="M643.383,299.399c-0.761-0.902-3.234-6.646-3.439-7.079c-0.205-0.432-0.203-1.694,0.883-1.674
		c0.627,0.013,0.949,0.453,0.949,0.453s0.92,1.319,1.763,4.41c0.583,2.129,1.054,3.108,1.029,3.738c0,0,0.024,0.394-0.405,0.529
		C643.686,299.865,643.383,299.399,643.383,299.399z"/>
	<path fill="#FFFFFF" d="M643.213,298.704c0,0-0.035,0.836,0.887,2.262c1.461,2.258,2.153,3.479,2.153,3.479s0.104,1.237,0.36,1.733
		c0.256,0.495,0.715,0.813,0.715,0.813l-0.166-0.906c0,0,0.818,0.694,0.699,1.581l-0.02,0.35l0.251,0.016c0,0,0.283-0.43,0.284-0.94
		c0-0.512-1.282-2.96-1.282-2.96c-0.358-0.405-2.035-4.284-2.34-5.04c-0.095-0.235-0.222-0.438-0.39-0.696
		c0,0-0.273-0.474-0.736-0.316C643.164,298.233,643.213,298.704,643.213,298.704z"/>
	<path fill="#FFFFFF" d="M632.895,332.362l0.949,0.499h3.371l0.1-0.374l-2.597-0.874c0,0-0.071-0.116-0.092-0.35l-1.12-0.376
		C633.214,331.445,633.029,332.111,632.895,332.362z"/>
	<path fill="#FFFFFF" d="M634.768,330.39c0.3-0.824,4.082-12.502,4.082-12.502c0.044-0.136,0.013-0.422-0.287-0.497
		c-0.306-0.071-2.139-1.027-2.889,2.293c-0.749,3.322-1.699,9.984-1.949,10.709c-0.058,0.165-0.133,0.33-0.219,0.495l1.12,0.376
		C634.608,331.061,634.628,330.771,634.768,330.39z"/>
	<path fill="#FFFFFF" d="M639.814,283.925c-0.09-0.805,0.375,0.117,0.941-0.267s0.274-1.062,0.476-1.48
		c0.201-0.421,1.452,0.188,1.519,0.034c0.067-0.152-0.224-0.578-0.224-0.578s-1.414-1.778-3.224-0.874
		c-2.131,1.064-1.782,3.187-1.782,3.187s0.913,3.339,1.819,2.301C639.907,285.599,639.814,283.925,639.814,283.925z"/>
	<path fill="#FFFFFF" d="M643.127,285.237c0,0-0.83-0.21-1.258,0c-0.426,0.211-0.537,0.445-0.812,0.19
		c-0.274-0.254-0.538-1.869-0.538-1.869h-0.389l0.145,1.859c0,0-0.083,2.154,1.014,2.377c0,0,0.03,0.029,0.121,0.02
		s1.463-0.177,1.768-2.5C643.178,285.314,643.186,285.251,643.127,285.237z"/>
	<g>
		<path fill="#FFFFFF" d="M641.809,291.07c0,0-0.365-0.5-1.078-0.514c-1.233-0.024-1.236,1.41-1.002,1.901
			c0.079,0.168,0.465,1.053,0.971,2.179l2.34-0.967C642.365,291.871,641.809,291.07,641.809,291.07z"/>
	</g>
	<path fill="#FFFFFF" d="M652.167,293.163c0.117-0.114,0.224-0.239,0.296-0.33l-0.001-0.005l0.089-0.729l0.572-1.231l0.073-0.16
		c0.054-0.115,0.167-0.093,0.156,0.288l-0.19,0.558l0.007,0.046l0.66-0.429c0,0,0.14-0.095,0.177-0.049l0.242,0.257
		c0.024,0.019,0.023,0.044,0.012,0.068l-0.031,0.498c0.004,0.059-0.091,0.197-0.091,0.197l-0.072,0.476
		c-0.011,0.033-0.058,0.252-0.058,0.252l-0.284,0.274l-0.522,0.371l-0.34,0.158c0,0-0.403,0.202-0.631,0.008
		C652.003,293.488,652.07,293.261,652.167,293.163z"/>
	<path fill="#FFFFFF" d="M652.167,293.163c0.117-0.114,0.224-0.239,0.296-0.33l-0.001-0.005l0.089-0.729l0.572-1.231l0.073-0.16
		c0.054-0.115,0.167-0.093,0.156,0.288l-0.19,0.558l0.007,0.046l-0.308,2.074c0,0-0.403,0.202-0.631,0.008
		C652.003,293.488,652.07,293.261,652.167,293.163z"/>
</g>
</svg>
