<?xml version="1.0" encoding="utf-8"?>
<!-- Generator: Adobe Illustrator 16.0.0, SVG Export Plug-In . SVG Version: 6.00 Build 0)  -->
<!DOCTYPE svg PUBLIC "-//W3C//DTD SVG 1.1//EN" "http://www.w3.org/Graphics/SVG/1.1/DTD/svg11.dtd">
<svg version="1.1" id="Capa_1" xmlns="http://www.w3.org/2000/svg" xmlns:xlink="http://www.w3.org/1999/xlink" x="0px" y="0px"
	 width="1500.008px" height="527.895px" viewBox="0 0 1500.008 527.895" enable-background="new 0 0 1500.008 527.895"
	 xml:space="preserve">
<path fill="none" stroke="#FFFFFF" stroke-miterlimit="10" d="M1148.367,452.165c20.216,18.365,38.57,38.59,58.804,56.934"/>
<path fill="none" stroke="#FFFFFF" stroke-miterlimit="10" d="M965.187,395.78c11.485-1.885,23.835-2.904,37.204-2.904
	c56.604,0,94.922,18.285,126.768,43.043"/>
<path fill="none" stroke="#FFFFFF" stroke-miterlimit="10" d="M792.354,513.776c47.691-41.691,83.57-95.197,154.154-113.998"/>
<path fill="none" stroke="#FFFFFF" stroke-miterlimit="10" d="M303.016,531.895c155.771,0,155.771-155.773,311.543-155.773
	c106.133,0,139.949,72.318,200,118.404"/>
<path fill="none" stroke="#FFFFFF" stroke-miterlimit="10" d="M0.004,474.829c62.643-37.232,87.391-112.357,187.266-112.357
	c120.026,0,131.549,108.504,230.74,129.34"/>
<path fill="none" stroke="#FFFFFF" stroke-miterlimit="10" d="M1312.381,419.249c83.408,7.807,116.225,66.209,166.162,107.49"/>
<path fill="none" stroke="#FFFFFF" stroke-miterlimit="10" d="M1167.199,470.122c30.903-28.32,66.702-51.748,125.93-51.748"/>
<g>
	<g>
		
			<line fill="none" stroke="#FFFFFF" stroke-linecap="round" stroke-linejoin="round" stroke-miterlimit="10" x1="967.699" y1="515.872" x2="925.613" y2="285.278"/>
		
			<line fill="none" stroke="#FFFFFF" stroke-linecap="round" stroke-linejoin="round" stroke-miterlimit="10" x1="944.402" y1="281.889" x2="987.096" y2="515.872"/>
		<polyline fill="none" stroke="#FFFFFF" stroke-linecap="round" stroke-linejoin="round" stroke-miterlimit="10" points="
			901.1,149.258 897.92,131.609 916.709,128.223 919.889,145.872 		"/>
		
			<rect x="808.546" y="146.468" transform="matrix(0.9841 -0.1774 0.1774 0.9841 -23.6047 167.0718)" fill="none" stroke="#FFFFFF" stroke-linecap="round" stroke-linejoin="round" stroke-miterlimit="10" width="228.411" height="138.211"/>
	</g>
</g>
<g>
	<g>
		
			<line fill="none" stroke="#FFFFFF" stroke-linecap="round" stroke-linejoin="round" stroke-miterlimit="10" x1="1294.816" y1="515.872" x2="1338.829" y2="273.711"/>
		
			<line fill="none" stroke="#FFFFFF" stroke-linecap="round" stroke-linejoin="round" stroke-miterlimit="10" x1="1320.039" y1="270.323" x2="1275.414" y2="515.872"/>
		<polyline fill="none" stroke="#FFFFFF" stroke-linecap="round" stroke-linejoin="round" stroke-miterlimit="10" points="
			1363.342,137.692 1366.521,120.043 1347.733,116.656 1344.552,134.305 		"/>
		
			<rect x="1227.484" y="134.902" transform="matrix(-0.9841 -0.1774 0.1774 -0.9841 2625.9287 642.7346)" fill="none" stroke="#FFFFFF" stroke-linecap="round" stroke-linejoin="round" stroke-miterlimit="10" width="228.412" height="138.211"/>
	</g>
</g>
<g>
	<g>
		
			<line fill="none" stroke="#FFFFFF" stroke-linecap="round" stroke-linejoin="round" stroke-miterlimit="10" x1="1148.572" y1="482.727" x2="1147.686" y2="349.538"/>
		
			<line fill="none" stroke="#FFFFFF" stroke-linecap="round" stroke-linejoin="round" stroke-miterlimit="10" x1="1128.594" y1="349.653" x2="1129.523" y2="482.727"/>
		<polyline fill="none" stroke="#FFFFFF" stroke-linecap="round" stroke-linejoin="round" stroke-miterlimit="10" points="
			1146.838,211.331 1146.729,193.397 1127.637,193.514 1127.746,211.446 		"/>
		<polygon fill="none" stroke="#FFFFFF" stroke-linecap="round" stroke-linejoin="round" stroke-miterlimit="10" points="
			1023.936,350.295 1252.342,348.895 1251.786,258.024 1217.038,251.762 1224.408,210.854 1038.152,211.995 1047.403,263.329 
			1023.429,267.649 		"/>
	</g>
</g>
<path class="women-symbol" fill="none" stroke="#FFFFFF" stroke-linecap="round" stroke-linejoin="round" stroke-miterlimit="10" d="M1377.504,192.081
	c3.207-18.199-8.945-35.553-27.145-38.758c-18.201-3.209-35.553,8.945-38.76,27.146c-2.879,16.33,6.613,31.975,21.74,37.334
	l-2.377,13.494l-12.023-2.119l-1.934,10.975l12.022,2.117l-2.317,13.156l10.974,1.934l2.317-13.154l12.025,2.117l1.932-10.975
	l-12.021-2.119l2.377-13.492C1360.361,219.87,1374.628,208.413,1377.504,192.081z M1324.676,182.774
	c1.934-10.98,12.4-18.309,23.379-16.375c10.978,1.934,18.311,12.402,16.375,23.379c-1.934,10.977-12.4,18.311-23.379,16.375
	C1330.07,204.221,1322.74,193.752,1324.676,182.774z"/>
<g>
	<g>
		<path class="head" fill="none" stroke="#FFFFFF" stroke-linecap="round" stroke-linejoin="round" stroke-miterlimit="10" d="M959.749,158.18
			c0.694,4.082-1.474,11.367-5.556,12.063c-4.086,0.693-8.537-5.465-9.231-9.545c-0.695-4.084,2.053-7.957,6.136-8.652
			S959.055,154.098,959.749,158.18z"/>
		<path class="body" fill="none" stroke="#FFFFFF" stroke-linecap="round" stroke-linejoin="round" stroke-miterlimit="10" d="M982.521,228.26
			l-0.001-0.002c-7.182-19.869-11.639-23.717-11.639-23.717s1.512-5.996,2.283-8.941s-0.232-6.123-0.232-6.123l-3.213-10.813
			c-1.26-4.215-4.763-7.127-9.025-6.4l-2.839,0.484l-2.517,4.232l-4.561-3.031l-2.559,0.438c-4.263,0.723-6.607,4.627-6.4,9.021
			l0.542,11.27c0,0,0.106,3.334,1.805,5.855c1.7,2.523,5.111,7.684,5.111,7.684s-2.936,5.102-3.142,26.229c0,0-0.002,0-0.002,0.002
			c-0.003,0.125,0.003,0.25,0.024,0.375c0.175,1.016,1.136,1.699,2.149,1.529c0.001-0.002,0.004-0.002,0.006-0.002h0.003
			l7.466-1.271l7.827,26.652l0.066,0.23c0.358,1.018,1.411,1.664,2.512,1.475l2.439-0.412l-4.988-29.32l2.116-0.359l4.985,29.318
			l2.439-0.414c1.102-0.188,1.879-1.143,1.884-2.225l-0.014-0.24l-1.427-27.738l7.468-1.27c0,0,0.001-0.002,0.004-0.002
			c0.002,0,0.003,0,0.004,0c1.014-0.174,1.695-1.137,1.521-2.15C982.599,228.495,982.565,228.374,982.521,228.26z"/>
	</g>
	
		<rect class="rect-1" x="857.925" y="198.147" transform="matrix(0.9858 -0.1677 0.1677 0.9858 -21.8721 151.1626)" fill="none" stroke="#FFFFFF" stroke-linecap="round" stroke-linejoin="round" stroke-miterlimit="10" width="52.305" height="13.872"/>
	
		<rect class="rect-2" x="861.606" y="219.78" transform="matrix(0.9858 -0.1677 0.1677 0.9858 -25.4474 152.0778)" fill="none" stroke="#FFFFFF" stroke-linecap="round" stroke-linejoin="round" stroke-miterlimit="10" width="52.308" height="13.876"/>
</g>
<g>
	
		<circle class="planet-perimeter" fill="none" stroke="#FFFFFF" stroke-width="0.8955" stroke-linecap="round" stroke-linejoin="round" stroke-miterlimit="10" cx="1136.945" cy="280.942" r="50.973"/>
	
		<path class="america" fill="none" stroke="#FFFFFF" stroke-width="0.8955" stroke-linecap="round" stroke-linejoin="round" stroke-miterlimit="10" d="
		M1134.682,264.834c-3.135-2.613-11.492-3.482-13.582-4.006c-2.092-0.52-3.66-1.564-7.838-1.043
		c-4.178,0.523-6.791-1.221-6.963-4.703c-0.176-3.48,7.139-8.355,9.748-12.186c1.334-1.961,5.225-3.484,6.27-5.053
		c1.047-1.57,2.09-1.738,4.877-3.133c1.74-0.871,2.422-2.873,2.688-4.252c-18.83,2.611-34.371,15.504-40.768,32.832
		c4.045,0.15,13.211,0.637,14.92,3.635c1.203,2.1-4.002,7.139-3.83,12.707c0.148,4.578,6.966,7.66,8.705,10.104
		c1.744,2.434,0.523,8.012,1.393,10.275c0.875,2.262-0.522,5.57,6.619,13.402c7.141,7.842,6.095,0.18,6.27-2.082
		c0.174-2.271-0.521-7.146,0-11.672c0.523-4.525,1.74-7.662,4.701-11.32c2.961-3.652,6.617-2.264,10.271-7.66
		C1141.82,275.28,1137.814,267.45,1134.682,264.834z"/>
	
		<path class="south" fill="none" stroke="#FFFFFF" stroke-width="0.8955" stroke-linecap="round" stroke-linejoin="round" stroke-miterlimit="10" d="
		M1137.866,331.913c10.255,0,19.8-3.031,27.794-8.242c-1.428-2.055-4.615-5.311-10.727-5.902
		c-3.711-0.359-12.021,2.443-14.805,3.488c-2.785,1.045-10.793,2.785-12.188,2.785c-1.396,0-3.137,2.092-4.005,3.137
		c-0.446,0.531-2.493,1.004-4.386,1.342C1125.236,330.709,1131.41,331.913,1137.866,331.913z"/>
	
		<path class="europe" fill="none" stroke="#FFFFFF" stroke-width="0.8955" stroke-linecap="round" stroke-linejoin="round" stroke-miterlimit="10" d="
		M1153.428,232.893c-1.199,1.395-2.729,3.297-2.729,3.934c0,1.039-0.695,7.66,3.313,8.008c4.002,0.346,7.14-2.439,8.009-1.918
		c0.868,0.525,2.961,3.311,1.569,5.055c-1.393,1.74-7.662,7.662-8.014,10.617c-0.348,2.961,2.092,9.58,5.398,11.668
		c3.309,2.092,5.053,2.266,8.36,2.438c2.366,0.121,6.269,5.398,6.438,10.275c0.178,4.873,0.699,14.979-1.039,18.107
		c-1.744,3.135-1.744,5.398-1.047,6.795c0.418,0.834,2.045,3.143,3.273,4.844c6.861-8.682,10.957-19.65,10.957-31.576
		C1187.918,258.758,1173.49,239.747,1153.428,232.893z"/>
</g>
<line fill="none" stroke="#FFFFFF" stroke-miterlimit="10" x1="962.278" y1="515.872" x2="993.612" y2="515.872"/>
<line fill="none" stroke="#FFFFFF" stroke-miterlimit="10" x1="1270.008" y1="515.872" x2="1301.342" y2="515.872"/>
<line fill="none" stroke="#FFFFFF" stroke-miterlimit="10" x1="1123.278" y1="482.727" x2="1154.612" y2="482.727"/>
</svg>
