<?xml version="1.0" encoding="utf-8"?>
<!-- Generator: Adobe Illustrator 16.0.0, SVG Export Plug-In . SVG Version: 6.00 Build 0)  -->
<!DOCTYPE svg PUBLIC "-//W3C//DTD SVG 1.1//EN" "http://www.w3.org/Graphics/SVG/1.1/DTD/svg11.dtd">
<svg version="1.1" id="Capa_1" xmlns="http://www.w3.org/2000/svg" xmlns:xlink="http://www.w3.org/1999/xlink" x="0px" y="0px"
	 width="763.636px" height="440.482px" viewBox="0 0 763.636 440.482" enable-background="new 0 0 763.636 440.482"
	 xml:space="preserve">
<line fill="none" stroke="#FFFFFF" stroke-linecap="round" stroke-linejoin="round" stroke-miterlimit="10" x1="568.325" y1="398.753" x2="605.303" y2="194.933"/>
<line fill="none" stroke="#FFFFFF" stroke-linecap="round" stroke-linejoin="round" stroke-miterlimit="10" x1="583.528" y1="191.008" x2="546.667" y2="394.187"/>
<polyline fill="none" stroke="#FFFFFF" stroke-linecap="round" stroke-linejoin="round" stroke-miterlimit="10" points="
	633.708,37.312 637.395,16.858 615.62,12.935 611.935,33.386 "/>
<rect x="476.274" y="34.079" transform="matrix(-0.9841 -0.1774 0.1774 -0.9841 1187.3416 334.4491)" fill="none" stroke="#FFFFFF" stroke-linecap="round" stroke-linejoin="round" stroke-miterlimit="10" width="264.688" height="160.16"/>
<path class="head" fill="none" stroke="#FFFFFF" stroke-linecap="round" stroke-linejoin="round" stroke-miterlimit="10" d="M89.683,87.682
	c1.047,4.431,6.362,10.876,10.793,9.829c4.432-1.048,6.301-9.19,5.253-13.619c-1.046-4.432-5.488-7.176-9.919-6.129
	C91.379,78.81,88.636,83.251,89.683,87.682z"/>
<path class="body" fill="none" stroke="#FFFFFF" stroke-linecap="round" stroke-linejoin="round" stroke-miterlimit="10" d="M96.667,168.382
	L96.667,168.382c-1.247-23.192,1.618-28.998,1.618-28.998s-4.103-5.422-6.146-8.072c-2.042-2.649-2.389-6.298-2.389-6.298
	l-1.381-12.322c-0.532-4.808,1.766-9.255,6.393-10.348l3.082-0.728l4.361,3.207l3.318-5.022l2.777-0.655
	c4.626-1.094,8.671,1.854,10.347,6.392l4.281,11.638c0,0,1.322,3.42,0.683,6.702c-0.64,3.283-1.882,9.968-1.882,9.968
	s5.159,3.909,14.424,25.205c0,0,0.001,0,0.001,0.002c0.057,0.123,0.103,0.254,0.135,0.392c0.26,1.102-0.42,2.204-1.52,2.466
	c-0.001,0.001-0.003,0.001-0.005,0.002c-0.001,0-0.002,0.001-0.005,0l-8.102,1.915l3.501,30.333l0.03,0.263
	c0.072,1.184-0.714,2.288-1.909,2.569l-2.646,0.627l-7.518-31.817l-2.296,0.543l7.518,31.816l-2.646,0.625
	c-1.196,0.282-2.392-0.351-2.86-1.444l-0.09-0.248l-10.445-28.691l-8.103,1.914c-0.001,0-0.002,0.001-0.005,0.001
	c-0.002,0.001-0.003,0.001-0.005,0.001c-1.1,0.258-2.203-0.424-2.462-1.524C96.688,168.654,96.67,168.517,96.667,168.382z"/>
<rect class="rect-1" x="157.635" y="95.103" transform="matrix(-0.9732 0.23 -0.23 -0.9732 391.3983 159.8429)" fill="none" stroke="#FFFFFF" stroke-linecap="round" stroke-linejoin="round" stroke-miterlimit="10" width="57.5" height="15.25"/>
<rect class="rect-2" x="163.183" y="118.581" transform="matrix(-0.9732 0.23 -0.23 -0.9732 407.7458 204.8914)" fill="none" stroke="#FFFFFF" stroke-linecap="round" stroke-linejoin="round" stroke-miterlimit="10" width="57.5" height="15.251"/>
<line fill="none" stroke="#FFFFFF" stroke-linecap="round" stroke-linejoin="round" stroke-miterlimit="10" x1="217.785" y1="377.33" x2="175.132" y2="198.328"/>
<line fill="none" stroke="#FFFFFF" stroke-linecap="round" stroke-linejoin="round" stroke-miterlimit="10" x1="155.102" y1="203.131" x2="196.243" y2="375.786"/>
<polyline fill="none" stroke="#FFFFFF" stroke-linecap="round" stroke-linejoin="round" stroke-miterlimit="10" points="
	140.375,53.329 135.864,34.516 115.833,39.317 120.343,58.131 "/>
<polyline fill="none" stroke="#FFFFFF" stroke-linecap="round" stroke-linejoin="round" stroke-miterlimit="10" points="
	46.064,229.149 284.933,172.009 250.174,27.009 10.542,84.452 46.064,229.149 "/>
<path class="women-symbol" fill="none" stroke="#FFFFFF" stroke-linecap="round" stroke-linejoin="round" stroke-miterlimit="10" d="M599.285,132.33
	l-2.633,15.506l-13.818-2.346l-2.143,12.612l13.818,2.348l-2.567,15.118l12.612,2.144l2.568-15.12l13.817,2.347l2.142-12.612
	l-13.816-2.347l2.633-15.508c18.425,0.039,34.722-13.217,37.909-31.986c3.553-20.918-10.523-40.753-31.442-44.305
	c-20.917-3.552-40.751,10.523-44.304,31.441C570.874,108.391,581.882,126.285,599.285,132.33z"/>
<circle class="women-symbol-circle"  fill="none" stroke="#FFFFFF" stroke-linecap="round" stroke-linejoin="round" stroke-miterlimit="10" cx="611.934" cy="96.054" r="23.172"/>
<path fill="none" stroke="#FFFFFF" stroke-linecap="round" stroke-linejoin="round" stroke-miterlimit="10" d="M182.825,319.476
	C91.397,342.849,55.858,403.771,20.81,440.482"/>
<path fill="none" stroke="#FFFFFF" stroke-linecap="round" stroke-linejoin="round" stroke-miterlimit="10" d="M373.341,349.249
	c-33.247-20.354-96.61-40.767-170.297-33.782"/>
<path fill="none" stroke="#FFFFFF" stroke-linecap="round" stroke-linejoin="round" stroke-miterlimit="10" d="M451.374,415.986
	c-18.014-18.765-36.51-37.021-57.434-52.713"/>
<path fill="none" stroke="#FFFFFF" stroke-width="1.0598" stroke-linecap="round" stroke-linejoin="round" stroke-miterlimit="10" d="
	M557.069,336.853c-60.672-6.036-110.992,18.053-142.795,43.023"/>
<path fill="none" stroke="#FFFFFF" stroke-width="1.0598" stroke-linecap="round" stroke-linejoin="round" stroke-miterlimit="10" d="
	M727.989,440.482c-27.714-29.031-56.592-79-149.056-100.205"/>
<line fill="none" stroke="#FFFFFF" stroke-linecap="round" stroke-linejoin="round" stroke-miterlimit="10" x1="189.249" y1="376.558" x2="224.608" y2="377.291"/>
<line fill="none" stroke="#FFFFFF" stroke-linecap="round" stroke-linejoin="round" stroke-miterlimit="10" x1="535.263" y1="391.386" x2="573.513" y2="400.782"/>
<line fill="none" stroke="#FFFFFF" stroke-linecap="round" stroke-linejoin="round" stroke-miterlimit="10" x1="367.231" y1="403.649" x2="402.231" y2="402.564"/>
<line fill="none" stroke="#FFFFFF" stroke-linecap="round" stroke-linejoin="round" stroke-miterlimit="10" x1="373.34" y1="402.564" x2="373.34" y2="283.47"/>
<line fill="none" stroke="#FFFFFF" stroke-linecap="round" stroke-linejoin="round" stroke-miterlimit="10" x1="393.938" y1="283.47" x2="393.938" y2="402.228"/>
<polyline fill="none" stroke="#FFFFFF" stroke-linecap="round" stroke-linejoin="round" stroke-miterlimit="10" points="
	373.34,134.363 373.34,115.017 393.938,115.017 393.938,134.363 "/>
<line fill="none" stroke="#FFFFFF" stroke-linecap="round" stroke-linejoin="round" stroke-miterlimit="10" x1="276.731" y1="134.364" x2="470.501" y2="134.364"/>
<polyline fill="none" stroke="#FFFFFF" stroke-linecap="round" stroke-linejoin="round" stroke-miterlimit="10" points="
	506.851,177.189 506.851,283.471 260.429,283.471 260.429,177.87 "/>
<path class="planet-perimeter" fill="none" stroke="#FFFFFF" stroke-linecap="round" stroke-linejoin="round" stroke-miterlimit="10" d="M440.561,208.257
	c0,31.438-25.485,56.919-56.922,56.919c-31.436,0-56.921-25.48-56.921-56.919c0-31.437,25.486-56.922,56.921-56.922
	C415.075,151.335,440.561,176.82,440.561,208.257z"/>
<path class="america" fill="none" stroke="#FFFFFF" stroke-linecap="round" stroke-linejoin="round" stroke-miterlimit="10" d="M381.112,190.27
	c-3.503-2.919-12.833-3.89-15.168-4.474c-2.336-0.579-4.087-1.747-8.753-1.163c-4.665,0.584-7.584-1.363-7.775-5.254
	c-0.197-3.885,7.972-9.33,10.886-13.608c1.489-2.189,5.833-3.89,7-5.642c1.168-1.752,2.335-1.942,5.446-3.498
	c1.943-0.974,2.705-3.209,3.003-4.749c-21.028,2.916-38.384,17.315-45.527,36.665c4.518,0.168,14.752,0.711,16.661,4.059
	c1.343,2.345-4.469,7.972-4.278,14.191c0.166,5.111,7.78,8.554,9.723,11.281c1.948,2.718,0.583,8.948,1.555,11.475
	c0.977,2.526-0.583,6.221,7.393,14.967c7.972,8.758,6.805,0.201,7-2.325c0.192-2.536-0.583-7.981,0-13.034
	c0.584-5.053,1.943-8.556,5.25-12.643c3.306-4.076,7.388-2.526,11.47-8.553C389.083,201.936,384.61,193.188,381.112,190.27z"/>
<path class="south" fill="none" stroke="#FFFFFF" stroke-linecap="round" stroke-linejoin="round" stroke-miterlimit="10" d="M384.667,265.176
	c11.452,0,22.111-3.385,31.039-9.203c-1.595-2.295-5.155-5.932-11.979-6.591c-4.144-0.403-13.423,2.728-16.532,3.896
	c-3.111,1.167-12.054,3.109-13.609,3.109c-1.56,0-3.503,2.336-4.474,3.503c-0.497,0.593-2.783,1.121-4.897,1.497
	C370.563,263.832,377.458,265.176,384.667,265.176z"/>
<path class="europe" fill="none" stroke="#FFFFFF" stroke-linecap="round" stroke-linejoin="round" stroke-miterlimit="10" d="M402.046,154.6
	c-1.34,1.559-3.047,3.682-3.047,4.392c0,1.162-0.775,8.556,3.699,8.943c4.469,0.388,7.972-2.724,8.943-2.14
	c0.971,0.585,3.307,3.694,1.752,5.643c-1.557,1.942-8.557,8.556-8.949,11.857c-0.387,3.306,2.335,10.698,6.029,13.029
	c3.694,2.335,5.642,2.531,9.336,2.723c2.642,0.135,7,6.029,7.191,11.475c0.196,5.442,0.779,16.727-1.162,20.219
	c-1.947,3.503-1.947,6.029-1.168,7.59c0.467,0.933,2.282,3.508,3.653,5.409c7.662-9.696,12.237-21.943,12.237-35.262
	C440.562,183.483,424.448,162.253,402.046,154.6z"/>
</svg>
