<?xml version="1.0" encoding="utf-8"?>
<!-- Generator: Adobe Illustrator 16.0.0, SVG Export Plug-In . SVG Version: 6.00 Build 0)  -->
<!DOCTYPE svg PUBLIC "-//W3C//DTD SVG 1.1//EN" "http://www.w3.org/Graphics/SVG/1.1/DTD/svg11.dtd">
<svg version="1.1" id="Capa_1" xmlns="http://www.w3.org/2000/svg" xmlns:xlink="http://www.w3.org/1999/xlink" x="0px" y="0px"
	 width="556.818px" height="539.772px" viewBox="0 0 556.818 539.772" enable-background="new 0 0 556.818 539.772"
	 xml:space="preserve">
<g class="to-show-1">
	<circle fill="none" stroke="#FFFFFF" stroke-miterlimit="10" cx="276.959" cy="96.059" r="86.995"/>
	<g>
		<g>
			<path fill="none" stroke="#FFFFFF" stroke-linecap="round" stroke-linejoin="round" stroke-miterlimit="10" d="M285.117,130.92
				l-0.742-6.068c-0.293-2.367-1.902-4.238-4.246-4.236l-1.559,0.004l-1.729,2.035l-2.164-2.032l-1.406,0.003
				c-2.345,0.001-3.949,1.877-4.234,4.244l-0.727,6.071"/>
			<path fill="none" stroke="#FFFFFF" stroke-linecap="round" stroke-linejoin="round" stroke-miterlimit="10" d="M281.025,114.938
				c0.002,2.244-1.814,4.312-4.057,4.314c-2.248,0.001-4.071-2.061-4.073-4.304c-0.003-2.245,1.814-4.066,4.06-4.07
				C279.201,110.876,281.021,112.695,281.025,114.938z"/>
		</g>
		<g>
			<path fill="none" stroke="#FFFFFF" stroke-linecap="round" stroke-linejoin="round" stroke-miterlimit="10" d="M262.947,130.92
				l-0.741-6.068c-0.294-2.367-1.903-4.238-4.247-4.236l-1.559,0.004l-1.729,2.035l-2.164-2.032l-1.406,0.003
				c-2.344,0.001-3.949,1.877-4.234,4.244l-0.727,6.071"/>
			<path fill="none" stroke="#FFFFFF" stroke-linecap="round" stroke-linejoin="round" stroke-miterlimit="10" d="M258.609,114.938
				c0.002,2.244-1.813,4.312-4.057,4.314c-2.248,0.001-4.071-2.061-4.074-4.304c-0.002-2.245,1.815-4.066,4.061-4.07
				C256.783,110.876,258.605,112.695,258.609,114.938z"/>
		</g>
		<g>
			<path fill="none" stroke="#FFFFFF" stroke-linecap="round" stroke-linejoin="round" stroke-miterlimit="10" d="M273.884,150.811
				l-0.741-6.068c-0.294-2.367-1.903-4.238-4.247-4.236l-1.559,0.004l-1.729,2.035l-2.164-2.032l-1.406,0.003
				c-2.346,0.001-3.949,1.877-4.234,4.244l-0.727,6.071"/>
			<path fill="none" stroke="#FFFFFF" stroke-linecap="round" stroke-linejoin="round" stroke-miterlimit="10" d="M269.546,134.268
				c0.002,2.244-1.813,4.312-4.057,4.314c-2.248,0.001-4.071-2.061-4.074-4.304c-0.002-2.245,1.814-4.066,4.061-4.07
				C267.72,130.205,269.542,132.024,269.546,134.268z"/>
		</g>
		<g>
			<path fill="none" stroke="#FFFFFF" stroke-linecap="round" stroke-linejoin="round" stroke-miterlimit="10" d="M296.334,150.811
				l-0.741-6.068c-0.294-2.367-1.904-4.238-4.248-4.236l-1.559,0.004l-1.728,2.035l-2.164-2.032l-1.406,0.003
				c-2.345,0.001-3.95,1.877-4.233,4.244l-0.728,6.071"/>
			<path fill="none" stroke="#FFFFFF" stroke-linecap="round" stroke-linejoin="round" stroke-miterlimit="10" d="M292.025,134.05
				c0.002,2.244-1.814,4.312-4.057,4.314c-2.248,0.001-4.071-2.061-4.073-4.304c-0.003-2.245,1.814-4.066,4.06-4.07
				C290.201,129.987,292.021,131.807,292.025,134.05z"/>
		</g>
		<g>
			<path fill="none" stroke="#FFFFFF" stroke-linecap="round" stroke-linejoin="round" stroke-miterlimit="10" d="M303.558,114.635
				c0.002,2.244-1.813,4.312-4.057,4.314c-2.246,0.001-4.071-2.061-4.074-4.304c-0.002-2.245,1.814-4.066,4.062-4.07
				C301.733,110.572,303.555,112.392,303.558,114.635z"/>
			<path fill="none" stroke="#FFFFFF" stroke-linecap="round" stroke-linejoin="round" stroke-miterlimit="10" d="M307.779,130.92
				l-0.74-6.068c-0.294-2.367-1.903-4.238-4.248-4.236l-1.558,0.004l-1.728,2.035l-2.164-2.032l-1.408,0.003
				c-2.344,0.001-3.948,1.877-4.234,4.244l-0.727,6.071"/>
		</g>
		<polyline fill="none" stroke="#FFFFFF" stroke-linecap="round" stroke-linejoin="round" stroke-miterlimit="10" points="
			270.783,113.446 265.089,113.446 265.089,101.67 288.339,101.67 288.339,113.446 283.035,113.446 		"/>
		<g>
			<path fill="none" stroke="#FFFFFF" stroke-miterlimit="10" d="M285.746,68.332V62.05c0-3.241-2.65-5.892-5.891-5.892h-6.283
				c-3.238,0-5.891,2.65-5.891,5.892v6.282c0,2.07,1.086,3.896,2.711,4.947l-2.711,20.531h3.923v5.55
				c0,1.194,0.966,2.161,2.161,2.161c1.191,0,2.16-0.967,2.16-2.161v-5.55h0.789h0.788v5.55c0,1.194,0.968,2.161,2.161,2.161
				s2.16-0.967,2.16-2.161v-5.55h3.922l-2.709-20.531C284.662,72.229,285.746,70.402,285.746,68.332z"/>
			<circle fill="none" stroke="#FFFFFF" stroke-miterlimit="10" cx="276.74" cy="48.698" r="5.38"/>
		</g>
	</g>
</g>
<g class="to-show-2">
	<circle fill="none" stroke="#FFFFFF" stroke-miterlimit="10" cx="461.042" cy="229.955" r="86.996"/>
	<path fill="none" stroke="#FFFFFF" stroke-miterlimit="10" d="M361.757,115.58c20.473,9.998,38.921,23.504,54.558,39.734"/>
	<g>
		<polygon fill="none" stroke="#FFFFFF" stroke-miterlimit="10" points="492.759,196.773 481.086,196.773 481.086,185.1 
			475.219,185.1 475.219,196.773 463.545,196.773 463.545,202.642 475.219,202.642 475.219,214.313 481.086,214.313 
			481.086,202.642 492.759,202.642 		"/>
		<rect x="459.961" y="181.645" fill="none" stroke="#FFFFFF" stroke-miterlimit="10" width="36.887" height="36.886"/>
		<path fill="none" stroke="#FFFFFF" stroke-linejoin="round" stroke-miterlimit="10" d="M458.392,225.174l-10.861-16.439
			c-2.2-3.143-7.218-3.189-10.286-0.798c-0.077,0.057-0.15,0.116-0.22,0.179c-0.217,0.182-0.425,0.379-0.627,0.588l-7.87,7.457
			c-1.056,0.996-1.119,2.642-0.165,3.719c0.137,0.167,0.295,0.318,0.479,0.45l9.444,6.806c0.947,0.682,2.186,0.657,3.093,0.029
			c-0.051,0.094-0.086,0.148-0.086,0.148l-9.91,19.234h11.96l-1.865,24.668c-0.122,1.655,1.118,3.096,2.769,3.221
			c1.654,0.125,3.097-1.113,3.221-2.768l1.898-25.121h0.283h7.305v-9.402C462.742,231.393,458.392,225.174,458.392,225.174z
			 M434.552,217.837l5.087-4.815l0.021,0.029c0,0,1.36,5.091,2.138,8.744c0.121,0.574,0.19,1.102,0.223,1.586
			c-0.164-0.222-0.36-0.424-0.596-0.595L434.552,217.837z"/>
		<circle fill="none" stroke="#FFFFFF" stroke-linejoin="round" stroke-miterlimit="10" cx="444.363" cy="197.43" r="6.723"/>
	</g>
</g>
<g class="to-show-3">
	<circle fill="none" stroke="#FFFFFF" stroke-miterlimit="10" cx="390.349" cy="446.329" r="86.996"/>
	<path fill="none" stroke="#FFFFFF" stroke-miterlimit="10" d="M468.566,316.639c-3.213,22.924-10.44,44.561-20.952,64.175"/>
	<g>
		<g>
			<path fill="none" stroke="#FFFFFF" stroke-miterlimit="10" d="M404.343,440.62v-9.736c0-5.021-4.106-9.129-9.127-9.129h-9.738
				c-5.02,0-9.127,4.107-9.127,9.129v9.736c0,3.207,1.681,6.036,4.2,7.666l-4.2,31.815h6.078v8.6c0,1.851,1.498,3.349,3.348,3.349
				c1.849,0,3.349-1.498,3.349-3.349v-8.6h1.223h1.222v8.6c0,1.851,1.5,3.349,3.349,3.349s3.347-1.498,3.347-3.349v-8.6h6.078
				l-4.199-31.815C402.664,446.656,404.343,443.827,404.343,440.62z"/>
			<circle fill="none" stroke="#FFFFFF" stroke-miterlimit="10" cx="390.388" cy="410.344" r="9.737"/>
		</g>
		<polygon fill="#FFFFFF" stroke="#FFFFFF" stroke-miterlimit="10" points="404.343,431.416 384.304,445.564 389.125,448.685 
			379.623,455.316 379.542,455.925 400.125,448.303 394.343,444.958 404.343,437.958 		"/>
	</g>
</g>
<g class="to-show-4">
	<circle fill="none" stroke="#FFFFFF" stroke-miterlimit="10" cx="162.722" cy="445.713" r="86.995"/>
	<path fill="none" stroke="#FFFFFF" stroke-miterlimit="10" d="M310.192,480.195c-10.797,1.868-21.901,2.842-33.233,2.842
		c-11.696,0-23.147-1.038-34.271-3.025"/>
	<g>
		<path fill="none" stroke="#FFFFFF" stroke-miterlimit="10" d="M198.925,452.57c2.432-3.528,1.896-7.329-1.09-9.711
			c0,0-1.263-0.967-2.519-1.5v-20.511c0-2.498,2.025-4.522,4.522-4.522l0,0c2.5,0,4.523,2.024,4.523,4.522v31.662
			c0,1.243-0.72,2.979-1.599,3.86l-2.576,2.693l-11.229,12.633l-2.158,2.256c-0.877,0.879-1.599,2.616-1.599,3.86v3.736
			c0,1.949,1.132,7.192,1.132,7.192h-18.578v-14.795c0-3.125,1.146-5.979,3.045-8.162l17.56-20.71
			c1.805-2.262,5.102-2.631,7.364-0.827l0,0c2.265,1.808,2.668,4.69,0.825,7.366l-9.376,13.883
			c-0.388,0.572-0.244,1.353,0.329,1.741l0,0c0.574,0.39,1.351,0.241,1.742-0.332L198.925,452.57z"/>
		<path fill="none" stroke="#FFFFFF" stroke-miterlimit="10" d="M124.516,452.57c-2.433-3.528-1.897-7.329,1.089-9.711
			c0,0,1.262-0.967,2.521-1.5v-20.511c0-2.498-2.028-4.522-4.524-4.522l0,0c-2.497,0-4.522,2.024-4.522,4.522v31.662
			c0,1.243,0.72,2.979,1.6,3.86l2.573,2.693l11.227,12.633l2.162,2.256c0.881,0.879,1.601,2.616,1.601,3.86v3.736
			c0,1.949-1.132,7.192-1.132,7.192h18.579v-14.795c0-3.125-1.149-5.979-3.048-8.162l-17.558-20.71
			c-1.807-2.262-5.104-2.631-7.366-0.827l0,0c-2.263,1.808-2.668,4.69-0.824,7.366l9.376,13.883
			c0.389,0.572,0.242,1.353-0.331,1.741l0,0c-0.571,0.39-1.351,0.241-1.742-0.332L124.516,452.57z"/>
		<g>
			<path fill="none" stroke="#FFFFFF" stroke-miterlimit="10" d="M173.062,423.687c0,6.408-5.192,11.604-11.604,11.604
				c-6.407,0-11.603-5.195-11.603-11.604c0-6.409,5.195-11.604,11.603-11.604C167.87,412.082,173.062,417.277,173.062,423.687z"/>
			<line fill="none" stroke="#FFFFFF" stroke-miterlimit="10" x1="161.458" y1="435.29" x2="161.458" y2="449.295"/>
			<line fill="none" stroke="#FFFFFF" stroke-miterlimit="10" x1="177.126" y1="405.275" x2="168.192" y2="414.214"/>
			<line fill="none" stroke="#FFFFFF" stroke-miterlimit="10" x1="156.042" y1="443.749" x2="166.877" y2="443.749"/>
			<polyline fill="none" stroke="#FFFFFF" stroke-miterlimit="10" points="171.425,405.275 177.126,405.275 177.126,410.979 			"/>
			<line fill="none" stroke="#FFFFFF" stroke-miterlimit="10" x1="155.825" y1="421.274" x2="167.091" y2="421.274"/>
			<line fill="none" stroke="#FFFFFF" stroke-miterlimit="10" x1="155.825" y1="426.099" x2="167.091" y2="426.099"/>
		</g>
	</g>
</g>
<g class="to-show-5">
	<circle fill="none" stroke="#FFFFFF" stroke-miterlimit="10" cx="93.199" cy="228.96" r="86.996"/>
	<path fill="none" stroke="#FFFFFF" stroke-miterlimit="10" d="M138.331,154.563c15.482-15.897,33.677-29.142,53.834-38.985"/>
	<path fill="none" stroke="#FFFFFF" stroke-miterlimit="10" d="M105.919,380.095c-10.461-19.719-17.611-41.462-20.71-64.488"/>
	<g>
		<path fill="none" stroke="#FFFFFF" stroke-miterlimit="10" d="M132.114,273.042H63.183c-0.255-0.001-0.508-0.098-0.699-0.289
			l-2.565-2.565c-0.388-0.387-0.702-1.148-0.702-1.695v-84.459h68.933v82.721"/>
		<path fill="none" stroke="#FFFFFF" stroke-miterlimit="10" d="M63.884,273.042l2.566-2.565c0.385-0.385,0.702-1.148,0.702-1.693
			v-2.027h68.931v2.027c0,0.545-0.315,1.309-0.7,1.693l-2.565,2.565H63.884z"/>
		<line fill="none" stroke="#FFFFFF" stroke-miterlimit="10" x1="65.444" y1="192.611" x2="121.53" y2="192.611"/>
		<line fill="none" stroke="#FFFFFF" stroke-miterlimit="10" x1="65.444" y1="198.479" x2="93.486" y2="198.479"/>
		<line fill="none" stroke="#FFFFFF" stroke-miterlimit="10" x1="65.444" y1="209.555" x2="121.53" y2="209.555"/>
		<line fill="none" stroke="#FFFFFF" stroke-miterlimit="10" x1="65.444" y1="215.422" x2="121.53" y2="215.422"/>
		<line fill="none" stroke="#FFFFFF" stroke-miterlimit="10" x1="65.444" y1="221.291" x2="121.53" y2="221.291"/>
		<line fill="none" stroke="#FFFFFF" stroke-miterlimit="10" x1="65.444" y1="227.158" x2="121.53" y2="227.158"/>
		<g>
			<circle fill="none" stroke="#FFFFFF" stroke-miterlimit="10" cx="92.729" cy="246.096" r="7.389"/>
			<line fill="none" stroke="#FFFFFF" stroke-miterlimit="10" x1="92.729" y1="253.486" x2="92.729" y2="262.404"/>
			<line fill="none" stroke="#FFFFFF" stroke-miterlimit="10" x1="102.707" y1="234.37" x2="97.016" y2="240.063"/>
			<line fill="none" stroke="#FFFFFF" stroke-miterlimit="10" x1="89.28" y1="258.873" x2="96.18" y2="258.873"/>
			<polyline fill="none" stroke="#FFFFFF" stroke-miterlimit="10" points="99.077,234.37 102.707,234.37 102.707,238.002 			"/>
			<line fill="none" stroke="#FFFFFF" stroke-miterlimit="10" x1="89.14" y1="244.559" x2="96.317" y2="244.559"/>
			<line fill="none" stroke="#FFFFFF" stroke-miterlimit="10" x1="89.14" y1="247.632" x2="96.317" y2="247.632"/>
		</g>
		<polyline fill="none" stroke="#FFFFFF" stroke-miterlimit="10" points="59.22,263.928 55.635,263.928 55.635,180.645 
			124.586,180.645 124.586,184.031 		"/>
		<polyline fill="none" stroke="#FFFFFF" stroke-miterlimit="10" points="59.216,267.928 51.901,267.928 51.901,184.645 
			55.632,184.645 		"/>
	</g>
</g>
</svg>
