<?xml version="1.0" encoding="utf-8"?>
<!-- Generator: Adobe Illustrator 16.0.0, SVG Export Plug-In . SVG Version: 6.00 Build 0)  -->
<!DOCTYPE svg PUBLIC "-//W3C//DTD SVG 1.1//EN" "http://www.w3.org/Graphics/SVG/1.1/DTD/svg11.dtd">
<svg version="1.1" id="Capa_1" xmlns="http://www.w3.org/2000/svg" xmlns:xlink="http://www.w3.org/1999/xlink" x="0px" y="0px"
	 width="553.41px" height="534.09px" viewBox="0 0 553.41 534.09" enable-background="new 0 0 553.41 534.09" xml:space="preserve">
<g class="to-show-1">
	<circle fill="none" stroke="#FFFFFF" stroke-miterlimit="10" cx="277.199" cy="91.612" r="86.995"/>
	<g>
		<g>
			<g>
				<path fill="none" stroke="#FFFFFF" stroke-miterlimit="10" d="M226.516,105.296c-1.489,0.437-2.34,1.996-1.905,3.484
					l1.541,5.262c0.438,1.488,1.997,2.34,3.483,1.905l2.688-0.788l-3.119-10.65L226.516,105.296z"/>
			</g>
			<g>
				<path fill="none" stroke="#FFFFFF" stroke-miterlimit="10" d="M230.52,99.012c-1.489,0.437-2.343,1.996-1.905,3.484
					l4.301,14.676c0.434,1.488,1.995,2.341,3.482,1.904l10.646-3.118l-5.878-20.065L230.52,99.012z"/>
			</g>
			<polygon fill="none" stroke="#FFFFFF" stroke-miterlimit="10" points="272.558,113.814 247.044,115.958 241.166,95.893 
				263.803,83.928 			"/>
			<path fill="none" stroke="#FFFFFF" stroke-miterlimit="10" d="M275.423,113.88c0.209,0.723-0.204,1.48-0.926,1.692l0,0
				c-0.724,0.212-1.481-0.203-1.692-0.925l-9.244-31.553c-0.213-0.722,0.2-1.479,0.924-1.691l0,0
				c0.723-0.211,1.479,0.202,1.692,0.926L275.423,113.88z"/>
			<g>
				<path fill="none" stroke="#FFFFFF" stroke-miterlimit="10" d="M238.585,118.436l4.878,16.642
					c0.359,1.228,1.646,1.931,2.873,1.571l4.013-1.176c1.227-0.359,1.93-1.646,1.571-2.873l-4.876-16.642L238.585,118.436z"/>
			</g>
		</g>
		<path fill="none" stroke="#FFFFFF" stroke-miterlimit="10" d="M301.849,41.95c-15.049,0-27.247,12.199-27.247,27.248
			c0,0.203,0.004,0.407,0.008,0.61l-0.008-0.016v26.652l9.717-6.39c4.738,3.986,10.854,6.39,17.53,6.39
			c15.047,0,27.248-12.199,27.248-27.247C329.097,54.149,316.896,41.95,301.849,41.95z"/>
		<g>
			<circle fill="none" stroke="#FFFFFF" stroke-miterlimit="10" cx="301.849" cy="62.838" r="10.921"/>
			<line fill="none" stroke="#FFFFFF" stroke-miterlimit="10" x1="301.851" y1="73.76" x2="301.851" y2="86.94"/>
			<line fill="none" stroke="#FFFFFF" stroke-miterlimit="10" x1="296.75" y1="81.72" x2="306.949" y2="81.72"/>
		</g>
	</g>
</g>
<g class="to-show-2">
	<g>
		<path fill="none" d="M543.572,198.868c-11.594-35.815-44.658-59.879-82.273-59.879c-9.021,0-17.99,1.423-26.656,4.228
			c-45.375,14.69-70.34,63.556-55.65,108.931c11.594,35.815,44.658,59.879,82.271,59.879c9.023,0,17.992-1.422,26.658-4.228
			c21.982-7.115,39.877-22.364,50.387-42.938C548.82,244.287,550.687,220.851,543.572,198.868z"/>
		<path fill="#FFFFFF" d="M544.523,198.562c-11.729-36.23-45.174-60.572-83.225-60.572c-9.127,0-18.201,1.438-26.967,4.276
			c-6.303,2.041-12.213,4.736-17.688,7.981c-15.785-16.32-34.094-29.633-54.43-39.563l-0.438,0.898
			c20.16,9.846,38.318,23.034,53.986,39.196c-33.797,20.584-50.434,62.42-37.725,101.678c11.729,36.229,45.172,60.57,83.223,60.57
			c9.127,0,18.199-1.438,26.967-4.275c22.234-7.197,40.338-22.623,50.971-43.437C549.832,244.504,551.722,220.797,544.523,198.562z
			 M538.308,264.861c-10.51,20.574-28.404,35.823-50.387,42.938c-8.666,2.806-17.635,4.228-26.658,4.228
			c-37.613,0-70.678-24.063-82.271-59.879c-14.689-45.375,10.275-94.241,55.65-108.931c8.666-2.805,17.635-4.228,26.656-4.228
			c37.615,0,70.68,24.063,82.273,59.879C550.687,220.851,548.82,244.287,538.308,264.861z"/>
	</g>
	<g>
		<polygon fill="none" stroke="#FFFFFF" stroke-miterlimit="10" points="493,192.327 481.326,192.327 481.326,180.653 
			475.458,180.653 475.458,192.327 463.785,192.327 463.785,198.195 475.458,198.195 475.458,209.867 481.326,209.867 
			481.326,198.195 493,198.195 		"/>
		<rect x="460.201" y="177.198" fill="none" stroke="#FFFFFF" stroke-miterlimit="10" width="36.887" height="36.886"/>
		<path fill="none" stroke="#FFFFFF" stroke-linejoin="round" stroke-miterlimit="10" d="M458.632,220.728l-10.861-16.439
			c-2.199-3.143-7.219-3.189-10.285-0.798c-0.078,0.057-0.15,0.116-0.221,0.179c-0.217,0.182-0.426,0.379-0.627,0.588l-7.871,7.457
			c-1.055,0.996-1.117,2.642-0.164,3.719c0.137,0.167,0.295,0.318,0.479,0.45l9.445,6.806c0.945,0.682,2.186,0.657,3.092,0.029
			c-0.051,0.094-0.086,0.148-0.086,0.148l-9.91,19.234h11.961l-1.865,24.668c-0.123,1.655,1.117,3.097,2.77,3.222
			s3.096-1.113,3.221-2.769l1.896-25.121h0.283h7.307v-9.402C462.98,226.946,458.632,220.728,458.632,220.728z M434.792,213.391
			l5.086-4.815l0.021,0.029c0,0,1.359,5.091,2.139,8.744c0.121,0.574,0.189,1.102,0.223,1.586c-0.164-0.222-0.359-0.424-0.596-0.595
			L434.792,213.391z"/>
		<circle fill="none" stroke="#FFFFFF" stroke-linejoin="round" stroke-miterlimit="10" cx="444.603" cy="192.983" r="6.723"/>
	</g>
</g>
<g class="to-show-3">
	<circle fill="none" stroke="#FFFFFF" stroke-miterlimit="10" cx="390.589" cy="441.883" r="86.996"/>
	<path fill="none" stroke="#FFFFFF" stroke-miterlimit="10" d="M468.806,312.192c-3.213,22.924-10.439,44.561-20.953,64.176"/>
	<g>
		<path fill="none" stroke="#FFFFFF" stroke-miterlimit="10" d="M408.083,434.747v-12.17c0-6.277-5.135-11.412-11.41-11.412h-12.172
			c-6.275,0-11.41,5.135-11.41,11.412v12.17c0,4.01,2.104,7.545,5.25,9.582l-5.25,39.77h7.6v10.75c0,2.314,1.871,4.188,4.186,4.188
			c2.311,0,4.186-1.873,4.186-4.188v-10.75h1.527h1.525v10.75c0,2.314,1.877,4.188,4.188,4.188c2.313,0,4.186-1.873,4.186-4.188
			v-10.75h7.598l-5.25-39.77C405.984,442.292,408.083,438.756,408.083,434.747z"/>
		<circle fill="none" stroke="#FFFFFF" stroke-miterlimit="10" cx="390.638" cy="396.902" r="12.171"/>
		<polygon fill="none" stroke="#FFFFFF" stroke-miterlimit="10" points="408.083,423.243 383.033,440.928 389.06,444.827 
			377.181,453.118 377.082,453.877 402.81,444.35 395.583,440.168 408.083,431.418 		"/>
	</g>
</g>
<g class="to-show-4">
	<circle fill="none" stroke="#FFFFFF" stroke-miterlimit="10" cx="162.961" cy="441.267" r="86.995"/>
	<path fill="none" stroke="#FFFFFF" stroke-miterlimit="10" d="M310.431,475.749c-10.797,1.869-21.9,2.842-33.232,2.842
		c-11.696,0-23.147-1.037-34.271-3.023"/>
	<g>
		<path fill="none" stroke="#FFFFFF" stroke-miterlimit="10" d="M199.165,448.124c2.432-3.527,1.896-7.328-1.09-9.711
			c0,0-1.263-0.967-2.519-1.5v-20.511c0-2.498,2.025-4.522,4.522-4.522l0,0c2.5,0,4.523,2.024,4.523,4.522v31.663
			c0,1.242-0.72,2.979-1.599,3.859l-2.576,2.693l-11.229,12.633l-2.158,2.256c-0.877,0.879-1.599,2.615-1.599,3.859v3.736
			c0,1.949,1.132,7.191,1.132,7.191h-18.578v-14.795c0-3.125,1.146-5.979,3.045-8.162l17.56-20.709
			c1.805-2.262,5.102-2.631,7.364-0.828l0,0c2.265,1.809,2.668,4.691,0.825,7.367l-9.376,13.883
			c-0.388,0.572-0.244,1.354,0.329,1.74l0,0c0.574,0.391,1.351,0.242,1.742-0.332L199.165,448.124z"/>
		<path fill="none" stroke="#FFFFFF" stroke-miterlimit="10" d="M124.756,448.124c-2.433-3.527-1.897-7.328,1.089-9.711
			c0,0,1.262-0.967,2.521-1.5v-20.511c0-2.498-2.028-4.522-4.524-4.522l0,0c-2.497,0-4.522,2.024-4.522,4.522v31.663
			c0,1.242,0.72,2.979,1.6,3.859l2.573,2.693l11.227,12.633l2.162,2.256c0.881,0.879,1.601,2.615,1.601,3.859v3.736
			c0,1.949-1.132,7.191-1.132,7.191h18.579v-14.795c0-3.125-1.149-5.979-3.048-8.162l-17.558-20.709
			c-1.807-2.262-5.104-2.631-7.366-0.828l0,0c-2.263,1.809-2.668,4.691-0.824,7.367l9.376,13.883
			c0.389,0.572,0.242,1.354-0.331,1.74l0,0c-0.571,0.391-1.351,0.242-1.742-0.332L124.756,448.124z"/>
		<g>
			<path fill="none" stroke="#FFFFFF" stroke-miterlimit="10" d="M173.302,419.241c0,6.408-5.192,11.604-11.604,11.604
				c-6.407,0-11.603-5.195-11.603-11.604c0-6.41,5.195-11.605,11.603-11.605C168.109,407.635,173.302,412.831,173.302,419.241z"/>
			<line fill="none" stroke="#FFFFFF" stroke-miterlimit="10" x1="161.698" y1="430.844" x2="161.698" y2="444.848"/>
			<line fill="none" stroke="#FFFFFF" stroke-miterlimit="10" x1="177.366" y1="400.829" x2="168.432" y2="409.768"/>
			<line fill="none" stroke="#FFFFFF" stroke-miterlimit="10" x1="156.282" y1="439.303" x2="167.117" y2="439.303"/>
			<polyline fill="none" stroke="#FFFFFF" stroke-miterlimit="10" points="171.665,400.829 177.366,400.829 177.366,406.532 			"/>
			<line fill="none" stroke="#FFFFFF" stroke-miterlimit="10" x1="156.064" y1="416.829" x2="167.331" y2="416.829"/>
			<line fill="none" stroke="#FFFFFF" stroke-miterlimit="10" x1="156.064" y1="421.653" x2="167.331" y2="421.653"/>
		</g>
	</g>
</g>
<g class="to-show-5">
	<circle fill="none" stroke="#FFFFFF" stroke-miterlimit="10" cx="93.439" cy="224.514" r="86.996"/>
	<path fill="none" stroke="#FFFFFF" stroke-miterlimit="10" d="M138.57,150.117c15.482-15.897,33.677-29.142,53.834-38.985"/>
	<path fill="none" stroke="#FFFFFF" stroke-miterlimit="10" d="M106.159,375.648c-10.461-19.719-17.611-41.462-20.71-64.487"/>
	<g>
		<path fill="none" stroke="#FFFFFF" stroke-miterlimit="10" d="M132.354,268.596H63.423c-0.255-0.002-0.508-0.098-0.699-0.289
			l-2.565-2.565c-0.388-0.387-0.702-1.148-0.702-1.695v-84.459h68.933v82.721"/>
		<path fill="none" stroke="#FFFFFF" stroke-miterlimit="10" d="M64.124,268.596l2.566-2.565c0.385-0.385,0.702-1.148,0.702-1.693
			v-2.027h68.931v2.027c0,0.545-0.315,1.309-0.7,1.693l-2.565,2.565H64.124z"/>
		<line fill="none" stroke="#FFFFFF" stroke-miterlimit="10" x1="65.684" y1="188.165" x2="121.77" y2="188.165"/>
		<line fill="none" stroke="#FFFFFF" stroke-miterlimit="10" x1="65.684" y1="194.033" x2="93.726" y2="194.033"/>
		<line fill="none" stroke="#FFFFFF" stroke-miterlimit="10" x1="65.684" y1="205.108" x2="121.77" y2="205.108"/>
		<line fill="none" stroke="#FFFFFF" stroke-miterlimit="10" x1="65.684" y1="210.976" x2="121.77" y2="210.976"/>
		<line fill="none" stroke="#FFFFFF" stroke-miterlimit="10" x1="65.684" y1="216.845" x2="121.77" y2="216.845"/>
		<line fill="none" stroke="#FFFFFF" stroke-miterlimit="10" x1="65.684" y1="222.712" x2="121.77" y2="222.712"/>
		<g>
			<circle fill="none" stroke="#FFFFFF" stroke-miterlimit="10" cx="92.968" cy="241.649" r="7.389"/>
			<line fill="none" stroke="#FFFFFF" stroke-miterlimit="10" x1="92.969" y1="249.04" x2="92.969" y2="257.958"/>
			<line fill="none" stroke="#FFFFFF" stroke-miterlimit="10" x1="102.946" y1="229.924" x2="97.256" y2="235.616"/>
			<line fill="none" stroke="#FFFFFF" stroke-miterlimit="10" x1="89.52" y1="254.427" x2="96.42" y2="254.427"/>
			<polyline fill="none" stroke="#FFFFFF" stroke-miterlimit="10" points="99.316,229.924 102.946,229.924 102.946,233.556 			"/>
			<line fill="none" stroke="#FFFFFF" stroke-miterlimit="10" x1="89.38" y1="240.112" x2="96.557" y2="240.112"/>
			<line fill="none" stroke="#FFFFFF" stroke-miterlimit="10" x1="89.38" y1="243.186" x2="96.557" y2="243.186"/>
		</g>
		<polyline fill="none" stroke="#FFFFFF" stroke-miterlimit="10" points="59.46,259.481 55.875,259.481 55.875,176.198 
			124.826,176.198 124.826,179.585 		"/>
		<polyline fill="none" stroke="#FFFFFF" stroke-miterlimit="10" points="59.456,263.481 52.141,263.481 52.141,180.198 
			55.872,180.198 		"/>
	</g>
</g>
</svg>
